<svg width="78" height="92" viewBox="0 0 78 92" fill="none" xmlns="http://www.w3.org/2000/svg">
<path d="M40.2087 46.3304C45.4526 59.7824 50.4677 73.7431 41.5131 91.1265L39.5099 90.0946C40.7882 87.6116 41.8351 85.016 42.6374 82.34L6.5012 63.7253C4.78818 65.9323 3.28266 68.2916 2.0032 70.774L0 69.7421C8.95461 52.3587 23.2332 48.3366 37.2303 44.7961C31.9864 31.3442 26.9712 17.3834 35.9258 2.72046e-05L37.929 1.03192C36.6507 3.51489 35.6039 6.11046 34.8015 8.78652L70.9378 27.4012C72.6508 25.1942 74.1563 22.8349 75.4358 20.3526L77.439 21.3845C68.4844 38.7678 54.2058 42.7899 40.2087 46.3304ZM15.5738 55.3067L44.0663 69.9839C43.9317 67.0208 43.4927 64.0765 42.7563 61.1966L23.6471 51.353C20.8406 52.4016 18.1529 53.7356 15.6265 55.3338L15.5738 55.3067ZM43.1698 80.1409C43.7594 77.6481 44.0889 75.0994 44.153 72.5349L13.5519 56.7715C11.5011 58.3126 9.61718 60.0606 7.92982 61.9879L43.1698 80.1409ZM26.2618 50.2265L42.0763 58.373C40.9939 54.5176 39.5406 50.735 37.9952 46.872C34.0319 47.8973 30.0949 48.9362 26.3145 50.2537L26.2618 50.2265ZM39.3646 44.2137C43.3807 43.2156 47.3177 42.1767 51.098 40.8593L35.2835 32.7128C36.4584 36.5828 37.9655 40.2612 39.3641 44.2794L39.3646 44.2137ZM61.7861 35.7791L33.2672 21.0883C33.4102 24.0506 33.849 26.9942 34.5772 29.8756L53.8973 39.8279C56.6319 38.7243 59.2477 37.3544 61.707 35.7383L61.7861 35.7791ZM34.1901 10.9449C33.6005 13.4377 33.271 15.9864 33.2069 18.5509L63.8607 34.3415C65.9115 32.8003 67.7954 31.0523 69.4828 29.125L34.1901 10.9449Z" fill="#008CB4"/>
</svg>
