<svg width="29" height="24" viewBox="0 0 29 24" fill="none" xmlns="http://www.w3.org/2000/svg">
<path d="M18.2923 13.4822H15.9513V15.8232C15.9528 15.8973 15.9395 15.971 15.9121 16.0399C15.8848 16.1088 15.844 16.1716 15.7921 16.2245C15.7401 16.2775 15.6782 16.3195 15.6098 16.3482C15.5415 16.3769 15.4681 16.3917 15.394 16.3917H13.6661C13.5153 16.3917 13.3707 16.3318 13.264 16.2252C13.1574 16.1186 13.0976 15.974 13.0976 15.8232V13.4822H10.7677C10.6936 13.4837 10.6199 13.4703 10.551 13.443C10.4821 13.4157 10.4193 13.3748 10.3664 13.3229C10.3134 13.271 10.2713 13.2091 10.2426 13.1407C10.2139 13.0724 10.1992 12.999 10.1992 12.9248V11.1635C10.1992 11.0127 10.2591 10.8681 10.3657 10.7615C10.4723 10.6549 10.6169 10.595 10.7677 10.595H13.0976V8.26513C13.0976 8.11434 13.1574 7.96975 13.264 7.86313C13.3707 7.75651 13.5153 7.69661 13.6661 7.69661H15.394C15.4681 7.69659 15.5415 7.71138 15.6098 7.74008C15.6782 7.76879 15.7401 7.81083 15.7921 7.86378C15.844 7.91672 15.8848 7.97949 15.9121 8.0484C15.9395 8.11732 15.9528 8.191 15.9513 8.26513V10.595H18.2923C18.4431 10.595 18.5877 10.6549 18.6943 10.7615C18.801 10.8681 18.8608 11.0127 18.8608 11.1635V12.8914C18.8655 12.9683 18.8541 13.0453 18.8275 13.1176C18.8009 13.1899 18.7595 13.2559 18.7061 13.3114C18.6527 13.3669 18.5883 13.4108 18.5171 13.4402C18.4459 13.4696 18.3693 13.4839 18.2923 13.4822Z" fill="#1C2359"/>
<path d="M22.7518 23.426H6.30919C5.57256 23.4333 4.84177 23.2946 4.15908 23.0178C3.47639 22.741 2.85538 22.3316 2.33189 21.8133C1.80839 21.295 1.39281 20.678 1.10922 19.9981C0.825632 19.3182 0.679651 18.5889 0.679688 17.8522V6.42594C0.679685 4.93187 1.27245 3.49883 2.32787 2.44132C3.38329 1.38381 4.81513 0.788232 6.30919 0.785279H22.7518C24.2362 0.802882 25.6538 1.40492 26.6972 2.46085C27.7407 3.51678 28.3257 4.94146 28.3256 6.42594V17.7742C28.336 18.5127 28.1995 19.2458 27.924 19.9311C27.6485 20.6164 27.2396 21.2401 26.721 21.766C26.2024 22.2918 25.5844 22.7094 24.903 22.9944C24.2217 23.2793 23.4904 23.426 22.7518 23.426ZM14.5249 5.36693C13.2021 5.36693 11.909 5.75921 10.809 6.49415C9.70912 7.2291 8.85178 8.27371 8.34554 9.49588C7.8393 10.718 7.70685 12.0629 7.96493 13.3603C8.22301 14.6578 8.86005 15.8496 9.79546 16.785C10.7309 17.7204 11.9226 18.3574 13.2201 18.6155C14.5175 18.8736 15.8624 18.7411 17.0846 18.2349C18.3068 17.7286 19.3513 16.8713 20.0863 15.7714C20.8212 14.6715 21.2135 13.3783 21.2135 12.0555C21.2164 11.1752 21.0456 10.3031 20.7108 9.48902C20.376 8.67496 19.8838 7.93498 19.2624 7.31153C18.641 6.68807 17.9027 6.19342 17.0898 5.85589C16.2768 5.51837 15.4052 5.34462 14.5249 5.34463V5.36693Z" fill="#1C2359"/>
</svg>
