<svg width="45" height="44" viewBox="0 0 45 44" fill="none" xmlns="http://www.w3.org/2000/svg">
<path d="M32.3592 14.2802L29.3807 14.7694L28.9063 17.9251L22.6834 13.5575L24.2046 20.4765L20.2942 19.2442L22.4047 26.5947L17.684 23.4547L15.9601 25.4733L11.1209 23.2505L11.4615 28.6626L9.73653 29.8462C7.70236 28.8407 6.05187 27.1989 5.03567 25.1701C4.01947 23.1412 3.69309 20.8362 4.10609 18.605C5.03614 13.6556 10.0516 11.2408 14.9241 11.1825C16.7356 6.68411 20.8033 2.86665 25.7422 3.75995C27.9718 4.17977 30.0035 5.31556 31.5289 6.99493C33.0544 8.6743 33.9902 10.8055 34.1944 13.0651L32.3592 14.2802Z" fill="#1C2359"/>
<path d="M12.5724 29.1311L12.3248 24.9017L16.3069 26.7301L17.9247 24.8135L24.2729 29.0219L21.8625 20.8066L25.6147 22.0008L24.2796 15.9513L29.6797 19.7397L30.2963 15.6798L32.7628 15.278L34.2684 14.245C34.249 14.7769 34.1911 15.3068 34.095 15.8303L31.1921 34.7889L12.5025 30.6749C11.9794 30.576 11.4642 30.4394 10.9609 30.2661L12.5724 29.1311Z" fill="#1C2359"/>
</svg>
