<svg width="754" height="674" viewBox="0 0 754 674" fill="none" xmlns="http://www.w3.org/2000/svg">
<path opacity="0.2" fill-rule="evenodd" clip-rule="evenodd" d="M720.739 337C720.739 523.12 569.859 674 383.742 674C197.622 674 46.7422 523.12 46.7422 337C46.7422 150.88 197.622 0 383.742 0C569.859 0 720.739 150.88 720.739 337Z" fill="url(#paint0_linear_710_5741)"/>
<path fill-rule="evenodd" clip-rule="evenodd" d="M233.761 358.616H222.573V375.853C222.573 383.563 220.457 389.308 216.222 393.392C211.991 397.473 206.397 399.438 199.594 399.438C192.789 399.438 187.195 397.473 182.963 393.392C178.728 389.308 176.612 383.563 176.612 375.853V358.616H103.436C97.2391 358.616 92.2479 356.802 88.6191 353.022C84.9902 349.243 83.1758 344.556 83.1758 338.962C83.1758 333.368 85.1409 327.623 88.9204 322.029L178.876 193.519C181.296 190.041 184.319 187.473 187.948 185.809C191.577 184.145 195.356 183.238 199.437 183.238C205.637 183.238 211.08 185.354 215.767 189.438C220.454 193.519 222.72 199.264 222.72 206.521V322.635H233.908C248.424 322.786 255.832 328.681 255.832 340.475C255.835 352.57 248.427 358.616 233.761 358.616ZM176.763 256.415L130.652 322.786H176.763V256.415Z" fill="#B7BDDE"/>
<path fill-rule="evenodd" clip-rule="evenodd" d="M644.845 358.616H633.657V375.853C633.657 383.563 631.538 389.308 627.307 393.392C623.072 397.473 617.478 399.438 610.675 399.438C603.873 399.438 598.279 397.473 594.044 393.392C589.813 389.308 587.694 383.563 587.694 375.853V358.616H514.369C508.17 358.616 503.182 356.802 499.553 353.022C495.924 349.243 494.109 344.556 494.109 338.962C494.109 333.368 496.074 327.623 499.854 322.029L589.813 193.519C592.23 190.041 595.253 187.473 598.882 185.809C602.51 184.145 606.29 183.238 610.374 183.238C616.571 183.238 622.014 185.354 626.701 189.438C631.387 193.519 633.657 199.264 633.657 206.521V322.635H644.845C659.508 322.786 666.916 328.681 666.916 340.475C666.916 352.57 659.508 358.616 644.845 358.616ZM587.847 256.415L541.733 322.786H587.847V256.415Z" fill="#B7BDDE"/>
<path fill-rule="evenodd" clip-rule="evenodd" d="M466.891 284.689C466.891 336.294 425.058 378.123 373.457 378.123C321.856 378.123 280.023 336.294 280.023 284.689C280.023 233.088 321.856 191.256 373.457 191.256C425.058 191.256 466.891 233.088 466.891 284.689Z" fill="#B7BDDE"/>
<path d="M322.515 335.487C317.979 330.951 317.979 323.542 322.515 319.006L407.787 233.738C412.32 229.202 419.728 229.202 424.264 233.738C428.801 238.274 428.801 245.679 424.264 250.215L339.146 335.638C336.877 337.907 333.854 338.965 330.831 338.965C327.808 338.965 324.936 337.753 322.515 335.487Z" fill="#1C2359"/>
<path d="M114.475 418.335C117.652 392.331 133.828 379.633 134.585 379.027L139.422 385.377C139.271 385.528 125.06 396.867 122.339 419.396C119.466 443.888 130.504 472.008 155.297 503.001L149.1 508.143C122.941 475.336 111.301 445.096 114.475 418.335Z" fill="#BEC9DB"/>
<path d="M140.028 387.044L145.167 383.871C147.738 382.207 148.341 378.732 146.526 376.312L145.924 375.555C144.109 373.289 140.631 372.984 138.515 374.949L133.979 379.033C131.559 380.848 131.559 384.627 133.979 386.592C135.643 388.105 138.214 388.256 140.028 387.044Z" fill="#1C2359"/>
<path d="M204.879 511.169C238.141 489.55 257.494 466.267 262.482 441.926C267.018 419.55 257.19 404.583 257.039 404.432L263.691 399.896C264.146 400.649 275.635 417.886 270.343 443.436C264.903 470.047 244.338 494.993 209.264 517.972L204.879 511.169Z" fill="#BEC9DB"/>
<path d="M256.141 405.788L252.211 401.101C250.246 398.684 250.848 395.206 253.419 393.392L254.327 392.786C256.747 391.122 260.222 392.029 261.584 394.6L264.607 399.893C266.12 402.614 264.909 406.093 262.036 407.301C259.921 408.208 257.503 407.603 256.141 405.788Z" fill="#1C2359"/>
<path fill-rule="evenodd" clip-rule="evenodd" d="M433.469 416.907C448.907 421.81 457.448 438.3 452.545 453.739C447.642 469.177 431.149 477.718 415.71 472.815C400.272 467.912 391.73 451.422 396.634 435.984C401.537 420.545 418.03 412.004 433.469 416.907Z" fill="#F96363"/>
<path d="M290.758 496.654L234.517 576.332C226.503 587.67 211.837 592.056 198.834 586.914C186.438 582.076 178.879 569.831 179.937 556.678L180.844 543.977C186.588 543.826 192.333 542.313 197.324 539.29C198.232 538.684 199.139 538.232 200.046 537.626C207.454 532.337 212.292 524.473 213.651 515.555C214.106 512.529 211.99 509.656 208.964 509.054C205.941 508.598 203.069 510.714 202.463 513.74C201.556 519.786 198.232 524.928 193.394 528.557C188.554 532.032 182.508 533.545 176.458 532.487C164.062 530.522 155.746 518.879 157.711 506.483C158.167 503.46 156.048 500.587 153.025 499.982C150.002 499.526 147.129 501.645 146.524 504.668C143.802 521.45 153.932 537.174 169.505 542.313L168.447 555.921C167.085 574.062 177.519 590.693 194.452 597.499C206.698 602.337 220.002 600.974 230.737 594.627C235.726 591.751 240.111 587.67 243.589 582.833L299.83 503.155C324.472 468.383 364.537 448.879 407.173 451.3C410.35 451.45 412.918 449.03 413.072 446.007C413.373 442.984 411.103 440.262 407.93 440.112C361.514 437.541 317.67 458.708 290.758 496.654Z" fill="#1C2359"/>
<path fill-rule="evenodd" clip-rule="evenodd" d="M444.211 444.908C444.233 455.763 435.449 464.581 424.594 464.6C413.739 464.619 404.921 455.835 404.902 444.98C404.884 434.125 413.667 425.31 424.522 425.292C435.377 425.27 444.192 434.053 444.211 444.908Z" fill="#FFF2F2"/>
<path d="M753.397 446.76C753.397 446.76 712.726 488.79 681.733 504.213C650.74 519.632 629.724 520.238 629.724 520.238L529.484 490.605C529.484 490.454 600.997 476.394 657.693 425.442L753.397 446.76Z" fill="#B7BDDE"/>
<path d="M753.245 446.61C753.245 446.61 710.458 485.617 677.802 498.77C645.145 512.073 623.221 511.166 623.221 511.166L518.449 475.185C518.449 475.336 593.437 466.113 653.156 419.246L753.245 446.61Z" fill="#DEDFE3"/>
<path d="M479.747 124.128L525.56 142.269C535.841 146.35 540.829 157.993 536.748 168.274C532.664 178.555 521.024 183.543 510.743 179.462L464.934 161.318C454.65 157.086 449.662 145.443 453.746 135.316C457.827 125.035 469.466 120.044 479.747 124.128Z" fill="#1C2359"/>
<path d="M525.402 142.119L495.313 130.174C505.594 134.255 510.585 145.898 506.501 156.179C502.42 166.46 490.777 171.448 480.496 167.367L510.585 179.311C520.865 183.392 532.505 178.404 536.59 168.123C540.67 157.84 535.682 146.2 525.402 142.119Z" fill="#F96363"/>
<path d="M47.9481 385.381L83.0249 439.204C90.8853 451.299 87.561 467.479 75.4658 475.339C63.3707 483.199 47.1947 479.875 39.3311 467.78L4.2543 413.805C-3.60613 401.861 -0.281779 385.685 11.8134 377.821C23.9116 369.961 40.0877 373.285 47.9481 385.381Z" fill="#1C2359"/>
<path d="M83.0192 439.054L60.0375 403.829C67.898 415.924 64.5736 432.1 52.4785 439.961C40.3833 447.824 24.2073 444.497 16.3438 432.402L39.3254 467.629C47.1859 479.725 63.365 483.052 75.4602 475.188C87.5553 467.328 90.8797 451.149 83.0192 439.054Z" fill="#F96363"/>
<path opacity="0.2" d="M273.376 77.7128L268.69 73.1767L287.738 53.8239L290.309 56.3948C291.518 57.4527 293.332 57.4527 294.39 56.3948C295.448 55.1831 295.448 53.3687 294.39 52.3108L277.759 35.9841C276.55 34.9262 274.736 34.9262 273.678 35.9841C272.62 37.1927 272.62 39.0071 273.678 40.065L276.249 42.636L257.197 61.9888L252.51 57.4527L251.754 56.6962C250.545 55.6383 248.731 55.6383 247.673 56.6962C246.615 57.9048 246.615 59.7192 247.673 60.7771L248.43 61.5336L192.035 118.986C190.525 120.499 190.22 122.766 191.128 124.58L195.664 133.348L159.228 170.54C158.471 171.297 158.471 172.355 159.228 173.111C159.984 173.868 161.193 173.868 161.799 173.111L198.235 136.07L207.156 140.304C209.121 141.211 211.388 140.756 212.75 139.397L269.142 81.7937L269.898 82.5502C271.107 83.6081 272.921 83.6081 273.979 82.5502C275.341 81.3416 275.341 79.5272 274.133 78.4662L273.376 77.7128Z" fill="url(#paint1_linear_710_5741)"/>
<path d="M438.618 57.9046C436.653 54.8816 435.896 51.1021 436.351 47.4732L436.803 43.9951H437.258C438.467 44.1457 439.676 43.3923 439.826 42.03L441.189 33.1116C441.339 31.8999 440.583 30.6913 439.224 30.5407L399.915 24.796C398.703 24.6422 397.495 25.3988 397.344 26.7612L395.982 35.6795C395.831 36.8912 396.588 38.0997 397.947 38.2504H398.402L397.947 41.7286C397.344 45.3575 395.53 48.6818 392.808 50.9514L387.365 55.6382C385.701 56.9974 384.643 58.9625 384.342 61.2321L376.478 114.45C375.876 118.079 378.446 121.557 382.226 122.16L428.488 128.965C432.116 129.568 435.595 126.997 436.2 123.218L444.061 69.9997C444.212 68.0346 443.76 65.7682 442.548 63.9538L438.618 57.9046Z" fill="url(#paint2_linear_710_5741)"/>
<path opacity="0.2" d="M352.899 584.798C352.142 584.948 351.386 584.346 351.235 583.439L349.116 562.271C348.966 561.515 348.363 560.912 347.456 560.912L328.253 562.877C327.497 563.028 326.894 563.634 326.894 564.541L329.01 585.705C329.161 586.462 328.555 587.218 327.648 587.369L306.483 589.485C305.727 589.635 305.121 590.241 305.121 591.148L307.086 610.351C307.237 611.107 307.843 611.71 308.75 611.71L329.917 609.594C330.674 609.443 331.427 610.046 331.581 610.953L333.697 632.12C333.847 632.877 334.453 633.483 335.36 633.483L354.559 631.515C355.316 631.364 355.922 630.761 355.922 629.854L353.803 608.687C353.652 607.93 354.258 607.174 355.165 607.023L376.333 604.907C377.086 604.757 377.692 604.151 377.692 603.243L375.727 584.041C375.576 583.134 374.82 582.531 374.063 582.682L352.899 584.798Z" fill="url(#paint3_linear_710_5741)"/>
<path opacity="0.2" fill-rule="evenodd" clip-rule="evenodd" d="M483.008 531.206C489.063 534.907 490.972 542.818 487.274 548.874C483.573 554.929 475.662 556.841 469.607 553.14C463.548 549.439 461.64 541.528 465.341 535.473C469.042 529.417 476.949 527.505 483.008 531.206Z" fill="url(#paint4_linear_710_5741)"/>
<path opacity="0.2" d="M541.126 573.908L560.78 554.559C564.56 550.779 570.759 550.93 574.388 554.709C578.168 558.489 578.017 564.689 574.238 568.314L554.583 587.667C550.955 591.296 544.755 591.296 540.975 587.517C537.196 583.737 537.346 577.537 541.126 573.908Z" fill="url(#paint5_linear_710_5741)"/>
<defs>
<linearGradient id="paint0_linear_710_5741" x1="383.74" y1="0" x2="383.74" y2="690.5" gradientUnits="userSpaceOnUse">
<stop stop-color="#B7BDDE"/>
<stop offset="1" stop-color="#DEDFE3"/>
</linearGradient>
<linearGradient id="paint1_linear_710_5741" x1="255.071" y1="36.8006" x2="174.857" y2="254.488" gradientUnits="userSpaceOnUse">
<stop stop-color="#B7BDDE"/>
<stop offset="1" stop-color="#DEDFE3"/>
</linearGradient>
<linearGradient id="paint2_linear_710_5741" x1="410.24" y1="24.7764" x2="410.24" y2="129.053" gradientUnits="userSpaceOnUse">
<stop stop-color="#B7BDDE"/>
<stop offset="1" stop-color="#DEDFE3"/>
</linearGradient>
<linearGradient id="paint3_linear_710_5741" x1="341.406" y1="560.912" x2="341.406" y2="761.243" gradientUnits="userSpaceOnUse">
<stop stop-color="#DEDFE3"/>
<stop offset="1" stop-color="#B7BDDE"/>
</linearGradient>
<linearGradient id="paint4_linear_710_5741" x1="465.341" y1="535.472" x2="494.73" y2="553.431" gradientUnits="userSpaceOnUse">
<stop stop-color="#DEDFE3"/>
<stop offset="1" stop-color="#B7BDDE"/>
</linearGradient>
<linearGradient id="paint5_linear_710_5741" x1="557.682" y1="551.798" x2="557.682" y2="603.49" gradientUnits="userSpaceOnUse">
<stop stop-color="#DEDFE3"/>
<stop offset="1" stop-color="#B7BDDE"/>
</linearGradient>
</defs>
</svg>
