<svg width="60" height="50" viewBox="0 0 60 50" fill="none" xmlns="http://www.w3.org/2000/svg">
<path d="M29.3815 30.347C36.0563 30.347 41.4672 24.9421 41.4672 18.2748C41.4672 11.6074 36.0563 6.20251 29.3815 6.20251C22.7068 6.20251 17.2959 11.6074 17.2959 18.2748C17.2959 24.9421 22.7068 30.347 29.3815 30.347Z" fill="#F96363"/>
<path d="M36.5662 15.6131H32.0698V11.1217H26.7169V15.6131H22.1967V20.9601H26.7169V25.4516H32.0698V20.9601H36.5662V15.6131Z" fill="#E4E4E6"/>
<path d="M53.9334 34.981H6.04282C2.71213 34.981 0 37.6901 0 41.0171V43.9638C0 47.2908 2.71213 50 6.04282 50H24.8374C28.1681 50 30.8803 47.2908 30.8803 43.9638V43.2984V40.3041V37.9277H53.9572C55.6701 37.9277 57.05 39.3298 57.05 41.0171C57.05 42.7281 55.6701 44.1064 53.9572 44.1064H42.7994V47.0532H53.9572C57.2879 47.0532 60 44.3441 60 41.0171C59.9762 37.6901 57.2641 34.981 53.9334 34.981ZM27.9064 43.9638C27.9064 45.6749 26.5028 47.0532 24.8136 47.0532H6.01903C4.30611 47.0532 2.92625 45.6749 2.92625 43.9638V41.0171C2.92625 39.3061 4.30611 37.9277 6.01903 37.9277H27.9064V40.3041V43.2984V43.9638Z" fill="#1C2359"/>
<path opacity="0.5" d="M48.4378 44.1064H42.7756V47.0532H48.4378V44.1064Z" fill="#E4E4E6"/>
<path opacity="0.5" d="M16.6772 34.981V37.904H26.1697H27.9064V40.2804V43.2984V43.5599H30.8565V43.2984V40.2804V37.904H33.2117H42.1094V34.981H16.6772Z" fill="#E4E4E6"/>
<path d="M43.632 0.974365H37.6843V2.66163H43.632C45.3449 2.66163 46.7247 4.06372 46.7247 5.75098V18.5837C46.7247 19.0827 46.701 19.5818 46.6534 20.0808C45.8921 28.9449 38.4218 35.9078 29.3576 35.9078C20.2933 35.9078 12.8469 28.9449 12.0618 20.0808C12.0142 19.5818 11.9904 19.0827 11.9904 18.5837V5.75098C11.9904 4.03995 13.3941 2.66163 15.0832 2.66163H21.0308V0.974365H15.0832C12.4424 0.974365 10.3013 3.11315 10.3013 5.75098V18.5837C10.3013 19.0827 10.3251 19.5818 10.3489 20.0808C11.1102 29.8717 19.3417 37.5951 29.31 37.5951C39.3021 37.5951 47.5098 29.8717 48.2711 20.0808C48.3187 19.5818 48.3187 19.0827 48.3187 18.5837V5.75098C48.4139 3.11315 46.2727 0.974365 43.632 0.974365Z" fill="#E4E4E6"/>
<path opacity="0.3" d="M48.414 11.0741V18.5836C48.414 19.0827 48.3902 19.5817 48.3664 20.0808H46.6772C46.7248 19.5817 46.7486 19.0827 46.7486 18.5836V11.0741H48.414Z" fill="#1C2359"/>
<path opacity="0.3" d="M12.1094 20.0808H10.4203C10.3727 19.5817 10.3727 19.0827 10.3727 18.5836V11.0741H12.0618V18.5836C12.038 19.0827 12.0618 19.5817 12.1094 20.0808Z" fill="#1C2359"/>
<path d="M29.3815 38.308C18.4854 38.308 9.61145 29.4439 9.61145 18.5599V15.019C9.61145 14.1397 10.3252 13.4506 11.1816 13.4506C12.0619 13.4506 12.7518 14.1635 12.7518 15.019V18.5599C12.7518 27.7091 20.1983 35.1473 29.3577 35.1473C38.5171 35.1473 45.9636 27.7091 45.9636 18.5599V15.019C45.9636 14.1397 46.6773 13.4506 47.5337 13.4506C48.414 13.4506 49.1039 14.1635 49.1039 15.019V18.5599C49.1515 29.4677 40.2776 38.308 29.3815 38.308Z" fill="#1C2359"/>
<path d="M33.7828 36.5257C33.7828 38.9497 31.8082 40.8983 29.4053 40.8983C28.9533 40.8983 28.5251 40.827 28.1206 40.7082C27.8589 40.6369 27.621 40.5419 27.4069 40.423C26.0032 39.7101 25.0278 38.2367 25.0278 36.5257C25.0278 34.8384 26.0032 33.3651 27.4069 32.6284C27.6448 32.5095 27.8827 32.4145 28.1206 32.3432C28.5251 32.2244 28.9533 32.1531 29.4053 32.1531C31.8082 32.1531 33.7828 34.1017 33.7828 36.5257Z" fill="#1C2359"/>
<path d="M29.3814 39.7339C31.1552 39.7339 32.5931 38.2975 32.5931 36.5257C32.5931 34.7539 31.1552 33.3175 29.3814 33.3175C27.6076 33.3175 26.1697 34.7539 26.1697 36.5257C26.1697 38.2975 27.6076 39.7339 29.3814 39.7339Z" fill="white"/>
<path d="M31.4274 36.5257C31.4274 37.6663 30.4996 38.5694 29.3814 38.5694C28.2395 38.5694 27.3354 37.6426 27.3354 36.5257C27.3354 35.385 28.2633 34.4819 29.3814 34.4819C30.5234 34.4819 31.4274 35.4087 31.4274 36.5257Z" fill="#1C2359"/>
<path d="M25.3132 0.926865V2.75671C25.3132 3.25576 24.9088 3.65975 24.4092 3.65975H22.0301C21.5305 3.65975 21.1261 3.25576 21.1261 2.75671V0.926865C21.1261 0.427815 21.5305 0.0238241 22.0301 0.0238241H24.4092C24.885 5.97928e-05 25.3132 0.404051 25.3132 0.926865Z" fill="#1C2359"/>
<path d="M25.3132 0.926805V2.75665C25.3132 3.2557 24.9088 3.65969 24.4092 3.65969H22.6011V0H24.4092C24.885 0 25.3132 0.403991 25.3132 0.926805Z" fill="#F96363"/>
<path d="M33.4734 0.926865V2.75671C33.4734 3.25576 33.8778 3.65975 34.3774 3.65975H36.7565C37.2561 3.65975 37.6605 3.25576 37.6605 2.75671V0.926865C37.6605 0.427815 37.2561 0.0238241 36.7565 0.0238241H34.3774C33.8778 5.97928e-05 33.4734 0.404051 33.4734 0.926865Z" fill="#1C2359"/>
<path d="M33.4734 0.926805V2.75665C33.4734 3.2557 33.8778 3.65969 34.3774 3.65969H36.1855V0H34.3774C33.8778 0 33.4734 0.403991 33.4734 0.926805Z" fill="#F96363"/>
<path d="M46.0587 45.6036C46.0587 48.0275 44.084 49.9762 41.6812 49.9762C41.2292 49.9762 40.8009 49.9049 40.3965 49.7861C40.1348 49.7148 39.8969 49.6197 39.6828 49.5009C38.2791 48.788 37.3037 47.3146 37.3037 45.6036C37.3037 43.9163 38.2791 42.4429 39.6828 41.7062C39.9207 41.5874 40.1586 41.4924 40.3965 41.4211C40.8009 41.3023 41.2292 41.231 41.6812 41.231C44.084 41.231 46.0587 43.1796 46.0587 45.6036Z" fill="#1C2359"/>
<path d="M41.6575 48.8117C43.4313 48.8117 44.8693 47.3754 44.8693 45.6036C44.8693 43.8317 43.4313 42.3954 41.6575 42.3954C39.8837 42.3954 38.4458 43.8317 38.4458 45.6036C38.4458 47.3754 39.8837 48.8117 41.6575 48.8117Z" fill="white"/>
<path d="M43.7036 45.6037C43.7036 46.7443 42.7757 47.6474 41.6576 47.6474C40.5156 47.6474 39.6116 46.7206 39.6116 45.6037C39.6116 44.463 40.5394 43.5599 41.6576 43.5599C42.7995 43.5599 43.7036 44.463 43.7036 45.6037Z" fill="#1C2359"/>
</svg>
