<svg width="348" height="102" viewBox="0 0 348 102" fill="none" xmlns="http://www.w3.org/2000/svg">
<path d="M1.00001 57.2888H65.2408C65.4499 57.2888 65.6347 57.4247 65.697 57.6241L71.0736 74.8752C71.22 75.3451 71.8967 75.3126 71.9974 74.8308L81.5093 29.3108C81.6141 28.8095 82.3285 28.8028 82.4427 29.3021L88.5906 56.1739C88.6852 56.5871 89.2321 56.6812 89.4596 56.3233L91.3957 53.2782C91.5973 52.9612 92.0698 52.9903 92.2307 53.3298L95.1285 59.4394C95.3244 59.8524 95.9335 59.7806 96.0277 59.3334L98.6735 46.7822C98.7817 46.2689 99.5194 46.2805 99.6114 46.797L105.454 79.6196C105.551 80.1667 106.348 80.1339 106.4 79.5807L111.866 21.4823C111.915 20.9587 112.652 20.8882 112.8 21.3928L123.194 56.8377C123.254 57.0413 123.441 57.1812 123.654 57.1807L193.828 57.0242C194.014 57.0238 194.183 56.9151 194.261 56.7457L195.656 53.7035C195.85 53.28 196.475 53.357 196.56 53.8151L198.646 65.0308C198.741 65.5439 199.474 65.5536 199.582 65.0432C200.996 58.4133 204.935 39.9599 205.112 39.431C205.285 38.9139 209.332 58.5745 210.93 66.3926C211.04 66.9299 211.822 66.8873 211.874 66.3412L212.808 56.4762C212.859 55.9406 213.62 55.8848 213.748 56.4074C214.658 60.1317 216.275 66.5167 217.169 68.6755C218.261 71.3105 223.658 18.0082 225.304 1.42971C225.361 0.855903 226.199 0.85717 226.255 1.43107L235.939 100.569C235.994 101.132 236.81 101.149 236.888 100.589L245.919 35.6883C245.99 35.1755 246.714 35.1274 246.852 35.6262L254.225 62.1355C254.364 62.6354 255.09 62.5858 255.159 62.0716L257.16 47.2521C257.227 46.7525 257.924 46.6852 258.086 47.1627L261.197 56.3275C261.263 56.5211 261.445 56.6514 261.649 56.6514H347" stroke="white" stroke-width="2" stroke-miterlimit="10" stroke-linecap="round" stroke-linejoin="round"/>
</svg>
