<svg width="40" height="40" viewBox="0 0 40 40" fill="none" xmlns="http://www.w3.org/2000/svg">
<path d="M23.8107 27.0386C23.66 27.0386 23.5067 26.988 23.3827 26.8826C22.616 26.24 21.76 25.7893 20.8413 25.5426C20.4853 25.4466 20.2747 25.0813 20.3693 24.7253C20.4667 24.3706 20.828 24.1706 21.1867 24.2533C22.2947 24.552 23.3227 25.092 24.2387 25.8613C24.5214 26.0973 24.5574 26.5173 24.3214 26.8C24.1907 26.9586 24.0014 27.0386 23.8107 27.0386Z" fill="#1C2359"/>
<path d="M20.642 39.524C19.6073 39.524 18.65 39.3587 17.9246 39.0173C17.1086 38.6333 16.5699 38.0373 16.3686 37.2947C16.1606 36.5227 16.2659 35.8067 16.6739 35.2213C17.4113 34.1653 19.0673 33.5587 21.8833 33.3093C22.2353 33.2827 22.574 33.548 22.606 33.9147C22.638 34.2813 22.3673 34.6053 22.0007 34.6373C19.1006 34.892 18.0966 35.5107 17.766 35.9853C17.6513 36.1493 17.5153 36.428 17.6539 36.9467C17.7513 37.304 18.0326 37.5947 18.4913 37.8093C19.866 38.4547 22.4593 38.2773 24.3914 37.3987C24.7274 37.2493 25.122 37.3933 25.274 37.7293C25.426 38.0653 25.278 38.46 24.9434 38.612C23.6247 39.2133 22.0607 39.524 20.642 39.524Z" fill="#1C2359"/>
<path d="M7.29076 39.888C6.43875 39.888 5.63207 39.8133 4.95073 39.664C1.29735 38.86 0 35.92 0 33.6493C0 30.6533 1.22001 27.8947 3.43471 25.8813C3.70671 25.6347 4.12805 25.6533 4.37605 25.9267C4.62406 26.1987 4.60406 26.6213 4.33072 26.868C2.3987 28.6267 1.33335 31.0333 1.33335 33.6493C1.33335 35.4267 2.35603 37.7267 5.2374 38.3613C7.41076 38.836 11.4308 38.3773 12.8468 37.1747C13.2748 36.8107 13.2615 36.5373 13.2562 36.4493C13.2295 35.9907 13.0655 35.6573 12.7388 35.4027C11.7388 34.6213 9.39878 34.5787 5.78007 35.28C5.42407 35.3467 5.0854 35.1253 5.00539 34.7773C4.92806 34.4507 4.30005 31.5547 5.78674 30.3133C6.06807 30.0773 6.48808 30.1147 6.72542 30.3973C6.96142 30.68 6.92275 31.1 6.64141 31.336C6.08674 31.8 6.09741 33.0173 6.19741 33.8453C9.93212 33.1893 12.2788 33.352 13.5588 34.3493C14.1948 34.8453 14.5388 35.528 14.5868 36.376C14.6135 36.8427 14.4815 37.5347 13.7108 38.1893C12.3908 39.3107 9.66545 39.888 7.29076 39.888Z" fill="#1C2359"/>
<path d="M13.6386 28.0015C9.16122 28.0015 5.92518 26.1789 3.75715 22.4309C1.84913 22.1962 0.67445 20.7535 0.665117 19.4495C0.65845 18.6429 1.08245 18.0242 1.79313 17.7255C0.397113 14.0042 0.750451 9.87087 2.76781 6.76554C4.95584 3.4002 8.65455 1.39087 12.6639 1.39087C14.9426 1.39087 17.1546 2.05487 19.06 3.3122C24.4214 6.84687 25.8308 14.8202 23.5081 19.2842C23.8961 20.6189 23.6294 22.2535 22.7681 23.7242C21.5014 25.8909 19.2213 27.3669 16.516 27.7722C15.512 27.9242 14.544 28.0015 13.6386 28.0015ZM12.6639 2.7242C9.10789 2.7242 5.82651 4.50687 3.88516 7.4922C2.0038 10.3882 1.78113 14.4842 3.31715 17.9309C3.40515 18.1309 3.39182 18.3629 3.27581 18.5509C3.16115 18.7389 2.96248 18.8562 2.74248 18.8669C1.99313 18.9042 1.99713 19.3069 1.99847 19.4389C2.0038 20.0975 2.78648 21.0789 4.18916 21.1282C4.42516 21.1375 4.63717 21.2682 4.7505 21.4749C5.97051 23.7042 8.21854 26.6695 13.6399 26.6695C14.4786 26.6695 15.38 26.5975 16.3186 26.4575C18.624 26.1109 20.556 24.8709 21.6187 23.0535C22.344 21.8135 22.5467 20.4695 22.1614 19.4589C22.0907 19.2722 22.108 19.0642 22.2067 18.8895C24.4347 15.0002 23.0827 7.56287 18.3267 4.42554C16.6386 3.3122 14.6813 2.7242 12.6639 2.7242Z" fill="#1C2359"/>
<path d="M10.5021 20.1439C10.174 20.1439 9.85404 20.0973 9.55004 20.0013C9.19804 19.8919 9.00337 19.5173 9.11404 19.1666C9.22337 18.8146 9.59804 18.6133 9.94871 18.7306C10.3314 18.8479 10.7554 18.8399 11.2074 18.6986C11.5607 18.5906 11.9327 18.7839 12.0434 19.1359C12.1527 19.4879 11.9581 19.8613 11.6061 19.9719C11.2367 20.0866 10.8634 20.1439 10.5021 20.1439Z" fill="#1C2359"/>
<path d="M18.009 19.912C17.8957 19.912 17.7757 19.9053 17.6463 19.8907C17.281 19.8507 17.0156 19.5213 17.057 19.1547C17.097 18.788 17.433 18.524 17.793 18.5653C18.157 18.608 18.3877 18.54 18.673 18.4587C18.673 18.4587 19.6423 18.1413 19.753 18.8627C19.8637 19.584 19.0437 19.7413 19.0437 19.7413C18.7703 19.8173 18.4477 19.912 18.009 19.912Z" fill="#1C2359"/>
<path d="M12.7092 9.76132C12.6252 9.76132 12.5399 9.75865 12.4546 9.75332C10.7199 9.63998 9.39853 8.13598 9.51053 6.39865C9.60787 4.93465 10.8772 3.81065 12.3372 3.91998C12.7052 3.94398 12.9826 4.26132 12.9599 4.62798C12.9346 4.99598 12.5839 5.28798 12.2519 5.25065C11.4999 5.19198 10.8892 5.75732 10.8412 6.48532C10.7759 7.48798 11.5386 8.35732 12.5412 8.42265C13.2039 8.46932 13.8226 8.25198 14.3133 7.82265C14.8039 7.39198 15.0973 6.79465 15.1399 6.14398C15.2573 4.37065 13.9093 2.83332 12.1346 2.71598C11.7679 2.69198 11.4892 2.37332 11.5146 2.00665C11.5386 1.64132 11.8199 1.34398 12.2239 1.38532C13.4372 1.46665 14.5479 2.01465 15.3519 2.92932C16.1546 3.84532 16.552 5.01598 16.472 6.23198C16.4053 7.23865 15.9519 8.15865 15.1933 8.82398C14.4986 9.43332 13.6252 9.76132 12.7092 9.76132Z" fill="#1C2359"/>
<path d="M14.9064 24.7147C14.2491 24.7147 13.6237 24.3867 13.2504 23.8374C13.045 23.532 13.1224 23.1174 13.4277 22.9107C13.7304 22.708 14.1464 22.7827 14.3544 23.088C14.4891 23.2854 14.7157 23.3934 14.9544 23.38C15.1957 23.3627 15.4011 23.2227 15.5051 23.0067C15.6664 22.676 16.0651 22.5374 16.3971 22.6987C16.7278 22.86 16.8664 23.2587 16.7051 23.5907C16.3944 24.2294 15.7611 24.6587 15.0531 24.712C15.0037 24.712 14.9557 24.7147 14.9064 24.7147Z" fill="#1C2359"/>
<path d="M38.0008 33.3333C37.6328 33.3333 37.3341 33.0346 37.3341 32.6666V12.9866C37.3341 12.672 37.1381 12.412 36.8434 12.3426C36.2207 12.1853 35.2287 12 34.0007 12C32.7727 12 31.7807 12.1853 31.1633 12.34C30.8633 12.4133 30.6673 12.672 30.6673 12.9866V15.3333C30.6673 15.7013 30.3687 16 30.0007 16C29.6327 16 29.334 15.7013 29.334 15.3333V12.9866C29.334 12.06 29.9553 11.2613 30.8433 11.0453C31.5287 10.8733 32.6367 10.6666 34.0007 10.6666C35.3647 10.6666 36.4727 10.8733 37.1634 11.048C38.0461 11.2613 38.6674 12.06 38.6674 12.9866V32.6666C38.6674 33.0346 38.3688 33.3333 38.0008 33.3333Z" fill="#1C2359"/>
<path d="M38.0007 40H34.0007C33.6327 40 33.334 39.7013 33.334 39.3333C33.334 38.9653 33.6327 38.6666 34.0007 38.6666H38.0007C38.3687 38.6666 38.6674 38.9653 38.6674 39.3333C38.6674 39.7013 38.3687 40 38.0007 40Z" fill="#1C2359"/>
<path d="M39.3341 33.3333H34.0007C33.6327 33.3333 33.334 33.0347 33.334 32.6667C33.334 32.2987 33.6327 32 34.0007 32H39.3341C39.7021 32 40.0007 32.2987 40.0007 32.6667C40.0007 33.0347 39.7021 33.3333 39.3341 33.3333Z" fill="#1C2359"/>
<path d="M35.3344 11.9998C34.9663 11.9998 34.6677 11.7012 34.6677 11.3332V8.6665C34.6677 8.29984 34.3677 7.99984 34.001 7.99984C33.6343 7.99984 33.3343 8.29984 33.3343 8.6665V11.3332C33.3343 11.7012 33.0357 11.9998 32.6677 11.9998C32.2996 11.9998 32.001 11.7012 32.001 11.3332V8.6665C32.001 7.56384 32.8983 6.6665 34.001 6.6665C35.1037 6.6665 36.001 7.56384 36.001 8.6665V11.3332C36.001 11.7012 35.7024 11.9998 35.3344 11.9998Z" fill="#1C2359"/>
<path d="M36.0007 40H34.0007C33.6327 40 33.334 39.7013 33.334 39.3333C33.334 38.9653 33.6327 38.6667 34.0007 38.6667H35.334V32.6667C35.334 32.2987 35.6327 32 36.0007 32C36.3687 32 36.6674 32.2987 36.6674 32.6667V39.3333C36.6674 39.7013 36.3687 40 36.0007 40Z" fill="#1C2359"/>
<path d="M38.0007 29.3333H36.0007C35.6327 29.3333 35.334 29.0347 35.334 28.6667C35.334 28.2987 35.6327 28 36.0007 28H38.0007C38.3687 28 38.6674 28.2987 38.6674 28.6667C38.6674 29.0347 38.3687 29.3333 38.0007 29.3333Z" fill="#1C2359"/>
<path d="M38.0007 26.6667H36.0007C35.6327 26.6667 35.334 26.368 35.334 26C35.334 25.632 35.6327 25.3334 36.0007 25.3334H38.0007C38.3687 25.3334 38.6674 25.632 38.6674 26C38.6674 26.368 38.3687 26.6667 38.0007 26.6667Z" fill="#1C2359"/>
<path d="M38.0007 24H36.0007C35.6327 24 35.334 23.7013 35.334 23.3333C35.334 22.9653 35.6327 22.6666 36.0007 22.6666H38.0007C38.3687 22.6666 38.6674 22.9653 38.6674 23.3333C38.6674 23.7013 38.3687 24 38.0007 24Z" fill="#1C2359"/>
<path d="M38.0007 21.3333H36.0007C35.6327 21.3333 35.334 21.0347 35.334 20.6667C35.334 20.2987 35.6327 20 36.0007 20H38.0007C38.3687 20 38.6674 20.2987 38.6674 20.6667C38.6674 21.0347 38.3687 21.3333 38.0007 21.3333Z" fill="#1C2359"/>
<path d="M38.0007 18.6667H36.0007C35.6327 18.6667 35.334 18.368 35.334 18C35.334 17.632 35.6327 17.3334 36.0007 17.3334H38.0007C38.3687 17.3334 38.6674 17.632 38.6674 18C38.6674 18.368 38.3687 18.6667 38.0007 18.6667Z" fill="#1C2359"/>
<path d="M38.0007 16H36.0007C35.6327 16 35.334 15.7013 35.334 15.3333C35.334 14.9653 35.6327 14.6666 36.0007 14.6666H38.0007C38.3687 14.6666 38.6674 14.9653 38.6674 15.3333C38.6674 15.7013 38.3687 16 38.0007 16Z" fill="#1C2359"/>
<path d="M34.0007 7.94533C33.6327 7.94533 33.334 7.64667 33.334 7.27867V0.666667C33.334 0.298667 33.6327 0 34.0007 0C34.3687 0 34.6673 0.298667 34.6673 0.666667V7.27867C34.6673 7.64667 34.3687 7.94533 34.0007 7.94533Z" fill="#1C2359"/>
<path d="M30.001 40H26.001C24.8983 40 24.001 39.1027 24.001 38V29.7333C24.001 28.8573 24.4183 28.0213 25.121 27.4947L25.225 27.4147C25.6023 27.136 25.8143 26.7093 25.8143 26.2387C25.8143 26.0147 25.7637 25.68 25.5223 25.3613C25.1597 24.8787 24.9597 24.2813 24.9597 23.6787C24.9597 23.332 25.0237 22.984 25.149 22.648C25.709 21.26 26.001 19.7547 26.001 18.28V18C26.001 16.8973 26.8983 16 28.001 16C29.1037 16 30.001 16.8973 30.001 18V18.28C30.001 19.7547 30.2931 21.26 30.8464 22.632C30.9784 22.9867 31.0411 23.3333 31.0411 23.68C31.0411 24.2827 30.8424 24.8787 30.4797 25.3613C30.2451 25.6747 30.1451 26.0627 30.2011 26.4493C30.2557 26.836 30.4584 27.1787 30.7731 27.4133L30.8837 27.4973C31.5837 28.0213 32.0011 28.8573 32.0011 29.7333V38C32.0011 39.1027 31.1037 40 30.001 40ZM28.001 17.3333C27.6344 17.3333 27.3344 17.6333 27.3344 18V18.28C27.3344 19.924 27.009 21.6013 26.393 23.1293C26.329 23.3013 26.2943 23.492 26.2943 23.68C26.2943 23.9947 26.3983 24.308 26.5877 24.5587C26.9543 25.0427 27.149 25.6253 27.149 26.24C27.149 27.1253 26.729 27.964 26.0237 28.484L25.9237 28.56C25.553 28.836 25.3343 29.2747 25.3343 29.7333V38C25.3343 38.3667 25.6343 38.6667 26.001 38.6667H30.001C30.3677 38.6667 30.6677 38.3667 30.6677 38V29.7333C30.6677 29.2747 30.4491 28.836 30.0824 28.56L29.973 28.4773C28.741 27.5587 28.489 25.7987 29.4144 24.56C29.605 24.3067 29.709 23.9933 29.709 23.6787C29.709 23.4907 29.6744 23.3 29.6037 23.1107C28.9944 21.6 28.669 19.9227 28.669 18.2787V18C28.6677 17.6333 28.3677 17.3333 28.001 17.3333Z" fill="#1C2359"/>
<path d="M31.3347 37.3333H27.3346C26.9666 37.3333 26.668 37.0346 26.668 36.6666C26.668 36.2986 26.9666 36 27.3346 36H30.668V32H27.3346C26.9666 32 26.668 31.7013 26.668 31.3333C26.668 30.9653 26.9666 30.6666 27.3346 30.6666H31.3347C31.7027 30.6666 32.0014 30.9653 32.0014 31.3333V36.6666C32.0014 37.0346 31.7027 37.3333 31.3347 37.3333Z" fill="#1C2359"/>
</svg>
