<svg width="50" height="50" viewBox="0 0 50 50" fill="none" xmlns="http://www.w3.org/2000/svg">
<g clip-path="url(#clip0_2650_4827)">
<path d="M49.6256 21.4807C49.201 21.1481 48.5872 21.2226 48.2546 21.6472L43.3786 27.8714C42.8576 27.1072 42.1071 26.5114 41.2272 26.1838L49.7922 15.2507C50.1248 14.826 50.0503 14.2123 49.6257 13.8797C49.2011 13.5471 48.5873 13.6216 48.2547 14.0462L38.9161 25.9667C38.0492 26.1128 37.2655 26.5071 36.6422 27.075H33.0318C32.7151 24.9076 31.683 22.8651 30.0507 21.1746C30.8935 20.0125 31.3521 18.6104 31.3521 17.1621C31.3521 15.745 30.9266 14.402 30.1472 13.2771C30.6071 13.2837 31.0697 13.3229 31.5244 13.3975C31.8072 13.4439 32.0961 13.3637 32.3148 13.1782C32.5332 12.9927 32.6591 12.7205 32.6591 12.4339V6.53153C32.6591 5.99227 32.2218 5.55497 31.6826 5.55497H23.7522C20.2009 5.55497 16.9526 6.89569 14.5001 9.10818C13.8073 6.9995 13.4676 4.83173 13.4676 2.52011V0.976561C13.4676 0.437304 13.0303 0 12.4911 0H7.18934C6.65008 0 6.21278 0.437304 6.21278 0.976561V2.52011C6.21278 5.90936 5.39384 9.28582 3.84628 12.3005C1.88701 13.8095 0.620995 16.1768 0.620995 18.8354C0.620995 20.2272 0.969041 21.584 1.63173 22.7933C0.569042 24.4722 0 26.4326 0 28.4993C0 31.8591 0.825584 35.2012 2.4538 38.4328C2.62548 38.7735 2.96953 38.9701 3.32665 38.9701C3.47441 38.9701 3.62441 38.9364 3.76532 38.8655C4.24696 38.6229 4.44071 38.0357 4.19804 37.5539C2.70839 34.5976 1.95312 31.551 1.95312 28.4993C1.95312 26.1071 2.88105 23.8917 4.5661 22.2612C6.14852 20.73 8.26942 19.8244 10.5729 19.6858C11.6056 20.6342 12.7661 21.4208 14.0307 22.0233C14.7683 22.3748 15.5542 22.5512 16.3437 22.5512C17.0077 22.5512 17.6742 22.4263 18.3164 22.1757C19.662 21.6506 20.7574 20.6031 21.3546 19.2825C23.7095 19.3351 26.1059 20.2757 27.9603 21.8821C29.6235 23.3228 30.6972 25.1375 31.0528 27.0751H28.7284C26.1014 27.0751 23.5296 27.9845 21.4868 29.636C21.2574 29.8214 21.1241 30.1006 21.1241 30.3954C21.1241 30.6905 21.2574 30.9696 21.4868 31.1549C23.5297 32.8063 26.1016 33.7158 28.7284 33.7158H30.3557C29.2772 37.1846 27.1631 40.6901 24.4327 43.4942C21.6981 46.3024 18.6846 48.0469 16.5683 48.0469C14.5445 48.0469 11.8092 46.6358 9.25086 44.2725C8.85447 43.9064 8.2368 43.9311 7.87088 44.3271C7.50487 44.7233 7.52928 45.3411 7.92547 45.707C10.8784 48.4352 14.0286 49.9999 16.5681 49.9999C19.2326 49.9999 22.6957 48.0772 25.8317 44.8567C28.9214 41.6838 31.2832 37.662 32.3924 33.7157H36.642C37.4405 34.4433 38.5016 34.8875 39.6646 34.8875C42.1415 34.8875 44.1567 32.8723 44.1567 30.3953C44.1567 30.2833 44.1512 30.1726 44.1431 30.0625L49.792 22.8517C50.1247 22.4272 50.0502 21.8133 49.6256 21.4807ZM8.1659 2.52011V1.95312H11.5143V2.52011C11.5143 5.4039 11.9991 8.08534 12.9926 10.7025C12.8073 10.9326 12.6293 11.1689 12.4588 11.4109C11.3444 10.8715 10.1186 10.5891 8.86736 10.5891C8.08319 10.5891 7.32518 10.7015 6.60604 10.9069C7.63055 8.23729 8.1659 5.3828 8.1659 2.52011ZM10.0384 17.7677C7.42967 18.0146 5.03036 19.0941 3.2079 20.8576C3.13271 20.9303 3.05917 21.0042 2.98652 21.0788C2.71523 20.3673 2.57412 19.6087 2.57412 18.8354C2.57412 15.3654 5.39725 12.5423 8.86727 12.5423C9.7618 12.5423 10.6387 12.7312 11.4444 13.0929C10.7164 14.5223 10.2297 16.0977 10.0384 17.7677ZM28.5785 19.872C26.7466 18.4916 24.5491 17.621 22.3293 17.3896C23.6073 15.46 25.5546 14.0929 27.7934 13.5436C28.8178 14.4691 29.3989 15.7646 29.3989 17.1622C29.3989 18.1327 29.1109 19.0741 28.5785 19.872ZM23.6812 13.288C21.8574 14.5438 20.4586 16.2899 19.6358 18.3377C19.2643 19.2622 18.5246 19.9979 17.6063 20.3563C16.7079 20.7069 15.7366 20.6725 14.8708 20.2602C13.8042 19.752 12.8224 19.0932 11.9467 18.2985C12.4851 12.2127 17.5872 7.50819 23.7521 7.50819H30.7059V11.3428C30.476 11.3286 30.246 11.3215 30.0167 11.3215C27.7404 11.3214 25.5495 12.0014 23.6812 13.288ZM35.386 31.7625H28.7283C26.9907 31.7625 25.2821 31.2833 23.8014 30.3953C25.2821 29.5073 26.9907 29.0282 28.7283 29.0282H35.386C35.2478 29.4595 35.1725 29.9188 35.1725 30.3953C35.1725 30.8719 35.2478 31.3312 35.386 31.7625ZM39.6647 32.9344C38.2646 32.9344 37.1256 31.7954 37.1256 30.3953C37.1256 28.9953 38.2646 27.8563 39.6647 27.8563C41.0648 27.8563 42.2037 28.9953 42.2037 30.3953C42.2037 31.7954 41.0648 32.9344 39.6647 32.9344Z" fill="#F96363"/>
<path d="M5.64746 42.7009C6.1868 42.7009 6.62402 42.2637 6.62402 41.7244C6.62402 41.185 6.1868 40.7478 5.64746 40.7478C5.10812 40.7478 4.6709 41.185 4.6709 41.7244C4.6709 42.2637 5.10812 42.7009 5.64746 42.7009Z" fill="#F96363"/>
<path d="M8.19237 30.6648L9.22782 30.4471C9.39042 31.2206 9.58475 31.9864 9.80975 32.7429L8.67929 32.9805C8.15145 33.0914 7.81356 33.6092 7.9245 34.137C8.02118 34.5972 8.42704 34.9129 8.87919 34.9129C8.94569 34.9129 9.01327 34.9061 9.08095 34.8918L10.4339 34.6074C10.7146 35.3599 11.0268 36.1007 11.3697 36.8279L10.6411 36.9816C10.1135 37.0929 9.77587 37.6109 9.887 38.1387C9.98397 38.5985 10.3896 38.9139 10.8416 38.9139C10.9083 38.9139 10.9762 38.907 11.044 38.8927L12.2967 38.6285C12.6903 39.3311 13.1141 40.0183 13.5673 40.6881C13.756 40.9671 14.0637 41.1175 14.3769 41.1175C14.5653 41.1175 14.7557 41.0631 14.9233 40.9496C15.37 40.6474 15.4871 40.0402 15.1849 39.5936C14.8774 39.1391 14.5852 38.6755 14.307 38.2045L14.7435 38.1125C15.2712 38.0012 15.6088 37.4832 15.4976 36.9554C15.3863 36.4278 14.8689 36.0904 14.3405 36.2013L13.3377 36.4127C12.9814 35.6897 12.6585 34.9513 12.3688 34.2004L13.4875 33.9653C14.0153 33.8543 14.3532 33.3365 14.2423 32.8087C14.1313 32.2809 13.614 31.9434 13.0857 32.0539L11.7275 32.3395C11.498 31.5843 11.3016 30.8188 11.139 30.045L12.107 29.8416C12.6349 29.7307 12.9727 29.2129 12.8618 28.6851C12.7509 28.1572 12.2329 27.8197 11.7053 27.9303L10.8071 28.1191C10.7151 27.44 10.648 26.7563 10.6081 26.0692C10.5767 25.5307 10.1139 25.1203 9.57655 25.1509C9.03807 25.1822 8.62694 25.6442 8.65829 26.1824C8.7039 26.9669 8.78202 27.7472 8.89071 28.5219L7.79052 28.7531C7.26268 28.8641 6.92479 29.3819 7.03573 29.9097C7.13241 30.3698 7.53827 30.6856 7.99042 30.6856C8.05702 30.6859 8.1246 30.679 8.19237 30.6648Z" fill="#F96363"/>
</g>
<defs>
<clipPath id="clip0_2650_4827">
<rect width="50" height="50" fill="white"/>
</clipPath>
</defs>
</svg>
