<svg width="40" height="40" viewBox="0 0 40 40" fill="none" xmlns="http://www.w3.org/2000/svg">
<path d="M30.0007 40C30.3687 40 30.6674 39.7013 30.6674 39.3333V34.2731L35.1622 30.7503C35.7249 30.3022 36.4783 29.4235 36.773 28.7248L39.9464 21.3472C39.9824 21.2645 40.0011 21.1738 40.0011 21.0832V14.6576C40.0011 13.8282 39.0611 13.2162 38.153 13.1055C37.0277 12.9602 35.6129 13.5722 35.0796 15.7016C34.8049 16.807 34.7436 17.7417 34.6889 18.5657C34.6636 18.9324 34.9409 19.2778 35.3089 19.3018C35.6769 19.3271 35.9929 19.0751 36.0156 18.7084C36.0703 17.8844 36.1276 17.0137 36.3743 16.023C36.5423 15.3536 36.9023 14.5309 37.6717 14.4282C38.1864 14.3549 38.6171 14.6309 38.6877 14.7562L38.6677 20.9458L35.5463 28.2035C35.3516 28.6688 34.7462 29.3769 34.3355 29.7049L29.5887 33.425C29.4273 33.5504 29.334 33.7437 29.334 33.9491V39.3333C29.334 39.7013 29.6327 40 30.0007 40Z" fill="#1C2359"/>
<path d="M10.0004 40C9.63242 40 9.33374 39.7013 9.33374 39.3333V34.2731L4.83888 30.7503C4.27619 30.3022 3.52282 29.4235 3.22814 28.7248L0.0546691 21.3472C0.0186675 21.2645 0 21.1738 0 21.0832V14.6576C0 13.8282 0.940041 13.2162 1.84808 13.1055C2.97346 12.9602 4.38819 13.5722 4.92155 15.7016C5.19623 16.807 5.25756 17.7417 5.31223 18.5657C5.33757 18.9324 5.06022 19.2778 4.6922 19.3018C4.32419 19.3271 4.00817 19.0751 3.98551 18.7084C3.93084 17.8844 3.8735 17.0137 3.62682 16.023C3.45882 15.3536 3.0988 14.5309 2.32943 14.4282C1.81475 14.3549 1.38406 14.6309 1.31339 14.7562L1.33339 20.9458L4.45486 28.2035C4.64954 28.6688 5.2549 29.3769 5.66558 29.7049L10.4125 33.425C10.5738 33.5504 10.6671 33.7437 10.6671 33.9491V39.3333C10.6671 39.7013 10.3685 40 10.0004 40Z" fill="#1C2359"/>
<path d="M18.0001 40C17.6321 40 17.3334 39.7013 17.3334 39.3333V32.049C17.3334 29.2395 15.3933 26.7901 12.6145 26.0914C12.2572 26.0021 12.0412 25.6394 12.1305 25.282C12.2198 24.926 12.5759 24.7047 12.9399 24.798C16.3107 25.646 18.6668 28.6275 18.6668 32.049V39.3333C18.6668 39.7013 18.3681 40 18.0001 40Z" fill="#1C2359"/>
<path d="M10.3493 28.5554C10.1786 28.5554 10.0079 28.4901 9.87727 28.3607L4.02768 22.5205C3.90234 22.3952 3.83301 22.2258 3.83301 22.0485C3.83301 21.8725 3.90368 21.7018 4.02768 21.5765C5.8611 19.743 8.12119 19.8977 10.2266 22.0031L13.2334 25.0033C13.4934 25.2633 13.4934 25.686 13.2334 25.946C12.9734 26.2073 12.5507 26.206 12.2907 25.9473L9.28391 22.9472C7.91719 21.5805 6.63846 21.2911 5.48241 22.0885L10.8186 27.4167C11.0787 27.6767 11.0787 28.0994 10.8186 28.3607C10.6906 28.4901 10.52 28.5554 10.3493 28.5554Z" fill="#1C2359"/>
<path d="M22.0017 40C21.6336 40 21.335 39.7013 21.335 39.3333V32.049C21.335 28.6275 23.6911 25.646 27.0619 24.798C27.4232 24.7047 27.7806 24.926 27.8712 25.282C27.9592 25.6394 27.7432 26.0021 27.3872 26.0914C24.6084 26.7901 22.6684 29.2395 22.6684 32.049V39.3333C22.6684 39.7013 22.3697 40 22.0017 40Z" fill="#1C2359"/>
<path d="M29.6521 28.5554C29.4814 28.5554 29.3108 28.4901 29.1801 28.3607C28.9201 28.0994 28.9201 27.678 29.1801 27.4167L34.5163 22.0885C33.3616 21.2924 32.0816 21.5818 30.7148 22.9472L27.708 25.9473C27.448 26.206 27.0253 26.2073 26.7653 25.946C26.5053 25.686 26.5053 25.2633 26.7653 25.0033L29.7721 22.0031C31.8775 19.8977 34.1376 19.743 35.9711 21.5765C36.0964 21.7018 36.1657 21.8711 36.1657 22.0485C36.1657 22.2258 36.0951 22.3952 35.9711 22.5205L30.1215 28.3607C29.9935 28.4901 29.8228 28.5554 29.6521 28.5554Z" fill="#1C2359"/>
<path d="M29.6521 28.5554C29.4814 28.5554 29.3108 28.4901 29.1801 28.3607C28.9201 28.0994 28.9201 27.678 29.1801 27.4167L34.5163 22.0885C33.3616 21.2924 32.0816 21.5818 30.7148 22.9472L27.708 25.9473C27.448 26.206 27.0253 26.2073 26.7653 25.946C26.5053 25.686 26.5053 25.2633 26.7653 25.0033L29.7721 22.0031C31.8775 19.8977 34.1376 19.743 35.9711 21.5765C36.0964 21.7018 36.1657 21.8711 36.1657 22.0485C36.1657 22.2258 36.0951 22.3952 35.9711 22.5205L30.1215 28.3607C29.9935 28.4901 29.8228 28.5554 29.6521 28.5554Z" fill="#1C2359"/>
<path d="M22.9336 15.2643C22.5722 15.2643 22.2109 15.235 21.8495 15.1749C20.1241 14.8883 18.6121 13.9456 17.592 12.5188C16.572 11.0921 16.1693 9.35603 16.4546 7.63062C16.656 6.42523 17.7974 5.6052 19.0054 5.80787C20.2108 6.00788 21.0295 7.15327 20.8282 8.35865C20.7482 8.83867 20.8388 9.33603 21.0788 9.75605C21.2628 10.0761 21.1522 10.4827 20.8322 10.6668C20.5161 10.8468 20.1068 10.7401 19.9214 10.4201C19.5281 9.73471 19.3828 8.92534 19.5108 8.14131C19.5908 7.65995 19.2641 7.2026 18.7841 7.1226C18.3014 7.04659 17.8467 7.36794 17.7667 7.8493C17.5387 9.22269 17.86 10.6054 18.6734 11.7428C19.4868 12.8802 20.6921 13.6322 22.0655 13.8602C22.4429 13.9216 22.8256 13.9456 23.1989 13.9242C23.5736 13.9162 23.8816 14.1882 23.899 14.5549C23.919 14.9229 23.6363 15.2363 23.2683 15.2563C23.1603 15.2616 23.0469 15.2643 22.9336 15.2643Z" fill="#1C2359"/>
<path d="M19.049 24.266C18.4383 24.266 17.7889 24.2073 17.0955 24.0793C15.2928 23.746 13.8221 22.7086 12.9527 21.1552C12.354 20.0871 11.8526 18.4164 12.19 15.9683C11.9433 16.0843 11.702 16.1563 11.4686 16.2123C10.5446 16.435 9.2192 16.0456 8.4485 15.3283C7.86447 14.7829 7.6098 14.0749 7.7338 13.3348C7.84181 12.6961 8.15649 12.1881 8.64451 11.8641C9.20053 11.4961 9.86856 11.4361 10.3339 11.4641C11.2646 9.00532 13.2287 7.80127 15.4635 8.37196C16.4488 8.62397 17.2502 9.23333 17.7796 10.1334C18.7436 11.7694 18.6583 13.9935 18.2569 15.5283C18.1649 15.8843 17.8049 16.0963 17.4449 16.0056C17.0875 15.9123 16.8742 15.5483 16.9689 15.1923C17.2849 13.9735 17.3876 12.0961 16.6315 10.8107C16.2795 10.2147 15.7755 9.82802 15.1328 9.66401C13.438 9.22799 12.0633 10.2494 11.4326 12.3828C11.3313 12.7215 10.9886 12.9215 10.6393 12.8428C10.4219 12.7935 9.76589 12.7215 9.37921 12.9802C9.2672 13.0562 9.11119 13.1975 9.04986 13.5588C9.03119 13.6669 8.97519 13.9975 9.35787 14.3549C9.87789 14.8389 10.7739 15.0096 11.1566 14.9176C11.6286 14.8042 12.2567 14.6522 12.9327 12.9708C13.0087 12.7521 13.0887 12.5295 13.1767 12.3028C13.306 11.9641 13.6794 11.7881 14.0247 11.9134C14.3661 12.0361 14.5474 12.4081 14.4328 12.7521C14.3514 12.9908 14.2714 13.2122 14.1887 13.4188C13.1794 16.3456 13.154 18.7857 14.1167 20.5058C14.7888 21.7059 15.9328 22.5099 17.3396 22.7699C23.2598 23.8606 25.4946 19.2418 26.8266 16.479C27.2786 15.5403 27.552 14.9749 27.9387 14.6989C28.0574 14.6149 28.292 14.4869 28.6107 14.3189C30.1974 13.4855 33.9149 11.5321 34.335 7.87193C34.6883 4.81714 32.4815 1.91834 29.4201 1.41032C27.9693 1.16764 26.4973 1.50766 25.2932 2.3677C24.0905 3.22773 23.2945 4.50512 23.0518 5.96385C23.0171 6.2492 22.7985 6.57588 22.5171 6.63188C21.6384 6.80656 20.9757 7.48525 20.8304 8.35862C20.6824 9.24799 21.1224 10.136 21.9264 10.5694C22.2504 10.7441 22.3718 11.1481 22.1971 11.4721C22.0211 11.7961 21.6197 11.9174 21.2931 11.7441C19.9877 11.0414 19.2716 9.59334 19.5143 8.13995C19.721 6.89456 20.6104 5.86251 21.7904 5.4505C22.1411 3.77042 23.1011 2.29436 24.5159 1.28365C26.0079 0.215602 27.8267 -0.20575 29.6374 0.0942633C33.3882 0.716957 36.0897 4.27445 35.659 8.02394C35.1563 12.3855 30.8508 14.6469 29.2294 15.4989C28.9867 15.6269 28.8054 15.7176 28.7134 15.7816C28.584 15.9016 28.2747 16.543 28.0253 17.0577C26.8573 19.4818 24.5479 24.266 19.049 24.266Z" fill="#1C2359"/>
</svg>
