<svg width="50" height="50" viewBox="0 0 50 50" fill="none" xmlns="http://www.w3.org/2000/svg">
<g clip-path="url(#clip0_2650_4838)">
<path d="M8.69606 17.1442C5.6354 18.1663 3.62475 21.3729 3.31655 25.7196C3.301 25.9366 3.37234 26.1508 3.51486 26.3152C3.65738 26.4795 3.85939 26.5805 4.07639 26.5958H4.1354C4.56631 26.5969 4.92448 26.2642 4.95508 25.8343C5.21409 22.1704 6.80835 19.5024 9.21737 18.6975C9.64743 18.554 9.87973 18.089 9.73622 17.6589C9.59272 17.2289 9.12776 16.9966 8.6977 17.1401L8.69606 17.1442Z" fill="#F96363"/>
<path d="M32.8587 16.3532H32.8636C33.0364 16.4059 33.2158 16.4335 33.3964 16.4352C34.5661 16.4352 35.7735 15.3696 36.394 13.6959C36.706 12.8926 36.8035 12.022 36.6767 11.1696C36.5863 10.4144 36.1281 9.75279 35.453 9.40241C34.548 8.92141 33.6022 8.52149 32.6267 8.20733C25.18 5.76471 19.8103 9.05733 16.8071 11.9106C17.107 9.84234 17.2427 7.75357 17.2128 5.66389V2.92618C17.2128 1.27372 14.739 0.40979 12.2948 0.40979C9.85051 0.40979 7.37674 1.27454 7.37674 2.927C7.37674 3.51471 7.38576 4.06307 7.39314 4.56635C7.40707 5.44422 7.41855 6.20569 7.3792 6.79749C7.33002 7.52864 7.06691 9.9852 5.71527 10.9073C3.03916 12.7147 1.55393 15.8314 1.83576 19.0483C0.781474 21.0418 0.171322 23.24 0.0472354 25.4918C-0.423102 34.4338 4.5564 42.7736 12.6513 46.6016C16.5858 48.5688 19.88 49.5458 22.6095 49.5458C24.0059 49.5712 25.3881 49.2621 26.6407 48.6442C31.0267 46.4106 32.3603 40.4172 33.3513 34.4639C33.5016 33.5612 33.6034 32.6512 33.6563 31.7377C33.6821 31.285 33.336 30.8971 32.8833 30.8713C32.4306 30.8455 32.0427 31.1915 32.0169 31.6442C31.9675 32.4992 31.8723 33.351 31.7317 34.1959C30.8104 39.7303 29.6005 45.2918 25.8948 47.1786C23.089 48.6081 18.9964 47.9368 13.3817 45.1295C5.88183 41.5972 1.25981 33.8833 1.68248 25.604C1.79133 23.6121 2.32395 21.6663 3.24478 19.8967C3.34002 19.8005 3.40938 19.6818 3.44642 19.5516C4.48677 17.6968 6.17039 16.2873 8.1792 15.5893C9.47095 15.1299 10.8455 14.95 12.212 15.0614C13.1048 15.1462 13.9755 15.389 14.7833 15.7786C19.0366 17.8418 20.6972 23.4721 20.7136 23.5295C20.8381 23.9647 21.2919 24.2167 21.7272 24.0922C22.1624 23.9677 22.4143 23.5139 22.2899 23.0786C22.221 22.8327 20.6341 17.4229 16.371 14.7852C18.4743 12.2065 23.8981 7.07126 32.1177 9.76799C32.3743 9.84995 32.63 9.95651 32.8866 10.0541C32.3443 10.5891 31.929 11.2389 31.671 11.9557C31.3891 12.6878 31.2821 13.4757 31.3587 14.2565C27.6325 13.4508 25.2677 14.1327 23.8915 14.9245C23.3767 15.2002 22.92 15.5725 22.5464 16.0213C22.3654 16.2696 22.3385 16.5982 22.4767 16.8727C22.6149 17.1471 22.8949 17.3212 23.2022 17.3237C23.4554 17.3239 23.6948 17.2083 23.8522 17.0098C24.0562 16.7934 24.2887 16.6056 24.5431 16.4516C25.9128 16.3803 27.3612 17.2155 28.6415 18.8434C28.8228 19.0734 29.113 19.1893 29.4028 19.1473C29.6927 19.1053 29.9381 18.9119 30.0467 18.6399C30.1553 18.3679 30.1105 18.0587 29.9292 17.8286C29.2393 16.9231 28.3827 16.1577 27.4054 15.5737C29.2565 15.4788 31.1084 15.7435 32.8587 16.3532ZM12.2948 2.04913C14.2735 2.04913 15.4095 2.66225 15.5653 2.927C15.4136 3.19668 14.2751 3.80569 12.2948 3.80569C10.2628 3.80569 9.11937 3.15897 9.01609 2.95651V2.95077C9.12101 2.69586 10.2644 2.04913 12.2948 2.04913ZM7.66035 14.0336C6.1583 14.5383 4.79905 15.3955 3.69642 16.5336C4.08674 14.7829 5.14181 13.2523 6.63904 12.2647C8.54887 10.9622 8.93412 8.08438 9.01609 6.90979C9.05543 6.32536 9.04969 5.63602 9.03822 4.85405C10.0749 5.26124 11.1811 5.46199 12.2948 5.44504C13.4164 5.46258 14.5305 5.25898 15.5735 4.84586V5.66553C15.6703 8.45833 15.3667 11.2506 14.6718 13.9573C13.9327 13.6837 13.1613 13.5071 12.3767 13.4319C10.7797 13.2963 9.17215 13.5014 7.66035 14.0336ZM34.8571 13.1319C34.4087 14.3467 33.5989 14.8959 33.3112 14.7852C33.0235 14.6745 32.7612 13.7377 33.2087 12.5237C33.3941 11.9838 33.714 11.5 34.1382 11.118C34.2868 10.978 34.4753 10.8878 34.6776 10.8598C34.7041 10.859 34.7305 10.8632 34.7554 10.8721C34.8882 10.9213 35.0087 11.1516 35.0636 11.4598C35.1377 12.0254 35.0667 12.6014 34.8571 13.1319Z" fill="#F96363"/>
<path d="M46.9517 11.8688C46.1632 10.7655 44.6304 10.5088 43.5254 11.295L26.5222 23.2991C25.7957 23.8219 25.4123 24.6993 25.5222 25.5876L23.3377 27.145C22.6185 26.7053 21.7061 26.7375 21.0197 27.2269L7.9902 36.536C7.33553 37.0057 7.18382 37.9163 7.65086 38.5728C8.63378 39.9185 10.2333 40.6722 11.8968 40.5737H21.3115C21.7642 40.5737 22.1312 40.2067 22.1312 39.754C22.1312 39.3013 21.7642 38.9343 21.3115 38.9343H17.7869C19.2764 38.2036 20.7021 37.3495 22.0492 36.381L25.6976 33.7753C26.3839 33.2852 26.7103 32.4319 26.5263 31.6089L28.7099 30.0515C28.917 30.1551 29.1378 30.2288 29.3656 30.2704C29.501 30.2932 29.6381 30.3047 29.7754 30.3048C30.2848 30.3049 30.7813 30.1453 31.1951 29.8483L48.1968 17.845C48.7278 17.4662 49.0866 16.892 49.1942 16.2487C49.3018 15.6053 49.1494 14.9456 48.7705 14.4147L46.9517 11.8688ZM25.7066 30.1778L24.4263 28.3851L26.2197 27.104L27.5 28.8974L25.7066 30.1778ZM24.7427 32.4417L21.0943 35.0466C18.922 36.6809 16.4718 37.9086 13.8623 38.6704C11.6254 39.222 10.0205 38.9163 9.09348 37.763L21.9722 28.5638C22.1793 28.4157 22.4673 28.4634 22.6156 28.6704L24.8492 31.7974C24.9971 32.0048 24.9491 32.2928 24.7418 32.4409L24.7427 32.4417ZM47.2468 16.5073L30.2459 28.5106C29.8776 28.773 29.3663 28.6876 29.1033 28.3196L27.2861 25.7786C27.0244 25.4118 27.1079 24.9025 27.473 24.6384L44.4746 12.631C44.6133 12.5317 44.7795 12.4782 44.95 12.4778C44.9956 12.478 45.0411 12.4818 45.0861 12.4892C45.3 12.5233 45.4915 12.6413 45.6181 12.8171L47.4353 15.3581C47.5637 15.5351 47.616 15.7562 47.5806 15.972C47.5452 16.1878 47.425 16.3805 47.2468 16.5073Z" fill="#F96363"/>
<path d="M27.0492 40.5737C27.5019 40.5737 27.8689 40.2067 27.8689 39.754C27.8689 39.3013 27.5019 38.9343 27.0492 38.9343H24.5902C24.1375 38.9343 23.7705 39.3013 23.7705 39.754C23.7705 40.2067 24.1375 40.5737 24.5902 40.5737H27.0492Z" fill="#F96363"/>
</g>
<defs>
<clipPath id="clip0_2650_4838">
<rect width="50" height="50" fill="white"/>
</clipPath>
</defs>
</svg>
