<svg width="16" height="16" viewBox="0 0 16 16" fill="none" xmlns="http://www.w3.org/2000/svg">
<g clip-path="url(#clip0_630_4434)">
<path d="M8.00034 1.91529C4.3674 1.91529 1.41211 4.87059 1.41211 8.50353C1.41211 10.2969 2.13399 11.9228 3.30011 13.112L2.08787 14.3242C1.81211 14.5995 1.81211 15.0471 2.08787 15.3224C2.22623 15.4602 2.40693 15.5294 2.58764 15.5294C2.76834 15.5294 2.94905 15.4607 3.08693 15.3228L4.39705 14.0127C5.43376 14.6932 6.67093 15.0922 8.00081 15.0922C9.33023 15.0922 10.5669 14.6932 11.6032 14.0136L12.9123 15.3228C13.0498 15.4602 13.2305 15.5294 13.4112 15.5294C13.5919 15.5294 13.7726 15.4607 13.91 15.3228C14.1858 15.0471 14.1858 14.6 13.91 14.3247L12.6992 13.1139C13.8662 11.9242 14.5886 10.2974 14.5886 8.50353C14.5886 4.87059 11.6333 1.91529 8.00034 1.91529ZM10.6074 10.6212C10.4709 10.7624 10.2874 10.8282 10.1086 10.8282C9.92505 10.8282 9.74623 10.7624 9.60976 10.6212L7.50152 8.51294C7.36976 8.38118 7.29446 8.20235 7.29446 8.01412V5.88706C7.29446 5.49647 7.60976 5.18118 8.00034 5.18118C8.39093 5.18118 8.70623 5.49647 8.70623 5.88706V7.72235L10.6074 9.62353C10.8803 9.90118 10.8803 10.3482 10.6074 10.6212Z" fill="white"/>
<path d="M12.4321 0.475296C11.5145 0.475296 10.6768 0.87059 10.1074 1.52471C12.1874 2.15059 13.8768 3.68 14.7145 5.65647C15.2274 5.09647 15.5286 4.35765 15.5286 3.57177C15.5286 1.86824 14.1404 0.475296 12.4321 0.475296Z" fill="white"/>
<path d="M5.94835 1.50588C5.36482 0.861177 4.52717 0.470589 3.61423 0.470589C1.88247 0.470589 0.470703 1.88235 0.470703 3.61412C0.470703 4.39529 0.767174 5.13412 1.266 5.69882C2.10835 3.68471 3.826 2.12706 5.94835 1.50588Z" fill="white"/>
</g>
<defs>
<clipPath id="clip0_630_4434">
<rect width="16" height="16" fill="white"/>
</clipPath>
</defs>
</svg>
