<svg width="24" height="12" viewBox="0 0 24 12" fill="none" xmlns="http://www.w3.org/2000/svg">
<path d="M0.799644 5.1605H21.2586L17.8281 1.72603C17.6971 1.57306 17.6286 1.37628 17.6364 1.17503C17.6442 0.97378 17.7276 0.782874 17.87 0.640462C18.0124 0.498049 18.2033 0.41462 18.4046 0.406846C18.6058 0.399073 18.8026 0.467528 18.9556 0.598531L23.7535 5.3964C23.8475 5.48874 23.918 5.60229 23.959 5.72752C24.0001 5.85275 24.0105 5.986 23.9893 6.11608C23.9532 6.26666 23.8773 6.40475 23.7694 6.5159L18.9716 11.3138C18.8999 11.3975 18.8117 11.4655 18.7125 11.5135C18.6133 11.5615 18.5052 11.5884 18.3951 11.5927C18.2849 11.5969 18.1751 11.5784 18.0725 11.5382C17.9699 11.498 17.8767 11.437 17.7988 11.3591C17.7208 11.2811 17.6599 11.1879 17.6197 11.0853C17.5795 10.9827 17.5609 10.8729 17.5652 10.7628C17.5694 10.6526 17.5964 10.5446 17.6444 10.4454C17.6924 10.3462 17.7604 10.258 17.8441 10.1863L21.2586 6.75979H0.799644C0.587564 6.75979 0.384172 6.67555 0.234209 6.52559C0.0842476 6.37562 0 6.17223 0 5.96015C0 5.74807 0.0842476 5.54468 0.234209 5.39472C0.384172 5.24475 0.587564 5.1605 0.799644 5.1605Z" fill="white"/>
</svg>
