<svg width="40" height="40" viewBox="0 0 40 40" fill="none" xmlns="http://www.w3.org/2000/svg">
<path d="M29 13.0001C23.5 -3.5 11.5 6.49988 11 13V15L10.5 17.0001L13 18.0001C17 30.5001 26 24.0001 26.5 18.0001C30 18 29 15.0001 29 13.0001Z" fill="white"/>
<path d="M30.2317 30.5472L24.5017 28.0932C24.0255 27.8893 23.7179 27.4228 23.7179 26.9048V24.6044C25.8017 23.4048 27.2562 21.2297 27.4527 18.7071H27.8289C28.4358 18.7071 29.0173 18.4489 29.4247 17.9988C29.8317 17.5489 30.0302 16.9427 29.9695 16.3356C29.9202 15.844 29.691 15.401 29.3491 15.0634C29.3522 15.0393 29.3542 15.0148 29.3542 14.9899V13.1111C29.3542 10.0502 27.8763 7.32805 25.5966 5.62063C25.596 2.53547 23.0859 0 20.0006 0C16.917 0 14.408 2.53281 14.4048 5.61578C14.1298 5.82149 13.8646 6.04273 13.611 6.28008C11.881 7.89891 10.8367 10.0877 10.6705 12.4436C10.6477 12.7664 10.8909 13.0466 11.2137 13.0694C11.5351 13.0916 11.8166 12.849 11.8395 12.5262C11.9848 10.4663 12.8984 8.55195 14.4117 7.13586C15.9322 5.71297 17.917 4.92945 20.0006 4.92945C24.512 4.92945 28.1823 8.59969 28.1823 13.1112V14.4476C28.0386 14.4193 27.8905 14.4041 27.7395 14.4041H26.8895C26.522 14.4041 26.223 14.1051 26.223 13.7375V13.3241C26.223 12.0577 25.5066 10.9553 24.457 10.4009C24.9965 10.0811 25.3066 9.86234 25.3512 9.83039C25.6145 9.64242 25.6753 9.27687 25.4875 9.01359C25.2998 8.75031 24.9339 8.68906 24.6705 8.87656C24.6305 8.905 20.6122 11.7273 14.9108 12.4591C14.2652 12.542 13.7783 13.0904 13.7783 13.7374C13.7783 14.105 13.4793 14.404 13.1117 14.404H12.1724C11.5655 14.404 10.984 14.6622 10.5766 15.1123C10.1696 15.5621 9.97102 16.1683 10.0318 16.7753C10.1402 17.8586 11.1197 18.7072 12.2618 18.7072H12.5484C12.6852 20.4829 13.4423 22.1338 14.7152 23.4066C15.1896 23.8811 15.7169 24.2836 16.2833 24.6094V26.9048C16.2833 27.4228 15.9756 27.8893 15.4995 28.0932L9.76953 30.5472C8.40039 31.1336 7.51562 32.4748 7.51562 33.9642V39.4141C7.51562 39.7377 7.77789 40 8.10156 40C8.42523 40 8.6875 39.7377 8.6875 39.4141V33.9642C8.6875 32.9443 9.29328 32.0259 10.2309 31.6245L13.7782 30.1052V33.818H11.8592C10.8455 33.818 10.0208 34.6428 10.0208 35.6565V38.1615C10.0208 39.1752 10.8455 39.9999 11.8592 39.9999C12.1829 39.9999 12.4452 39.7377 12.4452 39.414C12.4452 39.0903 12.1829 38.828 11.8592 38.828C11.4916 38.828 11.1927 38.5291 11.1927 38.1615V35.6565C11.1927 35.2889 11.4916 34.9899 11.8592 34.9899H16.8693C17.2369 34.9899 17.5359 35.2889 17.5359 35.6565V38.1615C17.5359 38.5291 17.2369 38.828 16.8693 38.828C16.5456 38.828 16.2834 39.0903 16.2834 39.414C16.2834 39.7377 16.5456 39.9999 16.8693 39.9999C17.883 39.9999 18.7077 39.1752 18.7077 38.1615V35.6565C18.7077 34.6427 17.883 33.818 16.8693 33.818H14.9502V30.4888L18.9809 33.1759C19.2906 33.3823 19.6456 33.4855 20.0007 33.4855C20.3557 33.4855 20.7108 33.3823 21.0205 33.1758L25.0512 30.4887V35.1415C23.9741 35.4052 23.1723 36.378 23.1723 37.5352C23.1723 38.8943 24.278 40 25.6371 40C26.9962 40 28.1018 38.8944 28.1018 37.5352C28.1018 36.3781 27.3001 35.4052 26.223 35.1415V30.1052L29.7705 31.6244C30.708 32.0259 31.3138 32.9443 31.3138 33.9641V39.4141C31.3138 39.7377 31.576 40 31.8997 40C32.2234 40 32.4856 39.7377 32.4856 39.4141V33.9642C32.4855 32.4748 31.6008 31.1336 30.2317 30.5472ZM15.6438 4.83234C16.0069 2.7557 17.8216 1.17188 20.0006 1.17188C22.1812 1.17188 23.997 2.75797 24.3582 4.8368C23.0561 4.14828 21.5732 3.75758 20.0006 3.75758C18.4639 3.75758 16.9745 4.13094 15.6438 4.83234ZM13.6978 18.1212C13.6978 17.9658 13.6361 17.8168 13.5262 17.7068C13.4163 17.597 13.2673 17.5352 13.1118 17.5352L12.2617 17.5353C11.7144 17.5353 11.2471 17.1502 11.1979 16.6586C11.1696 16.3763 11.2576 16.1063 11.4455 15.8985C11.6312 15.6934 11.8961 15.5758 12.1724 15.5758H13.1117C14.1255 15.5758 14.9502 14.751 14.9502 13.7348C14.9502 13.6773 14.9963 13.6295 15.0599 13.6214C18.4151 13.1907 21.1791 12.0967 22.9958 11.1934C24.136 11.2339 25.051 12.1741 25.051 13.324V13.7373C25.051 14.7511 25.8758 15.5758 26.8895 15.5758H27.7394C28.2867 15.5758 28.7541 15.9609 28.8033 16.4524C28.8316 16.7348 28.7436 17.0047 28.5556 17.2125C28.3701 17.4176 28.1052 17.5352 27.8288 17.5352L26.8894 17.5353C26.5658 17.5353 26.3035 17.7977 26.3035 18.1213C26.3035 21.5966 23.4761 24.4241 20.0006 24.4241C18.317 24.4241 16.7342 23.7685 15.5437 22.578C14.3534 21.3876 13.6978 19.8048 13.6978 18.1212ZM20.3704 32.2007C20.1459 32.3505 19.8555 32.3505 19.6308 32.2008L15.4278 29.3987L15.9609 29.1705C16.8687 28.7816 17.4552 27.8923 17.4552 26.9048V25.1532C18.2606 25.4441 19.1189 25.596 20.0007 25.596C20.8941 25.596 21.7512 25.438 22.546 25.1492V26.9048C22.546 27.8923 23.1326 28.7816 24.0403 29.1705L24.5734 29.3987L20.3704 32.2007ZM26.9298 37.5352C26.9298 38.2481 26.3498 38.8281 25.637 38.8281C24.9241 38.8281 24.3441 38.2481 24.3441 37.5352C24.3441 36.8223 24.9241 36.2424 25.637 36.2424C26.3498 36.2424 26.9298 36.8223 26.9298 37.5352Z" fill="#F96363"/>
<path d="M16.8691 15.6565C16.5455 15.6565 16.2832 15.9188 16.2832 16.2424V16.8687C16.2832 17.1924 16.5455 17.4546 16.8691 17.4546C17.1928 17.4546 17.4551 17.1924 17.4551 16.8687V16.2424C17.4551 15.9188 17.1928 15.6565 16.8691 15.6565Z" fill="#F96363"/>
<path d="M23.1309 17.4546C23.4545 17.4546 23.7168 17.1924 23.7168 16.8687V16.2424C23.7168 15.9188 23.4545 15.6565 23.1309 15.6565C22.8072 15.6565 22.5449 15.9188 22.5449 16.2424V16.8687C22.5449 17.1924 22.8072 17.4546 23.1309 17.4546Z" fill="#F96363"/>
<path d="M22.3309 19.6272C22.1249 19.3775 21.7558 19.342 21.506 19.5477C21.1263 19.8607 20.5774 20.0402 19.9999 20.0402C19.4225 20.0402 18.8735 19.8607 18.4938 19.5477C18.2441 19.3418 17.8748 19.3774 17.669 19.6272C17.4631 19.8768 17.4987 20.2461 17.7485 20.452C18.3431 20.9421 19.1428 21.2121 19.9999 21.2121C20.8571 21.2121 21.6568 20.9421 22.2514 20.452C22.5012 20.2461 22.5367 19.8769 22.3309 19.6272Z" fill="#F96363"/>
<path d="M38.7421 28.5527L36.2694 27.7284C36.2528 27.7229 36.2417 27.7074 36.2417 27.6901V26.0788C37.3757 25.2943 38.1205 23.9854 38.1205 22.5052V20.6264C38.1205 18.922 36.7338 17.5354 35.0295 17.5354H32.5245C30.8202 17.5354 29.4336 18.922 29.4336 20.6264V22.5052C29.4336 23.9854 30.1784 25.2944 31.3124 26.0789V27.6901C31.3124 27.7075 31.3012 27.7229 31.2848 27.7284L30.4605 28.0031C30.1535 28.1055 29.9876 28.4374 30.0899 28.7442C30.1718 28.9899 30.4004 29.1451 30.6457 29.1451C30.7071 29.1451 30.7696 29.1353 30.831 29.1149L31.3587 28.9389L33.0498 30.2071C33.2639 30.3677 33.5205 30.448 33.7772 30.448C34.0337 30.448 34.2903 30.3677 34.5045 30.2071L35.6962 29.3134V32.0356C34.9691 32.2809 34.4438 32.9689 34.4438 33.7778C34.4438 34.7916 35.2685 35.6163 36.2822 35.6163C37.2959 35.6163 38.1206 34.7915 38.1206 33.7778C38.1206 32.969 37.5953 32.2809 36.8681 32.0356V29.1632L38.3718 29.6644C38.6444 29.7552 38.8276 30.0093 38.8276 30.2967V35.0303C38.8276 35.354 39.0898 35.6163 39.4135 35.6163C39.7372 35.6163 39.9995 35.354 39.9995 35.0303V30.2967C39.9992 29.5041 39.494 28.8032 38.7421 28.5527ZM30.6053 22.5051V20.6263C30.6053 19.5681 31.4662 18.7072 32.5244 18.7072H35.0294C36.0876 18.7072 36.9484 19.5681 36.9484 20.6263V22.5051C36.9484 24.2539 35.5256 25.6767 33.7768 25.6767C32.028 25.6767 30.6053 24.2539 30.6053 22.5051ZM33.801 29.2697C33.7868 29.2802 33.7669 29.2803 33.7527 29.2696L32.3595 28.2248C32.4395 28.062 32.4841 27.8802 32.4841 27.69V26.652C32.8926 26.7797 33.3268 26.8485 33.7769 26.8485C34.227 26.8485 34.6612 26.7796 35.0698 26.652V27.69C35.0698 27.8802 35.1144 28.062 35.1943 28.2248L33.801 29.2697ZM36.282 34.4444C35.9144 34.4444 35.6154 34.1454 35.6154 33.7778C35.6154 33.4102 35.9144 33.1113 36.282 33.1113C36.6495 33.1113 36.9485 33.4102 36.9485 33.7778C36.9485 34.1454 36.6495 34.4444 36.282 34.4444Z" fill="#F96363"/>
<path d="M5.49492 30.2069C5.70906 30.3676 5.96563 30.4478 6.22234 30.4478C6.47891 30.4478 6.73547 30.3676 6.94969 30.207L8.6407 28.9387L9.16844 29.1146C9.22984 29.1352 9.29234 29.1448 9.35375 29.1448C9.59906 29.1448 9.82766 28.9896 9.90953 28.744C10.0119 28.437 9.84594 28.1052 9.53891 28.0029L8.71477 27.7282C8.6982 27.7227 8.68711 27.7072 8.68711 27.6898V26.0787C9.82109 25.2941 10.5659 23.9852 10.5659 22.5049V19.9999C10.5659 18.6409 9.46031 17.5352 8.10117 17.5352H4.34352C2.98445 17.5352 1.87883 18.6408 1.87883 19.9999V22.5049C1.87883 23.9852 2.62359 25.2941 3.75758 26.0786V27.6898C3.75758 27.7073 3.74641 27.7227 3.72992 27.7281L1.25719 28.5524C0.505234 28.803 0 29.5039 0 30.2966V35.0302C0 35.3538 0.262266 35.6161 0.585938 35.6161C0.909609 35.6161 1.17188 35.3538 1.17188 35.0302V30.2966C1.17188 30.0091 1.35508 29.7551 1.62773 29.6642L3.75758 28.9542V31.9391H3.09102C2.42258 31.9391 1.87883 32.483 1.87883 33.1514V34.4039C1.87883 35.0723 2.42258 35.6161 3.09102 35.6161C3.41469 35.6161 3.67695 35.3538 3.67695 35.0302C3.67695 34.7065 3.41469 34.4442 3.09102 34.4442C3.06883 34.4442 3.0507 34.4262 3.0507 34.4039V33.1514C3.0507 33.1291 3.06875 33.111 3.09102 33.111H5.59602C5.61828 33.111 5.63641 33.1291 5.63641 33.1514V34.4039C5.63641 34.4261 5.61836 34.4442 5.59602 34.4442C5.27234 34.4442 5.01008 34.7065 5.01008 35.0302C5.01008 35.3538 5.27234 35.6161 5.59602 35.6161C6.26445 35.6161 6.80828 35.0723 6.80828 34.4039V33.1514C6.80828 32.483 6.26445 31.9391 5.59602 31.9391H4.92945V29.7828L5.49492 30.2069ZM4.34352 18.707H8.10109C8.81398 18.707 9.39398 19.287 9.39398 19.9999V21.2683C7.51461 21.1116 6.19656 20.2388 5.68727 19.8428C5.25812 19.5091 4.65398 19.5045 4.21836 19.8311L3.05078 20.7069V19.9999C3.0507 19.287 3.63063 18.707 4.34352 18.707ZM3.0507 22.5049V22.1716L4.92141 20.7685C4.93039 20.7617 4.94852 20.7529 4.96781 20.7679C5.71664 21.35 7.24211 22.2937 9.39391 22.4436V22.5048C9.39391 24.2537 7.97109 25.6765 6.22227 25.6765C4.47344 25.6765 3.0507 24.2537 3.0507 22.5049ZM6.22234 26.8484C6.67234 26.8484 7.10664 26.7796 7.51516 26.652V27.6899C7.51516 27.8801 7.55969 28.062 7.63969 28.2247L6.24648 29.2695C6.23227 29.2802 6.21227 29.2802 6.19812 29.2695L4.80492 28.2246C4.88492 28.0619 4.92945 27.88 4.92945 27.6898V26.6519C5.33797 26.7796 5.77227 26.8484 6.22234 26.8484Z" fill="#F96363"/>
</svg>
