<svg width="32" height="32" viewBox="0 0 32 32" fill="none" xmlns="http://www.w3.org/2000/svg">
<path d="M9.16012 1.52381C9.16012 0.682233 8.47959 0 7.64012 0C6.80064 0 6.12012 0.682233 6.12012 1.52381V3.04762C6.12012 3.8892 6.80064 4.57143 7.64012 4.57143C8.47959 4.57143 9.16012 3.8892 9.16012 3.04762V1.52381Z" fill="#F96363"/>
<path d="M25.8801 1.52381C25.8801 0.682233 25.1996 0 24.3601 0C23.5206 0 22.8401 0.682233 22.8401 1.52381V3.04762C22.8401 3.8892 23.5206 4.57143 24.3601 4.57143C25.1996 4.57143 25.8801 3.8892 25.8801 3.04762V1.52381Z" fill="#F96363"/>
<path d="M0.800049 11.4287V28.9525C0.800049 30.6356 2.16121 32.0001 3.84005 32.0001H28.16C29.8389 32.0001 31.2 30.6356 31.2 28.9525V11.4287H0.800049ZM9.92005 26.6668C9.92005 27.5087 9.23985 28.1906 8.40005 28.1906H6.88005C6.04025 28.1906 5.36005 27.5087 5.36005 26.6668V25.143C5.36005 24.3011 6.04025 23.6192 6.88005 23.6192H8.40005C9.23985 23.6192 9.92005 24.3011 9.92005 25.143V26.6668ZM9.92005 18.2859C9.92005 19.1278 9.23985 19.8097 8.40005 19.8097H6.88005C6.04025 19.8097 5.36005 19.1278 5.36005 18.2859V16.762C5.36005 15.9201 6.04025 15.2382 6.88005 15.2382H8.40005C9.23985 15.2382 9.92005 15.9201 9.92005 16.762V18.2859ZM18.28 26.6668C18.28 27.5087 17.5998 28.1906 16.76 28.1906H15.24C14.4002 28.1906 13.72 27.5087 13.72 26.6668V25.143C13.72 24.3011 14.4002 23.6192 15.24 23.6192H16.76C17.5998 23.6192 18.28 24.3011 18.28 25.143V26.6668ZM18.28 18.2859C18.28 19.1278 17.5998 19.8097 16.76 19.8097H15.24C14.4002 19.8097 13.72 19.1278 13.72 18.2859V16.762C13.72 15.9201 14.4002 15.2382 15.24 15.2382H16.76C17.5998 15.2382 18.28 15.9201 18.28 16.762V18.2859ZM26.64 26.6668C26.64 27.5087 25.9598 28.1906 25.12 28.1906H23.6C22.7602 28.1906 22.08 27.5087 22.08 26.6668V25.143C22.08 24.3011 22.7602 23.6192 23.6 23.6192H25.12C25.9598 23.6192 26.64 24.3011 26.64 25.143V26.6668ZM26.64 18.2859C26.64 19.1278 25.9598 19.8097 25.12 19.8097H23.6C22.7602 19.8097 22.08 19.1278 22.08 18.2859V16.762C22.08 15.9201 22.7602 15.2382 23.6 15.2382H25.12C25.9598 15.2382 26.64 15.9201 26.64 16.762V18.2859Z" fill="#F96363"/>
<path d="M31.2 9.90469V5.33326C31.2 3.65022 29.8389 2.28564 28.16 2.28564H27.4V3.04755C27.4 4.72831 26.0366 6.09517 24.36 6.09517C22.6835 6.09517 21.32 4.72831 21.32 3.04755V2.28564H10.68V3.04755C10.68 4.72831 9.31661 6.09517 7.64005 6.09517C5.96349 6.09517 4.60005 4.72831 4.60005 3.04755V2.28564H3.84005C2.16121 2.28564 0.800049 3.65022 0.800049 5.33326V9.90469H31.2Z" fill="#F96363"/>
</svg>
