<svg width="32" height="32" viewBox="0 0 32 32" fill="none" xmlns="http://www.w3.org/2000/svg">
<path d="M4.79978 12.8003H1.59978V22.4003H4.79978V12.8003Z" fill="white"/>
<path d="M16.0001 30.4002C16.8837 30.4002 17.6001 29.6839 17.6001 28.8002C17.6001 27.9165 16.8837 27.2002 16.0001 27.2002C15.1164 27.2002 14.4001 27.9165 14.4001 28.8002C14.4001 29.6839 15.1164 30.4002 16.0001 30.4002Z" fill="white"/>
<path d="M30.4003 12.7998H27.2003V22.3998H30.4003V12.7998Z" fill="white"/>
<path d="M31.0625 11.0458H27.9469C27.467 4.87461 22.2922 0 16.0001 0C9.70795 0 4.53299 4.87461 4.05313 11.0458H0.937509C0.419794 11.0458 0 11.4656 0 11.9833V22.0249C0 22.5428 0.419794 22.9624 0.937509 22.9624H4.95416C5.47201 22.9624 5.89167 22.5428 5.89167 22.0249V11.9833C5.89167 6.40952 10.4263 1.87488 16.0001 1.87488C21.5738 1.87488 26.1083 6.40952 26.1083 11.9833V22.0249C26.1083 25.3839 23.3756 28.1167 20.0167 28.1167H18.792C18.3995 26.9507 17.2966 26.1083 16.0001 26.1083C14.3757 26.1083 13.0541 27.4298 13.0541 29.0542C13.0541 30.6785 14.3757 32 16.0001 32C17.2966 32 18.3995 31.1577 18.792 29.9917H20.0167C24.0923 29.9917 27.4624 26.9151 27.928 22.9624H31.0625C31.5803 22.9624 32 22.5428 32 22.0249V11.9833C32 11.4656 31.5803 11.0458 31.0625 11.0458ZM4.01665 21.0875H1.87502V12.9208H4.01665V21.0875ZM16.0001 30.125C15.4095 30.125 14.9291 29.6446 14.9291 29.0542C14.9291 28.4638 15.4095 27.9834 16.0001 27.9834C16.5905 27.9834 17.0709 28.4638 17.0709 29.0542C17.0709 29.6446 16.5905 30.125 16.0001 30.125ZM30.125 21.0875H27.9834V12.9208H30.125V21.0875Z" fill="#1EBCB4"/>
<path d="M22.8862 11.1171C22.536 10.972 22.1327 11.0521 21.8646 11.3202C21.8646 11.3202 18.9376 14.2463 17.5498 15.6331C16.9265 16.2598 16.569 17.1254 16.569 18.0082C16.569 18.5259 16.9887 18.9457 17.5065 18.9457H21.5899V21.0207C21.5899 21.5386 22.0097 21.9582 22.5274 21.9582C23.0451 21.9582 23.4649 21.5386 23.4649 21.0207V18.9457H23.5316C24.0493 18.9457 24.4691 18.5259 24.4691 18.0082C24.4691 17.4905 24.0493 17.0707 23.5316 17.0707H23.4649V11.9833C23.4649 11.6041 23.2364 11.2623 22.8862 11.1171ZM21.5899 17.0707H18.7756C18.8075 17.0312 18.8414 16.9934 18.8772 16.9573C19.5794 16.2557 20.6776 15.158 21.5899 14.246V17.0707Z" fill="#1EBCB4"/>
<path d="M14.9295 21.0206C14.9295 20.5029 14.5098 20.0831 13.992 20.0831H10.2404C10.2722 20.0436 10.306 20.0056 10.3418 19.9697C11.7277 18.5848 14.6549 15.6586 14.6549 15.6586C14.8307 15.4828 14.9295 15.2443 14.9295 14.9956V14.4936C14.9295 12.5924 13.3828 11.0457 11.4816 11.0457C9.56163 11.0457 8.03372 12.6014 8.03372 14.4925C8.03372 15.0103 8.45352 15.4305 8.97123 15.4305C9.48895 15.4305 9.90874 15.0102 9.90874 14.4925C9.90874 13.6331 10.6006 12.9205 11.4816 12.9205C12.3489 12.9205 13.0545 13.6263 13.0545 14.4936V14.6071C12.2943 15.367 10.1444 17.5163 9.01443 18.6454C8.39112 19.2722 8.03372 20.138 8.03372 21.0206C8.03372 21.5383 8.45352 21.9581 8.97123 21.9581H13.992C14.5098 21.9581 14.9295 21.5385 14.9295 21.0206Z" fill="#1EBCB4"/>
</svg>
