<svg width="32" height="32" viewBox="0 0 32 32" fill="none" xmlns="http://www.w3.org/2000/svg">
<g clip-path="url(#clip0_189_7519)">
<path d="M22.1269 1.97656H3.61875C1.62313 1.97656 0 3.59969 0 5.59531V21.8141C0 22.5822 0.868687 23.0152 1.48187 22.5772L6.63625 18.8997C7.06875 18.5916 7.5775 18.4284 8.10875 18.4284H19.4456C21.4413 18.4284 23.0644 16.8053 23.0644 14.8097V2.91406C23.0644 2.39656 22.6444 1.97656 22.1269 1.97656ZM17.5731 13.3334H6.74125C6.22375 13.3334 5.80375 12.9141 5.80375 12.3959C5.80375 11.8784 6.22375 11.4584 6.74125 11.4584H17.5731C18.0906 11.4584 18.5106 11.8784 18.5106 12.3959C18.5106 12.9141 18.0906 13.3334 17.5731 13.3334ZM17.5731 8.95844H6.74125C6.22375 8.95844 5.80375 8.53906 5.80375 8.02094C5.80375 7.50344 6.22375 7.08344 6.74125 7.08344H17.5731C18.0906 7.08344 18.5106 7.50344 18.5106 8.02094C18.5106 8.53906 18.0906 8.95844 17.5731 8.95844Z" fill="#F96363"/>
<path d="M31.9999 12.8674V29.0855C31.9999 29.8485 31.1356 30.2898 30.518 29.8487L25.3637 26.1718C24.9312 25.8637 24.4224 25.7005 23.8912 25.7005H12.5543C10.5587 25.7005 8.93555 24.0768 8.93555 22.0812V20.3037H19.4455C22.4749 20.3037 24.9393 17.8393 24.9393 14.8099V9.24805H28.3812C30.3768 9.24805 31.9999 10.8718 31.9999 12.8674Z" fill="#F96363"/>
</g>
<defs>
<clipPath id="clip0_189_7519">
<rect width="32" height="32" fill="white"/>
</clipPath>
</defs>
</svg>
