<svg width="32" height="32" viewBox="0 0 32 32" fill="none" xmlns="http://www.w3.org/2000/svg">
<path d="M28.2353 25.4118V22.0773C28.2353 21.3198 27.6213 20.7059 26.8639 20.7059H10.3529V15.0587H23.6666C24.762 15.0587 25.4153 13.838 24.8078 12.9266L21.837 8.4705L24.8077 4.01445C25.4153 3.103 24.762 1.88229 23.6666 1.88229H10.3529V0.941077C10.3529 0.421305 9.93162 0 9.41171 0C8.89194 0 8.47064 0.421305 8.47064 0.941077V1.88229V15.0587V20.7059H5.13614C4.3787 20.7059 3.76471 21.3198 3.76471 22.0773V25.4118H1.37143C0.613989 25.4118 0 26.0258 0 26.7832V30.6286C0 31.386 0.613989 32 1.37143 32H30.6286C31.386 32 32 31.386 32 30.6286V26.7832C32 26.0258 31.386 25.4118 30.6286 25.4118H28.2353ZM22.7121 3.76471L19.5748 8.4705L22.7121 13.1764H10.3529V3.76471H22.7121ZM5.647 22.5881H26.353V25.4118H5.647V22.5881ZM30.1177 30.1176H1.88229V27.2941H3.76471H28.2353H30.1177V30.1176Z" fill="#5F5CED"/>
</svg>
