<svg width="39" height="40" viewBox="0 0 39 40" fill="none" xmlns="http://www.w3.org/2000/svg">
<path d="M32.463 8.09143C32.3218 8.29143 32.1793 8.48518 32.038 8.67518C31.8943 8.86268 31.7543 9.03893 31.623 9.20518H33.2168V6.86768C33.1093 7.06893 32.9893 7.27268 32.863 7.48018C32.7368 7.68768 32.6018 7.89018 32.463 8.09143Z" fill="#F96363"/>
<path d="M30.1884 0C25.6184 0 21.9121 3.705 21.9121 8.275C21.9121 12.8462 25.6184 16.5513 30.1884 16.5513C34.7584 16.5513 38.4646 12.8462 38.4646 8.275C38.4646 3.705 34.7584 0 30.1884 0ZM29.4634 10.4537V11.6775H25.0096V11.1725C25.0096 10.8312 25.0684 10.5225 25.1834 10.2513C25.2984 9.98 25.4421 9.735 25.6184 9.51875C25.7921 9.30125 25.9821 9.11125 26.1896 8.94375C26.3971 8.77875 26.5921 8.6275 26.7809 8.49375C26.9759 8.35625 27.1471 8.22 27.2959 8.095C27.4421 7.96625 27.5671 7.84 27.6696 7.7125C27.7696 7.58625 27.8459 7.45875 27.8946 7.33C27.9459 7.2 27.9709 7.06375 27.9709 6.9175C27.9709 6.63125 27.8909 6.415 27.7296 6.2675C27.5659 6.1225 27.3196 6.04875 26.9871 6.04875C26.4109 6.04875 25.8596 6.2775 25.3346 6.73375V5.43875C25.9159 5.06125 26.5721 4.87375 27.3046 4.87375C27.6421 4.87375 27.9471 4.91875 28.2159 5.00625C28.4846 5.09375 28.7134 5.22 28.8996 5.38625C29.0871 5.5525 29.2296 5.75125 29.3271 5.98625C29.4246 6.22125 29.4734 6.48375 29.4734 6.7725C29.4734 7.08 29.4271 7.35375 29.3321 7.59375C29.2371 7.83375 29.1121 8.05 28.9534 8.245C28.7971 8.44125 28.6159 8.62125 28.4109 8.785C28.2034 8.94875 27.9909 9.1075 27.7709 9.25875C27.6221 9.365 27.4784 9.47 27.3384 9.57375C27.1996 9.67875 27.0771 9.78125 26.9721 9.88375C26.8646 9.9825 26.7821 10.0825 26.7209 10.1775C26.6571 10.2738 26.6259 10.3663 26.6259 10.4537H29.4634ZM35.3659 10.305H34.5621V11.6775H33.2171V10.305H30.3021V9.1525C30.5584 8.8625 30.8271 8.5475 31.1034 8.20125C31.3821 7.85875 31.6484 7.50375 31.9071 7.14C32.1659 6.77625 32.4071 6.41 32.6271 6.04125C32.8521 5.67125 33.0396 5.32 33.1959 4.985H34.5634V9.2025H35.3671V10.305H35.3659Z" fill="#F96363"/>
<path d="M21 17.5003C16.2 5.90026 9 11 8 17.0002L7 19.0001L8.5 21.0001L9 23.5001L12.5 26.5001H15L17.5 25.5L19.5 23.0001L21.5 20L21 17.5003Z" fill="white"/>
<path d="M26.8013 30.0926C24.8062 27.2826 19.9238 25.8626 19.7163 25.8026L19.1863 25.6514L18.9863 26.1651C18.7913 26.6601 18.4975 27.1814 18.1537 27.7089C17.0087 28.5901 15.7275 28.7876 14.2463 28.7876C12.765 28.7876 11.4813 28.5901 10.3375 27.7076C9.99375 27.1814 9.7 26.6589 9.50625 26.1651L9.305 25.6514L8.775 25.8026C8.56875 25.8626 3.68625 27.2826 1.69125 30.0926C0.525 31.7351 0 34.6651 0 36.2201V36.4426L0.14375 36.6114C0.26125 36.7501 3.1375 40.0001 14.245 40.0001C25.3525 40.0001 28.2288 36.7501 28.3463 36.6114L28.49 36.4426V36.2201C28.49 34.6651 27.965 31.7364 26.8013 30.0926ZM14.245 38.7889C5.13875 38.7889 1.90375 36.5476 1.2175 35.9651C1.27125 34.5089 1.77625 32.0651 2.67875 30.7939C3.26875 29.9651 4.185 29.2614 5.145 28.6926C5.17125 29.2889 5.25375 29.9689 5.42125 30.6776C3.61125 31.6151 4.06 33.2901 4.3975 34.5401C4.49375 34.8939 4.585 35.2314 4.63375 35.5439C4.75375 36.3264 5.025 36.8301 5.45875 37.0864C5.66875 37.2114 5.905 37.2714 6.17375 37.2714C6.4425 37.2714 6.7425 37.2101 7.08 37.0876C7.315 37.0026 7.43625 36.7401 7.35125 36.5051C7.26625 36.2689 7.005 36.1489 6.7675 36.2339C6.49375 36.3314 6.12625 36.4239 5.92 36.3039C5.74125 36.1976 5.60625 35.8876 5.53125 35.4039C5.47375 35.0401 5.3725 34.6651 5.275 34.3001C4.85875 32.7651 4.69875 31.8701 6.23125 31.3089C7.76625 30.7501 8.22 31.5389 8.89125 32.9789C9.05125 33.3201 9.21625 33.6751 9.40625 33.9889C9.66 34.4051 9.75625 34.7301 9.6875 34.9276C9.62375 35.1101 9.3925 35.2739 8.99625 35.4214C8.76 35.5064 8.63875 35.7676 8.725 36.0039C8.81 36.2401 9.07375 36.3614 9.30875 36.2751C9.98 36.0301 10.385 35.6864 10.5463 35.2289C10.7125 34.7526 10.5938 34.1939 10.1838 33.5176C10.0188 33.2464 9.87125 32.9301 9.71625 32.5976C9.155 31.3914 8.39125 29.7664 6.275 30.3464C6.1 29.5551 6.04125 28.8101 6.04 28.2039C7.0675 27.6839 8.04125 27.3214 8.60625 27.1301C10.0113 30.0239 13.6763 33.3264 13.84 33.4739L14.245 33.8351L14.65 33.4739C14.8138 33.3264 18.48 30.0239 19.8837 27.1289C20.4475 27.3214 21.4237 27.6826 22.4525 28.2039C22.4475 29.5064 22.2087 31.3876 21.1075 32.9226C20.57 32.6451 19.8937 32.6401 19.315 32.9826C18.4412 33.5014 18.1313 34.6014 18.6263 35.4351C19.1213 36.2739 20.2325 36.5364 21.1063 36.0176C21.9825 35.5001 22.2925 34.4026 21.795 33.5626C21.7925 33.5564 21.785 33.5514 21.7825 33.5439C22.94 31.9851 23.2837 30.1189 23.3475 28.6951C24.305 29.2626 25.22 29.9639 25.8113 30.7939C26.7125 32.0651 27.2175 34.5089 27.2712 35.9639C26.5763 36.5551 23.3363 38.7889 14.245 38.7889ZM20.585 35.1314C20.2213 35.3489 19.76 35.2389 19.5525 34.8901C19.3475 34.5426 19.4738 34.0851 19.8388 33.8701C20.205 33.6526 20.6663 33.7626 20.8713 34.1114C21.0788 34.4601 20.9488 34.9176 20.585 35.1314Z" fill="#F96363"/>
<path d="M6.31769 18.8461C6.40269 20.0886 6.86019 20.9049 7.68019 21.2786C8.65644 25.1411 11.0927 27.4336 14.2452 27.4336C17.3964 27.4336 19.8327 25.1411 20.8089 21.2786C21.6289 20.9049 22.0852 20.0886 22.1714 18.8461C22.2477 17.7411 21.8589 17.0961 21.4314 16.7174C21.5052 16.4949 21.5614 16.2736 21.5752 16.0386C21.6089 15.4649 22.0727 8.44238 14.2439 8.44238C6.41394 8.44238 6.87894 15.4649 6.91394 16.0386C6.92769 16.2736 6.98519 16.4949 7.05644 16.7174C6.63019 17.0949 6.24394 17.7399 6.31769 18.8461ZM7.70019 18.4674C8.00894 19.5224 8.46144 19.0249 8.46144 19.0249C8.31519 18.4736 8.42894 17.8524 8.47644 17.3036C8.69894 14.7924 10.4314 12.6011 10.4314 12.6011C10.4314 12.6011 11.8177 13.2761 14.2452 13.2761C16.6727 13.2761 18.0577 12.6011 18.0577 12.6011C18.0577 12.6011 19.7914 14.7924 20.0127 17.3036C20.0614 17.8511 20.1739 18.4736 20.0277 19.0249C20.0277 19.0249 20.4814 19.5211 20.7889 18.4674C20.8177 18.3649 20.8527 18.2836 20.8839 18.1874C20.9352 18.4011 20.9714 18.6024 20.9602 18.7636C20.8752 20.0324 20.3577 20.1749 20.1352 20.2361L19.7864 20.3336L19.7064 20.6874C19.3277 22.3511 18.0414 26.2211 14.2452 26.2211C10.4502 26.2211 9.16269 22.3511 8.78394 20.6874L8.70394 20.3336L8.35519 20.2361C8.13394 20.1749 7.61519 20.0336 7.53019 18.7636C7.51019 18.4924 7.53394 18.2824 7.57894 18.1111C7.61894 18.2299 7.66269 18.3361 7.70019 18.4674Z" fill="#F96363"/>
<path d="M10.431 20.8222H12.4135C13.4435 20.8222 14.081 19.3397 14.1035 18.2422H14.3872C14.4097 19.341 15.046 20.8222 16.0772 20.8222H18.0585C19.1297 20.8222 19.4472 19.9385 19.6822 19.0322C19.8672 18.3035 19.736 17.506 19.3435 16.9985C19.121 16.7122 18.8335 16.5522 18.531 16.5522H15.731C15.2822 16.5522 14.9035 16.7472 14.666 17.0997C14.6222 17.1672 14.5997 17.2535 14.566 17.3322H13.926C13.8922 17.2535 13.8697 17.1672 13.826 17.0997C13.5897 16.7472 13.211 16.5522 12.761 16.5522H9.96096C9.65971 16.5522 9.37096 16.7122 9.14846 16.9985C8.75596 17.506 8.62346 18.3035 8.80971 19.031C9.04221 19.9385 9.35971 20.8222 10.431 20.8222ZM15.421 17.6072C15.4685 17.5347 15.5435 17.4622 15.7297 17.4622L18.5197 17.461C18.6685 17.5072 18.9835 18.0972 18.801 18.806C18.5347 19.8385 18.3447 19.9135 18.0585 19.9135H16.0772C15.826 19.9135 15.2935 19.0947 15.2935 18.181C15.2922 17.9347 15.3372 17.731 15.421 17.6072ZM9.95971 17.4622H12.7597C12.946 17.4622 13.021 17.536 13.0685 17.6072C13.151 17.731 13.1972 17.9347 13.1972 18.181C13.1972 19.0935 12.6647 19.9135 12.4135 19.9135H10.431C10.146 19.9135 9.95471 19.8385 9.68846 18.8047C9.50596 18.0972 9.82096 17.5072 9.95971 17.4622Z" fill="#F96363"/>
</svg>
