<svg width="34" height="31" viewBox="0 0 34 31" fill="none" xmlns="http://www.w3.org/2000/svg">
<path d="M32.7478 28.821C27.7669 30.1049 19.1573 31.4747 8.52463 29.7045C7.66109 29.5607 7.22381 28.5755 7.69411 27.8371C10.51 23.4161 15.1821 17.7042 19.5324 19.7871C19.5324 19.7871 26.7727 16.9257 30.7767 21.3747C32.4022 23.1794 33.2364 25.3626 33.6459 27.3895C33.7752 28.0297 33.3803 28.6579 32.7478 28.821Z" fill="white"/>
<path d="M18.682 30.7028C15.5602 30.7028 12.1489 30.4604 8.4993 29.8528C8.04436 29.777 7.66019 29.4792 7.47164 29.056C7.28279 28.6321 7.31832 28.1461 7.5668 27.7563C10.6401 22.9311 15.2051 17.615 19.5387 19.624C20.2598 19.3591 27.0581 17.0191 30.888 21.274C32.321 22.865 33.2984 24.9124 33.7927 27.3598C33.9378 28.0776 33.4952 28.7837 32.7847 28.9667C29.332 29.8566 24.514 30.7028 18.682 30.7028ZM17.6355 19.5024C13.8121 19.5024 9.95196 24.5711 7.82056 27.9179C7.62642 28.2224 7.59881 28.6022 7.74654 28.9335C7.89369 29.2642 8.19356 29.4968 8.54865 29.5561C18.9654 31.2896 27.437 30.0343 32.7095 28.6753C33.2652 28.5323 33.6115 27.9804 33.4978 27.4194C33.0144 25.0255 32.061 23.0256 30.6645 21.4755C26.777 17.1563 19.6585 19.8983 19.5872 19.9268C19.5484 19.9421 19.5046 19.9403 19.4671 19.9227C18.8626 19.6334 18.2494 19.5024 17.6355 19.5024Z" fill="#F96363"/>
<path d="M21.2525 23.6035L22.1446 22.7636L20.3896 21.3843L18.7656 22.8078L19.5614 23.6035H21.2525Z" fill="white"/>
<path d="M21.2525 23.754H19.5616C19.5217 23.754 19.4835 23.7381 19.4553 23.7099L18.6594 22.9143C18.63 22.8849 18.6141 22.8447 18.6153 22.8029C18.6168 22.7615 18.6353 22.7222 18.6667 22.6949L20.2909 21.2713C20.3449 21.2237 20.4257 21.2211 20.4827 21.266L22.2375 22.6455C22.2722 22.6728 22.293 22.7134 22.2948 22.7571C22.2969 22.8009 22.2795 22.8435 22.2478 22.8734L21.3555 23.7131C21.3276 23.7393 21.2906 23.754 21.2525 23.754ZM19.6239 23.4532H21.1928L21.9145 22.7742L20.3951 21.5797L18.9857 22.8153L19.6239 23.4532Z" fill="#F96363"/>
<path d="M22.0964 30.4467C21.0382 30.5097 19.9342 30.5442 18.7871 30.547L19.5614 23.6045H21.2533L22.0964 30.4467Z" fill="white"/>
<path d="M18.7871 30.6974C18.7445 30.6974 18.7037 30.6792 18.6752 30.6475C18.6464 30.6155 18.6329 30.5729 18.6376 30.5303L19.4118 23.5877C19.4204 23.5117 19.4847 23.4541 19.5613 23.4541H21.2531C21.3291 23.4541 21.3932 23.5108 21.4023 23.586L22.2455 30.4281C22.2505 30.4695 22.2384 30.5109 22.2117 30.5429C22.1853 30.5746 22.1468 30.5943 22.1051 30.5967C21.034 30.6607 19.9173 30.6945 18.7871 30.6974ZM19.6958 23.7549L18.9554 30.3961C19.9661 30.3905 20.9643 30.3602 21.9274 30.3059L21.12 23.7549H19.6958Z" fill="#F96363"/>
<path d="M23.7432 18.9028L25.822 18.9525L23.1767 22.988C23.0211 23.2254 22.6938 23.2754 22.4744 23.0952L20.3906 21.3846L23.7432 18.9028Z" fill="#F96363"/>
<path d="M22.7776 23.354C22.6334 23.354 22.4918 23.3041 22.3787 23.2116L20.2952 21.5007C20.2594 21.4714 20.2391 21.427 20.2403 21.3806C20.2415 21.3342 20.2641 21.291 20.3011 21.2634L23.6534 18.7816C23.6804 18.762 23.7154 18.7479 23.7465 18.7523L25.8253 18.8019C25.88 18.8034 25.9296 18.8339 25.9549 18.8824C25.9804 18.9308 25.9775 18.989 25.9475 19.0348L23.3024 23.0703C23.2049 23.2189 23.0484 23.3197 22.8724 23.3467C22.8407 23.3517 22.809 23.354 22.7776 23.354ZM20.635 21.3906L22.5696 22.979C22.6425 23.0389 22.7347 23.0635 22.8269 23.0494C22.9197 23.0353 22.9993 22.9839 23.051 22.9052L25.5478 19.0962L23.7909 19.0542L20.635 21.3906Z" fill="#F96363"/>
<path d="M18.3447 19.4069L20.39 21.3845L18.9165 23.0071C18.7157 23.2282 18.3634 23.2127 18.1828 22.9748L15.7129 19.7219C16.4975 19.3809 17.3794 19.2876 18.3447 19.4069Z" fill="#F96363"/>
<path d="M18.5632 23.3139C18.5541 23.3139 18.5447 23.3136 18.5353 23.3133C18.3482 23.3051 18.1761 23.2146 18.0628 23.0657L15.593 19.8127C15.5651 19.7756 15.5557 19.7284 15.5675 19.6837C15.5789 19.6388 15.6106 19.6021 15.6529 19.5836C16.4392 19.2423 17.3505 19.1324 18.3632 19.2576C18.3955 19.2617 18.4258 19.2761 18.4493 19.2987L20.4946 21.2762C20.5531 21.3326 20.556 21.4251 20.5014 21.4853L19.0279 23.108C18.9083 23.2399 18.7403 23.3139 18.5632 23.3139ZM15.9513 19.7871L18.3024 22.8836C18.3614 22.9614 18.451 23.0084 18.5485 23.0128C18.6472 23.0158 18.7394 22.9782 18.8052 22.9059L20.1806 21.391L18.2766 19.5501C17.4151 19.4499 16.6336 19.5295 15.9513 19.7871Z" fill="#F96363"/>
<path d="M13.9316 5.62365C13.9316 5.62365 12.8108 8.23694 14.7372 10.8247L17.3723 8.49818L17.0376 5.19336L13.9316 5.62365Z" fill="#F96363"/>
<path d="M26.5705 12.6358C26.1123 13.1125 25.5574 13.4031 25.062 13.4701C24.9714 13.6918 24.8698 13.9051 24.7582 14.1097C23.9607 15.5709 23.6336 17.2419 23.7426 18.903L20.39 21.3848L18.3447 19.4071C18.3447 19.4071 18.8715 17.7982 18.9088 17.2246C18.9348 17.2284 18.9609 17.2284 18.987 17.2284C15.9029 16.9788 14.86 14.0214 14.7371 10.1365C14.5472 4.18819 15.9998 2.54932 19.419 2.54932C22.6781 2.54932 25.3488 6.12131 25.5946 9.9652C26.1533 9.75289 26.7008 9.7864 27.0398 10.1142C27.6022 10.6543 27.3899 11.7829 26.5705 12.6358Z" fill="white"/>
<path d="M20.3902 21.5351C20.3523 21.5351 20.3147 21.5208 20.2856 21.4929L18.2403 19.5153C18.1988 19.4754 18.1839 19.4152 18.2018 19.3606C18.2068 19.3459 18.6488 17.9907 18.7431 17.3543C16.0901 17.0171 14.7296 14.6543 14.5869 10.1412C14.4767 6.69169 14.912 4.6531 15.9984 3.53144C16.7468 2.75871 17.8338 2.39893 19.4192 2.39893C22.536 2.39893 25.391 5.75066 25.7303 9.76147C26.2956 9.59847 26.8137 9.68628 27.1445 10.0061C27.4537 10.3031 27.5697 10.7574 27.4713 11.2855C27.3771 11.7898 27.0957 12.3064 26.6789 12.7402C26.2378 13.1993 25.6921 13.5109 25.1687 13.6055C25.0847 13.8031 24.9913 13.9967 24.89 14.1817C24.1269 15.58 23.7821 17.2092 23.8926 18.893C23.8958 18.9441 23.8732 18.9934 23.8321 19.024L20.4797 21.5058C20.453 21.5255 20.4216 21.5351 20.3902 21.5351ZM18.5166 19.3644L20.4031 21.188L23.5874 18.8307C23.4896 17.119 23.8482 15.4634 24.6262 14.0378C24.7352 13.8378 24.8351 13.6278 24.9229 13.4131C24.9431 13.3634 24.9887 13.3282 25.0418 13.3212C25.5253 13.2557 26.0428 12.9681 26.4622 12.5317C26.8387 12.1399 27.0922 11.6776 27.1756 11.2303C27.2549 10.8053 27.1697 10.4476 26.9356 10.2226C26.654 9.95062 26.1726 9.90656 25.648 10.106C25.6028 10.1227 25.5535 10.1171 25.5132 10.0919C25.473 10.066 25.4474 10.0226 25.4445 9.97499C25.1922 6.03144 22.4332 2.69968 19.4192 2.69968C17.9207 2.69968 16.9024 3.03039 16.2146 3.74056C15.1896 4.79907 14.7801 6.77011 14.8876 10.1318C15.0286 14.5938 16.3735 16.8661 18.9992 17.0785C19.0797 17.085 19.1408 17.1537 19.1375 17.2345C19.1349 17.2947 19.0973 17.3455 19.0447 17.3672C18.9654 17.939 18.6206 19.0401 18.5166 19.3644Z" fill="#F96363"/>
<path d="M19.4185 17.3968C18.3074 17.3968 17.3752 17.0772 16.6477 16.4472C16.5848 16.3929 16.5781 16.298 16.6324 16.2352C16.6867 16.172 16.7816 16.1656 16.8445 16.2199C17.5159 16.8011 18.382 17.096 19.4185 17.096C20.1695 17.096 20.894 16.9668 21.5719 16.7119C21.6491 16.6822 21.7364 16.7215 21.7654 16.7997C21.7948 16.8772 21.7555 16.9641 21.6776 16.9932C20.966 17.2611 20.2059 17.3968 19.4185 17.3968Z" fill="#000D44"/>
<path d="M20.7983 10.6681C20.7269 11.1156 20.4444 11.4405 20.1651 11.3959C19.8858 11.3513 19.7164 10.9543 19.7878 10.5068C19.8592 10.0594 20.1441 9.73245 20.4234 9.77702C20.7027 9.82158 20.8698 10.2206 20.7983 10.6681Z" fill="#F96363"/>
<path d="M17.2577 10.7003C17.2577 11.1534 17.0298 11.5187 16.747 11.5187C16.4642 11.5187 16.2344 11.1534 16.2344 10.7003C16.2344 10.2471 16.4642 9.87939 16.747 9.87939C17.0298 9.87939 17.2577 10.2471 17.2577 10.7003Z" fill="#F96363"/>
<path d="M18.3299 11.8174C18.2806 11.8174 18.2289 11.8109 18.1769 11.7942C18.028 11.7466 17.9187 11.6168 17.9058 11.4711C17.8952 11.3568 17.9419 11.2623 17.9795 11.1862C18.2116 10.7154 18.3555 10.1947 18.495 9.69125C18.5167 9.61166 18.5987 9.56408 18.68 9.58669C18.7599 9.60872 18.8069 9.69154 18.7846 9.77172C18.6415 10.2883 18.4938 10.8226 18.2509 11.3157C18.2262 11.3656 18.2025 11.4138 18.2054 11.4441C18.2075 11.469 18.2359 11.4975 18.2688 11.5078C18.3111 11.5219 18.3661 11.5187 18.4483 11.4996C18.549 11.4755 18.6477 11.4385 18.7411 11.3891C18.8142 11.351 18.9056 11.3783 18.9444 11.452C18.9831 11.5257 18.9549 11.6165 18.8815 11.6552C18.7655 11.7163 18.6433 11.7624 18.5176 11.7921C18.4633 11.805 18.3989 11.8174 18.3299 11.8174Z" fill="#F96363"/>
<path d="M25.4293 12.2916C25.3577 12.2916 25.2942 12.2402 25.2816 12.167C25.2672 12.0854 25.3218 12.0073 25.4038 11.9932C25.5991 11.9588 25.8076 11.7876 25.9351 11.5564C26.0441 11.3588 26.0863 11.1426 26.0508 10.9637C26.0347 10.8821 26.0875 10.8031 26.1689 10.7869C26.2505 10.7696 26.3298 10.8236 26.3457 10.905C26.3947 11.1526 26.341 11.4431 26.1982 11.7015C26.0261 12.014 25.7415 12.2393 25.4555 12.2892C25.4467 12.291 25.4381 12.2916 25.4293 12.2916Z" fill="#F96363"/>
<path d="M21.4607 9.53773C21.4169 9.53773 21.3738 9.51864 21.3438 9.48192C20.7681 8.77204 19.8794 9.21318 19.8421 9.23286C19.7687 9.27046 19.6779 9.24167 19.6397 9.16737C19.6018 9.09365 19.6306 9.00319 19.7043 8.9653C20.0967 8.76353 20.9922 8.57086 21.5776 9.29278C21.6299 9.3571 21.6199 9.45197 21.5553 9.50424C21.5277 9.52686 21.4942 9.53773 21.4607 9.53773Z" fill="#F96363"/>
<path d="M17.691 9.3949C17.6472 9.3949 17.6038 9.37581 17.5741 9.33909C16.9958 8.62598 16.0818 9.08475 16.073 9.08974C15.9996 9.12821 15.9088 9.09884 15.8703 9.02512C15.8321 8.95111 15.8612 8.86065 15.9349 8.82247C16.327 8.62011 17.2225 8.42803 17.8079 9.14995C17.8602 9.21427 17.8502 9.30913 17.7856 9.36141C17.758 9.38403 17.7245 9.3949 17.691 9.3949Z" fill="#F96363"/>
<path d="M26.1033 9.31829C25.9829 9.51903 25.9313 9.7599 25.7707 9.90615C24.4372 11.1192 24.4716 12.5071 25.0136 13.5796C24.9362 13.7631 23.8666 17.795 18.9945 17.5111L18.9572 17.5082C17.2079 17.3534 15.9347 16.2694 15.2637 14.6177C14.8049 13.4964 14.6213 12.1114 14.7561 10.58C14.8335 11.968 14.9514 13.5112 15.8372 13.6111C16.1133 13.6423 16.5877 12.9206 16.8467 12.8202C17.6758 12.4986 19.3669 12.4092 20.2935 13.2355C20.5777 13.4889 21.0101 14.2237 21.3832 14.2994C22.331 14.4915 23.0177 13.4448 23.3733 12.9487C24.896 10.8123 24.6294 9.90041 25.3635 9.48747C25.699 9.30108 26.1033 9.31829 26.1033 9.31829Z" fill="#F96363"/>
<path d="M18.1617 14.2353C17.8621 14.2353 17.5764 14.1111 17.2932 13.8623C17.231 13.8074 17.2248 13.7122 17.2794 13.65C17.3347 13.5877 17.4295 13.5815 17.4918 13.6362C17.8266 13.9304 18.2316 14.1319 18.9221 13.6279C18.9885 13.5786 19.0831 13.593 19.1321 13.6605C19.1812 13.7275 19.1665 13.8218 19.0995 13.8705C18.7668 14.1137 18.4575 14.2353 18.1617 14.2353Z" fill="white"/>
<path d="M14.8841 6.60277C14.8841 6.60277 11.4662 4.9462 13.974 2.1333C17.8196 -2.18009 30.0368 -0.206348 27.2362 10.3868C26.6445 9.51226 24.812 10.2021 24.812 10.2021C24.812 10.2021 22.9509 8.91846 24.0702 6.82279C20.567 7.31979 17.5626 7.17192 14.8841 6.60277Z" fill="#F96363"/>
<path d="M28.128 22.9496C28.1153 22.9496 28.1024 22.9481 28.0898 22.9446C28.0093 22.9234 27.9614 22.8412 27.9826 22.761C28.3682 21.2945 28.227 20.1353 27.5632 19.3153C26.3543 17.8227 23.7953 17.9272 23.7706 17.9278C23.6907 17.941 23.6176 17.8679 23.6135 17.7848C23.6094 17.702 23.6734 17.6315 23.7565 17.6277C23.8661 17.6209 26.4932 17.5161 27.797 19.1261C28.5245 20.0246 28.6848 21.2734 28.2734 22.8374C28.2557 22.9049 28.1946 22.9496 28.128 22.9496Z" fill="#F96363"/>
<path d="M28.0004 23.923C27.9598 23.923 27.9184 23.9177 27.8773 23.9059C27.6376 23.8381 27.4981 23.589 27.566 23.3491C27.7957 22.5358 27.9795 21.8212 27.8987 21.3116C27.8597 21.0658 28.0277 20.8347 28.2738 20.7956C28.519 20.7568 28.7508 20.9245 28.7898 21.1707C28.8994 21.8612 28.6935 22.6771 28.4342 23.5946C28.3781 23.7931 28.1971 23.923 28.0004 23.923Z" fill="#F96363"/>
<path d="M28.8618 28.4715C28.8178 28.4715 28.7737 28.4662 28.7305 28.4559L28.0615 28.2947C27.9807 28.275 27.9311 28.1939 27.9505 28.1132C27.9701 28.0324 28.0503 27.9839 28.132 28.0021L28.801 28.1634C28.8712 28.1804 28.9444 28.1681 29.006 28.1281C29.0668 28.0888 29.1071 28.0283 29.12 27.9578C29.5256 25.7585 28.8868 23.8051 27.6656 23.5108C26.4458 23.2142 24.9855 24.6648 24.3453 26.8076C24.3247 26.8761 24.3332 26.948 24.3691 27.0106C24.4058 27.0743 24.4648 27.1187 24.5359 27.1357L25.2046 27.2967C25.2854 27.316 25.335 27.3974 25.3157 27.4782C25.296 27.5584 25.2155 27.6074 25.1342 27.5892L24.4654 27.4282C24.3156 27.3921 24.1855 27.2946 24.1082 27.1607C24.0307 27.0256 24.0125 26.8696 24.0571 26.7213C24.7544 24.3872 26.3342 22.8797 27.7361 23.2183C29.1353 23.5558 29.8575 25.6167 29.416 28.0124C29.3879 28.1648 29.3006 28.2955 29.1699 28.3804C29.078 28.44 28.9702 28.4715 28.8618 28.4715Z" fill="#F96363"/>
<path d="M29.0948 25.2686C28.9118 25.2686 28.7397 25.1567 28.6721 24.9752C28.431 24.3287 28.0486 23.9125 27.5957 23.8033C27.1416 23.6937 26.6124 23.8902 26.1034 24.356C25.9195 24.524 25.6341 24.5117 25.4661 24.3278C25.2978 24.144 25.3104 23.8585 25.4943 23.6905C26.2317 23.0159 27.0518 22.743 27.8072 22.9263C28.5608 23.1078 29.1682 23.7237 29.5174 24.6597C29.6046 24.8932 29.486 25.1531 29.2525 25.2401C29.2005 25.2595 29.1473 25.2686 29.0948 25.2686Z" fill="#F96363"/>
<path d="M26.0217 27.6162C25.9603 27.871 25.5143 27.9839 25.2594 27.9225C25.0021 27.8605 24.9666 27.6316 25.028 27.3768C25.0894 27.1219 25.2253 26.9343 25.4826 26.9963C25.7374 27.0577 26.0831 27.3614 26.0217 27.6162Z" fill="#F96363"/>
<path d="M27.3005 27.9365C27.246 28.1929 27.5998 28.4871 27.8562 28.5417C28.115 28.5967 28.2458 28.4055 28.3003 28.1491C28.3549 27.8927 28.3132 27.6648 28.0544 27.6098C27.798 27.5552 27.3551 27.6801 27.3005 27.9365Z" fill="#F96363"/>
<path d="M15.6179 25.6281C15.5582 25.6281 15.5016 25.5923 15.4781 25.5332C14.4824 23.0273 14.4269 21.0945 15.3133 19.789C16.1172 18.6042 17.5739 18.1821 18.6689 18.1821C18.752 18.1821 18.8192 18.2494 18.8192 18.3325C18.8192 18.4156 18.752 18.4829 18.6689 18.4829C18.3173 18.4829 16.5148 18.554 15.5621 19.9579C14.7353 21.1758 14.8011 23.0144 15.7577 25.4222C15.7882 25.4994 15.7506 25.5867 15.6734 25.6175C15.6552 25.6246 15.6364 25.6281 15.6179 25.6281Z" fill="#F96363"/>
<path d="M15.9745 27.4501C15.8394 27.4501 15.7037 27.4327 15.57 27.3972C15.1633 27.2897 14.822 27.0289 14.6093 26.6629C14.3976 26.2988 14.34 25.8738 14.4472 25.4667C14.5547 25.0587 14.8152 24.7172 15.1809 24.5045C15.5448 24.2931 15.9706 24.2361 16.378 24.3436C16.7863 24.4517 17.1275 24.7116 17.3393 25.0758C17.5517 25.4411 17.6089 25.867 17.5008 26.2747C17.3925 26.6817 17.1322 27.0224 16.7678 27.2345C16.5225 27.3772 16.25 27.4501 15.9745 27.4501ZM15.9712 24.5912C15.7486 24.5912 15.5292 24.6499 15.3321 24.7647C15.0361 24.9366 14.8252 25.2132 14.738 25.5433C14.6513 25.8729 14.6977 26.2168 14.8696 26.512C15.0417 26.8083 15.3177 27.0195 15.647 27.1064C15.9759 27.1943 16.3204 27.1467 16.6168 26.9743C16.9117 26.8027 17.1226 26.527 17.2101 26.1974C17.2976 25.8676 17.2512 25.5228 17.0791 25.2267C16.9079 24.9322 16.6315 24.7219 16.3011 24.6343C16.1918 24.6056 16.0811 24.5912 15.9712 24.5912Z" fill="#F96363"/>
<path d="M15.9738 26.5038C16.324 26.5038 16.6078 26.22 16.6078 25.8698C16.6078 25.5197 16.324 25.2358 15.9738 25.2358C15.6237 25.2358 15.3398 25.5197 15.3398 25.8698C15.3398 26.22 15.6237 26.5038 15.9738 26.5038Z" fill="#F96363"/>
<path d="M5.37506 18.45C2.4113 18.45 0 16.039 0 13.0752V6.43341C0 5.84923 0.475505 5.37402 1.05968 5.37402H9.69014C10.2743 5.37402 10.7498 5.84923 10.7498 6.43341V13.0752C10.7498 16.039 8.33882 18.45 5.37506 18.45ZM1.05968 5.67478C0.641154 5.67478 0.300752 6.01518 0.300752 6.43341V13.0752C0.300752 15.873 2.57695 18.1492 5.37476 18.1492C8.17287 18.1492 10.4491 15.873 10.4491 13.0752V6.43341C10.4491 6.01518 10.1087 5.67478 9.69014 5.67478H1.05968Z" fill="#F96363"/>
<path d="M9.55155 10.4745V13.0738C9.55155 15.38 7.67911 17.2525 5.37592 17.2525C3.07272 17.2525 1.19727 15.38 1.19727 13.0738V10.4745C1.19727 10.4087 1.24214 10.3489 1.30496 10.331C1.37076 10.31 1.43955 10.3399 1.47246 10.3967C2.53432 12.1077 3.63207 11.65 5.14858 11.0189C6.36 10.5134 7.73294 9.9421 9.43491 10.328C9.5037 10.3429 9.55155 10.4057 9.55155 10.4745Z" fill="#F96363"/>
<path d="M6.38286 5.67486C6.29974 5.67486 6.23248 5.6076 6.23248 5.52448C6.23248 5.05103 5.84714 4.66599 5.37369 4.66599C4.90171 4.66599 4.51755 5.05103 4.51755 5.52448C4.51755 5.6076 4.45029 5.67486 4.36717 5.67486C4.28405 5.67486 4.2168 5.6076 4.2168 5.52448C4.2168 4.88538 4.73577 4.36523 5.37369 4.36523C6.01308 4.36523 6.53323 4.88538 6.53323 5.52448C6.53323 5.6076 6.46597 5.67486 6.38286 5.67486Z" fill="#F96363"/>
<path d="M5.37303 4.66576C5.28991 4.66576 5.22266 4.5985 5.22266 4.51538V2.94789C5.22266 2.44477 5.63178 2.03564 6.1349 2.03564C6.63801 2.03564 7.04714 2.44477 7.04714 2.94789V3.08681C7.04714 3.16993 6.97988 3.23718 6.89676 3.23718C6.81365 3.23718 6.74639 3.16993 6.74639 3.08681V2.94789C6.74639 2.61072 6.47207 2.3364 6.1349 2.3364C5.79773 2.3364 5.52341 2.61072 5.52341 2.94789V4.51538C5.52341 4.5985 5.45615 4.66576 5.37303 4.66576Z" fill="#F96363"/>
<path d="M4.57378 18.2397V18.9875C4.57378 19.4152 4.22979 19.7622 3.80206 19.7622C3.58968 19.7622 3.39527 19.6755 3.25467 19.5349C3.1141 19.3943 3.02734 19.1999 3.02734 18.9875V17.7432C3.50295 17.9854 4.0234 18.153 4.57378 18.2397Z" fill="#F96363"/>
<path d="M3.80212 19.9126C3.55541 19.9126 3.32338 19.8163 3.14833 19.6412C2.97329 19.4659 2.87695 19.2335 2.87695 18.9874V17.7433C2.87695 17.691 2.90427 17.6426 2.94862 17.615C2.99355 17.5876 3.04906 17.5853 3.09547 17.6094C3.55834 17.8449 4.06381 18.007 4.59747 18.091C4.6706 18.1025 4.72435 18.1656 4.72435 18.2397V18.9874C4.72435 19.4976 4.31052 19.9126 3.80212 19.9126ZM3.17771 17.9821V18.9874C3.17771 19.1534 3.24291 19.3102 3.36098 19.4286C3.47904 19.5466 3.63588 19.6118 3.80212 19.6118C4.14487 19.6118 4.42359 19.3316 4.42359 18.9874V18.3668C3.98744 18.2878 3.5698 18.1589 3.17771 17.9821Z" fill="#F96363"/>
<path d="M7.72025 17.7432V18.9875C7.72025 19.4152 7.37328 19.7622 6.94555 19.7622C6.73317 19.7622 6.53876 19.6755 6.40116 19.5349C6.26056 19.3943 6.17383 19.1999 6.17383 18.9875V18.2397C6.72121 18.1559 7.24167 17.9854 7.72025 17.7432Z" fill="#F96363"/>
<path d="M6.94567 19.9126C6.70101 19.9126 6.46311 19.8133 6.29364 19.6401C6.11977 19.4659 6.02344 19.2336 6.02344 18.9874V18.2397C6.02344 18.1654 6.07777 18.1022 6.1512 18.0911C6.6734 18.0112 7.17857 17.8491 7.65261 17.6091C7.69901 17.5853 7.75452 17.5877 7.79917 17.6153C7.84381 17.6426 7.87083 17.691 7.87083 17.7433V18.9874C7.87083 19.4976 7.45583 19.9126 6.94567 19.9126ZM6.32419 18.3671V18.9874C6.32419 19.1534 6.38939 19.3102 6.50746 19.4286C6.622 19.5455 6.78119 19.6119 6.94567 19.6119C7.28988 19.6119 7.57008 19.3317 7.57008 18.9874V17.9818C7.17123 18.1616 6.75358 18.2908 6.32419 18.3671Z" fill="#F96363"/>
<path d="M4.42065 7.86014V8.28805C4.42065 8.35656 4.36511 8.4121 4.29661 8.4121H3.50536V9.20334C3.50536 9.27185 3.44982 9.32739 3.38131 9.32739H2.9534C2.88489 9.32739 2.82935 9.27185 2.82935 9.20334V8.4121H2.03811C1.9696 8.4121 1.91406 8.35656 1.91406 8.28805V7.86014C1.91406 7.79163 1.9696 7.73609 2.03811 7.73609H2.82935V6.94485C2.82935 6.87634 2.88489 6.8208 2.9534 6.8208H3.38131C3.44982 6.8208 3.50536 6.87634 3.50536 6.94485V7.73609H4.29661C4.36511 7.73609 4.42065 7.79163 4.42065 7.86014Z" fill="#F96363"/>
<path d="M9.49784 7.34079H6.29295C6.20984 7.34079 6.14258 7.27353 6.14258 7.19041C6.14258 7.1073 6.20984 7.04004 6.29295 7.04004H9.49784C9.58096 7.04004 9.64822 7.1073 9.64822 7.19041C9.64822 7.27353 9.58096 7.34079 9.49784 7.34079Z" fill="#F96363"/>
<path d="M9.49852 8.22458H7.46874C7.38562 8.22458 7.31836 8.15732 7.31836 8.0742C7.31836 7.99109 7.38562 7.92383 7.46874 7.92383H9.49852C9.58163 7.92383 9.64889 7.99109 9.64889 8.0742C9.64889 8.15732 9.58163 8.22458 9.49852 8.22458Z" fill="#F96363"/>
<path d="M9.49734 9.10837H7.70311C7.61999 9.10837 7.55273 9.04111 7.55273 8.95799C7.55273 8.87488 7.61999 8.80762 7.70311 8.80762H9.49734C9.58046 8.80762 9.64772 8.87488 9.64772 8.95799C9.64772 9.04111 9.58046 9.10837 9.49734 9.10837Z" fill="#F96363"/>
<path d="M0.523423 26.5899C0.440305 26.5899 0.373047 26.5226 0.373047 26.4395V23.8071C0.373047 22.8199 1.17632 22.0167 2.16346 22.0167C2.98495 22.0167 3.65312 21.3485 3.65312 20.527V19.7622C3.65312 19.6791 3.72038 19.6118 3.8035 19.6118C3.88662 19.6118 3.95387 19.6791 3.95387 19.7622V20.527C3.95387 21.5141 3.1506 22.3174 2.16346 22.3174C1.34197 22.3174 0.673799 22.9856 0.673799 23.8071V26.4395C0.673799 26.5226 0.606541 26.5899 0.523423 26.5899Z" fill="#F96363"/>
<path d="M8.48009 24.5058C8.39697 24.5058 8.32971 24.4385 8.32971 24.3554V22.9374C8.32971 22.5979 8.05334 22.3215 7.71352 22.3215C7.20806 22.3215 6.79688 21.91 6.79688 21.4046V19.7622C6.79688 19.6791 6.86413 19.6118 6.94725 19.6118C7.03037 19.6118 7.09763 19.6791 7.09763 19.7622V21.4046C7.09763 21.7444 7.374 22.0208 7.71352 22.0208C8.21899 22.0208 8.63046 22.432 8.63046 22.9374V24.3554C8.63046 24.4385 8.56321 24.5058 8.48009 24.5058Z" fill="#F96363"/>
</svg>
