<svg width="34" height="24" viewBox="0 0 34 24" fill="none" xmlns="http://www.w3.org/2000/svg">
<path d="M21.1791 23.6862C27.18 23.6862 32.0448 18.8215 32.0448 12.8205C32.0448 6.81957 27.18 1.95483 21.1791 1.95483C15.1781 1.95483 10.3134 6.81957 10.3134 12.8205C10.3134 18.8215 15.1781 23.6862 21.1791 23.6862Z" fill="white"/>
<path d="M21.4291 11.1974L21.9358 11.7041L22.4423 11.1974L24.8986 8.74111C25.0013 8.63838 25.1681 8.63838 25.2707 8.74111C25.3734 8.84385 25.3734 9.01034 25.2707 9.11293L22.1218 12.262C22.019 12.3648 21.8524 12.3648 21.7497 12.262L19.4843 9.99657C19.3815 9.89383 19.3816 9.72734 19.4842 9.6246C19.5871 9.52187 19.7536 9.52201 19.8563 9.6246L21.4291 11.1974Z" fill="#F96363" stroke="#F96363"/>
<path d="M15.0838 3.18848L15.3272 3.19722L15.5255 3.0558C22.7807 -2.11718 33 3.05508 33 12.0759C33 18.145 28.0868 23.1405 21.9356 23.1406C19.6103 23.1406 17.3848 22.4228 15.5255 21.0964L15.3267 20.9545L15.0826 20.9637C15.0869 20.9635 15.0285 20.9635 14.908 20.9637C14.811 20.9638 14.6737 20.964 14.4969 20.9641L12.9308 20.9647C11.6393 20.965 9.923 20.9651 8.20502 20.9653C5.11697 20.9653 2.02405 20.9651 1.38285 20.9651H1.26307C1.11778 20.9651 1 20.8473 1 20.7021C1 20.5568 1.11778 20.439 1.26307 20.439H12.9735H14.5294L13.518 19.2568C12.0238 17.5106 11.0996 15.3233 10.9092 12.9971L10.8553 12.3392H10.1952H4.5116C4.36645 12.3392 4.24853 12.2214 4.24853 12.0761C4.24853 11.9308 4.36645 11.813 4.5116 11.813H10.1952H10.8553L10.9092 11.1551C11.1001 8.82526 12.0268 6.63904 13.518 4.89527L14.5289 3.71318H12.9735H8.1427C7.99741 3.71318 7.87963 3.5954 7.87963 3.45011C7.87963 3.30482 7.99741 3.18705 8.1427 3.18705H15.0553C15.0617 3.18747 15.0719 3.18805 15.0838 3.18848ZM11.3974 12.0759C11.3974 17.9493 16.1599 22.6143 21.9356 22.6143C27.78 22.6143 32.4739 17.8726 32.4739 12.0759C32.4739 2.80405 21.3505 -1.90383 14.6815 4.43232C12.5652 6.44202 11.3974 9.15983 11.3974 12.0759Z" fill="#F96363" stroke="#F96363"/>
<path d="M22.3079 5.68793C22.3079 5.89354 22.1413 6.06018 21.9356 6.06018C21.7302 6.06018 21.5635 5.89354 21.5635 5.68793C21.5635 5.48231 21.7302 5.31567 21.9356 5.31567C22.1413 5.31567 22.3079 5.48231 22.3079 5.68793Z" fill="#F96363" stroke="#F96363"/>
<path d="M21.9356 19.5529C22.5369 19.5529 23.0243 19.0655 23.0243 18.4643C23.0243 17.863 22.5369 17.3757 21.9356 17.3757C21.3344 17.3757 20.8471 17.863 20.8471 18.4643C20.8471 19.0655 21.3344 19.5529 21.9356 19.5529Z" fill="#F96363"/>
<path d="M28.2875 10.9512C27.6863 10.9512 27.199 11.4386 27.199 12.0398C27.199 12.6411 27.6863 13.1284 28.2875 13.1284C28.8888 13.1284 29.3762 12.6411 29.3762 12.0398C29.3762 11.4386 28.8888 10.9512 28.2875 10.9512Z" fill="#F96363"/>
<path d="M15.6807 13.1154C16.2742 13.0193 16.6773 12.4602 16.581 11.8669C16.4848 11.2734 15.9258 10.8703 15.3324 10.9666C14.7391 11.0628 14.3359 11.6218 14.4322 12.2152C14.5283 12.8087 15.0874 13.2117 15.6807 13.1154Z" fill="#F96363"/>
</svg>
