<svg width="38" height="32" viewBox="0 0 38 32" fill="none" xmlns="http://www.w3.org/2000/svg">
<path d="M35.2439 3.2C35.2439 1.43556 33.7929 0 32.0095 0H3.83447C2.05107 0 0.600098 1.43556 0.600098 3.2V4.26667H35.2439V3.2Z" fill="#F96363"/>
<path d="M30.8907 24.5332H26.6597C26.861 28.8388 28.1971 31.9999 28.7752 31.9999C29.3533 31.9999 30.6894 28.8388 30.8907 24.5332Z" fill="#F96363"/>
<path d="M31.636 15.4517C32.4715 17.33 32.9522 19.9389 33.0611 22.4003H37.4C36.987 19.1611 34.6561 16.508 31.636 15.4517Z" fill="#F96363"/>
<path d="M28.7752 14.9331C28.1971 14.9331 26.861 18.0942 26.6597 22.3998H30.8907C30.6894 18.0942 29.3533 14.9331 28.7752 14.9331Z" fill="#F96363"/>
<path d="M31.636 31.4818C34.6561 30.4254 36.987 27.7724 37.4 24.5332H33.0611C32.9522 26.9946 32.4715 29.6035 31.636 31.4818Z" fill="#F96363"/>
<path d="M25.9142 15.4517C22.894 16.508 20.6718 19.1611 20.2588 22.4003H24.489C24.598 19.9389 25.0786 17.33 25.9142 15.4517Z" fill="#F96363"/>
<path d="M25.9142 31.4818C25.0786 29.6035 24.598 26.9946 24.489 24.5332H20.2588C20.6718 27.7724 22.894 30.4254 25.9142 31.4818Z" fill="#F96363"/>
<path d="M7.06885 10.6665H11.3813V12.7998H7.06885V10.6665Z" fill="#F96363"/>
<path d="M3.83447 25.5999H18.2117C18.0697 24.9105 17.9938 24.1971 17.9938 23.4666C17.9938 17.5855 22.8308 12.7999 28.7751 12.7999C31.2116 12.7999 33.4363 13.6341 35.2439 14.9877V6.3999H0.600098V22.3999C0.600098 24.1643 2.05107 25.5999 3.83447 25.5999ZM14.6157 20.2666C14.6157 20.856 14.1334 21.3332 13.5376 21.3332H11.3813C10.7856 21.3332 10.3032 20.856 10.3032 20.2666C10.3032 19.6771 10.7856 19.1999 11.3813 19.1999H13.5376C14.1334 19.1999 14.6157 19.6771 14.6157 20.2666ZM4.9126 9.5999C4.9126 9.01046 5.39495 8.53324 5.99072 8.53324H12.4595C13.0552 8.53324 13.5376 9.01046 13.5376 9.5999V13.8666C13.5376 14.456 13.0552 14.9332 12.4595 14.9332H5.99072C5.39495 14.9332 4.9126 14.456 4.9126 13.8666V9.5999ZM4.9126 19.1999H7.06885C7.66462 19.1999 8.14697 19.6771 8.14697 20.2666C8.14697 20.856 7.66462 21.3332 7.06885 21.3332H4.9126C4.31682 21.3332 3.83447 20.856 3.83447 20.2666C3.83447 19.6771 4.31682 19.1999 4.9126 19.1999Z" fill="#F96363"/>
</svg>
