<svg width="32" height="26" viewBox="0 0 32 26" fill="none" xmlns="http://www.w3.org/2000/svg">
<path d="M12.6669 8.3335H19.3335V11.0002L16.0002 12.3335L12.6669 11.0002V8.3335Z" fill="white"/>
<path d="M12.6666 1.66663L16 1L18.6666 1.66663L20 5H12L12.6666 1.66663Z" fill="white"/>
<path d="M12 17H20V21L16 25L12 21V17Z" fill="white"/>
<path d="M17.9693 7.2208C18.2282 7.2208 18.4381 7.01097 18.4381 6.752V6.612C18.4381 6.35314 18.2282 6.14331 17.9693 6.14331C17.7104 6.14331 17.5006 6.35314 17.5006 6.612V6.752C17.5006 7.01097 17.7104 7.2208 17.9693 7.2208Z" fill="#4EB2F9" stroke="#4EB2F9" stroke-width="0.3"/>
<path d="M30.0641 11.8551C30.4795 11.2421 30.7226 10.503 30.7226 9.70812C30.7226 7.57429 28.9715 5.84194 26.8319 5.87451C24.8121 5.90526 23.1435 7.53063 23.0614 9.54892C23.0267 10.4001 23.2713 11.1938 23.7107 11.8457C23.1909 12.1463 22.6543 12.6065 22.1845 13.4266C21.2157 12.9847 20.0744 12.7443 19.1024 12.5397C18.8706 12.491 18.647 12.4438 18.4379 12.3966V12.0013C19.4737 11.3797 20.2361 10.448 20.2361 9.57177C20.2361 9.4688 20.2272 9.37577 20.2109 9.29132C20.2533 9.19486 20.2923 9.0984 20.3281 9.00206C21.3469 8.89634 22.0786 8.32274 22.0786 7.58674L22.0822 6.54846C22.0822 6.02514 21.6646 5.61532 21.1315 5.61532H20.6105L20.6118 4.50046C20.6136 3.23292 20.1091 2.16343 19.153 1.40754C18.3275 0.754972 17.2187 0.388229 16.0309 0.375086C16.0274 0.374971 16.0239 0.374971 16.0205 0.375086C14.8326 0.388229 13.7238 0.754972 12.8983 1.40754C11.9422 2.16343 11.4377 3.23291 11.4395 4.49977V5.61532H10.9179C10.3849 5.61532 9.96731 6.02526 9.96731 6.55006L9.97086 7.58663C9.97314 8.32274 10.7048 8.89543 11.7213 9.00171C11.7571 9.0984 11.7963 9.1952 11.839 9.292C11.8225 9.37646 11.8134 9.46891 11.8134 9.57177C11.8134 10.4479 12.5758 11.3792 13.6117 12.0008V12.3967C13.4025 12.4439 13.179 12.491 12.9472 12.5398C11.9621 12.7472 10.803 12.9913 9.82583 13.4448C9.3528 12.6135 8.81212 12.1496 8.2888 11.8465C8.72857 11.1943 8.97349 10.4001 8.93863 9.54834C8.85612 7.52949 7.1864 5.90411 5.16606 5.87451C3.02629 5.84297 1.27566 7.57497 1.27566 9.70812C1.27566 10.5032 1.51897 11.2425 1.93497 11.8557C0.743086 12.5905 0 13.8928 0 15.317V17.4241C0 18.2086 0.635885 18.8446 1.42034 18.8446H5.63646C5.89314 18.8446 6.11703 18.6467 6.12469 18.3903C6.13269 18.1248 5.91977 17.9071 5.65612 17.9071H1.42011C1.1536 17.9071 0.937486 17.691 0.937486 17.4245V15.317C0.937486 14.1675 1.56766 13.1214 2.5656 12.5735C2.75303 12.7401 2.9568 12.8883 3.17429 13.0161L4.75234 16.3505C4.82994 16.5144 4.99497 16.6187 5.17612 16.6187H5.17794C5.35943 16.6187 5.52434 16.5134 5.60057 16.3488L7.18423 12.929C7.3512 12.821 7.50949 12.7007 7.65726 12.5688C8.10217 12.7937 8.57806 13.1445 9.012 13.9095C8.3472 14.3806 7.86377 15.0159 7.74023 15.9022L7.06583 20.1425C7.06194 20.1667 7.06 20.1912 7.06 20.2158V22.3439C7.06 23.0257 7.61372 23.5801 8.2944 23.5801H12.0075C12.4701 23.5801 12.895 23.4151 13.2263 23.1401L15.4263 25.3207C15.5806 25.4751 15.7855 25.6187 16.0117 25.6249C16.2403 25.6312 16.4725 25.4817 16.625 25.3207L18.7838 23.1801C19.1075 23.4307 19.5131 23.5801 19.9537 23.5801H23.665C24.3463 23.5801 24.9013 23.0257 24.9013 22.3439V20.2158C24.9013 20.2117 24.899 20.1686 24.8966 20.1513L24.3102 15.9072C24.1856 15.0024 23.6864 14.3589 23.0022 13.8845C23.4314 13.1365 23.9018 12.7904 24.3419 12.5681C24.4901 12.7003 24.6486 12.8208 24.8158 12.929L26.3995 16.3488C26.4758 16.5134 26.6407 16.6187 26.8221 16.6187H26.824C27.0051 16.6187 27.1702 16.5144 27.2477 16.3505L28.8262 13.0154C29.0432 12.8878 29.2466 12.7395 29.4337 12.5731C30.4321 13.1209 31.0625 14.1672 31.0625 15.317V17.4241C31.0625 17.6904 30.8451 17.9071 30.5782 17.9071H26.3617C26.105 17.9071 25.8813 18.1048 25.8736 18.3614C25.8656 18.6267 26.0784 18.8446 26.3422 18.8446H30.5782C31.3622 18.8446 32 18.2073 32 17.4241V15.317C32 13.8923 31.2565 12.5898 30.0641 11.8551ZM20.6101 7.50709V6.5528H21.1317C21.1374 6.5528 21.1417 6.55372 21.1447 6.55463L21.1411 7.58503C21.1411 7.71897 20.9297 7.89886 20.5782 8.00137C20.5992 7.83554 20.6101 7.67063 20.6101 7.50709ZM10.9083 7.58343L10.9049 6.55463C10.9078 6.55372 10.9122 6.5528 10.9179 6.5528H11.4395V7.50709C11.4395 7.6704 11.4503 7.83509 11.4712 8.00069C11.1203 7.89772 10.9088 7.7176 10.9083 7.58343ZM5.17143 15.0445L4.43154 13.4811C4.65154 13.5206 4.8776 13.5423 5.10869 13.5423C5.38206 13.5423 5.64857 13.5129 5.90606 13.4583L5.17143 15.0445ZM7.99246 9.97326C7.86892 11.356 6.75577 12.4697 5.37303 12.5929C3.5688 12.7538 2.06366 11.2479 2.22503 9.44297C2.34857 8.06023 3.46171 6.94652 4.84446 6.8232C6.64857 6.6624 8.15383 8.16834 7.99246 9.97326ZM12.3771 4.49897C12.3739 2.33966 14.2651 1.33394 16.0257 1.31246C17.7862 1.33394 19.6775 2.33966 19.6743 4.4992L19.6737 4.98857C18.7831 4.39269 17.4745 4.03806 16.0341 4.03806C16.0283 4.03806 16.0229 4.03806 16.0173 4.03806C14.5766 4.03806 13.2678 4.39246 12.377 4.98789L12.3771 4.49897ZM12.5407 8.5008C12.5315 8.472 12.5231 8.44309 12.5143 8.41429C12.4238 8.10503 12.3771 7.8016 12.3771 7.50709V6.23417C12.9645 5.47532 14.4017 4.97394 16.0253 4.97554C16.0281 4.97543 16.0311 4.97554 16.0341 4.97554C17.6515 4.97554 19.0861 5.47657 19.6725 6.23417V7.50709C19.6725 7.82892 19.617 8.16149 19.509 8.50057C19.3632 8.43532 19.2123 8.38172 19.0629 8.3256C17.7709 7.83269 16.8914 7.63029 16.0277 7.62663C16.0263 7.62663 16.025 7.62663 16.0238 7.62663C15.1587 7.63029 14.2789 7.83269 12.9879 8.32514C12.8381 8.38137 12.6869 8.43532 12.5407 8.5008ZM12.751 9.57166C12.751 9.57063 12.751 9.56972 12.751 9.56869C12.7512 9.48549 12.7997 9.41006 12.8742 9.37314C13.0403 9.29051 13.3209 9.2016 13.3209 9.2016C14.4987 8.75234 15.2825 8.56766 16.0257 8.56423C16.7678 8.56766 17.5511 8.75234 18.7299 9.20194C18.8709 9.25497 19.0158 9.30377 19.1471 9.37829C19.223 9.42137 19.2987 9.47657 19.2987 9.57166C19.2987 10.3769 17.6819 11.7747 16.0257 11.7878C14.3686 11.7747 12.751 10.3769 12.751 9.57166ZM17.5005 12.4472V12.767C17.5005 13.1831 17.3613 13.5093 17.0869 13.7365C16.8346 13.9451 16.4805 14.0601 16.0896 14.0601C15.4704 14.0601 14.5491 13.7158 14.5491 12.767V12.4469C15.0286 12.62 15.5314 12.7219 16.0225 12.7253H16.0257C16.0257 12.7253 16.0278 12.7253 16.0289 12.7253C16.5194 12.7219 17.0215 12.6201 17.5005 12.4472ZM13.1403 13.457C13.3278 13.4176 13.5101 13.3792 13.6853 13.3407C13.972 14.4208 15.0583 14.9976 16.0897 14.9976C16.6983 14.9976 17.2647 14.8063 17.6846 14.4586C18.0351 14.1686 18.2673 13.7887 18.3727 13.3424C18.5454 13.3803 18.7248 13.4182 18.9093 13.457C19.0426 13.485 19.1784 13.5137 19.3154 13.5431L16.9176 16.7387C16.5921 16.8939 16.2885 17.0959 16.025 17.3325C15.7613 17.0959 15.4576 16.8939 15.1321 16.7387L12.7343 13.5432C12.8712 13.5137 13.007 13.4851 13.1403 13.457ZM8.66674 16.0447C8.6672 16.0414 8.66777 16.0383 8.66823 16.035C8.84457 14.7541 10.2451 14.161 11.7365 13.7754L13.7074 16.4021C13.0485 16.4039 12.3969 16.6351 11.867 17.1837C11.1907 17.8849 10.8875 18.8287 10.9576 19.7467H8.07806L8.66674 16.0447ZM12.5544 22.4743C12.3982 22.5806 12.2101 22.6424 12.0075 22.6424H8.2944C8.13063 22.6424 7.99749 22.5087 7.99749 22.3437V20.6843H12.0075C12.0769 20.6843 12.1443 20.6918 12.2094 20.7055C12.6238 20.793 12.9425 21.1443 12.9806 21.5761C12.9831 21.6049 12.9843 21.6337 12.9843 21.6631C12.9843 22.0006 12.8137 22.2981 12.5544 22.4743ZM18.0376 21.6416C18.0345 21.9245 18.0929 22.1944 18.2006 22.4374L16.0256 24.595L13.785 22.3743C13.8731 22.1543 13.9218 21.9143 13.9218 21.6631C13.9218 20.6062 13.0631 19.7467 12.0075 19.7467H11.8957C11.8231 19.0656 12.0387 18.3568 12.5413 17.835C13.3406 17.0074 14.6131 17.3211 15.4063 18.0374C15.46 18.0849 15.5025 18.1262 15.5382 18.1593C15.6688 18.2831 15.8031 18.4105 16.0256 18.4105C16.2469 18.4105 16.38 18.2837 16.5094 18.1611C16.545 18.1274 16.5888 18.0862 16.6443 18.0361C17.4369 17.3211 18.7094 17.0074 19.5081 17.8343C20.0112 18.3561 20.2269 19.0649 20.1544 19.7467H19.9933C18.9367 19.7467 18.0491 20.5851 18.0376 21.6416ZM23.9638 22.3437C23.9638 22.508 23.8293 22.6424 23.665 22.6424H19.9537C19.7737 22.6424 19.6056 22.5937 19.4606 22.5087C19.1719 22.3399 18.9775 22.0267 18.975 21.6693V21.6631C18.975 21.1581 19.3582 20.7418 19.8494 20.6899C19.8838 20.6862 19.9187 20.6843 19.9537 20.6843H23.9638V22.3437ZM23.3815 16.0352L23.8943 19.7469H21.0925C21.1618 18.8287 20.8587 17.885 20.1825 17.1838C19.6527 16.635 19.0011 16.4039 18.3423 16.4021L20.3131 13.7755C21.8045 14.161 23.205 14.7541 23.3815 16.0352ZM26.8286 15.0445L26.0941 13.4583C26.3513 13.5129 26.6179 13.5423 26.8913 13.5423C27.1225 13.5423 27.3486 13.5205 27.5686 13.481L26.8286 15.0445ZM26.8912 12.6047C25.2215 12.6047 23.8773 11.1835 24.0039 9.48686C24.1096 8.0712 25.2512 6.92743 26.6667 6.82C28.3634 6.69132 29.7851 8.03669 29.7851 9.70812C29.7851 11.3054 28.487 12.6047 26.8912 12.6047Z" fill="#4EB2F9" stroke="#4EB2F9" stroke-width="0.3"/>
<path d="M14.0803 7.2208C14.3392 7.2208 14.5491 7.01097 14.5491 6.752V6.612C14.5491 6.35314 14.3392 6.14331 14.0803 6.14331C13.8215 6.14331 13.6117 6.35314 13.6117 6.612V6.752C13.6117 7.01097 13.8215 7.2208 14.0803 7.2208Z" fill="#4EB2F9" stroke="#4EB2F9" stroke-width="0.3"/>
</svg>
