<svg width="28" height="32" viewBox="0 0 28 32" fill="none" xmlns="http://www.w3.org/2000/svg">
<path d="M13.9997 18.1378C18.1341 18.1378 21.4853 11.8157 21.4853 7.6115C21.4853 3.40803 18.1341 0 13.9997 0C9.86589 0 6.51465 3.40803 6.51465 7.6115C6.51465 11.8157 9.86589 18.1378 13.9997 18.1378Z" fill="#F96363"/>
<path d="M22.5847 19.0365C22.8728 19.7128 23.0404 20.5405 23.0774 21.4975C24.0498 21.724 24.7774 22.6085 24.7774 23.6647C24.7774 24.8915 23.796 25.8895 22.5897 25.8895C21.3834 25.8895 20.402 24.8915 20.402 23.6647C20.402 22.6205 21.1138 21.7453 22.069 21.506C22.027 20.5555 21.8035 19.1094 20.8887 18.3954C20.4219 18.2726 19.9419 18.1836 19.4495 18.1377C19.4131 19.8029 14.0011 23.9122 14.0011 23.9122C14.0011 23.9122 8.58733 19.8035 8.55065 18.1384C8.00372 18.189 7.4716 18.2907 6.95766 18.4372C6.29023 18.9746 5.94491 19.9757 5.92707 21.4311C6.1233 21.5457 6.28182 21.7247 6.37909 21.9414C7.09801 22.2867 7.73312 23.0131 8.21946 24.0471C8.30091 24.2209 8.31168 24.4174 8.25177 24.5968C8.54324 25.3597 8.70985 26.1935 8.70985 26.8938C8.70985 27.8751 8.70985 28.803 7.65806 29.0412C7.5443 29.1374 7.40159 29.1904 7.25182 29.1904H6.54906C6.19667 29.1904 5.90991 28.8981 5.90991 28.5408L5.91058 28.5155C5.92405 28.1698 6.20845 27.8908 6.54906 27.8908H7.25182C7.32385 27.8908 7.39419 27.9031 7.46218 27.9271C7.50458 27.9151 7.51805 27.9052 7.51838 27.9048C7.59647 27.7638 7.59647 27.1765 7.59647 26.8944C7.59647 26.3256 7.45645 25.6386 7.21109 25.0003C7.08387 24.9267 6.98088 24.8155 6.9176 24.681C6.4915 23.7736 5.91193 23.1876 5.4414 23.1876C4.96011 23.1876 4.35158 23.8215 3.92717 24.7634C3.85783 24.9171 3.73633 25.0421 3.5869 25.117C3.36509 25.7276 3.24326 26.3564 3.24326 26.8941C3.24326 27.131 3.24326 27.7594 3.33211 27.9072C3.33312 27.9072 3.35298 27.9196 3.40885 27.9336C3.48155 27.9052 3.55963 27.8905 3.63772 27.8905H4.34182C4.66998 27.8905 4.94429 28.1444 4.97727 28.4747L4.98064 28.5148C4.98064 28.8985 4.69388 29.1908 4.34182 29.1908H3.63772C3.49804 29.1908 3.36308 29.1432 3.25201 29.0569C2.8498 28.9799 2.56641 28.7995 2.38702 28.5059C2.16959 28.1509 2.12988 27.6848 2.12988 26.8941C2.12988 26.2007 2.28739 25.4018 2.57348 24.6389C2.53141 24.4756 2.54554 24.3051 2.61555 24.1515C2.91342 23.4888 3.2924 22.9213 3.71109 22.5109C3.9413 22.2854 4.18868 22.104 4.44751 21.9715C4.54444 21.7408 4.71273 21.5515 4.91837 21.4321C4.92914 20.5199 5.06714 19.7324 5.32226 19.0831C2.40149 20.5897 0.399902 23.6712 0.399902 27.2299C0.399902 31.7773 3.667 31.9998 7.94381 31.9998C8.41063 31.9998 8.88856 31.9971 9.37693 31.9971H18.6215C19.1092 31.9971 19.5872 31.9998 20.054 31.9998C24.3315 31.9998 27.5999 31.7773 27.5999 27.2299C27.5996 23.6336 25.5552 20.5251 22.5847 19.0365Z" fill="#F96363"/>
<path d="M23.2998 26.107C23.9036 26.107 24.393 25.5962 24.393 24.9661C24.393 24.336 23.9036 23.8252 23.2998 23.8252C22.696 23.8252 22.2065 24.336 22.2065 24.9661C22.2065 25.5962 22.696 26.107 23.2998 26.107Z" fill="#F96363"/>
</svg>
