<svg width="38" height="40" viewBox="0 0 38 40" fill="none" xmlns="http://www.w3.org/2000/svg">
<path d="M24.1459 5.86406C24.331 5.04512 24.331 4.19519 24.1459 3.37625H31.4514V5.86406H24.1459ZM7.61056 6.91899H13.4192C13.8644 7.92371 14.5918 8.77757 15.5129 9.37691C16.4341 9.97624 17.5094 10.2953 18.6084 10.2953C19.7074 10.2953 20.7827 9.97624 21.7039 9.37691C22.625 8.77757 23.3524 7.92371 23.7977 6.91899H29.6083V17.9873C28.4421 18.2561 27.379 18.8578 26.5481 19.7192C25.6939 20.6012 25.1003 21.7437 24.9978 22.9692C24.9679 22.9181 24.938 22.8646 24.906 22.813V21.3828C24.9057 21.0162 24.8634 20.6508 24.7799 20.2938C24.571 19.3872 24.0825 18.5692 23.3834 17.9554C22.6571 17.3208 21.7254 16.971 20.761 16.971C20.4557 16.9713 20.1513 17.005 19.8534 17.0714C19.8468 17.071 19.8403 17.0696 19.8342 17.0671C19.7077 17.026 19.5855 16.9731 19.469 16.9091C18.7662 16.5486 17.9888 16.3577 17.199 16.3517C16.2692 16.3535 15.3606 16.6299 14.5873 17.1462C13.8911 17.613 13.3199 18.2432 12.9235 18.9818C12.5271 19.7203 12.3175 20.5446 12.3131 21.3828V22.8242C12.2897 22.8627 12.2663 22.899 12.2448 22.9374C12.1304 23.1387 12.0407 23.3531 11.9778 23.5759C11.9756 23.5726 11.9727 23.5697 11.9693 23.5673V22.6833C11.967 21.9211 11.6683 21.1897 11.1364 20.6438C11.3564 19.9477 11.0938 19.2644 10.4788 18.8479C9.96619 18.502 8.94971 18.4187 8.34322 18.3952C8.09978 18.3845 7.85635 18.3802 7.61072 18.3845L7.61056 6.91899ZM24.8762 14.3228H27.1312V12.0655H24.8762V14.3228ZM19.9453 14.3228H22.2025V12.0655H19.9453L19.9453 14.3228ZM15.0166 14.3228H17.2717V12.0655H15.0168L15.0166 14.3228ZM10.0857 14.3228H12.3429V12.0655H10.0858L10.0857 14.3228ZM13.9895 4.62125C13.9893 3.70738 14.2601 2.81397 14.7677 2.05402C15.2752 1.29407 15.9968 0.701724 16.8411 0.3519C17.6853 0.00207555 18.6144 -0.0895111 19.5107 0.0887238C20.407 0.266959 21.2304 0.707008 21.8766 1.35321C22.5228 1.99942 22.9628 2.82275 23.1411 3.71908C23.3193 4.6154 23.2277 5.54445 22.8779 6.38872C22.5281 7.23299 21.9357 7.95455 21.1758 8.46213C20.4158 8.96972 19.5224 9.24053 18.6085 9.24031C17.3843 9.23759 16.211 8.75007 15.3454 7.88441C14.4797 7.01876 13.9922 5.84547 13.9895 4.62125ZM15.873 5.7125H17.5173V7.3568H19.6998V5.7125H21.3463V3.53H19.6998V1.88352H17.5173V3.53H15.873V5.7125ZM12.9345 4.62125C12.9341 4.20247 12.9801 3.78493 13.0715 3.37625H5.76564V5.86406H13.0715C12.9802 5.45611 12.9342 5.03931 12.9345 4.62125ZM9.2572 34.405C9.22812 34.4338 9.20504 34.468 9.18928 34.5058C9.17353 34.5435 9.16542 34.5841 9.16542 34.625C9.16542 34.6659 9.17353 34.7064 9.18928 34.7441C9.20504 34.7819 9.22812 34.8162 9.2572 34.8449C9.28598 34.874 9.32023 34.8971 9.35798 34.9128C9.39573 34.9286 9.43622 34.9367 9.47713 34.9367C9.53879 34.9369 9.5991 34.9187 9.65041 34.8844C9.70171 34.8502 9.74168 34.8015 9.76526 34.7446C9.78884 34.6876 9.79495 34.6249 9.78282 34.5644C9.77068 34.504 9.74086 34.4485 9.69713 34.405C9.66851 34.3757 9.63428 34.3525 9.59648 34.3367C9.55868 34.3209 9.51808 34.3129 9.47713 34.3132C9.43615 34.3127 9.39551 34.3206 9.3577 34.3364C9.31988 34.3522 9.28569 34.3755 9.2572 34.405ZM37.2215 37.2602C37.2212 37.4 37.1656 37.534 37.0667 37.6328C36.9679 37.7317 36.8339 37.7873 36.6941 37.7877H27.2488C27.2121 37.2524 27.1602 36.6967 27.0838 36.1445C27.1866 36.134 27.284 36.0933 27.3637 36.0276C27.4435 35.962 27.5022 35.8742 27.5323 35.7754C27.5625 35.6765 27.5628 35.571 27.5332 35.472C27.5037 35.3729 27.4456 35.2848 27.3662 35.2187L27.2467 35.1183L27.4004 34.089C27.4091 34.0178 27.4451 33.9527 27.5007 33.9074C27.5645 33.8616 27.641 33.837 27.7195 33.837C27.798 33.837 27.8745 33.8616 27.9382 33.9074C27.9935 33.953 28.0294 34.0179 28.0387 34.089L28.1924 35.1183L28.0707 35.2187C27.9637 35.3084 27.8967 35.4371 27.8845 35.5762C27.8723 35.7154 27.9158 35.8537 28.0056 35.9607C28.0954 36.0678 28.224 36.1348 28.3632 36.147C28.5023 36.1592 28.6406 36.1156 28.7477 36.0259L28.9441 35.8618C29.0544 35.7699 29.1408 35.6527 29.1961 35.5202C29.2538 35.3812 29.273 35.2292 29.2516 35.0802L29.0831 33.9375C29.0342 33.6104 28.867 33.3126 28.6133 33.1004C28.5042 33.0069 28.3801 32.9325 28.2461 32.8804V30.5313C27.8959 30.5825 27.5456 30.6444 27.1933 30.717V32.8802C27.0597 32.9344 26.9352 33.0086 26.8238 33.1002C26.6717 33.2275 26.5499 33.3871 26.4674 33.5674C26.3575 33.2774 26.2254 32.9962 26.0722 32.7265C25.8911 32.4079 25.674 32.1113 25.4251 31.8424C25.6957 31.4514 26.0485 31.1242 26.4587 30.8836C26.1411 30.6775 25.8875 30.3868 25.7263 30.0443C25.5308 29.6258 25.4878 29.1522 25.6045 28.7054C25.7561 28.1224 25.8779 27.5882 25.9697 27.0845C26.0423 26.6723 26.0956 26.2773 26.1277 25.8844C25.9545 25.691 25.8288 25.46 25.7605 25.2096C25.641 24.7777 25.6979 24.3161 25.9185 23.9261C25.9606 23.8543 26.0069 23.7852 26.0573 23.719C26.0445 23.5909 26.036 23.467 26.036 23.3453C26.036 22.2818 26.5335 21.2525 27.3066 20.4538C28.0644 19.668 29.1004 19.1023 30.198 18.9505C30.5889 18.8935 30.9859 18.8935 31.3768 18.9505C32.4724 19.102 33.5081 19.668 34.2683 20.4538C35.0417 21.2525 35.5368 22.282 35.5368 23.3453C35.537 23.468 35.5298 23.5906 35.5154 23.7125C35.7238 23.9762 35.849 24.296 35.8749 24.6311C35.9007 24.9662 35.8261 25.3014 35.6606 25.5939C35.5998 25.6999 35.5283 25.7994 35.4471 25.8908C35.477 26.2795 35.5325 26.6766 35.6051 27.0866C35.697 27.5906 35.8187 28.1224 35.9681 28.7054C36.0856 29.152 36.0433 29.6256 35.8486 30.0443C35.6873 30.3868 35.4336 30.6775 35.1161 30.8836C36.3888 31.6695 37.07 32.8824 37.2177 37.1961C37.2194 37.2175 37.2215 37.2388 37.2215 37.2602ZM27.1356 24.1742C27.081 24.1985 27.03 24.2301 26.9839 24.268C26.9707 24.2812 26.9564 24.2933 26.9413 24.3043C26.8609 24.3847 26.803 24.4848 26.7734 24.5946C26.7438 24.7044 26.7435 24.8201 26.7725 24.93C26.8086 25.0571 26.8823 25.1702 26.9839 25.2546C26.9909 25.2589 26.9974 25.2639 27.0032 25.2695C27.0203 25.2823 27.0395 25.293 27.0566 25.3058V25.2311C27.0631 24.8775 27.0895 24.5245 27.1356 24.1738V24.1742ZM34.4368 24.1721C34.4851 24.5232 34.5115 24.877 34.5158 25.2313V25.3082C34.6116 25.2527 34.6906 25.1722 34.7444 25.0754C34.8284 24.9285 34.8507 24.7543 34.8063 24.591C34.7749 24.4814 34.7152 24.382 34.6333 24.3027C34.6205 24.2921 34.6056 24.2793 34.5928 24.2665C34.5657 24.2436 34.5363 24.2236 34.5052 24.2066C34.4831 24.1938 34.4602 24.1822 34.4368 24.1719V24.1721ZM31.6027 29.9931C31.3439 30.0836 31.0723 30.1326 30.7981 30.1383H30.7831C30.5079 30.1348 30.2351 30.0857 29.9759 29.9931V30.3967C29.978 30.6111 30.0646 30.816 30.217 30.9669C30.3693 31.1178 30.5751 31.2024 30.7895 31.2024C31.0039 31.2024 31.2097 31.1178 31.362 30.9669C31.5144 30.816 31.601 30.6111 31.6031 30.3967L31.6027 29.9931ZM32.2413 28.353C32.7687 27.8341 33.1702 27.1465 33.3111 26.5272C33.4156 26.106 33.4673 25.6734 33.4649 25.2395C33.4543 24.7456 33.4028 24.2534 33.3111 23.768C33.3072 23.7533 33.3044 23.7383 33.3026 23.7232C33.2876 23.6314 33.2685 23.5375 33.2492 23.4392C32.6411 23.5042 32.0265 23.4688 31.4298 23.3346C30.8515 23.2019 30.3129 22.9341 29.858 22.5534C29.6557 22.7433 29.4269 22.903 29.1789 23.0275C28.9148 23.1523 28.6366 23.2448 28.3503 23.303C28.1774 24.155 28.1112 24.7615 28.107 25.2398C28.1051 25.6739 28.1575 26.1065 28.2628 26.5276C28.4017 27.1469 28.8031 27.8345 29.3327 28.3534L29.3583 28.3791C29.4701 28.4868 29.5893 28.5867 29.7149 28.6781C29.7397 28.6932 29.7632 28.7103 29.7853 28.7292C30.1078 28.947 30.4515 29.0838 30.7868 29.088C31.1263 29.0838 31.4743 28.9428 31.8012 28.7165C31.8174 28.7039 31.8345 28.6924 31.8524 28.6823C31.9891 28.5811 32.1191 28.4711 32.2416 28.353H32.2413ZM35.1988 34.0975C35.1992 33.918 35.1639 33.7403 35.095 33.5746C35.0261 33.4089 34.9249 33.2586 34.7974 33.1323C34.6727 33.0058 34.524 32.9056 34.3599 32.8376V30.7084C34.0098 30.6338 33.6574 30.5718 33.3053 30.5209V32.838C33.1412 32.906 32.9925 33.0062 32.8678 33.1327C32.7094 33.2915 32.5926 33.487 32.5278 33.7018C32.463 33.9165 32.4521 34.1439 32.496 34.3639C32.54 34.5839 32.6375 34.7896 32.7799 34.9629C32.9223 35.1362 33.1053 35.2718 33.3126 35.3576C33.5198 35.4434 33.745 35.4768 33.9683 35.4548C34.1915 35.4328 34.4059 35.3562 34.5925 35.2317C34.7791 35.1071 34.9321 34.9385 35.038 34.7408C35.1439 34.543 35.1994 34.3222 35.1997 34.0979L35.1988 34.0975ZM9.47713 35.9917C9.72721 35.9919 9.97251 35.9231 10.1861 35.793C10.0603 36.6289 9.97772 37.4707 9.93869 38.3151H0.525173V38.313H0.508064C0.368891 38.3081 0.237318 38.2483 0.142144 38.1466C0.046971 38.045 -0.00404939 37.9097 0.000251427 37.7705C0.168923 32.6475 1.08291 31.8659 2.83619 31.0159V33.4077C2.70355 33.4624 2.5798 33.5366 2.469 33.6277C2.21562 33.8399 2.04912 34.1379 2.00119 34.4648L1.83252 35.6073C1.81109 35.7562 1.83026 35.9082 1.88799 36.0472C1.94323 36.1797 2.02966 36.297 2.13994 36.3889L2.33642 36.553C2.44352 36.6421 2.58158 36.685 2.72032 36.6725C2.85905 36.6599 2.98714 36.5928 3.07649 36.4859C3.16584 36.3791 3.20915 36.2411 3.19692 36.1023C3.18469 35.9636 3.11793 35.8353 3.01127 35.7457L2.89166 35.6453L3.0433 34.616C3.05386 34.5454 3.0895 34.481 3.14369 34.4345C3.20682 34.3867 3.28443 34.3619 3.36361 34.3642C3.44292 34.3612 3.52078 34.386 3.58361 34.4345C3.63881 34.4802 3.67465 34.545 3.68392 34.616L3.83556 35.6453L3.71595 35.7457C3.61053 35.836 3.54499 35.9642 3.53356 36.1025C3.52213 36.2408 3.56574 36.378 3.65491 36.4844C3.74409 36.5907 3.87162 36.6576 4.0098 36.6704C4.14799 36.6833 4.28566 36.641 4.39291 36.553L4.58939 36.3889C4.69959 36.2968 4.78592 36.1795 4.84103 36.0469C4.89876 35.9079 4.91793 35.7559 4.8965 35.607L4.72564 34.4648C4.67843 34.1377 4.51189 33.8395 4.25806 33.6277C4.14842 33.535 4.0244 33.4606 3.89088 33.4077V30.5098C3.97416 30.4693 4.06385 30.4223 4.16205 30.3711C4.29447 30.2984 4.429 30.2237 4.56564 30.1445V29.9227C4.45246 29.8323 4.34414 29.7361 4.24111 29.6343V29.6322C3.57478 28.9809 3.06447 28.0946 2.8808 27.2853C2.85736 27.1785 2.83392 27.0717 2.81244 26.9628C2.79752 26.9607 2.78041 26.9585 2.7633 26.9564C2.44316 26.9049 2.14458 26.7625 1.90316 26.546C1.66174 26.3295 1.48767 26.0482 1.40169 25.7356C1.31572 25.4229 1.32147 25.0921 1.41826 24.7827C1.51505 24.4732 1.6988 24.1981 1.9476 23.9902V22.6833C1.9476 20.74 3.8183 19.8986 5.75939 19.589C6.60011 19.4617 7.451 19.4145 8.30064 19.448C9.08869 19.48 9.70791 19.5996 9.88736 19.7234C10.1393 19.8922 10.2184 20.11 10.1116 20.3769C10.1068 20.3922 10.1011 20.4072 10.0945 20.4218C10.0624 20.488 10.0242 20.5648 9.97916 20.6484C9.92369 20.7552 9.85955 20.8769 9.81509 20.9858C10.1053 21.1169 10.3574 21.3198 10.5476 21.5752C10.787 21.8952 10.9166 22.2839 10.917 22.6835V23.9904C11.2204 24.2445 11.425 24.597 11.4953 24.9864C11.5655 25.3758 11.4969 25.7776 11.3014 26.1216C11.1268 26.4312 10.8583 26.6772 10.5348 26.8242C10.3813 26.8949 10.218 26.9417 10.0504 26.9631C10.0291 27.072 10.0078 27.1788 9.98205 27.2855C9.80056 28.082 9.3051 28.9533 8.65166 29.6047C8.64187 29.6141 8.63262 29.6241 8.62392 29.6345C8.52135 29.7349 8.41252 29.831 8.30361 29.9186V30.1491C8.52783 30.282 8.74345 30.397 8.95064 30.4995V33.3652C8.78587 33.4332 8.63631 33.5334 8.51072 33.6599C8.31994 33.8512 8.19012 34.0947 8.13766 34.3597C8.08519 34.6247 8.11243 34.8993 8.21594 35.1488C8.31944 35.3984 8.49458 35.6116 8.71921 35.7617C8.94385 35.9118 9.20792 35.9919 9.47806 35.992L9.47713 35.9917ZM10.0815 24.7013C10.1297 25.0517 10.1561 25.4047 10.1606 25.7584V25.8352C10.2546 25.7787 10.3324 25.699 10.3866 25.6036C10.4408 25.5082 10.4695 25.4005 10.4699 25.2908C10.4703 25.1812 10.4425 25.0732 10.389 24.9774C10.3356 24.8817 10.2583 24.8013 10.1648 24.7441C10.1456 24.7334 10.1263 24.7248 10.1092 24.7141C10.1007 24.7098 10.0922 24.7055 10.0815 24.7013ZM2.78025 24.7013C2.77166 24.7055 2.76314 24.7077 2.75463 24.712C2.73634 24.7242 2.71705 24.735 2.69697 24.7441C2.60468 24.8 2.52823 24.8787 2.47486 24.9725C2.39298 25.1175 2.37085 25.2887 2.41315 25.4498C2.45545 25.6109 2.55886 25.7492 2.70142 25.8352V25.7584C2.70796 25.4048 2.73427 25.0519 2.78025 24.7013ZM7.24775 30.5205C6.98871 30.6111 6.71696 30.6601 6.4426 30.6657H6.42767C6.15265 30.6619 5.88007 30.6136 5.62049 30.5227V30.9241C5.62259 31.1386 5.70923 31.3435 5.86159 31.4943C6.01395 31.6452 6.2197 31.7298 6.43412 31.7298C6.64854 31.7298 6.85429 31.6452 7.00665 31.4943C7.159 31.3435 7.24565 31.1386 7.24775 30.9241V30.5205ZM7.91181 28.8548C8.4265 28.3423 8.81728 27.6654 8.95611 27.0546C9.06064 26.6334 9.11229 26.2009 9.10986 25.767C9.09253 25.1616 9.02033 24.559 8.89416 23.9667C8.28604 24.0317 7.67138 23.9963 7.0747 23.8621C6.49652 23.7293 5.95796 23.4616 5.50299 23.0809C5.30065 23.2708 5.07193 23.4304 4.82392 23.5549C4.5602 23.6807 4.28187 23.7732 3.99533 23.8304C3.82236 24.6825 3.75619 25.289 3.75189 25.7673C3.74953 26.2012 3.80118 26.6336 3.90564 27.0547C4.04869 27.6761 4.44806 28.3638 4.97556 28.8805H4.97775C5.1 29.0008 5.23135 29.1115 5.37064 29.2116C5.38789 29.2225 5.40431 29.2346 5.41978 29.2479C5.7465 29.4721 6.09252 29.6109 6.43205 29.6151C6.77158 29.6109 7.11955 29.4698 7.44642 29.2435C7.46228 29.2304 7.47946 29.219 7.49767 29.2094C7.63391 29.1088 7.76304 28.9989 7.88416 28.8805C7.89387 28.8725 7.90311 28.8639 7.91181 28.8548ZM11.5785 32.0923C11.1599 31.6054 10.6345 31.311 10.0046 31.0053V33.3647C10.1687 33.4327 10.3174 33.5329 10.4421 33.6594C10.5146 33.7306 10.5784 33.8102 10.6321 33.8964C10.7626 33.4933 10.9328 33.1041 11.1404 32.7348C11.2692 32.5093 11.4157 32.2945 11.5785 32.0923ZM33.8325 33.7857C33.7709 33.7856 33.7105 33.8038 33.6592 33.838C33.6079 33.8722 33.568 33.9209 33.5444 33.9779C33.5208 34.0348 33.5147 34.0975 33.5268 34.158C33.539 34.2185 33.5688 34.2739 33.6125 34.3174C33.6414 34.3463 33.6757 34.3692 33.7134 34.3849C33.7512 34.4005 33.7916 34.4085 33.8325 34.4085C33.8733 34.4086 33.9137 34.4005 33.9515 34.3849C33.9892 34.3693 34.0235 34.3463 34.0524 34.3175C34.0813 34.2886 34.1042 34.2543 34.1198 34.2166C34.1355 34.1788 34.1435 34.1384 34.1435 34.0975C34.1435 34.0567 34.1355 34.0162 34.1199 33.9785C34.1042 33.9408 34.0813 33.9065 34.0524 33.8776C34.0238 33.8483 33.9896 33.825 33.9518 33.8092C33.914 33.7935 33.8735 33.7855 33.8325 33.7857ZM21.9465 35.3084C21.9011 35.3534 21.8652 35.4069 21.8406 35.4659C21.816 35.5249 21.8034 35.5882 21.8034 35.6521C21.8034 35.716 21.816 35.7793 21.8406 35.8383C21.8652 35.8973 21.9011 35.9508 21.9465 35.9959C22.0145 36.0641 22.1013 36.1107 22.1958 36.1296C22.2903 36.1485 22.3883 36.139 22.4774 36.1022C22.5665 36.0653 22.6426 36.0029 22.6962 35.9228C22.7498 35.8427 22.7784 35.7485 22.7784 35.6521C22.7784 35.5557 22.7498 35.4615 22.6962 35.3814C22.6426 35.3013 22.5665 35.2389 22.4774 35.2021C22.3883 35.1653 22.2903 35.1557 22.1958 35.1746C22.1013 35.1936 22.0145 35.2401 21.9465 35.3084ZM26.2709 39.4106C26.2733 39.4312 26.2747 39.4519 26.2751 39.4726C26.2751 39.5419 26.2615 39.6105 26.235 39.6745C26.2085 39.7385 26.1696 39.7967 26.1206 39.8456C26.0716 39.8946 26.0135 39.9335 25.9494 39.96C25.8854 39.9864 25.8168 40 25.7475 40H11.4717V39.9979H11.4543C11.3854 39.9959 11.3176 39.9804 11.2547 39.9521C11.1918 39.9239 11.1352 39.8835 11.0879 39.8333C11.0407 39.7831 11.0039 39.7241 10.9795 39.6596C10.9552 39.5951 10.9438 39.5265 10.946 39.4576C11.1492 33.2732 12.253 32.3806 14.3757 31.3598V34.2578C14.1986 34.318 14.0344 34.4107 13.8913 34.5313C13.6063 34.7701 13.4187 35.1051 13.3638 35.473L13.1607 36.8547C13.1368 37.015 13.1567 37.1788 13.2184 37.3288C13.2788 37.4731 13.3733 37.6006 13.4938 37.7003L13.7309 37.8968C13.7839 37.9413 13.8451 37.9749 13.9111 37.9957C13.9771 38.0165 14.0465 38.0241 14.1155 38.0181C14.1844 38.012 14.2514 37.9924 14.3128 37.9603C14.3741 37.9283 14.4285 37.8845 14.4729 37.8314C14.5173 37.7783 14.5508 37.717 14.5714 37.651C14.5921 37.5849 14.5995 37.5154 14.5932 37.4465C14.587 37.3776 14.5672 37.3106 14.535 37.2494C14.5029 37.1881 14.4589 37.1338 14.4057 37.0895L14.2135 36.9294L14.4057 35.6268C14.4226 35.5146 14.4795 35.4122 14.5659 35.3385C14.6618 35.263 14.7813 35.2237 14.9033 35.2274C15.0241 35.2233 15.1423 35.2627 15.2364 35.3385C15.3244 35.4111 15.3823 35.5139 15.3988 35.6268L15.591 36.9294L15.3988 37.0895C15.345 37.1336 15.3004 37.1879 15.2678 37.2492C15.2351 37.3106 15.2149 37.3779 15.2083 37.4471C15.2018 37.5163 15.209 37.5861 15.2297 37.6525C15.2503 37.7189 15.2838 37.7806 15.3284 37.834C15.373 37.8873 15.4278 37.9313 15.4895 37.9634C15.5511 37.9954 15.6186 38.0149 15.6879 38.0208C15.7572 38.0266 15.8269 38.0187 15.8931 37.9974C15.9593 37.9761 16.0206 37.9419 16.0735 37.8968L16.3106 37.7003C16.4318 37.6012 16.5264 37.4735 16.5861 37.3288C16.6478 37.1788 16.6677 37.015 16.6438 36.8547L16.4406 35.473C16.4008 35.1967 16.2852 34.9368 16.1065 34.7223C15.9279 34.5078 15.6933 34.347 15.4288 34.2578V30.858C15.5761 30.7853 15.7363 30.7042 15.9178 30.608C16.0975 30.5119 16.2787 30.4094 16.4647 30.3004V29.916C16.328 29.8071 16.1956 29.6918 16.0696 29.5701C16.0595 29.5603 16.0488 29.551 16.0376 29.5423C15.2474 28.7693 14.6431 27.7187 14.4253 26.7577C14.3804 26.5591 14.3377 26.3604 14.3035 26.1512H14.2992C14.144 26.1101 13.9947 26.0491 13.8551 25.9697C13.6446 25.8504 13.4596 25.6908 13.3109 25.4999C13.1621 25.3091 13.0525 25.0908 12.9882 24.8575C12.9239 24.6242 12.9063 24.3806 12.9363 24.1405C12.9664 23.9004 13.0435 23.6685 13.1632 23.4583C13.2222 23.3545 13.2908 23.2565 13.3682 23.1657V21.3828C13.3721 20.7187 13.5384 20.0656 13.8525 19.4805C14.1667 18.8954 14.6192 18.3959 15.1706 18.0258C15.7709 17.6237 16.4768 17.4083 17.1993 17.4066C17.8248 17.4114 18.4402 17.5643 18.9952 17.8528C19.1719 17.9461 19.357 18.0226 19.5481 18.0813C19.7079 18.1336 19.8785 18.1439 20.0435 18.1112C20.2786 18.0551 20.5194 18.0264 20.761 18.0257C21.4713 18.0256 22.1574 18.2837 22.6915 18.7518C23.2233 19.2203 23.5945 19.8441 23.7528 20.5349C23.8181 20.8128 23.8511 21.0973 23.8512 21.3828V23.1595C24.1005 23.4478 24.2546 23.806 24.2924 24.1853C24.3303 24.5645 24.25 24.9461 24.0626 25.278C23.9393 25.4933 23.7741 25.6817 23.5768 25.832C23.3794 25.9824 23.154 26.0917 22.9137 26.1535C22.8795 26.3606 22.8389 26.5593 22.792 26.7579C22.5785 27.7039 21.9848 28.7396 21.2096 29.5105C21.1988 29.5213 21.1903 29.5319 21.1797 29.5426C21.0461 29.673 20.9056 29.7964 20.759 29.912V30.3047C21.1135 30.514 21.4465 30.6891 21.7627 30.845V34.2044C21.4231 34.3283 21.138 34.5679 20.9575 34.8811C20.777 35.1942 20.7125 35.561 20.7755 35.917C20.8384 36.2729 21.0247 36.5953 21.3016 36.8276C21.5786 37.0599 21.9285 37.1872 22.29 37.1872C22.6515 37.1872 23.0014 37.0599 23.2784 36.8276C23.5554 36.5953 23.7416 36.2729 23.8046 35.917C23.8675 35.561 23.8031 35.1942 23.6225 34.8811C23.442 34.5679 23.1569 34.3283 22.8174 34.2044V31.347C24.9488 32.3698 26.0614 33.2433 26.2707 39.4106H26.2709ZM22.9181 23.7231C22.9722 24.126 23.0014 24.5318 23.0057 24.9383V24.9404C23.0618 24.8876 23.1092 24.8264 23.1463 24.7589C23.2349 24.6049 23.2687 24.4255 23.2424 24.2499C23.216 24.0742 23.131 23.9127 23.0011 23.7915C22.9861 23.7787 22.9691 23.7659 22.9562 23.753C22.9436 23.7422 22.9309 23.7344 22.918 23.7232L22.9181 23.7231ZM14.2992 23.7274C14.2886 23.736 14.2779 23.7424 14.2694 23.7509C14.2526 23.7676 14.2347 23.7833 14.216 23.7977C14.1611 23.8505 14.1144 23.9111 14.0772 23.9774C13.9912 24.1294 13.9577 24.3056 13.982 24.4786C14.0064 24.6516 14.0871 24.8117 14.2117 24.9341C14.2181 24.5306 14.2473 24.1277 14.2991 23.7275L14.2992 23.7274ZM19.7063 30.5333C19.3615 30.6736 18.9938 30.7496 18.6215 30.7575H18.6044C18.2322 30.7506 17.8645 30.6753 17.5195 30.5354V31.1782C17.5268 31.4634 17.6452 31.7345 17.8494 31.9336C18.0537 32.1328 18.3277 32.2442 18.6129 32.2442C18.8982 32.2442 19.1722 32.1328 19.3765 31.9336C19.5807 31.7345 19.6991 31.4634 19.7063 31.1782V30.5333ZM20.4709 28.763C21.1093 28.1288 21.5941 27.2873 21.7671 26.5271C21.8956 26.0096 21.9588 25.4779 21.955 24.9447C21.9507 24.3744 21.8738 23.6527 21.6753 22.6512C20.9198 22.7436 20.1541 22.7053 19.4117 22.538C18.6972 22.3748 18.0345 22.0365 17.4833 21.5536C17.2299 21.8055 16.938 22.0153 16.6185 22.1751C16.2857 22.3326 15.934 22.4467 15.572 22.5145C15.3521 23.5866 15.2688 24.349 15.2624 24.9448C15.2596 25.478 15.3228 26.0095 15.4503 26.5272C15.6254 27.2959 16.123 28.148 16.7764 28.7887L16.802 28.8143C16.944 28.9528 17.096 29.0806 17.2569 29.1966C17.2825 29.2117 17.3067 29.2288 17.3295 29.2478C17.7395 29.5276 18.1774 29.7027 18.6087 29.7069C19.0462 29.7027 19.4906 29.5233 19.9049 29.235C19.9208 29.2219 19.938 29.2105 19.9562 29.2009C20.1288 29.0755 20.2916 28.937 20.4431 28.7868C20.4518 28.7784 20.4611 28.7704 20.4707 28.763L20.4709 28.763Z" fill="white"/>
</svg>
