<svg width="27" height="40" viewBox="0 0 27 40" fill="none" xmlns="http://www.w3.org/2000/svg">
<path d="M22.7862 33.0898H16.4869C14.544 31.1215 13.4511 28.5701 13.4511 25.8653C13.4511 20.6021 16.3294 16.4999 20.7597 15.1718L17.2466 13.1721L12.4762 15.8875C10.9897 17.8144 10.0702 20.1836 9.82013 22.7514C9.34463 27.4236 12.8899 31.398 14.6864 33.0898H12.9285C10.9051 30.9401 8.12456 27.1122 8.58119 22.6283C8.84981 19.8661 9.83719 17.3083 11.4297 15.2108L12.5534 9.76182L8.69688 6.24707C4.53231 8.49632 2.64356 14.8597 4.10681 21.9491C5.10325 26.7497 7.59875 30.8871 10.8082 33.0898H3.93169L0 39.9995H26.7179L22.7862 33.0898ZM8.29844 38.7446L6.86894 37.9308L5.43925 38.7446L5.77137 37.1334L4.55556 36.0253L6.19063 35.8433L6.86894 34.3446L7.54706 35.8433L9.182 36.0253L7.96631 37.1334L8.29844 38.7446ZM14.9397 38.7446L13.51 37.9308L12.0804 38.7446L12.4126 37.1334L11.1968 36.0253L12.8318 35.8433L13.51 34.3446L14.1883 35.8433L15.8232 36.0253L14.6074 37.1334L14.9397 38.7446ZM21.2787 38.7446L19.8491 37.9308L18.4194 38.7446L18.7516 37.1334L17.5359 36.0253L19.1708 35.8433L19.8491 34.3446L20.5274 35.8433L22.1622 36.0253L20.9465 37.1334L21.2787 38.7446Z" fill="white"/>
<path d="M14.8362 5.44297L10.2266 5.95616L13.6545 9.08034C13.8168 9.22841 13.8892 9.45128 13.8448 9.66653L12.9081 14.209L16.9389 11.9145C17.0344 11.8601 17.1405 11.833 17.2469 11.833C17.3533 11.833 17.4594 11.8601 17.5549 11.9145L21.5857 14.209L20.649 9.66653C20.6046 9.45128 20.6769 9.22841 20.8393 9.08034L24.2673 5.95616L19.6576 5.44297C19.4392 5.41866 19.2498 5.28122 19.1593 5.08091L17.2469 0.855469L15.3346 5.08091C15.2439 5.28122 15.0546 5.41866 14.8362 5.44297Z" fill="white"/>
<path d="M8.52557 4.924C8.53057 4.92163 8.53607 4.92244 8.54107 4.92019C8.59763 4.8955 8.65782 4.87813 8.72107 4.87106L8.76395 4.86631C8.76488 4.86625 8.76576 4.86606 8.7667 4.866L14.3459 4.24506L16.2671 0C14.3158 0.095 9.70251 0.693 6.56626 4.12056C5.0077 5.82406 4.00651 8.00438 3.55957 10.6337C4.59963 8.00169 6.29095 5.97 8.52557 4.924Z" fill="white"/>
</svg>
