<svg width="43" height="40" viewBox="0 0 43 40" fill="none" xmlns="http://www.w3.org/2000/svg">
<path d="M18.4579 17.175L20.9579 9.675L24.508 15H33.5913C35.1913 11.9 35.4663 8.95008 34.8914 6.525C33.9664 2.625 30.7581 0 26.9831 0C23.008 0 20.2331 2.475 18.8331 4.14992C17.433 2.475 14.6581 0 10.683 0C6.93297 0 3.78297 2.59992 2.88297 6.47508C2.30797 8.925 2.58297 11.875 4.18297 15H17.008L18.4579 17.175Z" fill="white"/>
<path d="M21.7081 15.3252L19.2081 22.8252L15.6579 17.5002H5.70801C8.13292 20.8751 12.1581 24.3251 18.2831 27.3752L18.833 27.6502L19.3829 27.3752C25.5079 24.3001 29.6164 20.8751 32.0413 17.5002H23.1579L21.7081 15.3252Z" fill="white"/>
<path d="M0 15V17.5H5.70833C5.08333 16.6749 4.58333 15.8251 4.18333 15H0Z" fill="white"/>
<path d="M38.917 25H36.417C35.7169 25 35.167 24.4501 35.167 23.75C35.167 23.0499 35.7169 22.5 36.417 22.5C38.4921 22.5 40.167 20.8251 40.167 18.75C40.167 16.6749 38.4921 15 36.417 15H33.592C33.1921 15.8251 32.692 16.6499 32.042 17.5H36.417C37.1171 17.5 37.667 18.0499 37.667 18.75C37.667 19.4501 37.1171 20 36.417 20C34.3419 20 32.667 21.6749 32.667 23.75C32.667 25.8251 34.3419 27.5 36.417 27.5H38.917C39.6171 27.5 40.167 28.0499 40.167 28.75V30H42.667V28.75C42.667 26.6749 40.9921 25 38.917 25Z" fill="white"/>
<path d="M0 32.5H10.0833V40H0V32.5Z" fill="white"/>
<path d="M12.583 32.5H35.1663V40H12.583V32.5Z" fill="white"/>
<path d="M37.667 32.5H42.667V40H37.667V32.5Z" fill="white"/>
</svg>
