<svg width="40" height="40" viewBox="0 0 40 40" fill="none" xmlns="http://www.w3.org/2000/svg">
<path d="M39.2092 17.6522C39.2092 22.2817 37.2775 26.4449 34.1134 29.4757C33.7138 29.2093 33.2808 29.0094 32.8478 28.8429C32.1151 28.5765 31.3158 28.4099 30.5164 28.4099C27.6189 28.4099 25.1875 30.2417 24.2883 32.773C24.1218 33.2059 24.0219 33.6722 23.9552 34.1385C23.389 34.2051 22.8229 34.2384 22.2234 34.2384C21.6239 34.2384 21.0577 34.2051 20.4915 34.1385C20.4248 33.6722 20.3249 33.2059 20.1584 32.773C19.2592 30.2417 16.8278 28.4099 13.9303 28.4099C13.0976 28.4099 12.3316 28.5765 11.5989 28.8429C11.1326 29.0094 10.7329 29.2093 10.3333 29.4757C7.20253 26.4782 5.2375 22.2817 5.2375 17.6522V13.6223H0.707947C0.374891 13.6223 0.0751411 13.3891 0.00852993 13.0561C-0.0580812 12.6231 0.274975 12.29 0.674641 12.29H5.90362C6.26998 12.29 6.56973 12.5898 6.56973 12.9562V16.9861H39.1426V17.6522H39.2092Z" fill="white"/>
<path d="M13.9635 29.7422C11.0659 29.7422 8.70117 32.0403 8.70117 34.8712C8.70117 37.7022 11.0659 40.0003 13.9635 40.0003C16.861 40.0003 19.2257 37.7022 19.2257 34.8712C19.2257 32.0403 16.861 29.7422 13.9635 29.7422ZM13.9635 36.7031C12.8977 36.7031 12.065 35.8704 12.065 34.8379C12.065 33.8055 12.931 33.0061 13.9635 33.0061C14.9959 33.0061 15.8619 33.8388 15.8619 34.8379C15.8619 35.8371 15.0292 36.7031 13.9635 36.7031Z" fill="white"/>
<path d="M30.5162 29.7422C27.6186 29.7422 25.2539 32.0403 25.2539 34.8712C25.2539 37.7022 27.6186 40.0003 30.5162 40.0003C33.4138 40.0003 35.7785 37.7022 35.7785 34.8712C35.7452 32.0403 33.4138 29.7422 30.5162 29.7422ZM30.5162 36.7031C29.4504 36.7031 28.6178 35.8704 28.6178 34.8379C28.6178 33.8055 29.4837 33.0061 30.5162 33.0061C31.582 33.0061 32.4146 33.8388 32.4146 34.8379C32.4146 35.8371 31.5487 36.7031 30.5162 36.7031Z" fill="white"/>
<path d="M22.8898 0H20.0255C19.6591 0 19.3594 0.29975 19.3594 0.666112V15.6536H39.1762C38.8431 6.96087 31.6491 0 22.8898 0Z" fill="white"/>
</svg>
