<svg width="37" height="41" viewBox="0 0 37 41" fill="none" xmlns="http://www.w3.org/2000/svg">
<path d="M36.3297 39.1835C36.3281 35.4912 35.8133 32.6072 34.756 30.3677C33.3931 27.4816 31.1278 25.6933 28.0234 25.0517L22.8319 24.1213V23.5024C24.5369 22.4315 25.8116 20.7957 26.4334 18.8807C28.519 18.6739 30.1515 16.962 30.1515 14.8875C30.1501 14.3475 30.0379 13.8134 29.8217 13.3185C29.6055 12.8235 29.2901 12.3783 28.8948 12.0102L29.122 10.8277C29.7001 7.82441 27.782 5.13339 25.6809 3.51402C24.9017 1.23614 23.0449 0.0820312 20.155 0.0820312H16.4409C15.1191 0.0896664 13.8135 0.372773 12.6072 0.913282C11.401 1.45379 10.3207 2.23983 9.43528 3.22124C7.90943 4.93658 7.20799 7.06466 7.4601 9.21322L7.77915 11.9362C7.36033 12.3057 7.02461 12.7599 6.79413 13.2686C6.56365 13.7774 6.44366 14.3293 6.44206 14.8878C6.44206 16.9621 8.07453 18.674 10.1601 18.8809C10.782 20.7959 12.0567 22.4317 13.7616 23.5026V24.1215L8.60193 25.0458L8.57021 25.0519C5.46565 25.6933 3.20038 27.4816 1.83742 30.3679C0.77847 32.6106 0.263672 35.4996 0.263672 39.2V40.0811H2.70347V39.2002C2.70347 32.153 4.67971 28.4213 8.92032 27.4724V33.8417C8.22434 34.1246 7.64834 34.6407 7.29091 35.3015C6.93349 35.9623 6.81686 36.7268 6.961 37.4641C7.10514 38.2015 7.50108 38.8658 8.08104 39.3433C8.66101 39.8209 9.38894 40.082 10.1402 40.082C10.8915 40.082 11.6194 39.8209 12.1994 39.3433C12.7794 38.8658 13.1753 38.2015 13.3195 37.4641C13.4636 36.7268 13.347 35.9623 12.9895 35.3015C12.6321 34.6407 12.0561 34.1246 11.3601 33.8417V27.0301L14.269 26.509C14.6528 27.3491 14.9826 28.0962 15.2612 28.7269C15.754 29.8437 16.1101 30.6505 16.4323 31.2334C16.6688 31.6615 17.2223 32.6642 18.2663 32.6677H18.2719C19.3113 32.6677 19.869 31.6745 20.1075 31.25C20.432 30.6717 20.7917 29.8717 21.2895 28.7646C21.5775 28.1238 21.9192 27.3639 22.318 26.5077L25.1688 27.0189V30.1093C24.1826 30.3783 23.3121 30.9637 22.691 31.7757C22.07 32.5876 21.7328 33.5811 21.7314 34.6033V38.8614C21.7314 39.185 21.8599 39.4952 22.0887 39.724C22.3175 39.9528 22.6277 40.0813 22.9513 40.0813H25.3121V37.6415H24.1711V34.6033C24.1747 34.0175 24.4098 33.4569 24.8253 33.044C25.2408 32.631 25.8028 32.3992 26.3886 32.3992C26.9744 32.3992 27.5364 32.631 27.9519 33.044C28.3673 33.4569 28.6025 34.0175 28.6061 34.6033V37.6415H27.4652V40.0813H29.826C30.1495 40.0813 30.4598 39.9528 30.6886 39.724C30.9174 39.4952 31.0459 39.185 31.0459 38.8614V34.6033C31.0445 33.5811 30.7073 32.5877 30.0863 31.7757C29.4653 30.9638 28.5948 30.3783 27.6086 30.1093V27.458C31.8935 28.3834 33.89 32.1172 33.89 39.2001V40.0645H36.3298V39.1835H36.3297ZM26.8454 13.5163C27.1045 13.6394 27.3235 13.8335 27.4768 14.0761C27.6301 14.3187 27.7115 14.5997 27.7115 14.8867C27.7115 15.1736 27.6301 15.4547 27.4768 15.6972C27.3235 15.9398 27.1045 16.1339 26.8454 16.257V13.5163ZM9.74799 16.257C9.48878 16.1339 9.26981 15.9398 9.11649 15.6972C8.96317 15.4547 8.88178 15.1736 8.88178 14.8867C8.88178 14.5997 8.96317 14.3186 9.11649 14.0761C9.26981 13.8335 9.48878 13.6394 9.74799 13.5163V16.257ZM10.1402 37.6415C9.98206 37.6415 9.82744 37.5947 9.69592 37.5068C9.5644 37.4189 9.46189 37.294 9.40135 37.1479C9.34081 37.0018 9.32497 36.841 9.35581 36.6859C9.38666 36.5308 9.46282 36.3883 9.57465 36.2764C9.68649 36.1646 9.82898 36.0884 9.9841 36.0575C10.1392 36.0267 10.3 36.0425 10.4461 36.103C10.5923 36.1635 10.7172 36.266 10.8051 36.3975C10.8929 36.5291 10.9398 36.6837 10.9398 36.8418C10.9396 37.0538 10.8553 37.2571 10.7054 37.407C10.5555 37.557 10.3522 37.6413 10.1402 37.6415ZM9.97912 9.74648L9.88331 8.92923C9.7135 7.48162 10.2018 6.03059 11.2583 4.84289C11.9134 4.1171 12.7127 3.53585 13.605 3.13625C14.4974 2.73665 15.4632 2.52748 16.4409 2.52207H20.1549C22.5695 2.52207 23.1675 3.50751 23.4539 4.57232C23.5275 4.84621 23.6943 5.08587 23.9256 5.2501C25.5358 6.39314 27.1164 8.33758 26.7258 10.3673L26.6468 10.7788C26.4039 9.92386 25.923 9.02634 25.1198 8.61108C24.1226 8.09352 22.9784 8.15419 21.9012 8.78008C21.8393 8.81578 21.5765 8.91671 20.788 8.7203C20.0715 8.54195 19.2243 8.19656 18.3274 7.831C16.0538 6.90387 13.4766 5.85378 11.5974 7.11727C10.7952 7.65655 10.259 8.5252 9.97912 9.74632V9.74648ZM20.3919 24.8673C19.8606 25.9907 19.4212 26.9681 19.0635 27.7642C18.7907 28.3709 18.5131 28.9882 18.2761 29.4779C18.0403 28.9825 17.7643 28.3568 17.4929 27.7418C17.1446 26.9529 16.7169 25.9836 16.2014 24.8721V24.5479C17.5767 24.8948 19.0166 24.8948 20.3919 24.5479V24.8673ZM18.2967 22.3683C16.6768 22.3662 15.1238 21.7216 13.9786 20.5759C12.8333 19.4302 12.1893 17.877 12.1878 16.2571V12.0913C12.1878 10.5236 12.4616 9.47615 12.9588 9.1419C13.14 9.01991 13.3835 8.96811 13.6708 8.96811C14.6539 8.96811 16.1493 9.57765 17.4066 10.0904C19.548 10.9632 21.5705 11.7876 23.1239 10.8916C23.599 10.6151 23.8639 10.7117 23.9732 10.765C24.1404 10.9238 24.4056 11.6045 24.4056 12.0915V16.2573C24.4041 17.8772 23.76 19.4304 22.6148 20.576C21.4695 21.7216 19.9166 22.3662 18.2967 22.3683Z" fill="#1C2359"/>
</svg>
