<svg width="36" height="38" viewBox="0 0 36 38" fill="none" xmlns="http://www.w3.org/2000/svg">
<path d="M1 10.1333H34.7333" stroke="#1C2359" stroke-width="1.5" stroke-miterlimit="10" stroke-linecap="round" stroke-linejoin="round"/>
<path d="M5.13281 13.9333H9.06615V17.8667H5.13281V13.9333Z" stroke="#1C2359" stroke-width="1.5" stroke-miterlimit="10" stroke-linecap="round" stroke-linejoin="round"/>
<path d="M12.3994 13.9333H16.3327V17.8667H12.3994V13.9333Z" stroke="#1C2359" stroke-width="1.5" stroke-miterlimit="10" stroke-linecap="round" stroke-linejoin="round"/>
<path d="M19.5996 13.9333H23.5329V17.8667H19.5996V13.9333Z" stroke="#1C2359" stroke-width="1.5" stroke-miterlimit="10" stroke-linecap="round" stroke-linejoin="round"/>
<path d="M26.7998 13.9333H30.7331V17.8667H26.7998V13.9333Z" stroke="#1C2359" stroke-width="1.5" stroke-miterlimit="10" stroke-linecap="round" stroke-linejoin="round"/>
<path d="M5.13281 21.6667H9.06615V25.6001H5.13281V21.6667Z" stroke="#1C2359" stroke-width="1.5" stroke-miterlimit="10" stroke-linecap="round" stroke-linejoin="round"/>
<path d="M12.3994 21.6667H16.3327V25.6001H12.3994V21.6667Z" stroke="#1C2359" stroke-width="1.5" stroke-miterlimit="10" stroke-linecap="round" stroke-linejoin="round"/>
<path d="M19.5996 21.6667H23.5329V25.6001H19.5996V21.6667Z" stroke="#1C2359" stroke-width="1.5" stroke-miterlimit="10" stroke-linecap="round" stroke-linejoin="round"/>
<path d="M26.7998 21.6667H30.7331V25.6001H26.7998V21.6667Z" stroke="#1C2359" stroke-width="1.5" stroke-miterlimit="10" stroke-linecap="round" stroke-linejoin="round"/>
<path d="M5.13379 29.3334H9.06712V33.2667H5.13379V29.3334Z" stroke="#1C2359" stroke-width="1.5" stroke-miterlimit="10" stroke-linecap="round" stroke-linejoin="round"/>
<path d="M12.4004 29.3334H16.3337V33.2667H12.4004V29.3334Z" stroke="#1C2359" stroke-width="1.5" stroke-miterlimit="10" stroke-linecap="round" stroke-linejoin="round"/>
<path d="M19.5996 29.3334H23.5329V33.2667H19.5996V29.3334Z" stroke="#1C2359" stroke-width="1.5" stroke-miterlimit="10" stroke-linecap="round" stroke-linejoin="round"/>
<path d="M26.0669 6.86667C25.0669 6.86667 24.2002 6.06667 24.2002 5V2.86667C24.2002 1.86667 25.0002 1 26.0669 1C27.0669 1 27.8669 1.8 27.8669 2.86667V3.93333" stroke="#1C2359" stroke-width="1.5" stroke-miterlimit="10" stroke-linecap="round" stroke-linejoin="round"/>
<path d="M9.66647 6.86667C8.66647 6.86667 7.7998 6.06667 7.7998 5V2.86667C7.86647 1.8 8.66647 1 9.66647 1C10.6665 1 11.5331 1.8 11.5331 2.86667V3.93333" stroke="#1C2359" stroke-width="1.5" stroke-miterlimit="10" stroke-linecap="round" stroke-linejoin="round"/>
<path d="M26.7998 30.7334V37.2L34.6665 29.3334H28.1331C27.4665 29.4 26.7998 30 26.7998 30.7334Z" stroke="#1C2359" stroke-width="1.5" stroke-miterlimit="10" stroke-linecap="round" stroke-linejoin="round"/>
</svg>
