<svg width="42" height="40" viewBox="0 0 42 40" fill="none" xmlns="http://www.w3.org/2000/svg">
<path fill-rule="evenodd" clip-rule="evenodd" d="M31.3587 0.137572C29.6746 -1.93937e-05 27.5793 0 24.9068 0H16.9826C14.31 0 12.2147 -1.93937e-05 10.5307 0.137572C8.81583 0.277677 7.39919 0.567707 6.11691 1.22104C4.00894 2.2951 2.2951 4.00894 1.22104 6.11691C0.567707 7.39919 0.277677 8.81585 0.137572 10.5307C-1.93937e-05 12.2147 0 14.31 0 16.9826V25.2861C0 30.1517 3.94424 34.0959 8.80973 34.0959H9.98214C10.4663 34.0959 10.7974 34.585 10.6176 35.0345C9.27971 38.3792 13.1316 41.4028 16.0629 39.3091L21.1494 35.6758L21.2453 35.6077C22.6265 34.6345 24.2722 34.1068 25.9618 34.0961L26.0793 34.0959H27.4348C30.452 34.0963 32.2926 34.0967 33.8386 33.6433C37.4999 32.5698 40.3632 29.7065 41.4367 26.0452C41.8901 24.4992 41.8897 22.6588 41.8893 19.6416V16.9825C41.8893 14.31 41.8893 12.2147 41.7517 10.5307C41.6117 8.81583 41.3216 7.39919 40.6683 6.11691C39.5942 4.00894 37.8804 2.2951 35.7723 1.22104C34.4901 0.567707 33.0735 0.277677 31.3587 0.137572ZM7.44371 3.82502C8.24531 3.41659 9.23454 3.17572 10.7686 3.05038C12.3198 2.92364 14.2959 2.92251 17.048 2.92251H24.8413C27.5934 2.92251 29.5696 2.92364 31.1206 3.05038C32.6548 3.17572 33.6439 3.41659 34.4457 3.82502C36.0036 4.61889 37.2704 5.88564 38.0643 7.44371C38.4727 8.24531 38.7135 9.23454 38.839 10.7686C38.9656 12.3198 38.9668 14.2959 38.9668 17.048V19.3552C38.9668 22.749 38.952 24.1327 38.6323 25.2228C37.8387 27.9291 35.7224 30.0453 33.0162 30.8389C31.9261 31.1586 30.5424 31.1734 27.1486 31.1734H26.0793L25.9431 31.1736C23.6571 31.1882 21.4304 31.9019 19.5617 33.2186L14.3642 36.931C13.8081 37.3282 13.0772 36.7544 13.331 36.1199C14.2787 33.7507 12.5339 31.1734 9.98214 31.1734H8.80973C5.5583 31.1734 2.92251 28.5377 2.92251 25.2861V17.048C2.92251 14.2959 2.92364 12.3198 3.05038 10.7686C3.17572 9.23454 3.41659 8.24531 3.82502 7.44371C4.61889 5.88564 5.88564 4.61889 7.44371 3.82502Z" fill="#1C2359"/>
<path d="M15.0998 17.0479C15.0998 18.124 14.2275 18.9963 13.1515 18.9963C12.0754 18.9963 11.2031 18.124 11.2031 17.0479C11.2031 15.9719 12.0754 15.0996 13.1515 15.0996C14.2275 15.0996 15.0998 15.9719 15.0998 17.0479Z" fill="#1C2359"/>
<path d="M22.8928 17.0479C22.8928 18.124 22.0205 18.9963 20.9444 18.9963C19.8684 18.9963 18.9961 18.124 18.9961 17.0479C18.9961 15.9719 19.8684 15.0996 20.9444 15.0996C22.0205 15.0996 22.8928 15.9719 22.8928 17.0479Z" fill="#1C2359"/>
<path d="M30.8967 16.9483C30.8967 18.0244 30.0244 18.8967 28.9483 18.8967C27.8723 18.8967 27 18.0244 27 16.9483C27 15.8723 27.8723 15 28.9483 15C30.0244 15 30.8967 15.8723 30.8967 16.9483Z" fill="#1C2359"/>
</svg>
