<svg width="32" height="32" viewBox="0 0 32 32" fill="none" xmlns="http://www.w3.org/2000/svg">
<path fill-rule="evenodd" clip-rule="evenodd" d="M3 6C4.65686 6 6 4.65686 6 3C6 1.34314 4.65686 0 3 0C1.34314 0 0 1.34314 0 3C0 4.65686 1.34314 6 3 6ZM6 16C6 17.6568 4.65686 19 3 19C1.34314 19 0 17.6568 0 16C0 14.3432 1.34314 13 3 13C4.65686 13 6 14.3432 6 16ZM19 16C19 17.6568 17.6568 19 16 19C14.3432 19 13 17.6568 13 16C13 14.3432 14.3432 13 16 13C17.6568 13 19 14.3432 19 16ZM29 19C30.6568 19 32 17.6568 32 16C32 14.3432 30.6568 13 29 13C27.3432 13 26 14.3432 26 16C26 17.6568 27.3432 19 29 19ZM6 29C6 30.6568 4.65686 32 3 32C1.34314 32 0 30.6568 0 29C0 27.3432 1.34314 26 3 26C4.65686 26 6 27.3432 6 29ZM16 32C17.6568 32 19 30.6568 19 29C19 27.3432 17.6568 26 16 26C14.3432 26 13 27.3432 13 29C13 30.6568 14.3432 32 16 32ZM32 29C32 30.6568 30.6568 32 29 32C27.3432 32 26 30.6568 26 29C26 27.3432 27.3432 26 29 26C30.6568 26 32 27.3432 32 29ZM19 3C19 4.65686 17.6568 6 16 6C14.3432 6 13 4.65686 13 3C13 1.34314 14.3432 0 16 0C17.6568 0 19 1.34314 19 3ZM29 6C30.6568 6 32 4.65686 32 3C32 1.34314 30.6568 0 29 0C27.3432 0 26 1.34314 26 3C26 4.65686 27.3432 6 29 6Z" fill="white"/>
</svg>
