<svg width="20" height="20" viewBox="0 0 20 20" fill="none" xmlns="http://www.w3.org/2000/svg">
<path fill-rule="evenodd" clip-rule="evenodd" d="M1.875 3.75C2.91054 3.75 3.75 2.91054 3.75 1.875C3.75 0.839463 2.91054 0 1.875 0C0.839463 0 0 0.839463 0 1.875C0 2.91054 0.839463 3.75 1.875 3.75ZM3.75 10C3.75 11.0355 2.91054 11.875 1.875 11.875C0.839463 11.875 0 11.0355 0 10C0 8.9645 0.839463 8.125 1.875 8.125C2.91054 8.125 3.75 8.9645 3.75 10ZM11.875 10C11.875 11.0355 11.0355 11.875 10 11.875C8.9645 11.875 8.125 11.0355 8.125 10C8.125 8.9645 8.9645 8.125 10 8.125C11.0355 8.125 11.875 8.9645 11.875 10ZM18.125 11.875C19.1605 11.875 20 11.0355 20 10C20 8.9645 19.1605 8.125 18.125 8.125C17.0895 8.125 16.25 8.9645 16.25 10C16.25 11.0355 17.0895 11.875 18.125 11.875ZM3.75 18.125C3.75 19.1605 2.91054 20 1.875 20C0.839463 20 0 19.1605 0 18.125C0 17.0895 0.839463 16.25 1.875 16.25C2.91054 16.25 3.75 17.0895 3.75 18.125ZM10 20C11.0355 20 11.875 19.1605 11.875 18.125C11.875 17.0895 11.0355 16.25 10 16.25C8.9645 16.25 8.125 17.0895 8.125 18.125C8.125 19.1605 8.9645 20 10 20ZM20 18.125C20 19.1605 19.1605 20 18.125 20C17.0895 20 16.25 19.1605 16.25 18.125C16.25 17.0895 17.0895 16.25 18.125 16.25C19.1605 16.25 20 17.0895 20 18.125ZM11.875 1.875C11.875 2.91054 11.0355 3.75 10 3.75C8.9645 3.75 8.125 2.91054 8.125 1.875C8.125 0.839463 8.9645 0 10 0C11.0355 0 11.875 0.839463 11.875 1.875ZM18.125 3.75C19.1605 3.75 20 2.91054 20 1.875C20 0.839463 19.1605 0 18.125 0C17.0895 0 16.25 0.839463 16.25 1.875C16.25 2.91054 17.0895 3.75 18.125 3.75Z" fill="#1C2359"/>
</svg>
