<svg width="43" height="48" viewBox="0 0 43 48" fill="none" xmlns="http://www.w3.org/2000/svg">
<path d="M10.4954 10.9441L12.8437 12.9588L15.1852 10.9496C15.9858 10.2754 16.6972 9.67387 17.2973 9.10669C18.5895 7.88588 19.7871 6.48506 19.7871 4.50478C19.787 2.03147 17.9537 0 15.6122 0C14.4202 0 13.5097 0.4875 12.8437 1.13569C12.1777 0.4875 11.2672 0 10.0752 0C7.73367 0 5.90039 2.03147 5.90039 4.50478C5.9003 7.06453 7.82845 8.69194 10.4954 10.9441Z" fill="#F96363"/>
<path d="M42.375 18.375V16.9688H8.48269C7.82934 13.7633 4.989 11.3438 1.59375 11.3438H0.1875V14.1562H1.59375C3.92006 14.1562 5.8125 16.0487 5.8125 18.375C5.8125 26.0225 11.3963 32.4683 18.6976 33.7037C17.6919 34.9201 17.0625 36.4585 17.0625 38.1562C17.0625 40.101 15.7333 41.726 13.9403 42.2122C13.3158 40.6624 11.8023 39.5625 10.0312 39.5625C7.70494 39.5625 5.8125 41.4549 5.8125 43.7812C5.8125 46.1076 7.70494 48 10.0312 48C11.9062 48 13.4804 46.7625 14.0282 45.0677C15.8241 44.7601 17.3757 43.7713 18.4328 42.375H29.7546C30.8117 43.7713 32.3633 44.7601 34.1592 45.0677C34.7071 46.7625 36.2813 48 38.1562 48C40.4826 48 42.375 46.1076 42.375 43.7812C42.375 41.4549 40.4826 39.5625 38.1562 39.5625C36.3852 39.5625 34.8717 40.6624 34.2472 42.2122C32.4542 41.726 31.125 40.101 31.125 38.1562C31.125 36.4585 30.4956 34.9201 29.4899 33.7037C36.7912 32.4683 42.375 26.0225 42.375 18.375ZM19.7327 39.5625C19.8254 39.1079 19.875 38.6378 19.875 38.1562C19.875 35.8299 21.7674 33.9375 24.0938 33.9375C26.4201 33.9375 28.3125 35.8299 28.3125 38.1562C28.3125 38.6378 28.3621 39.1079 28.4548 39.5625H19.7327Z" fill="#F96363"/>
<path d="M29.7187 5.71875H22.6875V14.1562H41.5975C39.8504 9.25631 35.2114 5.71875 29.7187 5.71875Z" fill="#F96363"/>
</svg>
