<svg width="21" height="24" viewBox="0 0 21 24" fill="none" xmlns="http://www.w3.org/2000/svg">
<path d="M13.1393 0.934326H10.3362V2.68614H12.2633V5.9854C12.2633 8.88322 9.90552 11.2409 7.00757 11.2409C4.10963 11.2409 1.75189 8.88327 1.75189 5.98545V2.68614H3.6206V0.934326H0.875947C0.392128 0.934326 0 1.32644 0 1.81023V5.98545C0 9.84941 3.14349 12.9928 7.00762 12.9928C10.8718 12.9928 14.0152 9.84941 14.0152 5.98545V1.81023C14.0152 1.32644 13.6231 0.934326 13.1393 0.934326Z" fill="white"/>
<path d="M16.5554 13.7226V17.8686C16.5554 20.2835 14.5906 22.2482 12.1756 22.2482C9.7606 22.2482 7.79584 20.2835 7.79584 17.8686V12.1459H6.04395V17.8686C6.04395 21.2493 8.79442 24 12.1756 24C15.5565 24 18.3073 21.2493 18.3073 17.8686V13.7226H16.5554Z" fill="white"/>
<path d="M17.4308 8.05847C15.6433 8.05847 14.1895 9.51221 14.1895 11.2994C14.1895 13.0862 15.6433 14.5403 17.4305 14.5403C19.2177 14.5403 20.6715 13.0862 20.6718 11.2994C20.6718 9.51221 19.2177 8.05847 17.4308 8.05847ZM17.4305 12.7885C16.6092 12.7885 15.9411 12.1204 15.9411 11.2994C15.9411 10.4784 16.6091 9.81038 17.4305 9.81038C18.2515 9.81038 18.9196 10.4784 18.9196 11.2994C18.9196 12.1204 18.2515 12.7885 17.4305 12.7885Z" fill="white"/>
<path d="M3.59177 0C3.10795 0 2.71582 0.39211 2.71582 0.875908V2.74454C2.71582 3.22834 3.10795 3.62045 3.59177 3.62045C4.07559 3.62045 4.46771 3.22834 4.46771 2.74454V0.875908C4.46771 0.39211 4.07559 0 3.59177 0Z" fill="white"/>
<path d="M10.3642 0C9.88041 0 9.48828 0.39211 9.48828 0.875908V2.74454C9.48828 3.22834 9.88041 3.62045 10.3642 3.62045C10.848 3.62045 11.2402 3.22834 11.2402 2.74454V0.875908C11.2402 0.39211 10.848 0 10.3642 0Z" fill="white"/>
</svg>
