<svg width="49" height="48" viewBox="0 0 49 48" fill="none" xmlns="http://www.w3.org/2000/svg">
<path d="M10.1879 9.6H24.5879C25.4679 9.6 26.1879 8.88 26.1879 8V4.8C26.1879 2.16 24.0279 0 21.3879 0H13.3879C10.7479 0 8.58789 2.16 8.58789 4.8V8C8.58789 8.88 9.30789 9.6 10.1879 9.6Z" fill="#F96363"/>
<path d="M38.5873 19.2002C33.2913 19.2002 28.9873 23.5042 28.9873 28.8002C28.9873 34.0962 33.2913 38.4002 38.5873 38.4002C43.8833 38.4002 48.1873 34.0962 48.1873 28.8002C48.1873 23.5042 43.8833 19.2002 38.5873 19.2002ZM44.3313 27.0562L38.6353 32.8162C38.3313 33.1202 37.9313 33.2962 37.4993 33.2962C37.0833 33.2962 36.6673 33.1202 36.3633 32.8322L32.8593 29.3282C32.2353 28.7042 32.2353 27.6962 32.8593 27.0722C33.4833 26.4482 34.5073 26.4482 35.1153 27.0722L37.4833 29.4402L42.0433 24.8322C42.6673 24.2082 43.6753 24.1922 44.2993 24.8322C44.9233 25.4562 44.9393 26.4642 44.2993 27.0882L44.3313 27.0562Z" fill="#F96363"/>
<path d="M25.7875 28.8002C25.7875 22.8482 29.8835 17.8402 35.3875 16.4162V7.2002C35.3875 4.9922 33.5635 3.2002 31.3235 3.2002H29.2115C29.3235 3.7122 29.3715 4.2562 29.3715 4.8002V8.0002C29.3715 10.6402 27.2115 12.8002 24.5715 12.8002H10.1875C7.5475 12.8002 5.3875 10.6402 5.3875 8.0002V4.8002C5.3875 4.2562 5.4515 3.7122 5.5475 3.2002H4.2515C2.0115 3.2002 0.1875 4.9922 0.1875 7.2002V44.0002C0.1875 46.2082 2.0115 48.0002 4.2515 48.0002H31.3395C33.5795 48.0002 35.4035 46.2082 35.4035 44.0002V41.1842C29.8995 39.7602 25.8035 34.7522 25.8035 28.8002H25.7875ZM7.3875 43.8082H5.7875C4.9075 43.8082 4.1875 43.0882 4.1875 42.2082C4.1875 41.3282 4.9075 40.6082 5.7875 40.6082H7.3875C8.2675 40.6082 8.9875 41.3282 8.9875 42.2082C8.9875 43.0882 8.2675 43.8082 7.3875 43.8082ZM7.3875 37.4082H5.7875C4.9075 37.4082 4.1875 36.6882 4.1875 35.8082C4.1875 34.9282 4.9075 34.2082 5.7875 34.2082H7.3875C8.2675 34.2082 8.9875 34.9282 8.9875 35.8082C8.9875 36.6882 8.2675 37.4082 7.3875 37.4082ZM7.3875 31.0082H5.7875C4.9075 31.0082 4.1875 30.2882 4.1875 29.4082C4.1875 28.5282 4.9075 27.8082 5.7875 27.8082H7.3875C8.2675 27.8082 8.9875 28.5282 8.9875 29.4082C8.9875 30.2882 8.2675 31.0082 7.3875 31.0082ZM13.7875 17.8082H16.1875V15.4082C16.1875 14.5282 16.9075 13.8082 17.7875 13.8082C18.6675 13.8082 19.3875 14.5282 19.3875 15.4082V17.8082H21.7875C22.6675 17.8082 23.3875 18.5282 23.3875 19.4082C23.3875 20.2882 22.6675 21.0082 21.7875 21.0082H19.3875V23.4082C19.3875 24.2882 18.6675 25.0082 17.7875 25.0082C16.9075 25.0082 16.1875 24.2882 16.1875 23.4082V21.0082H13.7875C12.9075 21.0082 12.1875 20.2882 12.1875 19.4082C12.1875 18.5282 12.9075 17.8082 13.7875 17.8082ZM12.1875 27.8082H21.7875C22.6675 27.8082 23.3875 28.5282 23.3875 29.4082C23.3875 30.2882 22.6675 31.0082 21.7875 31.0082H12.1875C11.3075 31.0082 10.5875 30.2882 10.5875 29.4082C10.5875 28.5282 11.3075 27.8082 12.1875 27.8082ZM12.1875 34.2082H23.3875C24.2675 34.2082 24.9875 34.9282 24.9875 35.8082C24.9875 36.6882 24.2675 37.4082 23.3875 37.4082H12.1875C11.3075 37.4082 10.5875 36.6882 10.5875 35.8082C10.5875 34.9282 11.3075 34.2082 12.1875 34.2082ZM26.5875 43.8082H12.1875C11.3075 43.8082 10.5875 43.0882 10.5875 42.2082C10.5875 41.3282 11.3075 40.6082 12.1875 40.6082H26.5875C27.4675 40.6082 28.1875 41.3282 28.1875 42.2082C28.1875 43.0882 27.4675 43.8082 26.5875 43.8082Z" fill="#F96363"/>
</svg>
