<svg width="46" height="48" viewBox="0 0 46 48" fill="none" xmlns="http://www.w3.org/2000/svg">
<path d="M12.5625 2.28571C12.5625 1.02335 11.5551 0 10.3125 0C9.06986 0 8.0625 1.02335 8.0625 2.28571V4.57143C8.0625 5.83379 9.06986 6.85714 10.3125 6.85714C11.5551 6.85714 12.5625 5.83379 12.5625 4.57143V2.28571Z" fill="#F96363"/>
<path d="M37.3125 2.28571C37.3125 1.02335 36.3051 0 35.0625 0C33.8199 0 32.8125 1.02335 32.8125 2.28571V4.57143C32.8125 5.83379 33.8199 6.85714 35.0625 6.85714C36.3051 6.85714 37.3125 5.83379 37.3125 4.57143V2.28571Z" fill="#F96363"/>
<path d="M0.1875 17.1431V43.4288C0.1875 45.9534 2.20237 48.0002 4.6875 48.0002H40.6875C43.1726 48.0002 45.1875 45.9534 45.1875 43.4288V17.1431H0.1875ZM13.6875 40.0002C13.6875 41.2631 12.6806 42.2859 11.4375 42.2859H9.1875C7.94438 42.2859 6.9375 41.2631 6.9375 40.0002V37.7145C6.9375 36.4516 7.94438 35.4288 9.1875 35.4288H11.4375C12.6806 35.4288 13.6875 36.4516 13.6875 37.7145V40.0002ZM13.6875 27.4288C13.6875 28.6916 12.6806 29.7145 11.4375 29.7145H9.1875C7.94438 29.7145 6.9375 28.6916 6.9375 27.4288V25.1431C6.9375 23.8802 7.94438 22.8574 9.1875 22.8574H11.4375C12.6806 22.8574 13.6875 23.8802 13.6875 25.1431V27.4288ZM26.0625 40.0002C26.0625 41.2631 25.0556 42.2859 23.8125 42.2859H21.5625C20.3194 42.2859 19.3125 41.2631 19.3125 40.0002V37.7145C19.3125 36.4516 20.3194 35.4288 21.5625 35.4288H23.8125C25.0556 35.4288 26.0625 36.4516 26.0625 37.7145V40.0002ZM26.0625 27.4288C26.0625 28.6916 25.0556 29.7145 23.8125 29.7145H21.5625C20.3194 29.7145 19.3125 28.6916 19.3125 27.4288V25.1431C19.3125 23.8802 20.3194 22.8574 21.5625 22.8574H23.8125C25.0556 22.8574 26.0625 23.8802 26.0625 25.1431V27.4288ZM38.4375 40.0002C38.4375 41.2631 37.4306 42.2859 36.1875 42.2859H33.9375C32.6944 42.2859 31.6875 41.2631 31.6875 40.0002V37.7145C31.6875 36.4516 32.6944 35.4288 33.9375 35.4288H36.1875C37.4306 35.4288 38.4375 36.4516 38.4375 37.7145V40.0002ZM38.4375 27.4288C38.4375 28.6916 37.4306 29.7145 36.1875 29.7145H33.9375C32.6944 29.7145 31.6875 28.6916 31.6875 27.4288V25.1431C31.6875 23.8802 32.6944 22.8574 33.9375 22.8574H36.1875C37.4306 22.8574 38.4375 23.8802 38.4375 25.1431V27.4288Z" fill="#F96363"/>
<path d="M45.1875 14.8573V8.00014C45.1875 5.47557 43.1726 3.42871 40.6875 3.42871H39.5625V4.57157C39.5625 7.09271 37.5443 9.143 35.0625 9.143C32.5807 9.143 30.5625 7.09271 30.5625 4.57157V3.42871H14.8125V4.57157C14.8125 7.09271 12.7943 9.143 10.3125 9.143C7.83075 9.143 5.8125 7.09271 5.8125 4.57157V3.42871H4.6875C2.20237 3.42871 0.1875 5.47557 0.1875 8.00014V14.8573H45.1875Z" fill="#F96363"/>
</svg>
