<svg width="32" height="32" viewBox="0 0 32 32" fill="none" xmlns="http://www.w3.org/2000/svg">
<g clip-path="url(#clip0_239_1719)">
<path d="M23.3378 0H8.66209C3.88573 0 0 3.88573 0 8.66209V23.3381C0 28.1142 3.88573 31.9999 8.66209 31.9999H23.3381C28.1142 31.9999 31.9999 28.1142 31.9999 23.3381V8.66209C31.9999 3.88573 28.1142 0 23.3378 0ZM16 24.7497C11.1753 24.7497 7.25023 20.8247 7.25023 16C7.25023 11.1753 11.1753 7.25023 16 7.25023C20.8247 7.25023 24.7497 11.1753 24.7497 16C24.7497 20.8247 20.8247 24.7497 16 24.7497ZM24.9589 9.3137C23.5332 9.3137 22.3735 8.15404 22.3735 6.72826C22.3735 5.30248 23.5332 4.14257 24.9589 4.14257C26.3847 4.14257 27.5446 5.30248 27.5446 6.72826C27.5446 8.15404 26.3847 9.3137 24.9589 9.3137Z" fill="white"/>
<path d="M16 9.12598C12.21 9.12598 9.12622 12.2095 9.12622 15.9997C9.12622 19.7898 12.21 22.8735 16 22.8735C19.7903 22.8735 22.8738 19.7898 22.8738 15.9997C22.8738 12.2095 19.7903 9.12598 16 9.12598Z" fill="white"/>
<path d="M24.959 6.01855C24.5679 6.01855 24.2495 6.33691 24.2495 6.72803C24.2495 7.11914 24.5679 7.4375 24.959 7.4375C25.3503 7.4375 25.6687 7.11938 25.6687 6.72803C25.6687 6.33667 25.3503 6.01855 24.959 6.01855Z" fill="white"/>
</g>
<defs>
<clipPath id="clip0_239_1719">
<rect width="32" height="32" fill="white"/>
</clipPath>
</defs>
</svg>
