<svg width="48" height="65" viewBox="0 0 48 65" fill="none" xmlns="http://www.w3.org/2000/svg">
<path d="M24 0.5C17.6374 0.50844 11.5378 3.03971 7.03875 7.53875C2.53971 12.0378 0.00844014 18.1374 0 24.5C0 41.73 22.36 63.3099 23.31 64.2199C23.4948 64.3995 23.7423 64.5 24 64.5C24.2577 64.5 24.5052 64.3995 24.69 64.2199C25.64 63.3099 47.9999 41.73 47.9999 24.5C47.9915 18.1374 45.4602 12.0378 40.9612 7.53875C36.4622 3.03971 30.3626 0.50844 24 0.5ZM24 35.5C21.8244 35.5 19.6976 34.8548 17.8887 33.6461C16.0798 32.4374 14.6699 30.7195 13.8373 28.7095C13.0047 26.6995 12.7869 24.4878 13.2113 22.354C13.6358 20.2202 14.6834 18.2602 16.2218 16.7218C17.7602 15.1834 19.7202 14.1358 21.854 13.7113C23.9878 13.2869 26.1995 13.5047 28.2095 14.3373C30.2195 15.1699 31.9374 16.5798 33.1461 18.3887C34.3548 20.1976 35 22.3244 35 24.5C34.9982 27.4168 33.8387 30.2137 31.7762 32.2762C29.7137 34.3387 26.9168 35.4982 24 35.5Z" fill="#F96363"/>
</svg>
