<svg width="38" height="57" viewBox="0 0 38 57" fill="none" xmlns="http://www.w3.org/2000/svg">
<path d="M38 19C38 29.4934 29.6875 36.8125 19 57C8.3125 37.2083 0 29.4934 0 19C0 8.50659 8.50659 0 19 0C29.4934 0 38 8.50659 38 19Z" fill="#F96363"/>
<ellipse cx="19" cy="18.5" rx="14" ry="13.5" fill="white"/>
<path d="M15.4955 25.2216C14.5599 25.2216 13.7569 24.9848 13.0864 24.5114C12.4198 24.0341 11.9065 23.3466 11.5467 22.4489C11.1906 21.5473 11.0126 20.4621 11.0126 19.1932C11.0164 17.9242 11.1963 16.8447 11.5524 15.9545C11.9122 15.0606 12.4255 14.3788 13.0921 13.9091C13.7626 13.4394 14.5637 13.2045 15.4955 13.2045C16.4274 13.2045 17.2285 13.4394 17.8989 13.9091C18.5694 14.3788 19.0827 15.0606 19.4387 15.9545C19.7986 16.8485 19.9785 17.928 19.9785 19.1932C19.9785 20.4659 19.7986 21.553 19.4387 22.4545C19.0827 23.3523 18.5694 24.0379 17.8989 24.5114C17.2323 24.9848 16.4311 25.2216 15.4955 25.2216ZM15.4955 23.4432C16.2228 23.4432 16.7967 23.0852 17.2171 22.3693C17.6414 21.6496 17.8535 20.5909 17.8535 19.1932C17.8535 18.2689 17.7569 17.4924 17.5637 16.8636C17.3705 16.2348 17.0978 15.7614 16.7455 15.4432C16.3933 15.1212 15.9766 14.9602 15.4955 14.9602C14.7721 14.9602 14.2001 15.3201 13.7796 16.0398C13.3592 16.7557 13.1471 17.8068 13.1433 19.1932C13.1395 20.1212 13.2323 20.9015 13.4217 21.5341C13.6149 22.1667 13.8876 22.6439 14.2399 22.9659C14.5921 23.2841 15.0107 23.4432 15.4955 23.4432ZM26.9192 13.3636V25H24.8113V15.4148H24.7431L22.0215 17.1534V15.2216L24.9136 13.3636H26.9192Z" fill="#1C2359"/>
</svg>
