<svg width="24" height="25" viewBox="0 0 24 25" fill="none" xmlns="http://www.w3.org/2000/svg">
<path d="M24 10.211V14.7891C24 15.1337 23.7208 15.4134 23.3757 15.4134H14.9134V23.8757C14.9134 24.2208 14.6337 24.5 14.2891 24.5H9.71098C9.36655 24.5 9.08669 24.2208 9.08669 23.8757V15.4134H0.62429C0.27938 15.4134 0 15.1337 0 14.7891V10.211C0 9.86628 0.27938 9.58669 0.62429 9.58669H9.08669V1.12429C9.08669 0.779242 9.36648 0.5 9.71098 0.5H14.2891C14.6337 0.5 14.9134 0.779242 14.9134 1.12429V9.58669H23.3757C23.7208 9.58669 24 9.86628 24 10.211Z" fill="#F96363"/>
</svg>
