<svg width="46" height="49" viewBox="0 0 46 49" fill="none" xmlns="http://www.w3.org/2000/svg">
<path d="M12.6498 2.78571C12.6498 1.52335 11.6201 0.5 10.3498 0.5C9.07955 0.5 8.0498 1.52335 8.0498 2.78571V5.07143C8.0498 6.33379 9.07955 7.35714 10.3498 7.35714C11.6201 7.35714 12.6498 6.33379 12.6498 5.07143V2.78571Z" fill="white"/>
<path d="M37.9496 2.78571C37.9496 1.52335 36.9199 0.5 35.6496 0.5C34.3794 0.5 33.3496 1.52335 33.3496 2.78571V5.07143C33.3496 6.33379 34.3794 7.35714 35.6496 7.35714C36.9199 7.35714 37.9496 6.33379 37.9496 5.07143V2.78571Z" fill="white"/>
<path d="M0 17.6431V43.9288C0 46.4534 2.05965 48.5002 4.6 48.5002H41.4C43.9403 48.5002 46 46.4534 46 43.9288V17.6431H0ZM13.8 40.5002C13.8 41.7631 12.7707 42.7859 11.5 42.7859H9.2C7.92925 42.7859 6.9 41.7631 6.9 40.5002V38.2145C6.9 36.9516 7.92925 35.9288 9.2 35.9288H11.5C12.7707 35.9288 13.8 36.9516 13.8 38.2145V40.5002ZM13.8 27.9288C13.8 29.1916 12.7707 30.2145 11.5 30.2145H9.2C7.92925 30.2145 6.9 29.1916 6.9 27.9288V25.6431C6.9 24.3802 7.92925 23.3574 9.2 23.3574H11.5C12.7707 23.3574 13.8 24.3802 13.8 25.6431V27.9288ZM26.45 40.5002C26.45 41.7631 25.4207 42.7859 24.15 42.7859H21.85C20.5792 42.7859 19.55 41.7631 19.55 40.5002V38.2145C19.55 36.9516 20.5792 35.9288 21.85 35.9288H24.15C25.4207 35.9288 26.45 36.9516 26.45 38.2145V40.5002ZM26.45 27.9288C26.45 29.1916 25.4207 30.2145 24.15 30.2145H21.85C20.5792 30.2145 19.55 29.1916 19.55 27.9288V25.6431C19.55 24.3802 20.5792 23.3574 21.85 23.3574H24.15C25.4207 23.3574 26.45 24.3802 26.45 25.6431V27.9288ZM39.1 40.5002C39.1 41.7631 38.0707 42.7859 36.8 42.7859H34.5C33.2292 42.7859 32.2 41.7631 32.2 40.5002V38.2145C32.2 36.9516 33.2292 35.9288 34.5 35.9288H36.8C38.0707 35.9288 39.1 36.9516 39.1 38.2145V40.5002ZM39.1 27.9288C39.1 29.1916 38.0707 30.2145 36.8 30.2145H34.5C33.2292 30.2145 32.2 29.1916 32.2 27.9288V25.6431C32.2 24.3802 33.2292 23.3574 34.5 23.3574H36.8C38.0707 23.3574 39.1 24.3802 39.1 25.6431V27.9288Z" fill="white"/>
<path d="M46 15.3573V8.50014C46 5.97557 43.9403 3.92871 41.4 3.92871H40.25V5.07157C40.25 7.59271 38.1869 9.643 35.65 9.643C33.1131 9.643 31.05 7.59271 31.05 5.07157V3.92871H14.95V5.07157C14.95 7.59271 12.8869 9.643 10.35 9.643C7.8131 9.643 5.75 7.59271 5.75 5.07157V3.92871H4.6C2.05965 3.92871 0 5.97557 0 8.50014V15.3573H46Z" fill="white"/>
</svg>
