<svg width="56" height="49" viewBox="0 0 56 49" fill="none" xmlns="http://www.w3.org/2000/svg">
<path d="M17.223 29.7291H26.243V26.0395H20.9127V17.4279C20.9127 13.5779 17.7917 10.457 13.9418 10.457H12.199H10.4563C6.60626 10.457 3.48535 13.578 3.48535 17.4279V19.2728H17.2231V29.7291H17.223Z" fill="white"/>
<path d="M27.8833 33.0098H17.2227V38.3402H24.3979V48.0414H29.7282V34.8546C29.7282 33.8373 28.9005 33.0098 27.8833 33.0098Z" fill="white"/>
<path d="M29.5244 29.9996C31.5485 30.6855 33.0099 32.6021 33.0099 34.8549V35.3997H36.2911V32.1185H39.5724V35.3997H42.8536V38.6809H39.5724V41.9622H36.2911V38.6809H33.0099V48.0416H56V26.0391H29.5244V29.9996Z" fill="white"/>
<path d="M42.0542 22.7577H52.5146V17.4274C52.5146 13.5774 49.3936 10.4565 45.5437 10.4565H43.8009H42.0581C38.7735 10.4565 36.0212 12.7289 35.2832 15.7868H41.1828L42.0542 22.7577Z" fill="white"/>
<path d="M43.8005 10.4565C46.688 10.4565 49.0287 8.11571 49.0287 5.22823C49.0287 2.34076 46.688 0 43.8005 0C40.913 0 38.5723 2.34076 38.5723 5.22823C38.5723 8.11571 40.913 10.4565 43.8005 10.4565Z" fill="white"/>
<path d="M12.1989 10.4565C15.0864 10.4565 17.4272 8.11571 17.4272 5.22823C17.4272 2.34076 15.0864 0 12.1989 0C9.31147 0 6.9707 2.34076 6.9707 5.22823C6.9707 8.11571 9.31147 10.4565 12.1989 10.4565Z" fill="white"/>
<path d="M38.7481 22.7575L38.2869 19.0679H29.9756L30.4367 22.7575H38.7481Z" fill="white"/>
<path d="M13.9419 22.5537H0V48.0417H3.28125V38.3405H10.6607V48.0417H13.9419V22.5537Z" fill="white"/>
</svg>
