<svg width="49" height="57" viewBox="0 0 49 57" fill="none" xmlns="http://www.w3.org/2000/svg">
<path d="M24.4998 32.2412C31.7959 32.2412 37.7099 21.1774 37.7099 13.8201C37.7099 6.46404 31.7959 0.5 24.4998 0.5C17.205 0.5 11.291 6.46404 11.291 13.8201C11.291 21.1774 17.205 32.2412 24.4998 32.2412Z" fill="white"/>
<path d="M39.6496 33.8141C40.158 34.9977 40.4538 36.4461 40.5191 38.1208C42.235 38.5173 43.5191 40.0651 43.5191 41.9135C43.5191 44.0603 41.7872 45.8069 39.6585 45.8069C37.5298 45.8069 35.7978 44.0603 35.7978 41.9135C35.7978 40.0861 37.054 38.5545 38.7396 38.1358C38.6654 36.4724 38.271 33.9417 36.6567 32.6922C35.8328 32.4772 34.9859 32.3215 34.1169 32.2412C34.0528 35.1552 24.5021 42.3466 24.5021 42.3466C24.5021 42.3466 14.9484 35.1564 14.8837 32.2424C13.9185 32.3311 12.9795 32.509 12.0725 32.7653C10.8947 33.7057 10.2853 35.4577 10.2538 38.0046C10.6001 38.2053 10.8799 38.5185 11.0515 38.8977C12.3202 39.502 13.441 40.7731 14.2992 42.5826C14.443 42.8869 14.462 43.2307 14.3562 43.5446C14.8706 44.8797 15.1646 46.3388 15.1646 47.5643C15.1646 49.2816 15.1646 50.9054 13.3085 51.3223C13.1078 51.4906 12.8559 51.5835 12.5916 51.5835H11.3515C10.7296 51.5835 10.2235 51.0719 10.2235 50.4466L10.2247 50.4023C10.2485 49.7973 10.7504 49.3091 11.3515 49.3091H12.5916C12.7187 49.3091 12.8429 49.3307 12.9628 49.3726C13.0377 49.3517 13.0614 49.3343 13.062 49.3337C13.1998 49.0869 13.1998 48.0591 13.1998 47.5655C13.1998 46.57 12.9527 45.3679 12.5197 44.2508C12.2952 44.122 12.1135 43.9273 12.0018 43.6919C11.2499 42.104 10.2271 41.0786 9.39677 41.0786C8.54742 41.0786 7.47356 42.1879 6.72459 43.8363C6.60223 44.1052 6.38782 44.3238 6.1241 44.455C5.73269 45.5236 5.51768 46.6239 5.51768 47.5649C5.51768 47.9794 5.51768 49.0791 5.67449 49.3379C5.67627 49.3379 5.71131 49.3595 5.80991 49.384C5.9382 49.3343 6.07599 49.3086 6.21379 49.3086H7.45633C8.03543 49.3086 8.5195 49.753 8.57771 50.331L8.58365 50.4011C8.58365 51.0725 8.0776 51.5841 7.45633 51.5841H6.21379C5.9673 51.5841 5.72913 51.5008 5.53312 51.3499C4.82336 51.2151 4.32325 50.8994 4.00668 50.3855C3.62298 49.7644 3.5529 48.9486 3.5529 47.5649C3.5529 46.3514 3.83087 44.9534 4.33572 43.6182C4.26148 43.3325 4.28643 43.0342 4.40997 42.7653C4.93561 41.6057 5.6044 40.6126 6.34327 39.8944C6.74953 39.4997 7.18609 39.1822 7.64283 38.9504C7.81389 38.5467 8.11086 38.2154 8.47377 38.0064C8.49277 36.4101 8.73629 35.0319 9.18651 33.8956C4.03222 36.5323 0.5 41.9249 0.5 48.1525C0.5 56.1106 6.26546 56.4999 13.8128 56.4999C14.6366 56.4999 15.48 56.4951 16.3418 56.4951H32.6558C33.5164 56.4951 34.3599 56.4999 35.1837 56.4999C42.7322 56.4999 48.5 56.1106 48.5 48.1525C48.4994 41.859 44.8918 36.4191 39.6496 33.8141Z" fill="white"/>
<path d="M40.9117 46.1875C41.9772 46.1875 42.8409 45.2936 42.8409 44.1909C42.8409 43.0882 41.9772 42.1943 40.9117 42.1943C39.8462 42.1943 38.9824 43.0882 38.9824 44.1909C38.9824 45.2936 39.8462 46.1875 40.9117 46.1875Z" fill="white"/>
</svg>
