<svg width="118" height="75" viewBox="0 0 118 75" fill="none" xmlns="http://www.w3.org/2000/svg">
<g opacity="0.1">
<path d="M26.4157 0C11.8386 0 0 12.0339 0 26.8221C0 36.8221 5.35054 45.8052 13.8609 50.4662C13.3974 55.0849 11.5437 64.5764 3.87599 66.6951C1.85373 67.2459 0.547694 69.1951 0.800475 71.2714C1.05326 73.3476 2.73847 74.9578 4.84498 75.0002H5.43481C9.26866 75.0002 30.4602 74.1527 44.1947 55.6357C53.0841 43.6018 55.7384 30.5933 51.6938 19.1102C48.2392 7.66951 38.0858 0 26.4157 0ZM37.3696 50.5933C31.8926 57.9662 24.8147 61.9493 18.7058 64.068C22.4133 56.6527 22.4133 48.39 22.4133 47.8391C22.4133 46.1442 21.3601 44.5764 19.7591 43.9408C12.8919 41.1018 8.42605 34.4069 8.42605 26.8221C8.42605 16.695 16.5151 8.4746 26.4157 8.4746C34.3362 8.4746 41.2034 13.7288 43.6048 21.7373C47.86 33.7713 41.5405 44.9577 37.3696 50.5933ZM116.153 19.1102C112.741 7.66951 102.629 0 90.9593 0C76.3822 0 64.5436 12.0339 64.5436 26.8221C64.5436 36.8221 69.8941 45.8052 78.4044 50.4662C77.941 55.0849 76.0873 64.5764 68.4196 66.6951C66.3973 67.2459 65.0913 69.1951 65.3441 71.2714C65.5968 73.3476 67.282 74.9578 69.3886 75.0002H69.9784C73.8122 75.0002 95.0038 74.1527 108.738 55.6357C117.543 43.6442 120.198 30.5933 116.153 19.1102ZM101.871 50.5933C96.3941 57.9662 89.3162 61.9493 83.2073 64.068C86.9148 56.6527 86.9148 48.39 86.9148 47.8391C86.9148 46.1442 85.8615 44.5764 84.2606 43.9408C77.3512 41.1442 72.8854 34.4492 72.8854 26.8645C72.8854 16.7373 80.9744 8.51697 90.875 8.51697C98.7955 8.51697 105.663 13.7712 108.064 21.7797C112.361 33.7713 106.042 44.9577 101.871 50.5933Z" fill="#FF1F3C"/>
</g>
</svg>
