<svg width="48" height="48" viewBox="0 0 48 48" fill="none" xmlns="http://www.w3.org/2000/svg">
<path d="M33.9298 33.6562V9.1875L25.6798 0.9375H2.8125C1.77686 0.9375 0.9375 1.77686 0.9375 2.8125V41.4375C0.9375 42.4731 1.77686 43.3125 2.8125 43.3125H32.0548C33.0905 43.3125 33.9298 42.4731 33.9298 41.4375V33.6562Z" fill="white"/>
<path d="M33.9297 9.1875L25.6797 0.9375V7.44141C25.6797 8.40564 26.4612 9.1875 27.4254 9.1875H33.9297Z" fill="#FFD89E"/>
<path d="M36.5621 22.3125L47.0625 25.5908V34.359C47.0625 40.5641 42.6566 45.8947 36.5625 47.0625C30.4688 45.8947 26.0625 40.5641 26.0625 34.359V25.5908L36.5629 22.3125" fill="#79B2FF"/>
<path d="M29.8125 28.3484V34.359C29.8125 38.5148 32.6107 42.13 36.5625 43.2151C40.5143 42.13 43.3125 38.5148 43.3125 34.359V28.3484L36.5625 26.2412L29.8125 28.3484Z" fill="white"/>
<path d="M23.9072 13.8739H20.1572V10.1239H15.6572V13.8739H11.9072V18.3739H15.6572V22.1239H20.1572V18.3739H23.9072V13.8739Z" fill="#F5737F"/>
<path d="M17.9072 38.0643C18.4247 38.0643 18.8447 37.6447 18.8447 37.1268C18.8447 36.609 18.4247 36.1893 17.9072 36.1893H6.65723C6.1394 36.1893 5.71973 36.609 5.71973 37.1268C5.71973 37.6447 6.1394 38.0643 6.65723 38.0643H17.9072Z" fill="black"/>
<path d="M47.3419 24.6958L36.8643 21.4248C36.7683 21.3922 36.6669 21.3746 36.5632 21.3746C36.5629 21.3746 36.5621 21.3746 36.5618 21.3746C36.4585 21.3746 36.3567 21.3922 36.2611 21.4244L34.8673 21.8599V9.1875C34.8673 8.92859 34.7622 8.69421 34.5927 8.52466L26.3427 0.274658C26.1731 0.104736 25.9387 0 25.6798 0H2.8125C1.2616 0 0 1.2616 0 2.8125V17.9062C0 18.4241 0.419678 18.8438 0.9375 18.8438C1.45532 18.8438 1.875 18.4241 1.875 17.9062V2.8125C1.875 2.29541 2.29541 1.875 2.8125 1.875H24.7423V7.44141C24.7423 8.92126 25.946 10.125 27.4255 10.125H32.9923V22.4451L25.7831 24.6958C25.3916 24.8181 25.125 25.1807 25.125 25.5908V25.6857H6.65735C6.13953 25.6857 5.71985 26.1053 5.71985 26.6232C5.71985 27.141 6.13953 27.5607 6.65735 27.5607H25.125V30.9375H6.65735C6.13953 30.9375 5.71985 31.3572 5.71985 31.875C5.71985 32.3928 6.13953 32.8125 6.65735 32.8125H25.125V34.3594C25.125 37.3176 26.0647 40.0939 27.6823 42.375H2.8125C2.29541 42.375 1.875 41.9546 1.875 41.4375V26.3438C1.875 25.8259 1.45532 25.4062 0.9375 25.4062C0.419678 25.4062 0 25.8259 0 26.3438V41.4375C0 42.9884 1.2616 44.25 2.8125 44.25H29.2775C31.1763 46.118 33.6204 47.4532 36.386 47.9832C36.4442 47.9945 36.5035 48 36.5625 48C36.6215 48 36.6808 47.9945 36.739 47.9832C43.2642 46.7329 48 41.0032 48 34.3594V25.5908C48 25.1807 47.7334 24.8181 47.3419 24.6958ZM27.4255 8.25C26.9799 8.25 26.6173 7.88745 26.6173 7.44141V3.20068L31.6663 8.25H27.4255ZM46.125 34.3594C46.125 40.0452 42.1146 44.9568 36.5625 46.1067C31.0104 44.9568 27 40.0452 27 34.3594V26.2804L36.5625 23.2947L46.125 26.2804V34.3594Z" fill="black"/>
<path d="M36.2831 25.3462L29.5331 27.4537C29.1416 27.576 28.875 27.9382 28.875 28.3484V34.359C28.875 38.9029 31.9343 42.9166 36.3142 44.1192C36.3955 44.1416 36.479 44.1526 36.5625 44.1526C36.646 44.1526 36.7295 44.1416 36.8108 44.1192C41.1907 42.9166 44.25 38.9029 44.25 34.3593V28.3487C44.25 27.9386 43.9834 27.576 43.5919 27.4537L36.8419 25.3462C36.6599 25.2894 36.4651 25.2894 36.2831 25.3462ZM42.375 29.0379V34.359C42.375 37.9746 39.9976 41.1782 36.5625 42.2387C33.1274 41.1782 30.75 37.9746 30.75 34.359V29.0379L36.5625 27.2234L42.375 29.0379Z" fill="black"/>
<path d="M34.2253 33.5951C33.8591 33.2289 33.2659 33.2289 32.8997 33.5951C32.5334 33.9613 32.5334 34.5549 32.8997 34.9207L35.0596 37.081C35.2427 37.2641 35.4825 37.3557 35.7224 37.3557C35.9623 37.3557 36.2021 37.2641 36.3853 37.081L40.2253 33.2409C40.5916 32.8747 40.5916 32.2811 40.2253 31.9149C39.8591 31.549 39.2659 31.549 38.8993 31.9149L35.7224 35.0921L34.2253 33.5951Z" fill="black"/>
<path d="M20.1572 9.1864H15.6572C15.1394 9.1864 14.7197 9.60645 14.7197 10.1239V12.9364H11.9072C11.3894 12.9364 10.9697 13.3564 10.9697 13.8739V18.3739C10.9697 18.8917 11.3894 19.3114 11.9072 19.3114H14.7197V22.1239C14.7197 22.6417 15.1394 23.0614 15.6572 23.0614H20.1572C20.6747 23.0614 21.0947 22.6417 21.0947 22.1239V19.3114H23.9072C24.4247 19.3114 24.8447 18.8917 24.8447 18.3739V13.8739C24.8447 13.3564 24.4247 12.9364 23.9072 12.9364H21.0947V10.1239C21.0947 9.60645 20.6747 9.1864 20.1572 9.1864ZM22.9697 14.8114V17.4364H20.1572C19.6394 17.4364 19.2197 17.8564 19.2197 18.3739V21.1864H16.5947V18.3739C16.5947 17.8564 16.1747 17.4364 15.6572 17.4364H12.8447V14.8114H15.6572C16.1747 14.8114 16.5947 14.3917 16.5947 13.8739V11.0614H19.2197V13.8739C19.2197 14.3917 19.6394 14.8114 20.1572 14.8114H22.9697Z" fill="black"/>
<path d="M0.9375 23.0625C1.18396 23.0625 1.42603 22.9622 1.60034 22.7878C1.77466 22.6135 1.875 22.3715 1.875 22.125C1.875 21.8785 1.77466 21.6365 1.60034 21.4622C1.42603 21.2878 1.18396 21.1875 0.9375 21.1875C0.69104 21.1875 0.448975 21.2878 0.274658 21.4622C0.100342 21.6365 0 21.8785 0 22.125C0 22.3715 0.100342 22.6135 0.274658 22.7878C0.448975 22.9622 0.69104 23.0625 0.9375 23.0625Z" fill="black"/>
</svg>
