<svg width="48" height="48" viewBox="0 0 48 48" fill="none" xmlns="http://www.w3.org/2000/svg">
<g clip-path="url(#clip0_186_3160)">
<mask id="mask0_186_3160" style="mask-type:luminance" maskUnits="userSpaceOnUse" x="0" y="0" width="48" height="48">
<path d="M48 0H0V48H48V0Z" fill="white"/>
</mask>
<g mask="url(#mask0_186_3160)">
<path d="M36.1254 13.8883L36.1266 16.6253C36.1269 17.1433 35.7072 17.5635 35.1893 17.5639L32.1879 17.5657C31.67 17.566 31.2498 17.1464 31.2495 16.6284L31.2483 13.8877L36.1254 13.8883Z" fill="#BCF1F8"/>
<path d="M36.1265 16.6257C36.1265 17.1432 35.7074 17.5641 35.189 17.5641H32.3765C32.8949 17.5641 33.314 17.1432 33.314 16.6257L33.313 14.7516L36.1255 14.7498L36.1265 16.6257Z" fill="#A0F0F2"/>
<path d="M43.125 42.1406V26.4691C43.125 24.929 42.1938 23.5418 40.7684 22.9584C39.7097 22.525 38.5119 22.5924 37.5085 23.1418L35.4253 24.2825C34.8667 24.5884 34.2398 24.7487 33.6029 24.7487H33.5222C32.8853 24.7487 32.2585 24.5884 31.6997 24.2825L29.6165 23.1418C28.6131 22.5925 27.4154 22.5251 26.3567 22.9584C24.9312 23.5418 24 24.929 24 26.4691V42.1406H43.125Z" fill="#FCF1F2"/>
<path d="M43.1249 26.4694V42.1406H40.3124V26.4694C40.3124 24.929 39.3814 23.5416 37.9556 22.9584C37.9452 22.9547 37.9358 22.95 37.9255 22.9462C38.3756 22.7662 38.8528 22.6763 39.3308 22.6763C39.8184 22.6763 40.3068 22.77 40.768 22.9584C42.194 23.5416 43.1249 24.929 43.1249 26.4694Z" fill="#F4E5E0"/>
<path d="M24 41.2031V26.4691C24 24.929 23.0688 23.5418 21.6434 22.9584C20.5847 22.525 19.3869 22.5924 18.3835 23.1418L16.3003 24.2825C15.7417 24.5884 15.1149 24.7487 14.4779 24.7487H14.3972C13.7602 24.7487 13.1334 24.5884 12.5748 24.2825L10.4916 23.1418C9.48816 22.5925 8.29042 22.5251 7.23168 22.9584C5.80621 23.5418 4.875 24.929 4.875 26.4691V41.2031H24Z" fill="#FCF1F2"/>
<path d="M23.9999 26.4694V41.2031H21.1874V26.4694C21.1874 24.929 20.2564 23.5416 18.8305 22.9584C18.8202 22.9547 18.8108 22.95 18.8005 22.9462C19.2505 22.7662 19.7277 22.6763 20.2058 22.6763C20.6933 22.6763 21.1817 22.77 21.643 22.9584C23.069 23.5416 23.9999 24.929 23.9999 26.4694Z" fill="#F4E5E0"/>
<path d="M42.1518 23.9325C41.9765 24.2841 41.4393 25.3659 40.8665 26.5172C39.9965 28.2685 38.2162 29.34 36.313 29.34C36.0027 29.34 35.6887 29.3119 35.3746 29.2528C32.9671 28.8028 31.2224 26.7009 31.2224 24.2522V24.0206L31.6996 24.2822C32.2584 24.5887 32.8855 24.749 33.5221 24.749H33.6027C34.2393 24.749 34.8665 24.5887 35.4252 24.2822L37.5084 23.1422C38.0737 22.8328 38.7018 22.6763 39.3308 22.6763C39.8184 22.6763 40.3068 22.77 40.768 22.9584C41.308 23.1797 41.7778 23.5163 42.1518 23.9325Z" fill="#E6D6D1"/>
<path d="M42.1518 23.9325C41.9765 24.2841 41.4393 25.3659 40.8665 26.5172C40.7099 26.8322 40.5234 27.1256 40.3124 27.3947V26.4694C40.3124 24.929 39.3814 23.5416 37.9556 22.9584C37.9452 22.9547 37.9358 22.95 37.9255 22.9462C38.3756 22.7662 38.8528 22.6763 39.3308 22.6763C39.8184 22.6763 40.3068 22.77 40.768 22.9584C41.308 23.1797 41.7777 23.5163 42.1518 23.9325Z" fill="#D3C6C3"/>
<path d="M28.3659 27.1518C28.3659 27.9243 28.1306 28.6574 27.7162 29.2696C27.301 29.8818 26.7075 30.3721 25.9894 30.6581L24 31.4512V26.4693C24 25.6986 24.2325 24.9674 24.6441 24.3553C25.0547 23.743 25.6443 23.2499 26.3569 22.9584C26.4741 22.9105 26.5931 22.8684 26.7141 22.8328L27.9985 25.528C28.2403 26.0353 28.3659 26.5902 28.3659 27.1518Z" fill="#E6D6D1"/>
<path d="M45.4218 46.8281H2.57813C1.54256 46.8281 0.703125 45.9887 0.703125 44.9531V35.5781C0.703125 34.5426 1.54256 33.7031 2.57813 33.7031H4.875L5.81484 36.0334C6.38438 37.4571 7.76325 38.3906 9.29664 38.3906H19.5861C21.1195 38.3906 22.4985 37.4571 23.0679 36.0334L24 33.7031L24.9321 36.0334C25.5016 37.4571 26.8805 38.3906 28.4139 38.3906H38.711C40.2444 38.3906 41.6234 37.4571 42.1928 36.0334L43.125 33.7031H45.4218C46.4574 33.7031 47.2969 34.5426 47.2969 35.5781V44.9531C47.2969 45.9887 46.4574 46.8281 45.4218 46.8281Z" fill="#FF8D95"/>
<path d="M47.2969 35.5781V44.9531C47.2969 45.9891 46.4578 46.8281 45.4218 46.8281H42.6094C43.6453 46.8281 44.4843 45.9891 44.4843 44.9531V35.5781C44.4843 34.7119 43.8975 33.9825 43.0987 33.7678L43.125 33.7031H45.4218C46.4578 33.7031 47.2969 34.5422 47.2969 35.5781Z" fill="#FF738A"/>
<path d="M30.2706 5.86088L21.092 4.89844C19.6051 4.74375 18.1979 4.1475 17.0523 3.1875L14.908 1.39078C14.7392 1.24941 14.526 1.17188 14.3059 1.17188H6.01145C5.57363 1.17188 5.37479 1.71872 5.71042 1.99988L13.2526 8.32032C15.572 10.2647 18.4576 11.4084 21.4792 11.5819L30.3387 12.0896L30.2706 5.86088Z" fill="#BCF1F8"/>
<path d="M25.3556 11.804L24.0815 11.7309L21.479 11.5819C18.4575 11.4084 15.5719 10.2647 13.2525 8.32026L11.5697 6.91029L11.2959 6.68058L12.4387 5.31464C12.7716 4.91808 13.3631 4.86652 13.7597 5.19839L14.7825 6.05621C16.6359 7.60869 18.9413 8.52275 21.3553 8.66154L24.4425 8.83873C24.9319 8.86684 25.3172 9.26716 25.3266 9.75745L25.3556 11.804Z" fill="#00DDF9"/>
<path d="M29.8347 3.87374L29.8409 13.8156C29.8412 14.3335 30.2614 14.7532 30.7794 14.7529L36.5945 14.7493C37.1124 14.749 37.5321 14.3288 37.5318 13.8108L37.5256 3.86896C37.5253 3.35099 37.1051 2.93127 36.5871 2.93164L30.772 2.93521C30.254 2.93549 29.8344 3.35567 29.8347 3.87374Z" fill="#736572"/>
<path d="M37.5318 13.8111C37.5318 14.3286 37.1118 14.7486 36.5943 14.7495H36.1255L33.313 14.7514V14.7495H33.7817C34.273 14.7486 34.6771 14.3698 34.7164 13.888C34.7184 13.8627 34.7193 13.8373 34.7193 13.8111L34.7127 3.86889C34.7127 3.37014 34.3237 2.96327 33.8324 2.93327L36.5868 2.9314C37.1052 2.9314 37.5252 3.35046 37.5252 3.86889L37.5318 13.8111Z" fill="#615260"/>
<path d="M45.4218 33.0004H43.8281V26.4695C43.8281 24.6361 42.7317 23.0027 41.0347 22.3079C39.774 21.7921 38.3657 21.8713 37.1709 22.5254L35.0877 23.6661C34.1579 24.1766 32.9673 24.1766 32.0375 23.6661L29.9543 22.5254C28.7595 21.8711 27.351 21.7917 26.0903 22.3081C25.2077 22.6694 24.4881 23.2851 24.0001 24.0504C23.5121 23.285 22.7925 22.6692 21.9099 22.3079C20.6491 21.7921 19.2408 21.8713 18.0459 22.5254L15.9627 23.6661C15.033 24.1766 13.8424 24.1766 12.9127 23.6661L10.8294 22.5254C9.63456 21.8711 8.22617 21.7917 6.96542 22.3081C5.26828 23.0027 4.17187 24.6361 4.17187 26.4695V33.0004H2.57813C1.1565 33.0004 0 34.1569 0 35.5786V44.9535C0 46.3751 1.1565 47.5316 2.57813 47.5316H4.875C5.26331 47.5316 5.57813 47.2169 5.57813 46.8285C5.57813 46.4401 5.26331 46.1254 4.875 46.1254H2.57813C1.9319 46.1254 1.40625 45.5997 1.40625 44.9535V35.5786C1.40625 34.9323 1.9319 34.4067 2.57813 34.4067H4.40043L5.16206 36.2948C5.84222 37.9954 7.46523 39.0941 9.29671 39.0941H19.5861C21.4177 39.0941 23.0407 37.9953 23.7208 36.2948L24.0001 35.5968L24.2794 36.2948C24.9595 37.9954 26.5825 39.0941 28.414 39.0941H38.7112C40.5427 39.0941 42.1657 37.9953 42.8459 36.2948L43.6013 34.4067H45.4218C46.0681 34.4067 46.5937 34.9323 46.5937 35.5786V44.9535C46.5937 45.5997 46.0681 46.1254 45.4218 46.1254H8.15623C7.76791 46.1254 7.4531 46.4401 7.4531 46.8285C7.4531 47.2169 7.76791 47.5316 8.15623 47.5316H45.4218C46.8435 47.5316 48 46.3751 48 44.9535V35.5786C48 34.1569 46.8435 33.0004 45.4218 33.0004ZM33.5222 25.4523H33.6028C34.3557 25.4523 35.1025 25.2612 35.7629 24.8996L37.8461 23.7589C38.6675 23.3092 39.6355 23.2549 40.502 23.6093C40.7931 23.7285 41.0584 23.888 41.293 24.0797L40.2368 26.204C39.3682 27.9512 37.422 28.9208 35.5044 28.5624C33.7474 28.2339 32.3989 26.8824 32.0279 25.194C32.5069 25.3628 33.0128 25.4523 33.5222 25.4523ZM26.3632 23.7316L27.3636 25.8308C27.5591 26.241 27.6625 26.6981 27.6625 27.1525C27.6625 28.4172 26.9035 29.5371 25.7288 30.0057L24.7031 30.4148V26.4697C24.7031 25.3061 25.3465 24.261 26.3632 23.7316ZM22.415 35.7727C21.9497 36.9361 20.8392 37.688 19.5861 37.688H9.29664C8.0435 37.688 6.93312 36.9361 6.46688 35.7708L5.57813 33.5671V26.4696C5.57813 25.2097 6.33178 24.087 7.49794 23.6095C8.36448 23.2549 9.3325 23.3095 10.1539 23.759L12.2371 24.8996C13.5793 25.6397 15.2957 25.6397 16.6379 24.8996L18.7211 23.759C19.5424 23.3093 20.5105 23.255 21.3769 23.6095C22.5432 24.087 23.2969 25.2096 23.2969 26.4696V33.5682L22.415 35.7727ZM41.5401 35.7727C41.0747 36.9361 39.9643 37.688 38.711 37.688H28.4139C27.1608 37.688 26.0504 36.9361 25.585 35.7727L24.7031 33.5682V31.9286L26.2497 31.3117C27.9623 30.6287 29.0688 28.996 29.0688 27.1524C29.0688 26.49 28.9181 25.8236 28.6331 25.2257L27.7529 23.3789C28.2787 23.3716 28.8034 23.4985 29.2789 23.7588L30.5234 24.4403C30.6106 27.1456 32.569 29.4442 35.2459 29.9447C35.5981 30.0106 35.9507 30.0425 36.3003 30.0425C38.4656 30.0424 40.5084 28.8168 41.4961 26.8301L42.2211 25.3717C42.3512 25.7154 42.4219 26.0859 42.4219 26.4695V33.5682L41.5401 35.7727Z" fill="#000D44"/>
<path d="M26.0295 19.0153C25.7467 18.7492 25.3017 18.7627 25.0356 19.0454C24.7695 19.3282 24.7829 19.7731 25.0657 20.0393L25.8527 20.78C26.135 21.0458 26.58 21.0331 26.8466 20.75C27.1128 20.4672 27.0993 20.0222 26.8166 19.756L26.0295 19.0153Z" fill="#000D44"/>
<path d="M30.3245 20.1777C30.5853 19.8899 30.5633 19.4453 30.2756 19.1845L27.7819 16.9251C27.4941 16.6642 27.0494 16.6862 26.7887 16.974C26.528 17.2617 26.55 17.7063 26.8377 17.9671L29.3314 20.2265C29.5753 20.4453 30.0672 20.4373 30.3245 20.1777Z" fill="#000D44"/>
<path d="M5.25856 2.53905L12.8007 8.85943C15.2193 10.887 18.287 12.1033 21.4386 12.2841L29.1369 12.7262L29.1375 13.8163C29.138 14.6414 29.7512 15.3239 30.5454 15.4378L30.5461 16.6291C30.5467 17.5336 31.2827 18.2692 32.1873 18.2692H32.1883L32.9858 18.2687L32.988 21.8462C32.9882 22.2344 33.303 22.5489 33.6912 22.5489C34.0795 22.5486 34.3946 22.2337 34.3943 21.8453L34.392 18.2678L35.1894 18.2673C35.6278 18.267 36.0399 18.0961 36.3496 17.7859C36.6594 17.4757 36.8298 17.0636 36.8295 16.6252L36.8288 15.4341C37.1781 15.3842 37.501 15.2254 37.7548 14.9713C38.0645 14.6612 38.2349 14.249 38.2346 13.8104L38.2291 8.82302C38.2287 8.4349 37.9141 8.12064 37.526 8.12064C37.5258 8.12064 37.5255 8.12064 37.5253 8.12064C37.1369 8.12112 36.8225 8.4362 36.8229 8.82452L36.8284 13.8116C36.8044 13.9736 36.7558 14.0225 36.5937 14.0465L30.7788 14.0501C30.6493 14.0501 30.5439 13.945 30.5439 13.8155L30.5377 3.87368C30.5376 3.74421 30.6429 3.63884 30.7723 3.63874L36.5873 3.63518C36.7492 3.65909 36.7982 3.70783 36.8222 3.86965L36.8229 5.5429C36.8231 5.93121 37.1378 6.24575 37.526 6.24575C37.9143 6.24555 38.2293 5.93064 38.2291 5.54234L38.2285 3.8689C38.2282 3.43052 38.0573 3.01859 37.7471 2.70884C37.4371 2.39927 37.0254 2.22893 36.5875 2.22893C36.5872 2.22893 36.5867 2.22893 36.5863 2.22893L30.7712 2.23249C29.8664 2.23315 29.1307 2.96974 29.1312 3.87462L29.132 5.03008L21.1644 4.19937C19.812 4.05865 18.5461 3.52249 17.5035 2.64884L15.3595 0.852308C15.0646 0.605086 14.6905 0.469055 14.3056 0.469055H6.01128C4.94806 0.429399 4.41837 1.88684 5.25856 2.53905ZM35.1887 16.8612L32.1875 16.8631C32.0581 16.8631 31.9527 16.7578 31.9525 16.6284L31.9518 15.4557L35.4227 15.4536L35.4235 16.6263C35.4233 16.78 35.3311 16.863 35.1887 16.8612ZM13.704 7.78176L12.2856 6.59309L12.9779 5.76705C13.1003 5.65849 13.1687 5.65221 13.3081 5.7379L14.3311 6.59524C16.2868 8.23426 18.767 9.21764 21.3148 9.3637L24.4022 9.54096C24.5239 9.54802 24.6209 9.64889 24.6232 9.77067L24.6467 11.0599L21.5193 10.8803C18.6678 10.7166 15.8923 9.61625 13.704 7.78176ZM14.3056 1.8753C14.3605 1.8753 14.414 1.89471 14.4561 1.93006L16.6004 3.72668C17.8586 4.78109 19.3866 5.42815 21.0187 5.59811L29.1329 6.44412L29.136 11.3177L26.0546 11.1407L26.0291 9.74489C26.0135 8.89214 25.3343 8.18592 24.4828 8.13703L21.3953 7.95977C19.1477 7.83079 16.9598 6.96343 15.2343 5.5174L14.2113 4.66006C13.8754 4.37852 13.45 4.24493 13.0134 4.28309C12.577 4.32152 12.1815 4.52768 11.9001 4.86358L11.2078 5.68971L6.65591 1.8753H14.3056Z" fill="#000D44"/>
<path d="M40.278 20.7498C40.5446 21.0329 40.9896 21.0457 41.2719 20.7798L42.059 20.0391C42.3417 19.7729 42.3552 19.328 42.0891 19.0451C41.8229 18.7625 41.3779 18.7489 41.0952 19.0152L40.3081 19.7559C40.0254 20.0221 40.0119 20.467 40.278 20.7498Z" fill="#000D44"/>
<path d="M36.8003 20.1776C37.0617 20.466 37.5065 20.4867 37.7935 20.2264L40.2871 17.9671C40.5749 17.7064 40.5969 17.2618 40.3361 16.9739C40.0753 16.6862 39.6307 16.6642 39.3429 16.9251L36.8492 19.1844C36.5614 19.4451 36.5395 19.8898 36.8003 20.1776Z" fill="#000D44"/>
</g>
</g>
<defs>
<clipPath id="clip0_186_3160">
<rect width="48" height="48" fill="white"/>
</clipPath>
</defs>
</svg>
