<svg width="48" height="48" viewBox="0 0 48 48" fill="none" xmlns="http://www.w3.org/2000/svg">
<path d="M26 8V6C30.0668 4.17194 34.4758 3.22924 38.9346 3.2344C40.6957 3.23634 42.4538 3.37805 44.1924 3.6582C44.701 3.74227 45.1627 4.00544 45.4942 4.40017C45.8257 4.79489 46.0051 5.29516 46 5.8106C46.0006 6.38983 45.7715 6.94566 45.3628 7.35612C44.9541 7.76658 44.3992 7.99814 43.82 8H26Z" fill="#EDF2FF"/>
<path d="M24 45.9999C17.766 45.9988 11.5412 45.5211 5.37996 44.5711C4.43493 44.4274 3.57323 43.9483 2.95255 43.2213C2.33187 42.4943 1.99371 41.5682 1.99996 40.6123C1.98439 38.1699 2.87277 35.808 4.49411 33.9813C6.11546 32.1546 8.35516 30.9922 10.7822 30.7177C19.5415 29.7689 28.3776 29.766 37.1376 30.7089C39.5775 30.9738 41.833 32.1325 43.4694 33.9616C45.1058 35.7907 46.0072 38.1608 46 40.6151C45.9999 41.5783 45.6528 42.5092 45.0221 43.2372C44.3915 43.9653 43.5197 44.4416 42.5664 44.5791C36.4226 45.5229 30.2158 45.9979 24 45.9999Z" fill="#F96363"/>
<path d="M10.62 45.0601C12.1 45.2801 13.6 45.5 15.1 45.66C11.84 45.44 8.59999 45.0801 5.37999 44.5801C4.43669 44.4321 3.57744 43.9515 2.95754 43.2252C2.33765 42.499 1.998 41.5749 1.99999 40.62C1.98307 38.1771 2.87056 35.8142 4.49157 33.9864C6.11258 32.1586 8.35248 30.9951 10.78 30.72C12.36 30.54 13.94 30.4 15.54 30.3C13.0945 30.6974 10.8716 31.9559 9.27253 33.8483C7.67347 35.7408 6.80362 38.1425 6.81999 40.62C6.81328 41.6935 7.19382 42.7333 7.8918 43.5489C8.58979 44.3644 9.55841 44.9009 10.62 45.0601Z" fill="#F96363"/>
<path d="M22 6H26V8H22V6Z" fill="#807A6E"/>
<path d="M22 6H24V8H22V6Z" fill="#524D46"/>
<path d="M17 8C16.7348 8 16.4804 7.89464 16.2929 7.70711C16.1054 7.51957 16 7.26522 16 7V5C16 4.20435 16.3161 3.44129 16.8787 2.87868C17.4413 2.31607 18.2044 2 19 2C19.7956 2 20.5587 2.31607 21.1213 2.87868C21.6839 3.44129 22 4.20435 22 5V8H17Z" fill="#EDF2FF"/>
<path d="M17 12C16.7348 12 16.4804 11.8946 16.2929 11.7071C16.1054 11.5196 16 11.2652 16 11C16 10.7348 16.1054 10.4804 16.2929 10.2929C16.4804 10.1054 16.7348 10 17 10H21C21.2652 10 21.5196 10.1054 21.7071 10.2929C21.8946 10.4804 22 10.7348 22 11C22 11.2652 21.8946 11.5196 21.7071 11.7071C21.5196 11.8946 21.2652 12 21 12H17Z" fill="#EDF2FF"/>
<path d="M18 5.00002V7.00002C17.9977 7.18482 18.0318 7.36826 18.1005 7.53986C18.1691 7.71145 18.2709 7.86782 18.4 8.00002H17C16.8684 8.00133 16.7377 7.97636 16.6158 7.92657C16.4939 7.87678 16.3831 7.80317 16.29 7.71005C16.1969 7.61693 16.1233 7.50617 16.0735 7.38425C16.0237 7.26234 15.9987 7.13171 16 7.00002V5.00002C15.9995 4.60591 16.0768 4.21557 16.2273 3.85135C16.3779 3.48714 16.5989 3.15621 16.8776 2.87753C17.1562 2.59885 17.4872 2.37789 17.8514 2.22731C18.2156 2.07674 18.6059 1.9995 19 2.00002C19.2082 1.99919 19.4159 2.01929 19.62 2.06002C19.1245 2.37419 18.7162 2.80834 18.433 3.32226C18.1498 3.83618 18.0009 4.41325 18 5.00002Z" fill="#C6DBF2"/>
<path d="M18 11C17.9977 11.1848 18.0318 11.3682 18.1004 11.5398C18.1691 11.7114 18.2709 11.8678 18.4 12H17C16.7348 12 16.4804 11.8946 16.2929 11.7071C16.1054 11.5196 16 11.2652 16 11C16 10.7348 16.1054 10.4804 16.2929 10.2929C16.4804 10.1054 16.7348 10 17 10H18.4C18.2709 10.1322 18.1691 10.2886 18.1004 10.4602C18.0318 10.6318 17.9977 10.8152 18 11Z" fill="#C6DBF2"/>
<path d="M16.294 41.9979C16.0841 41.9984 15.8794 41.9325 15.7092 41.8098C15.5389 41.687 15.4117 41.5136 15.3458 41.3143L13.8 36.6815C13.7341 36.4822 13.607 36.3088 13.4367 36.1861C13.2664 36.0633 13.0617 35.9975 12.8518 35.9979H12.294C12.0838 35.9974 11.8788 36.0635 11.7085 36.1867C11.5382 36.3098 11.4112 36.4838 11.3458 36.6835L9.8 41.3143C9.73405 41.5136 9.60688 41.687 9.43662 41.8097C9.26636 41.9325 9.0617 41.9983 8.8518 41.9979H8.3174C8.10263 41.9971 7.89379 41.9274 7.72154 41.7991C7.5493 41.6708 7.42272 41.4907 7.3604 41.2851L5.17 33.9863C4.81507 32.8363 4.34956 31.7233 3.78 30.6629C1.98615 27.4065 1.55237 23.5729 2.5732 19.9979C2.73174 19.4954 2.92158 19.0032 3.1416 18.5243C3.63107 17.4769 4.40983 16.5913 5.38605 15.9719C6.36228 15.3524 7.49525 15.0251 8.6514 15.0283C9.32486 15.0289 9.99386 15.1377 10.6328 15.3505C11.893 15.7704 13.2554 15.7704 14.5156 15.3505C15.1531 15.1387 15.8205 15.0307 16.4922 15.0305C17.6486 15.0273 18.7819 15.3545 19.7585 15.9738C20.7352 16.593 21.5145 17.4784 22.0048 18.5257C22.2248 19.0046 22.4147 19.4968 22.5732 19.9993C23.594 23.5743 23.1601 27.4079 21.3662 30.6643C20.7968 31.7247 20.3314 32.8377 19.9766 33.9877L17.7872 41.2851C17.7245 41.4907 17.5977 41.6707 17.4253 41.799C17.253 41.9272 17.0441 41.997 16.8292 41.9979H16.294Z" fill="#EDF2FF"/>
<path d="M11.1399 37.28L9.79991 41.32C9.73203 41.5162 9.60539 41.6867 9.4372 41.8084C9.26902 41.93 9.06746 41.9969 8.85991 42H8.31991C8.10386 41.9987 7.89394 41.9281 7.72109 41.7984C7.54825 41.6688 7.42163 41.4871 7.35991 41.28L5.15991 33.98C4.81659 32.8284 4.35409 31.7157 3.77991 30.66C1.98838 27.4044 1.55701 23.5725 2.57991 20C2.73685 19.496 2.92385 19.0017 3.13991 18.52C3.63145 17.4717 4.41199 16.5855 5.38981 15.9655C6.36763 15.3455 7.5021 15.0175 8.65991 15.02C9.33393 15.0258 10.0026 15.1406 10.6399 15.36C10.7199 15.38 10.7799 15.4 10.8599 15.42C9.68896 16.0812 8.7577 17.0965 8.19991 18.32C7.96216 18.811 7.7616 19.3191 7.59991 19.84C6.54404 23.5464 6.98948 27.5195 8.83991 30.9C9.39361 31.9351 9.84894 33.0199 10.1999 34.14L11.1399 37.28Z" fill="#DAE3F2"/>
<path d="M39.1463 42.0058C38.9364 42.0062 38.7317 41.9403 38.5615 41.8175C38.3912 41.6948 38.264 41.5214 38.1981 41.3222L36.6533 36.6894C36.5874 36.49 36.4602 36.3166 36.2899 36.1938C36.1196 36.0711 35.9148 36.0053 35.7049 36.0058H35.1463C34.9361 36.0053 34.7311 36.0714 34.5608 36.1945C34.3905 36.3177 34.2635 36.4916 34.1981 36.6914L32.6533 41.3222C32.5873 41.5215 32.4601 41.6948 32.2898 41.8176C32.1195 41.9403 31.9148 42.0062 31.7049 42.0058H31.1699C30.9551 42.0049 30.7462 41.9352 30.5739 41.8069C30.4016 41.6786 30.275 41.4985 30.2127 41.293L28.0223 33.9942C27.6675 32.8441 27.2021 31.7311 26.6327 30.6708C24.8388 27.4143 24.4049 23.5807 25.4257 20.0058C25.5842 19.5032 25.7741 19.011 25.9941 18.5322C26.4835 17.4847 27.2623 16.5991 28.2385 15.9797C29.2147 15.3603 30.3477 15.0329 31.5039 15.0362C32.1773 15.0367 32.8463 15.1455 33.4853 15.3584C34.7455 15.7782 36.1079 15.7782 37.3681 15.3584C38.0056 15.1465 38.6729 15.0385 39.3447 15.0384C40.501 15.0351 41.6343 15.3623 42.6109 15.9815C43.5876 16.6007 44.3669 17.4861 44.8573 18.5334C45.0773 19.0122 45.2671 19.5044 45.4257 20.007C46.4464 23.5819 46.0126 27.4155 44.2187 30.672C43.6492 31.7322 43.1838 32.8453 42.8291 33.9954L40.6399 41.293C40.5772 41.4985 40.4504 41.6786 40.278 41.8068C40.1057 41.9351 39.8967 42.0048 39.6819 42.0058H39.1463Z" fill="#EDF2FF"/>
<path d="M34 37.3201L32.66 41.3201C32.5936 41.5212 32.4646 41.6957 32.2918 41.8181C32.1191 41.9404 31.9116 42.0042 31.7 42.0001H31.16C30.9489 41.9997 30.7436 41.9314 30.5744 41.8053C30.4051 41.6793 30.2809 41.5022 30.22 41.3001L28.02 34.0001C27.6628 32.8535 27.2008 31.7421 26.64 30.6801C24.8407 27.4203 24.4022 23.5817 25.42 20.0001C25.5803 19.501 25.7741 19.0132 26 18.5401C26.6406 17.1857 27.7563 16.1137 29.1351 15.5275C30.514 14.9413 32.0601 14.8817 33.48 15.3601C33.54 15.3801 33.6 15.4001 33.68 15.4201C32.528 16.0989 31.6078 17.1096 31.04 18.3201C30.8022 18.8111 30.6017 19.3192 30.44 19.8401C29.3841 23.5465 29.8295 27.5196 31.68 30.9001C32.2337 31.9352 32.689 33.0199 33.04 34.1401L34 37.3201Z" fill="#DAE3F2"/>
<path d="M10.9341 16.06L8.99609 15L10.9341 13.94L11.9961 12L13.0561 13.94L14.9961 15L13.0561 16.06L11.9961 18L10.9341 16.06Z" fill="#F0E486"/>
<path d="M16.1139 21.9481L13.0559 20.5341L16.1139 19.1181L17.5279 16.0601L18.9419 19.1181L21.9999 20.5341L18.9419 21.9481L17.5279 25.0041L16.1139 21.9481Z" fill="#F0E486"/>
<path d="M12.06 16.42L12.46 17.16L12 18L10.94 16.06L9 15L10.94 13.94L12 12L12.46 12.84L12.06 13.58L10.26 14.56C10.1813 14.6034 10.1156 14.6671 10.0699 14.7445C10.0242 14.8219 10.0001 14.9101 10.0001 15C10.0001 15.0899 10.0242 15.1781 10.0699 15.2555C10.1156 15.3329 10.1813 15.3966 10.26 15.44L12.06 16.42Z" fill="#D9CE79"/>
<path d="M17.2401 22.3001L18.0001 23.9601L17.5201 25.0001L16.1201 21.9401L13.0601 20.5401L16.1201 19.1201L17.5201 16.0601L18.0001 17.0801L17.2401 18.7201L14.3401 20.0601C14.2534 20.1008 14.1806 20.1661 14.1308 20.2479C14.081 20.3297 14.0564 20.4244 14.0601 20.5201C14.0594 20.6126 14.0854 20.7033 14.1351 20.7814C14.1848 20.8595 14.2559 20.9215 14.3401 20.9601L17.2401 22.3001Z" fill="#D9CE79"/>
<path d="M17 9.5C16.6022 9.5 16.2206 9.65804 15.9393 9.93934C15.658 10.2206 15.5 10.6022 15.5 11C15.5 11.3978 15.658 11.7794 15.9393 12.0607C16.2206 12.342 16.6022 12.5 17 12.5H21C21.3978 12.5 21.7794 12.342 22.0607 12.0607C22.342 11.7794 22.5 11.3978 22.5 11C22.5 10.6022 22.342 10.2206 22.0607 9.93934C21.7794 9.65804 21.3978 9.5 21 9.5H19.5V8.5H43.82C44.532 8.49867 45.2143 8.2146 45.7169 7.71026C46.2195 7.20592 46.5012 6.5226 46.5 5.8106C46.5057 5.17629 46.2843 4.56086 45.8757 4.07562C45.4671 3.59038 44.8984 3.26737 44.2724 3.165L44.0752 3.1338C43.7998 3.0878 43.6446 3.2938 43.6026 3.5654C43.6025 3.70816 43.6541 3.84612 43.7478 3.95382C43.8415 4.06153 43.971 4.1317 44.1124 4.1514C44.5265 4.22634 44.8976 4.45326 45.1531 4.78766C45.4085 5.12206 45.5298 5.53983 45.4932 5.95904C45.4566 6.37825 45.2647 6.76867 44.9552 7.05374C44.6457 7.3388 44.2408 7.49796 43.82 7.5H26.5V6.341C31.3528 4.20213 36.6759 3.35337 41.9532 3.877C42.0846 3.88643 42.2147 3.84478 42.3161 3.76073C42.4176 3.67667 42.4828 3.5567 42.498 3.4258C42.5102 3.29375 42.4696 3.16224 42.385 3.06009C42.3004 2.95794 42.1788 2.89347 42.0468 2.8808C38.6493 2.5558 35.2218 2.76875 31.8906 3.5118C29.8359 3.97669 27.8319 4.64263 25.9076 5.5H22.5V5C22.5 4.07174 22.1313 3.1815 21.4749 2.52513C20.8185 1.86875 19.9283 1.5 19 1.5C18.0717 1.5 17.1815 1.86875 16.5251 2.52513C15.8687 3.1815 15.5 4.07174 15.5 5V7C15.5004 7.39769 15.6586 7.77898 15.9398 8.06019C16.221 8.3414 16.6023 8.49958 17 8.5H18.5V9.5H17ZM22.5 6.5H25.5V7.5H22.5V6.5ZM17 7.5C16.8674 7.5 16.7402 7.44732 16.6464 7.35355C16.5527 7.25979 16.5 7.13261 16.5 7V5C16.5 4.33696 16.7634 3.70107 17.2322 3.23223C17.7011 2.76339 18.337 2.5 19 2.5C19.663 2.5 20.2989 2.76339 20.7678 3.23223C21.2366 3.70107 21.5 4.33696 21.5 5V7.5H17ZM21 10.5C21.1326 10.5 21.2598 10.5527 21.3536 10.6464C21.4473 10.7402 21.5 10.8674 21.5 11C21.5 11.1326 21.4473 11.2598 21.3536 11.3536C21.2598 11.4473 21.1326 11.5 21 11.5H17C16.8674 11.5 16.7402 11.4473 16.6464 11.3536C16.5527 11.2598 16.5 11.1326 16.5 11C16.5 10.8674 16.5527 10.7402 16.6464 10.6464C16.7402 10.5527 16.8674 10.5 17 10.5H21Z" fill="#231F20"/>
<path d="M43.5818 33.3654C43.8824 32.5184 44.2424 31.6937 44.6592 30.8974C46.5153 27.5231 46.9613 23.5516 45.9 19.8496C45.7354 19.327 45.5381 18.8153 45.3092 18.3174C44.6196 16.8466 43.4113 15.6822 41.916 15.0473C40.4207 14.4125 38.7437 14.352 37.2066 14.8774C36.0491 15.263 34.7977 15.263 33.6402 14.8774C32.2071 14.3947 30.6521 14.416 29.2328 14.9379C27.8134 15.4598 26.615 16.4509 25.836 17.747C25.7689 17.8615 25.75 17.9979 25.7835 18.1263C25.817 18.2547 25.9001 18.3645 26.0146 18.4316C26.1291 18.4987 26.2655 18.5176 26.3939 18.4841C26.5223 18.4506 26.6321 18.3675 26.6992 18.253C27.3605 17.153 28.3784 16.3124 29.5836 15.871C30.7889 15.4297 32.1089 15.4143 33.3242 15.8272C34.6877 16.2795 36.1607 16.2795 37.5242 15.8272C38.8274 15.3773 40.2511 15.4254 41.5209 15.9624C42.7908 16.4993 43.8171 17.487 44.4022 18.7354C44.6131 19.1954 44.7953 19.668 44.948 20.1504C45.9277 23.5984 45.5062 27.2938 43.7752 30.4326C43.191 31.5214 42.7135 32.6641 42.3494 33.8448L40.16 41.1436C40.1284 41.2464 40.0648 41.3365 39.9785 41.4006C39.8921 41.4647 39.7876 41.4995 39.68 41.5H39.145C39.0401 41.5004 38.9377 41.4675 38.8526 41.4061C38.7675 41.3447 38.704 41.2579 38.6712 41.1582L37.1264 36.5254C37.0271 36.2267 36.8362 35.9668 36.5808 35.7828C36.3254 35.5987 36.0184 35.4998 35.7036 35.5H35.145C34.8302 35.4997 34.5232 35.5986 34.2677 35.7827C34.0123 35.9668 33.8214 36.2267 33.722 36.5254L32.1772 41.1582C32.1445 41.2579 32.081 41.3447 31.9959 41.4061C31.9109 41.4675 31.8085 41.5004 31.7036 41.5H31.168C31.0605 41.4995 30.9559 41.4646 30.8696 41.4005C30.7832 41.3364 30.7196 41.2464 30.688 41.1436L28.5 33.8448C28.136 32.6641 27.6585 31.5214 27.0742 30.4326C25.3434 27.2938 24.9219 23.5985 25.9014 20.1504C25.924 20.0871 25.9336 20.0199 25.9296 19.9527C25.9256 19.8856 25.9081 19.82 25.8781 19.7598C25.8481 19.6996 25.8064 19.646 25.7552 19.6024C25.7041 19.5587 25.6447 19.5258 25.5806 19.5056C25.5164 19.4854 25.4489 19.4784 25.3819 19.4849C25.315 19.4914 25.2501 19.5114 25.1911 19.5436C25.132 19.5758 25.0801 19.6195 25.0384 19.6723C24.9966 19.725 24.966 19.7856 24.9482 19.8504C23.9999 23.0442 24.2152 26.4707 25.5558 29.5206C24.5358 29.4856 23.5048 29.4858 22.4458 29.5216C23.7867 26.4715 24.0022 23.0445 23.0538 19.8504C22.8891 19.3279 22.6918 18.8161 22.463 18.3182C21.8477 17.0035 20.8133 15.9303 19.5223 15.2668C18.2312 14.6033 16.7564 14.3872 15.3292 14.6522C15.3022 14.6179 15.2706 14.5875 15.2354 14.5616L13.4238 13.5712L12.4336 11.76C12.3866 11.6863 12.3218 11.6256 12.2452 11.5836C12.1685 11.5416 12.0825 11.5195 11.9951 11.5195C11.9077 11.5195 11.8217 11.5416 11.7451 11.5836C11.6684 11.6256 11.6036 11.6863 11.5566 11.76L10.5664 13.5714L8.75481 14.5618C7.4904 14.5379 6.24583 14.8785 5.16978 15.543C4.09373 16.2074 3.23168 17.1675 2.68661 18.3086C2.67406 18.3346 2.66421 18.3617 2.65721 18.3896C2.44278 18.8649 2.25659 19.3524 2.09961 19.8496C1.03819 23.5516 1.48409 27.5231 3.34001 30.8974C3.75848 31.6968 4.11972 32.5249 4.42101 33.3754C2.54319 35.3191 1.49559 37.9174 1.50001 40.62C1.50342 41.4083 1.71263 42.182 2.10691 42.8645C2.5012 43.5471 3.06689 44.1149 3.74801 44.5116C3.82433 44.5567 3.91139 44.5803 4.00001 44.58C4.1098 44.5799 4.21651 44.5437 4.30366 44.4769C4.39082 44.4102 4.45357 44.3166 4.48224 44.2106C4.5109 44.1046 4.50389 43.9921 4.46229 43.8905C4.42068 43.7889 4.34678 43.7039 4.25201 43.6484C3.71921 43.3376 3.27712 42.8926 2.96974 42.3577C2.66236 41.8229 2.50041 41.2169 2.50001 40.6C2.50604 38.3491 3.32156 36.1754 4.79761 34.476L6.88381 41.4306C6.97762 41.7389 7.16765 42.009 7.4261 42.2015C7.68454 42.3939 7.9978 42.4985 8.32001 42.5H8.85501C9.16987 42.5004 9.47683 42.4014 9.73228 42.2174C9.98773 42.0333 10.1787 41.7734 10.278 41.4746L11.8228 36.8418C11.8555 36.7422 11.919 36.6554 12.0041 36.594C12.0892 36.5326 12.1915 36.4997 12.2964 36.5H12.855C12.96 36.4997 13.0623 36.5326 13.1474 36.594C13.2326 36.6554 13.296 36.7421 13.3288 36.8418L14.8736 41.4746C14.9729 41.7734 15.1639 42.0332 15.4193 42.2173C15.6747 42.4014 15.9816 42.5003 16.2964 42.5H16.832C17.1543 42.4986 17.4676 42.394 17.7261 42.2015C17.9847 42.0091 18.1748 41.7389 18.2686 41.4306L20.458 34.1318C20.8042 33.0127 21.2575 31.9296 21.8116 30.8974C21.8682 30.7896 21.9296 30.653 21.9886 30.5342C22.667 30.508 23.3272 30.5 23.9794 30.5C24.627 30.4788 25.3278 30.5032 26.0114 30.534C26.0714 30.6528 26.1314 30.7896 26.1884 30.8974C26.7425 31.9296 27.1958 33.0127 27.542 34.1318L29.7314 41.4306C29.8253 41.7389 30.0154 42.0091 30.2739 42.2015C30.5324 42.394 30.8457 42.4986 31.168 42.5H31.7032C32.018 42.5003 32.3249 42.4014 32.5804 42.2173C32.8358 42.0332 33.0267 41.7734 33.126 41.4746L34.6708 36.8418C34.7036 36.7421 34.7671 36.6554 34.8522 36.594C34.9373 36.5326 35.0397 36.4997 35.1446 36.5H35.7032C35.8081 36.4997 35.9105 36.5326 35.9955 36.594C36.0806 36.6554 36.1441 36.7422 36.1768 36.8418L37.7216 41.4746C37.8209 41.7734 38.0119 42.0333 38.2674 42.2174C38.5228 42.4014 38.8298 42.5004 39.1446 42.5H39.68C40.0023 42.4986 40.3157 42.394 40.5742 42.2016C40.8327 42.0091 41.0228 41.739 41.1166 41.4306L43.2084 34.4574C44.6803 36.1741 45.4927 38.3588 45.5 40.62C45.4991 41.4644 45.1933 42.28 44.6388 42.9168C44.0844 43.5536 43.3186 43.9688 42.4824 44.0858C30.4185 45.9355 18.1452 45.9625 6.07321 44.1658C6.0069 44.1529 5.93866 44.1536 5.87261 44.1678C5.80657 44.182 5.74408 44.2095 5.68894 44.2485C5.63379 44.2875 5.58712 44.3373 5.55175 44.3948C5.51638 44.4524 5.49304 44.5165 5.48314 44.5834C5.47324 44.6502 5.47698 44.7183 5.49415 44.7837C5.51131 44.849 5.54154 44.9102 5.583 44.9635C5.62447 45.0169 5.67631 45.0612 5.7354 45.094C5.7945 45.1267 5.85961 45.1472 5.92681 45.154C11.9099 46.0465 17.9507 46.4964 24 46.5C30.239 46.5025 36.4689 46.0259 42.6348 45.0742C43.7077 44.9222 44.6896 44.3879 45.3998 43.5694C46.11 42.751 46.5007 41.7036 46.5 40.62C46.4977 38.0431 45.5502 35.5566 43.837 33.6316C43.76 33.5428 43.668 33.4544 43.5818 33.3654ZM21.5538 18.7354C21.7397 19.1482 21.9027 19.5708 22.0422 20.0014L19.32 18.7412L17.9824 15.8506C17.9489 15.79 17.9028 15.7372 17.8472 15.6958C18.6542 15.8903 19.4068 16.2647 20.0486 16.7911C20.6905 17.3175 21.2051 17.9822 21.5538 18.7354ZM18.4882 19.3282C18.5383 19.4358 18.6248 19.5223 18.7324 19.5722L20.8096 20.5332L18.7324 21.4932C18.6247 21.5432 18.5382 21.6297 18.4882 21.7374L17.5282 23.8144L16.5672 21.7374C16.5172 21.6297 16.4307 21.5432 16.323 21.4932L14.2458 20.5332L16.323 19.5722C16.4306 19.5223 16.5171 19.4358 16.5672 19.3282L17.5282 17.251L18.4882 19.3282ZM11.1748 14.378C11.2585 14.3324 11.3273 14.2637 11.373 14.18L11.9952 13.0424L12.6172 14.18C12.6628 14.2638 12.7317 14.3327 12.8154 14.3784L13.9532 15.0004L12.8154 15.6224C12.7317 15.6682 12.6628 15.737 12.6172 15.8208L11.9952 16.9584L11.373 15.82C11.3274 15.7362 11.2586 15.6674 11.1748 15.6216L10.0372 15L11.1748 14.378ZM20.9268 30.4326C20.3426 31.5214 19.8651 32.6641 19.501 33.8448L17.3116 41.1436C17.28 41.2464 17.2164 41.3364 17.13 41.4005C17.0437 41.4646 16.9392 41.4995 16.8316 41.5H16.2968C16.1919 41.5004 16.0896 41.4675 16.0045 41.4061C15.9194 41.3447 15.8559 41.2579 15.8232 41.1582L14.2784 36.5254C14.1791 36.2267 13.9881 35.9668 13.7327 35.7827C13.4772 35.5986 13.1703 35.4997 12.8554 35.5H12.2968C11.982 35.4998 11.6751 35.5987 11.4197 35.7828C11.1643 35.9668 10.9733 36.2267 10.874 36.5254L9.32921 41.1582C9.29644 41.2579 9.23295 41.3447 9.14784 41.4061C9.06273 41.4675 8.96036 41.5004 8.85541 41.5H8.32001C8.21247 41.4995 8.1079 41.4647 8.02155 41.4006C7.9352 41.3365 7.8716 41.2464 7.84001 41.1436L5.65141 33.8448C5.28737 32.6641 4.80988 31.5214 4.22561 30.4326C2.49467 27.2938 2.07318 23.5984 3.05281 20.1504C3.20549 19.668 3.38777 19.1954 3.59861 18.7354C3.60949 18.7118 3.61832 18.6873 3.62501 18.6622C4.11126 17.6751 4.87854 16.8537 5.83037 16.3014C6.78219 15.7492 7.87606 15.4907 8.97441 15.5584L10.5664 16.4288L11.5566 18.2402C11.5997 18.3189 11.6631 18.3845 11.7403 18.4302C11.8174 18.4759 11.9054 18.5 11.9951 18.5C12.0848 18.5 12.1728 18.4759 12.2499 18.4302C12.3271 18.3845 12.3905 18.3189 12.4336 18.2402L13.4238 16.4288L14.2966 15.9516L14.2978 15.955C14.2978 15.955 14.7314 15.815 14.7558 15.8008C15.5933 15.5386 16.4802 15.4746 17.3466 15.6138C17.2287 15.6548 17.1312 15.7396 17.0742 15.8506L15.7364 18.7412L14.5774 19.2776C13.2481 19.5618 11.8734 19.559 10.5453 19.2692C9.21718 18.9795 7.96621 18.4096 6.87601 17.5976C6.76899 17.5262 6.63855 17.4988 6.51183 17.5211C6.3851 17.5434 6.27185 17.6136 6.19562 17.7173C6.1194 17.821 6.08607 17.95 6.10257 18.0776C6.11907 18.2052 6.18413 18.3216 6.28421 18.4024C8.09929 19.7564 10.3012 20.4917 12.5656 20.5C12.5656 20.5122 12.5556 20.5218 12.5556 20.5342C12.5555 20.6298 12.5828 20.7233 12.6343 20.8038C12.6857 20.8843 12.7591 20.9484 12.8458 20.9884L15.7364 22.3252L17.0742 25.2158C17.1142 25.3026 17.1782 25.3761 17.2587 25.4277C17.3392 25.4792 17.4328 25.5066 17.5283 25.5066C17.6239 25.5066 17.7174 25.4792 17.7979 25.4277C17.8784 25.3761 17.9424 25.3026 17.9824 25.2158L19.32 22.3242L22.2106 20.9874C22.2418 20.9728 22.2582 20.9422 22.2852 20.9222C22.982 24.1529 22.5002 27.5262 20.9268 30.4326Z" fill="#231F20"/>
<path d="M41.7236 18.4C41.8297 18.3204 41.8998 18.202 41.9186 18.0707C41.9373 17.9394 41.9031 17.8061 41.8236 17.7C41.744 17.5939 41.6256 17.5238 41.4943 17.505C41.363 17.4863 41.2297 17.5204 41.1236 17.6C39.4792 18.8333 37.4791 19.5 35.4236 19.5C33.3681 19.5 31.368 18.8333 29.7236 17.6C29.6711 17.5606 29.6113 17.5319 29.5477 17.5156C29.4841 17.4993 29.4179 17.4957 29.3529 17.505C29.2879 17.5143 29.2253 17.5363 29.1688 17.5698C29.1123 17.6032 29.063 17.6475 29.0236 17.7C28.9842 17.7525 28.9555 17.8123 28.9392 17.8759C28.9229 17.9395 28.9193 18.0057 28.9286 18.0707C28.9379 18.1357 28.9599 18.1982 28.9933 18.2547C29.0268 18.3112 29.0711 18.3606 29.1236 18.4C30.9412 19.763 33.1517 20.4998 35.4236 20.4998C37.6954 20.4998 39.906 19.763 41.7236 18.4Z" fill="#231F20"/>
</svg>
