<svg width="46" height="49" viewBox="0 0 46 49" fill="none" xmlns="http://www.w3.org/2000/svg">
<path d="M29.3155 31.7632V22.624H9.44144V38.2795H20.4715H20.4737L29.3155 31.7632Z" fill="#E3F2FF"/>
<path d="M36.8745 32.6896C36.8751 32.6891 36.8752 32.689 36.8745 32.6896V32.6896Z" fill="#F96363"/>
<path d="M36.8658 32.6953C36.8681 32.694 36.8699 32.6929 36.8716 32.6919C36.87 32.6928 36.8682 32.6939 36.8658 32.6953Z" fill="#F96363"/>
<path d="M36.8344 32.7126C36.8298 32.7153 36.8254 32.7179 36.8213 32.7201C36.8239 32.7186 36.8261 32.7173 36.8284 32.716C36.8303 32.715 36.8323 32.7138 36.8344 32.7126Z" fill="#F96363"/>
<path d="M36.8658 32.6948C36.8618 32.6971 36.8571 32.6999 36.8519 32.7029C36.8549 32.7011 36.8584 32.6991 36.8617 32.6972C36.8631 32.6962 36.8646 32.6955 36.8658 32.6948Z" fill="#F96363"/>
<path d="M36.8732 32.6903C36.869 32.6927 36.8655 32.6948 36.8616 32.697C36.8585 32.6988 36.8549 32.7009 36.8506 32.7034C36.8509 32.7032 36.8513 32.7029 36.8518 32.7027C36.8451 32.7066 36.8394 32.7099 36.8343 32.7128C36.8368 32.7114 36.8391 32.71 36.8416 32.7086C36.8376 32.7108 36.8332 32.7133 36.8284 32.7162C36.821 32.7205 36.8156 32.7236 36.812 32.7256C36.8146 32.7242 36.8176 32.7223 36.8212 32.7203C36.5961 32.8502 35.5363 33.4622 31.4078 35.8457L35.6791 43.2436L41.0917 40.1187C43.568 38.6887 44.7481 35.9037 44.2667 33.2597C42.2175 31.6123 39.2871 31.2965 36.8732 32.6903Z" fill="#F96363"/>
<path d="M21.7647 45.5995C23.8109 47.6836 27.0794 48.2089 29.7261 46.6808L35.1653 43.5403L30.9392 36.2207L25.0388 39.6274C22.858 40.887 21.6614 43.224 21.7647 45.5995Z" fill="#FEC459"/>
<path d="M28.5655 19.7487L23.6908 13.2494V9.49951H14.785V13.2493L9.91031 19.7486C9.42375 20.3983 9.16031 21.1876 9.16031 21.9985V22.6239H29.3155V21.9985C29.3155 21.1877 29.0521 20.3983 28.5655 19.7487Z" fill="#1FC5B1"/>
<path d="M25.5657 7.62472V3.31241C25.5657 2.27656 24.7267 1.4375 23.6908 1.4375H14.1288C13.0929 1.4375 12.2539 2.27656 12.2539 3.31241V7.62472C12.2539 8.66056 13.0929 9.49962 14.1288 9.49962H23.6908C24.7267 9.49962 25.5657 8.66065 25.5657 7.62472Z" fill="#57555C"/>
<path d="M20.4725 38.2802L20.4715 38.2793H9.34781V40.1542C9.34781 42.225 11.0268 43.904 13.0976 43.904H20.5607L20.5616 43.9031L20.4725 38.2802Z" fill="#1FC5B1"/>
<path d="M10.5899 14.1868C11.1074 14.1868 11.5273 13.7668 11.5273 13.2494C11.5273 12.7319 11.1073 12.312 10.5899 12.312C10.0724 12.312 9.6525 12.732 9.6525 13.2494C9.6524 13.7668 10.0724 14.1868 10.5899 14.1868Z" fill="#1C2359"/>
<path d="M19.0269 29.8422H16.2146V27.0299C16.2146 26.5122 15.7948 26.0925 15.2772 26.0925C14.7596 26.0925 14.3398 26.5123 14.3398 27.0299V29.8422H11.5275C11.0098 29.8422 10.5901 30.2621 10.5901 30.7797C10.5901 31.2974 11.0099 31.7172 11.5275 31.7172H14.3398V34.5295C14.3398 35.0472 14.7596 35.4669 15.2772 35.4669C15.7948 35.4669 16.2146 35.0471 16.2146 34.5295V31.7172H19.0269C19.5446 31.7172 19.9643 31.2973 19.9643 30.7797C19.9644 30.2621 19.5447 29.8422 19.0269 29.8422Z" fill="#1C2359"/>
<path d="M34.0843 27.9411L30.2764 30.1395V21.9987C30.2764 20.9922 29.9435 19.9935 29.3389 19.1863L24.6516 12.9369V10.2757C25.7427 9.88869 26.5265 8.84675 26.5265 7.62453V3.31231C26.5265 1.76159 25.2649 0.5 23.7142 0.5H6.84008C5.28936 0.5 4.02767 1.76159 4.02767 3.31231V7.62462C4.02767 8.84665 4.81152 9.88878 5.90258 10.2758V12.937L1.21499 19.1868C0.610673 19.9936 0.277954 20.9922 0.277954 21.9987V40.1543C0.277954 42.7389 2.38067 44.8415 4.96517 44.8415H20.031C22.1329 48.3649 26.6654 49.544 30.2182 47.4926L41.584 40.9304C45.1423 38.8756 46.4116 34.2949 44.3287 30.686C42.2565 27.0967 37.6743 25.8682 34.0843 27.9411ZM19.9202 37.3419H2.15277V23.5614H28.4014V31.2219L22.7184 34.5033C21.5335 35.1878 20.5758 36.1621 19.9202 37.3419ZM5.90258 3.31231C5.90258 2.79537 6.32314 2.37491 6.83998 2.37491H23.7141C24.2311 2.37491 24.6516 2.79547 24.6516 3.31231V7.62462C24.6516 8.14156 24.2311 8.56203 23.7141 8.56203H6.84008C6.32314 8.56203 5.90267 8.14147 5.90267 7.62462L5.90258 3.31231ZM7.58998 13.8118C7.71167 13.6497 7.77748 13.4522 7.77748 13.2493V10.437H22.7767V12.3119H14.3397C13.822 12.3119 13.4023 12.7317 13.4023 13.2493C13.4023 13.767 13.8221 14.1867 14.3397 14.1867H23.2455L27.8386 20.3107C28.1388 20.7115 28.3252 21.191 28.3816 21.6864H2.17273C2.22898 21.191 2.41545 20.7116 2.71536 20.3112L7.58998 13.8118ZM2.15277 40.1543V39.2075H19.1848C18.8875 40.423 18.8895 41.7212 19.2299 42.9667H4.96517C3.41445 42.9666 2.15277 41.705 2.15277 40.1543ZM29.2808 45.8689C26.5905 47.4224 23.1527 46.5037 21.5981 43.8115C20.0361 41.0933 20.9827 37.671 23.6561 36.1269L28.7446 33.1889L34.3693 42.931L29.2808 45.8689ZM40.6465 39.3068L35.993 41.9936L30.3682 32.2513L35.0218 29.5647C37.7139 28.0106 41.1505 28.9309 42.7051 31.6232C44.2665 34.3291 43.317 37.7647 40.6465 39.3068Z" fill="#1C2359"/>
</svg>
