<svg width="48" height="48" viewBox="0 0 48 48" fill="none" xmlns="http://www.w3.org/2000/svg">
<path d="M18.8296 5.48595L10.7085 9.18283V4.74657L18.8296 3.26782V5.48595Z" fill="#CCCCCC"/>
<path d="M17.5473 3.12002L17.1798 3.18751L16.8049 3.255L10.6634 4.37231L10.3335 4.4323V9.55394H10.7984L11.0834 9.42646L18.0272 6.26949L18.3646 6.11202L18.7096 5.95454L19.2045 5.72958V2.82007L17.5473 3.12002ZM18.4546 5.24216L18.3871 5.27216L18.0497 5.42963L17.7048 5.5871L11.0834 8.6016V5.06219L16.9774 3.98987L17.3598 3.92238L17.7273 3.85489L18.4546 3.71992V5.24216Z" fill="#1C2359"/>
<path d="M47.6232 30.5483V47.6252H0.375124V29.9799C0.36951 29.4026 0.553962 28.8395 0.900036 28.3774C1.16461 28.0178 1.48632 27.7039 1.85238 27.4483C2.81998 26.8216 3.941 26.4725 5.09333 26.439C6.10731 26.3714 7.1257 26.4217 8.12807 26.589C9.82255 26.8554 11.4868 27.2877 13.0967 27.8795H13.1042C13.9014 28.1667 14.721 28.4906 15.5623 28.8543C15.6291 28.8783 15.7033 28.9091 15.7693 28.9398C15.9688 29.0253 16.1682 29.1168 16.3692 29.209C16.4024 29.2227 16.4345 29.239 16.4652 29.2578C16.4856 29.2631 16.5053 29.2712 16.5237 29.2817C16.5986 29.3125 16.6639 29.3432 16.7381 29.38C16.8266 29.4227 16.9226 29.4655 17.0111 29.5082C17.1438 29.5697 17.2773 29.6364 17.4175 29.7039C18.5251 30.2423 19.6619 30.8475 20.8062 31.5081C21.1061 31.6791 21.4113 31.8628 21.7218 32.0458C21.8988 32.0705 22.0832 32.0885 22.2827 32.1133C22.7994 32.162 23.3753 32.1928 24.0029 32.1928C24.5749 32.1944 25.1466 32.1659 25.7156 32.1073C25.9076 32.0953 26.0906 32.0705 26.284 32.0458C26.41 31.9708 26.7272 31.7893 27.2146 31.5261C29.669 30.198 32.2358 29.0889 34.8851 28.2117C36.4196 27.6968 37.9994 27.3282 39.6033 27.1109C40.5991 26.9777 41.606 26.947 42.608 27.0194C43.8536 27.0883 45.0664 27.4439 46.1519 28.0587L46.1662 28.0715C46.6038 28.3215 46.9685 28.6817 47.224 29.1161C47.4796 29.5506 47.6172 30.0443 47.6232 30.5483Z" fill="#FFC5C7"/>
<path d="M26.5009 31.9226C26.4234 31.9605 26.3483 32.0031 26.2759 32.0501C26.0884 32.0726 25.901 32.0951 25.7135 32.1101C25.1429 32.1673 24.5697 32.1948 23.9963 32.1926C23.3739 32.1926 22.7965 32.1626 22.2791 32.1176C22.0766 32.0876 21.8966 32.0726 21.7167 32.0501C21.6417 32.0051 21.5742 31.9601 21.4992 31.9226L21.3342 32.215C21.2217 32.1551 21.1093 32.1026 20.9968 32.0501L20.9893 32.0576C21.0793 32.1101 21.1768 32.1626 21.2667 32.215L21.3192 32.245L21.5292 32.3725L21.6642 32.4175L22.0091 32.4625L22.2416 32.485C23.4037 32.5975 24.5739 32.5975 25.736 32.485C25.9235 32.47 26.1034 32.4475 26.3284 32.4175L26.4634 32.3725C26.5084 32.3425 26.5833 32.305 26.6808 32.245L26.5009 31.9226ZM46.4025 27.7833L46.335 27.7383C45.2003 27.0946 43.933 26.7201 42.6306 26.6435C41.6027 26.57 40.5699 26.6027 39.5487 26.741C39.2637 26.7785 38.9638 26.816 38.6638 26.8684C38.5213 26.8984 38.3714 26.9209 38.2214 26.9509C38.0714 26.9809 37.9364 27.0034 37.794 27.0334C36.7697 27.2523 35.7583 27.5276 34.7645 27.8583C33.9771 28.1057 33.2122 28.3832 32.4773 28.6756C32.3349 28.7281 32.1999 28.7806 32.0649 28.8406C31.9299 28.9006 31.8025 28.9456 31.675 28.9981C30.9626 29.2905 30.2952 29.583 29.6878 29.8679C29.5528 29.9279 29.4254 29.9879 29.2979 30.0479C28.368 30.4903 27.5957 30.8953 27.0333 31.1952C27.0108 31.2102 26.9883 31.2177 26.9658 31.2327C26.8458 31.3002 26.7408 31.3527 26.6433 31.4127C26.5159 31.4802 26.4034 31.5402 26.3134 31.5927C26.2534 31.6301 26.2009 31.6601 26.1559 31.6826C25.9984 31.7051 25.841 31.7201 25.6685 31.7351C24.5566 31.8464 23.4365 31.849 22.3241 31.7426L22.0916 31.7126C22.0091 31.7051 21.9266 31.6976 21.8441 31.6826L21.6867 31.5927L21.6492 31.5702C21.5517 31.5102 21.4542 31.4502 21.3567 31.3977C21.2517 31.3302 21.1468 31.2702 21.0418 31.2102C21.0268 31.2027 21.0043 31.1877 20.9893 31.1802C19.842 30.5203 18.6947 29.9129 17.5774 29.3655L16.9025 29.0431C16.82 29.0056 16.745 28.9681 16.7 28.9531L16.6025 28.9081C16.5725 28.8931 16.535 28.8781 16.505 28.8631C16.4975 28.8631 16.4975 28.8556 16.49 28.8556C16.3551 28.7956 16.2276 28.7356 16.1001 28.6756C16.0401 28.6531 15.9801 28.6232 15.9201 28.6007C15.8451 28.5632 15.7627 28.5332 15.7102 28.5107C15.6952 28.5032 15.6727 28.4957 15.6577 28.4882C14.8478 28.1382 14.0379 27.8158 13.2281 27.5208L13.1606 27.4983C12.1294 27.1284 11.0779 26.8179 10.0111 26.5685C9.86115 26.531 9.71118 26.4935 9.5687 26.471C9.41873 26.4335 9.26875 26.4035 9.11878 26.3735C8.79633 26.3135 8.48888 26.261 8.18143 26.2161C7.15076 26.047 6.1041 25.9967 5.06196 26.0661C3.84272 26.1012 2.65685 26.4723 1.63503 27.1384C1.23685 27.4167 0.887228 27.7588 0.600206 28.1507C0.201945 28.6767 -0.00919426 29.3207 0.000307207 29.9804V47.9999H47.9997V30.5503C47.9974 29.99 47.8489 29.4399 47.5687 28.9546C47.2886 28.4693 46.8866 28.0656 46.4025 27.7833ZM47.2499 47.25H0.750181V29.9804C0.741547 29.4831 0.899972 28.9973 1.20011 28.6007C1.43917 28.2728 1.73051 27.9866 2.06246 27.7533C2.97773 27.1677 4.03572 26.8436 5.12195 26.816C6.10647 26.7478 7.09559 26.7956 8.06895 26.9584C8.51888 27.0259 8.9913 27.1084 9.47122 27.2134C9.61369 27.2434 9.75617 27.2734 9.90614 27.3109C10.0561 27.3484 10.1911 27.3784 10.3336 27.4159C11.1834 27.6333 12.0608 27.9033 12.9656 28.2257L13.0331 28.2482C13.8205 28.5332 14.6229 28.8556 15.4327 29.2081C15.4852 29.2305 15.5527 29.253 15.6202 29.283C15.6577 29.298 15.6952 29.3205 15.7402 29.3355C15.8601 29.388 15.9801 29.448 16.1001 29.5005C16.1226 29.5155 16.1526 29.523 16.1751 29.538L16.3776 29.628C16.4076 29.643 16.43 29.6505 16.46 29.6655C16.49 29.6805 16.5275 29.6955 16.5725 29.718L17.2474 30.0404C17.5399 30.1829 17.8323 30.3254 18.1323 30.4828C18.9496 30.8953 19.782 31.3527 20.6143 31.8326C20.6327 31.8456 20.653 31.8557 20.6743 31.8626C20.7643 31.9226 20.8543 31.9751 20.9443 32.0276C20.9609 32.0349 20.9761 32.045 20.9893 32.0576C21.0793 32.1101 21.1768 32.1626 21.2667 32.215L21.3192 32.245L21.5292 32.3725L21.6642 32.4175L22.0091 32.4625L22.2416 32.485C23.4037 32.5975 24.5739 32.5975 25.736 32.485C25.9235 32.47 26.1034 32.4475 26.3284 32.4175L26.4634 32.3725C26.5084 32.3425 26.5833 32.305 26.6808 32.245C26.6883 32.2375 26.6958 32.2375 26.7108 32.2375C26.7933 32.1851 26.8908 32.1251 27.0033 32.0651C27.1008 32.0126 27.2132 31.9526 27.3332 31.8851C27.3482 31.8776 27.3707 31.8626 27.3857 31.8551C27.6482 31.7126 27.9631 31.5477 28.3155 31.3677C28.653 31.1952 29.0354 31.0003 29.4479 30.8053C29.5678 30.7453 29.6878 30.6928 29.8153 30.6328C30.4002 30.3554 31.0451 30.0704 31.735 29.778C31.8475 29.733 31.9749 29.6805 32.0949 29.628C32.2149 29.5755 32.3349 29.5305 32.4549 29.4855C33.2647 29.1631 34.1196 28.8481 34.9969 28.5707C35.8743 28.2932 36.7141 28.0457 37.524 27.8658C37.6665 27.8283 37.8015 27.7983 37.9439 27.7683C38.0864 27.7383 38.2289 27.7158 38.3639 27.6933C38.8063 27.6033 39.2337 27.5358 39.6461 27.4833C40.6151 27.351 41.5954 27.3208 42.5707 27.3934C43.738 27.4562 44.8761 27.7817 45.9001 28.3457L45.9676 28.3907C46.3514 28.6072 46.6717 28.9206 46.8967 29.2995C47.1217 29.6784 47.2435 30.1097 47.2499 30.5503V47.25Z" fill="#1C2359"/>
<path d="M47.6234 33.6181V47.625H0.375318V33.1232C0.370469 32.5203 0.604168 31.94 1.02546 31.5087C1.27149 31.2633 1.54884 31.0515 1.85032 30.8788C3.2206 30.14 4.71905 29.6689 6.26558 29.4908C7.22864 29.3492 8.20092 29.2795 9.17434 29.2823C10.7024 29.2864 12.227 29.4277 13.7298 29.7045C14.35 29.8147 14.9844 29.9549 15.627 30.1207C15.642 30.1207 15.6562 30.1267 15.6712 30.1267C15.8212 30.1694 15.9712 30.2062 16.1294 30.2489C16.2044 30.2729 16.2696 30.2916 16.3431 30.3164C16.3585 30.3176 16.3735 30.3216 16.3874 30.3284C16.4424 30.3395 16.4967 30.3537 16.5501 30.3711C16.7863 30.4319 17.0225 30.5054 17.2587 30.5848C18.3843 30.9416 19.4887 31.3622 20.5664 31.8446C20.9504 32.0221 21.3343 32.2056 21.7182 32.395L22.0872 32.4318C22.6556 32.4873 23.287 32.5173 23.9993 32.5173C24.6345 32.5173 25.2741 32.4933 25.9115 32.4318L26.2805 32.395C26.6878 32.232 27.1045 32.0933 27.5283 31.9796C29.8391 31.3156 32.1948 30.8189 34.5771 30.4934C35.9309 30.3074 37.2935 30.193 38.6594 30.1507C39.6397 30.1218 40.6208 30.1484 41.5981 30.2302C43.1712 30.34 44.7117 30.7316 46.1461 31.3865C46.1529 31.3865 46.1529 31.3865 46.1604 31.3925C46.5882 31.5891 46.9522 31.9021 47.2109 32.2956C47.4696 32.6891 47.6125 33.1473 47.6234 33.6181Z" fill="#F96363"/>
<path d="M27.4082 32.0128C27.2733 32.0578 27.1533 32.0953 27.0408 32.1253L27.0033 32.0653C26.8908 32.1253 26.7933 32.1853 26.7108 32.2378C26.6958 32.2378 26.6884 32.2378 26.6809 32.2453L26.5009 31.9228C26.4234 31.9608 26.3483 32.0033 26.2759 32.0503C26.0885 32.0728 25.901 32.0953 25.7135 32.1103C25.1429 32.1675 24.5697 32.195 23.9963 32.1928C23.3739 32.1928 22.7965 32.1628 22.2791 32.1178C22.0766 32.0878 21.8967 32.0728 21.7167 32.0503C21.6417 32.0053 21.5742 31.9603 21.4992 31.9228L21.3342 32.2153C21.2218 32.1553 21.1093 32.1028 20.9968 32.0503L20.9893 32.0578L20.8093 32.3802C20.9218 32.4327 21.0418 32.4852 21.1543 32.5452C21.2893 32.6052 21.4167 32.6652 21.5517 32.7327L22.0466 32.8077C22.4441 32.8452 22.8715 32.8677 23.3139 32.8752C23.7638 32.8977 24.2288 32.8977 24.6787 32.8752C25.1211 32.8677 25.5485 32.8452 25.946 32.8077L26.3134 32.7702L26.4484 32.7327C26.5841 32.6694 26.7245 32.6167 26.8683 32.5752L27.2283 32.4627C27.3407 32.4327 27.4607 32.3952 27.6032 32.3502L27.4082 32.0128ZM47.6248 32.2678C47.5248 32.0785 47.3986 31.9043 47.2499 31.7503C46.9984 31.4734 46.6986 31.2447 46.365 31.0755L46.2826 31.008H46.2301C44.7767 30.3597 43.2209 29.9714 41.6333 29.8607C40.641 29.774 39.6444 29.7465 38.6488 29.7782C38.4014 29.7857 38.1539 29.7932 37.9065 29.8082C37.779 29.8082 37.6515 29.8157 37.524 29.8232C37.3965 29.8307 37.2691 29.8382 37.1416 29.8532C36.3017 29.9132 35.4319 30.0031 34.5245 30.1231C33.8271 30.2206 33.1523 30.3256 32.5149 30.4381C32.3874 30.4681 32.2674 30.4906 32.1474 30.5131C32.0125 30.5355 31.885 30.558 31.765 30.5805C31.0676 30.7155 30.4302 30.8505 29.8678 30.9855C29.7403 31.0155 29.6204 31.0455 29.5004 31.068C29.0505 31.1804 28.6455 31.2779 28.3156 31.3679C27.9106 31.4804 27.6107 31.5629 27.4232 31.6229C27.3572 31.6394 27.2921 31.6594 27.2283 31.6829C27.1008 31.7203 26.9808 31.7578 26.8533 31.7953C26.7465 31.8247 26.6414 31.8597 26.5384 31.9003C26.5224 31.9019 26.5071 31.907 26.4934 31.9153C26.386 31.9456 26.2807 31.9832 26.1784 32.0278L25.871 32.0578C24.6237 32.1703 23.3689 32.1703 22.1216 32.0578L21.8217 32.0278C21.7242 31.9753 21.6192 31.9303 21.5217 31.8853C21.4092 31.8253 21.2893 31.7728 21.1768 31.7203C21.1468 31.7054 21.1093 31.6904 21.0793 31.6754C20.9968 31.6379 20.9218 31.6004 20.8393 31.5629C20.8018 31.5404 20.7568 31.5254 20.7194 31.5029C19.8645 31.1204 18.9946 30.7755 18.1323 30.4831C17.8773 30.3931 17.6299 30.3106 17.3749 30.2281C17.135 30.1456 16.8875 30.0706 16.6775 30.0181C16.625 29.9956 16.5651 29.9881 16.5201 29.9731L16.4376 29.9506L16.0701 29.8457L16.0326 29.8382C15.9427 29.8157 15.8602 29.7932 15.7177 29.7557L15.7027 29.7482H15.6952C15.0353 29.5832 14.3979 29.4407 13.798 29.3357C12.7821 29.1477 11.7552 29.025 10.7235 28.9683C10.5967 28.9509 10.4691 28.9409 10.3411 28.9383C10.2139 28.9283 10.0862 28.9258 9.95866 28.9308C8.70576 28.8773 7.45061 28.9401 6.20929 29.1183C4.61785 29.3052 3.07605 29.7911 1.66506 30.5505C1.3322 30.7439 1.02486 30.9782 0.750209 31.2479C0.604247 31.3959 0.478205 31.5623 0.375272 31.7428C0.126023 32.1596 -0.00369412 32.637 0.000335233 33.1226V48.0001H47.9998V33.6175C48.0007 33.1418 47.871 32.6749 47.6248 32.2678ZM0.750209 33.1226C0.743373 32.6202 0.934639 32.1353 1.28262 31.7728C1.51018 31.5519 1.76463 31.3604 2.03999 31.2029C3.36879 30.487 4.82208 30.0314 6.32177 29.8607C7.56585 29.6851 8.82348 29.6248 10.0786 29.6807C10.2064 29.6807 10.3341 29.6882 10.4611 29.7032C10.5889 29.7032 10.7166 29.7107 10.8435 29.7257C11.7892 29.7861 12.7307 29.9012 13.663 30.0706C14.2554 30.1756 14.8853 30.3181 15.5752 30.4906L15.5902 30.4981C15.6118 30.5066 15.6346 30.5117 15.6577 30.5131C15.718 30.5359 15.781 30.5511 15.8452 30.558L16.0251 30.6105L16.2501 30.678H16.2576L16.3326 30.7005C16.3476 30.708 16.3701 30.708 16.3926 30.7155C16.4151 30.723 16.4301 30.723 16.4526 30.7305C16.685 30.7905 16.91 30.8655 17.1425 30.9405C18.2523 31.2937 19.3414 31.7093 20.4044 32.1853C20.4269 32.1928 20.4494 32.2078 20.4719 32.2153C20.5844 32.2678 20.6969 32.3202 20.8093 32.3802C20.9218 32.4402 21.0418 32.4852 21.1543 32.5452C21.2893 32.6052 21.4167 32.6652 21.5517 32.7327L22.0466 32.8077C22.4441 32.8452 22.8715 32.8677 23.3139 32.8752C23.7638 32.8977 24.2288 32.8977 24.6787 32.8752C25.1211 32.8677 25.5485 32.8452 25.946 32.8077L26.3134 32.7702L26.4484 32.7327C26.5841 32.6694 26.7245 32.6167 26.8683 32.5752L27.2283 32.4627C27.3407 32.4327 27.4607 32.3952 27.6032 32.3502C27.6107 32.3502 27.6257 32.3427 27.6332 32.3427C27.9631 32.2378 28.668 32.0428 29.6354 31.8103C29.7478 31.7803 29.8603 31.7578 29.9803 31.7278C30.5127 31.6004 31.1126 31.4729 31.7725 31.3454C31.8925 31.3154 32.02 31.2929 32.1549 31.2704C32.2749 31.2479 32.4024 31.2254 32.5299 31.2029C33.1898 31.0755 33.8946 30.963 34.6295 30.8655C35.4769 30.753 36.2942 30.663 37.0891 30.6105C37.2166 30.5955 37.3366 30.588 37.464 30.5805L37.839 30.558C38.1239 30.543 38.4014 30.5355 38.6713 30.528C39.6368 30.498 40.6032 30.5231 41.5658 30.603C43.0931 30.7083 44.589 31.0867 45.9826 31.7203L46.0351 31.7503C46.3895 31.9201 46.6903 32.1841 46.9046 32.5134C47.1189 32.8428 47.2383 33.2248 47.2499 33.6175V47.2502H0.750209V33.1226Z" fill="#1C2359"/>
<path d="M29.9826 44.0828L25.3671 34.0742C25.3044 33.9532 25.2343 33.8363 25.1571 33.724C25.029 33.5344 24.8563 33.3791 24.6542 33.2718C24.452 33.1644 24.2267 33.1083 23.9978 33.1083C23.769 33.1083 23.5436 33.1644 23.3415 33.2718C23.1394 33.3791 22.9667 33.5344 22.8385 33.724C22.7614 33.8363 22.6913 33.9532 22.6286 34.0742L18.0131 44.0828C17.9066 44.267 17.7522 44.419 17.5663 44.5225C17.3803 44.626 17.1698 44.6771 16.9571 44.6705C16.7444 44.6639 16.5375 44.5997 16.3583 44.4849C16.1792 44.37 16.0345 44.2088 15.9397 44.0183L12.1483 36.2706C11.7621 34.7183 10.4769 33.1211 10.5391 31.5231C10.6058 29.814 10.2856 28.112 9.6025 26.5439L9.08659 25.3539C8.12383 23.1926 7.86714 20.7827 8.35301 18.4671C8.83888 16.1515 10.0426 14.0481 11.7929 12.4561C14.0317 10.4611 16.895 9.3073 19.8915 9.19262C20.2451 9.18199 20.598 9.22962 20.9361 9.33359L22.8678 9.76402C24.5257 10.1922 23.4767 10.1922 25.1354 9.76402L27.0671 9.33359C27.4052 9.22962 27.7581 9.18199 28.1116 9.19262C31.1082 9.3073 33.9714 10.4611 36.2103 12.4561C37.9606 14.0481 39.1643 16.1515 39.6501 18.4671C40.136 20.7827 39.8793 23.1926 38.9166 25.3539L38.3992 26.5417C37.7166 28.1099 37.3967 29.8119 37.4633 31.5209C37.5256 33.1173 36.2403 34.7161 35.8541 36.2683L32.056 44.0183C31.9612 44.2088 31.8165 44.37 31.6373 44.4849C31.4582 44.5997 31.2513 44.6639 31.0386 44.6705C30.8259 44.6771 30.6153 44.626 30.4294 44.5225C30.2435 44.419 30.089 44.267 29.9826 44.0828Z" fill="#F4F4F4"/>
<path d="M36.4515 12.1786C34.1447 10.132 31.2017 8.94524 28.1204 8.81914C27.7348 8.80612 27.3497 8.85679 26.9806 8.96911L25.0385 9.40404C24.5885 9.51652 24.3336 9.6065 24.1686 9.65899C24.0936 9.68149 24.0186 9.71149 24.0036 9.71149C23.9427 9.69749 23.8826 9.67997 23.8237 9.65899C23.7412 9.6365 23.6362 9.599 23.4937 9.55401C23.3512 9.50902 23.1713 9.45653 22.9463 9.40404L22.0165 9.19407L21.0416 8.97661C20.663 8.8601 20.2678 8.8069 19.8718 8.81914C16.7909 8.94665 13.8483 10.1332 11.5407 12.1786C9.72835 13.8206 8.48178 15.9938 7.97939 18.3872C7.477 20.7806 7.74453 23.2717 8.7437 25.5038L9.11864 26.3737L9.26112 26.6961C9.27691 26.7299 9.28946 26.765 9.29861 26.8011C9.3661 26.9361 9.41859 27.0786 9.47108 27.2135C9.67887 27.7721 9.84186 28.3463 9.9585 28.9308C9.98099 29.0507 10.0035 29.1707 10.0185 29.2982C10.0458 29.4244 10.0658 29.5521 10.0785 29.6806C10.1608 30.2868 10.1909 30.899 10.1685 31.5103C10.2202 32.5897 10.5287 33.6411 11.0683 34.5773C11.3645 35.1479 11.6056 35.7456 11.7882 36.362L15.605 44.1832C15.729 44.434 15.9185 44.6466 16.1535 44.7984C16.3885 44.9503 16.6602 45.0357 16.9398 45.0455C17.2266 45.0583 17.511 44.9897 17.7605 44.8478C18.0099 44.7058 18.2141 44.4962 18.3496 44.2432L22.9613 34.2474C23.016 34.1403 23.0786 34.0375 23.1488 33.9399C23.2461 33.8052 23.374 33.6955 23.5219 33.6198C23.6699 33.5442 23.8337 33.5047 23.9999 33.5047C24.1661 33.5047 24.3299 33.5442 24.4778 33.6198C24.6258 33.6955 24.7537 33.8052 24.851 33.9399C24.9156 34.033 24.9733 34.1308 25.0235 34.2324L29.6427 44.2432L29.6577 44.2657C29.7921 44.5031 29.9873 44.7004 30.2231 44.8375C30.459 44.9745 30.7271 45.0464 31 45.0455H31.0525C31.3331 45.0358 31.6058 44.9505 31.8421 44.7988C32.0783 44.647 32.2692 44.4343 32.3947 44.1832L36.1816 36.437L36.2116 36.362C36.3915 35.7457 36.63 35.1481 36.924 34.5773C37.4625 33.6402 37.7733 32.5896 37.8313 31.5103C37.8151 31.193 37.8176 30.875 37.8388 30.558C37.8388 30.438 37.8538 30.3105 37.8613 30.1905C37.8689 30.0623 37.8839 29.9346 37.9063 29.8081C37.9836 29.089 38.1369 28.3802 38.3637 27.6935C38.4012 27.5585 38.4537 27.4235 38.5062 27.281C38.5587 27.1386 38.6112 27.0036 38.6637 26.8686C38.6862 26.8086 38.7162 26.7561 38.7387 26.6961L39.2486 25.5038C40.2477 23.2717 40.5153 20.7806 40.0129 18.3872C39.5105 15.9938 38.2639 13.8206 36.4515 12.1786ZM38.0488 26.3962C37.9588 26.6061 37.8763 26.8161 37.7938 27.0336C37.7413 27.1686 37.6963 27.311 37.6513 27.4535C37.6063 27.596 37.5614 27.7235 37.5239 27.8659C37.3367 28.5154 37.2087 29.1805 37.1414 29.8531C37.124 29.9799 37.114 30.1076 37.1114 30.2355C37.0962 30.3599 37.0887 30.4852 37.0889 30.6105C37.0677 30.92 37.0652 31.2305 37.0814 31.5403C37.0153 32.4969 36.7305 33.4256 36.2491 34.2549C35.9397 34.8578 35.6862 35.4878 35.4917 36.137L31.7198 43.8532C31.6557 43.9812 31.5584 44.0896 31.4383 44.1674C31.3181 44.2451 31.1793 44.2893 31.0363 44.2955C30.8933 44.3016 30.7513 44.2694 30.6249 44.2022C30.4986 44.135 30.3925 44.0352 30.3176 43.9132L25.6984 33.9024C25.6287 33.768 25.551 33.6377 25.4659 33.5125C25.2717 33.2273 24.9979 33.0056 24.6785 32.8751C24.4633 32.7811 24.231 32.7326 23.9961 32.7326C23.7613 32.7326 23.529 32.7811 23.3138 32.8751C22.9944 33.0056 22.7205 33.2273 22.5264 33.5125C22.4382 33.6425 22.3581 33.7777 22.2864 33.9174L17.6897 43.8982C17.6179 44.0243 17.5127 44.1282 17.3857 44.1983C17.2587 44.2684 17.1148 44.3021 16.9698 44.2957C16.8247 44.2952 16.6827 44.2533 16.5605 44.1749C16.4383 44.0965 16.341 43.985 16.2799 43.8532L12.5006 36.137C12.3087 35.488 12.0577 34.858 11.7507 34.2549C11.2692 33.4256 10.9845 32.4969 10.9183 31.5403C10.9422 30.9344 10.9171 30.3275 10.8433 29.7256C10.8284 29.5981 10.8134 29.4632 10.7909 29.3357C10.7763 29.2119 10.7538 29.0891 10.7234 28.9682C10.6315 28.442 10.5012 27.9232 10.3334 27.416C10.2884 27.2735 10.236 27.1311 10.1835 26.9961C10.131 26.8611 10.0785 26.7111 10.011 26.5686C9.99176 26.5099 9.96923 26.4524 9.9435 26.3962L9.43359 25.2039C8.49684 23.1171 8.24479 20.7873 8.71357 18.5485C9.18236 16.3096 10.3479 14.2767 12.0431 12.741C14.218 10.8082 16.9947 9.6875 19.9018 9.56901C20.2245 9.56257 20.546 9.60815 20.8542 9.70399L22.4439 10.0564L22.7738 10.1314C23.1938 10.2364 23.4337 10.3189 23.5912 10.3714C23.6874 10.4097 23.7883 10.4349 23.8912 10.4464C24.0672 10.4683 24.246 10.4424 24.4086 10.3714C24.5585 10.3189 24.806 10.2364 25.2109 10.1314L27.1681 9.69649C27.4668 9.60521 27.7782 9.56218 28.0904 9.56901C30.9996 9.68879 33.7782 10.8092 35.9566 12.741C37.6488 14.2787 38.8122 16.3116 39.2808 18.5496C39.7495 20.7876 39.4993 23.1164 38.5662 25.2039L38.0488 26.3962Z" fill="#1C2359"/>
<path d="M30.8006 17.3301C28.847 17.0682 26.8614 17.184 24.9516 17.6713C24.3859 17.8003 23.7985 17.8003 23.2328 17.6713C21.323 17.184 19.3374 17.0681 17.3838 17.3301C14.7263 17.8753 13.0653 24.0445 15.6704 27.6896C16.0192 28.1595 16.1797 28.7429 16.1203 29.3251C15.8803 31.3498 15.8773 36.149 17.1949 38.8538C17.7783 40.0536 17.7618 38.2726 19.4625 34.7819L22.3772 29.5943C22.5337 29.3004 22.7671 29.0545 23.0526 28.8831C23.338 28.7116 23.6647 28.6211 23.9977 28.6211C24.3307 28.6211 24.6574 28.7116 24.9429 28.8831C25.2283 29.0545 25.4618 29.3004 25.6182 29.5943L28.533 34.7819C30.2337 38.2726 30.2787 39.9253 30.8006 38.8538C32.1181 36.1497 32.3003 31.3498 32.0611 29.3251C32.002 28.7429 32.1625 28.1597 32.511 27.6896C35.1191 24.0437 33.4581 17.8745 30.8006 17.3301Z" fill="#FFC5C7"/>
<path d="M27.3331 31.8852L27.2281 31.6828L27.1531 31.5553L26.9657 31.2328L25.9458 29.4106C25.7567 29.0592 25.4759 28.7656 25.1333 28.5609C24.7907 28.3562 24.399 28.2481 23.9999 28.2481C23.6008 28.2481 23.2092 28.3562 22.8666 28.5609C22.5239 28.7656 22.2432 29.0592 22.054 29.4106L21.0417 31.2103L20.8542 31.5403L20.8392 31.5628L20.6742 31.8627L20.6592 31.8927L20.4718 32.2152C20.5842 32.2677 20.6967 32.3202 20.8092 32.3801L20.9892 32.0577L20.9967 32.0502C21.1092 32.1027 21.2216 32.1552 21.3341 32.2152L21.4991 31.9227L21.5216 31.8852L21.6866 31.5928L22.7064 29.7706C22.8321 29.5365 23.0191 29.341 23.2473 29.2049C23.4756 29.0689 23.7365 28.9974 24.0022 28.9982C24.2679 28.999 24.5284 29.0719 24.7558 29.2093C24.9833 29.3467 25.1691 29.5433 25.2935 29.7781L26.3133 31.5928L26.4933 31.9152L26.5008 31.9227L26.6807 32.2452C26.6882 32.2377 26.6957 32.2377 26.7107 32.2377C26.7932 32.1852 26.8907 32.1252 27.0032 32.0652L27.0407 32.1252C27.1531 32.0952 27.2731 32.0577 27.4081 32.0127L27.3331 31.8852ZM32.8222 27.9109C34.5694 25.4588 34.4569 22.0694 33.5646 19.7973C33.3028 19.0853 32.9055 18.4309 32.3948 17.8701C31.9921 17.4191 31.4608 17.1024 30.8725 16.9627C29.4009 16.7261 27.8998 16.7413 26.4333 17.0077C26.1258 17.0602 25.8334 17.1127 25.5634 17.1652C25.3085 17.2102 25.076 17.2627 24.866 17.3077C24.3547 17.4202 23.8251 17.4202 23.3138 17.3077C21.3527 16.8056 19.3129 16.6884 17.3073 16.9627C16.2125 17.1877 15.2376 18.2225 14.6153 19.8048C13.7229 22.0694 13.6104 25.4588 15.3651 27.9109C15.4905 28.0879 15.589 28.2825 15.6576 28.4883C15.7031 28.6318 15.7308 28.7804 15.7401 28.9307C15.7613 29.0471 15.7638 29.166 15.7476 29.2832C15.7476 29.2982 15.7401 29.3132 15.7401 29.3357C15.7251 29.4631 15.7176 29.5981 15.7026 29.7481C15.6951 29.8681 15.6876 29.9881 15.6801 30.123C15.6649 30.2524 15.6574 30.3827 15.6576 30.513C15.5451 32.8601 15.7176 36.6694 16.8574 39.0165C16.9474 39.2115 17.1423 39.6014 17.5023 39.6014H17.5323C17.9447 39.5789 18.0947 39.1665 18.4621 38.1617C18.8446 37.0729 19.2877 36.0065 19.7894 34.9672L21.1542 32.5451L21.3191 32.2452L21.3341 32.2152L21.4991 31.9227L21.5216 31.8852L21.6866 31.5928L22.7064 29.7706C22.8321 29.5365 23.0191 29.341 23.2473 29.2049C23.4756 29.0689 23.7365 28.9974 24.0022 28.9982C24.2679 28.999 24.5284 29.0719 24.7558 29.2093C24.9833 29.3467 25.1691 29.5433 25.2935 29.7781L26.3133 31.5928L26.4933 31.9152L26.5008 31.9227L26.6807 32.2452L26.8682 32.5751L28.1955 34.9447C28.8479 36.2795 29.2453 37.3218 29.5377 38.0867C29.9352 39.1365 30.0852 39.5339 30.5051 39.5489C30.88 39.5489 31.06 39.1815 31.135 39.0165C32.1848 36.8569 32.5297 33.55 32.5297 31.2028C32.5297 31.0679 32.5222 30.9329 32.5222 30.8129C32.5222 30.6779 32.5222 30.558 32.5147 30.438C32.5072 30.0855 32.4847 29.7631 32.4548 29.4856L32.4323 29.2832C32.4262 29.2184 32.4237 29.1533 32.4248 29.0882C32.4237 28.949 32.4414 28.8103 32.4773 28.6758C32.5368 28.3993 32.6544 28.1386 32.8222 27.9109ZM31.6899 29.3657V29.3882C31.7049 29.5081 31.7199 29.6356 31.7349 29.7781C31.7499 30.018 31.7574 30.288 31.7649 30.5805C31.7724 30.7004 31.7724 30.8279 31.7724 30.9554V31.3453C31.8 33.7001 31.4194 36.0418 30.6476 38.2667C30.6329 38.3245 30.6102 38.3801 30.5801 38.4316C30.5672 38.4759 30.5496 38.5186 30.5276 38.5591C30.4376 38.3566 30.3401 38.0867 30.2351 37.8167C29.9577 37.0894 29.5377 35.9795 28.8629 34.5998L27.6031 32.3502L27.4081 32.0127L27.3331 31.8852L27.2281 31.6828L27.1531 31.5553L26.9657 31.2328L25.9458 29.4106C25.7567 29.0592 25.4759 28.7656 25.1333 28.5609C24.7907 28.3562 24.399 28.2481 23.9999 28.2481C23.6008 28.2481 23.2092 28.3562 22.8666 28.5609C22.5239 28.7656 22.2432 29.0592 22.054 29.4106L21.0417 31.2103L20.8542 31.5403L20.8392 31.5628L20.6742 31.8627L20.6592 31.8927L20.4718 32.2152L19.122 34.6148C18.6092 35.6872 18.1536 36.786 17.7572 37.9067C17.6672 38.1617 17.5698 38.4166 17.4948 38.6116C16.4674 36.437 16.3025 32.9576 16.3925 30.7154C16.4 30.5805 16.4 30.453 16.415 30.333C16.4145 30.2052 16.422 30.0774 16.4374 29.9506C16.4449 29.8531 16.4524 29.7556 16.4599 29.6656C16.4674 29.5606 16.4824 29.4556 16.4899 29.3657C16.4962 29.3361 16.4987 29.3059 16.4974 29.2757C16.5112 29.1386 16.5138 29.0007 16.5049 28.8632C16.4518 28.3599 16.2683 27.8792 15.9725 27.4685C14.3828 25.2488 14.4953 22.1519 15.3126 20.0747C15.83 18.7549 16.6324 17.8626 17.4573 17.6976C18.0254 17.5871 18.6032 17.5343 19.182 17.5401C20.518 17.5654 21.8476 17.7312 23.1488 18.0351C23.7681 18.1775 24.4117 18.1775 25.031 18.0351C25.2635 17.9826 25.5334 17.9226 25.8334 17.8701C26.0958 17.8176 26.3733 17.7726 26.6732 17.7276C27.4427 17.61 28.2195 17.5474 28.9978 17.5401C29.5766 17.5343 30.1544 17.5871 30.7225 17.6976C31.5474 17.8626 32.3498 18.7549 32.8672 20.0747C33.6845 22.1519 33.797 25.2488 32.2073 27.4685C31.8816 27.9141 31.6963 28.4467 31.6749 28.9982C31.6686 29.1209 31.6737 29.2439 31.6899 29.3657Z" fill="#1C2359"/>
<path d="M0.372314 4.74658H10.7086V9.18284H0.372314V4.74658Z" fill="#B3B3B3"/>
<path d="M0.000244141 4.37231V9.55394H10.7984L11.0834 9.42647V4.37231H0.000244141ZM0.750118 5.12219H10.3335V8.80407H0.750118V5.12219Z" fill="#1C2359"/>
<path d="M21.1468 4.74661C23.7633 9.70042 25.8828 14.9012 27.4742 20.2728C30.3702 30.0481 30.7631 38.7399 30.6409 38.7564C29.9691 32.4744 28.6437 26.2796 26.6861 20.2728C24.855 14.8665 22.471 9.66355 19.572 4.74661C20.0894 4.67462 20.6286 4.8186 21.1468 4.74661Z" fill="#1C2359"/>
<path d="M23.4968 4.88761L18.8131 7.075L17.4086 4.0575C17.1196 3.43587 17.0889 2.725 17.3232 2.08076C17.5575 1.43653 18.0378 0.911506 18.6586 0.62083C18.9662 0.477325 19.2991 0.395864 19.6382 0.381105C19.9773 0.366346 20.316 0.418578 20.6349 0.534816C20.9538 0.651053 21.2467 0.829015 21.4968 1.05852C21.7468 1.28803 21.9492 1.56459 22.0923 1.87237L23.4968 4.88761Z" fill="#B3B3B3"/>
<path d="M22.4366 1.71778C22.1429 1.08248 21.6336 0.571807 20.999 0.27645C20.3645 -0.0189079 19.6458 -0.0798416 18.9706 0.104468C18.2954 0.288778 17.7074 0.706404 17.3109 1.28319C16.9145 1.85998 16.7352 2.55861 16.8051 3.25502C16.814 3.38152 16.8341 3.50698 16.865 3.62996C16.8957 3.75198 16.9332 3.87215 16.9775 3.9899C17.001 4.06733 17.0311 4.1426 17.0675 4.21486L17.7049 5.58713L17.8699 5.92457L18.0273 6.26952L18.6347 7.5743L20.6519 6.62946L21.8367 6.08205L23.9963 5.06972L22.4366 1.71778ZM18.9947 6.57696L18.7097 5.95457L18.5448 5.61713L18.3873 5.27218L17.7499 3.89991L17.7274 3.85492C17.6773 3.73853 17.6372 3.61813 17.6074 3.49498C17.5765 3.372 17.5564 3.24654 17.5474 3.12005C17.5173 2.67443 17.6221 2.23007 17.8481 1.84486C18.0742 1.45965 18.411 1.15145 18.8147 0.960408C19.1075 0.821063 19.4278 0.749306 19.7521 0.750444C20.1733 0.751041 20.5856 0.872071 20.9404 1.09926C21.2951 1.32646 21.5775 1.65034 21.7542 2.03273L22.999 4.70978L21.4918 5.41466L20.2845 5.97707L18.9947 6.57696Z" fill="#1C2359"/>
</svg>
