<svg width="60" height="60" viewBox="0 0 60 60" fill="none" xmlns="http://www.w3.org/2000/svg">
<path d="M58.7254 39.236C58.3115 38.0141 57.3229 37.1266 55.9418 36.7373C54.4557 36.3183 52.5232 36.4518 50.1971 37.1341L39.6114 40.2396C39.0693 39.1321 38.0701 38.2554 36.7882 37.9119L29.2661 35.8965C23.7768 32.0497 20.8351 33.1548 16.5095 35.2703C14.4348 36.2845 12.3806 37.2622 10.44 38.1795L10.0323 37.2006C9.49144 35.9017 7.99437 35.2841 6.69453 35.8235L2.6314 37.5105C1.99824 37.7735 1.50652 38.2649 1.24695 38.8943C0.987263 39.5237 0.989372 40.2189 1.25293 40.8518L8.13324 57.3731C8.5414 58.3532 9.4939 58.9454 10.4953 58.9454C10.8211 58.9454 11.152 58.8827 11.4711 58.7502L15.5342 57.0629C16.1673 56.8 16.6591 56.3086 16.9187 55.6792C17.1782 55.0498 17.1761 54.3546 16.9126 53.7218L16.4517 52.6151L19.0999 51.3274C20.0675 50.8571 21.04 50.7744 22.0725 51.0742L30.5238 53.5281C31.1462 53.7088 31.7892 53.7861 32.4417 53.7861C34.6879 53.786 37.0435 52.8695 39.0235 52.0989C39.1979 52.031 39.369 51.9645 39.5364 51.8999L55.3978 45.7876C57.9657 44.7982 59.5517 41.6754 58.7254 39.236ZM15.402 55.0535C15.3097 55.2776 15.1331 55.4531 14.905 55.5478L10.8419 57.2351C10.377 57.4283 9.84125 57.207 9.64777 56.7424L2.76746 40.2211C2.67254 39.993 2.67113 39.744 2.76359 39.52C2.85605 39.2959 3.03254 39.1205 3.2607 39.0257L7.32382 37.3385C7.43808 37.2911 7.55632 37.2687 7.67293 37.2687C8.03117 37.2687 8.37183 37.4805 8.51785 37.8312L15.3982 54.3526C15.4931 54.5805 15.4945 54.8295 15.402 55.0535ZM54.808 44.2568L38.9466 50.3691C38.7777 50.4342 38.6048 50.5014 38.4287 50.5699C36.1045 51.4745 33.2118 52.6001 30.9814 51.9526L22.5301 49.4987C21.1088 49.0862 19.7135 49.205 18.3826 49.852L15.8199 51.0981L11.0714 39.6955C13.0378 38.7663 15.1221 37.7747 17.23 36.7441C21.2734 34.767 23.608 33.8948 28.4384 37.3202C28.5178 37.3765 28.6066 37.4182 28.7006 37.4435L36.3636 39.4968C37.842 39.893 38.7227 41.4182 38.3265 42.8967C38.1356 43.6091 37.6755 44.2063 37.0309 44.5785C36.3863 44.9506 35.6391 45.0505 34.9265 44.8595L24.7428 42.1308C24.3061 42.013 23.8553 42.273 23.7382 42.7109C23.621 43.1484 23.8807 43.5982 24.3182 43.7155L34.502 46.4442C35.6377 46.7489 36.8271 46.5906 37.8512 45.9993C38.8753 45.4079 39.6069 44.4568 39.9112 43.3212C40.0459 42.8184 40.0878 42.3127 40.0475 41.8214L50.6589 38.7084C54.1648 37.6799 56.5995 38.0739 57.1714 39.7624C57.7134 41.362 56.5426 43.5884 54.808 44.2568ZM10.4526 19.1156H18.3459C19.0735 20.2453 19.9297 21.4059 20.9184 22.6022C24.1534 26.5165 28.4021 30.3934 33.2169 34.6923C33.5673 35.0053 34.0067 35.1618 34.4463 35.1618C34.8857 35.1618 35.3253 35.0053 35.6757 34.6924C39.3201 31.4384 42.6393 28.4262 45.4409 25.4566H51.5599C51.9349 27.1239 53.4263 28.3734 55.2051 28.3734C57.2657 28.3734 58.9422 26.697 58.9422 24.6363C58.9422 22.5757 57.2657 20.8992 55.2051 20.8992C53.4263 20.8992 51.9349 22.1488 51.5599 23.816H46.9359C47.2917 23.4115 47.6396 23.0071 47.9742 22.6023C51.7964 17.9776 53.6544 13.8812 53.6544 10.0788C53.6544 5.10293 49.162 1.05469 43.6401 1.05469C39.5826 1.05469 36.9689 2.53055 34.6186 6.14871C34.5673 6.22734 34.4967 6.24387 34.4464 6.24387C34.396 6.24387 34.3254 6.22734 34.2741 6.14871C31.9237 2.53055 29.3101 1.05469 25.2525 1.05469C19.7307 1.05469 15.2383 5.10293 15.2383 10.0788C15.2383 12.415 15.941 14.8625 17.3683 17.4751H10.4526C9.99957 17.4751 9.6323 17.8424 9.6323 18.2954C9.6323 18.7485 9.99957 19.1156 10.4526 19.1156ZM55.2051 22.5397C56.3611 22.5397 57.3016 23.4802 57.3016 24.6362C57.3016 25.7923 56.3612 26.7327 55.2051 26.7327C54.0491 26.7327 53.1086 25.7923 53.1086 24.6362C53.1086 23.4802 54.0492 22.5397 55.2051 22.5397ZM34.583 33.4685C34.5038 33.5393 34.3887 33.5393 34.3095 33.4685C29.2442 28.946 23.7608 24.0493 20.3239 19.1156H23.1226C23.456 19.1156 23.7561 18.9138 23.8821 18.6053L25.8969 13.6677L27.802 24.3844C27.8622 24.7232 28.1273 24.9882 28.4661 25.0485C28.8043 25.1086 29.1451 24.9512 29.3183 24.6539L33.3296 17.7722L35.3286 21.3968C35.4792 21.6696 35.7692 21.8345 36.0823 21.8202C36.3935 21.8067 36.6704 21.6182 36.7967 21.3335L38.8705 16.6627L40.7553 24.8208C40.8412 25.1929 41.1727 25.4564 41.5545 25.4564H43.1723C40.4757 28.2067 37.4619 30.8981 34.583 33.4685ZM16.8789 10.0787C16.8789 6.00738 20.6353 2.6952 25.2525 2.6952C28.7676 2.6952 30.84 3.8734 32.8984 7.04227C33.2409 7.56961 33.8196 7.88437 34.4464 7.88437C35.0731 7.88437 35.6518 7.56961 35.9943 7.04227C38.0528 3.8734 40.1251 2.6952 43.6401 2.6952C48.2573 2.6952 52.0137 6.00738 52.0137 10.0787C52.0137 14.6013 48.9216 19.2714 44.7345 23.8159H42.207L39.9162 13.9012C39.8368 13.5574 39.5464 13.303 39.1952 13.2693C38.8429 13.2359 38.5103 13.4304 38.3674 13.753L35.9676 19.1582L34.0679 15.7133C33.9253 15.4547 33.6547 15.2927 33.3593 15.2892C33.0595 15.2822 32.7896 15.4412 32.6408 15.6963L29.0261 21.8973L27.016 10.5895C26.9521 10.23 26.6581 9.9559 26.2951 9.91734C25.9317 9.87867 25.5869 10.085 25.4489 10.4231L22.5712 17.4749H19.2597C17.7768 14.9952 16.8789 12.5156 16.8789 10.0787Z" fill="#F96363"/>
</svg>
