<svg width="39" height="48" viewBox="0 0 39 48" fill="none" xmlns="http://www.w3.org/2000/svg">
<path d="M4.86523 4.21875C4.86523 2.27709 6.43939 0.703125 8.38114 0.703125H29.6641C31.6058 0.703125 33.18 2.27709 33.18 4.21875V43.7812C33.18 45.7229 31.6058 47.2969 29.6641 47.2969H8.38114C6.43939 47.2969 4.86523 45.7229 4.86523 43.7812V4.21875Z" fill="#F5F8F9"/>
<path d="M33.1797 4.21875V43.7812C33.1797 45.7228 31.6056 47.2969 29.6641 47.2969H26.6641C28.6056 47.2969 30.1797 45.7228 30.1797 43.7812V4.21875C30.1797 2.27719 28.6056 0.703125 26.6641 0.703125H29.6641C31.6056 0.703125 33.1797 2.27719 33.1797 4.21875Z" fill="#E8EDF2"/>
<path d="M15.9029 23.5847L13.6782 23.7257H1.7745C1.19578 23.7257 0.726562 23.2566 0.726562 22.6777V8.17172C0.726562 7.593 1.19569 7.12378 1.7745 7.12378H13.6782L15.9955 7.35356C16.5743 7.35356 17.0435 7.82269 17.0435 8.4015L16.9508 22.5367C16.9508 23.1156 16.4816 23.5847 15.9029 23.5847Z" fill="#8DB9FF"/>
<path d="M17.329 8.17215V22.6781C17.329 23.2565 16.8603 23.7253 16.2809 23.7253H13.1318C14.1556 23.7253 14.9853 22.8965 14.9853 21.8728V8.97652C14.9853 7.95371 14.1556 7.12402 13.1318 7.12402H16.2809C16.8603 7.12402 17.329 7.59277 17.329 8.17215Z" fill="#70ABF2"/>
<path d="M15.9029 43.5565L13.6782 43.6975H1.7745C1.19578 43.6975 0.726562 43.2284 0.726562 42.6495V28.1435C0.726562 27.5648 1.19569 27.0956 1.7745 27.0956H13.6782L15.9955 27.3254C16.5743 27.3254 17.0435 27.7945 17.0435 28.3733L16.9508 42.5085C16.9508 43.0874 16.4816 43.5565 15.9029 43.5565Z" fill="#FFDE80"/>
<path d="M17.329 28.1439V42.6499C17.329 43.2283 16.8603 43.6971 16.2809 43.6971H13.1318C14.1556 43.6971 14.9853 42.8683 14.9853 41.8446V28.9483C14.9853 27.9255 14.1556 27.0958 13.1318 27.0958H16.2809C16.8603 27.0958 17.329 27.5646 17.329 28.1439Z" fill="#FFCE61"/>
<path d="M35.9176 43.5564L33.6929 43.6974H21.7891C21.2104 43.6974 20.7412 43.2282 20.7412 42.6494V28.1434C20.7412 27.5647 21.2103 27.0955 21.7891 27.0955H33.6929L36.0102 27.3252C36.5889 27.3252 37.0581 27.7944 37.0581 28.3732L36.9655 42.5084C36.9655 43.0872 36.4963 43.5564 35.9176 43.5564Z" fill="#86E8D0"/>
<path d="M37.3437 28.1438V42.6498C37.3437 43.2282 36.8749 43.697 36.2955 43.697H33.1465C34.1702 43.697 34.9999 42.8682 34.9999 41.8445V28.9482C34.9999 27.9254 34.1702 27.0957 33.1465 27.0957H36.2955C36.8749 27.0957 37.3437 27.5645 37.3437 28.1438Z" fill="#5DE1C4"/>
<path d="M35.9176 23.5847L33.6929 23.7257H21.7891C21.2104 23.7257 20.7412 23.2566 20.7412 22.6777V8.17172C20.7412 7.593 21.2103 7.12378 21.7891 7.12378H33.6929L36.0102 7.35356C36.5889 7.35356 37.0581 7.82269 37.0581 8.4015L36.9655 22.5367C36.9655 23.1156 36.4964 23.5847 35.9176 23.5847Z" fill="#FF7E7B"/>
<path d="M37.3437 8.17215V22.6781C37.3437 23.2565 36.8749 23.7253 36.2955 23.7253H33.1465C34.1702 23.7253 34.9999 22.8965 34.9999 21.8728V8.97652C34.9999 7.95371 34.1702 7.12402 33.1465 7.12402H36.2955C36.8749 7.12402 37.3437 7.59277 37.3437 8.17215Z" fill="#FF6464"/>
<path d="M24.6719 13.8449H27.1803C27.3356 13.8449 27.4615 13.719 27.4615 13.5637V11.0553C27.4615 10.9 27.5874 10.774 27.7428 10.774H30.34C30.4953 10.774 30.6212 10.9 30.6212 11.0553V13.5637C30.6212 13.719 30.7472 13.8449 30.9025 13.8449H33.4109C33.5662 13.8449 33.6921 13.9708 33.6921 14.1262V16.7234C33.6921 16.8788 33.5662 17.0047 33.4109 17.0047H30.9025C30.7472 17.0047 30.6212 17.1306 30.6212 17.2859V19.7943C30.6212 19.9496 30.4953 20.0755 30.34 20.0755H27.7428C27.5874 20.0755 27.4615 19.9496 27.4615 19.7943V17.2859C27.4615 17.1306 27.3356 17.0047 27.1803 17.0047H24.6719C24.5165 17.0047 24.3906 16.8788 24.3906 16.7234V14.1262C24.3906 13.9708 24.5165 13.8449 24.6719 13.8449Z" fill="#F5F8F9"/>
<path d="M27.2271 32.6119V36.8326L25.7366 37.528L24.1465 36.8326V32.6119H27.2271Z" fill="#F5F8F9"/>
<path d="M27.2271 36.8325V39.1978C27.2271 40.0481 26.5371 40.7381 25.6868 40.7381C24.8365 40.7381 24.1465 40.0481 24.1465 39.1978V36.8325H27.2271Z" fill="#0ED2B3"/>
<path d="M27.4206 32.7547H23.9532C23.7908 32.7547 23.6592 32.6231 23.6592 32.4607V30.3491C23.6592 30.1867 23.7908 30.0551 23.9532 30.0551H27.4206C27.583 30.0551 27.7146 30.1867 27.7146 30.3491V32.4607C27.7145 32.6231 27.5829 32.7547 27.4206 32.7547Z" fill="#E8EDF2"/>
<path d="M8.28884 39.4359L4.98828 36.1354C3.69922 34.8463 3.69922 32.7563 4.98828 31.4674L5.91153 30.5441C6.11619 30.3395 6.44787 30.3395 6.65253 30.5441L8.35437 32.246C8.55903 32.4506 8.55903 32.7823 8.35437 32.987L7.76403 33.5773C7.49825 33.8431 7.49825 34.274 7.76403 34.5397L9.88456 36.6603C10.1503 36.9261 10.5812 36.9261 10.847 36.6603L11.4373 36.0699C11.642 35.8653 11.9737 35.8653 12.1783 36.0699L13.8802 37.7718C14.0848 37.9764 14.0848 38.3081 13.8802 38.5128L12.9569 39.436C11.6678 40.7249 9.57791 40.7249 8.28884 39.4359Z" fill="#918291"/>
<path d="M14.0337 13.0601C14.0337 13.7429 13.7735 14.4243 13.2532 14.9446L10.8792 17.3187L8.32483 16.402L7.11133 13.5495L9.48405 11.1755C10.5249 10.1347 12.2124 10.1347 13.2532 11.1755C13.7735 11.696 14.0337 12.3775 14.0337 13.0601Z" fill="#F5F8F9"/>
<path d="M10.8794 17.3187L8.52526 19.6741C7.48445 20.7149 5.79695 20.7149 4.75613 19.6741C3.7141 18.6332 3.7141 16.9457 4.75613 15.9049L7.1116 13.5496L10.8794 17.3187Z" fill="#FF7E7B"/>
<path d="M33.9556 32.6119V36.8326L32.4651 37.528L30.875 36.8326V32.6119H33.9556Z" fill="#F5F8F9"/>
<path d="M33.9556 36.8325V39.1978C33.9556 40.0481 33.2656 40.7381 32.4153 40.7381C31.565 40.7381 30.875 40.0481 30.875 39.1978V36.8325H33.9556Z" fill="#0ED2B3"/>
<path d="M34.1491 32.7547H30.6817C30.5193 32.7547 30.3877 32.6231 30.3877 32.4607V30.3491C30.3877 30.1867 30.5193 30.0551 30.6817 30.0551H34.1491C34.3115 30.0551 34.4431 30.1867 34.4431 30.3491V32.4607C34.443 32.6231 34.3115 32.7547 34.1491 32.7547Z" fill="#E8EDF2"/>
<path d="M37.3425 16.3884C37.7309 16.3884 38.0456 16.0737 38.0456 15.6853V8.17219C38.0456 7.20656 37.26 6.42094 36.2944 6.42094H33.8832V4.21875C33.8832 1.89253 31.9906 0 29.6642 0H8.38134C6.05503 0 4.16231 1.89253 4.16231 4.21875V6.42094H1.75125C0.785625 6.42094 0 7.20656 0 8.17219V22.6781C0 23.6433 0.785625 24.4284 1.75125 24.4284H4.16241V26.384H1.75125C0.785625 26.384 0 27.1696 0 28.1353V30.4302C0 30.8186 0.314719 31.1333 0.703125 31.1333C1.09153 31.1333 1.40625 30.8186 1.40625 30.4302V28.1353C1.40625 27.9451 1.56094 27.7902 1.75125 27.7902H16.2572C16.4474 27.7902 16.6022 27.945 16.6022 28.1353V42.6413C16.6022 42.8315 16.4475 42.9862 16.2572 42.9862H1.75125C1.56103 42.9862 1.40625 42.8316 1.40625 42.6413V33.7116C1.40625 33.3232 1.09153 33.0084 0.703125 33.0084C0.314719 33.0084 0 33.3232 0 33.7116V42.6413C0 43.6069 0.785625 44.3925 1.75125 44.3925H4.20722C4.50431 46.4301 6.26269 48 8.38144 48H29.6644C31.7831 48 33.5415 46.4301 33.8386 44.3925H36.2946C37.2602 44.3925 38.0458 43.6069 38.0458 42.6413V28.1353C38.0458 27.1696 37.2602 26.384 36.2946 26.384H33.8834V24.4284H36.2946C37.2602 24.4284 38.0458 23.6433 38.0458 22.6781V18.9666C38.0458 18.5782 37.7311 18.2634 37.3427 18.2634C36.9543 18.2634 36.6396 18.5782 36.6396 18.9666V22.6781C36.6396 22.8678 36.4849 23.0222 36.2946 23.0222H21.7884C21.5982 23.0222 21.4434 22.8679 21.4434 22.6781V8.17219C21.4434 7.98197 21.5981 7.82719 21.7884 7.82719H36.2944C36.4846 7.82719 36.6394 7.98187 36.6394 8.17219V15.6853C36.6394 16.0736 36.9542 16.3884 37.3425 16.3884ZM20.0372 8.17219V22.6781C20.0372 23.6433 20.8228 24.4284 21.7884 24.4284H32.4771V26.384H21.7884C20.8228 26.384 20.0372 27.1696 20.0372 28.1353V42.6413C20.0372 43.6069 20.8228 44.3925 21.7884 44.3925H23.6588C24.0472 44.3925 24.3619 44.0778 24.3619 43.6894C24.3619 43.301 24.0472 42.9862 23.6588 42.9862H21.7884C21.5982 42.9862 21.4434 42.8316 21.4434 42.6413V28.1353C21.4434 27.9451 21.5981 27.7902 21.7884 27.7902H36.2944C36.4846 27.7902 36.6394 27.945 36.6394 28.1353V42.6413C36.6394 42.8315 36.4847 42.9862 36.2944 42.9862H26.94C26.5516 42.9862 26.2369 43.301 26.2369 43.6894C26.2369 44.0778 26.5516 44.3925 26.94 44.3925H32.4094C32.1294 45.6503 31.0053 46.5938 29.6643 46.5938H8.38134C7.04034 46.5938 5.91619 45.6502 5.63625 44.3925H16.2572C17.2228 44.3925 18.0084 43.6069 18.0084 42.6413V28.1353C18.0084 27.1696 17.2228 26.384 16.2572 26.384H5.56856V24.4284H16.2572C17.2228 24.4284 18.0084 23.6433 18.0084 22.6781V8.17219C18.0084 7.20656 17.2228 6.42094 16.2572 6.42094H11.1244C10.736 6.42094 10.4213 6.73566 10.4213 7.12406C10.4213 7.51247 10.736 7.82719 11.1244 7.82719H16.2572C16.4474 7.82719 16.6022 7.98187 16.6022 8.17219V22.6781C16.6022 22.8678 16.4475 23.0222 16.2572 23.0222H1.75125C1.56103 23.0222 1.40625 22.8679 1.40625 22.6781V8.17219C1.40625 7.98197 1.56094 7.82719 1.75125 7.82719H7.84313C8.23153 7.82719 8.54625 7.51247 8.54625 7.12406C8.54625 6.73566 8.23153 6.42094 7.84313 6.42094H5.56856V4.21875C5.56856 2.66794 6.83034 1.40625 8.38134 1.40625H29.6643C31.2153 1.40625 32.4771 2.66794 32.4771 4.21875V6.42094H21.7884C20.8228 6.42094 20.0372 7.20656 20.0372 8.17219Z" fill="black"/>
<path d="M27.4615 20.7787H30.6212C31.0096 20.7787 31.3243 20.464 31.3243 20.0756V17.7078H33.692C34.0804 17.7078 34.3952 17.3931 34.3952 17.0047V13.845C34.3952 13.4565 34.0804 13.1418 33.692 13.1418H31.3243V10.7742C31.3243 10.3858 31.0096 10.071 30.6212 10.071H27.4615C27.0731 10.071 26.7584 10.3858 26.7584 10.7742V13.1418H24.3906C24.0022 13.1418 23.6875 13.4565 23.6875 13.845V17.0047C23.6875 17.3931 24.0022 17.7078 24.3906 17.7078H26.7584V20.0756C26.7584 20.4639 27.0731 20.7787 27.4615 20.7787ZM25.0938 16.3016V14.5481H27.4615C27.8499 14.5481 28.1646 14.2334 28.1646 13.845V11.4773H29.918V13.845C29.918 14.2334 30.2327 14.5481 30.6212 14.5481H32.9889V16.3016H30.6212C30.2327 16.3016 29.918 16.6163 29.918 17.0047V19.3725H28.1646V17.0047C28.1646 16.6163 27.8499 16.3016 27.4615 16.3016H25.0938Z" fill="black"/>
<path d="M8.85159 31.7485L7.14984 30.0467C6.67133 29.5682 5.89284 29.5682 5.41434 30.0467L4.49109 30.97C2.93005 32.5311 2.93005 35.0713 4.49109 36.6324L7.79165 39.933C8.5723 40.7135 9.59746 41.1037 10.6229 41.1037C11.6481 41.1037 12.6736 40.7133 13.454 39.933L14.3774 39.0097C14.8559 38.5312 14.8559 37.7527 14.3773 37.2742L12.6756 35.5725C12.1971 35.094 11.4186 35.094 10.9401 35.5725L10.3657 36.1469L8.27718 34.0583L8.85177 33.4838C9.3299 33.0055 9.3299 32.2271 8.85159 31.7485ZM9.38737 37.1573C9.64874 37.4186 9.99618 37.5625 10.3658 37.5625C10.7355 37.5625 11.0828 37.4186 11.3443 37.1573L11.8079 36.6936L13.2564 38.1421L12.4597 38.9386C11.4471 39.9513 9.79902 39.9515 8.78615 38.9386L5.48559 35.638C4.47271 34.6252 4.47271 32.9772 5.48559 31.9644L6.28209 31.1678L7.73062 32.6162L7.26684 33.0798C7.00555 33.3412 6.86165 33.6886 6.86165 34.0583C6.86165 34.428 7.00555 34.7754 7.26684 35.0368L9.38737 37.1573Z" fill="black"/>
<path d="M27.9289 39.1981V33.3162C28.2205 33.1421 28.4167 32.8241 28.4167 32.4606V30.3491C28.4167 29.7993 27.9694 29.3519 27.4195 29.3519H23.9522C23.4025 29.3519 22.9551 29.7992 22.9551 30.3491V32.4606C22.9551 32.8241 23.1514 33.142 23.4429 33.3162V39.1981C23.4429 40.4349 24.4491 41.4411 25.6859 41.4411C26.9228 41.4411 27.9289 40.435 27.9289 39.1981ZM24.8491 33.4578H26.5226V36.129H24.8491V33.4578ZM24.3613 30.7583H27.0104V32.0516H24.3613V30.7583ZM24.8491 39.1981V37.5353H26.5226V39.1981C26.5226 39.6595 26.1473 40.0348 25.6859 40.0348C25.2245 40.0348 24.8491 39.6595 24.8491 39.1981Z" fill="black"/>
<path d="M30.1724 33.3164V39.1982C30.1724 40.435 31.1785 41.4412 32.4153 41.4412C33.6522 41.4412 34.6584 40.4351 34.6584 39.1982V33.3164C34.9499 33.1422 35.1462 32.8243 35.1462 32.4607V30.3492C35.1462 29.7994 34.6989 29.3521 34.149 29.3521H30.6817C30.1319 29.3521 29.6846 29.7993 29.6846 30.3492V32.4607C29.6846 32.8243 29.8808 33.1421 30.1724 33.3164ZM33.252 33.4578V36.1291H31.5785V33.4578H33.252ZM32.4153 40.0349C31.954 40.0349 31.5786 39.6595 31.5786 39.1981V37.5353H33.2521V39.1981C33.252 39.6595 32.8767 40.0349 32.4153 40.0349ZM31.0908 30.7583H33.7399V32.0516H31.0908V30.7583Z" fill="black"/>
<path d="M4.22282 15.4114C2.90104 16.7333 2.90094 18.8841 4.22282 20.206C4.88385 20.867 5.75207 21.1974 6.6201 21.1974C7.48832 21.1974 8.35644 20.8671 9.01747 20.2061L13.7852 15.4383C15.1071 14.1163 15.107 11.9655 13.7852 10.6437C13.1449 10.0033 12.2935 9.65063 11.3879 9.65063C10.4823 9.65063 9.63088 10.0033 8.99057 10.6436L4.22282 15.4114ZM8.02307 19.2116C7.24963 19.9852 5.99066 19.9854 5.21722 19.2116V19.2117C4.44378 18.438 4.44369 17.1792 5.21722 16.4058L7.09438 14.5285L9.90013 17.3344L8.02307 19.2116ZM11.3879 11.0568C11.9178 11.0568 12.4161 11.2631 12.7908 11.6379C13.5644 12.4115 13.5644 13.6703 12.7908 14.4438L10.8946 16.34L8.08879 13.5341L9.98497 11.6379C10.3598 11.2632 10.858 11.0568 11.3879 11.0568Z" fill="black"/>
<path d="M20.1713 2.8125H15.4834C15.0951 2.8125 14.7803 3.12722 14.7803 3.51562C14.7803 3.90403 15.0951 4.21875 15.4834 4.21875H20.1713C20.5597 4.21875 20.8744 3.90403 20.8744 3.51562C20.8744 3.12722 20.5597 2.8125 20.1713 2.8125Z" fill="black"/>
<path d="M22.5625 4.21875C22.9508 4.21875 23.2656 3.90395 23.2656 3.51562C23.2656 3.1273 22.9508 2.8125 22.5625 2.8125C22.1742 2.8125 21.8594 3.1273 21.8594 3.51562C21.8594 3.90395 22.1742 4.21875 22.5625 4.21875Z" fill="black"/>
</svg>
