<svg width="49" height="49" viewBox="0 0 49 49" fill="none" xmlns="http://www.w3.org/2000/svg">
<path d="M43.1287 24.5984L41.8635 27.0984C43.6135 28.3408 44.7575 30.3711 44.7575 32.6741C44.7575 36.4014 41.7575 39.4393 38.0378 39.5075L35.3408 43.0378L39.1969 42.2044C43.8938 41.5757 47.5302 37.5529 47.5302 32.6817C47.5378 29.2878 45.7802 26.3105 43.1287 24.5984Z" fill="#E6E9EE"/>
<g opacity="0.5">
<path d="M43.1287 24.5984L42.4317 25.9696C44.6742 27.4848 46.0151 29.9772 46.0151 32.6741C46.0151 36.712 42.9999 40.159 38.9923 40.6969C38.9545 40.7044 38.909 40.712 38.8711 40.7196L36.7651 41.1666L35.3408 43.0226L39.1969 42.1893C43.8938 41.5605 47.5302 37.5378 47.5302 32.6666C47.5378 29.2878 45.7802 26.3105 43.1287 24.5984Z" fill="white"/>
</g>
<path d="M15.7575 27.5832C18.803 27.5832 19.8787 29.2348 21.5378 30.4014C21.5378 30.3029 21.553 30.212 21.553 30.1135C21.553 25.2499 18.2424 21.1742 13.75 19.9848V13.3408H8.37117V19.9848C4.30299 21.0605 1.21208 24.5075 0.666626 28.7651C2.27269 29.9317 3.3636 31.5302 6.35602 31.5302C11.053 31.5302 11.053 27.5832 15.7575 27.5832Z" fill="#E6E9EE"/>
<g opacity="0.5">
<path d="M13.75 19.9923V13.3484H11.4773V19.9923C11.4773 21.0226 12.1743 21.9241 13.1667 22.1893C14.8409 22.6287 16.3637 23.6211 17.4621 24.9696C17.9091 25.5226 18.5682 25.8105 19.2273 25.8105C19.6515 25.8105 20.0682 25.6893 20.447 25.4469C19.1137 22.7878 16.6818 20.7651 13.75 19.9923Z" fill="white"/>
</g>
<path d="M43.6288 44.8862H24.5076C24.0833 44.8862 23.7424 45.2271 23.7424 45.6514V47.1741C23.7424 47.5984 24.0833 47.9393 24.5076 47.9393H43.6288C44.053 47.9393 44.3939 47.5984 44.3939 47.1741V45.6514C44.3939 45.2271 44.053 44.8862 43.6288 44.8862Z" fill="#AAB2BD"/>
<path d="M37.5076 38.2727H30.6288L27.7727 44.8863H40.3636L37.5076 38.2727Z" fill="#F96363"/>
<g opacity="0.1">
<path d="M39.3863 42.6136H35.5303C33.2954 42.6136 31.7954 40.3257 32.6818 38.2727H30.6288L27.7727 44.8863H40.3636L39.3863 42.6136Z" fill="black"/>
</g>
<path d="M36.4999 32.1741L31.6893 30.856L31.7499 34.1135L34.7878 34.9469L36.4999 32.1741Z" fill="#E6E9EE"/>
<path d="M37.1315 13.8293L40.5055 14.7568L39.7888 17.364L36.4148 16.4365L37.1315 13.8293Z" fill="#E6E9EE"/>
<path d="M42.5226 12.3789L36.6363 10.7577C36.2423 10.6517 35.8408 10.8789 35.7348 11.2729L35.3711 12.5835C35.2651 12.9774 35.4923 13.3789 35.8863 13.485L41.7726 15.1062C42.1666 15.2123 42.5681 14.985 42.6741 14.591L43.0378 13.2804C43.1438 12.8865 42.909 12.485 42.5226 12.3789Z" fill="#FF4823"/>
<g opacity="0.15">
<path d="M37.3711 12.735C36.9772 12.6289 36.7499 12.2274 36.856 11.8335L37.1135 10.8941L36.6363 10.7653C36.2423 10.6592 35.8408 10.8865 35.7348 11.2804L35.3711 12.591C35.2651 12.985 35.4923 13.3865 35.8863 13.4926L41.7726 15.1138C42.1666 15.2198 42.5681 14.9926 42.6742 14.5986L42.7726 14.2274L37.3711 12.735Z" fill="black"/>
</g>
<path d="M40.7045 17.6135L35.5227 16.1893C34.7424 15.9772 33.9318 16.4317 33.7197 17.212L30.4773 28.9999C30.2651 29.7802 30.7197 30.5908 31.5 30.8029L36.6818 32.2272C37.4621 32.4393 38.2727 31.9847 38.4848 31.2044L39.5303 27.4014L41 22.0605L41.7273 19.4241C41.947 18.6363 41.4848 17.8257 40.7045 17.6135Z" fill="#F96363"/>
<g opacity="0.15">
<path d="M34.0909 22.6135L35.8333 16.2726L35.5227 16.1893C34.7424 15.9772 33.9318 16.4317 33.7197 17.212L30.4773 28.9999C30.2651 29.7802 30.7197 30.5908 31.5 30.8029L36.6818 32.2272C37.4621 32.4393 38.2727 31.9847 38.4848 31.2044L38.6439 30.6287C35.1742 29.6741 33.1363 26.0832 34.0909 22.6135Z" fill="black"/>
</g>
<path d="M2.99992 8.75741C3.85345 8.75741 4.54538 8.06549 4.54538 7.21196C4.54538 6.35843 3.85345 5.6665 2.99992 5.6665C2.14639 5.6665 1.45447 6.35843 1.45447 7.21196C1.45447 8.06549 2.14639 8.75741 2.99992 8.75741Z" fill="#FEC200"/>
<path d="M7.24992 4.88656C8.10345 4.88656 8.79538 4.19464 8.79538 3.34111C8.79538 2.48758 8.10345 1.79565 7.24992 1.79565C6.39639 1.79565 5.70447 2.48758 5.70447 3.34111C5.70447 4.19464 6.39639 4.88656 7.24992 4.88656Z" fill="#FEC200"/>
<path d="M20.7651 13.4017C21.6186 13.4017 22.3105 12.7098 22.3105 11.8562C22.3105 11.0027 21.6186 10.3108 20.7651 10.3108C19.9115 10.3108 19.2196 11.0027 19.2196 11.8562C19.2196 12.7098 19.9115 13.4017 20.7651 13.4017Z" fill="#FEC200"/>
<path d="M15.7575 27.5833C11.0605 27.5833 11.0605 31.5302 6.35599 31.5302C3.36357 31.5302 2.27266 29.9317 0.6666 28.7651C0.605994 29.212 0.568115 29.659 0.568115 30.1211C0.568115 35.9166 5.26508 40.6136 11.0605 40.6136C16.7575 40.6136 21.3787 36.0681 21.5378 30.409C19.8787 29.2423 18.803 27.5833 15.7575 27.5833Z" fill="#22F1DC"/>
<path d="M14.659 13.3484C14.9393 13.3484 15.159 13.1211 15.159 12.8484V10.8484C15.159 10.5681 14.9317 10.3484 14.659 10.3484H7.45447C7.17416 10.3484 6.95447 10.5757 6.95447 10.8484V12.8484C6.95447 13.1287 7.18174 13.3484 7.45447 13.3484H8.37113H13.7499H14.659Z" fill="#AAB2BD"/>
<path d="M26.5909 16.0984H19.1894C18.803 16.0984 18.4924 16.409 18.4924 16.7954V18.1741C18.4924 18.5605 18.803 18.8711 19.1894 18.8711H26.5909C26.9773 18.8711 27.2879 18.5605 27.2879 18.1741V16.7954C27.2879 16.409 26.9773 16.0984 26.5909 16.0984Z" fill="#AAB2BD"/>
<path d="M19.6742 18.8713H26.1136V32.341H19.6742V18.8713Z" fill="#E6E9EE"/>
<path d="M19.6742 32.3411V37.3941C19.6742 39.1744 21.1136 40.6138 22.8939 40.6138C24.6742 40.6138 26.1136 39.1744 26.1136 37.3941V32.3411H19.6742Z" fill="#FEC200"/>
<path d="M40.3636 27.5379C41.8991 27.5379 43.1439 26.2931 43.1439 24.7576C43.1439 23.2221 41.8991 21.9773 40.3636 21.9773C38.828 21.9773 37.5833 23.2221 37.5833 24.7576C37.5833 26.2931 38.828 27.5379 40.3636 27.5379Z" fill="#AAB2BD"/>
<g opacity="0.15">
<path d="M41.2499 26.3032C39.712 26.3032 38.4696 25.0608 38.4696 23.5229C38.4696 23.1971 38.5378 22.8865 38.6439 22.5911C38.0075 23.0986 37.5908 23.8789 37.5908 24.7577C37.5908 26.2956 38.8332 27.538 40.3711 27.538C41.5757 27.538 42.5984 26.7653 42.9772 25.6895C42.4999 26.0683 41.909 26.3032 41.2499 26.3032Z" fill="black"/>
</g>
<g opacity="0.1">
<path d="M3.93932 7.82599C3.08326 7.82599 2.39386 7.13659 2.39386 6.28053C2.39386 6.09871 2.43174 5.92447 2.48477 5.76538C1.88629 5.9775 1.45447 6.54568 1.45447 7.21993C1.45447 8.07599 2.14386 8.76538 2.99992 8.76538C3.67416 8.76538 4.24235 8.33356 4.45447 7.73508C4.29538 7.78811 4.12113 7.82599 3.93932 7.82599Z" fill="black"/>
</g>
<g opacity="0.1">
<path d="M8.18932 3.9544C7.33326 3.9544 6.64387 3.26501 6.64387 2.40895C6.64387 2.22713 6.68175 2.05289 6.73478 1.8938C6.13629 2.10592 5.6969 2.66653 5.6969 3.34077C5.6969 4.19683 6.38629 4.88622 7.24235 4.88622C7.9166 4.88622 8.48478 4.4544 8.6969 3.85592C8.53781 3.91653 8.36357 3.9544 8.18932 3.9544Z" fill="black"/>
</g>
<g opacity="0.1">
<path d="M21.7045 12.4622C20.8484 12.4622 20.159 11.7728 20.159 10.9168C20.159 10.7349 20.1969 10.5607 20.2499 10.4016C19.6514 10.6137 19.2196 11.1819 19.2196 11.8562C19.2196 12.7122 19.909 13.4016 20.7651 13.4016C21.4393 13.4016 22.0075 12.9698 22.2196 12.3713C22.0605 12.4243 21.8863 12.4622 21.7045 12.4622Z" fill="black"/>
</g>
<g opacity="0.1">
<path d="M14.0908 37.5759C8.29539 37.5759 3.59842 32.8789 3.59842 27.0835C3.59842 26.6213 3.6363 26.1744 3.6969 25.735C3.90145 24.1365 4.46963 22.6516 5.31054 21.3638C2.81812 23.0001 1.06812 25.6668 0.6666 28.7729C0.605994 29.2123 0.568115 29.6592 0.568115 30.1213C0.568115 35.9168 5.26508 40.6138 11.0605 40.6138C14.7196 40.6138 17.9317 38.7274 19.803 35.8789C18.159 36.9547 16.2045 37.5759 14.0908 37.5759Z" fill="black"/>
</g>
<g opacity="0.1">
<path d="M25.1666 38.3335C23.3939 38.3335 21.9469 36.8941 21.9469 35.1213V18.8713H19.6742V37.3941C19.6742 39.1668 21.1212 40.6062 22.8939 40.6062C24.3863 40.6062 25.6287 39.5835 25.9924 38.2122C25.7272 38.2804 25.4545 38.3335 25.1666 38.3335Z" fill="black"/>
</g>
<g opacity="0.1">
<path d="M15.1211 12.0908H9.74235H8.82568C8.54538 12.0908 8.32568 11.8635 8.32568 11.5908V10.3484H7.45447C7.17416 10.3484 6.95447 10.5757 6.95447 10.8484V12.8484C6.95447 13.1287 7.18174 13.3484 7.45447 13.3484H8.37113H13.7499H14.6666C14.9469 13.3484 15.1666 13.1211 15.1666 12.8484V12.0908H15.1211Z" fill="black"/>
</g>
<g opacity="0.1">
<path d="M20.5682 17.6062C20.1818 17.6062 19.8712 17.2956 19.8712 16.9092V16.0911H19.1894C18.803 16.0911 18.4924 16.4017 18.4924 16.788V18.1668C18.4924 18.5532 18.803 18.8638 19.1894 18.8638H26.5909C26.9773 18.8638 27.2879 18.5532 27.2879 18.1668V17.6062H20.5682Z" fill="black"/>
</g>
<g opacity="0.15">
<path d="M26.7879 46.4168C26.3636 46.4168 26.0227 46.0759 26.0227 45.6516V44.8789H24.5076C24.0833 44.8789 23.7424 45.2198 23.7424 45.6441V47.1668C23.7424 47.591 24.0833 47.9319 24.5076 47.9319H43.6288C44.053 47.9319 44.3939 47.591 44.3939 47.1668V46.4092H26.7879V46.4168Z" fill="black"/>
</g>
<path d="M26.5909 19.4391H19.1893C18.4924 19.4391 17.9242 18.8709 17.9242 18.174V16.7952C17.9242 16.0982 18.4924 15.53 19.1893 15.53H26.5909C27.2878 15.53 27.856 16.0982 27.856 16.7952V18.174C27.856 18.8709 27.2878 19.4391 26.5909 19.4391ZM19.1893 16.6664C19.1212 16.6664 19.0606 16.727 19.0606 16.7952V18.174C19.0606 18.2422 19.1212 18.3028 19.1893 18.3028H26.5909C26.659 18.3028 26.7197 18.2422 26.7197 18.174V16.7952C26.7197 16.727 26.659 16.6664 26.5909 16.6664H19.1893Z" fill="#211E27"/>
<path d="M22.894 41.1742C20.803 41.1742 19.1061 39.4772 19.1061 37.3863V18.8712C19.1061 18.5606 19.3637 18.303 19.6743 18.303H26.1137C26.4243 18.303 26.6818 18.5606 26.6818 18.8712V37.3939C26.6743 39.4772 24.9773 41.1742 22.894 41.1742ZM20.2424 19.4393V37.3939C20.2424 38.856 21.4318 40.0454 22.894 40.0454C24.3561 40.0454 25.5455 38.856 25.5455 37.3939V19.4393H20.2424Z" fill="#211E27"/>
<path d="M26.1061 32.9091H19.6667C19.3561 32.9091 19.0985 32.6515 19.0985 32.3409C19.0985 32.0303 19.3561 31.7727 19.6667 31.7727H26.1061C26.4167 31.7727 26.6743 32.0303 26.6743 32.3409C26.6743 32.6515 26.4243 32.9091 26.1061 32.9091Z" fill="#211E27"/>
<path d="M43.6287 48.4999H24.5075C23.7727 48.4999 23.1818 47.9014 23.1818 47.1742V45.6514C23.1818 44.9166 23.7802 44.3181 24.5075 44.3181H43.6287C44.3636 44.3181 44.9545 44.9166 44.9545 45.6514V47.1742C44.9621 47.909 44.3636 48.4999 43.6287 48.4999ZM24.5075 45.4545C24.4015 45.4545 24.3181 45.5454 24.3181 45.6514V47.1742C24.3181 47.2802 24.4015 47.3636 24.5075 47.3636H43.6287C43.7348 47.3636 43.8181 47.2802 43.8181 47.1742V45.6514C43.8181 45.5454 43.7348 45.4545 43.6287 45.4545H24.5075Z" fill="#211E27"/>
<path d="M40.3712 45.4548C40.1515 45.4548 39.9393 45.326 39.8484 45.1139L37.1363 38.8412H30.9999L28.2878 45.1139C28.1666 45.4018 27.8257 45.5306 27.5378 45.4094C27.2499 45.2882 27.1212 44.9473 27.2424 44.6594L30.0984 38.0457C30.1893 37.8412 30.3939 37.7048 30.6212 37.7048H37.4999C37.7272 37.7048 37.9318 37.8412 38.0227 38.0457L40.8787 44.6594C40.9999 44.9473 40.8712 45.2806 40.5833 45.4094C40.5227 45.4397 40.4393 45.4548 40.3712 45.4548Z" fill="#211E27"/>
<path d="M34.7879 35.515C34.7348 35.515 34.6894 35.5074 34.6364 35.4922L31.5985 34.6589C31.3561 34.5907 31.1894 34.371 31.1818 34.121L31.1212 30.8635C31.1212 30.6816 31.197 30.515 31.3409 30.4013C31.4848 30.2953 31.6667 30.2574 31.8409 30.3028L36.6439 31.621C36.8182 31.6665 36.9545 31.7953 37.0227 31.9619C37.0909 32.1286 37.0682 32.318 36.9773 32.4695L35.2652 35.2422C35.1591 35.4165 34.9773 35.515 34.7879 35.515ZM32.3106 33.6741L34.5227 34.2801L35.6136 32.515L32.2727 31.5983L32.3106 33.6741Z" fill="#211E27"/>
<path d="M39.7954 17.9317C39.7424 17.9317 39.6969 17.9241 39.6439 17.909L36.2727 16.9848C35.9697 16.9014 35.7954 16.5908 35.8712 16.2878L36.5833 13.6817C36.6212 13.5378 36.7197 13.409 36.8485 13.3408C36.9772 13.2651 37.1363 13.2499 37.2803 13.2878L40.6515 14.212C40.9545 14.2954 41.1288 14.606 41.0454 14.909L40.3333 17.5151C40.2954 17.659 40.1969 17.7878 40.0682 17.856C39.9924 17.909 39.8939 17.9317 39.7954 17.9317ZM37.1212 16.0378L39.3939 16.6666L39.8106 15.159L37.5378 14.5302L37.1212 16.0378Z" fill="#211E27"/>
<path d="M41.9697 15.7045C41.8561 15.7045 41.7348 15.6893 41.6212 15.659L35.7348 14.0454C35.0379 13.856 34.6364 13.1363 34.8258 12.4469L35.1818 11.1363C35.3712 10.4469 36.0909 10.0378 36.7803 10.2272L42.6667 11.8484C43.3561 12.0378 43.7651 12.7575 43.5758 13.4469L43.2121 14.7575C43.1212 15.0908 42.9015 15.3711 42.5985 15.5454C42.4091 15.6439 42.1894 15.7045 41.9697 15.7045ZM36.4394 11.303C36.3636 11.303 36.303 11.3484 36.2803 11.4242L35.9167 12.7348C35.8939 12.8257 35.947 12.9166 36.0303 12.9393L41.9167 14.553C41.9697 14.5681 42.0151 14.553 42.0454 14.5378C42.0758 14.5227 42.1061 14.4924 42.1212 14.4393L42.4848 13.1287C42.5076 13.0378 42.4545 12.9469 42.3712 12.9242L36.4848 11.303C36.4697 11.303 36.4545 11.303 36.4394 11.303Z" fill="#211E27"/>
<path d="M40.3712 28.1061C38.5227 28.1061 37.0227 26.6061 37.0227 24.7577C37.0227 22.9092 38.5227 21.4092 40.3712 21.4092C42.2197 21.4092 43.7197 22.9092 43.7197 24.7577C43.7197 26.6061 42.2121 28.1061 40.3712 28.1061ZM40.3712 22.5455C39.1515 22.5455 38.1591 23.538 38.1591 24.7577C38.1591 25.9774 39.1515 26.9698 40.3712 26.9698C41.5909 26.9698 42.5833 25.9774 42.5833 24.7577C42.5833 23.538 41.5909 22.5455 40.3712 22.5455Z" fill="#211E27"/>
<path d="M40.3637 25.5227C39.947 25.5227 39.5985 25.1818 39.5985 24.7576C39.5985 24.3409 39.9394 23.9924 40.3637 23.9924C40.7803 23.9924 41.1288 24.3333 41.1288 24.7576C41.1288 25.1742 40.7879 25.5227 40.3637 25.5227Z" fill="#211E27"/>
<path d="M37.0758 32.8485C36.8939 32.8485 36.7197 32.8257 36.5379 32.7727L31.3561 31.3485C30.2727 31.053 29.6364 29.9242 29.9318 28.8485L33.1742 17.0606C33.3182 16.5379 33.6591 16.0985 34.1288 15.8333C34.5985 15.5682 35.1515 15.5 35.6742 15.6439L40.8561 17.0682C41.9394 17.3636 42.5758 18.4848 42.2803 19.5682L41.553 22.2045C41.4697 22.5076 41.1667 22.6818 40.8561 22.5985C40.553 22.5151 40.3788 22.2045 40.4621 21.9015L41.1894 19.2651C41.25 19.0379 41.2197 18.7879 41.1061 18.5833C40.9848 18.3712 40.7955 18.2273 40.5606 18.1591L35.3788 16.7348C35.1439 16.6667 34.9015 16.697 34.697 16.8182C34.4849 16.9394 34.3409 17.1288 34.2727 17.3636L31.0227 29.1515C30.8939 29.6288 31.1742 30.1212 31.6515 30.2576L36.8333 31.6818C37.3106 31.8182 37.803 31.5303 37.9394 31.053L38.9848 27.25C39.0682 26.947 39.3712 26.7727 39.6818 26.856C39.9849 26.9394 40.1591 27.25 40.0758 27.553L39.0303 31.356C38.7879 32.2576 37.9697 32.8485 37.0758 32.8485Z" fill="#211E27"/>
<path d="M38.038 40.0681C37.7273 40.0681 37.4773 39.8181 37.4698 39.5075C37.4622 39.1969 37.7122 38.9393 38.0304 38.9318C41.4243 38.8712 44.1895 36.0606 44.1895 32.6666C44.1895 30.6439 43.197 28.7348 41.538 27.553C41.2804 27.3712 41.2198 27.0151 41.4016 26.7575C41.5834 26.5 41.9395 26.4393 42.197 26.6212C44.1592 28.0151 45.3258 30.2727 45.3258 32.659C45.3258 36.6666 42.0607 39.9848 38.0531 40.0606C38.0455 40.0681 38.0455 40.0681 38.038 40.0681Z" fill="#211E27"/>
<path d="M39.2045 42.7575C38.9242 42.7575 38.6818 42.553 38.6439 42.2651C38.5984 41.9545 38.8181 41.6666 39.1287 41.6287C43.5984 41.0303 46.9697 37.1742 46.9697 32.6666C46.9697 29.5909 45.4166 26.7575 42.8257 25.0681C42.5606 24.9015 42.4848 24.5454 42.6591 24.2803C42.8333 24.0151 43.1818 23.9394 43.4469 24.1136C46.3712 26.0075 48.1136 29.2045 48.1136 32.6591C48.1136 37.7348 44.3181 42.0681 39.2878 42.7424C39.25 42.7575 39.2272 42.7575 39.2045 42.7575Z" fill="#211E27"/>
<path d="M2.99999 9.32566C1.83332 9.32566 0.886353 8.37869 0.886353 7.21203C0.886353 6.04536 1.83332 5.09839 2.99999 5.09839C4.16666 5.09839 5.11363 6.04536 5.11363 7.21203C5.11363 8.37869 4.16666 9.32566 2.99999 9.32566ZM2.99999 6.23475C2.46211 6.23475 2.02272 6.67415 2.02272 7.21203C2.02272 7.7499 2.46211 8.1893 2.99999 8.1893C3.53787 8.1893 3.97726 7.7499 3.97726 7.21203C3.97726 6.67415 3.54544 6.23475 2.99999 6.23475Z" fill="#211E27"/>
<path d="M7.24999 5.45457C6.08332 5.45457 5.13635 4.5076 5.13635 3.34093C5.13635 2.17426 6.08332 1.22729 7.24999 1.22729C8.41666 1.22729 9.36363 2.17426 9.36363 3.34093C9.36363 4.5076 8.41666 5.45457 7.24999 5.45457ZM7.24999 2.36366C6.71211 2.36366 6.27272 2.80305 6.27272 3.34093C6.27272 3.87881 6.71211 4.3182 7.24999 4.3182C7.78787 4.3182 8.22726 3.87881 8.22726 3.34093C8.22726 2.80305 7.78787 2.36366 7.24999 2.36366Z" fill="#211E27"/>
<path d="M20.7727 13.9697C19.606 13.9697 18.6591 13.0227 18.6591 11.8561C18.6591 10.6894 19.606 9.74243 20.7727 9.74243C21.9394 9.74243 22.8863 10.6894 22.8863 11.8561C22.8863 13.0227 21.9318 13.9697 20.7727 13.9697ZM20.7727 10.8712C20.2348 10.8712 19.7954 11.3106 19.7954 11.8485C19.7954 12.3864 20.2348 12.8258 20.7727 12.8258C21.3106 12.8258 21.75 12.3864 21.75 11.8485C21.75 11.3106 21.3106 10.8712 20.7727 10.8712Z" fill="#211E27"/>
<path d="M25.1515 16.6667C24.8409 16.6667 24.5833 16.4091 24.5833 16.0985V3.38636C24.5833 2.41667 23.7954 1.63636 22.8333 1.63636H15.0454C14.0757 1.63636 13.2954 2.42424 13.2954 3.38636V10.3485C13.2954 10.6591 13.0378 10.9167 12.7272 10.9167C12.4166 10.9167 12.1591 10.6591 12.1591 10.3485V3.38636C12.1591 1.79545 13.4545 0.5 15.0454 0.5H22.8257C24.4166 0.5 25.7121 1.79545 25.7121 3.38636V16.0985C25.7197 16.4091 25.4621 16.6667 25.1515 16.6667Z" fill="#211E27"/>
<path d="M14.6591 13.9169H7.45453C6.86363 13.9169 6.38635 13.4396 6.38635 12.8487V10.8487C6.38635 10.2578 6.86363 9.78052 7.45453 9.78052H14.6591C15.25 9.78052 15.7273 10.2578 15.7273 10.8487V12.8487C15.7348 13.4396 15.25 13.9169 14.6591 13.9169ZM7.52272 12.7805H14.5985V10.9169H7.52272V12.7805Z" fill="#211E27"/>
<path d="M26.106 23.0077H23.9621C23.6515 23.0077 23.3939 22.7501 23.3939 22.4395C23.3939 22.1289 23.6515 21.8713 23.9621 21.8713H26.106C26.4166 21.8713 26.6742 22.1289 26.6742 22.4395C26.6742 22.7501 26.4242 23.0077 26.106 23.0077Z" fill="#211E27"/>
<path d="M26.106 26.212H23.9621C23.6515 26.212 23.3939 25.9545 23.3939 25.6439C23.3939 25.3333 23.6515 25.0757 23.9621 25.0757H26.106C26.4166 25.0757 26.6742 25.3333 26.6742 25.6439C26.6742 25.9545 26.4242 26.212 26.106 26.212Z" fill="#211E27"/>
<path d="M26.106 29.4091H23.9621C23.6515 29.4091 23.3939 29.1515 23.3939 28.8409C23.3939 28.5303 23.6515 28.2727 23.9621 28.2727H26.106C26.4166 28.2727 26.6742 28.5303 26.6742 28.8409C26.6742 29.1515 26.4242 29.4091 26.106 29.4091Z" fill="#211E27"/>
<path d="M11.0606 41.1742C4.96212 41.1742 0 36.2121 0 30.1136C0 29.6818 0.030303 29.2121 0.0984848 28.6894C0.121212 28.4924 0.25 28.3182 0.439394 28.2424C0.621212 28.1667 0.833333 28.1818 1 28.303C1.35606 28.5606 1.68939 28.8409 2.02273 29.1212C3.15152 30.0682 4.21212 30.9621 6.35606 30.9621C8.5 30.9621 9.56061 30.0682 10.6894 29.1212C11.8636 28.1363 13.197 27.0151 15.7576 27.0151C17.8333 27.0151 19.0758 27.75 20.0227 28.4697C20.2727 28.6591 20.3182 29.0151 20.1288 29.2651C19.9394 29.5151 19.5833 29.5606 19.3333 29.3712C18.5 28.7348 17.4924 28.1515 15.7576 28.1515C13.6136 28.1515 12.553 29.0454 11.4242 29.9924C10.25 30.9773 8.91667 32.0985 6.35606 32.0985C3.79545 32.0985 2.46212 30.9773 1.28788 29.9924C1.24242 29.9545 1.18939 29.9091 1.14394 29.8712V30.1212C1.14394 35.5909 5.59848 40.0454 11.0682 40.0454C14.3182 40.0454 17.3636 38.447 19.2121 35.7727C19.3939 35.5151 19.7424 35.447 20 35.6288C20.2576 35.8106 20.3258 36.1591 20.1439 36.4167C18.0758 39.3939 14.6818 41.1742 11.0606 41.1742Z" fill="#211E27"/>
<path d="M0.666667 29.3333C0.643939 29.3333 0.621212 29.3333 0.590909 29.3257C0.280303 29.2879 0.060606 29 0.0984848 28.6894C0.659091 24.3636 3.65909 20.8257 7.79545 19.553V13.3409C7.79545 13.0303 8.05303 12.7727 8.36364 12.7727H13.7424C14.053 12.7727 14.3106 13.0303 14.3106 13.3409V19.553C16.6591 20.2803 18.7197 21.7727 20.1364 23.8106C20.3182 24.0682 20.25 24.4242 19.9924 24.5985C19.7348 24.7803 19.3788 24.7121 19.2045 24.4545C17.8561 22.5227 15.8712 21.1288 13.5985 20.5303C13.3485 20.4621 13.1742 20.2424 13.1742 19.9848V13.9091H8.93182V19.9848C8.93182 20.2424 8.75758 20.4697 8.50758 20.5303C4.59848 21.5682 1.73485 24.8257 1.2197 28.8333C1.18939 29.1288 0.94697 29.3333 0.666667 29.3333Z" fill="#211E27"/>
</svg>
