<svg width="53" height="48" viewBox="0 0 53 48" fill="none" xmlns="http://www.w3.org/2000/svg">
<path fill-rule="evenodd" clip-rule="evenodd" d="M38.2869 7.13814C36.5108 1.74564 30.5885 -0.636119 22.8406 1.6292C21.1606 2.11546 20.4851 2.54928 19.8067 2.54928C19.1312 2.54928 18.4557 2.11546 16.7757 1.6292C8.34341 -0.837056 2.07467 2.19984 0.956543 8.63487V13.0898C0.997289 13.3635 1.04393 13.6401 1.09926 13.9196C1.9727 18.3309 5.21054 21.6765 5.21054 27.9571C5.21054 33.7922 5.21054 42.4052 11.197 42.4052C17.1834 42.4052 17.1367 34.8143 17.7919 28.988C18.1238 26.05 18.9652 25.1066 19.8067 25.1066C20.6511 25.1066 21.4926 26.0499 21.8244 28.988C22.4796 34.8144 22.4329 42.4052 28.4194 42.4052C33.4857 42.4052 34.2631 36.2294 34.3824 30.7961C36.7874 21.4727 37.8618 14.5747 38.2869 7.13814Z" fill="#FAF5DC"/>
<path fill-rule="evenodd" clip-rule="evenodd" d="M45.8166 13.1247C44.1831 10.0499 41.4054 7.97086 38.287 7.13816C35.451 6.37816 32.3297 6.649 29.5287 8.13684C23.6559 11.2553 21.4197 18.5492 24.5411 24.4222C26.5705 28.2453 30.3615 30.5252 34.3825 30.796C36.5459 30.9416 38.7734 30.5048 40.829 29.4129C46.7017 26.2944 48.9379 19.0005 45.8166 13.1247Z" fill="#C3DDFF"/>
<path fill-rule="evenodd" clip-rule="evenodd" d="M33.5702 17.1634V14.9855C33.5702 14.4759 33.9866 14.0566 34.499 14.0566H35.8587C36.3682 14.0566 36.7875 14.4758 36.7875 14.9855V17.1634H37.4747H38.9654C39.4778 17.1634 39.8972 17.5826 39.8972 18.0952V19.4521C39.8972 19.9645 39.4779 20.3839 38.9654 20.3839H36.7875V22.5618C36.7875 23.0742 36.3682 23.4936 35.8587 23.4936H34.9852H34.4989C33.9865 23.4936 33.5701 23.0743 33.5701 22.5618V20.3839H31.3922C30.8798 20.3839 30.4604 19.9646 30.4604 19.4521V18.0951C30.4604 17.5826 30.8797 17.1633 31.3922 17.1633H33.5702V17.1634ZM42.7739 14.7408C41.8655 13.0316 40.4649 11.7533 38.8374 10.9904C36.4731 9.88109 33.6314 9.86072 31.1448 11.1797C26.9521 13.4071 25.3565 18.6134 27.5838 22.8092C28.9989 25.4734 31.6165 27.0894 34.4146 27.3427C36.0189 27.4854 37.6815 27.1825 39.213 26.3702C43.4058 24.1428 45.0014 18.9366 42.7739 14.7408Z" fill="#EDF4FF"/>
<path fill-rule="evenodd" clip-rule="evenodd" d="M39.897 18.095C39.897 17.5826 39.4778 17.1632 38.9652 17.1632H37.4746H36.7874V14.9853C36.7874 14.4757 36.3682 14.0564 35.8586 14.0564H34.4989C33.9865 14.0564 33.5702 14.4756 33.5702 14.9853V17.1632H31.3922C30.8798 17.1632 30.4604 17.5824 30.4604 18.095V19.4519C30.4604 19.9643 30.8797 20.3837 31.3922 20.3837H33.5702V22.5616C33.5702 23.074 33.9865 23.4934 34.4989 23.4934H34.9852H35.8587C36.3683 23.4934 36.7875 23.0741 36.7875 22.5616V20.3837H38.9654C39.4779 20.3837 39.8972 19.9644 39.8972 19.4519V18.095H39.897Z" fill="#F96363"/>
<path fill-rule="evenodd" clip-rule="evenodd" d="M45.3739 34.1912L42.3341 28.4667L40.2086 28.2949L39.1982 30.1322L42.238 35.8567H44.3053L45.3739 34.1912Z" fill="#7E707D"/>
<path fill-rule="evenodd" clip-rule="evenodd" d="M51.7039 41.3249L49.1358 36.4944L45.3739 37.5048L42.0459 40.2651L44.614 45.0957C45.6505 47.0465 48.0934 47.7919 50.0443 46.7554C51.0314 46.2313 51.7127 45.3431 52.0067 44.3444C52.2221 43.6107 52.2309 42.8187 52.0067 42.0617C51.931 41.8112 51.832 41.5636 51.7039 41.3249Z" fill="#EDF4FF"/>
<path fill-rule="evenodd" clip-rule="evenodd" d="M38.287 7.13815C36.5108 1.74565 30.5885 -0.63611 22.8406 1.62921C21.5478 2.00481 20.8491 2.34836 20.2871 2.48528C22.5611 4.56714 24.4857 7.54002 25.8774 11.1157C26.8586 9.92478 28.0844 8.90283 29.5286 8.13704C32.3297 6.64899 35.451 6.37825 38.287 7.13815Z" fill="#F5EBCD"/>
<path fill-rule="evenodd" clip-rule="evenodd" d="M28.4194 42.405C33.4857 42.405 34.2631 36.2292 34.3824 30.7959C32.1376 30.6445 29.9655 29.867 28.1282 28.5452C27.7001 33.1952 26.4976 37.4377 24.7419 40.9113C25.6125 41.8431 26.7946 42.405 28.4194 42.405Z" fill="#F5EBCD"/>
<path fill-rule="evenodd" clip-rule="evenodd" d="M39.213 26.3703C43.4057 24.1428 45.0013 18.9366 42.774 14.7408C41.8656 13.0317 40.465 11.7534 38.8375 10.9905C38.5754 10.8681 38.3047 10.7576 38.0338 10.6614C36.776 10.2188 35.4192 10.0703 34.071 10.245C34.9591 10.3586 35.8267 10.612 36.6363 10.9905C37.0876 11.203 37.5214 11.4534 37.932 11.7417C38.2173 11.9426 38.4881 12.1609 38.7502 12.3968C39.4693 13.049 40.0895 13.8352 40.5729 14.7407C42.8003 18.9365 41.2047 24.1427 37.009 26.3702C36.4587 26.6643 35.888 26.8914 35.3086 27.0545C35.0116 27.1389 34.7176 27.2059 34.4177 27.2554C34.307 27.2729 34.1964 27.2904 34.0857 27.305C34.1935 27.3196 34.3041 27.3311 34.4148 27.3428C34.6855 27.3661 34.9593 27.3778 35.233 27.3749C36.5779 27.369 37.9405 27.0458 39.213 26.3703Z" fill="#DBEAFF"/>
<path fill-rule="evenodd" clip-rule="evenodd" d="M45.8166 13.1247C44.1831 10.05 41.4054 7.9709 38.287 7.1382C36.409 6.63446 34.4087 6.58493 32.455 7.03923C32.519 7.05381 32.5802 7.06839 32.6413 7.08577C34.6679 7.62736 36.5517 8.69595 38.0716 10.2246C38.2987 10.4517 38.5171 10.6905 38.7296 10.9409C38.7646 10.9584 38.8024 10.9729 38.8374 10.9904C40.465 11.7533 41.8655 13.0315 42.7739 14.7408C45.0013 18.9366 43.4058 24.1428 39.2129 26.3703C39.0061 26.4809 38.7965 26.5799 38.5869 26.6702C37.6493 27.7388 36.5079 28.656 35.1803 29.3606C35.0172 29.448 34.8513 29.5324 34.6853 29.611C34.5893 29.6546 34.4932 29.6984 34.4 29.742C33.6983 30.0536 32.9791 30.2894 32.2542 30.4583C32.95 30.633 33.6634 30.7465 34.3825 30.796C35.9839 30.9038 37.6232 30.6912 39.1984 30.1322C39.7516 29.9342 40.296 29.6955 40.8289 29.4131C41.3588 29.1306 41.8626 28.8133 42.3343 28.4667C47.0628 24.9842 48.6554 18.4677 45.8166 13.1247Z" fill="#A4CCFF"/>
<path fill-rule="evenodd" clip-rule="evenodd" d="M45.3738 34.1913L42.334 28.4668C41.8624 28.8132 41.3586 29.1306 40.8287 29.4132C40.82 29.416 40.8141 29.4189 40.8083 29.4248L43.7869 35.0329H43.7898L45.3738 34.1913Z" fill="#6A5D6A"/>
<path fill-rule="evenodd" clip-rule="evenodd" d="M51.7038 41.3249L49.1357 36.4944L47.2373 37.5048L49.8054 42.3353C49.9336 42.5741 50.0325 42.8216 50.1082 43.0719C50.3324 43.8289 50.3236 44.621 50.1082 45.3518C49.9102 46.0215 49.5434 46.6388 49.025 47.1309C49.3745 47.0552 49.7151 46.9299 50.0441 46.7553C51.0312 46.2312 51.7125 45.343 52.0065 44.3443C52.2219 43.6106 52.2307 42.8186 52.0065 42.0616C51.9309 41.8112 51.832 41.5636 51.7038 41.3249Z" fill="#DBEAFF"/>
<path fill-rule="evenodd" clip-rule="evenodd" d="M49.1359 36.4942L47.7295 33.8504C47.5228 33.4573 47.0308 33.3088 46.6406 33.5155L45.374 34.191C43.9066 34.9685 42.4391 35.7488 40.9717 36.5292C40.5815 36.7388 40.4301 37.2279 40.6397 37.6181L42.046 40.2649L49.1359 36.4942Z" fill="#F9F7F8"/>
<path fill-rule="evenodd" clip-rule="evenodd" d="M49.1359 36.4942L47.7296 33.8504C47.5228 33.4573 47.0308 33.3088 46.6406 33.5155L45.3741 34.191L44.7422 34.5259C45.1324 34.3192 45.6215 34.4677 45.8312 34.8579L47.2375 37.5047L49.1359 36.4942Z" fill="#F0F0F0"/>
<path d="M30.7812 10.4945C30.7811 10.4945 30.781 10.4946 30.781 10.4946C26.2165 12.9195 24.475 18.607 26.899 23.1729C28.5817 26.3406 31.8352 28.1486 35.1952 28.1486C36.6768 28.1486 38.1795 27.7969 39.5769 27.055C44.1413 24.6301 45.8828 18.9427 43.4589 14.3767C41.0341 9.8123 35.3471 8.07078 30.7812 10.4945ZM38.8493 25.6851C37.6829 26.3044 36.4293 26.5979 35.1926 26.5979C32.3887 26.5978 29.6731 25.0888 28.2689 22.4455C26.246 18.635 27.6993 13.8884 31.5087 11.8647C35.3193 9.84198 40.0654 11.2953 42.089 15.1045C44.1119 18.9149 42.6584 23.6615 38.8493 25.6851Z" fill="#1C2359"/>
<path d="M38.9653 16.3878H37.563V14.9854C37.563 14.0456 36.7985 13.281 35.8586 13.281H34.4988C33.5591 13.281 32.7945 14.0456 32.7945 14.9854V16.3878H31.3921C30.4507 16.3878 29.6848 17.1537 29.6848 18.0951V19.4519C29.6848 20.3933 30.4507 21.1592 31.3921 21.1592H32.7945V22.5616C32.7945 23.503 33.5591 24.2689 34.4988 24.2689H35.8586C36.7985 24.2689 37.563 23.503 37.563 22.5616V21.1593H38.9653C39.9068 21.1593 40.6727 20.3934 40.6727 19.452V18.0952C40.6726 17.1537 39.9068 16.3878 38.9653 16.3878ZM39.1215 19.452C39.1215 19.5367 39.05 19.6082 38.9652 19.6082H36.7874C36.359 19.6082 36.0118 19.9554 36.0118 20.3838V22.5618C36.0118 22.6451 35.9402 22.718 35.8585 22.718H34.4987C34.4157 22.718 34.3455 22.6465 34.3455 22.5618V20.3838C34.3455 19.9554 33.9984 19.6082 33.5699 19.6082H31.392C31.3074 19.6082 31.2358 19.5367 31.2358 19.452V18.0952C31.2358 18.0105 31.3073 17.939 31.392 17.939H33.5699C33.9983 17.939 34.3455 17.5918 34.3455 17.1634V14.9854C34.3455 14.9024 34.4158 14.8321 34.4987 14.8321H35.8585C35.9402 14.8321 36.0118 14.9037 36.0118 14.9854V17.1634C36.0118 17.5918 36.3589 17.939 36.7874 17.939H38.9652C39.0499 17.939 39.1215 18.0105 39.1215 18.0952V19.452Z" fill="#1C2359"/>
<path d="M52.3887 40.9608L49.8245 36.1382C49.8231 36.1356 49.8221 36.1329 49.8207 36.1302C49.8193 36.1276 49.8176 36.1252 49.8162 36.1226L48.416 33.4894C48.22 33.1168 47.8893 32.8427 47.4852 32.7178C47.0798 32.5925 46.6508 32.6324 46.2766 32.8307L45.6942 33.1403L43.3256 28.6797C44.7809 27.4873 45.952 25.9885 46.77 24.2545C47.9168 21.8232 48.2761 19.0367 47.7813 16.4083C47.7021 15.9873 47.2967 15.7105 46.8757 15.7896C46.4548 15.8688 46.1777 16.2743 46.257 16.6952C47.1737 21.5653 44.8461 26.401 40.4651 28.7279C38.6055 29.7158 36.5546 30.1548 34.5046 30.0279C34.4702 30.0225 34.4354 30.0184 34.3996 30.0177C34.3937 30.0176 34.388 30.0175 34.3822 30.0175C34.3748 30.0175 34.3676 30.0184 34.3601 30.0186C33.5276 29.9563 32.6961 29.8006 31.8782 29.5501C28.9998 28.6679 26.6374 26.7177 25.2259 24.0583C23.8138 21.4012 23.5218 18.3525 24.4037 15.4739C25.2855 12.5956 27.2348 10.2332 29.8927 8.82187C32.5515 7.40942 35.6012 7.11696 38.4796 7.99848C41.358 8.87989 43.7206 10.8296 45.1315 13.4884C45.3323 13.8666 45.8017 14.0105 46.1801 13.8099C46.5585 13.6091 46.7023 13.1396 46.5016 12.7612C44.8963 9.73627 42.2086 7.51811 38.9337 6.51529C38.9171 6.51022 38.9006 6.50578 38.884 6.50071C37.8725 3.79009 35.8712 1.81806 33.0719 0.784419C30.1504 -0.294411 26.5371 -0.259767 22.6249 0.884215C21.8871 1.09777 21.3409 1.29974 20.9021 1.462C20.3946 1.6497 20.0592 1.77369 19.8067 1.77369C19.5564 1.77369 19.2222 1.65001 18.7162 1.46282C18.277 1.30036 17.7305 1.09808 16.9932 0.884732C13.2152 -0.219849 9.70214 -0.290068 6.83381 0.682141C6.42811 0.81958 6.21073 1.25992 6.34817 1.66562C6.48571 2.07132 6.92595 2.2886 7.33165 2.15126C9.89677 1.28195 13.0872 1.35889 16.56 2.37423C17.2452 2.57258 17.7624 2.76389 18.1781 2.91778C18.817 3.15418 19.2786 3.32503 19.8068 3.32503C20.337 3.32503 20.7998 3.15387 21.4403 2.91695C21.8556 2.76338 22.3725 2.57227 23.0584 2.37371C29.5375 0.47924 34.8323 1.93936 37.002 6.08157C34.3238 5.69128 31.6003 6.1584 29.165 7.45203C26.1414 9.05755 23.9237 11.7451 22.9206 15.0196C21.9173 18.2946 22.2495 21.7632 23.856 24.7858C25.4614 27.8109 28.149 30.0296 31.4236 31.0331C32.1377 31.252 32.861 31.4052 33.5869 31.4977C33.5166 33.5987 33.3047 36.3226 32.5318 38.363C31.6877 40.5916 30.3809 41.6296 28.4194 41.6296C26.3745 41.6296 25.0178 40.6228 24.1498 38.461C23.322 36.3991 23.0582 33.6356 22.8033 30.9631C22.7381 30.2794 22.6706 29.5724 22.5952 28.9009C22.4263 27.406 22.1252 26.3101 21.675 25.5502C21.0778 24.5426 20.3294 24.3311 19.8067 24.3311C19.2847 24.3311 18.5374 24.5427 17.9407 25.5505C17.4908 26.3106 17.1899 27.4065 17.0211 28.9013C16.9457 29.5725 16.8781 30.2796 16.8129 30.9633C16.558 33.6358 16.2943 36.3992 15.4664 38.4611C14.5984 40.6229 13.2418 41.6297 11.1969 41.6297C8.92445 41.6297 7.49856 40.2141 6.7095 37.1746C5.98611 34.3877 5.98611 30.8222 5.98611 27.9573C5.98611 23.9264 4.68938 21.0154 3.5453 18.4471C2.84259 16.8697 2.17897 15.3798 1.86025 13.7698C1.00117 9.41444 1.95746 5.82985 4.55277 3.67633C4.88246 3.4028 4.92796 2.91385 4.65443 2.58426C4.381 2.25468 3.89184 2.20917 3.56236 2.4826C0.509225 5.01566 -0.635687 9.13088 0.338487 14.0702C0.691237 15.8516 1.38939 17.4188 2.1284 19.078C3.26235 21.6238 4.43498 24.2561 4.43498 27.957C4.43498 30.9103 4.43498 34.5857 5.20822 37.5641C6.17567 41.2909 8.19062 43.1806 11.197 43.1806C13.8818 43.1806 15.8025 41.7871 16.906 39.0388C17.8173 36.7692 18.0917 33.8925 18.3571 31.1104C18.4246 30.4019 18.4885 29.7326 18.5625 29.0749C18.8478 26.5494 19.5011 25.882 19.8067 25.882C20.1358 25.882 20.769 26.5545 21.0537 29.0744C21.1278 29.7326 21.1916 30.4018 21.2592 31.1103C21.5246 33.8924 21.7991 36.7692 22.7104 39.0387C23.8138 41.7871 25.7346 43.1806 28.4194 43.1806C31.038 43.1806 32.9096 41.7446 33.9824 38.9124C34.8236 36.6915 35.0571 33.9291 35.1356 31.6008C35.1558 31.6009 35.176 31.6019 35.1961 31.6019C36.4207 31.6018 37.6387 31.4229 38.8188 31.0709L41.1893 35.535L40.6075 35.8443C40.6065 35.8449 40.6055 35.8455 40.6045 35.846C39.8354 36.2592 39.5447 37.2189 39.9548 37.9822L41.3576 40.6215C41.359 40.624 41.3599 40.6266 41.3611 40.6291C41.3621 40.6308 41.3633 40.6324 41.3643 40.6341L43.9291 45.4594C44.5276 46.5858 45.5329 47.4126 46.7596 47.7874C47.225 47.9295 47.7002 48 48.1725 48C48.9448 48 49.709 47.8115 50.4081 47.4401C52.7401 46.2011 53.6287 43.2945 52.3887 40.9608ZM47.0036 34.201C47.0103 34.1974 47.0183 34.1971 47.0273 34.1998C47.039 34.2034 47.0422 34.2093 47.0448 34.2146L48.0868 36.174L42.3672 39.2159L41.3229 37.2513C41.3217 37.2491 41.319 37.2441 41.3223 37.2333C41.3264 37.22 41.3346 37.2148 41.3381 37.2129L47.0036 34.201ZM40.2892 30.5328C40.5941 30.3997 40.8959 30.2557 41.1928 30.098C41.4883 29.941 41.7758 29.7731 42.0557 29.5959L44.3245 33.8685L42.559 34.8071L40.2892 30.5328ZM49.6803 46.0704C48.9194 46.4747 48.043 46.5577 47.2129 46.304C46.3826 46.0504 45.7028 45.492 45.2989 44.7316L43.095 40.5854L48.8148 37.5435L51.019 41.6888C51.8575 43.267 51.2571 45.2326 49.6803 46.0704Z" fill="#1C2359"/>
</svg>
