<svg width="60" height="60" viewBox="0 0 60 60" fill="none" xmlns="http://www.w3.org/2000/svg">
<g clip-path="url(#clip0_2650_4765)">
<path d="M32.2349 32.1149C31.3903 31.6871 30.3247 31.648 29.3547 31.6482C28.1802 31.6484 27.2411 31.7288 26.4751 32.1178C25.4736 32.6262 24.9661 33.5634 24.9668 34.9028C24.9681 37.5 26.8775 39.708 29.3566 39.708C33.5796 39.7081 35.2321 33.633 32.2349 32.1149ZM29.3579 37.9499C26.8597 37.9505 26.0659 34.2975 27.2711 33.6856C27.8056 33.4143 28.7641 33.4065 29.3697 33.4065C30.163 33.4065 30.9614 33.4409 31.4404 33.6835C31.7244 33.8274 31.9874 34.0742 31.9877 34.8995C31.9885 36.5807 30.8089 37.9494 29.3579 37.9499Z" fill="#F96363"/>
<path d="M37.0618 30.6377C36.5722 30.6372 36.1806 31.0327 36.1797 31.5152V32.9217C36.1788 33.4072 36.5702 33.802 37.0558 33.8025C37.5454 33.803 37.937 33.4075 37.9379 32.925V31.5184C37.9388 31.0329 37.5473 30.6382 37.0618 30.6377Z" fill="#F96363"/>
<path d="M22.3361 30.2637C19.8109 30.2609 19.0187 33.6668 20.6823 33.6666C21.1668 33.6666 21.5602 33.2743 21.5614 32.7895C21.5623 32.3659 21.9073 32.022 22.3306 32.022C22.7553 32.022 23.1008 32.3681 23.0998 32.7929C23.0988 33.2793 23.4927 33.6739 23.9789 33.6739C25.6293 33.6738 24.8596 30.2665 22.3361 30.2637Z" fill="#F96363"/>
<path d="M38.8249 24.7047H44.1203C45.5783 24.7047 46.7646 23.5185 46.7646 22.0605C46.7646 20.6025 45.5783 19.4163 44.1203 19.4163H38.8249C37.3669 19.4163 36.1807 20.6025 36.1807 22.0605C36.1807 23.5185 37.3669 24.7047 38.8249 24.7047ZM38.8249 21.1745H44.1203C44.6089 21.1745 45.0063 21.572 45.0063 22.0605C45.0063 22.5491 44.6089 22.9465 44.1203 22.9465H38.8249C38.3364 22.9465 37.9389 22.5491 37.9389 22.0605C37.9389 21.572 38.3364 21.1745 38.8249 21.1745Z" fill="#F96363"/>
<path d="M49.7931 19.6242C48.8461 17.4278 46.6603 15.886 44.1206 15.886H26.4695C24.2392 15.886 22.2813 17.0749 21.1961 18.8521C19.5971 17.9853 17.6501 18.0462 16.0731 19.0833C12.0602 21.7229 9.67937 26.1633 9.70446 30.9615C9.74501 38.7042 16.1405 45.0035 23.961 45.0035H34.4125C43.8299 45.0035 50.6385 35.9241 47.9499 26.8986C48.603 26.3806 49.1502 25.7347 49.5506 24.9974C52.0715 25.8122 53.839 28.1877 53.839 30.886C53.839 44.031 43.1448 54.7253 29.9998 54.7253C16.8547 54.7253 6.16036 44.031 6.16036 30.8859C6.16036 18.7778 15.4754 8.4616 27.4572 7.18209C28.2663 8.17958 29.5008 8.81863 30.8822 8.81863H39.7077C42.1391 8.81863 44.1171 6.84064 44.1171 4.40926C44.1171 1.97788 42.1392 0 39.7079 0H30.8822C29.3825 0 28.056 0.753103 27.2592 1.9004C13.9052 3.15061 3.27008 13.3655 1.2384 26.3372C1.16327 26.8168 1.49124 27.2666 1.97088 27.3417C2.45134 27.4168 2.90039 27.0882 2.97541 26.6092C4.87276 14.4952 14.4628 5.2661 26.5225 3.74911C26.4342 4.33494 26.4637 4.93579 26.6125 5.51166C14.0487 7.18044 4.40226 17.9589 4.40214 30.8859C4.40214 45.0005 15.8852 56.4836 29.9998 56.4836C44.1143 56.4836 55.5972 45.0005 55.5972 30.886C55.5972 27.4459 53.3597 24.4139 50.1593 23.3468C50.2917 22.7241 50.3213 22.136 50.2717 21.5424C54.3867 22.7012 57.3556 26.5154 57.3556 30.886C57.3556 45.9701 45.0839 58.2418 29.9999 58.2418C14.6351 58.2418 2.18198 45.5062 2.65717 30.0304C2.67205 29.5451 2.29076 29.1395 1.80537 29.1246C1.31635 29.1094 0.91454 29.4912 0.899654 29.9764C0.395632 46.4523 13.6526 60 29.9999 60C46.1031 60 59.1138 46.9892 59.1138 30.886C59.1137 25.3923 55.1422 20.641 49.7931 19.6242ZM42.359 4.40938C42.359 5.87116 41.1698 7.06053 39.7079 7.06053H34.4091V1.75822H39.7079C41.1696 1.75822 42.359 2.94748 42.359 4.40938ZM30.8822 1.75822H32.6507V7.06042H30.8822C29.4204 7.06042 28.231 5.87116 28.231 4.40926C28.231 2.94736 29.4204 1.75822 30.8822 1.75822ZM34.4125 43.2452H23.961C17.1049 43.2452 11.4982 37.7307 11.4627 30.9524C11.4406 26.7515 13.5254 22.8636 17.0393 20.5523C18.2453 19.7589 19.5622 19.9232 20.5 20.4829C19.4615 24.409 22.4422 28.2349 26.4694 28.2349H28.2345C28.7201 28.2349 29.1137 27.8413 29.1137 27.3558C29.1137 26.8703 28.7201 26.4767 28.2345 26.4767H26.4694C24.0343 26.4767 22.0532 24.4956 22.0532 22.0605C22.0532 19.6253 24.0343 17.6442 26.4694 17.6442H44.1205C46.5556 17.6442 48.5367 19.6253 48.5367 22.0605C48.5367 24.4956 46.5556 26.4767 44.1205 26.4767H31.7648C31.2793 26.4767 30.8857 26.8703 30.8857 27.3558C30.8857 27.8413 31.2793 28.2349 31.7648 28.2349H44.1206C44.9176 28.2349 45.679 28.0814 46.379 27.8053C48.4015 35.5716 42.5245 43.2452 34.4125 43.2452Z" fill="#F96363"/>
<path d="M31.7648 24.7047C33.2229 24.7047 34.4091 23.5185 34.4091 22.0605C34.4091 20.6025 33.2229 19.4163 31.7648 19.4163H29.9997C28.5417 19.4163 27.3555 20.6025 27.3555 22.0605C27.3555 23.5185 28.5417 24.7047 29.9997 24.7047H31.7648ZM29.1138 22.0605C29.1138 21.572 29.5113 21.1745 29.9998 21.1745H31.7648C32.2534 21.1745 32.6509 21.572 32.6509 22.0605C32.6509 22.5491 32.2534 22.9465 31.7648 22.9465H29.9997C29.5112 22.9465 29.1138 22.5491 29.1138 22.0605Z" fill="#F96363"/>
</g>
<defs>
<clipPath id="clip0_2650_4765">
<rect width="60" height="60" fill="white"/>
</clipPath>
</defs>
</svg>
