<svg width="49" height="48" viewBox="0 0 49 48" fill="none" xmlns="http://www.w3.org/2000/svg">
<path d="M6.64844 36.3765V46.6332C6.64844 46.9909 6.93803 47.2805 7.29574 47.2805H8.64433C9.00204 47.2805 9.29163 46.9909 9.29163 46.6332V36.3765H6.64844Z" fill="#AA493F"/>
<path d="M39.543 36.3765V46.6332C39.543 46.9909 39.8326 47.2805 40.1899 47.2805H41.5389C41.8962 47.2805 42.1862 46.9909 42.1862 46.6332V36.3765H39.543Z" fill="#AA493F"/>
<path d="M8.44146 46.6332V36.3765H6.64844V46.6332C6.64844 46.9909 6.93803 47.2805 7.29574 47.2805H8.64433C8.7225 47.2805 8.79731 47.266 8.86655 47.2407C8.61864 47.1499 8.44146 46.9124 8.44146 46.6332Z" fill="#993B36"/>
<path d="M41.336 46.6332V36.3765H39.543V46.6332C39.543 46.9909 39.8326 47.2805 40.1899 47.2805H41.5389C41.617 47.2805 41.6915 47.266 41.7611 47.2407C41.5132 47.1499 41.336 46.9124 41.336 46.6332Z" fill="#993B36"/>
<path d="M26.2853 4.22473C25.7705 5.40209 26.0921 6.78045 27.1262 7.50444C28.1599 8.22843 29.5654 8.05906 30.4956 7.17278L26.2853 4.22473Z" fill="#FEC13B"/>
<path d="M31.7522 8.05273C31.2374 9.23009 31.5586 10.6085 32.5927 11.3324C33.6268 12.0564 35.0319 11.8871 35.9621 11.0008L31.7522 8.05273Z" fill="#FEC13B"/>
<path d="M37.2189 11.8807C36.7041 13.0581 37.0257 14.4365 38.0598 15.1604C39.0938 15.8841 40.499 15.7151 41.4292 14.8288L37.2189 11.8807Z" fill="#FEC13B"/>
<path d="M29.1563 7.50444C28.4792 7.03022 28.11 6.27534 28.0784 5.48063L26.2853 4.22473C25.7705 5.40209 26.0921 6.78045 27.1262 7.50444C27.8647 8.02147 28.7915 8.08065 29.6008 7.75086C29.447 7.6846 29.2978 7.60383 29.1563 7.50444Z" fill="#F9A332"/>
<path d="M34.6231 11.3324C33.9464 10.8582 33.5772 10.1033 33.5455 9.30826L31.7521 8.05273C31.2373 9.23009 31.5589 10.6085 32.593 11.3324C33.3315 11.8495 34.2587 11.9087 35.0676 11.5785C34.9142 11.5126 34.7649 11.4315 34.6231 11.3324Z" fill="#F9A332"/>
<path d="M40.0898 15.1604C39.4127 14.6862 39.0434 13.9313 39.0122 13.1363L37.2188 11.8807C36.7043 13.0577 37.0256 14.4361 38.0596 15.1601C38.7981 15.6771 39.7253 15.7367 40.5342 15.4065C40.3808 15.3402 40.2316 15.2595 40.0898 15.1604Z" fill="#F9A332"/>
<path d="M46.7932 30.2991H2.04085C1.32394 30.2991 0.737305 30.8857 0.737305 31.6026V32.9062C0.737305 33.6231 1.32394 34.2093 2.04085 34.2093H46.7932C47.5101 34.2093 48.0967 33.6231 48.0967 32.9062V31.6026C48.0967 30.8857 47.5101 30.2991 46.7932 30.2991Z" fill="#B9E1FB"/>
<path d="M4.07285 32.9062V31.6026C4.07285 30.8857 4.65948 30.2991 5.37639 30.2991H2.04085C1.32394 30.2991 0.737305 30.8857 0.737305 31.6026V32.9062C0.737305 33.6231 1.32394 34.2093 2.04085 34.2093H5.37639C4.65948 34.2097 4.07285 33.6231 4.07285 32.9062Z" fill="#9AD3F6"/>
<path d="M13.9894 28.9955V27.6923C13.9894 26.9754 13.4028 26.3888 12.6859 26.3888H2.04085C1.32394 26.3888 0.737305 26.9754 0.737305 27.6923V28.9955C0.737305 29.7124 1.32394 30.2991 2.04085 30.2991H12.6859C13.4028 30.2991 13.9894 29.7124 13.9894 28.9955Z" fill="#9AD3F6"/>
<path d="M4.07285 28.9955V27.6923C4.07285 26.9754 4.65948 26.3888 5.37639 26.3888H2.04085C1.32394 26.3888 0.737305 26.9754 0.737305 27.6923V28.9955C0.737305 29.7124 1.32394 30.2991 2.04085 30.2991H5.37639C4.65948 30.2991 4.07285 29.7124 4.07285 28.9955Z" fill="#78CBF4"/>
<path d="M2.65723 34.2097V35.5494C2.65723 36.2663 3.24349 36.8529 3.9604 36.8529H44.875C45.592 36.8529 46.1782 36.2663 46.1782 35.5494V34.2097H2.65723Z" fill="#B7594A"/>
<path d="M5.9924 35.5494V34.2097H2.65723V35.5494C2.65723 36.2663 3.24349 36.8529 3.9604 36.8529H7.29594C6.57903 36.8529 5.9924 36.2663 5.9924 35.5494Z" fill="#AA493F"/>
<path d="M43.3465 12.1856C43.2769 10.2307 42.3877 8.38591 40.7566 7.24391L33.5789 2.21808C31.9478 1.07571 29.9106 0.871354 28.0498 1.47474L43.3465 12.1856Z" fill="#CCD7F2"/>
<path d="M32.0364 2.31448C31.7107 2.08631 31.698 1.66904 31.9035 1.40475C30.6591 1.02806 29.3135 1.06454 28.0498 1.47473L43.3465 12.1856C43.3183 11.3883 43.1511 10.6103 42.8556 9.89008L32.0364 2.31448Z" fill="#BCCCED"/>
<path d="M19.7361 19.3637H2.84324C1.68225 19.3637 0.738281 18.419 0.738281 17.2584V6.08298C0.738281 4.92237 1.68263 3.97803 2.84324 3.97803H19.7361C20.8971 3.97803 21.8414 4.92237 21.8414 6.08298V17.2584C21.8414 18.4194 20.8971 19.3637 19.7361 19.3637Z" fill="#DDE4F7"/>
<path d="M4.07285 17.2584V6.08298C4.07285 4.92237 5.01719 3.97803 6.1778 3.97803H2.84263C1.68165 3.97803 0.737305 4.92237 0.737305 6.08298V17.2584C0.737305 18.419 1.68165 19.3634 2.84263 19.3634H6.1778C5.01719 19.3637 4.07285 18.4194 4.07285 17.2584Z" fill="#CCD7F2"/>
<path d="M18.9664 6.5769H3.61236C3.46012 6.5769 3.33691 6.70048 3.33691 6.85273V16.489C3.33691 16.6412 3.46012 16.7648 3.61236 16.7648H18.9664C19.1187 16.7648 19.2423 16.6412 19.2423 16.489V6.85273C19.2423 6.70048 19.1187 6.5769 18.9664 6.5769Z" fill="#63A1FC"/>
<path d="M6.67246 16.489V6.85273C6.67246 6.70048 6.79566 6.5769 6.94828 6.5769H3.61274C3.46049 6.5769 3.33691 6.70048 3.33691 6.85273V16.489C3.33691 16.6412 3.46049 16.7648 3.61274 16.7648H6.94828C6.79604 16.7648 6.67246 16.6412 6.67246 16.489Z" fill="#4188FF"/>
<path d="M8.58423 10.1104C8.47777 10.2306 8.34116 10.2124 8.25592 10.1063C7.61085 8.97064 5.86621 9.42811 5.86621 10.7357C5.86621 12.5154 7.73741 13.5736 8.31064 13.8554C8.38062 13.89 8.46288 13.8896 8.53249 13.8554C9.10609 13.5725 10.9773 12.5113 10.9773 10.7357C10.9777 9.43369 9.23786 8.96468 8.58423 10.1104Z" fill="#FF5155"/>
<path d="M8.49899 10.2474C8.49899 10.2225 8.50085 10.1986 8.50196 10.1744C8.41412 10.2161 8.32032 10.1864 8.25592 10.1063C7.61122 8.97066 5.86621 9.42813 5.86621 10.7358C5.86621 12.5154 7.73741 13.5736 8.31064 13.8554C8.38062 13.89 8.46288 13.8897 8.53249 13.855C8.82878 13.7091 9.46976 13.3555 10.0214 12.8039C9.30523 12.2731 8.49899 11.4158 8.49899 10.2474Z" fill="#F24049"/>
<path d="M43.796 15.0503L44.3644 14.2377C44.7757 13.6503 44.6317 12.8337 44.0447 12.4224L27.6528 0.944688C27.0655 0.533747 26.2484 0.6778 25.8371 1.2648L25.2687 2.07738C24.8574 2.66476 25.0014 3.48143 25.5884 3.89274L41.9803 15.3704C42.5677 15.7814 43.3847 15.6373 43.796 15.0503Z" fill="#DDE4F7"/>
<path d="M28.8251 3.89274C28.2377 3.48143 28.0936 2.66439 28.5049 2.07701L28.7566 1.71781L27.6529 0.944688C27.0655 0.533747 26.2485 0.6778 25.8372 1.2648L25.2684 2.07738C24.8575 2.66476 25.0015 3.48143 25.5885 3.89274L41.9804 15.3704C42.5678 15.7814 43.3848 15.6377 43.7957 15.0503L44.1129 14.5977L28.8251 3.89274Z" fill="#CCD7F2"/>
<path d="M10.9836 22.5209C10.9836 24.8202 9.11949 26.6839 6.82023 26.6839C4.52098 26.6839 2.65723 24.8202 2.65723 22.5209C2.65723 20.2217 4.52098 18.3575 6.82023 18.3575C9.11949 18.3575 10.9836 20.2217 10.9836 22.5209Z" fill="#FFCDBE"/>
<path d="M5.85877 22.5209C5.85877 20.7889 6.91664 19.3041 8.42119 18.6769C7.92836 18.4714 7.38788 18.3575 6.82061 18.3575C4.52098 18.3575 2.65723 20.2217 2.65723 22.5209C2.65723 24.8202 4.52098 26.6839 6.82061 26.6839C7.38788 26.6839 7.92836 26.57 8.42119 26.3646C6.91664 25.7374 5.85877 24.2525 5.85877 22.5209Z" fill="#F7C1B3"/>
<path d="M16.0052 26.047C16.0052 26.018 16.0075 25.9901 16.0101 25.9621L13.1811 25.3416C12.3235 25.1328 11.4573 25.6588 11.2481 26.5171C11.0386 27.3755 11.5649 28.2413 12.4233 28.4505L16.0052 29.2541C16.0052 27.4276 16.0052 26.1453 16.0052 26.047Z" fill="#FFCDBE"/>
<path d="M14.1474 26.8652C14.2632 26.3895 14.5364 25.9934 14.8979 25.718L13.1811 25.3416C12.3235 25.1328 11.4573 25.6588 11.2481 26.5171C11.0386 27.3755 11.5649 28.2413 12.4233 28.4505L14.9336 29.0137C14.2807 28.5376 13.9438 27.699 14.1474 26.8652Z" fill="#F7C1B3"/>
<path d="M41.5767 27.099H36.5557V30.2987H41.5767C42.46 30.2987 43.1765 29.5825 43.1765 28.6988C43.1765 27.8155 42.46 27.099 41.5767 27.099Z" fill="#FFCDBE"/>
<path d="M39.4416 27.099H36.5557V30.2987H39.4416C39.4416 28.9036 39.4416 27.7712 39.4416 27.099Z" fill="#F7C1B3"/>
<path d="M35.9174 25.9857H20.3988C20.3251 25.9857 20.2514 25.9767 20.1799 25.9593L16.8607 25.1497C16.2793 25.0078 15.7188 25.4482 15.7188 26.0471V43.4086C15.7188 43.9186 16.1319 44.3321 16.6422 44.3321H35.9174C36.4273 44.3321 36.8409 43.9186 36.8409 43.4086C36.8409 43.2158 36.8409 27.3492 36.8409 26.9092C36.8409 26.3989 36.4273 25.9857 35.9174 25.9857Z" fill="#63A1FC"/>
<path d="M19.0666 43.4086C19.0666 43.1261 19.0666 26.413 19.0666 26.0471C19.0666 25.9246 19.0908 25.8096 19.1332 25.7039L16.8607 25.15C16.2793 25.0082 15.7188 25.4486 15.7188 26.0471V43.4086C15.7188 43.9185 16.1319 44.3321 16.6422 44.3321H19.9901C19.4798 44.3321 19.0666 43.9185 19.0666 43.4086Z" fill="#4188FF"/>
<path d="M28.8821 16.6043C29.2056 16.831 29.6511 16.7521 29.8774 16.429L31.3976 14.2574C31.6243 13.9339 31.5458 13.4884 31.2223 13.2621C30.8988 13.0358 30.4533 13.1143 30.227 13.4378L28.7064 15.609C28.4801 15.9324 28.5586 16.378 28.8821 16.6043Z" fill="black"/>
<path d="M32.5584 14.8638L32.0421 17.4638C31.9654 17.8509 32.217 18.2273 32.6041 18.3039C32.9916 18.3806 33.3676 18.129 33.4443 17.7422L33.9602 15.1419C34.0372 14.7547 33.7856 14.3784 33.3985 14.3017C33.0114 14.2251 32.635 14.4763 32.5584 14.8638Z" fill="black"/>
<path d="M29.501 11.5729C29.2966 11.2353 28.8566 11.1273 28.5194 11.3324L26.2525 12.7067C25.9149 12.9111 25.8073 13.3507 26.0117 13.6883C26.2164 14.0259 26.6564 14.1335 26.9936 13.9287L29.2605 12.5545C29.5981 12.3501 29.7057 11.9105 29.501 11.5729Z" fill="black"/>
<path d="M7.97162 14.5013C8.23516 14.6312 8.5549 14.6353 8.82626 14.5013C9.49329 14.1723 11.6693 12.9283 11.6693 10.7407C11.6693 9.00611 9.64776 8.16189 8.39968 9.20897C7.15346 8.16003 5.12891 9.00797 5.12891 10.7407C5.12891 12.9339 7.3057 14.1741 7.97162 14.5013ZM7.61167 10.4641C7.74493 10.6994 8.0375 10.9048 8.37623 10.913C8.71608 10.9238 9.04029 10.7187 9.18248 10.4697C9.47319 9.96013 10.24 10.1697 10.24 10.7411C10.24 11.9501 8.96435 12.7958 8.39856 13.1114C7.83352 12.7973 6.55826 11.9542 6.55826 10.7411C6.55826 10.1652 7.32878 9.96609 7.61167 10.4641Z" fill="black"/>
<path d="M13.4491 9.87369H16.2732C16.6681 9.87369 16.9878 9.55395 16.9878 9.15902C16.9878 8.76445 16.6681 8.44434 16.2732 8.44434H13.4491C13.0541 8.44434 12.7344 8.76445 12.7344 9.15902C12.7344 9.55395 13.0541 9.87369 13.4491 9.87369Z" fill="black"/>
<path d="M13.4491 12.3903H16.2732C16.6681 12.3903 16.9878 12.0706 16.9878 11.6756C16.9878 11.2807 16.6681 10.9609 16.2732 10.9609H13.4491C13.0541 10.9609 12.7344 11.2807 12.7344 11.6756C12.7344 12.0702 13.0541 12.3903 13.4491 12.3903Z" fill="black"/>
<path d="M13.4491 14.907H16.2732C16.6681 14.907 16.9878 14.5873 16.9878 14.1923C16.9878 13.7974 16.6681 13.4777 16.2732 13.4777H13.4491C13.0541 13.4777 12.7344 13.7974 12.7344 14.1923C12.7344 14.5873 13.0541 14.907 13.4491 14.907Z" fill="black"/>
<path d="M47.2418 1.43008C47.6367 1.43008 47.9565 1.11033 47.9565 0.715398C47.9565 0.320463 47.6367 0.000718622 47.2418 0.000718622H40.2178C40.2067 0.000718622 40.1959 0.0018353 40.1847 0.00220754C39.9469 -0.010076 39.7083 0.0960092 39.5616 0.305574L37.0945 3.82872L33.9651 1.63741C32.3098 0.478288 30.2581 0.0852145 28.2864 0.537845L28.0389 0.364386C27.1251 -0.275103 25.8647 -0.0499045 25.2278 0.859823L24.659 1.67203C24.021 2.58324 24.2433 3.84473 25.1549 4.48273L25.3499 4.61933C24.6978 7.53091 27.9064 9.77545 30.4174 8.16779L30.8168 8.44733C30.1643 11.3589 33.3722 13.6034 35.884 11.9958L36.2834 12.2753C35.6312 15.1865 38.8391 17.4314 41.3509 15.8238L41.5467 15.9608C42.4583 16.5991 43.719 16.3766 44.3574 15.465L44.9262 14.6528C45.5642 13.7415 45.3419 12.4804 44.4304 11.8421L44.1188 11.6239C43.8698 9.61651 42.7985 7.82273 41.1428 6.66361L38.2655 4.64874L40.5193 1.43008H47.2418ZM26.7108 5.57261L29.0569 7.21563C27.9324 7.48215 26.844 6.71647 26.7108 5.57261ZM32.1773 9.40024C33.6171 10.4082 33.0844 10.0356 34.5239 11.0433C33.402 11.3098 32.311 10.5467 32.1773 9.40024ZM37.6442 13.2282C39.0691 14.2258 38.5711 13.8774 39.9908 14.8713C38.8689 15.1378 37.7779 14.3747 37.6442 13.2282ZM43.7551 13.8327L43.1864 14.6449C43.0002 14.9107 42.6325 14.9759 42.3663 14.7897C41.4618 14.1562 26.8798 3.9456 25.9745 3.31207C25.7106 3.12707 25.6451 2.75633 25.8301 2.49205L26.3988 1.67984C26.5842 1.41519 26.9553 1.35079 27.2189 1.53542L43.6107 13.0127C43.875 13.1977 43.9401 13.5688 43.7551 13.8327ZM42.3351 10.3747C41.5828 9.84766 30.4193 2.03123 30.0701 1.78667C31.1634 1.82017 32.2306 2.16783 33.1455 2.80844L40.3232 7.83427C41.2377 8.47488 41.9297 9.35892 42.3351 10.3747Z" fill="black"/>
<path d="M46.7706 29.5892H43.6915C43.8046 29.3164 43.8679 29.0175 43.8679 28.7037C43.8679 27.4277 42.8294 26.3896 41.5534 26.3896H37.4451C37.2255 25.743 36.6143 25.2758 35.8944 25.2758H20.3758C20.3594 25.2758 20.3427 25.2736 20.3263 25.2699L17.0075 24.4603C16.358 24.3021 15.6675 24.5474 15.2696 25.1262L13.3269 24.6524C12.3323 24.41 11.328 24.8537 10.8136 25.679H10.5143C11.2372 24.8281 11.6746 23.7274 11.6746 22.5258C11.6746 21.6362 11.4341 20.802 11.0165 20.0833H19.7125C21.2673 20.0833 22.5325 18.818 22.5325 17.2632V13.3433C22.5325 12.9484 22.2124 12.6286 21.8178 12.6286C21.4229 12.6286 21.1031 12.9484 21.1031 13.3433V17.2632C21.1031 18.03 20.4793 18.6539 19.7125 18.6539H9.76207C8.01706 17.3142 5.58008 17.3131 3.83172 18.6539H2.81963C2.05321 18.6539 1.42936 18.03 1.42936 17.2632V6.08819C1.42936 5.3214 2.05321 4.69755 2.81963 4.69755H19.7129C20.4793 4.69755 21.1031 5.3214 21.1031 6.08819V10.0081C21.1031 10.4027 21.4233 10.7228 21.8178 10.7228C22.2128 10.7228 22.5329 10.4027 22.5329 10.0081V6.08819C22.5329 4.53339 21.2677 3.26819 19.7129 3.26819H2.81963C1.26483 3.26819 0 4.53302 0 6.08819V17.2636C0 18.7388 1.13902 19.9522 2.58327 20.0728C2.16191 20.7938 1.91884 21.6317 1.91884 22.5258C1.91884 23.7274 2.35658 24.8281 3.07945 25.679H2.01822C0.90526 25.679 0 26.5842 0 27.6972V29.0007C0 29.4977 0.181275 29.9522 0.480175 30.3043C0.181275 30.656 0 31.1109 0 31.6075V32.911C0 33.9905 0.852404 34.8719 1.91884 34.9244V35.5542C1.91884 36.6672 2.82447 37.5724 3.93706 37.5724H5.91099V46.6384C5.91099 47.3892 6.52182 48 7.27298 48H8.62156C9.37235 48 9.98355 47.3892 9.98355 46.6384V37.5724H14.9811V43.4134C14.9811 44.3168 15.7159 45.0516 16.6193 45.0516H24.8682C25.2628 45.0516 25.5829 44.7319 25.5829 44.3369C25.5829 43.942 25.2628 43.6223 24.8682 43.6223H16.6193C16.5043 43.6223 16.4105 43.5285 16.4105 43.4134C16.4105 42.9254 16.4105 26.5671 16.4105 26.0557C16.4108 26.0523 16.4112 26.049 16.4112 26.0456C16.4153 25.9127 16.5389 25.8174 16.6688 25.8491L19.9876 26.6587C20.1145 26.6896 20.2452 26.7052 20.3758 26.7052H35.8944C36.0098 26.7052 36.1032 26.7986 36.1032 26.914V43.4134C36.1032 43.5285 36.0098 43.6223 35.8944 43.6223H28.2034C27.8088 43.6223 27.4887 43.942 27.4887 44.3369C27.4887 44.7315 27.8088 45.0516 28.2034 45.0516H35.8944C36.7978 45.0516 37.5326 44.3168 37.5326 43.4134V37.5724H38.8052V46.6381C38.8052 47.3892 39.4161 48 40.1672 48H41.5158C42.267 48 42.8778 47.3892 42.8778 46.6381V37.5724H44.8513C45.9643 37.5724 46.8696 36.6672 46.8696 35.5542V34.924C47.9364 34.8719 48.7888 33.9905 48.7888 32.911V31.6075C48.7888 30.4949 47.8835 29.5892 46.7706 29.5892ZM12.9886 26.0411L14.9811 26.5273V28.3493L14.1361 28.1431L12.5694 27.7612C12.154 27.66 11.8793 27.2796 11.8942 26.869C11.9143 26.3185 12.4373 25.9071 12.9886 26.0411ZM6.7969 25.9741C4.90821 25.9741 3.3482 24.4372 3.3482 22.5258C3.3482 20.7376 4.71651 19.2603 6.4712 19.0931C8.49836 18.9022 10.2452 20.5013 10.2452 22.5258C10.2452 24.4428 8.68 25.9741 6.7969 25.9741ZM1.42936 27.6972C1.42936 27.3726 1.69364 27.1083 2.01822 27.1083H5.12485C6.19724 27.501 7.39507 27.5014 8.46895 27.1083H10.473C10.5605 28.0906 11.2726 28.9162 12.2303 29.1496L13.1233 29.3674C13.0154 29.5025 12.849 29.5892 12.6632 29.5892H2.01822C1.69364 29.5892 1.42936 29.3253 1.42936 29.0007V27.6972ZM1.42936 32.911V31.6075C1.42936 31.2829 1.69364 31.019 2.01822 31.019H14.9811V33.4999C14.0896 33.4999 2.25794 33.4999 2.01822 33.4999C1.69364 33.4999 1.42936 33.2356 1.42936 32.911ZM8.55382 46.5707H7.34035V37.5724H8.55382V46.5707ZM3.93706 36.1431C3.61248 36.1431 3.3482 35.8788 3.3482 35.5542V34.9292H14.9811V36.1431C14.5072 36.1431 4.36103 36.1431 3.93706 36.1431ZM42.4382 28.7037C42.4382 29.1921 42.0414 29.5889 41.5534 29.5889H37.5326V27.8189H41.5534C42.0414 27.8189 42.4382 28.2157 42.4382 28.7037ZM41.4484 46.5707H40.2346V37.5724H41.4484V46.5707ZM45.4402 35.5542C45.4402 35.8788 45.1763 36.1431 44.8513 36.1431C44.1728 36.1431 38.347 36.1431 37.5326 36.1431V34.9292H45.4402V35.5542ZM47.3594 32.911C47.3594 33.2356 47.0951 33.4999 46.7706 33.4999C45.7611 33.4999 38.5428 33.4999 37.5326 33.4999V31.019H46.7706C47.0951 31.019 47.3594 31.2829 47.3594 31.6078V32.911Z" fill="black"/>
<path d="M3.31331 5.86707C2.91838 5.86707 2.59863 6.18718 2.59863 6.58174V16.7696C2.59863 17.1646 2.91838 17.4843 3.31331 17.4843H19.2187C19.6136 17.4843 19.9333 17.1646 19.9333 16.7696V6.58174C19.9333 6.18718 19.6136 5.86707 19.2187 5.86707H3.31331ZM18.504 16.055H4.02799V7.29642H18.504V16.055Z" fill="black"/>
</svg>
