<svg width="60" height="60" viewBox="0 0 60 60" fill="none" xmlns="http://www.w3.org/2000/svg">
<path d="M51.8254 4.98853H8.16088C5.22787 4.98853 2.841 7.38589 2.841 10.3322C2.83999 13.3568 2.84469 -0.624569 2.83105 39.9126C2.83105 42.855 5.22455 45.2485 8.16751 45.2485H24.403C24.9075 46.5172 25.1522 49.0604 20.2661 52.7474H18.3208C17.6951 52.7474 17.1887 53.2543 17.1887 53.8795C17.1887 54.5047 17.6951 55.0116 18.3208 55.0116H41.6765C42.3022 55.0116 42.8086 54.5047 42.8086 53.8795C42.8086 53.2543 42.3022 52.7474 41.6765 52.7474H39.7312C34.8465 49.0615 35.0908 46.5178 35.5946 45.2485H51.8309C54.7829 45.2485 57.1685 42.841 57.1685 39.9132V10.3322C57.1685 7.38589 54.7717 4.98853 51.8254 4.98853ZM8.16088 7.25268H51.8254C53.5235 7.25268 54.9043 8.63405 54.9043 10.3322V35.8415H5.10516V10.3322C5.10516 8.63405 6.47603 7.25268 8.16088 7.25268ZM54.9021 39.9126C54.9021 41.6151 53.5156 42.981 51.8254 42.981H8.16088C6.47603 42.981 5.10516 41.6046 5.10516 39.9132V38.1056H54.9021V39.9126ZM36.2306 52.7474H23.7667C26.3548 50.2273 27.3586 47.7172 26.7638 45.2485H33.2346C32.6398 47.7177 33.6425 50.2279 36.2306 52.7474Z" fill="#F96363"/>
<path d="M24.9883 41.6771C25.6141 41.6771 26.1204 41.1702 26.1204 40.545C26.1204 39.9199 25.6141 39.413 24.9883 39.413H24.9762C24.3504 39.413 23.8496 39.9199 23.8496 40.545C23.8496 41.1702 24.3626 41.6771 24.9883 41.6771Z" fill="#F96363"/>
<path d="M30.0049 41.6771C30.6307 41.6771 31.137 41.1702 31.137 40.545C31.137 39.9199 30.6307 39.413 30.0049 39.413H29.9927C29.367 39.413 28.8662 39.9199 28.8662 40.545C28.8662 41.1702 29.3792 41.6771 30.0049 41.6771Z" fill="#F96363"/>
<path d="M35.0214 41.6771C35.6471 41.6771 36.1535 41.1702 36.1535 40.545C36.1535 39.9199 35.6471 39.413 35.0214 39.413H35.0103C34.3846 39.413 33.8838 39.9199 33.8838 40.545C33.8838 41.1702 34.3957 41.6771 35.0214 41.6771Z" fill="#F96363"/>
<path d="M10.093 28.2558H10.6027L11.3799 30.3862C11.538 30.8201 11.9437 31.1142 12.4047 31.1302C12.8558 31.1523 13.2902 30.8803 13.4782 30.4586L15.4516 26.0193L17.31 32.5586C17.4476 33.0437 17.892 33.3811 18.399 33.3811C18.8157 33.3811 19.2016 33.1517 19.3995 32.7786L21.793 28.2558H37.7128L38.5652 31.0373C38.7033 31.4884 39.1069 31.8068 39.5778 31.8355C40.0466 31.8731 40.4888 31.5989 40.6812 31.1678L43.0028 25.9784L44.9242 32.5657C45.058 33.0229 45.4626 33.3474 45.9369 33.3789C46.4256 33.4126 46.8556 33.1395 47.0469 32.705L49.0037 28.2558H49.9169C50.5426 28.2558 51.0489 27.7489 51.0489 27.1237C51.0489 26.4985 50.5426 25.9916 49.9169 25.9916H48.2652C47.8163 25.9916 47.4095 26.257 47.2293 26.6677L46.2266 28.9462L44.314 22.3881C44.1813 21.9321 43.7778 21.6082 43.3046 21.5755C42.8082 21.5429 42.387 21.8094 42.1935 22.2427L39.8465 27.4902L39.632 26.792C39.4861 26.3161 39.0472 25.9916 38.5497 25.9916H33.4708C36.3438 23.6771 40.2843 19.7962 40.2843 15.9002C40.2843 12.4891 37.5094 9.71362 34.0977 9.71362C32.5709 9.71362 31.116 10.2791 30.0049 11.2691C28.8939 10.2791 27.4379 9.71362 25.9111 9.71362C22.4994 9.71362 19.7245 12.4891 19.7245 15.9002C19.7245 19.7962 23.6653 23.6771 26.5388 25.9916H21.1108C20.6918 25.9916 20.306 26.2238 20.1103 26.5942L18.7173 29.227L16.776 22.3953C16.6456 21.9371 16.242 21.6093 15.7667 21.5755C15.2946 21.5418 14.8468 21.8094 14.6523 22.2449L12.5473 26.9789L12.4589 26.7362C12.2964 26.289 11.8707 25.9916 11.3953 25.9916H10.093C9.46728 25.9916 8.96094 26.4985 8.96094 27.1237C8.96094 27.7489 9.46728 28.2558 10.093 28.2558ZM21.9886 15.9002C21.9886 13.7372 23.7487 11.9778 25.9111 11.9778C27.1759 11.9778 28.3599 12.588 29.0796 13.6107C29.5019 14.2132 30.508 14.2132 30.9303 13.6107C31.65 12.588 32.834 11.9778 34.0977 11.9778C36.2601 11.9778 38.0201 13.7372 38.0201 15.9002C38.0201 19.4617 32.708 23.8839 30.0049 25.7606C27.3019 23.8845 21.9886 19.4617 21.9886 15.9002Z" fill="#F96363"/>
</svg>
