<svg width="45" height="48" viewBox="0 0 45 48" fill="none" xmlns="http://www.w3.org/2000/svg">
<path fill-rule="evenodd" clip-rule="evenodd" d="M37.2191 47.2968C38.8035 47.2968 40.0973 46.0031 40.0973 44.4281V18.6749C39.0941 18.8624 5.13789 18.8531 4.18164 18.6749V44.4281C4.18164 46.0124 5.47539 47.2968 7.05977 47.2968H37.2191Z" fill="#F9F7F8"/>
<path fill-rule="evenodd" clip-rule="evenodd" d="M37.2855 25.1063V46.0032C37.2855 46.4719 37.173 46.9125 36.9668 47.3063H37.2105C38.7949 47.3063 40.0887 46.0125 40.0887 44.4375V25.5281V18.6656C40.0699 18.6656 40.0418 18.675 39.9949 18.675C39.6762 18.7031 38.7012 18.7219 37.2762 18.7406L37.2855 25.1063Z" fill="#DDDAEC"/>
<path fill-rule="evenodd" clip-rule="evenodd" d="M5.92383 14.0624L15.3176 14.9999L14.1363 9.62805H8.41758C7.04883 9.62805 5.92383 10.7531 5.92383 12.1218V14.0624Z" fill="#FFD772"/>
<path fill-rule="evenodd" clip-rule="evenodd" d="M30.15 9.62817L28.9688 15L38.3625 14.0625V12.1219C38.3625 10.7532 37.2375 9.62817 35.8688 9.62817H30.15Z" fill="#FFD772"/>
<path fill-rule="evenodd" clip-rule="evenodd" d="M26.4375 21.3281C26.4375 23.6812 28.3688 25.6125 30.7219 25.6125C33.0844 25.6125 35.0156 23.6906 35.0156 21.3281C35.0156 23.6812 36.9469 25.6125 39.3094 25.6125C39.5813 25.6125 39.8438 25.5844 40.1063 25.5375C42.0844 25.1625 43.5938 23.4187 43.5938 21.3281V17.2312C43.5938 14.8406 41.6719 14.0531 40.1063 14.0531H38.3625H29.9062C28.3594 16.7437 25.4625 18.5531 22.1437 18.5531C18.825 18.5531 15.9187 16.7437 14.3812 14.0531H5.925H4.19063C2.61563 14.0531 0.703125 14.8312 0.703125 17.2312V21.3281C0.703125 23.4094 2.2125 25.1625 4.19063 25.5375C4.44375 25.5844 4.71563 25.6125 4.9875 25.6125C7.35 25.6125 9.28125 23.6906 9.28125 21.3281C9.28125 23.6812 11.2125 25.6125 13.575 25.6125C15.9375 25.6125 17.8687 23.6906 17.8687 21.3281C17.8687 23.6812 19.8 25.6125 22.1625 25.6125C24.525 25.6125 26.4375 23.6812 26.4375 21.3281Z" fill="#EB5468"/>
<path fill-rule="evenodd" clip-rule="evenodd" d="M14.373 14.0625C15.9199 16.7531 18.8168 18.5625 22.1449 18.5625C25.473 18.5625 28.3699 16.7531 29.9074 14.0625C30.6574 12.7594 31.0887 11.2406 31.0887 9.62812C31.0887 4.69687 27.0855 0.703125 22.1449 0.703125C17.2043 0.703125 13.2012 4.69687 13.2012 9.62812C13.2012 11.2406 13.623 12.75 14.373 14.0625Z" fill="#F9F7F8"/>
<path fill-rule="evenodd" clip-rule="evenodd" d="M37.4434 14.1562C38.7559 14.4281 40.0121 15.3 40.0121 17.2406V19.9219V21.3281C40.0121 23.0437 38.9902 24.5344 37.5184 25.2187C38.0621 25.4719 38.6715 25.6125 39.309 25.6125C39.5809 25.6125 39.8434 25.5844 40.1059 25.5375C42.084 25.1625 43.5934 23.4187 43.5934 21.3281V17.2312C43.5934 14.8406 41.6715 14.0531 40.1059 14.0531H38.3621L37.4434 14.1562Z" fill="#E5384F"/>
<path fill-rule="evenodd" clip-rule="evenodd" d="M21.8906 0.703125C25.7531 1.6875 28.6125 5.19375 28.6125 9.35625C28.6125 10.9688 28.1812 12.4875 27.4312 13.7906C25.9312 16.4063 23.1375 18.1875 19.9219 18.2812C20.6344 18.4594 21.375 18.5625 22.1437 18.5625C25.0781 18.5625 27.6844 17.1469 29.3156 14.9719C29.5312 14.6812 29.7281 14.3813 29.9062 14.0719C30.6562 12.7688 31.0875 11.25 31.0875 9.6375C31.0875 4.70625 27.0844 0.7125 22.1437 0.7125C22.0594 0.703125 21.975 0.703125 21.8906 0.703125Z" fill="#DDDAEC"/>
<path fill-rule="evenodd" clip-rule="evenodd" d="M34.1066 29.3156H27.441C26.4098 29.3156 25.5566 30.1593 25.5566 31.1906V47.2874H35.991V31.1906C35.9816 30.1593 35.1379 29.3156 34.1066 29.3156Z" fill="#B1E4F9"/>
<path fill-rule="evenodd" clip-rule="evenodd" d="M21.2238 41.4094V31.0875C21.2238 30.0563 20.3707 29.2031 19.3395 29.2031H9.6832C8.64258 29.2031 7.79883 30.0469 7.79883 31.0875V41.4094C7.79883 42.4406 8.64258 43.2937 9.6832 43.2937H19.3301C20.3707 43.2844 21.2238 42.4406 21.2238 41.4094Z" fill="#B1E4F9"/>
<path fill-rule="evenodd" clip-rule="evenodd" d="M25.5566 31.0874H30.2535H31.2848H31.941C32.9723 31.0874 33.8254 31.9312 33.8254 32.9624V39.7687V47.2968H35.9816V31.1999C35.9816 30.1687 35.1379 29.3249 34.0973 29.3249H27.4316C26.4379 29.3155 25.6129 30.103 25.5566 31.0874Z" fill="#75CEF8"/>
<path fill-rule="evenodd" clip-rule="evenodd" d="M12.6474 37.6781L16.388 34.8187L14.8599 32.8219C14.0724 31.7906 12.5912 31.5937 11.5599 32.3812C10.5287 33.1687 10.3318 34.65 11.1193 35.6719L12.6474 37.6781Z" fill="#EB5468"/>
<path fill-rule="evenodd" clip-rule="evenodd" d="M16.3871 34.8187L12.6465 37.6781L14.1746 39.675C14.9621 40.6969 16.4434 40.8937 17.4746 40.1156C18.5059 39.3281 18.7027 37.8468 17.9152 36.825L16.3871 34.8187Z" fill="#F9F7F8"/>
<path fill-rule="evenodd" clip-rule="evenodd" d="M13.35 33.7688L14.8781 35.7656L14.9719 35.8875L16.3781 34.8187L14.85 32.8219C14.0625 31.7906 12.5812 31.5937 11.55 32.3812C11.475 32.4375 11.4094 32.4937 11.3438 32.5594C12.2438 32.3156 12.7594 32.9906 13.35 33.7688Z" fill="#E5384F"/>
<path fill-rule="evenodd" clip-rule="evenodd" d="M16.3887 34.8187L14.9824 35.8875L16.4168 37.7625C17.148 38.7187 17.523 39.6844 16.6793 40.5C16.9605 40.425 17.2324 40.2937 17.4762 40.1062C18.5074 39.3187 18.7043 37.8375 17.9168 36.8156L16.3887 34.8187Z" fill="#DDDAEC"/>
<path fill-rule="evenodd" clip-rule="evenodd" d="M19.3395 32.9719V43.2937C20.3801 43.2937 21.2238 42.45 21.2238 41.4094V31.0875C21.2238 30.0563 20.3707 29.2031 19.3395 29.2031H9.6832C8.64258 29.2031 7.79883 30.0469 7.79883 31.0875H17.0895C18.1301 31.0875 19.3395 31.9313 19.3395 32.9719Z" fill="#75CEF8"/>
<path fill-rule="evenodd" clip-rule="evenodd" d="M20.4281 11.3344V14.0156C20.4281 14.1563 20.5406 14.2688 20.6812 14.2688H23.5969C23.7375 14.2688 23.85 14.1563 23.85 14.0156V11.3344H26.5406C26.6812 11.3344 26.7938 11.2219 26.7938 11.0813V8.17502C26.7938 8.0344 26.6812 7.9219 26.5406 7.9219H23.85V5.23127C23.85 5.09065 23.7375 4.97815 23.5969 4.97815H20.6812C20.5406 4.97815 20.4281 5.09065 20.4281 5.23127V7.91252H17.7375C17.5969 7.91252 17.4844 8.02502 17.4844 8.16565V11.0813C17.4844 11.2219 17.5969 11.3344 17.7375 11.3344H20.4281Z" fill="#EB5468"/>
<path fill-rule="evenodd" clip-rule="evenodd" d="M26.541 7.9219H23.8504V5.23127C23.8504 5.09065 23.7379 4.97815 23.5973 4.97815H21.3848C22.2566 6.35627 22.7723 7.9969 22.7723 9.74065C22.7723 11.3531 22.341 12.8719 21.591 14.175C21.5723 14.2031 21.5535 14.2406 21.5348 14.2688H23.5973C23.7379 14.2688 23.8504 14.1563 23.8504 14.0156V11.3344H26.541C26.6816 11.3344 26.7941 11.2219 26.7941 11.0813V8.17502C26.8035 8.0344 26.6816 7.9219 26.541 7.9219Z" fill="#E5384F"/>
<path fill-rule="evenodd" clip-rule="evenodd" d="M35.9824 34.9781H43.3605V47.2969H35.9824V34.9781Z" fill="#FFD772"/>
<path fill-rule="evenodd" clip-rule="evenodd" d="M5.59648 38.5219C7.84648 38.5219 9.69336 40.3594 9.69336 42.6094V47.2969H1.49023V42.6094C1.49023 40.3594 3.33711 38.5219 5.59648 38.5219Z" fill="#A7E9A6"/>
<path fill-rule="evenodd" clip-rule="evenodd" d="M7.06836 42.5531V47.2406H1.49023V47.2969H7.67773H9.68398V42.6375V42.6094C9.68398 41.4937 9.23398 40.4812 8.49336 39.7406C7.75273 38.9906 6.72148 38.5219 5.58711 38.5219C5.20273 38.5219 4.83711 38.5781 4.48086 38.6719C4.44336 38.6812 4.40586 38.6906 4.36836 38.7094C4.40586 38.7187 4.44336 38.7375 4.48086 38.7562C5.99961 39.3562 7.06836 40.8375 7.06836 42.5531Z" fill="#7FDBAE"/>
<path fill-rule="evenodd" clip-rule="evenodd" d="M41.5215 34.9781H43.359V47.2969H41.5215V34.9781Z" fill="#FBBA58"/>
<path fill-rule="evenodd" clip-rule="evenodd" d="M31.8848 9.62805C33.2629 9.62805 34.3785 10.7437 34.3785 12.1218V14.0624H38.3629V12.1218C38.3629 10.7531 37.2379 9.62805 35.8691 9.62805H31.8848Z" fill="#FBBA58"/>
<path d="M28.3879 38.8407H28.3691C27.9848 38.8407 27.666 38.5219 27.666 38.1376C27.666 37.7532 27.9848 37.4344 28.3691 37.4344H28.3879C28.7723 37.4344 29.091 37.7532 29.091 38.1376C29.091 38.5219 28.7816 38.8407 28.3879 38.8407Z" fill="black"/>
<path d="M40.3879 38.8407H38.9629C38.5785 38.8407 38.2598 38.5219 38.2598 38.1376C38.2598 37.7532 38.5785 37.4344 38.9629 37.4344H40.3879C40.7723 37.4344 41.091 37.7532 41.091 38.1376C41.091 38.5219 40.7723 38.8407 40.3879 38.8407Z" fill="black"/>
<path d="M40.3879 41.9344H38.9629C38.5785 41.9344 38.2598 41.6157 38.2598 41.2313C38.2598 40.8469 38.5785 40.5282 38.9629 40.5282H40.3879C40.7723 40.5282 41.091 40.8469 41.091 41.2313C41.091 41.6157 40.7723 41.9344 40.3879 41.9344Z" fill="black"/>
<path d="M40.3879 45.0282H38.9629C38.5785 45.0282 38.2598 44.7094 38.2598 44.3251C38.2598 43.9407 38.5785 43.6219 38.9629 43.6219H40.3879C40.7723 43.6219 41.091 43.9407 41.091 44.3251C41.091 44.7094 40.7723 45.0282 40.3879 45.0282Z" fill="black"/>
<path d="M17.7375 12.0375H19.725V14.0156C19.725 14.5406 20.1562 14.9719 20.6812 14.9719H23.5969C24.1219 14.9719 24.5531 14.5406 24.5531 14.0156V12.0375H26.5406C27.0656 12.0375 27.4969 11.6063 27.4969 11.0813V8.17502C27.4969 7.65002 27.0656 7.21877 26.5406 7.21877H24.5531V5.23127C24.5531 4.70627 24.1219 4.27502 23.5969 4.27502H20.6812C20.1562 4.27502 19.725 4.70627 19.725 5.23127V7.21877H17.7375C17.2125 7.21877 16.7812 7.65002 16.7812 8.17502V11.0906C16.7812 11.6063 17.2125 12.0375 17.7375 12.0375ZM18.1875 8.62502H20.4281C20.8125 8.62502 21.1312 8.30627 21.1312 7.9219V5.69065H23.1469V7.9219C23.1469 8.30627 23.4656 8.62502 23.85 8.62502H26.0906V10.6313H23.85C23.4656 10.6313 23.1469 10.95 23.1469 11.3344V13.575H21.1312V11.3344C21.1312 10.95 20.8125 10.6313 20.4281 10.6313H18.1875V8.62502Z" fill="black"/>
<path d="M15.4132 32.3907C14.3913 31.05 12.4694 30.7969 11.1288 31.8188C10.4819 32.3157 10.0694 33.0282 9.9569 33.8438C9.8444 34.65 10.06 35.4563 10.5569 36.1032L13.6225 40.0969C14.2225 40.8844 15.1319 41.2969 16.0507 41.2969C16.6975 41.2969 17.3538 41.0907 17.8975 40.6688C18.5444 40.1719 18.9663 39.4594 19.0694 38.6438C19.1819 37.8375 18.9663 37.0313 18.4694 36.3844C17.9819 35.7469 15.4132 32.3907 15.4132 32.3907ZM12.7788 36.6938L11.6725 35.25C11.41 34.9032 11.2975 34.4719 11.3538 34.0313C11.41 33.5907 11.635 33.2063 11.9819 32.9438C12.2819 32.7188 12.6382 32.6063 12.985 32.6063C13.4819 32.6063 13.9788 32.8313 14.2975 33.2532C14.2975 33.2532 15.3663 34.6407 15.3944 34.6875L12.7788 36.6938ZM17.6819 38.4563C17.6257 38.8969 17.4007 39.2813 17.0538 39.5438C16.3319 40.0969 15.2913 39.9563 14.7382 39.2344L13.6413 37.8L16.2663 35.8032C16.6413 36.2907 17.0163 36.7782 17.3725 37.2469C17.6257 37.5938 17.7382 38.025 17.6819 38.4563Z" fill="black"/>
<path d="M43.3684 34.275H40.7996V31.6875C40.7996 31.3031 40.4809 30.9844 40.0965 30.9844C39.7121 30.9844 39.3934 31.3031 39.3934 31.6875V34.275H36.684V31.2C36.684 29.775 35.5215 28.6219 34.0965 28.6219H27.4309C26.0059 28.6219 24.8434 29.7844 24.8434 31.2V46.5938H10.3965V43.9875H19.3402C20.7652 43.9875 21.9277 42.825 21.9277 41.4V31.0875C21.9277 29.6625 20.7652 28.5 19.3402 28.5H9.68398C8.25898 28.5 7.09648 29.6625 7.09648 31.0875V38.0625C6.61836 37.9031 6.11211 37.8187 5.58711 37.8187C5.35273 37.8187 5.10898 37.8375 4.88398 37.875V33.9C4.88398 33.5156 4.56523 33.1969 4.18086 33.1969C3.79648 33.1969 3.47773 33.5156 3.47773 33.9V38.3063C1.88398 39.0844 0.787109 40.725 0.787109 42.6094V47.2969C0.787109 47.6812 1.10586 48 1.49023 48H8.86836H9.68398H43.359C43.7434 48 44.0621 47.6812 44.0621 47.2969V34.9781C44.0715 34.5938 43.7527 34.275 43.3684 34.275ZM8.99023 46.5938H8.87774H2.19336V42.6094C2.19336 40.7437 3.72148 39.225 5.58711 39.225C7.46211 39.225 8.98086 40.7437 8.98086 42.6094L8.99023 46.5938ZM8.50273 38.8031V31.0875C8.50273 30.4406 9.03711 29.9062 9.68398 29.9062H19.3309C19.9871 29.9062 20.5121 30.4313 20.5121 31.0875V41.4094C20.5121 42.0563 19.9777 42.5906 19.3309 42.5906H10.3871C10.3871 41.0437 9.64648 39.675 8.50273 38.8031ZM35.2777 46.5938H26.2496V31.2C26.2496 30.5531 26.7746 30.0281 27.4309 30.0281H34.0965C34.7434 30.0281 35.2777 30.5531 35.2777 31.2V46.5938ZM42.6652 46.5938H36.6934V35.6813H42.6652V46.5938Z" fill="black"/>
<path d="M40.0969 13.3594H39.0656V12.1219C39.0656 10.3594 37.6313 8.925 35.8688 8.925H31.7719C31.4063 3.94687 27.225 0 22.1437 0C17.0625 0 12.8813 3.94687 12.5156 8.925H8.41875C6.65625 8.925 5.22188 10.3594 5.22188 12.1219V13.3594H4.19063C2.1 13.3594 0 14.5594 0 17.2313V21.3281C0 23.55 1.47188 25.4438 3.4875 26.0813V30.7594C3.4875 31.1438 3.80625 31.4625 4.19063 31.4625C4.575 31.4625 4.89375 31.1438 4.89375 30.7594V26.3063H4.9875C6.80625 26.3063 8.4 25.3313 9.27187 23.8688C10.1437 25.3219 11.7375 26.3063 13.5656 26.3063C15.3844 26.3063 16.9875 25.3313 17.8594 23.8688C18.7313 25.3313 20.325 26.3063 22.1531 26.3063C23.9719 26.3063 25.575 25.3313 26.4469 23.8688C27.3188 25.3219 28.9125 26.3063 30.7313 26.3063C32.55 26.3063 34.1531 25.3313 35.025 23.8688C35.8969 25.3313 37.4906 26.3063 39.3188 26.3063H39.4125V28.5469C39.4125 28.9312 39.7313 29.25 40.1156 29.25C40.5 29.25 40.8188 28.9312 40.8188 28.5469V26.0813C42.8438 25.4438 44.3063 23.55 44.3063 21.3281V17.2313C44.2969 14.5594 42.1875 13.3594 40.0969 13.3594ZM31.7719 10.3312H35.8688C36.8625 10.3312 37.6594 11.1375 37.6594 12.1219V13.3594H31.0406C31.4344 12.4125 31.6875 11.4 31.7719 10.3312ZM22.1437 1.40625C26.6906 1.40625 30.3844 5.09062 30.3844 9.62812C30.3844 14.1656 26.6906 17.85 22.1437 17.85C17.5969 17.85 13.9031 14.1562 13.9031 9.62812C13.9031 5.1 17.5969 1.40625 22.1437 1.40625ZM6.62812 12.1219C6.62812 11.1375 7.43438 10.3312 8.41875 10.3312H12.5156C12.5906 11.4 12.8438 12.4125 13.2375 13.3594H6.62812V12.1219ZM42.8906 21.3281C42.8906 23.2969 41.2781 24.9094 39.3 24.9094C37.3219 24.9094 35.7094 23.3062 35.7094 21.3281C35.7094 20.9438 35.3906 20.625 35.0063 20.625C34.6219 20.625 34.3031 20.9438 34.3031 21.3281C34.3031 23.2969 32.6906 24.9094 30.7125 24.9094C28.7344 24.9094 27.1313 23.3062 27.1313 21.3281C27.1313 20.9438 26.8125 20.625 26.4281 20.625C26.0438 20.625 25.725 20.9438 25.725 21.3281C25.725 23.2969 24.1125 24.9094 22.1344 24.9094C20.1562 24.9094 18.5438 23.3062 18.5438 21.3281C18.5438 20.9438 18.225 20.625 17.8406 20.625C17.4563 20.625 17.1375 20.9438 17.1375 21.3281C17.1375 23.2969 15.525 24.9094 13.5469 24.9094C11.5688 24.9094 9.95625 23.3062 9.95625 21.3281C9.95625 20.9438 9.6375 20.625 9.25312 20.625C8.86875 20.625 8.55 20.9438 8.55 21.3281C8.55 23.2969 6.9375 24.9094 4.95937 24.9094C2.98125 24.9094 1.37813 23.3062 1.37813 21.3281V17.2313C1.37813 14.9438 3.51562 14.7562 4.1625 14.7562H13.9875C15.7031 17.4562 18.7125 19.2562 22.1437 19.2562C25.575 19.2562 28.5938 17.4562 30.3 14.7562H40.0969C40.7531 14.7562 42.8813 14.9344 42.8813 17.2313L42.8906 21.3281Z" fill="black"/>
</svg>
