<svg width="48" height="48" viewBox="0 0 48 48" fill="none" xmlns="http://www.w3.org/2000/svg">
<g clip-path="url(#clip0_186_3445)">
<mask id="mask0_186_3445" style="mask-type:luminance" maskUnits="userSpaceOnUse" x="0" y="0" width="48" height="48">
<path d="M48 0H0V48H48V0Z" fill="white"/>
</mask>
<g mask="url(#mask0_186_3445)">
<path d="M2.44531 32.3049C2.44531 37.3096 2.44531 45.6015 2.44531 45.7963C2.44531 46.4853 3.00359 47.0437 3.69265 47.0437H5.35578C6.04465 47.0437 6.60312 46.4853 6.60312 45.7963C6.60312 44.8746 6.60312 37.0909 6.60312 32.3049H2.44531Z" fill="#C6A875"/>
<path d="M5.5625 47.0251L5.56363 47.0249C4.97394 46.9257 4.52431 46.4139 4.52431 45.7961C4.52431 45.6012 4.52431 37.3094 4.52431 32.3047H2.44531C2.44531 37.3094 2.44531 45.6012 2.44531 45.7961C2.44531 46.4849 3.00359 47.0435 3.69265 47.0435C5.43247 47.0436 5.40163 47.052 5.5625 47.0251Z" fill="#B5915D"/>
<path d="M7.85053 17.1915V31.3635C7.85053 32.0525 7.29222 32.6109 6.6031 32.6109H2.44519C1.75612 32.6109 1.19775 32.0525 1.19775 31.3635V15.355C1.19775 14.6661 1.75604 14.1077 2.44519 14.1077H6.6031C7.29216 14.1077 7.85053 14.6661 7.85053 15.355V17.1915Z" fill="#AA9A79"/>
<path d="M4.52409 31.3635V15.355C4.52409 14.6661 5.08237 14.1077 5.77153 14.1077H2.44519C1.75612 14.1077 1.19775 14.6661 1.19775 15.355V31.3634C1.19775 32.0523 1.75604 32.6108 2.44519 32.6108H5.77153C5.08247 32.6109 4.52409 32.0523 4.52409 31.3635Z" fill="#A08D70"/>
<path d="M7.85005 17.1919H1.19775V29.5278H7.85005V17.1919Z" fill="#C6A875"/>
<path d="M4.52409 17.1919H1.19775V29.5278H4.52409V17.1919Z" fill="#B5915D"/>
<path d="M43.9526 9.83686C42.6139 8.43642 41.1836 7.65306 40.4959 7.43713L40.4965 7.43912C36.9315 5.92965 33.0079 6.61806 29.7833 8.75864C28.4008 7.84074 26.9026 7.19782 25.3683 6.87327C24.8595 6.78896 24.5235 7.10394 24.4468 7.55302C23.8712 9.51478 21.6545 10.4707 19.8371 9.55537C19.0066 9.13441 18.8383 9.9007 18.7035 10.0308C17.8084 11.3721 16.3046 12.2705 14.5868 12.3343L14.5875 12.3364C14.5875 12.3364 13.7849 12.3168 13.5085 12.9556C10.5026 19.4035 13.0193 27.9989 19.0574 32.1852C17.6911 42.7318 24.1032 51.8391 24.504 44.2304C24.5708 42.9834 24.202 36.951 28.2079 35.7937C28.2082 35.7937 28.2092 35.793 28.2092 35.793C29.2392 35.4827 30.2543 35.4611 31.3571 35.793L31.3581 35.7937C32.5147 36.1267 33.7275 37.1565 34.3757 38.884C34.4135 38.9909 34.457 39.1258 34.457 39.1258C35.4291 42.1822 34.7359 44.0968 35.335 45.9833C36.6319 50.0623 41.7423 41.7101 40.5086 32.1852C47.8174 27.1186 49.6832 15.9257 43.9526 9.83686Z" fill="#B0DCF7"/>
<path d="M21.0319 32.302C21.094 31.1307 20.3631 30.567 20.3631 30.567L20.364 30.566C15.0414 26.3129 12.7726 18.4195 15.4667 12.2249C15.1813 12.2851 14.8876 12.3232 14.587 12.3344L14.5877 12.3365C14.5877 12.3365 13.7852 12.3169 13.5087 12.9556C10.491 19.429 13.0394 28.0127 19.0576 32.1854C17.7838 42.0175 23.2791 50.6312 24.3495 45.5235C22.7727 44.0623 20.6209 39.1245 21.0319 32.302Z" fill="#7AC1DD"/>
<path d="M43.953 9.83691C42.6142 8.43647 41.1838 7.65311 40.4962 7.43718L40.4967 7.43917C37.1013 6.0015 33.3002 6.537 30.061 8.57917C26.4066 19.4177 30.7228 31.4072 40.5952 37.4037C40.7485 35.7576 40.7433 33.9927 40.5092 32.1853C47.8177 27.1186 49.6835 15.9258 43.953 9.83691Z" fill="#BBE6FC"/>
<path d="M9.97013 2.32892V4.19679C9.97013 4.9707 9.34277 5.5978 8.56915 5.5978H5.20154C4.42791 5.5978 3.80054 4.97061 3.80054 4.19679V2.32892C3.80054 1.55511 4.42791 0.927734 5.20154 0.927734H8.56921C9.34277 0.927734 9.97013 1.55511 9.97013 2.32892Z" fill="#DBDADF"/>
<path d="M8.56937 3.41087H5.20168C4.48215 3.41087 3.88965 2.86796 3.81043 2.16943C3.79703 2.28765 3.80078 2.16155 3.80078 4.19678C3.80078 4.97068 4.42815 5.59778 5.20177 5.59778H8.56944C9.34306 5.59778 9.97049 4.97059 9.97049 4.19678C9.97049 2.16268 9.97412 2.28671 9.96082 2.16943C9.88128 2.86806 9.28896 3.41087 8.56937 3.41087Z" fill="#B8BFC1"/>
<path d="M46.9398 13.3746L46.9418 13.3789C46.3716 11.9106 45.4074 10.3554 44.1651 9.12656C43.9036 8.84548 43.4639 8.82628 43.1787 9.08507C42.8913 9.34578 42.8697 9.79026 43.1304 10.0777C43.2154 10.1714 43.5643 10.4938 44.0003 11.0481C48.5969 16.8522 46.8139 26.9323 40.0542 31.6192C39.8382 31.7688 39.724 32.0263 39.7577 32.2869C40.7624 40.0433 37.4313 46.3455 36.2836 46.3467C36.19 46.3467 36.0086 46.0184 35.8975 45.5834C35.4813 43.9754 35.991 41.3497 34.9828 38.6492C33.2114 33.5749 26.2511 33.5614 24.4786 38.6605C23.4954 41.4641 23.9687 43.999 23.5679 45.5851C23.3739 46.3249 23.1817 46.3467 23.1817 46.3467C22.0599 46.3455 18.6955 40.1016 19.7079 32.2869C19.7417 32.0265 19.6274 31.7688 19.4114 31.6192C14.4184 28.1573 11.8626 21.4437 13.288 15.6005C13.5181 14.6623 13.7485 14.1031 13.9682 13.5653C14.1099 13.2444 14.1383 13.0747 14.5313 13.0578C14.5771 13.0596 14.6223 13.0573 14.6661 13.0506C16.5916 12.9465 18.3978 11.8853 19.4111 10.1706C22.0815 11.3998 24.5251 9.82119 25.0773 7.75396C25.0935 7.6976 25.1072 7.62313 25.1381 7.58226C25.2318 7.57335 27.2125 7.94864 29.3441 9.36388C29.5796 9.52036 29.8858 9.52029 30.1214 9.36402C33.9191 6.84307 38.1697 6.77294 41.3302 8.69469C42.0827 9.15035 42.9634 8.01193 41.9242 7.41323C38.3657 5.34231 33.8018 5.41957 29.7328 7.94349C28.217 7.00359 26.5169 6.38453 25.4343 6.20041C24.543 6.05247 23.9063 6.63953 23.755 7.2584C23.3679 8.82567 21.6211 9.70153 20.0986 8.94327C19.3006 8.53506 18.5453 8.83931 18.2619 9.34976C18.2317 9.40407 18.2005 9.45748 18.1682 9.51035C18.1526 9.53572 18.1387 9.56226 18.1265 9.58935C18.0451 9.68322 16.9437 11.56 14.5159 11.6503C13.769 11.6826 13.1159 12.0212 12.8238 12.6843C12.428 13.5352 12.1319 14.4049 11.9162 15.2941C10.4252 21.384 12.9132 28.5923 18.2636 32.5259C17.4306 40.0032 20.4582 47.7492 23.1806 47.7517C25.4805 47.7517 25.0874 43.4847 25.2526 41.796C25.462 39.5655 26.2023 37.1047 28.3536 36.4784C30.9767 35.7284 32.9655 37.0116 33.7354 39.3475C34.651 42.2108 33.968 44.1807 34.6132 46.2022C35.0417 47.5501 35.8431 47.7517 36.2836 47.7517C38.987 47.7517 42.0408 40.0578 41.202 32.5259C47.2684 28.0664 49.5351 19.4354 46.9398 13.3746Z" fill="#231F20"/>
<path d="M13.3116 3.98743C13.6997 3.98743 14.0144 3.6729 14.0144 3.28468C14.0144 2.89646 13.6997 2.58193 13.3116 2.58193H10.6298V2.35094C10.6298 1.19106 9.68633 0.247559 8.52665 0.247559H5.16027C4.00058 0.247559 3.05709 1.19106 3.05709 2.35094V2.58193H1.87996C0.936549 2.58193 0.00495794 3.29209 0.00495794 4.70378C0.00495794 8.71299 -0.0366671 8.55815 0.121302 8.7974L3.1768 13.4227H2.40496C1.32993 13.4227 0.455239 14.2973 0.455239 15.3724C0.455239 15.4595 0.455239 31.11 0.455239 31.3749C0.455239 32.202 0.973865 32.9086 1.70221 33.1914V45.8026C1.70221 46.8776 2.5768 47.7523 3.65193 47.7523H5.3144C6.38942 47.7523 7.26411 46.8776 7.26411 45.8026V38.4992C7.26411 38.1109 6.94951 37.7964 6.56137 37.7964C6.17324 37.7964 5.85861 38.1109 5.85861 38.4992V45.8026C5.85861 46.1027 5.61449 46.3468 5.3143 46.3468H3.65193C3.35183 46.3468 3.10762 46.1029 3.10762 45.8026V33.3244H5.85861V36.2503C5.85861 36.6385 6.17324 36.953 6.56137 36.953C6.94951 36.953 7.26411 36.6385 7.26411 36.2503V33.1912C7.99248 32.9083 8.51109 32.2016 8.51109 31.3747V21.4468C8.51109 21.0586 8.19648 20.744 7.80837 20.744C7.42018 20.744 7.10558 21.0586 7.10558 21.4468V28.8364H1.86074V17.9106H7.10565V19.0731C7.10565 19.4614 7.42032 19.7759 7.80843 19.7759C8.19655 19.7759 8.51115 19.4614 8.51115 19.0731V15.3724C8.51115 14.2973 7.63659 13.4226 6.56146 13.4226H4.86121L1.41036 8.19884V4.70378C1.41036 4.10499 1.65477 4.00234 1.8988 3.98743H3.05718V4.21843C3.05718 5.37821 4.00068 6.32162 5.16036 6.32162H8.52686C9.68654 6.32162 10.63 5.37821 10.63 4.21843V3.98743H13.3116ZM7.10558 30.2417V31.3749C7.10558 31.675 6.86153 31.9192 6.56127 31.9192H2.40496C2.10486 31.9192 1.86064 31.6752 1.86064 31.3749V30.2417H7.10558ZM7.10558 15.3724V16.5053H1.86074V15.3724C1.86074 15.0722 2.10486 14.828 2.40505 14.828C7.52736 14.828 1.62955 14.828 6.56146 14.828C6.86146 14.8281 7.10558 15.0722 7.10558 15.3724ZM9.22443 4.21834C9.22443 4.60309 8.91141 4.91612 8.52665 4.91612H5.16027C4.77552 4.91612 4.46249 4.60309 4.46249 4.21834V2.35103C4.46249 1.96618 4.77552 1.65306 5.16027 1.65306H8.52672C8.91147 1.65306 9.2245 1.96618 9.2245 2.35103L9.22443 4.21834Z" fill="#231F20"/>
</g>
</g>
<defs>
<clipPath id="clip0_186_3445">
<rect width="48" height="48" fill="white"/>
</clipPath>
</defs>
</svg>
