<svg width="48" height="48" viewBox="0 0 48 48" fill="none" xmlns="http://www.w3.org/2000/svg">
<path d="M3.09699 39.4838H40.2583C40.8743 39.4838 41.465 39.2391 41.9006 38.8036C42.3362 38.368 42.5809 37.7772 42.5809 37.1613V13.1613H0.774414V37.1613C0.774414 37.7772 1.01911 38.368 1.45468 38.8036C1.89025 39.2391 2.48101 39.4838 3.09699 39.4838Z" fill="#E3E8F6"/>
<path d="M42.5808 37.1613V13.1613H3.87109V34.8387C3.87109 36.0706 4.36049 37.2522 5.23163 38.1233C6.10277 38.9944 7.28428 39.4838 8.51626 39.4838H40.2582C40.8742 39.4838 41.4649 39.2391 41.9005 38.8036C42.3361 38.368 42.5808 37.7772 42.5808 37.1613Z" fill="#F8F7FE"/>
<path d="M27.0967 24H31.7418V28.6452H27.0967V24Z" fill="#A1CDF9"/>
<path d="M28.6455 24V26.3226C28.6455 26.9386 28.8902 27.5293 29.3258 27.9649C29.7613 28.4005 30.3521 28.6452 30.9681 28.6452H31.7423V24H28.6455Z" fill="#C7E2FB"/>
<path d="M27.0967 16.2581H31.7418V20.9032H27.0967V16.2581Z" fill="#A1CDF9"/>
<path d="M28.6455 16.2581V18.5806C28.6455 19.1966 28.8902 19.7874 29.3258 20.2229C29.7613 20.6585 30.3521 20.9032 30.9681 20.9032H31.7423V16.2581H28.6455Z" fill="#C7E2FB"/>
<path d="M34.8389 16.2581H39.484V20.9032H34.8389V16.2581Z" fill="#A1CDF9"/>
<path d="M36.3867 16.2581V18.5806C36.3867 19.1966 36.6314 19.7874 37.067 20.2229C37.5026 20.6585 38.0933 20.9032 38.7093 20.9032H39.4835V16.2581H36.3867Z" fill="#C7E2FB"/>
<path d="M19.3545 16.2581H23.9997V20.9032H19.3545V16.2581Z" fill="#A1CDF9"/>
<path d="M20.9033 16.2581V18.5806C20.9033 19.1966 21.148 19.7874 21.5836 20.2229C22.0192 20.6585 22.6099 20.9032 23.2259 20.9032H24.0001V16.2581H20.9033Z" fill="#C7E2FB"/>
<path d="M19.3545 24H23.9997V28.6452H19.3545V24Z" fill="#A1CDF9"/>
<path d="M20.9033 24V26.3226C20.9033 26.9386 21.148 27.5293 21.5836 27.9649C22.0192 28.4005 22.6099 28.6452 23.2259 28.6452H24.0001V24H20.9033Z" fill="#C7E2FB"/>
<path d="M40.2583 3.87097H3.09699C2.48101 3.87097 1.89025 4.11567 1.45468 4.55124C1.01911 4.98681 0.774414 5.57757 0.774414 6.19355V13.1613H42.5809V6.19355C42.5809 5.57757 42.3362 4.98681 41.9006 4.55124C41.465 4.11567 40.8743 3.87097 40.2583 3.87097Z" fill="#4472B0"/>
<path d="M40.2582 3.87097H3.87109V13.1613H42.5808V6.19355C42.5808 5.57757 42.3361 4.98681 41.9005 4.55124C41.4649 4.11567 40.8742 3.87097 40.2582 3.87097Z" fill="#77A0D3"/>
<path d="M8.51572 2.32256C8.51572 1.46741 7.82248 0.77417 6.96733 0.77417C6.11218 0.77417 5.41895 1.46741 5.41895 2.32256V6.96772C5.41895 7.82287 6.11218 8.51611 6.96733 8.51611C7.82248 8.51611 8.51572 7.82287 8.51572 6.96772V2.32256Z" fill="#C7E2FB"/>
<path d="M8.51616 2.32258C8.5154 2.05188 8.44347 1.78613 8.30759 1.552C8.1717 1.31787 7.97664 1.12359 7.74197 0.988647C7.50729 1.12359 7.31223 1.31787 7.17635 1.552C7.04046 1.78613 6.96853 2.05188 6.96777 2.32258V6.96774C6.96853 7.23845 7.04046 7.50419 7.17635 7.73832C7.31223 7.97245 7.50729 8.16674 7.74197 8.30168C7.97664 8.16674 8.1717 7.97245 8.30759 7.73832C8.44347 7.50419 8.5154 7.23845 8.51616 6.96774V2.32258Z" fill="#EBF7FE"/>
<path d="M16.2579 2.32256C16.2579 1.46741 15.5647 0.77417 14.7095 0.77417C13.8544 0.77417 13.1611 1.46741 13.1611 2.32256V6.96772C13.1611 7.82287 13.8544 8.51611 14.7095 8.51611C15.5647 8.51611 16.2579 7.82287 16.2579 6.96772V2.32256Z" fill="#C7E2FB"/>
<path d="M16.2583 2.32258C16.2576 2.05188 16.1857 1.78613 16.0498 1.552C15.9139 1.31787 15.7188 1.12359 15.4842 0.988647C15.2495 1.12359 15.0544 1.31787 14.9185 1.552C14.7826 1.78613 14.7107 2.05188 14.71 2.32258V6.96774C14.7107 7.23845 14.7826 7.50419 14.9185 7.73832C15.0544 7.97245 15.2495 8.16674 15.4842 8.30168C15.7188 8.16674 15.9139 7.97245 16.0498 7.73832C16.1857 7.50419 16.2576 7.23845 16.2583 6.96774V2.32258Z" fill="#EBF7FE"/>
<path d="M30.1935 2.32256C30.1935 1.46741 29.5002 0.77417 28.6451 0.77417C27.7899 0.77417 27.0967 1.46741 27.0967 2.32256V6.96772C27.0967 7.82287 27.7899 8.51611 28.6451 8.51611C29.5002 8.51611 30.1935 7.82287 30.1935 6.96772V2.32256Z" fill="#C7E2FB"/>
<path d="M30.1939 2.32258C30.1931 2.05188 30.1212 1.78613 29.9853 1.552C29.8494 1.31787 29.6544 1.12359 29.4197 0.988647C29.185 1.12359 28.99 1.31787 28.8541 1.552C28.7182 1.78613 28.6463 2.05188 28.6455 2.32258V6.96774C28.6463 7.23845 28.7182 7.50419 28.8541 7.73832C28.99 7.97245 29.185 8.16674 29.4197 8.30168C29.6544 8.16674 29.8494 7.97245 29.9853 7.73832C30.1212 7.50419 30.1931 7.23845 30.1939 6.96774V2.32258Z" fill="#EBF7FE"/>
<path d="M37.9356 2.32256C37.9356 1.46741 37.2424 0.77417 36.3873 0.77417C35.5321 0.77417 34.8389 1.46741 34.8389 2.32256V6.96772C34.8389 7.82287 35.5321 8.51611 36.3873 8.51611C37.2424 8.51611 37.9356 7.82287 37.9356 6.96772V2.32256Z" fill="#C7E2FB"/>
<path d="M37.9351 2.32258C37.9343 2.05188 37.8624 1.78613 37.7265 1.552C37.5906 1.31787 37.3956 1.12359 37.1609 0.988647C36.9262 1.12359 36.7312 1.31787 36.5953 1.552C36.4594 1.78613 36.3875 2.05188 36.3867 2.32258V6.96774C36.3875 7.23845 36.4594 7.50419 36.5953 7.73832C36.7312 7.97245 36.9262 8.16674 37.1609 8.30168C37.3956 8.16674 37.5906 7.97245 37.7265 7.73832C37.8624 7.50419 37.9343 7.23845 37.9351 6.96774V2.32258Z" fill="#EBF7FE"/>
<path d="M3.87109 31.7419H8.51625V36.3871H3.87109V31.7419Z" fill="#A1CDF9"/>
<path d="M5.41895 31.7419V34.0645C5.41895 34.6805 5.66364 35.2713 6.09921 35.7068C6.53478 36.1424 7.12554 36.3871 7.74153 36.3871H8.51572V31.7419H5.41895Z" fill="#C7E2FB"/>
<path d="M11.6133 31.7419H16.2584V36.3871H11.6133V31.7419Z" fill="#A1CDF9"/>
<path d="M13.1611 31.7419V34.0645C13.1611 34.6805 13.4058 35.2713 13.8414 35.7068C14.277 36.1424 14.8677 36.3871 15.4837 36.3871H16.2579V31.7419H13.1611Z" fill="#C7E2FB"/>
<path d="M19.3545 31.7419H23.9997V36.3871H19.3545V31.7419Z" fill="#A1CDF9"/>
<path d="M20.9033 31.7419V34.0645C20.9033 34.6805 21.148 35.2713 21.5836 35.7068C22.0192 36.1424 22.6099 36.3871 23.2259 36.3871H24.0001V31.7419H20.9033Z" fill="#C7E2FB"/>
<path d="M27.0967 31.7419H31.7418V36.3871H27.0967V31.7419Z" fill="#A1CDF9"/>
<path d="M28.6455 31.7419V34.0645C28.6455 34.6805 28.8902 35.2713 29.3258 35.7068C29.7613 36.1424 30.3521 36.3871 30.9681 36.3871H31.7423V31.7419H28.6455Z" fill="#C7E2FB"/>
<path d="M45.1087 39.552L40.2584 37.9355V35.7607C39.5531 36.171 38.7517 36.3871 37.9358 36.3871C37.1199 36.3871 36.3185 36.171 35.6132 35.7607V37.9355L30.7629 39.552C30.1463 39.7575 29.61 40.1519 29.23 40.6792C28.8499 41.2065 28.6455 41.84 28.6455 42.49V47.2258H47.2262V42.49C47.2262 41.84 47.0217 41.2065 46.6417 40.6792C46.2617 40.1519 45.7254 39.7575 45.1087 39.552Z" fill="#FBE3BC"/>
<path d="M45.1087 39.5519L40.2584 37.9354L37.9358 40.258L35.6132 37.9354L30.7629 39.5519C30.1463 39.7575 29.61 40.1519 29.23 40.6792C28.8499 41.2065 28.6455 41.84 28.6455 42.49V47.2257H47.2262V42.49C47.2262 41.84 47.0217 41.2065 46.6417 40.6792C46.2617 40.1519 45.7254 39.7575 45.1087 39.5519Z" fill="#A1CDF9"/>
<path d="M45.1082 39.5519L40.2579 37.9354L37.9353 40.258L35.9998 38.3225L32.3108 39.5519C31.6942 39.7575 31.1578 40.1519 30.7778 40.6792C30.3978 41.2065 30.1933 41.84 30.1934 42.49V47.2257H47.2256V42.49C47.2257 41.84 47.0212 41.2065 46.6412 40.6792C46.2611 40.1519 45.7248 39.7575 45.1082 39.5519Z" fill="#C7E2FB"/>
<path d="M41.8062 27.8709C41.1902 27.8709 40.5994 27.6262 40.1639 27.1907C39.7283 26.7551 39.4836 26.1643 39.4836 25.5483C39.4836 26.1643 39.2389 26.7551 38.8033 27.1907C38.3677 27.6262 37.777 27.8709 37.161 27.8709H33.29V31.7419C33.29 32.9739 33.7794 34.1554 34.6506 35.0265C35.5217 35.8977 36.7032 36.387 37.9352 36.387C39.1672 36.387 40.3487 35.8977 41.2198 35.0265C42.091 34.1554 42.5804 32.9739 42.5804 31.7419V27.8709H41.8062Z" fill="#F5CD90"/>
<path d="M33.2901 31.7419V29.4193H31.7417C31.3311 29.4193 30.9372 29.5824 30.6469 29.8728C30.3565 30.1632 30.1934 30.557 30.1934 30.9677C30.1934 31.3784 30.3565 31.7722 30.6469 32.0626C30.9372 32.353 31.3311 32.5161 31.7417 32.5161H33.3598C33.315 32.2604 33.2917 32.0015 33.2901 31.7419Z" fill="#FBE3BC"/>
<path d="M38.7098 36.3174C39.7914 36.1346 40.7734 35.5749 41.4819 34.7374C42.1904 33.9 42.5797 32.8388 42.5808 31.7419V27.8709H41.8066C41.1906 27.8709 40.5999 27.6262 40.1643 27.1907C39.7287 26.7551 39.484 26.1643 39.484 25.5483C39.484 26.1643 39.2393 26.7551 38.8038 27.1907C38.3682 27.6262 37.7774 27.8709 37.1614 27.8709H34.8389V31.7419C34.84 32.8388 35.2293 33.9 35.9377 34.7374C36.6462 35.5749 37.6282 36.1346 38.7098 36.3174Z" fill="#FBE3BC"/>
<path d="M44.1286 29.4193H42.5802V31.7419C42.5785 32.0015 42.5549 32.2604 42.5098 32.5161H44.1286C44.5393 32.5161 44.9331 32.353 45.2235 32.0626C45.5139 31.7722 45.677 31.3784 45.677 30.9677C45.677 30.557 45.5139 30.1632 45.2235 29.8728C44.9331 29.5824 44.5393 29.4193 44.1286 29.4193Z" fill="#FBE3BC"/>
<path d="M42.5807 29.4193H44.1291C44.4016 29.421 44.6687 29.495 44.9033 29.6338V27.8709C44.9033 26.023 44.1692 24.2507 42.8625 22.944C41.5557 21.6373 39.7835 20.9032 37.9355 20.9032C36.0876 20.9032 34.3153 21.6373 33.0086 22.944C31.7019 24.2507 30.9678 26.023 30.9678 27.8709V29.6338C31.2023 29.495 31.4695 29.421 31.742 29.4193H33.2904V27.8709H37.1613C37.7773 27.8709 38.3681 27.6262 38.8036 27.1907C39.2392 26.7551 39.4839 26.1643 39.4839 25.5484C39.4839 26.1643 39.7286 26.7551 40.1642 27.1907C40.5997 27.6262 41.1905 27.8709 41.8065 27.8709H42.5807V29.4193Z" fill="#88929F"/>
<path d="M41.8062 44.9032C42.6614 44.9032 43.3546 44.2099 43.3546 43.3548C43.3546 42.4996 42.6614 41.8064 41.8062 41.8064C40.951 41.8064 40.2578 42.4996 40.2578 43.3548C40.2578 44.2099 40.951 44.9032 41.8062 44.9032Z" fill="white"/>
<path d="M11.6133 16.2581H16.2584V20.9032H11.6133V16.2581Z" fill="#A1CDF9"/>
<path d="M13.1611 16.2581V18.5806C13.1611 19.1966 13.4058 19.7874 13.8414 20.2229C14.277 20.6585 14.8677 20.9032 15.4837 20.9032H16.2579V16.2581H13.1611Z" fill="#C7E2FB"/>
<path d="M3.87109 16.2581H8.51625V20.9032H3.87109V16.2581Z" fill="#A1CDF9"/>
<path d="M5.41895 16.2581V18.5806C5.41895 19.1966 5.66364 19.7874 6.09921 20.2229C6.53478 20.6585 7.12554 20.9032 7.74153 20.9032H8.51572V16.2581H5.41895Z" fill="#C7E2FB"/>
<path d="M3.87109 24H8.51625V28.6452H3.87109V24Z" fill="#A1CDF9"/>
<path d="M5.41895 24V26.3226C5.41895 26.9386 5.66364 27.5293 6.09921 27.9649C6.53478 28.4005 7.12554 28.6452 7.74153 28.6452H8.51572V24H5.41895Z" fill="#C7E2FB"/>
<path d="M8.51603 15.4839H3.87087C3.66554 15.4839 3.46863 15.5655 3.32344 15.7106C3.17825 15.8558 3.09668 16.0528 3.09668 16.2581V20.9032C3.09668 21.1086 3.17825 21.3055 3.32344 21.4507C3.46863 21.5959 3.66554 21.6774 3.87087 21.6774H8.51603C8.72136 21.6774 8.91828 21.5959 9.06347 21.4507C9.20866 21.3055 9.29023 21.1086 9.29023 20.9032V16.2581C9.29023 16.0528 9.20866 15.8558 9.06347 15.7106C8.91828 15.5655 8.72136 15.4839 8.51603 15.4839ZM7.74184 20.129H4.64507V17.0323H7.74184V20.129Z" fill="black"/>
<path d="M16.2582 15.4839H11.6131C11.4077 15.4839 11.2108 15.5655 11.0656 15.7106C10.9204 15.8558 10.8389 16.0528 10.8389 16.2581V20.9032C10.8389 21.1086 10.9204 21.3055 11.0656 21.4507C11.2108 21.5959 11.4077 21.6774 11.6131 21.6774H16.2582C16.4636 21.6774 16.6605 21.5959 16.8057 21.4507C16.9508 21.3055 17.0324 21.1086 17.0324 20.9032V16.2581C17.0324 16.0528 16.9508 15.8558 16.8057 15.7106C16.6605 15.5655 16.4636 15.4839 16.2582 15.4839ZM15.484 20.129H12.3873V17.0323H15.484V20.129Z" fill="black"/>
<path d="M24.0004 15.4839H19.3552C19.1499 15.4839 18.953 15.5655 18.8078 15.7106C18.6626 15.8558 18.5811 16.0528 18.5811 16.2581V20.9032C18.5811 21.1086 18.6626 21.3055 18.8078 21.4507C18.953 21.5959 19.1499 21.6774 19.3552 21.6774H24.0004C24.2057 21.6774 24.4027 21.5959 24.5478 21.4507C24.693 21.3055 24.7746 21.1086 24.7746 20.9032V16.2581C24.7746 16.0528 24.693 15.8558 24.5478 15.7106C24.4027 15.5655 24.2057 15.4839 24.0004 15.4839ZM23.2262 20.129H20.1294V17.0323H23.2262V20.129Z" fill="black"/>
<path d="M27.0965 21.6774H31.7416C31.9469 21.6774 32.1439 21.5959 32.2891 21.4507C32.4342 21.3055 32.5158 21.1086 32.5158 20.9032V16.2581C32.5158 16.0528 32.4342 15.8558 32.2891 15.7106C32.1439 15.5655 31.9469 15.4839 31.7416 15.4839H27.0965C26.8911 15.4839 26.6942 15.5655 26.549 15.7106C26.4038 15.8558 26.3223 16.0528 26.3223 16.2581V20.9032C26.3223 21.1086 26.4038 21.3055 26.549 21.4507C26.6942 21.5959 26.8911 21.6774 27.0965 21.6774ZM27.8707 17.0323H30.9674V20.129H27.8707V17.0323Z" fill="black"/>
<path d="M8.51603 23.2258H3.87087C3.66554 23.2258 3.46863 23.3074 3.32344 23.4526C3.17825 23.5978 3.09668 23.7947 3.09668 24V28.6452C3.09668 28.8505 3.17825 29.0474 3.32344 29.1926C3.46863 29.3378 3.66554 29.4194 3.87087 29.4194H8.51603C8.72136 29.4194 8.91828 29.3378 9.06347 29.1926C9.20866 29.0474 9.29023 28.8505 9.29023 28.6452V24C9.29023 23.7947 9.20866 23.5978 9.06347 23.4526C8.91828 23.3074 8.72136 23.2258 8.51603 23.2258ZM7.74184 27.871H4.64507V24.7742H7.74184V27.871Z" fill="black"/>
<path d="M24.0004 23.2258H19.3552C19.1499 23.2258 18.953 23.3074 18.8078 23.4526C18.6626 23.5978 18.5811 23.7947 18.5811 24V28.6452C18.5811 28.8505 18.6626 29.0474 18.8078 29.1926C18.953 29.3378 19.1499 29.4194 19.3552 29.4194H24.0004C24.2057 29.4194 24.4027 29.3378 24.5478 29.1926C24.693 29.0474 24.7746 28.8505 24.7746 28.6452V24C24.7746 23.7947 24.693 23.5978 24.5478 23.4526C24.4027 23.3074 24.2057 23.2258 24.0004 23.2258ZM23.2262 27.871H20.1294V24.7742H23.2262V27.871Z" fill="black"/>
<path d="M8.51603 30.9678H3.87087C3.66554 30.9678 3.46863 31.0493 3.32344 31.1945C3.17825 31.3397 3.09668 31.5366 3.09668 31.742V36.3871C3.09668 36.5925 3.17825 36.7894 3.32344 36.9346C3.46863 37.0798 3.66554 37.1613 3.87087 37.1613H8.51603C8.72136 37.1613 8.91828 37.0798 9.06347 36.9346C9.20866 36.7894 9.29023 36.5925 9.29023 36.3871V31.742C9.29023 31.5366 9.20866 31.3397 9.06347 31.1945C8.91828 31.0493 8.72136 30.9678 8.51603 30.9678ZM7.74184 35.6129H4.64507V32.5162H7.74184V35.6129Z" fill="black"/>
<path d="M16.2582 30.9678H11.6131C11.4077 30.9678 11.2108 31.0493 11.0656 31.1945C10.9204 31.3397 10.8389 31.5366 10.8389 31.742V36.3871C10.8389 36.5925 10.9204 36.7894 11.0656 36.9346C11.2108 37.0798 11.4077 37.1613 11.6131 37.1613H16.2582C16.4636 37.1613 16.6605 37.0798 16.8057 36.9346C16.9508 36.7894 17.0324 36.5925 17.0324 36.3871V31.742C17.0324 31.5366 16.9508 31.3397 16.8057 31.1945C16.6605 31.0493 16.4636 30.9678 16.2582 30.9678ZM15.484 35.6129H12.3873V32.5162H15.484V35.6129Z" fill="black"/>
<path d="M24.0004 30.9678H19.3552C19.1499 30.9678 18.953 31.0493 18.8078 31.1945C18.6626 31.3397 18.5811 31.5366 18.5811 31.742V36.3871C18.5811 36.5925 18.6626 36.7894 18.8078 36.9346C18.953 37.0798 19.1499 37.1613 19.3552 37.1613H24.0004C24.2057 37.1613 24.4027 37.0798 24.5478 36.9346C24.693 36.7894 24.7746 36.5925 24.7746 36.3871V31.742C24.7746 31.5366 24.693 31.3397 24.5478 31.1945C24.4027 31.0493 24.2057 30.9678 24.0004 30.9678ZM23.2262 35.6129H20.1294V32.5162H23.2262V35.6129Z" fill="black"/>
<path d="M14.7098 23.2258H13.1614V25.5484H10.8389V27.0968H13.1614V29.4194H14.7098V27.0968H17.0324V25.5484H14.7098V23.2258Z" fill="black"/>
<path d="M45.353 38.8181L41.0323 37.3773V36.1827C42.0364 35.4822 42.7743 34.4629 43.1265 33.2903H44.129C44.5987 33.292 45.0578 33.1508 45.4453 32.8853C45.8328 32.6199 46.1303 32.2428 46.2983 31.8042C46.4664 31.3656 46.497 30.8863 46.3861 30.4299C46.2752 29.9734 46.028 29.5616 45.6774 29.249V27.871C45.6777 26.8426 45.4724 25.8246 45.0735 24.8768C44.6747 23.929 44.0903 23.0705 43.3548 22.3517V6.19355C43.3548 5.37223 43.0286 4.58456 42.4478 4.0038C41.8671 3.42304 41.0794 3.09677 40.2581 3.09677H38.7097V2.32258C38.7097 1.70659 38.465 1.11584 38.0294 0.680268C37.5938 0.2447 37.0031 0 36.3871 0C35.7711 0 35.1804 0.2447 34.7448 0.680268C34.3092 1.11584 34.0645 1.70659 34.0645 2.32258V3.09677H30.9677V2.32258C30.9677 1.70659 30.723 1.11584 30.2875 0.680268C29.8519 0.2447 29.2611 0 28.6452 0C28.0292 0 27.4384 0.2447 27.0029 0.680268C26.5673 1.11584 26.3226 1.70659 26.3226 2.32258V3.09677H17.0323V2.32258C17.0323 1.70659 16.7876 1.11584 16.352 0.680268C15.9164 0.2447 15.3257 0 14.7097 0C14.0937 0 13.5029 0.2447 13.0674 0.680268C12.6318 1.11584 12.3871 1.70659 12.3871 2.32258V3.09677H9.29032V2.32258C9.29032 1.70659 9.04562 1.11584 8.61005 0.680268C8.17449 0.2447 7.58373 0 6.96774 0C6.35176 0 5.761 0.2447 5.32543 0.680268C4.88986 1.11584 4.64516 1.70659 4.64516 2.32258V3.09677H3.09677C2.27546 3.09677 1.48778 3.42304 0.907024 4.0038C0.326266 4.58456 0 5.37223 0 6.19355V37.1613C0 37.9826 0.326266 38.7703 0.907024 39.351C1.48778 39.9318 2.27546 40.2581 3.09677 40.2581H28.5809C28.1192 40.9108 27.8711 41.6906 27.871 42.4901V47.2258C27.871 47.4311 27.9525 47.6281 28.0977 47.7732C28.2429 47.9184 28.4398 48 28.6452 48H47.2258C47.4311 48 47.6281 47.9184 47.7732 47.7732C47.9184 47.6281 48 47.4311 48 47.2258V42.4901C48.0007 41.6775 47.7454 40.8853 47.2702 40.2261C46.795 39.5669 46.1242 39.0742 45.353 38.8181ZM42.5806 43.3548C42.5806 43.508 42.5352 43.6576 42.4502 43.785C42.3651 43.9123 42.2442 44.0115 42.1027 44.0701C41.9613 44.1287 41.8056 44.144 41.6554 44.1142C41.5052 44.0843 41.3673 44.0105 41.259 43.9023C41.1507 43.794 41.077 43.6561 41.0471 43.5059C41.0173 43.3557 41.0326 43.2 41.0912 43.0586C41.1498 42.9171 41.249 42.7962 41.3763 42.7111C41.5037 42.626 41.6533 42.5806 41.8065 42.5806C42.0118 42.5806 42.2087 42.6622 42.3539 42.8074C42.4991 42.9526 42.5806 43.1495 42.5806 43.3548ZM39.4839 37.615L37.9355 39.1634L36.3871 37.615V36.9329C37.3969 37.2374 38.4741 37.2374 39.4839 36.9329V37.615ZM41.8065 31.7419C41.8065 32.7686 41.3986 33.7532 40.6727 34.4791C39.9467 35.2051 38.9621 35.6129 37.9355 35.6129C36.9088 35.6129 35.9242 35.2051 35.1983 34.4791C34.4724 33.7532 34.0645 32.7686 34.0645 31.7419V28.6452H37.1613C37.6009 28.6454 38.0355 28.5518 38.436 28.3706C38.8365 28.1894 39.1938 27.9249 39.4839 27.5946C39.774 27.9249 40.1312 28.1894 40.5317 28.3706C40.9323 28.5518 41.3669 28.6454 41.8065 28.6452V31.7419ZM44.129 31.7419H43.3548V30.1935H44.129C44.3344 30.1935 44.5313 30.2751 44.6765 30.4203C44.8217 30.5655 44.9032 30.7624 44.9032 30.9677C44.9032 31.1731 44.8217 31.37 44.6765 31.5152C44.5313 31.6604 44.3344 31.7419 44.129 31.7419ZM44.129 27.871V28.6452H43.3548V27.871C43.3548 27.6656 43.2733 27.4687 43.1281 27.3235C42.9829 27.1783 42.786 27.0968 42.5806 27.0968H41.8065C41.3958 27.0968 41.002 26.9336 40.7116 26.6433C40.4212 26.3529 40.2581 25.959 40.2581 25.5484C40.2581 25.3431 40.1765 25.1461 40.0313 25.0009C39.8861 24.8558 39.6892 24.7742 39.4839 24.7742C39.2785 24.7742 39.0816 24.8558 38.9364 25.0009C38.7912 25.1461 38.7097 25.3431 38.7097 25.5484C38.7097 25.959 38.5465 26.3529 38.2562 26.6433C37.9658 26.9336 37.5719 27.0968 37.1613 27.0968H33.2903C33.085 27.0968 32.8881 27.1783 32.7429 27.3235C32.5977 27.4687 32.5161 27.6656 32.5161 27.871V28.6452H31.7419V27.871C31.7419 26.2283 32.3945 24.653 33.556 23.4915C34.7175 22.33 36.2929 21.6774 37.9355 21.6774C39.5781 21.6774 41.1535 22.33 42.315 23.4915C43.4765 24.653 44.129 26.2283 44.129 27.871ZM32.5161 31.7419H31.7419C31.5366 31.7419 31.3397 31.6604 31.1945 31.5152C31.0493 31.37 30.9677 31.1731 30.9677 30.9677C30.9677 30.7624 31.0493 30.5655 31.1945 30.4203C31.3397 30.2751 31.5366 30.1935 31.7419 30.1935H32.5161V31.7419ZM30.1936 27.871H27.871V24.7742H30.8446C30.4152 25.7501 30.1935 26.8047 30.1936 27.871ZM30.9677 33.1479V35.6129H27.871V32.5161H30.0232C30.2809 32.8017 30.6055 33.0187 30.9677 33.1479ZM38.7097 20.1685C37.6666 20.0625 36.6128 20.1705 35.6129 20.4859V17.0323H38.7097V20.1685ZM35.6129 2.32258C35.6129 2.11725 35.6945 1.92033 35.8397 1.77514C35.9848 1.62995 36.1818 1.54839 36.3871 1.54839C36.5924 1.54839 36.7893 1.62995 36.9345 1.77514C37.0797 1.92033 37.1613 2.11725 37.1613 2.32258V6.96774C37.1613 7.17307 37.0797 7.36999 36.9345 7.51518C36.7893 7.66037 36.5924 7.74194 36.3871 7.74194C36.1818 7.74194 35.9848 7.66037 35.8397 7.51518C35.6945 7.36999 35.6129 7.17307 35.6129 6.96774V2.32258ZM27.871 2.32258C27.871 2.11725 27.9525 1.92033 28.0977 1.77514C28.2429 1.62995 28.4398 1.54839 28.6452 1.54839C28.8505 1.54839 29.0474 1.62995 29.1926 1.77514C29.3378 1.92033 29.4194 2.11725 29.4194 2.32258V6.96774C29.4194 7.17307 29.3378 7.36999 29.1926 7.51518C29.0474 7.66037 28.8505 7.74194 28.6452 7.74194C28.4398 7.74194 28.2429 7.66037 28.0977 7.51518C27.9525 7.36999 27.871 7.17307 27.871 6.96774V2.32258ZM13.9355 2.32258C13.9355 2.11725 14.0171 1.92033 14.1622 1.77514C14.3074 1.62995 14.5043 1.54839 14.7097 1.54839C14.915 1.54839 15.1119 1.62995 15.2571 1.77514C15.4023 1.92033 15.4839 2.11725 15.4839 2.32258V6.96774C15.4839 7.17307 15.4023 7.36999 15.2571 7.51518C15.1119 7.66037 14.915 7.74194 14.7097 7.74194C14.5043 7.74194 14.3074 7.66037 14.1622 7.51518C14.0171 7.36999 13.9355 7.17307 13.9355 6.96774V2.32258ZM6.19355 2.32258C6.19355 2.11725 6.27512 1.92033 6.4203 1.77514C6.56549 1.62995 6.76241 1.54839 6.96774 1.54839C7.17307 1.54839 7.36999 1.62995 7.51518 1.77514C7.66037 1.92033 7.74194 2.11725 7.74194 2.32258V6.96774C7.74194 7.17307 7.66037 7.36999 7.51518 7.51518C7.36999 7.66037 7.17307 7.74194 6.96774 7.74194C6.76241 7.74194 6.56549 7.66037 6.4203 7.51518C6.27512 7.36999 6.19355 7.17307 6.19355 6.96774V2.32258ZM3.09677 4.64516H4.64516V6.96774C4.64516 7.58373 4.88986 8.17449 5.32543 8.61005C5.761 9.04562 6.35176 9.29032 6.96774 9.29032C7.58373 9.29032 8.17449 9.04562 8.61005 8.61005C9.04562 8.17449 9.29032 7.58373 9.29032 6.96774V4.64516H12.3871V6.96774C12.3871 7.58373 12.6318 8.17449 13.0674 8.61005C13.5029 9.04562 14.0937 9.29032 14.7097 9.29032C15.3257 9.29032 15.9164 9.04562 16.352 8.61005C16.7876 8.17449 17.0323 7.58373 17.0323 6.96774V4.64516H26.3226V6.96774C26.3226 7.58373 26.5673 8.17449 27.0029 8.61005C27.4384 9.04562 28.0292 9.29032 28.6452 9.29032C29.2611 9.29032 29.8519 9.04562 30.2875 8.61005C30.723 8.17449 30.9677 7.58373 30.9677 6.96774V4.64516H34.0645V6.96774C34.0645 7.58373 34.3092 8.17449 34.7448 8.61005C35.1804 9.04562 35.7711 9.29032 36.3871 9.29032C37.0031 9.29032 37.5938 9.04562 38.0294 8.61005C38.465 8.17449 38.7097 7.58373 38.7097 6.96774V4.64516H40.2581C40.6687 4.64516 41.0626 4.80829 41.3529 5.09867C41.6433 5.38905 41.8065 5.78289 41.8065 6.19355V12.3871H1.54839V6.19355C1.54839 5.78289 1.71152 5.38905 2.0019 5.09867C2.29228 4.80829 2.68612 4.64516 3.09677 4.64516ZM1.54839 37.1613V13.9355H41.8065V21.1765C41.3175 20.8898 40.7981 20.6582 40.2581 20.4859V16.2581C40.2581 16.0527 40.1765 15.8558 40.0313 15.7106C39.8861 15.5654 39.6892 15.4839 39.4839 15.4839H34.8387C34.6334 15.4839 34.4365 15.5654 34.2913 15.7106C34.1461 15.8558 34.0645 16.0527 34.0645 16.2581V21.1765C33.1658 21.6988 32.3806 22.3956 31.7551 23.2258H31.7419H27.0968C26.8914 23.2258 26.6945 23.3074 26.5493 23.4526C26.4041 23.5977 26.3226 23.7947 26.3226 24V28.6452C26.3226 28.8505 26.4041 29.0474 26.5493 29.1926C26.6945 29.3378 26.8914 29.4194 27.0968 29.4194H30.0232C29.6366 29.8426 29.4214 30.3945 29.4194 30.9677H27.0968C26.8914 30.9677 26.6945 31.0493 26.5493 31.1945C26.4041 31.3397 26.3226 31.5366 26.3226 31.7419V36.3871C26.3226 36.5924 26.4041 36.7893 26.5493 36.9345C26.6945 37.0797 26.8914 37.1613 27.0968 37.1613H31.7419C31.9473 37.1613 32.1442 37.0797 32.2894 36.9345C32.4346 36.7893 32.5161 36.5924 32.5161 36.3871V33.2903H32.7484C33.0995 34.4624 33.8361 35.4815 34.8387 36.1827V37.3773L30.8423 38.7097H3.09677C2.68612 38.7097 2.29228 38.5465 2.0019 38.2562C1.71152 37.9658 1.54839 37.5719 1.54839 37.1613ZM46.4516 46.4516H29.4194V42.4901C29.4194 42.0025 29.5729 41.5274 29.858 41.1319C30.1431 40.7365 30.5455 40.4408 31.008 40.2867L33.2903 39.5257V41.1747C32.839 41.3343 32.4481 41.6293 32.1709 42.0196C31.8937 42.4098 31.7439 42.8762 31.7419 43.3548V44.9032H33.2903V43.3548C33.2903 43.1495 33.3719 42.9526 33.5171 42.8074C33.6623 42.6622 33.8592 42.5806 34.0645 42.5806C34.2698 42.5806 34.4668 42.6622 34.612 42.8074C34.7571 42.9526 34.8387 43.1495 34.8387 43.3548V44.9032H36.3871V43.3548C36.3851 42.8762 36.2353 42.4098 35.9581 42.0196C35.681 41.6293 35.29 41.3343 34.8387 41.1747V39.007L35.4039 38.8181L37.3881 40.8023C37.5333 40.9475 37.7302 41.029 37.9355 41.029C38.1408 41.029 38.3377 40.9475 38.4828 40.8023L40.4671 38.8181L41.0323 39.007V41.1747C40.5157 41.3573 40.0803 41.7167 39.8031 42.1893C39.5259 42.6618 39.4247 43.2172 39.5173 43.7572C39.61 44.2972 39.8905 44.7871 40.3094 45.1402C40.7283 45.4934 41.2586 45.687 41.8065 45.687C42.3543 45.687 42.8846 45.4934 43.3035 45.1402C43.7224 44.7871 44.0029 44.2972 44.0956 43.7572C44.1882 43.2172 44.087 42.6618 43.8098 42.1893C43.5326 41.7167 43.0972 41.3573 42.5806 41.1747V39.5257L44.863 40.2867C45.3255 40.4408 45.7279 40.7365 46.013 41.1319C46.2981 41.5274 46.4516 42.0025 46.4516 42.4901V46.4516Z" fill="black"/>
</svg>
