<svg width="50" height="49" viewBox="0 0 50 49" fill="none" xmlns="http://www.w3.org/2000/svg">
<path fill-rule="evenodd" clip-rule="evenodd" d="M48.9038 43.151V37.452C48.9038 37.1964 48.6922 36.9875 48.4367 36.9875H43.8287C44.0842 36.9875 44.2958 37.1963 44.2958 37.452V43.151C44.2958 43.4093 44.0842 43.6181 43.8287 43.6181H45.8978H48.4367C48.6922 43.6181 48.9038 43.4092 48.9038 43.151Z" fill="#22F1DC"/>
<path fill-rule="evenodd" clip-rule="evenodd" d="M25.7785 33.2726V22.905L22.0992 22.5464L19.0079 25.804C19.0079 25.804 14.3666 27.7648 14.6029 27.8747C14.7732 27.9517 14.6029 33.2727 14.6029 33.2727H25.7785V33.2726Z" fill="#EDF4FF"/>
<path fill-rule="evenodd" clip-rule="evenodd" d="M27.6003 21.0225C28.3065 19.797 28.2186 19.3134 28.3065 17.6454V15.862C28.3065 14.1528 26.9079 12.7542 25.1987 12.7542H17.079C15.7793 12.7542 14.9908 13.3889 14.3505 14.4276L9.57208 22.1876C9.7424 22.2178 14.6864 26.6333 15.1865 26.7294C16.4504 26.9713 23.6297 23.938 23.6297 23.938L24.1298 23.7374C25.3608 23.24 26.394 22.6327 27.1524 21.682C27.3145 21.4786 27.4629 21.2589 27.6003 21.0225Z" fill="#EDF4FF"/>
<path fill-rule="evenodd" clip-rule="evenodd" d="M22.3658 29.214C22.1295 29.1041 21.8931 28.7221 21.3079 28.0049C20.7171 27.285 19.7417 26.3699 19.0081 25.8039C17.7069 24.7199 17.7069 24.7199 16.8126 23.9436C15.7959 23.2099 14.5512 22.8033 13.2871 22.5614C12.787 22.4652 12.2869 22.3965 11.7923 22.3416L9.57208 23.9381L10.7262 26.271C11.5285 26.4331 12.1578 26.6722 12.5507 26.8536C16.175 28.5298 17.6918 31.143 17.755 32.0663C17.8099 32.8439 16.8839 33.0446 13.8091 33.0446H8.50327L7.12476 35.1328L8.50327 36.9876H21.6954L25.7786 33.2725L22.3658 29.214Z" fill="#7E707D"/>
<path fill-rule="evenodd" clip-rule="evenodd" d="M39.2207 36.9875H28.8012H21.6954H8.5033H4.23049H1.19147C0.935946 36.9875 0.727051 37.1963 0.727051 37.452V43.151C0.727051 43.4093 0.93585 43.6181 1.19147 43.6181H3.7304H45.8978H48.4368C48.6923 43.6181 48.9039 43.4093 48.9039 43.151V37.452C48.9039 37.1964 48.6923 36.9875 48.4368 36.9875H39.2207Z" fill="#22F1DC"/>
<path fill-rule="evenodd" clip-rule="evenodd" d="M45.8979 43.6184H3.73041V45.6958C3.73041 46.8389 4.66467 47.7733 5.80773 47.7733H43.8205C44.9636 47.7733 45.8979 46.839 45.8979 45.6958V43.6184Z" fill="#F9F7F8"/>
<path fill-rule="evenodd" clip-rule="evenodd" d="M23.6297 23.9379L22.0992 20.9126L17.799 22.7784C17.2797 22.9845 16.9252 23.4324 16.8125 23.9435C16.7466 24.2512 16.7658 24.5837 16.8922 24.897C17.2247 25.7296 18.1782 26.1363 19.008 25.8039L23.6297 23.9379Z" fill="#FFEEE6"/>
<path fill-rule="evenodd" clip-rule="evenodd" d="M24.1299 23.7374C25.3609 23.2401 26.3941 22.6328 27.1524 21.682C27.3145 21.4786 27.4629 21.2589 27.6003 21.0226C28.3064 19.797 28.2185 19.3134 28.3064 17.6454V15.862C28.3064 14.2957 27.1331 12.9932 25.6218 12.7844C26.1742 13.345 26.5149 14.1144 26.5149 14.958V16.7413C26.4297 18.4093 26.5176 18.8956 25.8114 20.1212C25.6741 20.3575 25.5229 20.5773 25.3608 20.7806C24.7316 21.5693 23.9099 22.1243 22.94 22.575L23.6297 23.9379L24.1299 23.7374Z" fill="#DBEAFF"/>
<path fill-rule="evenodd" clip-rule="evenodd" d="M23.6297 23.9381L22.94 22.5752C22.7449 22.6658 22.547 22.751 22.3409 22.8335L21.8409 23.0369L21.8326 23.0231L18.3209 24.441C17.7906 24.6526 17.2108 24.5647 16.7739 24.2569C16.7712 24.4713 16.8069 24.6884 16.8921 24.8972C17.2246 25.7298 18.1781 26.1365 19.0079 25.804L23.6297 23.9381Z" fill="#FFDFCF"/>
<path fill-rule="evenodd" clip-rule="evenodd" d="M7.95913 33.0444C7.16775 33.0444 6.64294 33.0417 6.31317 32.3465C5.87357 31.415 4.77713 29.758 3.7028 29.6756C2.87846 29.6124 2.9911 29.9119 3.09278 30.4861L4.23032 36.9876H8.50313V33.0444H7.95913Z" fill="#FFEEE6"/>
<path fill-rule="evenodd" clip-rule="evenodd" d="M10.7262 26.2709L11.7923 22.3415C11.2922 22.2865 10.8004 22.248 10.3332 22.2124C9.97049 22.1876 9.7424 22.2179 9.57208 22.1876C9.36871 22.1547 9.24512 22.0392 9.06647 21.6628C8.62406 20.7341 7.45075 18.9122 6.37361 18.8298C5.54927 18.7666 5.66472 19.0688 5.76359 19.6404L6.76648 25.3614C6.94233 26.3644 6.95338 26.2297 8.06619 26.1281C9.07199 26.0346 9.97601 26.1198 10.7262 26.2709Z" fill="#FFEEE6"/>
<path fill-rule="evenodd" clip-rule="evenodd" d="M36.1734 30.0384C34.0026 28.2138 30.3783 27.4526 27.1524 27.7989C25.6081 27.9638 24.1573 28.3842 23.0005 29.0601C22.7037 29.2332 22.536 29.2909 22.3657 29.214V33.2725L28.8011 36.9877H39.2206C39.1905 34.1464 39.6686 33.4128 36.1734 30.0384Z" fill="#F37C7C"/>
<path fill-rule="evenodd" clip-rule="evenodd" d="M21.1403 16.3703C22.462 16.3703 23.5445 15.1805 23.5445 13.7242V12.7542H18.7332V13.7242C18.7333 15.1804 19.8158 16.3703 21.1403 16.3703Z" fill="#FFDFCF"/>
<path fill-rule="evenodd" clip-rule="evenodd" d="M22.7175 12.7543C24.5613 11.897 26.0148 9.85807 26.0148 8.21482V6.7227C24.2984 3.97487 17.9976 2.91566 16.2629 6.7227V8.21482C16.2629 9.85807 17.7165 11.8969 19.563 12.757C20.0443 12.9747 20.5603 13.1404 21.0927 13.1495C21.6582 13.1592 22.2081 12.9858 22.7175 12.7543Z" fill="#FFEEE6"/>
<path fill-rule="evenodd" clip-rule="evenodd" d="M26.0148 6.7228C26.0148 3.1011 23.5776 1.26553 21.1402 1.22705C18.703 1.26553 16.2629 3.1011 16.2629 6.7228C18.2386 6.58544 18.4831 5.14828 19.8433 5.49996C20.2885 5.61541 25.7236 6.70361 26.0148 6.7228Z" fill="#E29D7B"/>
<path fill-rule="evenodd" clip-rule="evenodd" d="M21.1403 13.1498C20.7501 13.1498 20.3599 13.0674 19.9175 12.9053C19.7993 12.8613 19.6785 12.8091 19.563 12.7542H18.7332V13.4823C18.7332 14.1226 20.5302 14.6337 21.2089 14.6309C22.3849 14.6309 23.5445 14.1061 23.5445 13.4823V12.7542H22.7175C22.7175 12.7569 22.7175 12.7569 22.7175 12.7542C22.6872 12.7706 22.657 12.7816 22.6296 12.7953C22.4097 12.8943 22.1762 12.9794 21.9454 13.0372C21.6734 13.1085 21.4178 13.1498 21.1403 13.1498Z" fill="#FFCEBF"/>
<path fill-rule="evenodd" clip-rule="evenodd" d="M26.0148 6.7228C26.0148 3.1011 23.5776 1.26553 21.1403 1.22705C20.7007 1.23258 20.2637 1.29849 19.8378 1.42218C21.6623 1.95251 23.2258 3.55456 23.3962 6.22814C24.6987 6.48647 25.883 6.71456 26.0148 6.7228Z" fill="#CE8B6B"/>
<path fill-rule="evenodd" clip-rule="evenodd" d="M22.7174 12.7543C24.5612 11.897 26.0148 9.85806 26.0148 8.21481V6.72269C25.8828 6.71445 24.6986 6.48636 23.3962 6.22803V7.72015C23.3962 9.4678 21.753 11.6633 19.7416 12.4108C19.5547 12.4795 19.3789 12.5344 19.2057 12.5729C19.3239 12.6388 19.4421 12.6993 19.563 12.757C19.6784 12.8093 19.7993 12.8614 19.9174 12.9054C20.3599 13.0675 20.75 13.15 21.1402 13.15C21.5606 13.15 21.9672 13.0511 22.3602 12.9054C22.4839 12.8587 22.5994 12.8093 22.7174 12.7543Z" fill="#FFDFCF"/>
<path fill-rule="evenodd" clip-rule="evenodd" d="M10.7262 26.271L11.2565 24.3146C10.3827 24.0398 9.14349 23.8007 7.68161 23.9354C6.56879 24.037 6.55774 24.1717 6.3819 23.1687L6.76663 25.3615C6.94247 26.3645 6.95352 26.2298 8.06634 26.1281C9.07195 26.0347 9.97597 26.1199 10.7262 26.271Z" fill="#FFDFCF"/>
<path fill-rule="evenodd" clip-rule="evenodd" d="M28.8011 36.9876V33.2725H22.3658H21.8547C20.8325 33.2725 19.9944 34.1106 19.9944 35.1327C19.9944 36.1028 20.7446 36.9051 21.6954 36.9875H28.8011V36.9876Z" fill="#FFEEE6"/>
<path fill-rule="evenodd" clip-rule="evenodd" d="M43.5724 32.3525C43.7637 31.2432 43.5724 29.6646 42.7131 27.6504C41.908 27.252 40.9875 27.0733 40.034 27.175C38.2974 27.3591 36.8878 28.5709 36.1734 30.0383C36.0717 30.2499 35.9838 30.4642 35.9096 30.6813C35.7062 31.2995 35.6238 31.9425 35.6898 32.558C35.9096 34.6217 37.2011 36.3748 39.2206 36.9876L40.2721 36.6522C41.7882 36.1687 42.9431 34.9306 43.3204 33.3846L43.5724 32.3525Z" fill="#FFEEE6"/>
<path fill-rule="evenodd" clip-rule="evenodd" d="M46.3347 33.4264C46.6919 31.9233 45.8648 30.467 46.4034 28.0653C46.8073 26.2627 45.4637 26.2077 43.9277 26.7656C43.4331 26.9469 43.021 27.2492 42.7132 27.6504C41.9218 28.6726 41.7982 30.3378 42.6747 32.242C43.8398 34.7646 39.2207 36.9876 39.2207 36.9876C43.2022 36.9877 45.6258 36.4078 46.3347 33.4264Z" fill="#7E707D"/>
<path fill-rule="evenodd" clip-rule="evenodd" d="M42.6746 32.2421C41.798 30.3378 41.9217 28.6727 42.7131 27.6505C42.0481 27.3235 41.3063 27.1422 40.5286 27.1476C40.0038 28.3099 40.0121 29.9751 40.7732 31.8409C41.5893 33.8414 39.5614 35.6742 38.2782 36.592C38.5722 36.7514 38.8855 36.886 39.2207 36.9877C39.2207 36.9877 43.8397 34.7647 42.6746 32.2421Z" fill="#FFDFCF"/>
<path fill-rule="evenodd" clip-rule="evenodd" d="M46.3347 33.4262C46.6919 31.9232 45.8648 30.4668 46.4034 28.0651C46.6864 26.8093 46.1176 26.4027 45.2301 26.4604C43.3726 29.0214 45.0295 31.489 44.4278 33.6927C43.9799 35.5832 42.8396 36.5093 41.0507 36.9324C43.9496 36.7319 45.7411 35.9186 46.3347 33.4262Z" fill="#6A5D6A"/>
<path fill-rule="evenodd" clip-rule="evenodd" d="M19.0025 30.4617C17.4225 25.5925 11.2427 24.3092 11.2565 24.3147L10.7261 26.2712C11.5285 26.4332 12.1578 26.6724 12.5507 26.8537C16.175 28.5299 17.6917 31.1431 17.7549 32.0664C17.7823 32.4731 17.5433 32.7205 16.8729 32.8661C16.8729 32.8661 17.6863 33.1545 18.3814 32.4539L18.3759 32.4594C18.9914 31.918 19.2086 31.0964 19.0025 30.4617ZM17.8265 32.8111C17.8567 32.7973 17.8869 32.7809 17.9171 32.7671C17.8868 32.7809 17.8566 32.7973 17.8265 32.8111ZM17.9226 32.7644C17.9364 32.7561 17.95 32.7506 17.9638 32.7424C17.95 32.7506 17.9363 32.7561 17.9226 32.7644ZM17.9665 32.7424C17.9803 32.7341 17.994 32.7259 18.0105 32.7177C17.9941 32.7259 17.9803 32.7341 17.9665 32.7424ZM18.0105 32.7149C18.0243 32.7094 18.038 32.7012 18.0517 32.6929C18.038 32.7012 18.0242 32.7094 18.0105 32.7149ZM18.1397 32.638C18.1534 32.6297 18.1671 32.6215 18.1781 32.6105C18.1672 32.6215 18.1534 32.6297 18.1397 32.638ZM18.222 32.5803C18.2358 32.5721 18.2468 32.5638 18.2605 32.5529C18.2469 32.5637 18.2358 32.572 18.222 32.5803ZM18.2605 32.5528C18.288 32.5336 18.3128 32.5116 18.3375 32.4923C18.3128 32.5116 18.2881 32.5336 18.2605 32.5528ZM18.3733 32.4621C18.3595 32.4704 18.3485 32.4813 18.3375 32.4924L18.3733 32.4621ZM18.1397 32.638C18.1259 32.6462 18.1122 32.6572 18.0985 32.6654L18.1397 32.638Z" fill="#6A5D6A"/>
<path fill-rule="evenodd" clip-rule="evenodd" d="M38.2782 36.5921C36.8027 35.7842 35.874 34.2811 35.6899 32.5582C35.624 31.9426 35.7064 31.2997 35.9097 30.6814C35.9839 30.4644 36.0718 30.25 36.1735 30.0385C35.5964 29.5521 34.915 29.1427 34.1676 28.8074C34.0165 29.1261 33.8874 29.4503 33.7774 29.7801C33.4367 30.8023 33.3021 31.863 33.4093 32.8797C33.5713 34.3883 34.0798 35.798 34.8875 36.9877H39.2208C38.8854 36.8861 38.5722 36.7514 38.2782 36.5921Z" fill="#F96363"/>
<path fill-rule="evenodd" clip-rule="evenodd" d="M45.8978 45.6956V43.6182H43.8287H38.5337V45.6956C38.5337 46.8386 37.5968 47.773 36.4564 47.773H43.8205C44.9636 47.773 45.8978 46.8387 45.8978 45.6956Z" fill="#F0F0F0"/>
<path fill-rule="evenodd" clip-rule="evenodd" d="M49.0907 43.2369V37.3658C49.0907 37.1026 48.8727 36.8875 48.6095 36.8875H43.8624C44.1257 36.8875 44.3436 37.1026 44.3436 37.3658V43.2369C44.3436 43.503 44.1256 43.7182 43.8624 43.7182H45.9939H48.6095C48.8727 43.7182 49.0907 43.503 49.0907 43.2369Z" fill="#1FC5B1"/>
<path d="M48.4367 36.2606H45.4926C46.2114 35.6546 46.7553 34.8002 47.042 33.5944C47.2311 32.7988 47.1451 32.0559 47.0541 31.2693C46.9497 30.3667 46.8417 29.4335 47.1128 28.2243C47.3212 27.2944 47.1695 26.5965 46.662 26.15C46.0476 25.6096 45.0441 25.5867 43.6792 26.0823C43.2466 26.2397 42.8595 26.4772 42.5303 26.7798C41.7143 26.472 40.8352 26.3587 39.9569 26.4521C38.365 26.6219 36.8917 27.577 35.9533 28.9659C34.9974 28.3228 33.8269 27.8108 32.5185 27.469C32.1296 27.3673 31.7328 27.6003 31.6314 27.9887C31.5299 28.3772 31.7625 28.7743 32.151 28.8758C33.3713 29.1946 34.4423 29.6728 35.2839 30.2702C35.2614 30.3311 35.2396 30.3924 35.219 30.4541C34.9793 31.1831 34.8921 31.9373 34.9669 32.635C35.1197 34.0687 35.7194 35.3282 36.6422 36.2605H29.5281V33.9994H31.4609C31.8624 33.9994 32.188 33.674 32.188 33.2724C32.188 32.8708 31.8624 32.5454 31.4609 32.5454H23.0928V29.8285C23.1801 29.79 23.2713 29.744 23.3674 29.6878C24.7769 28.864 26.799 28.4117 28.9156 28.446C28.9197 28.4461 28.9237 28.4461 28.9277 28.4461C29.3237 28.4461 29.6479 28.1285 29.6545 27.731C29.661 27.3295 29.3409 26.9987 28.9395 26.9922C28.1013 26.9788 27.2849 27.0333 26.5056 27.1487V23.2846C27.1499 22.8135 27.7584 22.2039 28.2303 21.3855C28.9253 20.1794 28.953 19.5188 29.0033 18.3196C29.0114 18.1276 29.0202 17.9175 29.0325 17.6837C29.0329 17.6772 29.0324 17.6708 29.0325 17.6643C29.0327 17.658 29.0335 17.6518 29.0335 17.6454V15.8621C29.0335 13.7475 27.3132 12.0271 25.1987 12.0271H24.9446C26.0215 10.9261 26.7418 9.49836 26.7418 8.21474V6.72281C26.7418 4.84866 26.1417 3.25621 25.0063 2.1178C23.9891 1.09785 22.6201 0.523313 21.1518 0.500145C21.1441 0.499952 21.1365 0.499952 21.1288 0.500145C19.6603 0.523313 18.291 1.09785 17.2731 2.11771C16.1366 3.25631 15.536 4.84876 15.536 6.72291V8.21484C15.536 9.49797 16.2564 10.9257 17.3345 12.0272H17.079C15.1941 12.0272 14.2659 13.1795 13.7314 14.0465L9.49821 20.921C9.01944 20.0613 7.83257 18.2123 6.42914 18.1048C6.03849 18.0752 5.54868 18.0871 5.2221 18.4489C4.87846 18.8297 4.96474 19.3065 5.02765 19.6546L6.05051 25.4871C6.14124 26.0042 6.21278 26.4127 6.55428 26.6901C6.91197 26.9808 7.32346 26.9369 7.80019 26.8857C7.898 26.8754 8.00812 26.8636 8.13297 26.8521C10.1507 26.6661 11.6813 27.2528 12.2455 27.5134C12.8562 27.7959 13.397 28.1032 13.8759 28.4205V32.3171C13.8533 32.3171 13.832 32.3173 13.8092 32.3173H7.95917C7.1041 32.3173 7.08103 32.2687 6.97072 32.0361C6.82842 31.7346 5.52929 29.0864 3.75847 28.9508C3.36676 28.9204 2.87539 28.9326 2.54891 29.2957C2.20508 29.6778 2.28981 30.1379 2.35785 30.5076L3.36511 36.2607H1.19143C0.534501 36.2606 0 36.7951 0 37.452V43.151C0 43.8095 0.534501 44.3452 1.19143 44.3452H3.00335V45.6956C3.00335 47.2419 4.26137 48.5 5.80769 48.5H43.8205C45.3668 48.5 46.6248 47.2419 46.6248 45.6956V44.3452H48.4367C49.0951 44.3452 49.6309 43.8095 49.6309 43.151V37.452C49.6309 36.7951 49.0952 36.2606 48.4367 36.2606ZM43.3351 31.9382C42.7503 30.6672 42.6335 29.4756 43.006 28.5828C43.2341 28.0364 43.6386 27.6443 44.1758 27.449C44.7538 27.2392 45.144 27.1803 45.3867 27.1803C45.5711 27.1803 45.6703 27.2145 45.7016 27.2419C45.7265 27.2639 45.7984 27.4409 45.694 27.9065V27.9064C45.3688 29.356 45.5024 30.5096 45.6096 31.4366C45.6888 32.1209 45.7572 32.7118 45.6274 33.2583C45.2148 34.9931 44.2099 35.829 41.8409 36.1274C41.8471 36.122 41.8534 36.1167 41.8596 36.1113C43.8704 34.3755 43.7716 32.8833 43.3351 31.9382ZM36.4127 32.4807C36.3597 31.9862 36.4245 31.4426 36.5994 30.9109C37.0525 29.5493 38.3141 28.0897 40.1112 27.8979C40.6365 27.8418 41.1618 27.8877 41.6628 28.0265C41.1335 29.2982 41.2582 30.9029 42.0146 32.5469C42.7262 34.0877 40.0179 35.7265 39.159 36.1984C37.6407 35.6224 36.5983 34.2237 36.4127 32.4807ZM28.0741 33.9995V36.2606H21.7464C21.1721 36.2058 20.7215 35.721 20.7215 35.1327C20.7215 34.5079 21.2298 33.9995 21.8547 33.9995H28.0741ZM25.0516 27.4479C24.1605 27.6875 23.3433 28.0176 22.6335 28.4323C22.6196 28.4405 22.6067 28.448 22.5946 28.4548C22.5136 28.3593 22.4088 28.2248 22.312 28.1007C22.1937 27.9491 22.0466 27.7603 21.8699 27.5436C21.4931 27.0846 20.9541 26.5328 20.3981 26.0269L24.4024 24.4114C24.6114 24.3268 24.8294 24.2332 25.0515 24.1299V27.4479H25.0516ZM18.7376 25.1291C18.516 25.2178 18.2715 25.214 18.0492 25.1189C17.827 25.0237 17.6558 24.8492 17.5666 24.6257C17.4774 24.4041 17.4806 24.1595 17.5756 23.9373C17.6709 23.7143 17.8461 23.5425 18.0686 23.4537C18.0751 23.4511 18.0815 23.4483 18.088 23.4456L21.7608 21.8542L22.6243 23.5611L18.7376 25.1291ZM21.1402 1.95408C22.9491 1.98772 24.8787 3.22296 25.231 5.84526C23.6426 5.54243 20.4025 4.89384 20.0258 4.79622C20.0256 4.79613 20.0255 4.79612 20.0253 4.79603C19.8143 4.74155 19.6192 4.7178 19.4379 4.7178C18.7504 4.7178 18.2613 5.05804 17.8514 5.34313C17.6 5.5181 17.3565 5.68745 17.0514 5.81133C17.416 3.2124 19.338 1.98762 21.1402 1.95408ZM16.99 8.21484V7.34834C17.7688 7.17026 18.2839 6.81345 18.6818 6.5367C19.1587 6.20498 19.3118 6.11328 19.6613 6.20372C19.9222 6.27119 23.6927 7.0425 25.2877 7.33602V8.21484C25.2877 9.46443 24.0949 11.2957 22.4511 12.0782C22.4281 12.0873 22.4056 12.0974 22.3839 12.1086C22.2938 12.1496 22.2027 12.1883 22.1102 12.2227C21.7323 12.3612 21.4332 12.4228 21.1402 12.4228C20.8494 12.4228 20.5403 12.3592 20.171 12.2239C20.0826 12.191 19.9948 12.1537 19.9074 12.1139C19.8841 12.1014 19.8599 12.0903 19.8353 12.0803C18.3079 11.3472 16.99 9.59345 16.99 8.21484ZM22.8176 13.5062V13.7243C22.8176 14.7825 22.0652 15.6435 21.1403 15.6435C20.2139 15.6435 19.4603 14.7825 19.4603 13.7243V13.5059C19.529 13.5347 19.598 13.5622 19.6675 13.5881C20.2055 13.7851 20.6735 13.8769 21.1403 13.8769C21.6052 13.8769 22.0725 13.7851 22.6137 13.5869C22.6819 13.5615 22.7499 13.5345 22.8176 13.5062ZM14.9693 14.8093C15.5508 13.8661 16.162 13.4813 17.079 13.4813H18.0061V13.7244C18.0061 15.5843 19.4121 17.0976 21.1402 17.0976C22.8668 17.0976 24.2715 15.5844 24.2715 13.7244V13.4813H25.1986C26.5113 13.4813 27.5794 14.5495 27.5794 15.8623V17.6272C27.5673 17.8584 27.5585 18.0676 27.5505 18.2588C27.502 19.4139 27.4874 19.7625 26.9704 20.6596C26.3823 21.6793 25.4817 22.3878 23.9768 23.0137L23.0906 21.2619C23.4291 21.0847 23.6701 20.8976 24.0103 20.5407C24.0465 20.5028 24.0783 20.4613 24.1054 20.4166L24.9819 18.9739C25.1904 18.6307 25.0812 18.1836 24.7381 17.9751C24.395 17.7664 23.9478 17.8757 23.7393 18.2189L22.9046 19.5927C22.6271 19.8774 22.5007 19.9475 22.0822 20.1303L17.5187 22.1077C17.1097 22.2733 16.7647 22.5464 16.5093 22.8951C15.8602 22.5373 15.1601 22.275 14.4374 22.0791L15.9178 19.6725C16.1281 19.3305 16.0214 18.8828 15.6794 18.6723C15.3374 18.4621 14.8897 18.5688 14.6793 18.9107L12.9268 21.7597C12.2244 21.6471 11.5195 21.5757 10.8363 21.5213L14.9693 14.8093ZM10.1963 25.4475C9.54319 25.3616 8.80357 25.3301 8.00017 25.4042C7.86746 25.4163 7.56289 25.4489 7.52208 25.453C7.50716 25.3751 6.49496 19.6016 6.49496 19.6016C7.0693 19.8459 7.93445 20.9769 8.40924 21.9735C8.6792 22.5449 8.96603 22.7869 9.35019 22.8787C9.80268 22.937 10.1322 22.9273 10.2813 22.9376C10.4737 22.9513 10.6689 22.9666 10.8651 22.9828L10.1963 25.4475ZM15.3299 29.5769C16.4707 30.6693 16.9624 31.6854 17.024 32.0681C16.8045 32.1803 16.2365 32.2548 15.3299 32.2912V29.5769ZM9.23028 33.7715H13.8092C16.6313 33.7715 17.6026 33.6048 18.1393 33.0288C18.3142 32.8411 18.5153 32.5128 18.4803 32.0167C18.3885 30.6749 16.5375 27.8964 12.8557 26.1936C12.6001 26.0756 12.178 25.9013 11.6229 25.7428L12.3287 23.1413C13.6604 23.3274 14.9773 23.6526 16.0478 24.3087C16.0498 24.5996 16.1057 24.89 16.2172 25.1668C16.4498 25.7495 16.8971 26.207 17.4766 26.4554C17.7758 26.5836 18.091 26.6479 18.4064 26.6479C18.5538 26.6479 18.7013 26.6337 18.8471 26.6056C19.5273 27.1658 20.2881 27.9081 20.7446 28.4645C20.9099 28.6671 21.0456 28.8412 21.1654 28.9949C21.3239 29.1982 21.4766 29.3933 21.6389 29.5552V32.5553C20.313 32.6654 19.2675 33.779 19.2675 35.1328C19.2675 35.5369 19.3608 35.9195 19.5267 36.2607H9.23028V33.7715ZM5.65637 32.658C6.14609 33.6905 6.99243 33.7654 7.77625 33.7709V36.2606H4.84124L3.82342 30.4437C4.40193 30.6707 5.2158 31.7247 5.65637 32.658ZM48.1769 42.8912H26.5507C26.1492 42.8912 25.8237 43.2166 25.8237 43.6182C25.8237 44.0198 26.1492 44.3453 26.5507 44.3453H45.1708V45.6957C45.1708 46.4403 44.565 47.0461 43.8205 47.0461H5.80769C5.06313 47.0461 4.45738 46.4403 4.45738 45.6957V44.3453H23.3522C23.7537 44.3453 24.0792 44.0198 24.0792 43.6182C24.0792 43.2166 23.7537 42.8912 23.3522 42.8912H1.45403V37.7147H4.22745C4.22813 37.7147 4.2289 37.7148 4.22958 37.7148C4.23006 37.7148 26.3676 37.7148 39.2187 37.7147C39.2195 37.7147 39.2202 37.7149 39.221 37.7149C39.2217 37.7149 48.1769 37.7147 48.1769 37.7147V42.8912Z" fill="black"/>
</svg>
