<svg width="48" height="48" viewBox="0 0 48 48" fill="none" xmlns="http://www.w3.org/2000/svg">
<path d="M35.6135 44.1292V46.4517C35.6135 46.8775 35.2651 47.2259 34.8393 47.2259H13.1619C12.7361 47.2259 12.3877 46.8775 12.3877 46.4517V44.1292H19.3554H28.6458H35.6135Z" fill="#969FAA"/>
<path d="M19.3554 41.0323V44.1291H12.3877V42.5807C12.3877 41.7291 13.0845 41.0323 13.9361 41.0323H19.3554Z" fill="#969FAA"/>
<path d="M35.6142 42.5807V44.1291H28.6465V41.0323H34.0658C34.9175 41.0323 35.6142 41.7291 35.6142 42.5807Z" fill="#969FAA"/>
<path d="M28.6448 41.0324V44.1292H19.3545V41.0324V37.9357H28.6448V41.0324Z" fill="#AAB2BD"/>
<path d="M45.6786 31.7419V36.3871C45.6786 37.2387 44.9818 37.9355 44.1302 37.9355H28.6464H19.356H2.32378C1.47216 37.9355 0.775391 37.2387 0.775391 36.3871V31.7419H3.87216H16.2593H28.6464H45.6786Z" fill="#CCD1D9"/>
<path d="M45.6786 31.742H0.775391V8.51616C0.775391 7.66068 1.46829 6.96777 2.32378 6.96777H45.6786V31.742Z" fill="#69D6F4"/>
<path d="M33.29 25.5485H36.3868V28.6452H33.29V25.5485Z" fill="#FF826E"/>
<path d="M39.4834 19.3549H42.5802V22.4516H39.4834V19.3549Z" fill="#FF826E"/>
<path d="M39.4834 25.5485H42.5802V28.6452H39.4834V25.5485Z" fill="#B4DD7F"/>
<path d="M33.29 19.3549H36.3868V22.4516H33.29V19.3549Z" fill="#B4DD7F"/>
<path d="M10.839 11.613C10.839 12.0001 10.8777 12.3795 10.9551 12.7433L10.9319 12.7511L10.3744 12.4182C8.7409 11.4349 7.74219 9.67752 7.74219 7.773V7.74203C7.74219 7.47881 7.75767 7.22332 7.78864 6.96784C8.16799 3.48397 11.1254 0.774292 14.7099 0.774292H24.0003C24.4261 0.774292 24.8132 0.944614 25.0919 1.23107C25.3783 1.50978 25.5486 1.89687 25.5486 2.32268C25.5486 3.49945 25.1151 4.59107 24.3796 5.4272C23.7215 6.19365 22.808 6.74332 21.7551 6.95236L21.6777 6.96784H18.968C17.1719 6.96784 15.3757 6.74332 13.6261 6.30978C13.3164 6.23236 12.999 6.19365 12.6815 6.19365C11.6596 6.19365 10.839 7.01429 10.839 8.03623V11.613Z" fill="#B27946"/>
<path d="M24.7282 6.96777C24.7592 7.22325 24.7746 7.47874 24.7746 7.74196V7.77293C24.7746 9.67745 23.7759 11.4349 22.1424 12.4181L21.585 12.751C21.6469 12.4336 21.6779 12.1084 21.6779 11.7755V6.96777L21.7553 6.95228C22.8082 6.74325 23.7217 6.19358 24.3798 5.42712C24.5501 5.92261 24.674 6.43358 24.7282 6.96777Z" fill="#B27946"/>
<path d="M22.8234 19.1613L22.4517 19.0994L19.355 18.5807L16.2582 23.2258L13.1614 18.5807L10.0646 19.0994L9.69303 19.1613C6.33303 19.7188 3.87109 22.622 3.87109 26.0284V31.742H16.2582H28.6453V26.0284C28.6453 22.622 26.1834 19.7188 22.8234 19.1613Z" fill="#E6E9ED"/>
<path d="M22.4527 28.6452C23.3078 28.6452 24.0011 27.952 24.0011 27.0968C24.0011 26.2417 23.3078 25.5485 22.4527 25.5485C21.5975 25.5485 20.9043 26.2417 20.9043 27.0968C20.9043 27.952 21.5975 28.6452 22.4527 28.6452Z" fill="#FCD770"/>
<path d="M13.7108 16.3975C14.4773 16.8 15.3521 17.0323 16.2811 17.0323H16.4205C17.2798 17.0323 18.1005 16.8233 18.8205 16.4517L19.3547 18.5807L16.2579 23.2258L13.1611 18.5807L13.7108 16.3975Z" fill="#F0D0B4"/>
<path d="M13.7121 16.3975C12.3186 15.6542 11.2966 14.3304 10.956 12.7433C10.8786 12.3794 10.8398 12.0001 10.8398 11.613V8.03618C10.8398 7.01425 11.6605 6.1936 12.6824 6.1936C12.9998 6.1936 13.3173 6.23231 13.6269 6.30973C15.3766 6.74328 17.1727 6.9678 18.9689 6.9678H21.6786V11.7755C21.6786 12.1084 21.6476 12.4336 21.5857 12.751C21.2837 14.3691 20.2386 15.7239 18.8218 16.4517C18.1018 16.8233 17.2811 17.0323 16.4218 17.0323H16.2824C15.3534 17.0323 14.4786 16.8001 13.7121 16.3975Z" fill="#F0D0B4"/>
<path d="M47.2271 2.32268V14.7098C47.2271 15.5614 46.5304 16.2582 45.6787 16.2582H32.5175L30.5045 18.9446C30.311 19.2001 30.0013 19.3549 29.6762 19.3549C29.111 19.3549 28.6465 18.8904 28.6465 18.3253V6.96784V2.32268C28.6465 1.47107 29.3433 0.774292 30.1949 0.774292H45.6787C46.5304 0.774292 47.2271 1.47107 47.2271 2.32268Z" fill="#E6E9ED"/>
<path d="M42.5804 7.74206V9.29045C42.5804 9.71625 42.232 10.0646 41.8062 10.0646H39.4836V12.3872C39.4836 12.813 39.1352 13.1614 38.7094 13.1614H37.161C36.7352 13.1614 36.3868 12.813 36.3868 12.3872V10.0646H34.0642C33.6384 10.0646 33.29 9.71625 33.29 9.29045V7.74206C33.29 7.31625 33.6384 6.96787 34.0642 6.96787H36.3868V4.64529C36.3868 4.21948 36.7352 3.87109 37.161 3.87109H38.7094C39.1352 3.87109 39.4836 4.21948 39.4836 4.64529V6.96787H41.8062C42.232 6.96787 42.5804 7.31625 42.5804 7.74206Z" fill="#FCD770"/>
<path d="M13.9353 10.8387C14.3629 10.8387 14.7095 10.4921 14.7095 10.0645C14.7095 9.6369 14.3629 9.29028 13.9353 9.29028C13.5078 9.29028 13.1611 9.6369 13.1611 10.0645C13.1611 10.4921 13.5078 10.8387 13.9353 10.8387Z" fill="black"/>
<path d="M18.5808 10.8387C19.0084 10.8387 19.355 10.4921 19.355 10.0645C19.355 9.6369 19.0084 9.29028 18.5808 9.29028C18.1533 9.29028 17.8066 9.6369 17.8066 10.0645C17.8066 10.4921 18.1533 10.8387 18.5808 10.8387Z" fill="black"/>
<path d="M17.8063 12.2044C17.5113 12.7943 16.9183 13.1613 16.2579 13.1613C15.5975 13.1613 15.0045 12.7943 14.7095 12.2044L14.6282 12.0411L13.2432 12.734L13.3245 12.8973C13.8834 14.0153 15.0076 14.7097 16.2579 14.7097C17.5082 14.7097 18.6323 14.0153 19.1913 12.8965L19.2726 12.7332L17.8875 12.0403L17.8063 12.2044Z" fill="black"/>
<path d="M41.8069 6.19358H40.2585V4.64519C40.2585 3.79125 39.5641 3.0968 38.7102 3.0968H37.1618C36.3078 3.0968 35.6134 3.79125 35.6134 4.64519V6.19358H34.065C33.2111 6.19358 32.5166 6.88803 32.5166 7.74196V9.29035C32.5166 10.1443 33.2111 10.8387 34.065 10.8387H35.6134V12.3871C35.6134 13.2411 36.3078 13.9355 37.1618 13.9355H38.7102C39.5641 13.9355 40.2585 13.2411 40.2585 12.3871V10.8387H41.8069C42.6609 10.8387 43.3553 10.1443 43.3553 9.29035V7.74196C43.3553 6.88803 42.6609 6.19358 41.8069 6.19358ZM41.8069 9.29035H38.7102V12.3871H37.1618V9.29035H34.065V7.74196H37.1618V4.64519H38.7102V7.74196L41.8069 7.74429V9.29035Z" fill="black"/>
<path d="M45.6774 0H30.1935C28.913 0 27.871 1.04206 27.871 2.32258V6.19355H25.3866C25.3455 5.99071 25.2968 5.79019 25.2395 5.592C25.9231 4.66994 26.3226 3.53342 26.3226 2.32258C26.3226 1.04206 25.2805 0 24 0H14.7097C10.9773 0 7.85419 2.65471 7.12723 6.19355H2.32258C1.04206 6.19355 0 7.23561 0 8.51613V36.3871C0 37.6676 1.04206 38.7097 2.32258 38.7097H18.5806V40.2581H13.9355C12.655 40.2581 11.6129 41.3001 11.6129 42.5806V46.4516C11.6129 47.3055 12.3074 48 13.1613 48H34.8387C35.6926 48 36.3871 47.3055 36.3871 46.4516V42.5806C36.3871 41.3001 35.345 40.2581 34.0645 40.2581H29.4194V38.7097H44.129C45.4095 38.7097 46.4516 37.6676 46.4516 36.3871V16.8898C47.3504 16.5693 48 15.7177 48 14.7097V2.32258C48 1.04206 46.9579 0 45.6774 0ZM27.871 7.74194V18.3228C27.871 19.3185 28.6815 20.129 29.6772 20.129C30.2423 20.129 30.7827 19.8588 31.1218 19.4067L32.9032 17.0323H44.9032V30.9677H29.4194V26.0315C29.4194 22.231 26.6988 19.0196 22.9502 18.3948L19.9827 17.9001L19.7133 16.8217C20.9628 16.0034 21.8864 14.7352 22.2619 13.248L22.5414 13.0808C24.3964 11.9683 25.5484 9.93368 25.5484 7.74194H27.871ZM9.29032 24.0782C7.52594 24.4382 6.19355 26.0021 6.19355 27.871V29.4194H7.74194V27.871C7.74194 26.5905 8.784 25.5484 10.0645 25.5484C11.345 25.5484 12.3871 26.5905 12.3871 27.871V29.4194H13.9355V27.871C13.9355 26.0021 12.6031 24.4382 10.8387 24.0782V19.7528L12.7951 19.4268L15.4839 23.4604V30.9677H4.64516V26.0315C4.64516 23.1739 6.56903 20.7329 9.29032 20.0354V24.0782ZM16.4206 16.2581H16.2844C13.7086 16.2581 11.6129 14.1747 11.6129 11.6129V8.03458C11.6129 7.44619 12.0914 6.96774 12.6797 6.96774C12.936 6.96774 13.1915 6.99948 13.44 7.06142C15.247 7.51277 17.1074 7.74194 18.9685 7.74194H20.9032V11.7755C20.9032 14.2475 18.8926 16.2581 16.4206 16.2581ZM16.2844 17.8065H16.4206C17.0725 17.8065 17.6996 17.6996 18.288 17.5068L18.5203 18.4359L16.2581 21.8299L13.9951 18.4359L14.239 17.4619C14.88 17.6849 15.5683 17.8065 16.2844 17.8065ZM17.0323 23.4604L19.721 19.4268L21.6774 19.7528V24.9174C20.7786 25.2379 20.129 26.0895 20.129 27.0975C20.129 28.3781 21.1711 29.4201 22.4516 29.4201C23.7321 29.4201 24.7742 28.3781 24.7742 27.0975C24.7742 26.0895 24.1246 25.2379 23.2258 24.9174V20.0354C25.9471 20.7329 27.871 23.1739 27.871 26.0315V30.9677H17.0323V23.4604ZM23.2258 27.0968C23.2258 27.5234 22.8782 27.871 22.4516 27.871C22.025 27.871 21.6774 27.5234 21.6774 27.0968C21.6774 26.6702 22.025 26.3226 22.4516 26.3226C22.8782 26.3226 23.2258 26.6702 23.2258 27.0968ZM23.9303 6.84697C23.9737 7.14813 24 7.45471 24 7.77058C24 9.09368 23.4186 10.3463 22.4516 11.2188V7.57316C22.9874 7.40671 23.4821 7.15587 23.9303 6.84697ZM14.7097 1.54839H24C24.4266 1.54839 24.7742 1.896 24.7742 2.32258C24.7742 4.19768 23.4395 5.82581 21.6008 6.19355H18.9685C17.2328 6.19355 15.4994 5.97987 13.8155 5.55948C13.4446 5.46658 13.0622 5.41935 12.6797 5.41935C11.2382 5.41935 10.0645 6.59303 10.0645 8.03458V11.2305C9.09368 10.3572 8.51613 9.09058 8.51613 7.74116C8.51613 4.32697 11.2947 1.54839 14.7097 1.54839ZM2.32258 7.74194H6.96929C6.96929 7.75123 6.96774 7.76052 6.96774 7.77058C6.96774 9.93368 8.11974 11.9683 9.97471 13.0815L10.2914 13.2712C10.6932 14.7105 11.6067 15.9375 12.8214 16.752L12.5342 17.9009L9.56671 18.3956C5.81729 19.0196 3.09677 22.231 3.09677 26.0315V30.9677H1.54839V8.51613C1.54839 8.08955 1.896 7.74194 2.32258 7.74194ZM13.9355 41.8064H18.5806V43.3548H13.1613V42.5806C13.1613 42.1541 13.5089 41.8064 13.9355 41.8064ZM13.1613 46.4516V44.9032H34.8387V46.4516H13.1613ZM34.0645 41.8064C34.4911 41.8064 34.8387 42.1541 34.8387 42.5806V43.3548H29.4194V41.8064H34.0645ZM27.871 43.3548H20.129V38.7097H27.871V43.3548ZM44.129 37.1613H2.32258C1.896 37.1613 1.54839 36.8137 1.54839 36.3871V32.5161H44.9032V36.3871C44.9032 36.8137 44.5556 37.1613 44.129 37.1613ZM46.4516 14.7097C46.4516 15.1363 46.104 15.4839 45.6774 15.4839H32.129L29.8839 18.4777C29.7507 18.6557 29.4201 18.5458 29.4194 18.3221V2.32258C29.4194 1.896 29.767 1.54839 30.1935 1.54839H45.6774C46.104 1.54839 46.4516 1.896 46.4516 2.32258V14.7097Z" fill="black"/>
<path d="M43.3551 18.5807H38.71V23.2258H43.3551V18.5807ZM41.8067 21.6775H40.2583V20.1291H41.8067V21.6775Z" fill="black"/>
<path d="M43.3551 24.7742H38.71V29.4193H43.3551V24.7742ZM41.8067 27.8709H40.2583V26.3226H41.8067V27.8709Z" fill="black"/>
<path d="M37.1618 18.5807H32.5166V23.2258H37.1618V18.5807ZM35.6134 21.6775H34.065V20.1291H35.6134V21.6775Z" fill="black"/>
<path d="M37.1618 24.7742H32.5166V29.4193H37.1618V24.7742ZM35.6134 27.8709H34.065V26.3226H35.6134V27.8709Z" fill="black"/>
<path d="M20.1289 34.0646H24.7741V35.613H20.1289V34.0646Z" fill="black"/>
<path d="M26.3223 34.0646H27.8707V35.613H26.3223V34.0646Z" fill="black"/>
</svg>
