<svg width="48" height="48" viewBox="0 0 48 48" fill="none" xmlns="http://www.w3.org/2000/svg">
<path d="M42.7497 22.5H5.24976C3.5929 22.5 2.24976 23.8432 2.24976 25.5V35.25C2.24976 36.9069 3.5929 38.25 5.24976 38.25H42.7497C44.4066 38.25 45.7497 36.9069 45.7497 35.25V25.5C45.7497 23.8432 44.4066 22.5 42.7497 22.5Z" fill="#04CE78"/>
<path d="M5.24983 22.5C4.67965 22.501 4.12176 22.6657 3.64258 22.9747C3.85216 23.36 4.01122 23.7706 4.11583 24.1965C4.1909 24.6101 4.22954 25.0294 4.23133 25.4497C4.23331 26.1171 4.31055 26.782 4.46158 27.432C5.08183 29.8065 6.62233 31.2248 8.58061 31.2248C11.738 31.2368 12.6306 28.2067 13.0911 26.337C13.55 28.2067 14.4448 31.2375 17.6016 31.2248C19.5614 31.2248 21.1011 29.8065 21.7206 27.432C21.8721 26.7811 21.9499 26.1151 21.9523 25.4467C21.9533 25.0275 21.9914 24.6091 22.0663 24.1965C22.2225 23.596 22.4715 23.0236 22.8043 22.5H5.24983Z" fill="#01BDB2"/>
<path d="M13.0912 12.7297C7.64992 6.44991 0.419944 12.2999 2.6722 18.2534C3.4222 20.2581 5.10595 21.7537 5.57995 23.8679C5.81694 24.9247 5.63844 26.0032 5.91294 27.0531C6.26319 28.3919 7.07097 29.7614 8.64441 29.7239C12.1852 29.6399 11.1652 23.5799 13.0912 23.3556C15.0179 23.5807 13.9979 29.6399 17.5387 29.7239C19.1137 29.7614 19.92 28.3919 20.2702 27.0531C20.544 26.0032 20.3662 24.9247 20.6032 23.8679C21.0772 21.7537 22.7587 20.2581 23.511 18.2534C25.7624 12.2999 18.5302 6.44991 13.0912 12.7297Z" fill="#E4F4FD"/>
<path d="M42.7498 22.5H25.1953C25.5279 23.0234 25.7766 23.5956 25.9325 24.1958C26.008 24.6085 26.0464 25.0271 26.0473 25.4467C26.0498 26.1148 26.1273 26.7805 26.2783 27.4312C26.8986 29.8065 28.4383 31.2248 30.398 31.2248C33.5555 31.2368 34.4481 28.2067 34.9085 26.337C35.3675 28.2067 36.2586 31.2375 39.419 31.2248C41.4066 31.2248 42.9081 29.8425 43.5388 27.4312C43.6892 26.7815 43.7662 26.1167 43.7683 25.4497C43.7701 25.0294 43.8088 24.6101 43.8838 24.1965C43.9884 23.7706 44.1474 23.36 44.3571 22.9747C43.8779 22.6657 43.32 22.501 42.7498 22.5Z" fill="#01BDB2"/>
<path d="M34.9087 12.7297C29.4697 6.44991 22.2375 12.2999 24.489 18.2534C25.239 20.2581 26.9227 21.7537 27.3967 23.8679C27.6337 24.9247 27.4559 26.0032 27.7297 27.0531C28.0799 28.3919 28.8877 29.7614 30.4612 29.7239C34.002 29.6399 32.982 23.5799 34.9087 23.3556C36.8347 23.5807 35.8147 29.6399 39.3555 29.7239C40.9304 29.7614 41.7367 28.3919 42.087 27.0531C42.3615 26.0032 42.183 24.9247 42.4199 23.8679C42.894 21.7537 44.5755 20.2581 45.3277 18.2534C47.5799 12.2999 40.35 6.44991 34.9087 12.7297Z" fill="#E4F4FD"/>
<path d="M14.9998 17.25H11.2497C10.8355 17.25 10.4998 17.5858 10.4998 18V19.5C10.4998 19.9143 10.8355 20.25 11.2497 20.25H14.9998C15.4139 20.25 15.7497 19.9143 15.7497 19.5V18C15.7497 17.5858 15.4139 17.25 14.9998 17.25Z" fill="#00B6A7"/>
<path d="M36.7498 17.25H32.9998C32.5856 17.25 32.2498 17.5858 32.2498 18V19.5C32.2498 19.9143 32.5856 20.25 32.9998 20.25H36.7498C37.164 20.25 37.4998 19.9143 37.4998 19.5V18C37.4998 17.5858 37.164 17.25 36.7498 17.25Z" fill="#00B6A7"/>
<path d="M3.39062 21.105C3.58936 21.4088 3.77836 21.705 3.95912 22.005C3.24016 22.2649 2.61856 22.7397 2.17862 23.3649C1.73869 23.9901 1.50172 24.7355 1.49986 25.5V35.25C1.50106 36.2442 1.89653 37.1973 2.59953 37.9003C3.30253 38.6033 4.25567 38.9988 5.24986 39H42.7498C43.7441 38.9988 44.6972 38.6033 45.4002 37.9003C46.1032 37.1973 46.4986 36.2442 46.4999 35.25V25.5C46.4991 24.7304 46.2595 23.9801 45.8144 23.3524C45.3693 22.7247 44.7403 22.2505 44.0144 21.9952C44.1929 21.6997 44.3796 21.405 44.5754 21.105C45.1427 20.298 45.6191 19.4307 45.9959 18.5189C46.5852 17.0161 46.6262 15.3537 46.1118 13.8236C45.5973 12.2935 44.5602 10.9935 43.1826 10.152C41.0631 8.88823 37.8321 8.67449 34.8749 11.6288C31.9176 8.67449 28.6858 8.88974 26.5671 10.152C25.452 10.8306 24.5552 11.8151 23.9834 12.9885C23.4111 11.8153 22.5144 10.831 21.3996 10.152C19.2801 8.88898 16.0483 8.67449 13.0911 11.6288C10.1338 8.67374 6.90214 8.89049 4.78336 10.152C3.40605 10.9932 2.36908 12.2927 1.85449 13.8224C1.33989 15.352 1.38056 17.0141 1.96936 18.5168C2.34621 19.4292 2.82286 20.2973 3.39062 21.105ZM44.9999 25.5V35.25C44.9999 35.8467 44.7628 36.419 44.3408 36.841C43.9189 37.263 43.3466 37.5 42.7498 37.5H5.24986C4.65313 37.5 4.08083 37.263 3.65888 36.841C3.23691 36.419 2.99986 35.8467 2.99986 35.25V25.5C3.00149 25.0127 3.16212 24.5392 3.45735 24.1515C3.75258 23.7638 4.16628 23.4831 4.63561 23.352C4.72223 23.5735 4.79316 23.8008 4.84786 24.0322C4.93441 24.4915 4.97884 24.9577 4.98062 25.425C4.98099 26.0375 5.05017 26.6481 5.18687 27.2452C5.72536 29.304 6.95988 30.4755 8.58063 30.4777C11.2319 30.4777 11.9279 27.9157 12.3906 26.0528C12.5549 25.4055 12.7424 24.1448 13.0911 24.144C13.4399 24.1432 13.6274 25.4063 13.7923 26.0528C14.2551 27.9149 14.9511 30.4777 17.6016 30.4777C19.2239 30.4777 20.4576 29.304 20.9954 27.2452C21.1325 26.6474 21.2022 26.0361 21.2031 25.4227C21.2046 24.9572 21.2485 24.4928 21.3344 24.0352C21.3957 23.7673 21.4782 23.5048 21.5811 23.25H26.3849C26.4876 23.5038 26.5701 23.7654 26.6316 24.0322C26.718 24.4902 26.7624 24.9551 26.7643 25.4212C26.764 26.0341 26.8332 26.645 26.9706 27.2423C27.5091 29.301 28.7436 30.4725 30.3643 30.4747C33.0156 30.4747 33.7109 27.9128 34.1736 26.0497C34.3386 25.4032 34.5254 24.141 34.8749 24.141C35.2243 24.141 35.4111 25.4032 35.5761 26.0497C36.0389 27.912 36.7341 30.4747 39.3854 30.4747C41.0061 30.4747 42.2406 29.301 42.7791 27.2423C42.9158 26.6451 42.985 26.0345 42.9854 25.422C42.9873 24.9557 43.0317 24.4905 43.1181 24.0322C43.1732 23.7968 43.2453 23.5657 43.3341 23.3408C43.8113 23.466 44.2336 23.7459 44.535 24.1365C44.8363 24.5271 44.9998 25.0066 44.9999 25.5ZM14.9999 21C15.3977 21 15.7792 20.8419 16.0605 20.5607C16.3418 20.2793 16.4999 19.8978 16.4999 19.5H22.0341C21.8736 19.7602 21.7079 20.0205 21.5346 20.286C20.7774 21.3147 20.2149 22.4733 19.8749 23.7045C19.767 24.2517 19.7107 24.808 19.7069 25.3657C19.709 25.8701 19.6557 26.3731 19.5479 26.8657C19.2929 27.8408 18.7611 29.0092 17.5596 28.977C16.1834 28.9395 15.7514 27.6517 15.2496 25.6829C14.8746 24.2227 14.4891 22.608 13.0949 22.608C11.7006 22.608 11.3121 24.222 10.9409 25.6829C10.4323 27.6712 10.0018 28.9732 8.5881 28.9777C7.43761 28.9777 6.8946 27.8325 6.64262 26.8657C6.53493 26.3748 6.4816 25.8736 6.48361 25.3709C6.47945 24.8122 6.42296 24.255 6.31487 23.7067C5.97337 22.4744 5.40907 21.315 4.64986 20.286C4.47736 20.0205 4.31087 19.761 4.15037 19.5H9.74984C9.74984 19.8978 9.9079 20.2793 10.1892 20.5607C10.4705 20.8419 10.8521 21 11.2498 21H14.9999ZM11.2498 19.5V18H14.9999V19.5H11.2498ZM36.7498 21C37.1477 21 37.5292 20.8419 37.8105 20.5607C38.0919 20.2793 38.2498 19.8978 38.2498 19.5H43.8178C43.6574 19.7602 43.4916 20.0205 43.3184 20.286C42.56 21.3142 41.9962 22.4726 41.6549 23.7037C41.5468 24.252 41.4903 24.8092 41.4861 25.368C41.488 25.8705 41.4349 26.3717 41.3279 26.8627C41.0721 27.8377 40.5089 29.0265 39.3396 28.974C37.9634 28.9417 37.5313 27.6488 37.0296 25.68C36.6546 24.2197 36.2691 22.605 34.8749 22.605C33.4806 22.605 33.0921 24.219 32.7201 25.68C32.2184 27.6488 31.7864 28.9417 30.4101 28.974C29.2341 29.0303 28.6776 27.8415 28.4218 26.8627C28.3146 26.3715 28.2612 25.87 28.2629 25.3672C28.2593 24.8087 28.2031 24.2517 28.0949 23.7037C27.7535 22.4726 27.1897 21.3142 26.4314 20.286C26.2589 20.0205 26.0923 19.761 25.9319 19.5H31.4999C31.4999 19.8978 31.6579 20.2793 31.9392 20.5607C32.2205 20.8419 32.602 21 32.9999 21H36.7498ZM32.9999 19.5V18H36.7498V19.5H32.9999ZM27.3344 11.4405C29.5776 10.104 32.1854 10.7655 34.3094 13.2202C34.5481 13.854 34.9865 14.3929 35.5583 14.7556C36.1302 15.1184 36.8046 15.2852 37.4796 15.2309C37.6785 15.2309 37.8693 15.152 38.01 15.0113C38.1506 14.8707 38.2296 14.6799 38.2296 14.481C38.2296 14.2821 38.1506 14.0913 38.01 13.9507C37.8693 13.81 37.6785 13.7309 37.4796 13.7309C37.1399 13.7843 36.792 13.7253 36.4889 13.5628C36.1858 13.4004 35.9441 13.1434 35.8003 12.8309C37.8538 10.7017 40.3003 10.1768 42.4169 11.4397C43.4929 12.1029 44.3005 13.1244 44.6977 14.3243C45.0948 15.5242 45.056 16.8258 44.5881 18H38.2498C38.2498 17.6021 38.0919 17.2206 37.8105 16.9393C37.5292 16.658 37.1477 16.5 36.7498 16.5H32.9999C32.602 16.5 32.2205 16.658 31.9392 16.9393C31.6579 17.2206 31.4999 17.6021 31.4999 18H25.1624C24.6943 16.8259 24.6555 15.5242 25.0528 14.3244C25.4501 13.1244 26.2581 12.1032 27.3344 11.4405ZM24.2061 19.5C24.5061 20.0625 24.8399 20.5912 25.1744 21.105C25.3161 21.3225 25.4541 21.5362 25.5883 21.75H22.3776C22.5119 21.5362 22.6498 21.3225 22.7916 21.105C23.1261 20.5912 23.4629 20.0625 23.7599 19.5H24.2061ZM5.54986 11.4405C7.77286 10.1152 10.3498 10.7595 12.4641 13.1565C12.6929 13.8067 13.1304 14.3629 13.7085 14.7382C14.2867 15.1135 14.9729 15.2868 15.6599 15.2309C15.8588 15.2309 16.0496 15.152 16.1902 15.0113C16.3308 14.8707 16.4098 14.6799 16.4098 14.481C16.4098 14.2821 16.3308 14.0913 16.1902 13.9507C16.0496 13.81 15.8588 13.7309 15.6599 13.7309C15.3247 13.7838 14.9814 13.727 14.6812 13.5691C14.3809 13.4111 14.1396 13.1604 13.9934 12.8543C16.0506 10.7077 18.5024 10.1722 20.6309 11.4405C21.7072 12.1032 22.5153 13.1244 22.9129 14.3242C23.3104 15.524 23.272 16.8256 22.8043 18H16.4999C16.4999 17.6021 16.3418 17.2206 16.0605 16.9393C15.7792 16.658 15.3977 16.5 14.9999 16.5H11.2498C10.8521 16.5 10.4705 16.658 10.1892 16.9393C9.9079 17.2206 9.74984 17.6021 9.74984 18H3.37487C2.90705 16.8255 2.86871 15.5237 3.26658 14.3237C3.66446 13.1238 4.47303 12.1027 5.54986 11.4405Z" fill="#1E120B"/>
</svg>
