<svg width="55" height="49" viewBox="0 0 55 49" fill="none" xmlns="http://www.w3.org/2000/svg">
<path fill-rule="evenodd" clip-rule="evenodd" d="M0.779297 8.52245C0.779297 8.23589 0.996946 7.99609 1.28217 7.96848C6.61408 7.42808 11.2634 5.07279 14.8027 2.54517H26.4214C29.9606 5.07279 34.6099 7.42808 39.9417 7.96937C40.2265 7.99698 40.4437 8.23633 40.4437 8.52245C40.4447 11.3811 40.4447 25.3431 40.4447 25.3431C40.4447 36.5252 29.0955 45.9198 20.612 48.1951C12.1311 45.9198 0.779297 36.5252 0.779297 25.3431V8.52245Z" fill="#22F1DC"/>
<path fill-rule="evenodd" clip-rule="evenodd" d="M20.612 43.9262C28.1242 41.575 36.4856 33.5714 36.4856 25.341V11.4784C32.4334 10.74 28.6206 9.01132 25.2086 6.698H16.018C12.6034 9.01132 8.79058 10.74 4.7384 11.4784V25.341C4.7384 33.569 13.0998 41.575 20.612 43.9262Z" fill="#22F1DC"/>
<path fill-rule="evenodd" clip-rule="evenodd" d="M16.1413 29.391H9.88856C9.74093 29.391 9.59932 29.3325 9.4949 29.2281C9.39058 29.1236 9.33191 28.982 9.33191 28.8344C9.33191 27.2303 9.33191 22.6103 9.33191 21.0061C9.33191 20.8585 9.39058 20.7169 9.4949 20.6125C9.59932 20.5082 9.74093 20.4495 9.88856 20.4495H16.1413V14.1968C16.1413 14.0492 16.1999 13.9076 16.3043 13.8031C16.4087 13.6988 16.5503 13.6401 16.6979 13.6401H24.5262C24.6738 13.6401 24.8154 13.6988 24.9198 13.8031C25.0243 13.9076 25.0828 14.0492 25.0828 14.1968V20.4495H31.3355C31.4833 20.4495 31.6248 20.5082 31.7292 20.6125C31.8336 20.7169 31.8922 20.8585 31.8922 21.0061V28.8344C31.8922 28.982 31.8336 29.1236 31.7292 29.2281C31.6248 29.3325 31.4833 29.391 31.3355 29.391C29.7098 29.391 25.0828 29.391 25.0828 29.391V35.6438C25.0828 35.7915 25.0243 35.933 24.9198 36.0374C24.8154 36.1418 24.6738 36.2004 24.5262 36.2004C22.922 36.2004 18.3021 36.2004 16.6979 36.2004C16.5503 36.2004 16.4087 36.1418 16.3043 36.0374C16.1999 35.933 16.1413 35.7915 16.1413 35.6438C16.1413 34.018 16.1413 29.391 16.1413 29.391Z" fill="#C6EA94"/>
<path fill-rule="evenodd" clip-rule="evenodd" d="M46.6741 16.0399L48.9551 16.0404C48.9551 16.0404 48.9559 12.328 48.9561 10.8932C48.9562 10.5858 48.7071 10.3364 48.3997 10.3364C48.0448 10.3363 47.5868 10.3362 47.2319 10.3362C46.9245 10.3361 46.6752 10.5852 46.6752 10.8927C46.6749 12.3274 46.6741 16.0399 46.6741 16.0399Z" fill="#CAD0D7"/>
<path fill-rule="evenodd" clip-rule="evenodd" d="M44.5424 36.5985L51.0784 36.5999L51.0826 16.0842C51.083 14.2879 49.6129 12.8145 47.8167 12.8142C46.0177 12.8138 44.5469 14.2865 44.5466 16.0828L44.5424 36.5985Z" fill="#F96363"/>
<path fill-rule="evenodd" clip-rule="evenodd" d="M46.3824 45.8358L49.2344 45.8363L49.2363 36.4969L46.3843 36.4963L46.3824 45.8358Z" fill="#CAD0D7"/>
<path fill-rule="evenodd" clip-rule="evenodd" d="M42.8346 38.0172L52.7855 38.0193C53.5691 38.0194 54.2102 37.376 54.2104 36.5923C54.2105 35.8087 53.5697 35.1675 52.786 35.1674L42.8352 35.1653C42.0515 35.1652 41.4105 35.806 41.4103 36.5896C41.4102 37.3733 42.051 38.0171 42.8346 38.0172Z" fill="#E4E8EB"/>
<path fill-rule="evenodd" clip-rule="evenodd" d="M44.4836 47.3544L51.1327 47.3557C51.9164 47.3559 52.5575 46.7151 52.5576 45.9314C52.5578 45.1477 51.917 44.5067 51.1333 44.5065L44.4841 44.5051C43.7005 44.5049 43.0594 45.1457 43.0592 45.9295C43.0591 46.7131 43.6999 47.3542 44.4836 47.3544Z" fill="#A9B0BB"/>
<path fill-rule="evenodd" clip-rule="evenodd" d="M45.6046 38.3228L42.8345 38.3222C41.6225 38.3219 40.6307 37.327 40.631 36.1151C40.6313 34.9027 41.623 33.9113 42.8354 33.9116L43.7634 33.9118L43.7672 15.6082C43.7676 14.0766 44.6304 12.7345 45.8955 12.0477L45.896 9.86159C45.896 9.43119 46.245 9.0824 46.6754 9.08251H47.038L47.0395 1.27908C47.0396 0.849018 47.3889 0.499889 47.8191 0.5C48.2491 0.500111 48.5983 0.849352 48.5981 1.27942L48.5966 9.08284L48.9564 9.08295C49.3868 9.08307 49.7356 9.43197 49.7356 9.86237L49.735 12.048C50.9993 12.735 51.8622 14.0779 51.8619 15.6099L51.8581 33.9135L52.7861 33.9137C53.9985 33.9139 54.9899 34.9056 54.9897 36.118C54.9895 37.3301 53.9973 38.3244 52.7852 38.3242L50.0151 38.3237L50.0141 43.2526L51.1334 43.2528C52.3458 43.2531 53.3371 44.2448 53.3369 45.4572C53.3367 46.6696 52.3448 47.6609 51.1326 47.6607L44.4834 47.6593C43.271 47.6591 42.2796 46.6673 42.2799 45.4549C42.2802 44.2425 43.2719 43.2512 44.4843 43.2514L45.6036 43.2517L45.6046 38.3228ZM52.7859 35.4723L42.8351 35.4702C42.48 35.4702 42.1897 35.7604 42.1896 36.1154C42.1896 36.4708 42.4794 36.7635 42.8348 36.7636L52.7856 36.7656C53.1409 36.7657 53.431 36.4731 53.4311 36.1177C53.4311 35.7628 53.1408 35.4723 52.7859 35.4723ZM47.4542 11.5765C47.5737 11.5657 47.6946 11.5603 47.8167 11.5604C47.938 11.5604 48.058 11.5658 48.1765 11.5764L48.1768 10.6415L47.4543 10.6412L47.4542 11.5765ZM50.2995 33.9131L50.2998 32.0381L48.23 32.0377C47.7998 32.0377 47.4507 31.6883 47.4508 31.2582C47.4509 30.8281 47.8001 30.4791 48.2302 30.4791L50.3001 30.4795L50.3005 29.1243L49.3104 29.1241C48.8804 29.1239 48.5312 28.7747 48.5313 28.3445C48.5313 27.9145 48.8807 27.5653 49.3108 27.5654L50.3008 27.5657L50.301 26.2108L48.232 26.2127C47.8019 26.213 47.4523 25.8641 47.452 25.434C47.4516 25.004 47.8005 24.6544 48.2305 24.6541L50.3014 24.6522L50.3017 23.2992L49.3117 23.299C48.8816 23.2989 48.5325 22.9496 48.5325 22.5195C48.5326 22.0894 48.8818 21.7402 49.312 21.7404L50.302 21.7406L50.3023 20.3854L48.2323 20.3849C47.8022 20.3848 47.4531 20.0356 47.4532 19.6054C47.4532 19.1753 47.8026 18.8262 48.2326 18.8263L50.3026 18.8267L50.3028 17.4714L49.3129 17.4712C48.8827 17.4711 48.5336 17.1218 48.5337 16.6918C48.5338 16.2616 48.883 15.9125 49.3132 15.9126L50.3032 15.9128L50.3033 15.6095C50.3035 14.5456 49.6256 13.631 48.6814 13.2758C48.4118 13.1744 48.1202 13.119 47.8164 13.119C47.5116 13.1189 47.2191 13.1743 46.9488 13.276C46.0038 13.6309 45.3261 14.5449 45.3258 15.6085L45.322 33.9121L50.2995 33.9131ZM48.4555 43.2522L48.4565 38.3233L47.1632 38.3231L47.1622 43.252L48.4555 43.2522ZM51.1331 44.8114L44.484 44.8101C44.1289 44.81 43.8386 45.1003 43.8385 45.4552C43.8385 45.8102 44.1287 46.1006 44.4837 46.1007L51.1328 46.102C51.4878 46.1022 51.7782 45.8119 51.7783 45.4569C51.7784 45.1019 51.488 44.8115 51.1331 44.8114ZM0.717742 6.76351C6.10687 6.33634 10.8006 3.97126 14.3497 1.4365C14.4819 1.34221 14.6403 1.29144 14.8027 1.29144H26.4214C26.5838 1.29144 26.7421 1.34221 26.8743 1.4365C30.4234 3.97126 35.1171 6.33634 40.5063 6.76351C40.9115 6.79569 41.224 7.13391 41.224 7.54037V24.8687C41.224 30.6609 38.3078 36.0007 34.2699 40.1765C30.2669 44.3162 25.1703 47.3051 20.8138 48.4734C20.6816 48.5089 20.5423 48.5089 20.4101 48.4734C16.0552 47.3051 10.9585 44.3162 6.9552 40.1765C2.91684 36.0007 0 30.6609 0 24.8687V7.54037C0 7.13391 0.312502 6.79569 0.717742 6.76351ZM1.55861 8.24932V24.8687C1.55861 30.2586 4.3177 35.2072 8.07551 39.0931C11.8066 42.9512 16.5314 45.7682 20.6121 46.9126C24.6939 45.7683 29.4187 42.9512 33.1495 39.0931C36.907 35.2072 39.6654 30.2586 39.6654 24.8687V8.24932C34.3717 7.66695 29.7391 5.36009 26.1731 2.85006H15.051C11.485 5.36009 6.85234 7.66695 1.55861 8.24932ZM20.3792 44.1956C15.7292 42.7402 10.7602 39.1891 7.53189 34.744C5.34549 31.7335 3.9591 28.3159 3.9591 24.8667V11.0041C3.9591 10.6275 4.2283 10.3049 4.59869 10.2374C8.54466 9.51848 12.2558 7.83116 15.5809 5.57841C15.7099 5.49102 15.8622 5.44437 16.018 5.44437H25.2086C25.3644 5.44437 25.5169 5.49113 25.6459 5.57863C28.9684 7.83128 32.6795 9.51848 36.6253 10.2374C36.9957 10.3049 37.2649 10.6275 37.2649 11.0041V24.8667C37.2649 28.3169 35.8785 31.7348 33.6921 34.7451C30.4638 39.19 25.4949 42.7402 20.8448 44.1956C20.6933 44.2431 20.5308 44.2431 20.3792 44.1956ZM20.612 42.6335C24.9087 41.2231 29.4548 37.927 32.4311 33.8291C34.4171 31.0947 35.7063 28.0009 35.7063 24.8667V11.6459C31.8642 10.8456 28.2404 9.18861 24.9707 7.00298H16.2558C12.9837 9.18861 9.35992 10.8456 5.51772 11.6459V24.8667C5.51772 27.9999 6.80702 31.0935 8.79303 33.8281C11.7693 37.9261 16.3155 41.2231 20.612 42.6335ZM15.3619 29.6958H9.33187C8.90147 29.6958 8.55256 29.3469 8.55256 28.9165V19.975C8.55256 19.5446 8.90147 19.1957 9.33187 19.1957H15.3619V13.1656C15.3619 12.7352 15.7108 12.3863 16.1412 12.3863H25.0828C25.5132 12.3863 25.8621 12.7352 25.8621 13.1656V19.1957H31.8921C32.3225 19.1957 32.6714 19.5446 32.6714 19.975V28.9165C32.6714 29.3469 32.3225 29.6958 31.8921 29.6958H25.8621V35.726C25.8621 36.1564 25.5132 36.5053 25.0828 36.5053H16.1412C15.7108 36.5053 15.3619 36.1564 15.3619 35.726V29.6958ZM16.9205 28.9165V34.9467H24.3035V28.9165C24.3035 28.4861 24.6524 28.1372 25.0828 28.1372H31.1128V20.7543H25.0828C24.6524 20.7543 24.3035 20.4054 24.3035 19.975V13.9449H16.9205V19.975C16.9205 20.4054 16.5716 20.7543 16.1412 20.7543H10.1112V28.1372H16.1412C16.5716 28.1372 16.9205 28.4861 16.9205 28.9165Z" fill="#1C2359"/>
</svg>
