<svg width="48" height="48" viewBox="0 0 48 48" fill="none" xmlns="http://www.w3.org/2000/svg">
<path fill-rule="evenodd" clip-rule="evenodd" d="M20.8242 34.0199C17.7313 33.1004 14.7819 32.8453 11.8987 34.5089C10.8713 35.1014 10.3907 35.6914 8.55896 35.6914H7.85547V43.7062C10.1598 43.7062 11.1952 43.7567 13.773 44.5166C16.1119 45.2049 16.7623 45.3936 19.0986 46.0819C20.9436 46.5815 22.1967 47.0598 23.4658 47.0625H23.4764C24.5755 47.0599 25.6852 46.7011 27.2011 45.6886L38.1842 37.8572C39.2885 37.0707 39.7001 35.6144 38.9885 34.461C38.2744 33.3051 36.809 33.0553 35.593 33.6585L26.2561 38.2904C26.649 36.9404 25.8658 35.5187 24.5198 35.1175L20.8242 34.0199Z" fill="#FFDCD5"/>
<path fill-rule="evenodd" clip-rule="evenodd" d="M2.50387 34.1234C1.64109 34.1234 0.9375 34.8303 0.9375 35.6913V44.4874C0.9375 45.3484 1.641 46.0553 2.50387 46.0553H6.28968C7.14983 46.0553 7.85605 45.3484 7.85605 44.4874V43.7061V35.6913C7.85605 34.8303 7.14983 34.1234 6.28968 34.1234H2.50387Z" fill="#9DE3D1"/>
<path fill-rule="evenodd" clip-rule="evenodd" d="M19.4974 11.8171L17.0762 15.2957L14.4878 11.8171H9.97461C10.2932 13.7331 11.1613 15.5641 12.579 17.0336L25.8929 29.8955L39.2068 17.0336C40.6245 15.5641 41.4926 13.7332 41.8112 11.8171H37.2954L34.7096 15.2957L32.2884 11.8171L29.9946 16.3959L25.8929 8.81958L21.7912 16.3959L19.4974 11.8171Z" fill="#FF9EB1"/>
<path fill-rule="evenodd" clip-rule="evenodd" d="M24.4092 3.49151C21.0641 0.361018 15.7784 -0.0826986 12.5794 3.23107C10.3386 5.55897 9.47053 8.79033 9.97499 11.8171H14.4882L17.0766 15.2957L19.4978 11.8171L21.7915 16.3959L25.8933 8.81958L29.995 16.3959L32.2888 11.8171L34.7099 15.2957L37.2957 11.8171H41.8116C42.3159 8.79033 41.4478 5.55897 39.2072 3.23107C36.0081 -0.0826986 30.7224 0.361112 27.3773 3.49151C25.8481 4.92119 25.9384 4.92119 24.4092 3.49151Z" fill="#FF9EB1"/>
<path d="M35.177 32.8186L27.2004 36.7756C26.9188 35.5952 26.0306 34.5893 24.7872 34.2187L21.0918 33.1212C18.4303 32.3301 14.927 31.68 11.4293 33.695C11.2128 33.8203 11.0184 33.9456 10.8467 34.0562C10.1813 34.4848 9.77413 34.7455 8.61051 34.7531C8.23861 33.8352 7.33871 33.186 6.28956 33.186H2.50386C1.12321 33.186 0 34.3099 0 35.6913V44.4873C0 45.8688 1.12321 46.9927 2.50386 46.9927H6.28965C7.61621 46.9927 8.70445 45.955 8.7877 44.6483C10.3546 44.67 11.3817 44.7887 13.5088 45.4159C14.5778 45.7304 19.6834 47.2189 20.0671 47.3303C21.3207 47.6941 22.3742 48 23.4726 48C24.7145 47.9999 26.0136 47.6088 27.7222 46.4681C27.7302 46.4628 27.7381 46.4574 27.7459 46.4517L38.7285 38.6206C40.2843 37.5125 40.7394 35.5127 39.7865 33.9682C38.845 32.4441 36.9064 31.9606 35.177 32.8186ZM6.91843 44.4873C6.91843 44.829 6.63043 45.1177 6.28956 45.1177H2.50386C2.16299 45.1177 1.87499 44.829 1.87499 44.4873V35.6913C1.87499 35.3496 2.16299 35.061 2.50386 35.061H6.28965C6.63053 35.061 6.91852 35.3496 6.91852 35.6913V44.4873H6.91843ZM37.6404 37.0937L26.6694 44.9166C24.1838 46.5728 23.13 46.2669 20.5898 45.5296C20.201 45.4167 15.1066 43.9316 14.0388 43.6173C11.7582 42.9449 10.6317 42.801 8.79351 42.7742V36.6254C10.3866 36.5823 11.1366 36.0999 11.8622 35.6325C12.0239 35.5283 12.1911 35.4206 12.3672 35.3185C14.6424 34.0077 17.0919 33.8882 20.5579 34.9185L24.2525 36.0158C25.1092 36.2712 25.6043 37.1728 25.3575 38.0243C25.3571 38.026 25.3566 38.0277 25.356 38.0294C25.104 38.8816 24.204 39.3735 23.3484 39.1253L18.0653 37.5893C17.5679 37.4447 17.0479 37.7307 16.9033 38.2278C16.7587 38.725 17.0446 39.2452 17.5418 39.3898L22.8258 40.926C24.5305 41.4198 26.3163 40.5514 27.0073 38.9643L36.0103 34.4982C36.7329 34.1397 37.7142 34.1809 38.1913 34.9532C38.6184 35.6456 38.3818 36.5658 37.6404 37.0937Z" fill="black"/>
<path d="M46.7802 10.8797H42.8655C43.0647 7.9017 42.0698 4.85259 39.8804 2.58C38.1786 0.81704 35.845 -0.0958935 33.3072 0.00798104C30.8919 0.107356 28.558 1.10138 26.7358 2.80669L26.6074 2.92678C26.3384 3.17878 26.0622 3.43753 25.892 3.56822C25.7219 3.43753 25.4457 3.17878 25.1765 2.92678L25.0486 2.80706C23.2261 1.10148 20.8922 0.107449 18.4768 0.00807479C15.9397 -0.0957998 13.6055 0.817134 11.9029 2.58075C9.71388 4.85296 8.71919 7.90189 8.91841 10.8797H5.0039C4.48612 10.8797 4.06641 11.2995 4.06641 11.8172C4.06641 12.335 4.48612 12.7547 5.0039 12.7547H9.20631C9.6445 14.5625 10.543 16.2736 11.9032 17.6844C11.9111 17.6926 11.9191 17.7007 11.9274 17.7086L13.0106 18.7529C13.3832 19.1123 13.9769 19.1014 14.3362 18.7287C14.6955 18.356 14.6848 17.7625 14.312 17.4031L13.2415 16.3709C12.236 15.324 11.5383 14.078 11.1444 12.7546H14.016L16.3233 15.8554C16.5033 16.0973 16.7885 16.2381 17.0903 16.2331C17.3918 16.2284 17.6726 16.0788 17.8449 15.8313L19.3649 13.6474L20.9521 16.8158C21.1087 17.1283 21.426 17.3277 21.7754 17.3333C21.7805 17.3334 21.7853 17.3334 21.7904 17.3334C22.1341 17.3334 22.4508 17.1451 22.6147 16.8422L25.892 10.7888L29.1693 16.8422C29.3356 17.1495 29.6613 17.3403 30.0087 17.3333C30.3582 17.3278 30.6754 17.1283 30.832 16.8158L32.4192 13.6474L33.9393 15.8313C34.1116 16.0789 34.3925 16.2284 34.6942 16.2331C34.9939 16.2362 35.2812 16.0971 35.4611 15.855L37.7658 12.7546H40.6395C40.2455 14.0782 39.5478 15.3243 38.5423 16.3713L25.892 28.592L20.363 23.2501C19.9906 22.8904 19.3972 22.9005 19.0374 23.273C18.6776 23.6454 18.6878 24.2389 19.0602 24.5986L25.2407 30.5698C25.4223 30.7453 25.6572 30.833 25.892 30.833C26.1269 30.833 26.3617 30.7453 26.5434 30.5698L39.8573 17.708C39.8653 17.7002 39.8732 17.6923 39.8809 17.6844C41.241 16.2735 42.1395 14.5624 42.5777 12.7547H46.7802C47.2979 12.7547 47.7177 12.335 47.7177 11.8172C47.7177 11.2994 47.2979 10.8797 46.7802 10.8797ZM40.9902 10.8797H37.2945C36.998 10.8797 36.719 11.0199 36.5422 11.2578L34.7337 13.6906L33.0569 11.2816C32.868 11.0102 32.5501 10.8574 32.2202 10.8821C31.8904 10.9058 31.5974 11.1016 31.4493 11.3972L29.9615 14.3671L26.7165 8.37326C26.5526 8.07063 26.2362 7.8821 25.892 7.8821C25.5479 7.8821 25.2315 8.07063 25.0676 8.37326L21.8226 14.3671L20.3348 11.3972C20.1866 11.1016 19.8937 10.9058 19.5639 10.8821C19.2332 10.8574 18.9159 11.0102 18.7271 11.2816L17.05 13.6912L15.239 11.2575C15.0621 11.0197 14.7832 10.8797 14.4869 10.8797H10.7936C10.5907 8.37429 11.4093 5.79552 13.2525 3.88218C15.9223 1.11676 20.6393 1.24857 23.7677 4.17628L23.8948 4.29524C24.6978 5.0473 25.1824 5.50124 25.892 5.50124C26.6016 5.50124 27.0862 5.0473 27.8892 4.29524L28.0166 4.17599C31.1448 1.24848 35.8617 1.11676 38.5308 3.88153C40.3744 5.79514 41.193 8.3742 40.9902 10.8797Z" fill="black"/>
<path d="M16.2718 21.8424C16.4061 21.9095 16.5486 21.9413 16.6887 21.9413C17.0322 21.9413 17.3625 21.7506 17.527 21.4217C17.7585 20.9586 17.5681 20.3941 17.1051 20.1625C16.642 19.931 16.0788 20.1187 15.8472 20.5818C15.6157 21.0449 15.8034 21.6081 16.2665 21.8396L16.2718 21.8424Z" fill="black"/>
</svg>
