<svg xmlns="http://www.w3.org/2000/svg" viewBox="0 0 48 48" width="48" height="48"><circle cx="24" cy="24" r="24" fill="#000"/><path d="M33.2 16.7h-3c-1 0-1.5.3-1.5.3l-4 6.5h-.2l-4-6.5s-.5-.3-1.5-.3h-3l7 11.1v.1L16 37.3h3c1 0 1.5-.3 1.5-.3l4.5-7.3h.2l4.5 7.3s.5.3 1.5.3h3l-7.2-11.5 7.2-9.1z" fill="#fff" transform="translate(0 -4) scale(0.85) translate(4 4)"/><path d="M15 13h4.5l5 7.5L29.5 13H34l-7 10.5L34 34h-4.5l-5.5-8L18.5 34H14l7.5-10.5z" fill="#fff" transform="translate(0 0) scale(0.58) translate(10 10)"/></svg>
