<svg xmlns="http://www.w3.org/2000/svg" viewBox="0 0 48 48" width="48" height="48"><circle cx="24" cy="24" r="24" fill="#25D366"/><path d="M24 13c-6.1 0-11 4.9-11 11 0 1.9.5 3.8 1.5 5.4L13 35l5.8-1.5c1.6.9 3.4 1.3 5.2 1.3 6.1 0 11-4.9 11-11s-4.9-11-11-11zm5.8 15.3c-.3.7-1.5 1.4-2.1 1.5-.6.1-1.1.2-3.5-.7-2.9-1.2-4.8-4.2-4.9-4.4-.1-.2-1.1-1.5-1.1-2.8 0-1.3.7-2 .9-2.2.3-.3.6-.3.7-.3h.6c.2 0 .4 0 .6.5.2.5.8 1.9.9 2 .1.2.1.3 0 .5s-.2.3-.3.5c-.2.2-.3.3-.5.5-.2.2-.4.4-.2.7.2.4.9 1.5 2 2.4 1.3 1.1 2.4 1.5 2.8 1.6.3.2.5.1.7-.1.2-.2.8-1 1.1-1.3.2-.3.5-.3.8-.2.3.1 1.8.8 2.1 1 .3.2.5.2.6.3.1.2.1.9-.2 1.5z" fill="#fff"/></svg>
