<svg width="259" height="48" viewBox="0 0 259 48" fill="none" xmlns="http://www.w3.org/2000/svg">
<path d="M26.86 17.8273V31.1546H13.4389H6.71054C3.01522 31.1546 0 28.1782 0 24.491C0 20.8199 3.01522 17.8273 6.71054 17.8273H13.4389V11.1637C13.4389 7.47646 16.4363 4.5 20.1494 4.5C23.8626 4.5 26.86 7.47646 26.86 11.1637V17.8273Z" fill="#F96363"/>
<path d="M26.8599 17.8271H33.5705C37.2836 17.8271 40.2988 20.8213 40.2988 24.4908C40.2988 28.178 37.2836 31.1544 33.5705 31.1544H26.8599V37.8357C26.8599 41.5053 23.8625 44.4995 20.1493 44.4995C16.4362 44.4995 13.4388 41.5053 13.4388 37.8357V31.1544C13.4388 23.8315 19.4838 17.8271 26.8599 17.8271Z" fill="#1C2359"/>
<path d="M50.6028 24V1.504H53.6748L62.7948 16.096H61.0348L70.1228 1.504H73.1948V24H68.8748V8.96L69.7068 9.216L63.3708 19.392H60.4268L54.0908 9.216L54.9548 8.96V24H50.6028ZM85.3743 24.32C83.753 24.32 82.313 23.9787 81.0543 23.296C79.7956 22.592 78.793 21.632 78.0463 20.416C77.321 19.2 76.9583 17.8133 76.9583 16.256C76.9583 14.72 77.3103 13.3547 78.0143 12.16C78.7396 10.944 79.721 9.984 80.9583 9.28C82.1956 8.55467 83.5716 8.192 85.0863 8.192C86.5796 8.192 87.8916 8.53333 89.0223 9.216C90.1743 9.87733 91.0703 10.7947 91.7103 11.968C92.3716 13.12 92.7023 14.432 92.7023 15.904C92.7023 16.1813 92.681 16.4693 92.6383 16.768C92.617 17.0453 92.5636 17.3653 92.4783 17.728L79.4863 17.76V14.624L90.5263 14.592L88.8303 15.904C88.7876 14.9867 88.617 14.2187 88.3183 13.6C88.041 12.9813 87.625 12.512 87.0703 12.192C86.537 11.8507 85.8756 11.68 85.0863 11.68C84.2543 11.68 83.529 11.872 82.9103 12.256C82.2916 12.6187 81.8116 13.1413 81.4703 13.824C81.1503 14.4853 80.9903 15.2747 80.9903 16.192C80.9903 17.1307 81.161 17.952 81.5023 18.656C81.865 19.3387 82.377 19.872 83.0383 20.256C83.6996 20.6187 84.4676 20.8 85.3423 20.8C86.1316 20.8 86.8463 20.672 87.4863 20.416C88.1263 20.1387 88.681 19.7333 89.1503 19.2L91.6143 21.664C90.8676 22.5387 89.9503 23.2 88.8623 23.648C87.7956 24.096 86.633 24.32 85.3743 24.32ZM102.463 24.32C101.033 24.32 99.7535 23.968 98.6228 23.264C97.4921 22.56 96.5961 21.6 95.9348 20.384C95.2948 19.168 94.9748 17.8027 94.9748 16.288C94.9748 14.752 95.2948 13.376 95.9348 12.16C96.5961 10.944 97.4815 9.984 98.5908 9.28C99.7215 8.576 101.012 8.224 102.463 8.224C103.572 8.224 104.564 8.448 105.439 8.896C106.335 9.344 107.049 9.97333 107.583 10.784C108.137 11.5733 108.436 12.4693 108.479 13.472V18.976C108.436 19.9787 108.148 20.8853 107.615 21.696C107.081 22.5067 106.367 23.1467 105.471 23.616C104.575 24.0853 103.572 24.32 102.463 24.32ZM103.167 20.448C103.956 20.448 104.639 20.2773 105.215 19.936C105.812 19.5733 106.271 19.0827 106.591 18.464C106.932 17.824 107.103 17.088 107.103 16.256C107.103 15.4453 106.932 14.7307 106.591 14.112C106.271 13.472 105.812 12.9813 105.215 12.64C104.639 12.2773 103.967 12.096 103.199 12.096C102.409 12.096 101.716 12.2773 101.119 12.64C100.543 13.0027 100.084 13.4933 99.7428 14.112C99.4228 14.7307 99.2628 15.4453 99.2628 16.256C99.2628 17.088 99.4228 17.824 99.7428 18.464C100.084 19.0827 100.553 19.5733 101.151 19.936C101.748 20.2773 102.42 20.448 103.167 20.448ZM111.039 24H106.879V19.84L107.551 16.064L106.847 12.352V0.863998H111.039V24ZM122.651 24.32C121.094 24.32 119.686 23.968 118.427 23.264C117.19 22.5387 116.198 21.568 115.451 20.352C114.726 19.1147 114.363 17.7387 114.363 16.224C114.363 14.7093 114.726 13.3547 115.451 12.16C116.177 10.944 117.169 9.984 118.427 9.28C119.686 8.55467 121.083 8.192 122.619 8.192C124.198 8.192 125.606 8.55467 126.843 9.28C128.102 9.984 129.094 10.944 129.819 12.16C130.545 13.3547 130.907 14.7093 130.907 16.224C130.907 17.7387 130.545 19.1147 129.819 20.352C129.094 21.568 128.102 22.5387 126.843 23.264C125.606 23.968 124.209 24.32 122.651 24.32ZM122.619 20.416C123.409 20.416 124.102 20.2453 124.699 19.904C125.318 19.5413 125.787 19.0507 126.107 18.432C126.449 17.792 126.619 17.0667 126.619 16.256C126.619 15.4453 126.449 14.7307 126.107 14.112C125.766 13.4933 125.297 13.0133 124.699 12.672C124.102 12.3093 123.409 12.128 122.619 12.128C121.851 12.128 121.169 12.3093 120.571 12.672C119.974 13.0133 119.505 13.4933 119.163 14.112C118.822 14.7307 118.651 15.4453 118.651 16.256C118.651 17.0667 118.822 17.792 119.163 18.432C119.505 19.0507 119.974 19.5413 120.571 19.904C121.169 20.2453 121.851 20.416 122.619 20.416ZM138.801 24L131.985 8.544H136.593L141.489 21.28H139.217L144.145 8.544H148.593L141.809 24H138.801ZM157.163 24.32C155.755 24.32 154.485 23.968 153.355 23.264C152.224 22.56 151.339 21.6 150.699 20.384C150.059 19.168 149.739 17.8027 149.739 16.288C149.739 14.752 150.059 13.376 150.699 12.16C151.339 10.944 152.224 9.984 153.355 9.28C154.485 8.576 155.755 8.224 157.163 8.224C158.272 8.224 159.264 8.448 160.139 8.896C161.013 9.344 161.707 9.97333 162.219 10.784C162.752 11.5733 163.04 12.4693 163.083 13.472V19.04C163.04 20.064 162.752 20.9707 162.219 21.76C161.707 22.5493 161.013 23.1787 160.139 23.648C159.264 24.096 158.272 24.32 157.163 24.32ZM157.931 20.448C159.104 20.448 160.053 20.064 160.779 19.296C161.504 18.5067 161.867 17.4933 161.867 16.256C161.867 15.4453 161.696 14.7307 161.355 14.112C161.035 13.472 160.576 12.9813 159.979 12.64C159.403 12.2773 158.72 12.096 157.931 12.096C157.163 12.096 156.48 12.2773 155.883 12.64C155.307 12.9813 154.848 13.472 154.507 14.112C154.187 14.7307 154.027 15.4453 154.027 16.256C154.027 17.088 154.187 17.824 154.507 18.464C154.848 19.0827 155.307 19.5733 155.883 19.936C156.48 20.2773 157.163 20.448 157.931 20.448ZM161.643 24V19.84L162.315 16.064L161.643 12.352V8.544H165.803V24H161.643ZM187.921 24.32C186.278 24.32 184.753 24.032 183.345 23.456C181.937 22.8587 180.7 22.0373 179.633 20.992C178.588 19.9253 177.777 18.688 177.201 17.28C176.646 15.872 176.369 14.3573 176.369 12.736C176.369 11.1147 176.646 9.6 177.201 8.192C177.777 6.784 178.588 5.55733 179.633 4.512C180.7 3.46667 181.926 2.64533 183.313 2.048C184.721 1.45067 186.257 1.152 187.921 1.152C189.713 1.152 191.292 1.45067 192.657 2.048C194.022 2.624 195.228 3.424 196.273 4.448L193.329 7.392C192.71 6.70933 191.953 6.176 191.057 5.792C190.161 5.408 189.116 5.216 187.921 5.216C186.876 5.216 185.916 5.39733 185.041 5.76C184.188 6.10133 183.441 6.61333 182.801 7.296C182.161 7.95733 181.67 8.75733 181.329 9.696C180.988 10.6133 180.817 11.6267 180.817 12.736C180.817 13.8667 180.988 14.8907 181.329 15.808C181.67 16.7253 182.161 17.5253 182.801 18.208C183.441 18.8693 184.188 19.3813 185.041 19.744C185.916 20.1067 186.876 20.288 187.921 20.288C189.18 20.288 190.257 20.096 191.153 19.712C192.07 19.328 192.838 18.784 193.457 18.08L196.401 21.024C195.356 22.0693 194.14 22.88 192.753 23.456C191.366 24.032 189.756 24.32 187.921 24.32ZM199.619 24V0.863998H203.811V24H199.619ZM208.165 24V8.544H212.389V24H208.165ZM210.277 6.048C209.594 6.048 209.029 5.824 208.581 5.376C208.133 4.90667 207.909 4.33067 207.909 3.648C207.909 2.98667 208.133 2.42133 208.581 1.952C209.029 1.48267 209.594 1.248 210.277 1.248C210.981 1.248 211.546 1.48267 211.973 1.952C212.421 2.42133 212.645 2.98667 212.645 3.648C212.645 4.33067 212.421 4.90667 211.973 5.376C211.546 5.824 210.981 6.048 210.277 6.048ZM227.142 24V15.136C227.142 14.2187 226.854 13.472 226.278 12.896C225.702 12.32 224.956 12.032 224.038 12.032C223.441 12.032 222.908 12.16 222.438 12.416C221.969 12.672 221.596 13.0347 221.318 13.504C221.062 13.9733 220.934 14.5173 220.934 15.136L219.302 14.304C219.302 13.088 219.558 12.032 220.07 11.136C220.604 10.2187 221.329 9.504 222.246 8.992C223.185 8.48 224.241 8.224 225.414 8.224C226.545 8.224 227.558 8.512 228.454 9.088C229.35 9.64267 230.054 10.3787 230.566 11.296C231.078 12.192 231.334 13.1627 231.334 14.208V24H227.142ZM216.742 24V8.544H220.934V24H216.742ZM235.351 24V8.544H239.575V24H235.351ZM237.463 6.048C236.78 6.048 236.215 5.824 235.767 5.376C235.319 4.90667 235.095 4.33067 235.095 3.648C235.095 2.98667 235.319 2.42133 235.767 1.952C236.215 1.48267 236.78 1.248 237.463 1.248C238.167 1.248 238.732 1.48267 239.159 1.952C239.607 2.42133 239.831 2.98667 239.831 3.648C239.831 4.33067 239.607 4.90667 239.159 5.376C238.732 5.824 238.167 6.048 237.463 6.048ZM251.225 24.32C249.646 24.32 248.227 23.968 246.969 23.264C245.71 22.56 244.718 21.6 243.993 20.384C243.267 19.168 242.905 17.8027 242.905 16.288C242.905 14.752 243.267 13.376 243.993 12.16C244.718 10.944 245.71 9.984 246.969 9.28C248.249 8.55467 249.667 8.192 251.225 8.192C252.441 8.192 253.561 8.416 254.585 8.864C255.609 9.312 256.494 9.952 257.241 10.784L254.553 13.504C254.147 13.056 253.657 12.7147 253.081 12.48C252.526 12.2453 251.907 12.128 251.225 12.128C250.457 12.128 249.763 12.3093 249.145 12.672C248.547 13.0133 248.067 13.4933 247.705 14.112C247.363 14.7093 247.193 15.424 247.193 16.256C247.193 17.0667 247.363 17.792 247.705 18.432C248.067 19.0507 248.547 19.5413 249.145 19.904C249.763 20.2453 250.457 20.416 251.225 20.416C251.929 20.416 252.558 20.2987 253.113 20.064C253.689 19.808 254.179 19.4453 254.585 18.976L257.305 21.696C256.515 22.5493 255.609 23.2 254.585 23.648C253.561 24.096 252.441 24.32 251.225 24.32Z" fill="#1C2359"/>
<path d="M56.0715 38.2727C56.0033 37.697 55.7268 37.25 55.242 36.9318C54.7571 36.6136 54.1624 36.4545 53.4579 36.4545C52.9427 36.4545 52.492 36.5379 52.1056 36.7045C51.723 36.8712 51.4238 37.1004 51.2079 37.392C50.9958 37.6837 50.8897 38.0152 50.8897 38.3864C50.8897 38.697 50.9636 38.964 51.1113 39.1875C51.2628 39.4072 51.456 39.5909 51.6908 39.7386C51.9257 39.8826 52.1719 40.0019 52.4295 40.0966C52.6871 40.1875 52.9238 40.2614 53.1397 40.3182L54.3215 40.6364C54.6246 40.7159 54.9617 40.8258 55.3329 40.9659C55.7079 41.1061 56.0658 41.2973 56.4068 41.5398C56.7514 41.7784 57.0355 42.0852 57.259 42.4602C57.4825 42.8352 57.5943 43.2955 57.5943 43.8409C57.5943 44.4697 57.4295 45.0379 57.0999 45.5455C56.7742 46.053 56.2969 46.4564 55.6681 46.7557C55.0431 47.0549 54.2836 47.2045 53.3897 47.2045C52.5564 47.2045 51.8348 47.0701 51.2249 46.8011C50.6189 46.5322 50.1416 46.1572 49.7931 45.6761C49.4484 45.1951 49.2533 44.6364 49.2079 44H50.6624C50.7003 44.4394 50.848 44.803 51.1056 45.0909C51.367 45.375 51.6965 45.5871 52.0943 45.7273C52.4958 45.8636 52.9276 45.9318 53.3897 45.9318C53.9276 45.9318 54.4105 45.8447 54.8386 45.6705C55.2666 45.4924 55.6056 45.2462 55.8556 44.9318C56.1056 44.6136 56.2306 44.2424 56.2306 43.8182C56.2306 43.4318 56.1227 43.1174 55.9068 42.875C55.6908 42.6326 55.4068 42.4356 55.0545 42.2841C54.7022 42.1326 54.3215 42 53.9124 41.8864L52.4806 41.4773C51.5715 41.2159 50.8518 40.8428 50.3215 40.358C49.7912 39.8731 49.5261 39.2386 49.5261 38.4545C49.5261 37.803 49.7022 37.2348 50.0545 36.75C50.4105 36.2614 50.8878 35.8826 51.4863 35.6136C52.0886 35.3409 52.7609 35.2045 53.5033 35.2045C54.2533 35.2045 54.92 35.339 55.5033 35.608C56.0867 35.8731 56.5488 36.2367 56.8897 36.6989C57.2344 37.161 57.4162 37.6856 57.4352 38.2727H56.0715ZM60.231 47V35.3636H61.6401V45.75H67.0492V47H60.231ZM78.9161 41.1818C78.9161 42.4091 78.6945 43.4697 78.2513 44.3636C77.8081 45.2576 77.2002 45.947 76.4274 46.4318C75.6547 46.9167 74.7721 47.1591 73.7797 47.1591C72.7873 47.1591 71.9047 46.9167 71.132 46.4318C70.3593 45.947 69.7513 45.2576 69.3081 44.3636C68.8649 43.4697 68.6433 42.4091 68.6433 41.1818C68.6433 39.9545 68.8649 38.8939 69.3081 38C69.7513 37.1061 70.3593 36.4167 71.132 35.9318C71.9047 35.447 72.7873 35.2045 73.7797 35.2045C74.7721 35.2045 75.6547 35.447 76.4274 35.9318C77.2002 36.4167 77.8081 37.1061 78.2513 38C78.6945 38.8939 78.9161 39.9545 78.9161 41.1818ZM77.5524 41.1818C77.5524 40.1742 77.3839 39.3239 77.0468 38.6307C76.7134 37.9375 76.2608 37.4129 75.6888 37.0568C75.1206 36.7008 74.4843 36.5227 73.7797 36.5227C73.0752 36.5227 72.4369 36.7008 71.8649 37.0568C71.2968 37.4129 70.8441 37.9375 70.507 38.6307C70.1736 39.3239 70.007 40.1742 70.007 41.1818C70.007 42.1894 70.1736 43.0398 70.507 43.733C70.8441 44.4261 71.2968 44.9508 71.8649 45.3068C72.4369 45.6629 73.0752 45.8409 73.7797 45.8409C74.4843 45.8409 75.1206 45.6629 75.6888 45.3068C76.2608 44.9508 76.7134 44.4261 77.0468 43.733C77.3839 43.0398 77.5524 42.1894 77.5524 41.1818ZM89.5599 39C89.4349 38.6174 89.2702 38.2746 89.0656 37.9716C88.8649 37.6648 88.6243 37.4034 88.344 37.1875C88.0675 36.9716 87.7531 36.8068 87.4008 36.6932C87.0486 36.5795 86.6622 36.5227 86.2418 36.5227C85.5524 36.5227 84.9255 36.7008 84.3611 37.0568C83.7967 37.4129 83.3478 37.9375 83.0145 38.6307C82.6811 39.3239 82.5145 40.1742 82.5145 41.1818C82.5145 42.1894 82.683 43.0398 83.0202 43.733C83.3573 44.4261 83.8137 44.9508 84.3895 45.3068C84.9652 45.6629 85.613 45.8409 86.3327 45.8409C86.9993 45.8409 87.5864 45.6989 88.094 45.4148C88.6054 45.1269 89.0031 44.7216 89.2872 44.1989C89.5751 43.6723 89.719 43.053 89.719 42.3409L90.1508 42.4318H86.6508V41.1818H91.0827V42.4318C91.0827 43.3902 90.8781 44.2235 90.469 44.9318C90.0637 45.6402 89.5031 46.1894 88.7872 46.5795C88.0751 46.9659 87.2569 47.1591 86.3327 47.1591C85.3024 47.1591 84.3971 46.9167 83.6168 46.4318C82.8402 45.947 82.2342 45.2576 81.7986 44.3636C81.3668 43.4697 81.1508 42.4091 81.1508 41.1818C81.1508 40.2614 81.2739 39.4337 81.5202 38.6989C81.7702 37.9602 82.1224 37.3314 82.577 36.8125C83.0315 36.2936 83.5694 35.8958 84.1906 35.6193C84.8118 35.3428 85.4955 35.2045 86.2418 35.2045C86.8554 35.2045 87.4274 35.2973 87.9577 35.483C88.4918 35.6648 88.9671 35.9242 89.3838 36.2614C89.8043 36.5947 90.1546 36.9943 90.4349 37.4602C90.7152 37.9223 90.9084 38.4356 91.0145 39H89.5599ZM93.9339 47H92.4566L96.7294 35.3636H98.1839L102.457 47H100.979L97.5021 37.2045H97.4112L93.9339 47ZM94.4794 42.4545H100.434V43.7045H94.4794V42.4545ZM113.816 35.3636V47H112.453L106.112 37.8636H105.998V47H104.589V35.3636H105.953L112.316 44.5227H112.43V35.3636H113.816ZM129.731 39C129.606 38.6174 129.441 38.2746 129.236 37.9716C129.035 37.6648 128.795 37.4034 128.515 37.1875C128.238 36.9716 127.924 36.8068 127.571 36.6932C127.219 36.5795 126.833 36.5227 126.412 36.5227C125.723 36.5227 125.096 36.7008 124.532 37.0568C123.967 37.4129 123.518 37.9375 123.185 38.6307C122.852 39.3239 122.685 40.1742 122.685 41.1818C122.685 42.1894 122.854 43.0398 123.191 43.733C123.528 44.4261 123.984 44.9508 124.56 45.3068C125.136 45.6629 125.784 45.8409 126.503 45.8409C127.17 45.8409 127.757 45.6989 128.265 45.4148C128.776 45.1269 129.174 44.7216 129.458 44.1989C129.746 43.6723 129.89 43.053 129.89 42.3409L130.321 42.4318H126.821V41.1818H131.253V42.4318C131.253 43.3902 131.049 44.2235 130.64 44.9318C130.234 45.6402 129.674 46.1894 128.958 46.5795C128.246 46.9659 127.428 47.1591 126.503 47.1591C125.473 47.1591 124.568 46.9167 123.787 46.4318C123.011 45.947 122.405 45.2576 121.969 44.3636C121.537 43.4697 121.321 42.4091 121.321 41.1818C121.321 40.2614 121.445 39.4337 121.691 38.6989C121.941 37.9602 122.293 37.3314 122.748 36.8125C123.202 36.2936 123.74 35.8958 124.361 35.6193C124.982 35.3428 125.666 35.2045 126.412 35.2045C127.026 35.2045 127.598 35.2973 128.128 35.483C128.662 35.6648 129.138 35.9242 129.554 36.2614C129.975 36.5947 130.325 36.9943 130.606 37.4602C130.886 37.9223 131.079 38.4356 131.185 39H129.731ZM143.805 41.1818C143.805 42.4091 143.583 43.4697 143.14 44.3636C142.697 45.2576 142.089 45.947 141.316 46.4318C140.543 46.9167 139.661 47.1591 138.668 47.1591C137.676 47.1591 136.793 46.9167 136.021 46.4318C135.248 45.947 134.64 45.2576 134.197 44.3636C133.754 43.4697 133.532 42.4091 133.532 41.1818C133.532 39.9545 133.754 38.8939 134.197 38C134.64 37.1061 135.248 36.4167 136.021 35.9318C136.793 35.447 137.676 35.2045 138.668 35.2045C139.661 35.2045 140.543 35.447 141.316 35.9318C142.089 36.4167 142.697 37.1061 143.14 38C143.583 38.8939 143.805 39.9545 143.805 41.1818ZM142.441 41.1818C142.441 40.1742 142.273 39.3239 141.936 38.6307C141.602 37.9375 141.15 37.4129 140.578 37.0568C140.009 36.7008 139.373 36.5227 138.668 36.5227C137.964 36.5227 137.326 36.7008 136.754 37.0568C136.185 37.4129 135.733 37.9375 135.396 38.6307C135.062 39.3239 134.896 40.1742 134.896 41.1818C134.896 42.1894 135.062 43.0398 135.396 43.733C135.733 44.4261 136.185 44.9508 136.754 45.3068C137.326 45.6629 137.964 45.8409 138.668 45.8409C139.373 45.8409 140.009 45.6629 140.578 45.3068C141.15 44.9508 141.602 44.4261 141.936 43.733C142.273 43.0398 142.441 42.1894 142.441 41.1818ZM146.494 47V35.3636H153.517V36.6136H147.903V40.5455H153.153V41.7955H147.903V45.75H153.608V47H146.494ZM162.74 38.2727C162.672 37.697 162.396 37.25 161.911 36.9318C161.426 36.6136 160.831 36.4545 160.127 36.4545C159.611 36.4545 159.161 36.5379 158.774 36.7045C158.392 36.8712 158.093 37.1004 157.877 37.392C157.665 37.6837 157.558 38.0152 157.558 38.3864C157.558 38.697 157.632 38.964 157.78 39.1875C157.932 39.4072 158.125 39.5909 158.36 39.7386C158.594 39.8826 158.841 40.0019 159.098 40.0966C159.356 40.1875 159.593 40.2614 159.808 40.3182L160.99 40.6364C161.293 40.7159 161.63 40.8258 162.002 40.9659C162.377 41.1061 162.735 41.2973 163.075 41.5398C163.42 41.7784 163.704 42.0852 163.928 42.4602C164.151 42.8352 164.263 43.2955 164.263 43.8409C164.263 44.4697 164.098 45.0379 163.769 45.5455C163.443 46.053 162.966 46.4564 162.337 46.7557C161.712 47.0549 160.952 47.2045 160.058 47.2045C159.225 47.2045 158.504 47.0701 157.894 46.8011C157.288 46.5322 156.81 46.1572 156.462 45.6761C156.117 45.1951 155.922 44.6364 155.877 44H157.331C157.369 44.4394 157.517 44.803 157.774 45.0909C158.036 45.375 158.365 45.5871 158.763 45.7273C159.165 45.8636 159.596 45.9318 160.058 45.9318C160.596 45.9318 161.079 45.8447 161.507 45.6705C161.935 45.4924 162.274 45.2462 162.524 44.9318C162.774 44.6136 162.899 44.2424 162.899 43.8182C162.899 43.4318 162.791 43.1174 162.575 42.875C162.36 42.6326 162.075 42.4356 161.723 42.2841C161.371 42.1326 160.99 42 160.581 41.8864L159.149 41.4773C158.24 41.2159 157.521 40.8428 156.99 40.358C156.46 39.8731 156.195 39.2386 156.195 38.4545C156.195 37.803 156.371 37.2348 156.723 36.75C157.079 36.2614 157.557 35.8826 158.155 35.6136C158.757 35.3409 159.43 35.2045 160.172 35.2045C160.922 35.2045 161.589 35.339 162.172 35.608C162.755 35.8731 163.218 36.2367 163.558 36.6989C163.903 37.161 164.085 37.6856 164.104 38.2727H162.74ZM171.72 47V35.3636H173.129V40.5455H179.333V35.3636H180.742V47H179.333V41.7955H173.129V47H171.72ZM183.884 47V35.3636H190.906V36.6136H185.293V40.5455H190.543V41.7955H185.293V45.75H190.997V47H183.884ZM193.766 47V35.3636H197.698C198.607 35.3636 199.353 35.5189 199.936 35.8295C200.52 36.1364 200.952 36.5587 201.232 37.0966C201.512 37.6345 201.652 38.2462 201.652 38.9318C201.652 39.6174 201.512 40.2254 201.232 40.7557C200.952 41.286 200.522 41.7027 199.942 42.0057C199.363 42.3049 198.622 42.4545 197.721 42.4545H194.539V41.1818H197.675C198.296 41.1818 198.796 41.0909 199.175 40.9091C199.558 40.7273 199.834 40.4697 200.005 40.1364C200.179 39.7992 200.266 39.3977 200.266 38.9318C200.266 38.4659 200.179 38.0587 200.005 37.7102C199.83 37.3617 199.552 37.0928 199.169 36.9034C198.787 36.7102 198.281 36.6136 197.652 36.6136H195.175V47H193.766ZM199.243 41.7727L202.107 47H200.471L197.652 41.7727H199.243ZM204.32 47V35.3636H211.343V36.6136H205.729V40.5455H210.979V41.7955H205.729V45.75H211.434V47H204.32Z" fill="#5C5F71"/>
</svg>
