<svg width="182" height="60" viewBox="0 0 182 60" fill="none" xmlns="http://www.w3.org/2000/svg">
<path fill-rule="evenodd" clip-rule="evenodd" d="M22.288 51.8902H22.2865C23.2136 54.8314 24.3212 57.552 25.5817 60C23.1755 57.1302 21.1232 53.6015 19.5412 49.5929L0.788756 30.833C0.330831 30.3749 0.330831 29.6251 0.788756 29.167L19.5412 10.4071C21.1232 6.39818 23.1755 2.8698 25.5817 0C24.3212 2.4476 23.2132 5.16819 22.2865 8.10942H22.288C21.1176 11.8218 20.2354 15.8849 19.6993 20.1934L19.696 20.221C19.6545 20.5553 19.6149 20.8904 19.5779 21.2274L19.5711 21.2891C19.5364 21.6058 19.5035 21.9241 19.4724 22.243L19.4594 22.3799L19.4332 22.6593L19.4205 22.8014C19.407 22.9502 19.3939 23.0994 19.3812 23.2486L19.3644 23.4536L19.3439 23.7064L19.3282 23.9132L19.3016 24.2741L19.2844 24.5242L19.2691 24.7527L19.2526 25.0123L19.2411 25.2052C19.2332 25.3432 19.2253 25.4812 19.2175 25.6196L19.2074 25.8129L19.1936 26.0938L19.185 26.268C19.1782 26.4184 19.1719 26.5691 19.1655 26.7202L19.1614 26.8245C19.1562 26.9595 19.1513 27.0945 19.1465 27.2295L19.1431 27.3308C19.1379 27.4875 19.1334 27.6442 19.1293 27.8013L19.1267 27.9045C19.1233 28.0376 19.1203 28.1708 19.1173 28.3043L19.1147 28.4183C19.1083 28.7429 19.1042 29.0679 19.1016 29.3944L19.1012 29.5032C19.1001 29.6689 19.0994 29.8345 19.0994 30.0006C19.0994 30.1666 19.1005 30.3327 19.1012 30.498L19.1016 30.6064C19.1042 30.9325 19.1083 31.2578 19.1147 31.5821L19.1173 31.6965C19.1203 31.8296 19.1233 31.9628 19.1267 32.0959L19.1293 32.1991C19.1334 32.3558 19.1379 32.5129 19.1431 32.6692L19.1465 32.7709C19.1513 32.9059 19.1558 33.0409 19.1614 33.1755L19.1655 33.2802C19.1715 33.431 19.1779 33.582 19.185 33.7324L19.1936 33.9066L19.2074 34.1875L19.2175 34.3808C19.2253 34.5196 19.2332 34.6572 19.2411 34.7956L19.2526 34.9885L19.2691 35.2477L19.2844 35.4761L19.3016 35.726L19.3282 36.0865L19.3439 36.2936L19.3644 36.5461L19.3812 36.7514C19.3939 36.901 19.4066 37.0502 19.4205 37.1986L19.4332 37.3407L19.4594 37.6197L19.4724 37.757C19.5035 38.076 19.5364 38.3946 19.5711 38.7106L19.5779 38.7726C19.6152 39.1092 19.6545 39.4447 19.696 39.7786L19.6993 39.8063C20.2358 44.1147 21.118 48.1779 22.288 51.8902Z" fill="#57B33E"/>
<path fill-rule="evenodd" clip-rule="evenodd" d="M18.3147 26.1441L18.3192 26.0506L18.3334 25.7675L18.3435 25.5723C18.351 25.4328 18.3592 25.2922 18.3674 25.1516L18.3794 24.9568L18.3962 24.695L18.4115 24.4631L18.4295 24.2099L18.456 23.8464L18.4721 23.6366L18.4927 23.3808L18.5099 23.1752C18.5226 23.0241 18.5357 22.873 18.5495 22.7223L18.5626 22.578L18.5887 22.296L18.6018 22.1576C18.6332 21.8356 18.6665 21.514 18.7016 21.1928L18.7084 21.1307C18.7457 20.7912 18.7857 20.452 18.8276 20.1132L18.831 20.0851C19.2975 16.3398 20.0399 12.6092 21.1064 8.98435H21.0929L21.1071 8.93945C20.8425 9.53144 20.5924 10.1283 20.3554 10.7281L20.2885 10.8972L1.40779 29.7857C1.29115 29.902 1.29115 30.0969 1.40779 30.2132L2.26121 31.0673L18.3147 26.1441Z" fill="#57B33E"/>
<path fill-rule="evenodd" clip-rule="evenodd" d="M23.9031 9.19238L29.4972 14.7888L21.1484 23.1405C21.5664 18.261 22.4224 13.6523 23.6392 9.4564L23.9031 9.19238Z" fill="#57B33E"/>
<path fill-rule="evenodd" clip-rule="evenodd" d="M31.4704 16.7656L37.0645 22.3624L21.2693 38.1639C20.9979 35.5196 20.8555 32.7908 20.8555 30.0002C20.8555 29.1076 20.8704 28.2213 20.8988 27.3417L31.4704 16.7656Z" fill="#57B33E"/>
<path fill-rule="evenodd" clip-rule="evenodd" d="M31.4735 16.7656L35.2816 20.5752L23.5 24.7427L31.4735 16.7656Z" fill="#57B33E"/>
<path fill-rule="evenodd" clip-rule="evenodd" d="M39.0392 24.3379L43.8663 29.1665C44.2098 29.5106 44.2958 30.018 44.1234 30.444L23.7258 50.8494C22.8754 47.9728 22.1954 44.8985 21.7109 41.6726L39.0392 24.3379Z" fill="#57B33E"/>
<path fill-rule="evenodd" clip-rule="evenodd" d="M60.801 20.9457V18.2349H49.5469V20.9457H53.6308V30.8491H56.717V20.9457H60.801ZM72.0928 28.1752H65.3743V25.8028H71.4906V23.28H65.3743V20.9076H72.0364V18.2345H62.269V30.8487H72.0928V28.1752ZM83.4221 25.5204C82.9892 27.4033 81.7096 28.3068 80.1101 28.3068C78.115 28.3068 76.5155 26.688 76.5155 24.5414C76.5155 22.3952 78.115 20.795 80.1101 20.795C81.7287 20.795 83.0083 21.6798 83.4034 23.5063L86.4526 22.7909C85.8504 19.7973 83.2154 17.9521 80.1101 17.9521C76.3652 17.9521 73.4102 20.8515 73.4102 24.5418C73.4102 28.2507 76.3648 31.1314 80.1101 31.1314C83.3473 31.1314 85.8878 29.2859 86.4709 26.1236L83.4221 25.5204ZM99.7201 18.2345H96.6335V23.148H91.326V18.2345H88.2211V30.8487H91.326V25.8596H96.6335V30.8487H99.7201V18.2345ZM113.967 18.2345H110.88V25.7654L104.5 18.2345H101.922V30.8487H105.028V23.5437L111.407 30.8487H113.967V18.2345ZM122.455 17.9521C118.69 17.9521 115.736 20.8706 115.736 24.5605C115.736 28.2317 118.69 31.131 122.455 31.131C126.218 31.131 129.173 28.2317 129.173 24.5605C129.173 20.8702 126.218 17.9521 122.455 17.9521ZM122.455 28.2881C120.403 28.2881 118.841 26.7067 118.841 24.5608C118.841 22.3956 120.403 20.7954 122.455 20.7954C124.506 20.7954 126.068 22.3956 126.068 24.5608C126.068 26.7067 124.506 28.2881 122.455 28.2881ZM140.239 28.1374H134.029V18.2345H130.923V30.8487H140.239V28.1374H140.239ZM147.88 17.9521C144.116 17.9521 141.161 20.8706 141.161 24.5605C141.161 28.2317 144.116 31.131 147.88 31.131C151.643 31.131 154.598 28.2317 154.598 24.5605C154.598 20.8702 151.644 17.9521 147.88 17.9521ZM147.88 28.2881C145.828 28.2881 144.266 26.7067 144.266 24.5608C144.266 22.3956 145.828 20.7954 147.88 20.7954C149.931 20.7954 151.493 22.3956 151.493 24.5608C151.494 26.7067 149.931 28.2881 147.88 28.2881ZM162.22 23.412V26.0477H166.078C165.608 27.4415 164.404 28.3072 162.748 28.3072C160.64 28.3072 159.04 26.6883 159.04 24.5418C159.04 22.4143 160.602 20.7954 162.653 20.7954C163.877 20.7954 165.081 21.172 165.815 22.6028L168.807 21.7367C167.923 19.2704 165.457 17.9525 162.653 17.9525C158.87 17.9525 155.916 20.8519 155.916 24.5421C155.916 28.2511 158.89 31.1318 162.71 31.1318C166.511 31.1318 169.24 28.3831 169.24 24.5612C169.24 24.2411 169.222 23.8645 169.165 23.4124L162.22 23.412ZM177.013 26.8947V30.8487H173.851V26.9325L168.976 18.2345H172.364L175.469 23.7695L178.537 18.2345H182L177.013 26.8947Z" fill="#57B33E"/>
<path fill-rule="evenodd" clip-rule="evenodd" d="M55.4668 36.5116C55.1576 36.5116 54.9045 36.5748 54.7064 36.7008C54.5083 36.8264 54.4096 37.0175 54.4096 37.2722C54.4096 37.5273 54.5087 37.7221 54.7064 37.8571C54.9045 37.9925 55.3255 38.1376 55.9703 38.2939C56.6151 38.4498 57.1011 38.6686 57.4278 38.9509C57.7549 39.2329 57.9182 39.6484 57.9182 40.1973C57.9182 40.7463 57.7115 41.1921 57.2973 41.5343C56.8835 41.8761 56.3407 42.047 55.669 42.047C54.6851 42.047 53.8126 41.7082 53.0508 41.0302L53.7165 40.2291C54.3524 40.7811 55.0118 41.0567 55.6955 41.0567C56.0372 41.0567 56.309 40.9834 56.5097 40.8361C56.7108 40.6891 56.811 40.4947 56.811 40.2512C56.811 40.0085 56.7164 39.8193 56.5273 39.6843C56.3385 39.5493 56.0133 39.4262 55.5512 39.3152C55.0892 39.2041 54.7386 39.102 54.4986 39.0089C54.2586 38.9161 54.0459 38.7939 53.8597 38.6447C53.4878 38.3627 53.302 37.9304 53.302 37.3485C53.302 36.7662 53.5136 36.3182 53.936 36.003C54.3588 35.6877 54.8821 35.5303 55.506 35.5303C55.9079 35.5303 56.3067 35.5961 56.7026 35.7281C57.0985 35.8601 57.4401 36.046 57.728 36.2861L57.1613 37.0867C56.9751 36.9188 56.7235 36.7808 56.4058 36.6731C56.0888 36.5658 55.7755 36.5116 55.4668 36.5116ZM65.6446 41.9748V35.6832H66.7063V40.9666H69.5764V41.9748H65.6446ZM81.6346 37.1686C81.2059 36.7243 80.6792 36.5026 80.0556 36.5026C79.4317 36.5026 78.9054 36.7247 78.4766 37.1686C78.0479 37.6125 77.8333 38.151 77.8333 38.7841C77.8333 39.4173 78.0479 39.9558 78.4766 40.3997C78.9054 40.8436 79.4317 41.0657 80.0556 41.0657C80.6795 41.0657 81.2059 40.8432 81.6346 40.3997C82.0634 39.9558 82.278 39.4173 82.278 38.7841C82.278 38.151 82.0634 37.6125 81.6346 37.1686ZM82.4129 41.1061C81.7771 41.7273 80.9913 42.0376 80.0556 42.0376C79.12 42.0376 78.3342 41.7273 77.6983 41.1061C77.0629 40.4853 76.7447 39.7112 76.7447 38.7841C76.7447 37.8567 77.0629 37.083 77.6983 36.4618C78.3342 35.841 79.12 35.5307 80.0556 35.5307C80.9913 35.5307 81.7771 35.8414 82.4129 36.4618C83.0488 37.083 83.3665 37.8571 83.3665 38.7841C83.3665 39.7112 83.0484 40.4853 82.4129 41.1061ZM95.474 38.9146H96.536V41.0657C95.9421 41.7198 95.0935 42.0462 93.9896 42.0462C93.0596 42.0462 92.2817 41.7403 91.6548 41.1281C91.0279 40.5163 90.7146 39.7422 90.7146 38.8062C90.7146 37.8698 91.0342 37.0901 91.6731 36.4663C92.3119 35.8418 93.0839 35.5303 93.9896 35.5303C94.8954 35.5303 95.6479 35.7943 96.2482 36.3223L95.6811 37.132C95.4352 36.9222 95.1877 36.7763 94.9391 36.6952C94.6901 36.6148 94.4008 36.574 94.0704 36.574C93.4349 36.574 92.9014 36.7793 92.4689 37.1907C92.0376 37.6017 91.8215 38.1417 91.8215 38.8107C91.8215 39.4797 92.0312 40.0167 92.451 40.4217C92.8708 40.8271 93.3795 41.0294 93.9765 41.0294C94.5731 41.0294 95.0722 40.9004 95.4744 40.6428V38.9146H95.474ZM105.234 40.5436L104.604 41.9748H103.471L106.241 35.6832H107.375L110.146 41.9748H109.013L108.383 40.5436H105.234ZM107.951 39.5627L106.808 36.9708L105.666 39.5627H107.951ZM122.146 35.6832H123.207V41.9748H122.056L118.493 37.384V41.9748H117.432V35.6832H118.493L122.146 40.3817V35.6832ZM133.831 41.9748V35.6832H134.893V38.4102H138.015V35.6832H139.076V41.9748H138.015V39.4008H134.893V41.9748H133.831ZM151.652 35.6832V36.6821H148.296V38.3477H151.31V39.2927H148.296V40.9756H151.76V41.9748H147.234V35.6832H151.652ZM164.552 37.7266C164.552 38.7647 164.099 39.4184 163.193 39.6888L164.84 41.9748H163.49L161.987 39.8593H160.592V41.9748H159.531V35.6832H161.87C162.83 35.6832 163.517 35.8451 163.93 36.1694C164.344 36.4936 164.552 37.0123 164.552 37.7266ZM161.915 38.8967C162.516 38.8967 162.923 38.8036 163.139 38.6177C163.355 38.4315 163.463 38.1331 163.463 37.7217C163.463 37.3111 163.352 37.0291 163.13 36.8762C162.908 36.7228 162.513 36.6466 161.943 36.6466H160.593V38.8971L161.915 38.8967ZM176.911 35.6832V36.6821H173.556V38.3477H176.57V39.2927H173.556V40.9756H177.019V41.9748H172.494V35.6832H176.911Z" fill="#57B33E"/>
</svg>
