<svg width="248" height="48" viewBox="0 0 248 48" fill="none" xmlns="http://www.w3.org/2000/svg">
<path d="M18.9544 24.4982L4.23728 28.3537C-1.11165 22.8904 -1.11165 14.0459 4.23728 8.58421C9.60204 3.1386 18.2895 3.1386 23.6559 8.58421L18.9544 24.4982Z" fill="#F96363"/>
<path d="M23.6561 8.58421L13.9562 18.477L7.95982 24.5657C6.41369 26.1558 4.1222 26.5272 2.21289 25.7153C2.77825 26.6623 3.44151 27.5417 4.23901 28.3537L13.8568 38.1451L13.9562 38.2304L17.6107 41.9509C20.9334 45.3497 26.3818 45.3497 29.703 41.9509L33.3574 38.2304L33.4569 38.1451L43.0746 28.3537C48.4235 22.8904 48.4235 14.0459 43.0746 8.58421C37.7083 3.1386 29.0208 3.1386 23.6561 8.58421Z" fill="#1C2359"/>
<path d="M24.3366 27.778V32.4632C24.3366 33.3088 25.0173 34.0195 25.8654 34.0195H28.9386C29.7693 34.0195 30.4674 33.3088 30.4674 32.4632V27.778H35.0693C35.9158 27.778 36.5965 27.0674 36.5965 26.2056V23.0945C36.5965 22.2327 35.9158 21.5382 35.0693 21.5382H30.4674V16.8547C30.4674 15.9912 29.7693 15.2822 28.9386 15.2822H25.8654C25.0173 15.2822 24.3366 15.9929 24.3366 16.8547V21.5382H19.7363C18.8898 21.5382 18.2091 22.2311 18.2091 23.0945V26.2056C18.2091 27.0674 18.8898 27.778 19.7363 27.778H24.3366Z" fill="#FEFEFE"/>
<path d="M60.3663 24V20.128H66.0943C67.545 20.128 68.8143 19.8293 69.9023 19.232C70.9903 18.6133 71.833 17.7493 72.4303 16.64C73.049 15.5307 73.3583 14.2187 73.3583 12.704C73.3583 11.232 73.049 9.952 72.4303 8.864C71.8116 7.75467 70.9583 6.90133 69.8703 6.304C68.7823 5.68533 67.5236 5.376 66.0943 5.376H60.2703V1.504H66.1583C67.8223 1.504 69.3583 1.78133 70.7663 2.336C72.1956 2.89067 73.433 3.68 74.4783 4.704C75.545 5.70667 76.3663 6.89067 76.9423 8.256C77.5396 9.62133 77.8383 11.1147 77.8383 12.736C77.8383 14.3573 77.5396 15.8613 76.9423 17.248C76.3663 18.6133 75.5556 19.808 74.5103 20.832C73.465 21.8347 72.2276 22.6133 70.7983 23.168C69.3903 23.7227 67.865 24 66.2223 24H60.3663ZM57.3903 24V1.504H61.7423V24H57.3903ZM88.8806 24.32C87.2592 24.32 85.8192 23.9787 84.5606 23.296C83.3019 22.592 82.2992 21.632 81.5526 20.416C80.8272 19.2 80.4646 17.8133 80.4646 16.256C80.4646 14.72 80.8166 13.3547 81.5206 12.16C82.2459 10.944 83.2272 9.984 84.4646 9.28C85.7019 8.55467 87.0779 8.192 88.5926 8.192C90.0859 8.192 91.3979 8.53333 92.5286 9.216C93.6806 9.87733 94.5766 10.7947 95.2166 11.968C95.8779 13.12 96.2086 14.432 96.2086 15.904C96.2086 16.1813 96.1872 16.4693 96.1446 16.768C96.1232 17.0453 96.0699 17.3653 95.9846 17.728L82.9926 17.76V14.624L94.0326 14.592L92.3366 15.904C92.2939 14.9867 92.1232 14.2187 91.8246 13.6C91.5472 12.9813 91.1312 12.512 90.5766 12.192C90.0432 11.8507 89.3819 11.68 88.5926 11.68C87.7606 11.68 87.0352 11.872 86.4166 12.256C85.7979 12.6187 85.3179 13.1413 84.9766 13.824C84.6566 14.4853 84.4966 15.2747 84.4966 16.192C84.4966 17.1307 84.6672 17.952 85.0086 18.656C85.3712 19.3387 85.8832 19.872 86.5446 20.256C87.2059 20.6187 87.9739 20.8 88.8486 20.8C89.6379 20.8 90.3526 20.672 90.9926 20.416C91.6326 20.1387 92.1872 19.7333 92.6566 19.2L95.1206 21.664C94.3739 22.5387 93.4566 23.2 92.3686 23.648C91.3019 24.096 90.1392 24.32 88.8806 24.32ZM109.841 24V15.136C109.841 14.2187 109.553 13.472 108.977 12.896C108.401 12.32 107.654 12.032 106.737 12.032C106.14 12.032 105.606 12.16 105.137 12.416C104.668 12.672 104.294 13.0347 104.017 13.504C103.761 13.9733 103.633 14.5173 103.633 15.136L102.001 14.304C102.001 13.088 102.257 12.032 102.769 11.136C103.302 10.2187 104.028 9.504 104.945 8.992C105.884 8.48 106.94 8.224 108.113 8.224C109.244 8.224 110.257 8.512 111.153 9.088C112.049 9.64267 112.753 10.3787 113.265 11.296C113.777 12.192 114.033 13.1627 114.033 14.208V24H109.841ZM99.4411 24V8.544H103.633V24H99.4411ZM120.134 24V2.112H124.326V24H120.134ZM116.518 12.224V8.544H127.942V12.224H116.518ZM137.029 24.32C135.621 24.32 134.351 23.968 133.221 23.264C132.09 22.56 131.205 21.6 130.565 20.384C129.925 19.168 129.605 17.8027 129.605 16.288C129.605 14.752 129.925 13.376 130.565 12.16C131.205 10.944 132.09 9.984 133.221 9.28C134.351 8.576 135.621 8.224 137.029 8.224C138.138 8.224 139.13 8.448 140.005 8.896C140.879 9.344 141.573 9.97333 142.085 10.784C142.618 11.5733 142.906 12.4693 142.949 13.472V19.04C142.906 20.064 142.618 20.9707 142.085 21.76C141.573 22.5493 140.879 23.1787 140.005 23.648C139.13 24.096 138.138 24.32 137.029 24.32ZM137.797 20.448C138.97 20.448 139.919 20.064 140.645 19.296C141.37 18.5067 141.733 17.4933 141.733 16.256C141.733 15.4453 141.562 14.7307 141.221 14.112C140.901 13.472 140.442 12.9813 139.845 12.64C139.269 12.2773 138.586 12.096 137.797 12.096C137.029 12.096 136.346 12.2773 135.749 12.64C135.173 12.9813 134.714 13.472 134.373 14.112C134.053 14.7307 133.893 15.4453 133.893 16.256C133.893 17.088 134.053 17.824 134.373 18.464C134.714 19.0827 135.173 19.5733 135.749 19.936C136.346 20.2773 137.029 20.448 137.797 20.448ZM141.509 24V19.84L142.181 16.064L141.509 12.352V8.544H145.669V24H141.509ZM150.017 24V0.863998H154.209V24H150.017ZM176.334 24.32C174.691 24.32 173.166 24.032 171.758 23.456C170.35 22.8587 169.112 22.0373 168.046 20.992C167 19.9253 166.19 18.688 165.614 17.28C165.059 15.872 164.782 14.3573 164.782 12.736C164.782 11.1147 165.059 9.6 165.614 8.192C166.19 6.784 167 5.55733 168.046 4.512C169.112 3.46667 170.339 2.64533 171.726 2.048C173.134 1.45067 174.67 1.152 176.334 1.152C178.126 1.152 179.704 1.45067 181.07 2.048C182.435 2.624 183.64 3.424 184.686 4.448L181.742 7.392C181.123 6.70933 180.366 6.176 179.47 5.792C178.574 5.408 177.528 5.216 176.334 5.216C175.288 5.216 174.328 5.39733 173.454 5.76C172.6 6.10133 171.854 6.61333 171.214 7.296C170.574 7.95733 170.083 8.75733 169.742 9.696C169.4 10.6133 169.23 11.6267 169.23 12.736C169.23 13.8667 169.4 14.8907 169.742 15.808C170.083 16.7253 170.574 17.5253 171.214 18.208C171.854 18.8693 172.6 19.3813 173.454 19.744C174.328 20.1067 175.288 20.288 176.334 20.288C177.592 20.288 178.67 20.096 179.566 19.712C180.483 19.328 181.251 18.784 181.87 18.08L184.814 21.024C183.768 22.0693 182.552 22.88 181.166 23.456C179.779 24.032 178.168 24.32 176.334 24.32ZM188.031 24V0.863998H192.223V24H188.031ZM196.577 24V8.544H200.801V24H196.577ZM198.689 6.048C198.007 6.048 197.441 5.824 196.993 5.376C196.545 4.90667 196.321 4.33067 196.321 3.648C196.321 2.98667 196.545 2.42133 196.993 1.952C197.441 1.48267 198.007 1.248 198.689 1.248C199.393 1.248 199.959 1.48267 200.385 1.952C200.833 2.42133 201.057 2.98667 201.057 3.648C201.057 4.33067 200.833 4.90667 200.385 5.376C199.959 5.824 199.393 6.048 198.689 6.048ZM215.555 24V15.136C215.555 14.2187 215.267 13.472 214.691 12.896C214.115 12.32 213.368 12.032 212.451 12.032C211.853 12.032 211.32 12.16 210.851 12.416C210.381 12.672 210.008 13.0347 209.731 13.504C209.475 13.9733 209.347 14.5173 209.347 15.136L207.715 14.304C207.715 13.088 207.971 12.032 208.483 11.136C209.016 10.2187 209.741 9.504 210.659 8.992C211.597 8.48 212.653 8.224 213.827 8.224C214.957 8.224 215.971 8.512 216.867 9.088C217.763 9.64267 218.467 10.3787 218.979 11.296C219.491 12.192 219.747 13.1627 219.747 14.208V24H215.555ZM205.155 24V8.544H209.347V24H205.155ZM223.764 24V8.544H227.988V24H223.764ZM225.876 6.048C225.193 6.048 224.628 5.824 224.18 5.376C223.732 4.90667 223.508 4.33067 223.508 3.648C223.508 2.98667 223.732 2.42133 224.18 1.952C224.628 1.48267 225.193 1.248 225.876 1.248C226.58 1.248 227.145 1.48267 227.572 1.952C228.02 2.42133 228.244 2.98667 228.244 3.648C228.244 4.33067 228.02 4.90667 227.572 5.376C227.145 5.824 226.58 6.048 225.876 6.048ZM239.637 24.32C238.058 24.32 236.64 23.968 235.381 23.264C234.122 22.56 233.13 21.6 232.405 20.384C231.68 19.168 231.317 17.8027 231.317 16.288C231.317 14.752 231.68 13.376 232.405 12.16C233.13 10.944 234.122 9.984 235.381 9.28C236.661 8.55467 238.08 8.192 239.637 8.192C240.853 8.192 241.973 8.416 242.997 8.864C244.021 9.312 244.906 9.952 245.653 10.784L242.965 13.504C242.56 13.056 242.069 12.7147 241.493 12.48C240.938 12.2453 240.32 12.128 239.637 12.128C238.869 12.128 238.176 12.3093 237.557 12.672C236.96 13.0133 236.48 13.4933 236.117 14.112C235.776 14.7093 235.605 15.424 235.605 16.256C235.605 17.0667 235.776 17.792 236.117 18.432C236.48 19.0507 236.96 19.5413 237.557 19.904C238.176 20.2453 238.869 20.416 239.637 20.416C240.341 20.416 240.97 20.2987 241.525 20.064C242.101 19.808 242.592 19.4453 242.997 18.976L245.717 21.696C244.928 22.5493 244.021 23.2 242.997 23.648C241.973 24.096 240.853 24.32 239.637 24.32Z" fill="#1C2359"/>
<path d="M62.859 38.2727C62.7908 37.697 62.5143 37.25 62.0295 36.9318C61.5446 36.6136 60.9499 36.4545 60.2454 36.4545C59.7302 36.4545 59.2795 36.5379 58.8931 36.7045C58.5105 36.8712 58.2113 37.1004 57.9954 37.392C57.7833 37.6837 57.6772 38.0152 57.6772 38.3864C57.6772 38.697 57.7511 38.964 57.8988 39.1875C58.0503 39.4072 58.2435 39.5909 58.4783 39.7386C58.7132 39.8826 58.9594 40.0019 59.217 40.0966C59.4746 40.1875 59.7113 40.2614 59.9272 40.3182L61.109 40.6364C61.4121 40.7159 61.7492 40.8258 62.1204 40.9659C62.4954 41.1061 62.8533 41.2973 63.1943 41.5398C63.539 41.7784 63.823 42.0852 64.0465 42.4602C64.27 42.8352 64.3818 43.2955 64.3818 43.8409C64.3818 44.4697 64.217 45.0379 63.8874 45.5455C63.5617 46.053 63.0844 46.4564 62.4556 46.7557C61.8306 47.0549 61.0712 47.2045 60.1772 47.2045C59.3439 47.2045 58.6223 47.0701 58.0124 46.8011C57.4064 46.5322 56.9291 46.1572 56.5806 45.6761C56.2359 45.1951 56.0408 44.6364 55.9954 44H57.4499C57.4878 44.4394 57.6355 44.803 57.8931 45.0909C58.1545 45.375 58.484 45.5871 58.8818 45.7273C59.2833 45.8636 59.7151 45.9318 60.1772 45.9318C60.7151 45.9318 61.198 45.8447 61.6261 45.6705C62.0541 45.4924 62.3931 45.2462 62.6431 44.9318C62.8931 44.6136 63.0181 44.2424 63.0181 43.8182C63.0181 43.4318 62.9102 43.1174 62.6943 42.875C62.4783 42.6326 62.1943 42.4356 61.842 42.2841C61.4897 42.1326 61.109 42 60.6999 41.8864L59.2681 41.4773C58.359 41.2159 57.6393 40.8428 57.109 40.358C56.5787 39.8731 56.3136 39.2386 56.3136 38.4545C56.3136 37.803 56.4897 37.2348 56.842 36.75C57.198 36.2614 57.6753 35.8826 58.2738 35.6136C58.8761 35.3409 59.5484 35.2045 60.2908 35.2045C61.0408 35.2045 61.7075 35.339 62.2908 35.608C62.8742 35.8731 63.3363 36.2367 63.6772 36.6989C64.0219 37.161 64.2037 37.6856 64.2227 38.2727H62.859ZM67.0185 47V35.3636H68.4276V45.75H73.8367V47H67.0185ZM85.7036 41.1818C85.7036 42.4091 85.482 43.4697 85.0388 44.3636C84.5956 45.2576 83.9877 45.947 83.2149 46.4318C82.4422 46.9167 81.5596 47.1591 80.5672 47.1591C79.5748 47.1591 78.6922 46.9167 77.9195 46.4318C77.1468 45.947 76.5388 45.2576 76.0956 44.3636C75.6524 43.4697 75.4308 42.4091 75.4308 41.1818C75.4308 39.9545 75.6524 38.8939 76.0956 38C76.5388 37.1061 77.1468 36.4167 77.9195 35.9318C78.6922 35.447 79.5748 35.2045 80.5672 35.2045C81.5596 35.2045 82.4422 35.447 83.2149 35.9318C83.9877 36.4167 84.5956 37.1061 85.0388 38C85.482 38.8939 85.7036 39.9545 85.7036 41.1818ZM84.3399 41.1818C84.3399 40.1742 84.1714 39.3239 83.8343 38.6307C83.5009 37.9375 83.0483 37.4129 82.4763 37.0568C81.9081 36.7008 81.2718 36.5227 80.5672 36.5227C79.8627 36.5227 79.2244 36.7008 78.6524 37.0568C78.0843 37.4129 77.6316 37.9375 77.2945 38.6307C76.9612 39.3239 76.7945 40.1742 76.7945 41.1818C76.7945 42.1894 76.9612 43.0398 77.2945 43.733C77.6316 44.4261 78.0843 44.9508 78.6524 45.3068C79.2244 45.6629 79.8627 45.8409 80.5672 45.8409C81.2718 45.8409 81.9081 45.6629 82.4763 45.3068C83.0483 44.9508 83.5009 44.4261 83.8343 43.733C84.1714 43.0398 84.3399 42.1894 84.3399 41.1818ZM96.3474 39C96.2224 38.6174 96.0577 38.2746 95.8531 37.9716C95.6524 37.6648 95.4118 37.4034 95.1315 37.1875C94.855 36.9716 94.5406 36.8068 94.1883 36.6932C93.8361 36.5795 93.4497 36.5227 93.0293 36.5227C92.3399 36.5227 91.713 36.7008 91.1486 37.0568C90.5842 37.4129 90.1353 37.9375 89.802 38.6307C89.4687 39.3239 89.302 40.1742 89.302 41.1818C89.302 42.1894 89.4705 43.0398 89.8077 43.733C90.1448 44.4261 90.6012 44.9508 91.177 45.3068C91.7527 45.6629 92.4005 45.8409 93.1202 45.8409C93.7868 45.8409 94.374 45.6989 94.8815 45.4148C95.3929 45.1269 95.7906 44.7216 96.0747 44.1989C96.3626 43.6723 96.5065 43.053 96.5065 42.3409L96.9383 42.4318H93.4383V41.1818H97.8702V42.4318C97.8702 43.3902 97.6656 44.2235 97.2565 44.9318C96.8512 45.6402 96.2906 46.1894 95.5747 46.5795C94.8626 46.9659 94.0444 47.1591 93.1202 47.1591C92.0899 47.1591 91.1846 46.9167 90.4043 46.4318C89.6277 45.947 89.0217 45.2576 88.5861 44.3636C88.1543 43.4697 87.9383 42.4091 87.9383 41.1818C87.9383 40.2614 88.0615 39.4337 88.3077 38.6989C88.5577 37.9602 88.9099 37.3314 89.3645 36.8125C89.819 36.2936 90.3569 35.8958 90.9781 35.6193C91.5993 35.3428 92.283 35.2045 93.0293 35.2045C93.6429 35.2045 94.2149 35.2973 94.7452 35.483C95.2793 35.6648 95.7546 35.9242 96.1713 36.2614C96.5918 36.5947 96.9421 36.9943 97.2224 37.4602C97.5027 37.9223 97.6959 38.4356 97.802 39H96.3474ZM100.721 47H99.2441L103.517 35.3636H104.971L109.244 47H107.767L104.29 37.2045H104.199L100.721 47ZM101.267 42.4545H107.221V43.7045H101.267V42.4545ZM120.604 35.3636V47H119.24L112.899 37.8636H112.786V47H111.377V35.3636H112.74L119.104 44.5227H119.218V35.3636H120.604ZM136.518 39C136.393 38.6174 136.228 38.2746 136.024 37.9716C135.823 37.6648 135.582 37.4034 135.302 37.1875C135.026 36.9716 134.711 36.8068 134.359 36.6932C134.007 36.5795 133.62 36.5227 133.2 36.5227C132.51 36.5227 131.884 36.7008 131.319 37.0568C130.755 37.4129 130.306 37.9375 129.973 38.6307C129.639 39.3239 129.473 40.1742 129.473 41.1818C129.473 42.1894 129.641 43.0398 129.978 43.733C130.315 44.4261 130.772 44.9508 131.348 45.3068C131.923 45.6629 132.571 45.8409 133.291 45.8409C133.957 45.8409 134.545 45.6989 135.052 45.4148C135.564 45.1269 135.961 44.7216 136.245 44.1989C136.533 43.6723 136.677 43.053 136.677 42.3409L137.109 42.4318H133.609V41.1818H138.041V42.4318C138.041 43.3902 137.836 44.2235 137.427 44.9318C137.022 45.6402 136.461 46.1894 135.745 46.5795C135.033 46.9659 134.215 47.1591 133.291 47.1591C132.26 47.1591 131.355 46.9167 130.575 46.4318C129.798 45.947 129.192 45.2576 128.757 44.3636C128.325 43.4697 128.109 42.4091 128.109 41.1818C128.109 40.2614 128.232 39.4337 128.478 38.6989C128.728 37.9602 129.081 37.3314 129.535 36.8125C129.99 36.2936 130.528 35.8958 131.149 35.6193C131.77 35.3428 132.454 35.2045 133.2 35.2045C133.814 35.2045 134.385 35.2973 134.916 35.483C135.45 35.6648 135.925 35.9242 136.342 36.2614C136.762 36.5947 137.113 36.9943 137.393 37.4602C137.673 37.9223 137.867 38.4356 137.973 39H136.518ZM150.592 41.1818C150.592 42.4091 150.371 43.4697 149.928 44.3636C149.484 45.2576 148.876 45.947 148.104 46.4318C147.331 46.9167 146.448 47.1591 145.456 47.1591C144.464 47.1591 143.581 46.9167 142.808 46.4318C142.036 45.947 141.428 45.2576 140.984 44.3636C140.541 43.4697 140.32 42.4091 140.32 41.1818C140.32 39.9545 140.541 38.8939 140.984 38C141.428 37.1061 142.036 36.4167 142.808 35.9318C143.581 35.447 144.464 35.2045 145.456 35.2045C146.448 35.2045 147.331 35.447 148.104 35.9318C148.876 36.4167 149.484 37.1061 149.928 38C150.371 38.8939 150.592 39.9545 150.592 41.1818ZM149.229 41.1818C149.229 40.1742 149.06 39.3239 148.723 38.6307C148.39 37.9375 147.937 37.4129 147.365 37.0568C146.797 36.7008 146.161 36.5227 145.456 36.5227C144.751 36.5227 144.113 36.7008 143.541 37.0568C142.973 37.4129 142.52 37.9375 142.183 38.6307C141.85 39.3239 141.683 40.1742 141.683 41.1818C141.683 42.1894 141.85 43.0398 142.183 43.733C142.52 44.4261 142.973 44.9508 143.541 45.3068C144.113 45.6629 144.751 45.8409 145.456 45.8409C146.161 45.8409 146.797 45.6629 147.365 45.3068C147.937 44.9508 148.39 44.4261 148.723 43.733C149.06 43.0398 149.229 42.1894 149.229 41.1818ZM153.282 47V35.3636H160.304V36.6136H154.691V40.5455H159.941V41.7955H154.691V45.75H160.395V47H153.282ZM169.528 38.2727C169.46 37.697 169.183 37.25 168.698 36.9318C168.213 36.6136 167.619 36.4545 166.914 36.4545C166.399 36.4545 165.948 36.5379 165.562 36.7045C165.179 36.8712 164.88 37.1004 164.664 37.392C164.452 37.6837 164.346 38.0152 164.346 38.3864C164.346 38.697 164.42 38.964 164.568 39.1875C164.719 39.4072 164.912 39.5909 165.147 39.7386C165.382 39.8826 165.628 40.0019 165.886 40.0966C166.143 40.1875 166.38 40.2614 166.596 40.3182L167.778 40.6364C168.081 40.7159 168.418 40.8258 168.789 40.9659C169.164 41.1061 169.522 41.2973 169.863 41.5398C170.208 41.7784 170.492 42.0852 170.715 42.4602C170.939 42.8352 171.051 43.2955 171.051 43.8409C171.051 44.4697 170.886 45.0379 170.556 45.5455C170.23 46.053 169.753 46.4564 169.124 46.7557C168.499 47.0549 167.74 47.2045 166.846 47.2045C166.013 47.2045 165.291 47.0701 164.681 46.8011C164.075 46.5322 163.598 46.1572 163.249 45.6761C162.905 45.1951 162.71 44.6364 162.664 44H164.119C164.157 44.4394 164.304 44.803 164.562 45.0909C164.823 45.375 165.153 45.5871 165.551 45.7273C165.952 45.8636 166.384 45.9318 166.846 45.9318C167.384 45.9318 167.867 45.8447 168.295 45.6705C168.723 45.4924 169.062 45.2462 169.312 44.9318C169.562 44.6136 169.687 44.2424 169.687 43.8182C169.687 43.4318 169.579 43.1174 169.363 42.875C169.147 42.6326 168.863 42.4356 168.511 42.2841C168.158 42.1326 167.778 42 167.369 41.8864L165.937 41.4773C165.028 41.2159 164.308 40.8428 163.778 40.358C163.247 39.8731 162.982 39.2386 162.982 38.4545C162.982 37.803 163.158 37.2348 163.511 36.75C163.867 36.2614 164.344 35.8826 164.943 35.6136C165.545 35.3409 166.217 35.2045 166.96 35.2045C167.71 35.2045 168.376 35.339 168.96 35.608C169.543 35.8731 170.005 36.2367 170.346 36.6989C170.691 37.161 170.872 37.6856 170.891 38.2727H169.528ZM178.507 47V35.3636H179.916V40.5455H186.121V35.3636H187.53V47H186.121V41.7955H179.916V47H178.507ZM190.671 47V35.3636H197.694V36.6136H192.08V40.5455H197.33V41.7955H192.08V45.75H197.785V47H190.671ZM200.554 47V35.3636H204.485C205.394 35.3636 206.141 35.5189 206.724 35.8295C207.307 36.1364 207.739 36.5587 208.019 37.0966C208.3 37.6345 208.44 38.2462 208.44 38.9318C208.44 39.6174 208.3 40.2254 208.019 40.7557C207.739 41.286 207.309 41.7027 206.73 42.0057C206.15 42.3049 205.41 42.4545 204.508 42.4545H201.326V41.1818H204.463C205.084 41.1818 205.584 41.0909 205.963 40.9091C206.345 40.7273 206.622 40.4697 206.792 40.1364C206.966 39.7992 207.054 39.3977 207.054 38.9318C207.054 38.4659 206.966 38.0587 206.792 37.7102C206.618 37.3617 206.34 37.0928 205.957 36.9034C205.574 36.7102 205.069 36.6136 204.44 36.6136H201.963V47H200.554ZM206.031 41.7727L208.894 47H207.258L204.44 41.7727H206.031ZM211.108 47V35.3636H218.131V36.6136H212.517V40.5455H217.767V41.7955H212.517V45.75H218.222V47H211.108Z" fill="#5C5F71"/>
</svg>
