<svg width="300" height="48" viewBox="0 0 300 48" fill="none" xmlns="http://www.w3.org/2000/svg">
<path d="M31.4762 8.93244C34.2697 8.93244 36.537 11.1995 36.537 13.9891C36.537 16.7803 34.2697 19.0458 31.4762 19.0458C28.6666 19.0458 26.3994 16.7803 26.3994 13.9891C26.3977 11.1995 28.6666 8.93244 31.4762 8.93244ZM10.4205 29.955C13.23 29.955 15.4973 32.2205 15.4973 35.0117C15.4973 37.819 13.23 40.0844 10.4205 40.0844C7.62702 40.0844 5.3597 37.819 5.3597 35.0117C5.36132 32.2205 7.62856 29.955 10.4205 29.955ZM10.4205 22.4448C12.7553 22.4448 14.8714 21.4977 16.4114 19.9751C17.9336 18.4364 18.883 16.3221 18.883 13.9875C18.883 12.3298 19.2209 10.7075 19.8485 9.18488C20.4921 7.66385 21.4061 6.27627 22.5728 5.10897C23.3854 4.29701 24.6711 4.29701 25.4837 5.10897C26.2786 5.90325 26.2786 7.2056 25.4837 7.99988C24.6872 8.81184 24.0613 9.74118 23.6396 10.7397C23.2325 11.7542 22.996 12.854 22.996 13.9859C22.996 16.3205 23.9437 18.4332 25.4837 19.9735C27.0076 21.4945 29.122 22.4432 31.4746 22.4432C32.609 22.4432 33.7081 22.2229 34.7074 21.8C35.7228 21.3949 36.6545 20.7678 37.4494 19.9735C38.262 19.1776 39.5655 19.1776 40.3604 19.9735C41.1569 20.7855 41.1569 22.0879 40.3426 22.8821C39.1744 24.0494 37.7873 24.9627 36.2634 25.5882C34.7573 26.2313 33.1159 26.5529 31.4746 26.5529C29.122 26.5529 27.006 27.4999 25.4837 29.0386C23.9437 30.5612 22.996 32.6755 22.996 35.0085C22.996 36.6662 22.6742 38.3062 22.0482 39.8111C21.4045 41.3337 20.4905 42.7374 19.3239 43.9031C18.5113 44.699 17.2079 44.699 16.413 43.9031C15.6164 43.0912 15.6164 41.7888 16.413 40.9945C17.2079 40.1986 17.8338 39.2693 18.257 38.2547C18.6625 37.2402 18.883 36.1404 18.883 35.0085C18.883 32.6755 17.9352 30.5612 16.4114 29.0386C14.8714 27.4999 12.7553 26.5529 10.4205 26.5529C9.28604 26.5529 8.18696 26.7731 7.18768 27.196C6.17231 27.6188 5.24064 28.2282 4.42958 29.0225C3.63307 29.8344 2.3313 29.8168 1.53471 29.0225C0.739816 28.2282 0.739816 26.9258 1.55242 26.1299C2.72066 24.9466 4.10776 24.0334 5.63163 23.4079C7.13778 22.784 8.77916 22.4448 10.4205 22.4448Z" fill="#F96363"/>
<path d="M10.4205 8.93262C13.2156 8.93262 15.4813 11.1965 15.4813 13.9893C15.4813 16.7821 13.2156 19.046 10.4205 19.046C7.62535 19.046 5.35974 16.7821 5.35974 13.9893C5.36129 11.1965 7.62535 8.93262 10.4205 8.93262Z" fill="#1C2359"/>
<path d="M31.4763 29.9541C34.2714 29.9541 36.5371 32.2179 36.5371 35.0108C36.5371 37.8036 34.2714 40.0674 31.4763 40.0674C28.6811 40.0674 26.4155 37.8036 26.4155 35.0108C26.4155 32.2179 28.6811 29.9541 31.4763 29.9541Z" fill="#1C2359"/>
<path d="M51.2596 24V1.504H54.3316L63.4516 16.096H61.6916L70.7796 1.504H73.8516V24H69.5316V8.96L70.3636 9.216L64.0276 19.392H61.0836L54.7476 9.216L55.6116 8.96V24H51.2596ZM86.0311 24.32C84.4097 24.32 82.9697 23.9787 81.7111 23.296C80.4524 22.592 79.4497 21.632 78.7031 20.416C77.9777 19.2 77.6151 17.8133 77.6151 16.256C77.6151 14.72 77.9671 13.3547 78.6711 12.16C79.3964 10.944 80.3777 9.984 81.6151 9.28C82.8524 8.55467 84.2284 8.192 85.7431 8.192C87.2364 8.192 88.5484 8.53333 89.6791 9.216C90.8311 9.87733 91.7271 10.7947 92.3671 11.968C93.0284 13.12 93.3591 14.432 93.3591 15.904C93.3591 16.1813 93.3377 16.4693 93.2951 16.768C93.2737 17.0453 93.2204 17.3653 93.1351 17.728L80.1431 17.76V14.624L91.1831 14.592L89.4871 15.904C89.4444 14.9867 89.2737 14.2187 88.9751 13.6C88.6977 12.9813 88.2817 12.512 87.7271 12.192C87.1937 11.8507 86.5324 11.68 85.7431 11.68C84.9111 11.68 84.1857 11.872 83.5671 12.256C82.9484 12.6187 82.4684 13.1413 82.1271 13.824C81.8071 14.4853 81.6471 15.2747 81.6471 16.192C81.6471 17.1307 81.8177 17.952 82.1591 18.656C82.5217 19.3387 83.0337 19.872 83.6951 20.256C84.3564 20.6187 85.1244 20.8 85.9991 20.8C86.7884 20.8 87.5031 20.672 88.1431 20.416C88.7831 20.1387 89.3377 19.7333 89.8071 19.2L92.2711 21.664C91.5244 22.5387 90.6071 23.2 89.5191 23.648C88.4524 24.096 87.2897 24.32 86.0311 24.32ZM103.12 24.32C101.69 24.32 100.41 23.968 99.2796 23.264C98.1489 22.56 97.2529 21.6 96.5916 20.384C95.9516 19.168 95.6316 17.8027 95.6316 16.288C95.6316 14.752 95.9516 13.376 96.5916 12.16C97.2529 10.944 98.1382 9.984 99.2476 9.28C100.378 8.576 101.669 8.224 103.12 8.224C104.229 8.224 105.221 8.448 106.096 8.896C106.992 9.344 107.706 9.97333 108.24 10.784C108.794 11.5733 109.093 12.4693 109.136 13.472V18.976C109.093 19.9787 108.805 20.8853 108.272 21.696C107.738 22.5067 107.024 23.1467 106.128 23.616C105.232 24.0853 104.229 24.32 103.12 24.32ZM103.824 20.448C104.613 20.448 105.296 20.2773 105.872 19.936C106.469 19.5733 106.928 19.0827 107.248 18.464C107.589 17.824 107.76 17.088 107.76 16.256C107.76 15.4453 107.589 14.7307 107.248 14.112C106.928 13.472 106.469 12.9813 105.872 12.64C105.296 12.2773 104.624 12.096 103.856 12.096C103.066 12.096 102.373 12.2773 101.776 12.64C101.2 13.0027 100.741 13.4933 100.4 14.112C100.08 14.7307 99.9196 15.4453 99.9196 16.256C99.9196 17.088 100.08 17.824 100.4 18.464C100.741 19.0827 101.21 19.5733 101.808 19.936C102.405 20.2773 103.077 20.448 103.824 20.448ZM111.696 24H107.536V19.84L108.208 16.064L107.504 12.352V0.863998H111.696V24ZM116.044 24V8.544H120.268V24H116.044ZM118.156 6.048C117.473 6.048 116.908 5.824 116.46 5.376C116.012 4.90667 115.788 4.33067 115.788 3.648C115.788 2.98667 116.012 2.42133 116.46 1.952C116.908 1.48267 117.473 1.248 118.156 1.248C118.86 1.248 119.425 1.48267 119.852 1.952C120.3 2.42133 120.524 2.98667 120.524 3.648C120.524 4.33067 120.3 4.90667 119.852 5.376C119.425 5.824 118.86 6.048 118.156 6.048ZM131.918 24.32C130.339 24.32 128.92 23.968 127.662 23.264C126.403 22.56 125.411 21.6 124.686 20.384C123.96 19.168 123.598 17.8027 123.598 16.288C123.598 14.752 123.96 13.376 124.686 12.16C125.411 10.944 126.403 9.984 127.662 9.28C128.942 8.55467 130.36 8.192 131.918 8.192C133.134 8.192 134.254 8.416 135.278 8.864C136.302 9.312 137.187 9.952 137.934 10.784L135.246 13.504C134.84 13.056 134.35 12.7147 133.774 12.48C133.219 12.2453 132.6 12.128 131.918 12.128C131.15 12.128 130.456 12.3093 129.838 12.672C129.24 13.0133 128.76 13.4933 128.398 14.112C128.056 14.7093 127.886 15.424 127.886 16.256C127.886 17.0667 128.056 17.792 128.398 18.432C128.76 19.0507 129.24 19.5413 129.838 19.904C130.456 20.2453 131.15 20.416 131.918 20.416C132.622 20.416 133.251 20.2987 133.806 20.064C134.382 19.808 134.872 19.4453 135.278 18.976L137.998 21.696C137.208 22.5493 136.302 23.2 135.278 23.648C134.254 24.096 133.134 24.32 131.918 24.32ZM147.132 24.32C145.724 24.32 144.454 23.968 143.324 23.264C142.193 22.56 141.308 21.6 140.668 20.384C140.028 19.168 139.708 17.8027 139.708 16.288C139.708 14.752 140.028 13.376 140.668 12.16C141.308 10.944 142.193 9.984 143.324 9.28C144.454 8.576 145.724 8.224 147.132 8.224C148.241 8.224 149.233 8.448 150.108 8.896C150.982 9.344 151.676 9.97333 152.188 10.784C152.721 11.5733 153.009 12.4693 153.052 13.472V19.04C153.009 20.064 152.721 20.9707 152.188 21.76C151.676 22.5493 150.982 23.1787 150.108 23.648C149.233 24.096 148.241 24.32 147.132 24.32ZM147.9 20.448C149.073 20.448 150.022 20.064 150.748 19.296C151.473 18.5067 151.836 17.4933 151.836 16.256C151.836 15.4453 151.665 14.7307 151.324 14.112C151.004 13.472 150.545 12.9813 149.948 12.64C149.372 12.2773 148.689 12.096 147.9 12.096C147.132 12.096 146.449 12.2773 145.852 12.64C145.276 12.9813 144.817 13.472 144.476 14.112C144.156 14.7307 143.996 15.4453 143.996 16.256C143.996 17.088 144.156 17.824 144.476 18.464C144.817 19.0827 145.276 19.5733 145.852 19.936C146.449 20.2773 147.132 20.448 147.9 20.448ZM151.612 24V19.84L152.284 16.064L151.612 12.352V8.544H155.772V24H151.612ZM160.12 24V0.863998H164.312V24H160.12ZM176.005 24V1.504H180.357V24H176.005ZM190.117 24V1.504H194.469V24H190.117ZM178.757 14.304V10.464H191.333V14.304H178.757ZM206.523 24.32C204.966 24.32 203.558 23.968 202.299 23.264C201.062 22.5387 200.07 21.568 199.323 20.352C198.598 19.1147 198.235 17.7387 198.235 16.224C198.235 14.7093 198.598 13.3547 199.323 12.16C200.048 10.944 201.04 9.984 202.299 9.28C203.558 8.55467 204.955 8.192 206.491 8.192C208.07 8.192 209.478 8.55467 210.715 9.28C211.974 9.984 212.966 10.944 213.691 12.16C214.416 13.3547 214.779 14.7093 214.779 16.224C214.779 17.7387 214.416 19.1147 213.691 20.352C212.966 21.568 211.974 22.5387 210.715 23.264C209.478 23.968 208.08 24.32 206.523 24.32ZM206.491 20.416C207.28 20.416 207.974 20.2453 208.571 19.904C209.19 19.5413 209.659 19.0507 209.979 18.432C210.32 17.792 210.491 17.0667 210.491 16.256C210.491 15.4453 210.32 14.7307 209.979 14.112C209.638 13.4933 209.168 13.0133 208.571 12.672C207.974 12.3093 207.28 12.128 206.491 12.128C205.723 12.128 205.04 12.3093 204.443 12.672C203.846 13.0133 203.376 13.4933 203.035 14.112C202.694 14.7307 202.523 15.4453 202.523 16.256C202.523 17.0667 202.694 17.792 203.035 18.432C203.376 19.0507 203.846 19.5413 204.443 19.904C205.04 20.2453 205.723 20.416 206.491 20.416ZM223.43 24.352C222.555 24.352 221.691 24.2347 220.838 24C220.006 23.7653 219.238 23.4453 218.534 23.04C217.83 22.6133 217.222 22.1013 216.71 21.504L219.206 18.976C219.739 19.5733 220.358 20.0213 221.062 20.32C221.766 20.6187 222.544 20.768 223.398 20.768C224.08 20.768 224.592 20.672 224.934 20.48C225.296 20.288 225.478 20 225.478 19.616C225.478 19.1893 225.286 18.8587 224.902 18.624C224.539 18.3893 224.059 18.1973 223.462 18.048C222.864 17.8773 222.235 17.696 221.574 17.504C220.934 17.2907 220.315 17.024 219.718 16.704C219.12 16.3627 218.63 15.904 218.246 15.328C217.883 14.7307 217.702 13.9627 217.702 13.024C217.702 12.0427 217.936 11.1893 218.406 10.464C218.896 9.73867 219.59 9.17333 220.486 8.768C221.382 8.36267 222.438 8.16 223.654 8.16C224.934 8.16 226.086 8.384 227.11 8.832C228.155 9.28 229.019 9.952 229.702 10.848L227.174 13.376C226.704 12.8 226.171 12.384 225.574 12.128C224.998 11.872 224.368 11.744 223.686 11.744C223.067 11.744 222.587 11.84 222.246 12.032C221.926 12.224 221.766 12.4907 221.766 12.832C221.766 13.216 221.947 13.5147 222.31 13.728C222.694 13.9413 223.184 14.1333 223.782 14.304C224.379 14.4533 224.998 14.6347 225.638 14.848C226.299 15.04 226.918 15.3173 227.494 15.68C228.091 16.0427 228.571 16.5227 228.934 17.12C229.318 17.7173 229.51 18.4853 229.51 19.424C229.51 20.9387 228.966 22.144 227.878 23.04C226.79 23.9147 225.307 24.352 223.43 24.352ZM241.553 24.32C240.443 24.32 239.441 24.096 238.545 23.648C237.649 23.1787 236.934 22.5493 236.401 21.76C235.867 20.9707 235.579 20.064 235.537 19.04V13.568C235.579 12.544 235.867 11.6373 236.401 10.848C236.955 10.0373 237.67 9.39733 238.545 8.928C239.441 8.45867 240.443 8.224 241.553 8.224C242.982 8.224 244.262 8.576 245.393 9.28C246.523 9.984 247.409 10.944 248.049 12.16C248.71 13.376 249.041 14.752 249.041 16.288C249.041 17.8027 248.71 19.168 248.049 20.384C247.409 21.6 246.523 22.56 245.393 23.264C244.262 23.968 242.982 24.32 241.553 24.32ZM232.977 30.464V8.544H237.169V12.608L236.465 16.352L237.137 20.096V30.464H232.977ZM240.817 20.448C241.585 20.448 242.267 20.2773 242.865 19.936C243.462 19.5733 243.921 19.0827 244.241 18.464C244.582 17.824 244.753 17.088 244.753 16.256C244.753 15.4453 244.582 14.7307 244.241 14.112C243.921 13.472 243.462 12.9813 242.865 12.64C242.267 12.2773 241.585 12.096 240.817 12.096C240.07 12.096 239.398 12.2773 238.801 12.64C238.203 12.9813 237.734 13.472 237.393 14.112C237.073 14.7307 236.913 15.4453 236.913 16.256C236.913 17.088 237.073 17.824 237.393 18.464C237.734 19.0827 238.193 19.5733 238.769 19.936C239.366 20.2773 240.049 20.448 240.817 20.448ZM252.429 24V8.544H256.653V24H252.429ZM254.541 6.048C253.858 6.048 253.293 5.824 252.845 5.376C252.397 4.90667 252.173 4.33067 252.173 3.648C252.173 2.98667 252.397 2.42133 252.845 1.952C253.293 1.48267 253.858 1.248 254.541 1.248C255.245 1.248 255.81 1.48267 256.237 1.952C256.685 2.42133 256.909 2.98667 256.909 3.648C256.909 4.33067 256.685 4.90667 256.237 5.376C255.81 5.824 255.245 6.048 254.541 6.048ZM263.279 24V2.112H267.471V24H263.279ZM259.663 12.224V8.544H271.087V12.224H259.663ZM280.173 24.32C278.765 24.32 277.496 23.968 276.365 23.264C275.234 22.56 274.349 21.6 273.709 20.384C273.069 19.168 272.749 17.8027 272.749 16.288C272.749 14.752 273.069 13.376 273.709 12.16C274.349 10.944 275.234 9.984 276.365 9.28C277.496 8.576 278.765 8.224 280.173 8.224C281.282 8.224 282.274 8.448 283.149 8.896C284.024 9.344 284.717 9.97333 285.229 10.784C285.762 11.5733 286.05 12.4693 286.093 13.472V19.04C286.05 20.064 285.762 20.9707 285.229 21.76C284.717 22.5493 284.024 23.1787 283.149 23.648C282.274 24.096 281.282 24.32 280.173 24.32ZM280.941 20.448C282.114 20.448 283.064 20.064 283.789 19.296C284.514 18.5067 284.877 17.4933 284.877 16.256C284.877 15.4453 284.706 14.7307 284.365 14.112C284.045 13.472 283.586 12.9813 282.989 12.64C282.413 12.2773 281.73 12.096 280.941 12.096C280.173 12.096 279.49 12.2773 278.893 12.64C278.317 12.9813 277.858 13.472 277.517 14.112C277.197 14.7307 277.037 15.4453 277.037 16.256C277.037 17.088 277.197 17.824 277.517 18.464C277.858 19.0827 278.317 19.5733 278.893 19.936C279.49 20.2773 280.173 20.448 280.941 20.448ZM284.653 24V19.84L285.325 16.064L284.653 12.352V8.544H288.813V24H284.653ZM293.162 24V0.863998H297.354V24H293.162Z" fill="#1C2359"/>
<path d="M56.7283 38.2727C56.6601 37.697 56.3836 37.25 55.8987 36.9318C55.4139 36.6136 54.8192 36.4545 54.1147 36.4545C53.5995 36.4545 53.1487 36.5379 52.7624 36.7045C52.3798 36.8712 52.0806 37.1004 51.8647 37.392C51.6525 37.6837 51.5465 38.0152 51.5465 38.3864C51.5465 38.697 51.6203 38.964 51.7681 39.1875C51.9196 39.4072 52.1128 39.5909 52.3476 39.7386C52.5825 39.8826 52.8287 40.0019 53.0862 40.0966C53.3438 40.1875 53.5806 40.2614 53.7965 40.3182L54.9783 40.6364C55.2813 40.7159 55.6184 40.8258 55.9897 40.9659C56.3647 41.1061 56.7226 41.2973 57.0635 41.5398C57.4082 41.7784 57.6923 42.0852 57.9158 42.4602C58.1393 42.8352 58.251 43.2955 58.251 43.8409C58.251 44.4697 58.0862 45.0379 57.7567 45.5455C57.4309 46.053 56.9537 46.4564 56.3249 46.7557C55.6999 47.0549 54.9404 47.2045 54.0465 47.2045C53.2131 47.2045 52.4916 47.0701 51.8817 46.8011C51.2756 46.5322 50.7984 46.1572 50.4499 45.6761C50.1052 45.1951 49.9101 44.6364 49.8647 44H51.3192C51.3571 44.4394 51.5048 44.803 51.7624 45.0909C52.0237 45.375 52.3533 45.5871 52.751 45.7273C53.1525 45.8636 53.5844 45.9318 54.0465 45.9318C54.5844 45.9318 55.0673 45.8447 55.4953 45.6705C55.9234 45.4924 56.2624 45.2462 56.5124 44.9318C56.7624 44.6136 56.8874 44.2424 56.8874 43.8182C56.8874 43.4318 56.7794 43.1174 56.5635 42.875C56.3476 42.6326 56.0635 42.4356 55.7112 42.2841C55.359 42.1326 54.9783 42 54.5692 41.8864L53.1374 41.4773C52.2283 41.2159 51.5086 40.8428 50.9783 40.358C50.448 39.8731 50.1828 39.2386 50.1828 38.4545C50.1828 37.803 50.359 37.2348 50.7112 36.75C51.0673 36.2614 51.5446 35.8826 52.1431 35.6136C52.7453 35.3409 53.4177 35.2045 54.1601 35.2045C54.9101 35.2045 55.5768 35.339 56.1601 35.608C56.7434 35.8731 57.2056 36.2367 57.5465 36.6989C57.8912 37.161 58.073 37.6856 58.0919 38.2727H56.7283ZM60.8878 47V35.3636H62.2969V45.75H67.706V47H60.8878ZM79.5728 41.1818C79.5728 42.4091 79.3512 43.4697 78.9081 44.3636C78.4649 45.2576 77.8569 45.947 77.0842 46.4318C76.3115 46.9167 75.4289 47.1591 74.4365 47.1591C73.4441 47.1591 72.5615 46.9167 71.7887 46.4318C71.016 45.947 70.4081 45.2576 69.9649 44.3636C69.5217 43.4697 69.3001 42.4091 69.3001 41.1818C69.3001 39.9545 69.5217 38.8939 69.9649 38C70.4081 37.1061 71.016 36.4167 71.7887 35.9318C72.5615 35.447 73.4441 35.2045 74.4365 35.2045C75.4289 35.2045 76.3115 35.447 77.0842 35.9318C77.8569 36.4167 78.4649 37.1061 78.9081 38C79.3512 38.8939 79.5728 39.9545 79.5728 41.1818ZM78.2092 41.1818C78.2092 40.1742 78.0406 39.3239 77.7035 38.6307C77.3702 37.9375 76.9175 37.4129 76.3456 37.0568C75.7774 36.7008 75.141 36.5227 74.4365 36.5227C73.7319 36.5227 73.0937 36.7008 72.5217 37.0568C71.9535 37.4129 71.5009 37.9375 71.1637 38.6307C70.8304 39.3239 70.6637 40.1742 70.6637 41.1818C70.6637 42.1894 70.8304 43.0398 71.1637 43.733C71.5009 44.4261 71.9535 44.9508 72.5217 45.3068C73.0937 45.6629 73.7319 45.8409 74.4365 45.8409C75.141 45.8409 75.7774 45.6629 76.3456 45.3068C76.9175 44.9508 77.3702 44.4261 77.7035 43.733C78.0406 43.0398 78.2092 42.1894 78.2092 41.1818ZM90.2167 39C90.0917 38.6174 89.9269 38.2746 89.7224 37.9716C89.5216 37.6648 89.2811 37.4034 89.0008 37.1875C88.7243 36.9716 88.4099 36.8068 88.0576 36.6932C87.7053 36.5795 87.319 36.5227 86.8985 36.5227C86.2091 36.5227 85.5822 36.7008 85.0178 37.0568C84.4534 37.4129 84.0046 37.9375 83.6712 38.6307C83.3379 39.3239 83.1712 40.1742 83.1712 41.1818C83.1712 42.1894 83.3398 43.0398 83.6769 43.733C84.0141 44.4261 84.4705 44.9508 85.0462 45.3068C85.622 45.6629 86.2697 45.8409 86.9894 45.8409C87.6561 45.8409 88.2432 45.6989 88.7508 45.4148C89.2622 45.1269 89.6599 44.7216 89.944 44.1989C90.2319 43.6723 90.3758 43.053 90.3758 42.3409L90.8076 42.4318H87.3076V41.1818H91.7394V42.4318C91.7394 43.3902 91.5349 44.2235 91.1258 44.9318C90.7205 45.6402 90.1599 46.1894 89.444 46.5795C88.7319 46.9659 87.9137 47.1591 86.9894 47.1591C85.9591 47.1591 85.0538 46.9167 84.2735 46.4318C83.497 45.947 82.8909 45.2576 82.4553 44.3636C82.0235 43.4697 81.8076 42.4091 81.8076 41.1818C81.8076 40.2614 81.9307 39.4337 82.1769 38.6989C82.4269 37.9602 82.7792 37.3314 83.2337 36.8125C83.6883 36.2936 84.2262 35.8958 84.8474 35.6193C85.4686 35.3428 86.1523 35.2045 86.8985 35.2045C87.5122 35.2045 88.0841 35.2973 88.6144 35.483C89.1485 35.6648 89.6239 35.9242 90.0406 36.2614C90.461 36.5947 90.8114 36.9943 91.0917 37.4602C91.372 37.9223 91.5652 38.4356 91.6712 39H90.2167ZM94.5907 47H93.1134L97.3861 35.3636H98.8407L103.113 47H101.636L98.1589 37.2045H98.068L94.5907 47ZM95.1361 42.4545H101.091V43.7045H95.1361V42.4545ZM114.473 35.3636V47H113.11L106.769 37.8636H106.655V47H105.246V35.3636H106.61L112.973 44.5227H113.087V35.3636H114.473ZM130.387 39C130.262 38.6174 130.098 38.2746 129.893 37.9716C129.692 37.6648 129.452 37.4034 129.171 37.1875C128.895 36.9716 128.581 36.8068 128.228 36.6932C127.876 36.5795 127.49 36.5227 127.069 36.5227C126.38 36.5227 125.753 36.7008 125.188 37.0568C124.624 37.4129 124.175 37.9375 123.842 38.6307C123.509 39.3239 123.342 40.1742 123.342 41.1818C123.342 42.1894 123.51 43.0398 123.848 43.733C124.185 44.4261 124.641 44.9508 125.217 45.3068C125.793 45.6629 126.44 45.8409 127.16 45.8409C127.827 45.8409 128.414 45.6989 128.921 45.4148C129.433 45.1269 129.831 44.7216 130.115 44.1989C130.402 43.6723 130.546 43.053 130.546 42.3409L130.978 42.4318H127.478V41.1818H131.91V42.4318C131.91 43.3902 131.706 44.2235 131.296 44.9318C130.891 45.6402 130.331 46.1894 129.615 46.5795C128.902 46.9659 128.084 47.1591 127.16 47.1591C126.13 47.1591 125.224 46.9167 124.444 46.4318C123.668 45.947 123.062 45.2576 122.626 44.3636C122.194 43.4697 121.978 42.4091 121.978 41.1818C121.978 40.2614 122.101 39.4337 122.348 38.6989C122.598 37.9602 122.95 37.3314 123.404 36.8125C123.859 36.2936 124.397 35.8958 125.018 35.6193C125.639 35.3428 126.323 35.2045 127.069 35.2045C127.683 35.2045 128.255 35.2973 128.785 35.483C129.319 35.6648 129.795 35.9242 130.211 36.2614C130.632 36.5947 130.982 36.9943 131.262 37.4602C131.543 37.9223 131.736 38.4356 131.842 39H130.387ZM144.462 41.1818C144.462 42.4091 144.24 43.4697 143.797 44.3636C143.354 45.2576 142.746 45.947 141.973 46.4318C141.2 46.9167 140.318 47.1591 139.325 47.1591C138.333 47.1591 137.45 46.9167 136.677 46.4318C135.905 45.947 135.297 45.2576 134.854 44.3636C134.41 43.4697 134.189 42.4091 134.189 41.1818C134.189 39.9545 134.41 38.8939 134.854 38C135.297 37.1061 135.905 36.4167 136.677 35.9318C137.45 35.447 138.333 35.2045 139.325 35.2045C140.318 35.2045 141.2 35.447 141.973 35.9318C142.746 36.4167 143.354 37.1061 143.797 38C144.24 38.8939 144.462 39.9545 144.462 41.1818ZM143.098 41.1818C143.098 40.1742 142.929 39.3239 142.592 38.6307C142.259 37.9375 141.806 37.4129 141.234 37.0568C140.666 36.7008 140.03 36.5227 139.325 36.5227C138.621 36.5227 137.982 36.7008 137.41 37.0568C136.842 37.4129 136.39 37.9375 136.052 38.6307C135.719 39.3239 135.552 40.1742 135.552 41.1818C135.552 42.1894 135.719 43.0398 136.052 43.733C136.39 44.4261 136.842 44.9508 137.41 45.3068C137.982 45.6629 138.621 45.8409 139.325 45.8409C140.03 45.8409 140.666 45.6629 141.234 45.3068C141.806 44.9508 142.259 44.4261 142.592 43.733C142.929 43.0398 143.098 42.1894 143.098 41.1818ZM147.151 47V35.3636H154.174V36.6136H148.56V40.5455H153.81V41.7955H148.56V45.75H154.265V47H147.151ZM163.397 38.2727C163.329 37.697 163.052 37.25 162.567 36.9318C162.083 36.6136 161.488 36.4545 160.783 36.4545C160.268 36.4545 159.817 36.5379 159.431 36.7045C159.049 36.8712 158.749 37.1004 158.533 37.392C158.321 37.6837 158.215 38.0152 158.215 38.3864C158.215 38.697 158.289 38.964 158.437 39.1875C158.588 39.4072 158.782 39.5909 159.016 39.7386C159.251 39.8826 159.497 40.0019 159.755 40.0966C160.013 40.1875 160.249 40.2614 160.465 40.3182L161.647 40.6364C161.95 40.7159 162.287 40.8258 162.658 40.9659C163.033 41.1061 163.391 41.2973 163.732 41.5398C164.077 41.7784 164.361 42.0852 164.585 42.4602C164.808 42.8352 164.92 43.2955 164.92 43.8409C164.92 44.4697 164.755 45.0379 164.425 45.5455C164.1 46.053 163.622 46.4564 162.994 46.7557C162.369 47.0549 161.609 47.2045 160.715 47.2045C159.882 47.2045 159.16 47.0701 158.55 46.8011C157.944 46.5322 157.467 46.1572 157.119 45.6761C156.774 45.1951 156.579 44.6364 156.533 44H157.988C158.026 44.4394 158.174 44.803 158.431 45.0909C158.692 45.375 159.022 45.5871 159.42 45.7273C159.821 45.8636 160.253 45.9318 160.715 45.9318C161.253 45.9318 161.736 45.8447 162.164 45.6705C162.592 45.4924 162.931 45.2462 163.181 44.9318C163.431 44.6136 163.556 44.2424 163.556 43.8182C163.556 43.4318 163.448 43.1174 163.232 42.875C163.016 42.6326 162.732 42.4356 162.38 42.2841C162.028 42.1326 161.647 42 161.238 41.8864L159.806 41.4773C158.897 41.2159 158.177 40.8428 157.647 40.358C157.117 39.8731 156.852 39.2386 156.852 38.4545C156.852 37.803 157.028 37.2348 157.38 36.75C157.736 36.2614 158.213 35.8826 158.812 35.6136C159.414 35.3409 160.086 35.2045 160.829 35.2045C161.579 35.2045 162.246 35.339 162.829 35.608C163.412 35.8731 163.874 36.2367 164.215 36.6989C164.56 37.161 164.742 37.6856 164.761 38.2727H163.397ZM172.377 47V35.3636H173.786V40.5455H179.99V35.3636H181.399V47H179.99V41.7955H173.786V47H172.377ZM184.54 47V35.3636H191.563V36.6136H185.949V40.5455H191.199V41.7955H185.949V45.75H191.654V47H184.54ZM194.423 47V35.3636H198.355C199.264 35.3636 200.01 35.5189 200.593 35.8295C201.177 36.1364 201.608 36.5587 201.889 37.0966C202.169 37.6345 202.309 38.2462 202.309 38.9318C202.309 39.6174 202.169 40.2254 201.889 40.7557C201.608 41.286 201.178 41.7027 200.599 42.0057C200.019 42.3049 199.279 42.4545 198.377 42.4545H195.196V41.1818H198.332C198.953 41.1818 199.453 41.0909 199.832 40.9091C200.214 40.7273 200.491 40.4697 200.661 40.1364C200.836 39.7992 200.923 39.3977 200.923 38.9318C200.923 38.4659 200.836 38.0587 200.661 37.7102C200.487 37.3617 200.209 37.0928 199.826 36.9034C199.444 36.7102 198.938 36.6136 198.309 36.6136H195.832V47H194.423ZM199.9 41.7727L202.764 47H201.127L198.309 41.7727H199.9ZM204.977 47V35.3636H212V36.6136H206.386V40.5455H211.636V41.7955H206.386V45.75H212.091V47H204.977Z" fill="#5C5F71"/>
</svg>
