<svg width="214" height="48" viewBox="0 0 214 48" fill="none" xmlns="http://www.w3.org/2000/svg">
<path d="M15.7987 27.6216V30.7508V40.1385C15.7987 40.6628 16.0204 41.1371 16.3605 41.4748C16.7182 41.8125 17.1942 42.0328 17.7058 42.0328H24.0065C24.5343 42.0328 25.0118 41.8125 25.3518 41.4748C25.6917 41.1371 25.9136 40.6628 25.9136 40.1385V30.7508C25.9136 30.0739 26.4753 29.5159 27.1568 29.5159H36.6079C37.1357 29.5159 37.6133 29.2956 37.9532 28.9579C38.2932 28.6202 38.515 28.1458 38.515 27.6216V21.3632C38.515 20.8551 38.2932 20.3823 37.9532 20.0269C37.6133 19.6892 37.1357 19.4689 36.6079 19.4689H29.2176V16.999H36.6079C37.8173 16.999 38.923 17.4895 39.7065 18.2854C40.5063 19.0798 41.0001 20.1636 41.0001 21.3632V27.6216C41.0001 28.8228 40.5063 29.9228 39.7065 30.6994C38.923 31.4937 37.8173 31.9843 36.6079 31.9843H28.4001V40.1369C28.4001 41.3381 27.9064 42.4203 27.1067 43.2147C26.3231 44.0091 25.2158 44.4995 24.0081 44.4995H17.7074C16.498 44.4995 15.4085 44.0091 14.6087 43.2147C13.809 42.4203 13.3153 41.3365 13.3153 40.1369V30.7492V27.6201C13.3153 24.6934 14.5246 22.0385 16.4656 20.1282C18.3905 18.2002 21.0633 16.999 24.0097 16.999H25.0992V19.4689H24.0097C21.7627 19.4689 19.7018 20.4 18.2205 21.8713C16.736 23.3427 15.7987 25.3897 15.7987 27.6216Z" fill="#1C2359"/>
<path d="M25.9134 21.3634V18.2342V8.86419C25.9134 8.33998 25.6916 7.86561 25.3517 7.52792C25.0117 7.17254 24.5341 6.96994 24.0064 6.96994H17.7056C17.1941 6.96994 16.7181 7.17254 16.3603 7.52792C16.0203 7.86561 15.7986 8.33998 15.7986 8.86419V18.2342C15.7986 18.9272 15.253 19.4691 14.5552 19.4691H5.12192C4.59422 19.4691 4.11663 19.6894 3.77661 20.0271C3.41888 20.3825 3.21492 20.8553 3.21492 21.3634V27.6218C3.21492 28.146 3.41888 28.6204 3.77661 28.9581C4.11663 29.2958 4.59422 29.5161 5.12192 29.5161H12.4944V31.986H5.12192C3.91259 31.986 2.80691 31.4956 2.00559 30.7012C1.22198 29.923 0.728271 28.8246 0.728271 27.6234V21.3634C0.728271 20.1622 1.22198 19.08 2.00559 18.2856C2.80532 17.4913 3.91259 16.9992 5.12192 16.9992H13.3119V8.86419C13.3119 7.64691 13.8057 6.56471 14.6054 5.76874C15.4052 4.99045 16.4947 4.5 17.704 4.5H24.0048C25.214 4.5 26.3198 4.99045 27.1033 5.76874C27.903 6.56311 28.3968 7.64691 28.3968 8.86419V18.2342V21.3634C28.3968 24.29 27.2053 26.9448 25.2642 28.8729C23.3232 30.8009 20.6504 31.9844 17.704 31.9844H16.6307V29.5161H17.704C19.9689 29.5161 22.0119 28.6027 23.511 27.1153C24.9939 25.6424 25.9134 23.6131 25.9134 21.3634Z" fill="#F96363"/>
<path d="M57.832 24.32C56.0187 24.32 54.4613 24.0107 53.16 23.392C51.88 22.7733 50.7173 21.8453 49.672 20.608L52.552 17.728C53.2133 18.6027 53.9813 19.2853 54.856 19.776C55.7307 20.2453 56.7973 20.48 58.056 20.48C59.1867 20.48 60.0827 20.256 60.744 19.808C61.4267 19.36 61.768 18.7413 61.768 17.952C61.768 17.2693 61.576 16.7147 61.192 16.288C60.808 15.8613 60.296 15.4987 59.656 15.2C59.0373 14.9013 58.344 14.6347 57.576 14.4C56.8293 14.144 56.072 13.856 55.304 13.536C54.5573 13.216 53.864 12.8213 53.224 12.352C52.6053 11.8613 52.104 11.2427 51.72 10.496C51.336 9.728 51.144 8.768 51.144 7.616C51.144 6.25067 51.4747 5.088 52.136 4.128C52.7973 3.168 53.704 2.432 54.856 1.92C56.008 1.408 57.3093 1.152 58.76 1.152C60.296 1.152 61.6827 1.44 62.92 2.016C64.1573 2.592 65.1707 3.33867 65.96 4.256L63.08 7.136C62.4187 6.41067 61.736 5.87733 61.032 5.536C60.3493 5.19467 59.5707 5.024 58.696 5.024C57.6933 5.024 56.904 5.216 56.328 5.6C55.752 5.984 55.464 6.53867 55.464 7.264C55.464 7.88267 55.656 8.384 56.04 8.768C56.424 9.152 56.9253 9.48267 57.544 9.76C58.184 10.0373 58.8773 10.304 59.624 10.56C60.392 10.816 61.1493 11.104 61.896 11.424C62.664 11.744 63.3573 12.16 63.976 12.672C64.616 13.184 65.128 13.8453 65.512 14.656C65.896 15.4453 66.088 16.4267 66.088 17.6C66.088 19.6907 65.352 21.3333 63.88 22.528C62.408 23.7227 60.392 24.32 57.832 24.32ZM76.9817 24.32C75.3604 24.32 73.9204 23.9787 72.6617 23.296C71.4031 22.592 70.4004 21.632 69.6537 20.416C68.9284 19.2 68.5657 17.8133 68.5657 16.256C68.5657 14.72 68.9177 13.3547 69.6217 12.16C70.3471 10.944 71.3284 9.984 72.5657 9.28C73.8031 8.55467 75.1791 8.192 76.6937 8.192C78.1871 8.192 79.4991 8.53333 80.6298 9.216C81.7818 9.87733 82.6777 10.7947 83.3177 11.968C83.9791 13.12 84.3097 14.432 84.3097 15.904C84.3097 16.1813 84.2884 16.4693 84.2458 16.768C84.2244 17.0453 84.1711 17.3653 84.0858 17.728L71.0937 17.76V14.624L82.1337 14.592L80.4377 15.904C80.3951 14.9867 80.2244 14.2187 79.9257 13.6C79.6484 12.9813 79.2324 12.512 78.6777 12.192C78.1444 11.8507 77.4831 11.68 76.6937 11.68C75.8617 11.68 75.1364 11.872 74.5177 12.256C73.8991 12.6187 73.4191 13.1413 73.0777 13.824C72.7577 14.4853 72.5977 15.2747 72.5977 16.192C72.5977 17.1307 72.7684 17.952 73.1097 18.656C73.4724 19.3387 73.9844 19.872 74.6457 20.256C75.3071 20.6187 76.0751 20.8 76.9497 20.8C77.7391 20.8 78.4537 20.672 79.0938 20.416C79.7338 20.1387 80.2884 19.7333 80.7577 19.2L83.2218 21.664C82.4751 22.5387 81.5578 23.2 80.4698 23.648C79.4031 24.096 78.2404 24.32 76.9817 24.32ZM87.5422 24V0.863998H91.7342V24H87.5422ZM98.1365 24V6.88C98.1365 5.64267 98.4032 4.55467 98.9365 3.616C99.4698 2.656 100.227 1.89867 101.208 1.344C102.19 0.789333 103.342 0.511999 104.664 0.511999C105.667 0.511999 106.531 0.682666 107.256 1.024C107.982 1.36533 108.632 1.83467 109.208 2.432L106.552 5.12C106.318 4.88533 106.062 4.704 105.784 4.576C105.507 4.448 105.155 4.384 104.728 4.384C103.96 4.384 103.363 4.59733 102.936 5.024C102.531 5.42933 102.328 6.016 102.328 6.784V24H98.1365ZM94.5525 12.224V8.544H106.904V12.224H94.5525ZM121.079 24.32C119.5 24.32 118.028 24.032 116.663 23.456C115.319 22.88 114.145 22.0693 113.143 21.024C112.14 19.9787 111.361 18.7733 110.807 17.408C110.273 16.0213 110.007 14.5387 110.007 12.96C110.007 11.3813 110.273 9.90933 110.807 8.544C111.361 7.15733 112.129 5.952 113.111 4.928C114.113 3.904 115.287 3.104 116.631 2.528C117.975 1.952 119.425 1.664 120.983 1.664C122.668 1.664 124.172 1.96267 125.495 2.56C126.839 3.15733 128.012 3.97867 129.015 5.024L127.415 6.624C126.647 5.77067 125.719 5.10933 124.631 4.64C123.543 4.14933 122.327 3.904 120.983 3.904C119.745 3.904 118.604 4.128 117.559 4.576C116.535 5.024 115.628 5.664 114.839 6.496C114.071 7.30667 113.473 8.26667 113.047 9.376C112.641 10.464 112.439 11.6587 112.439 12.96C112.439 14.2613 112.652 15.4667 113.079 16.576C113.505 17.6853 114.103 18.656 114.871 19.488C115.639 20.2987 116.545 20.928 117.591 21.376C118.636 21.824 119.777 22.048 121.015 22.048C122.423 22.048 123.671 21.8027 124.759 21.312C125.868 20.8213 126.807 20.1493 127.575 19.296L129.175 20.928C128.193 21.9733 127.02 22.8053 125.655 23.424C124.289 24.0213 122.764 24.32 121.079 24.32ZM139.312 24.32C137.883 24.32 136.603 23.9787 135.472 23.296C134.342 22.592 133.446 21.6533 132.784 20.48C132.144 19.3067 131.824 17.984 131.824 16.512C131.824 15.0187 132.144 13.6853 132.784 12.512C133.446 11.3173 134.342 10.3787 135.472 9.696C136.603 8.992 137.872 8.64 139.28 8.64C140.432 8.64 141.456 8.87467 142.352 9.344C143.27 9.792 144.006 10.432 144.56 11.264C145.136 12.0747 145.488 13.024 145.616 14.112V18.816C145.488 19.904 145.136 20.864 144.56 21.696C144.006 22.528 143.27 23.1787 142.352 23.648C141.456 24.096 140.443 24.32 139.312 24.32ZM139.664 22.176C141.222 22.176 142.47 21.6533 143.408 20.608C144.368 19.5627 144.848 18.1867 144.848 16.48C144.848 15.3493 144.624 14.3573 144.176 13.504C143.75 12.6293 143.142 11.9573 142.352 11.488C141.584 10.9973 140.678 10.752 139.632 10.752C138.566 10.752 137.616 10.9973 136.784 11.488C135.974 11.9787 135.323 12.6613 134.832 13.536C134.363 14.3893 134.128 15.3707 134.128 16.48C134.128 17.5893 134.363 18.5707 134.832 19.424C135.323 20.2773 135.984 20.9493 136.816 21.44C137.648 21.9307 138.598 22.176 139.664 22.176ZM144.72 24V19.968L145.168 16.256L144.72 12.64V8.96H146.96V24H144.72ZM152.143 24V8.96H154.383V24H152.143ZM154.383 15.232L153.455 14.816C153.455 12.9173 153.914 11.4133 154.831 10.304C155.77 9.19467 157.05 8.64 158.671 8.64C159.418 8.64 160.101 8.77867 160.719 9.056C161.338 9.312 161.914 9.728 162.447 10.304L160.975 11.872C160.613 11.4667 160.207 11.1787 159.759 11.008C159.333 10.8373 158.842 10.752 158.287 10.752C157.135 10.752 156.197 11.136 155.471 11.904C154.746 12.6507 154.383 13.76 154.383 15.232ZM171.884 24.32C170.369 24.32 169.014 23.9787 167.82 23.296C166.625 22.6133 165.676 21.6747 164.972 20.48C164.289 19.2853 163.948 17.9413 163.948 16.448C163.948 14.976 164.289 13.6533 164.972 12.48C165.654 11.2853 166.582 10.3467 167.756 9.664C168.929 8.98133 170.241 8.64 171.692 8.64C173.057 8.64 174.262 8.94933 175.308 9.568C176.374 10.1867 177.206 11.0507 177.804 12.16C178.422 13.248 178.732 14.5067 178.732 15.936C178.732 16.1067 178.721 16.3093 178.7 16.544C178.678 16.7573 178.636 17.0133 178.572 17.312H165.548V15.392H177.356L176.556 16.096C176.577 14.9867 176.385 14.0373 175.98 13.248C175.596 12.4373 175.03 11.8187 174.284 11.392C173.558 10.944 172.673 10.72 171.628 10.72C170.54 10.72 169.59 10.9547 168.78 11.424C167.969 11.8933 167.329 12.5547 166.86 13.408C166.412 14.24 166.188 15.232 166.188 16.384C166.188 17.536 166.422 18.5493 166.892 19.424C167.382 20.2987 168.054 20.9813 168.908 21.472C169.782 21.9627 170.785 22.208 171.916 22.208C172.833 22.208 173.676 22.048 174.444 21.728C175.212 21.3867 175.862 20.8853 176.396 20.224L177.836 21.696C177.132 22.528 176.257 23.1787 175.212 23.648C174.188 24.096 173.078 24.32 171.884 24.32Z" fill="#1C2359"/>
<path d="M56.7727 38.2727C56.7045 37.697 56.428 37.25 55.9432 36.9318C55.4583 36.6136 54.8636 36.4545 54.1591 36.4545C53.6439 36.4545 53.1932 36.5379 52.8068 36.7045C52.4242 36.8712 52.125 37.1004 51.9091 37.392C51.697 37.6837 51.5909 38.0152 51.5909 38.3864C51.5909 38.697 51.6648 38.964 51.8125 39.1875C51.964 39.4072 52.1572 39.5909 52.392 39.7386C52.6269 39.8826 52.8731 40.0019 53.1307 40.0966C53.3883 40.1875 53.625 40.2614 53.8409 40.3182L55.0227 40.6364C55.3258 40.7159 55.6629 40.8258 56.0341 40.9659C56.4091 41.1061 56.767 41.2973 57.108 41.5398C57.4527 41.7784 57.7367 42.0852 57.9602 42.4602C58.1837 42.8352 58.2955 43.2955 58.2955 43.8409C58.2955 44.4697 58.1307 45.0379 57.8011 45.5455C57.4754 46.053 56.9981 46.4564 56.3693 46.7557C55.7443 47.0549 54.9848 47.2045 54.0909 47.2045C53.2576 47.2045 52.536 47.0701 51.9261 46.8011C51.3201 46.5322 50.8428 46.1572 50.4943 45.6761C50.1496 45.1951 49.9545 44.6364 49.9091 44H51.3636C51.4015 44.4394 51.5492 44.803 51.8068 45.0909C52.0682 45.375 52.3977 45.5871 52.7955 45.7273C53.197 45.8636 53.6288 45.9318 54.0909 45.9318C54.6288 45.9318 55.1117 45.8447 55.5398 45.6705C55.9678 45.4924 56.3068 45.2462 56.5568 44.9318C56.8068 44.6136 56.9318 44.2424 56.9318 43.8182C56.9318 43.4318 56.8239 43.1174 56.608 42.875C56.392 42.6326 56.108 42.4356 55.7557 42.2841C55.4034 42.1326 55.0227 42 54.6136 41.8864L53.1818 41.4773C52.2727 41.2159 51.553 40.8428 51.0227 40.358C50.4924 39.8731 50.2273 39.2386 50.2273 38.4545C50.2273 37.803 50.4034 37.2348 50.7557 36.75C51.1117 36.2614 51.589 35.8826 52.1875 35.6136C52.7898 35.3409 53.4621 35.2045 54.2045 35.2045C54.9545 35.2045 55.6212 35.339 56.2045 35.608C56.7879 35.8731 57.25 36.2367 57.5909 36.6989C57.9356 37.161 58.1174 37.6856 58.1364 38.2727H56.7727ZM60.9322 47V35.3636H62.3413V45.75H67.7504V47H60.9322ZM79.6173 41.1818C79.6173 42.4091 79.3957 43.4697 78.9525 44.3636C78.5093 45.2576 77.9014 45.947 77.1286 46.4318C76.3559 46.9167 75.4733 47.1591 74.4809 47.1591C73.4885 47.1591 72.6059 46.9167 71.8332 46.4318C71.0605 45.947 70.4525 45.2576 70.0093 44.3636C69.5661 43.4697 69.3445 42.4091 69.3445 41.1818C69.3445 39.9545 69.5661 38.8939 70.0093 38C70.4525 37.1061 71.0605 36.4167 71.8332 35.9318C72.6059 35.447 73.4885 35.2045 74.4809 35.2045C75.4733 35.2045 76.3559 35.447 77.1286 35.9318C77.9014 36.4167 78.5093 37.1061 78.9525 38C79.3957 38.8939 79.6173 39.9545 79.6173 41.1818ZM78.2536 41.1818C78.2536 40.1742 78.0851 39.3239 77.748 38.6307C77.4146 37.9375 76.962 37.4129 76.39 37.0568C75.8218 36.7008 75.1855 36.5227 74.4809 36.5227C73.7764 36.5227 73.1381 36.7008 72.5661 37.0568C71.998 37.4129 71.5453 37.9375 71.2082 38.6307C70.8748 39.3239 70.7082 40.1742 70.7082 41.1818C70.7082 42.1894 70.8748 43.0398 71.2082 43.733C71.5453 44.4261 71.998 44.9508 72.5661 45.3068C73.1381 45.6629 73.7764 45.8409 74.4809 45.8409C75.1855 45.8409 75.8218 45.6629 76.39 45.3068C76.962 44.9508 77.4146 44.4261 77.748 43.733C78.0851 43.0398 78.2536 42.1894 78.2536 41.1818ZM90.2611 39C90.1361 38.6174 89.9714 38.2746 89.7668 37.9716C89.5661 37.6648 89.3255 37.4034 89.0452 37.1875C88.7687 36.9716 88.4543 36.8068 88.102 36.6932C87.7498 36.5795 87.3634 36.5227 86.943 36.5227C86.2536 36.5227 85.6267 36.7008 85.0623 37.0568C84.4979 37.4129 84.049 37.9375 83.7157 38.6307C83.3823 39.3239 83.2157 40.1742 83.2157 41.1818C83.2157 42.1894 83.3842 43.0398 83.7214 43.733C84.0585 44.4261 84.5149 44.9508 85.0907 45.3068C85.6664 45.6629 86.3142 45.8409 87.0339 45.8409C87.7005 45.8409 88.2877 45.6989 88.7952 45.4148C89.3066 45.1269 89.7043 44.7216 89.9884 44.1989C90.2763 43.6723 90.4202 43.053 90.4202 42.3409L90.852 42.4318H87.352V41.1818H91.7839V42.4318C91.7839 43.3902 91.5793 44.2235 91.1702 44.9318C90.7649 45.6402 90.2043 46.1894 89.4884 46.5795C88.7763 46.9659 87.9581 47.1591 87.0339 47.1591C86.0036 47.1591 85.0983 46.9167 84.318 46.4318C83.5414 45.947 82.9354 45.2576 82.4998 44.3636C82.068 43.4697 81.852 42.4091 81.852 41.1818C81.852 40.2614 81.9752 39.4337 82.2214 38.6989C82.4714 37.9602 82.8236 37.3314 83.2782 36.8125C83.7327 36.2936 84.2706 35.8958 84.8918 35.6193C85.513 35.3428 86.1967 35.2045 86.943 35.2045C87.5566 35.2045 88.1286 35.2973 88.6589 35.483C89.193 35.6648 89.6683 35.9242 90.085 36.2614C90.5055 36.5947 90.8558 36.9943 91.1361 37.4602C91.4164 37.9223 91.6096 38.4356 91.7157 39H90.2611ZM94.6351 47H93.1578L97.4306 35.3636H98.8851L103.158 47H101.681L98.2033 37.2045H98.1124L94.6351 47ZM95.1806 42.4545H101.135V43.7045H95.1806V42.4545ZM114.518 35.3636V47H113.154L106.813 37.8636H106.699V47H105.29V35.3636H106.654L113.018 44.5227H113.131V35.3636H114.518ZM130.432 39C130.307 38.6174 130.142 38.2746 129.937 37.9716C129.737 37.6648 129.496 37.4034 129.216 37.1875C128.939 36.9716 128.625 36.8068 128.273 36.6932C127.92 36.5795 127.534 36.5227 127.114 36.5227C126.424 36.5227 125.797 36.7008 125.233 37.0568C124.669 37.4129 124.22 37.9375 123.886 38.6307C123.553 39.3239 123.386 40.1742 123.386 41.1818C123.386 42.1894 123.555 43.0398 123.892 43.733C124.229 44.4261 124.686 44.9508 125.261 45.3068C125.837 45.6629 126.485 45.8409 127.204 45.8409C127.871 45.8409 128.458 45.6989 128.966 45.4148C129.477 45.1269 129.875 44.7216 130.159 44.1989C130.447 43.6723 130.591 43.053 130.591 42.3409L131.023 42.4318H127.523V41.1818H131.954V42.4318C131.954 43.3902 131.75 44.2235 131.341 44.9318C130.936 45.6402 130.375 46.1894 129.659 46.5795C128.947 46.9659 128.129 47.1591 127.204 47.1591C126.174 47.1591 125.269 46.9167 124.489 46.4318C123.712 45.947 123.106 45.2576 122.67 44.3636C122.239 43.4697 122.023 42.4091 122.023 41.1818C122.023 40.2614 122.146 39.4337 122.392 38.6989C122.642 37.9602 122.994 37.3314 123.449 36.8125C123.903 36.2936 124.441 35.8958 125.062 35.6193C125.684 35.3428 126.367 35.2045 127.114 35.2045C127.727 35.2045 128.299 35.2973 128.829 35.483C129.364 35.6648 129.839 35.9242 130.256 36.2614C130.676 36.5947 131.026 36.9943 131.307 37.4602C131.587 37.9223 131.78 38.4356 131.886 39H130.432ZM144.506 41.1818C144.506 42.4091 144.284 43.4697 143.841 44.3636C143.398 45.2576 142.79 45.947 142.017 46.4318C141.245 46.9167 140.362 47.1591 139.37 47.1591C138.377 47.1591 137.495 46.9167 136.722 46.4318C135.949 45.947 135.341 45.2576 134.898 44.3636C134.455 43.4697 134.233 42.4091 134.233 41.1818C134.233 39.9545 134.455 38.8939 134.898 38C135.341 37.1061 135.949 36.4167 136.722 35.9318C137.495 35.447 138.377 35.2045 139.37 35.2045C140.362 35.2045 141.245 35.447 142.017 35.9318C142.79 36.4167 143.398 37.1061 143.841 38C144.284 38.8939 144.506 39.9545 144.506 41.1818ZM143.142 41.1818C143.142 40.1742 142.974 39.3239 142.637 38.6307C142.303 37.9375 141.851 37.4129 141.279 37.0568C140.711 36.7008 140.074 36.5227 139.37 36.5227C138.665 36.5227 138.027 36.7008 137.455 37.0568C136.887 37.4129 136.434 37.9375 136.097 38.6307C135.764 39.3239 135.597 40.1742 135.597 41.1818C135.597 42.1894 135.764 43.0398 136.097 43.733C136.434 44.4261 136.887 44.9508 137.455 45.3068C138.027 45.6629 138.665 45.8409 139.37 45.8409C140.074 45.8409 140.711 45.6629 141.279 45.3068C141.851 44.9508 142.303 44.4261 142.637 43.733C142.974 43.0398 143.142 42.1894 143.142 41.1818ZM147.195 47V35.3636H154.218V36.6136H148.604V40.5455H153.854V41.7955H148.604V45.75H154.309V47H147.195ZM163.441 38.2727C163.373 37.697 163.097 37.25 162.612 36.9318C162.127 36.6136 161.532 36.4545 160.828 36.4545C160.313 36.4545 159.862 36.5379 159.476 36.7045C159.093 36.8712 158.794 37.1004 158.578 37.392C158.366 37.6837 158.26 38.0152 158.26 38.3864C158.26 38.697 158.334 38.964 158.481 39.1875C158.633 39.4072 158.826 39.5909 159.061 39.7386C159.296 39.8826 159.542 40.0019 159.799 40.0966C160.057 40.1875 160.294 40.2614 160.51 40.3182L161.691 40.6364C161.995 40.7159 162.332 40.8258 162.703 40.9659C163.078 41.1061 163.436 41.2973 163.777 41.5398C164.121 41.7784 164.405 42.0852 164.629 42.4602C164.852 42.8352 164.964 43.2955 164.964 43.8409C164.964 44.4697 164.799 45.0379 164.47 45.5455C164.144 46.053 163.667 46.4564 163.038 46.7557C162.413 47.0549 161.654 47.2045 160.76 47.2045C159.926 47.2045 159.205 47.0701 158.595 46.8011C157.989 46.5322 157.512 46.1572 157.163 45.6761C156.818 45.1951 156.623 44.6364 156.578 44H158.032C158.07 44.4394 158.218 44.803 158.476 45.0909C158.737 45.375 159.066 45.5871 159.464 45.7273C159.866 45.8636 160.298 45.9318 160.76 45.9318C161.298 45.9318 161.78 45.8447 162.209 45.6705C162.637 45.4924 162.976 45.2462 163.226 44.9318C163.476 44.6136 163.601 44.2424 163.601 43.8182C163.601 43.4318 163.493 43.1174 163.277 42.875C163.061 42.6326 162.777 42.4356 162.424 42.2841C162.072 42.1326 161.691 42 161.282 41.8864L159.851 41.4773C158.941 41.2159 158.222 40.8428 157.691 40.358C157.161 39.8731 156.896 39.2386 156.896 38.4545C156.896 37.803 157.072 37.2348 157.424 36.75C157.78 36.2614 158.258 35.8826 158.856 35.6136C159.459 35.3409 160.131 35.2045 160.873 35.2045C161.623 35.2045 162.29 35.339 162.873 35.608C163.457 35.8731 163.919 36.2367 164.26 36.6989C164.604 37.161 164.786 37.6856 164.805 38.2727H163.441ZM172.421 47V35.3636H173.83V40.5455H180.035V35.3636H181.444V47H180.035V41.7955H173.83V47H172.421ZM184.585 47V35.3636H191.607V36.6136H185.994V40.5455H191.244V41.7955H185.994V45.75H191.698V47H184.585ZM194.467 47V35.3636H198.399C199.308 35.3636 200.054 35.5189 200.638 35.8295C201.221 36.1364 201.653 36.5587 201.933 37.0966C202.213 37.6345 202.354 38.2462 202.354 38.9318C202.354 39.6174 202.213 40.2254 201.933 40.7557C201.653 41.286 201.223 41.7027 200.643 42.0057C200.064 42.3049 199.323 42.4545 198.422 42.4545H195.24V41.1818H198.376C198.998 41.1818 199.498 41.0909 199.876 40.9091C200.259 40.7273 200.535 40.4697 200.706 40.1364C200.88 39.7992 200.967 39.3977 200.967 38.9318C200.967 38.4659 200.88 38.0587 200.706 37.7102C200.532 37.3617 200.253 37.0928 199.871 36.9034C199.488 36.7102 198.982 36.6136 198.354 36.6136H195.876V47H194.467ZM199.944 41.7727L202.808 47H201.172L198.354 41.7727H199.944ZM205.022 47V35.3636H212.044V36.6136H206.431V40.5455H211.681V41.7955H206.431V45.75H212.135V47H205.022Z" fill="#5C5F71"/>
</svg>
