<svg width="250" height="60" viewBox="0 0 250 60" fill="none" xmlns="http://www.w3.org/2000/svg">
<path d="M35.2586 36.4163C43.2683 36.4163 49.7614 29.9303 49.7614 21.9296C49.7614 13.9288 43.2683 7.44287 35.2586 7.44287C27.249 7.44287 20.7559 13.9288 20.7559 21.9296C20.7559 29.9303 27.249 36.4163 35.2586 36.4163Z" fill="#F96363"/>
<path d="M43.8802 18.7359H38.4845V13.3462H32.061V18.7359H26.6367V25.1523H32.061V30.542H38.4845V25.1523H43.8802V18.7359Z" fill="#E4E4E6"/>
<path d="M64.7201 41.9771H7.25139C3.25456 41.9771 0 45.228 0 49.2204V52.7565C0 56.7489 3.25456 59.9999 7.25139 59.9999H29.8049C33.8017 59.9999 37.0563 56.7489 37.0563 52.7565V51.958V48.3649V45.5132H64.7486C66.8041 45.5132 68.46 47.1957 68.46 49.2204C68.46 51.2736 66.8041 52.9276 64.7486 52.9276H51.3592V56.4637H64.7486C68.7454 56.4637 72 53.2128 72 49.2204C71.9715 45.228 68.7169 41.9771 64.7201 41.9771ZM33.4877 52.7565C33.4877 54.8097 31.8033 56.4637 29.7764 56.4637H7.22284C5.16733 56.4637 3.5115 54.8097 3.5115 52.7565V49.2204C3.5115 47.1672 5.16733 45.5132 7.22284 45.5132H33.4877V48.3649V51.958V52.7565Z" fill="white"/>
<path opacity="0.5" d="M58.1247 52.9277H51.3301V56.4639H58.1247V52.9277Z" fill="#E4E4E6"/>
<path opacity="0.5" d="M20.0117 41.9771V45.4847H31.4027H33.4867V48.3364V51.958V52.2717H37.0268V51.958V48.3364V45.4847H39.8531H50.5304V41.9771H20.0117Z" fill="#E4E4E6"/>
<path d="M52.3582 1.16943H45.221V3.19415H52.3582C54.4137 3.19415 56.0695 4.87666 56.0695 6.90137V22.3006C56.0695 22.8995 56.0409 23.4983 55.9838 24.0972C55.0703 34.7341 46.106 43.0896 35.2289 43.0896C24.3518 43.0896 15.416 34.7341 14.4739 24.0972C14.4168 23.4983 14.3883 22.8995 14.3883 22.3006V6.90137C14.3883 4.84814 16.0727 3.19415 18.0996 3.19415H25.2368V1.16943H18.0996C14.9307 1.16943 12.3613 3.73597 12.3613 6.90137V22.3006C12.3613 22.8995 12.3899 23.4983 12.4184 24.0972C13.332 35.8462 23.2099 45.1143 35.1718 45.1143C47.1623 45.1143 57.0116 35.8462 57.9252 24.0972C57.9823 23.4983 57.9823 22.8995 57.9823 22.3006V6.90137C58.0965 3.73597 55.5271 1.16943 52.3582 1.16943Z" fill="#E4E4E6"/>
<path opacity="0.3" d="M58.0958 13.2891V22.3005C58.0958 22.8993 58.0672 23.4982 58.0387 24.097H56.0117C56.0688 23.4982 56.0974 22.8993 56.0974 22.3005V13.2891H58.0958Z" fill="white"/>
<path opacity="0.3" d="M14.5313 24.097H12.5044C12.4473 23.4982 12.4473 22.8993 12.4473 22.3005V13.2891H14.4742V22.3005C14.4457 22.8993 14.4742 23.4982 14.5313 24.097Z" fill="white"/>
<path d="M35.2572 45.9695C22.1819 45.9695 11.5332 35.3326 11.5332 22.2718V18.0228C11.5332 16.9676 12.3897 16.1406 13.4174 16.1406C14.4737 16.1406 15.3016 16.9961 15.3016 18.0228V22.2718C15.3016 33.2509 24.2374 42.1767 35.2287 42.1767C46.22 42.1767 55.1557 33.2509 55.1557 22.2718V18.0228C55.1557 16.9676 56.0122 16.1406 57.0399 16.1406C58.0963 16.1406 58.9242 16.9961 58.9242 18.0228V22.2718C58.9813 35.3612 48.3326 45.9695 35.2572 45.9695Z" fill="white"/>
<path d="M40.5391 43.8306C40.5391 46.7394 38.1696 49.0778 35.2862 49.0778C34.7437 49.0778 34.2299 48.9922 33.7445 48.8497C33.4305 48.7641 33.145 48.65 32.8881 48.5074C31.2037 47.6519 30.0332 45.8839 30.0332 43.8306C30.0332 41.8059 31.2037 40.0379 32.8881 39.1538C33.1736 39.0113 33.4591 38.8972 33.7445 38.8116C34.2299 38.669 34.7437 38.5835 35.2862 38.5835C38.1696 38.5835 40.5391 40.9219 40.5391 43.8306Z" fill="#1C2359"/>
<path d="M35.2584 47.6806C37.3869 47.6806 39.1125 45.957 39.1125 43.8308C39.1125 41.7046 37.3869 39.981 35.2584 39.981C33.1298 39.981 31.4043 41.7046 31.4043 43.8308C31.4043 45.957 33.1298 47.6806 35.2584 47.6806Z" fill="white"/>
<path d="M37.7131 43.8309C37.7131 45.1997 36.5997 46.2834 35.2579 46.2834C33.8876 46.2834 32.8027 45.1712 32.8027 43.8309C32.8027 42.4621 33.9161 41.3784 35.2579 41.3784C36.6283 41.3784 37.7131 42.4906 37.7131 43.8309Z" fill="#1C2359"/>
<path d="M30.3761 1.11219V3.30801C30.3761 3.90687 29.8908 4.39166 29.2913 4.39166H26.4364C25.8369 4.39166 25.3516 3.90687 25.3516 3.30801V1.11219C25.3516 0.51333 25.8369 0.02854 26.4364 0.02854H29.2913C29.8623 2.29236e-05 30.3761 0.484812 30.3761 1.11219Z" fill="white"/>
<path d="M30.3757 1.11217V3.30798C30.3757 3.90684 29.8903 4.39163 29.2908 4.39163H27.1211V0H29.2908C29.8618 0 30.3757 0.484789 30.3757 1.11217Z" fill="#F96363"/>
<path d="M40.168 1.11219V3.30801C40.168 3.90687 40.6533 4.39166 41.2528 4.39166H44.1077C44.7072 4.39166 45.1926 3.90687 45.1926 3.30801V1.11219C45.1926 0.51333 44.7072 0.02854 44.1077 0.02854H41.2528C40.6533 2.29236e-05 40.168 0.484812 40.168 1.11219Z" fill="white"/>
<path d="M40.168 1.11217V3.30798C40.168 3.90684 40.6533 4.39163 41.2528 4.39163H43.4225V0H41.2528C40.6533 0 40.168 0.484789 40.168 1.11217Z" fill="#F96363"/>
<path d="M55.2696 54.7242C55.2696 57.6329 52.9001 59.9714 50.0166 59.9714C49.4742 59.9714 48.9603 59.8858 48.475 59.7432C48.161 59.6577 47.8755 59.5436 47.6185 59.401C45.9342 58.5455 44.7637 56.7774 44.7637 54.7242C44.7637 52.6995 45.9342 50.9314 47.6185 50.0474C47.904 49.9048 48.1895 49.7907 48.475 49.7052C48.9603 49.5626 49.4742 49.4771 50.0166 49.4771C52.9001 49.4771 55.2696 51.8155 55.2696 54.7242Z" fill="#1C2359"/>
<path d="M49.9888 58.5741C52.1174 58.5741 53.8429 56.8505 53.8429 54.7243C53.8429 52.5981 52.1174 50.8745 49.9888 50.8745C47.8603 50.8745 46.1348 52.5981 46.1348 54.7243C46.1348 56.8505 47.8603 58.5741 49.9888 58.5741Z" fill="white"/>
<path d="M52.4436 54.724C52.4436 56.0928 51.3302 57.1764 49.9884 57.1764C48.6181 57.1764 47.5332 56.0643 47.5332 54.724C47.5332 53.3551 48.6466 52.2715 49.9884 52.2715C51.3587 52.2715 52.4436 53.3551 52.4436 54.724Z" fill="#1C2359"/>
<path d="M85.0832 33.2056V8.70556H89.7732L100.203 25.9956H97.7182L107.973 8.70556H112.628L112.698 33.2056H107.378L107.343 16.8606H108.323L100.133 30.6156H97.5782L89.2132 16.8606H90.4032V33.2056H85.0832ZM123.726 18.5756H135.521V22.9856H123.726V18.5756ZM124.146 28.6556H137.481V33.2056H118.511V8.70556H137.026V13.2556H124.146V28.6556ZM141.992 33.2056V8.70556H153.122C155.782 8.70556 158.127 9.2189 160.157 10.2456C162.187 11.2489 163.774 12.6606 164.917 14.4806C166.061 16.3006 166.632 18.4589 166.632 20.9556C166.632 23.4289 166.061 25.5872 164.917 27.4306C163.774 29.2506 162.187 30.6739 160.157 31.7006C158.127 32.7039 155.782 33.2056 153.122 33.2056H141.992ZM147.662 28.5506H152.842C154.476 28.5506 155.887 28.2472 157.077 27.6406C158.291 27.0106 159.224 26.1239 159.877 24.9806C160.554 23.8372 160.892 22.4956 160.892 20.9556C160.892 19.3922 160.554 18.0506 159.877 16.9306C159.224 15.7872 158.291 14.9122 157.077 14.3056C155.887 13.6756 154.476 13.3606 152.842 13.3606H147.662V28.5506ZM182.808 33.6256C180.872 33.6256 179.075 33.3106 177.418 32.6806C175.785 32.0506 174.362 31.1639 173.148 30.0206C171.958 28.8772 171.025 27.5356 170.348 25.9956C169.695 24.4556 169.368 22.7756 169.368 20.9556C169.368 19.1356 169.695 17.4556 170.348 15.9156C171.025 14.3756 171.97 13.0339 173.183 11.8906C174.397 10.7472 175.82 9.86056 177.453 9.23056C179.087 8.60057 180.86 8.28557 182.773 8.28557C184.71 8.28557 186.483 8.60057 188.093 9.23056C189.727 9.86056 191.138 10.7472 192.328 11.8906C193.542 13.0339 194.487 14.3756 195.163 15.9156C195.84 17.4322 196.178 19.1122 196.178 20.9556C196.178 22.7756 195.84 24.4672 195.163 26.0306C194.487 27.5706 193.542 28.9122 192.328 30.0556C191.138 31.1756 189.727 32.0506 188.093 32.6806C186.483 33.3106 184.722 33.6256 182.808 33.6256ZM182.773 28.7956C183.87 28.7956 184.873 28.6089 185.783 28.2356C186.717 27.8622 187.533 27.3256 188.233 26.6256C188.933 25.9256 189.47 25.0972 189.843 24.1406C190.24 23.1839 190.438 22.1222 190.438 20.9556C190.438 19.7889 190.24 18.7272 189.843 17.7706C189.47 16.8139 188.933 15.9856 188.233 15.2856C187.557 14.5856 186.752 14.0489 185.818 13.6756C184.885 13.3022 183.87 13.1156 182.773 13.1156C181.677 13.1156 180.662 13.3022 179.728 13.6756C178.818 14.0489 178.013 14.5856 177.313 15.2856C176.613 15.9856 176.065 16.8139 175.668 17.7706C175.295 18.7272 175.108 19.7889 175.108 20.9556C175.108 22.0989 175.295 23.1606 175.668 24.1406C176.065 25.0972 176.602 25.9256 177.278 26.6256C177.978 27.3256 178.795 27.8622 179.728 28.2356C180.662 28.6089 181.677 28.7956 182.773 28.7956ZM207.004 33.2056L196.434 8.70556H202.559L211.799 30.4056H208.194L217.574 8.70556H223.209L212.604 33.2056H207.004ZM221.214 33.2056L232.134 8.70556H237.734L248.689 33.2056H242.739L233.779 11.5756H236.019L227.024 33.2056H221.214ZM226.674 27.9556L228.179 23.6506H240.779L242.319 27.9556H226.674Z" fill="white"/>
<path d="M85.6016 41.4272L81.8359 51.7944H80.2969L84.6328 40.4194H85.625L85.6016 41.4272ZM88.7578 51.7944L84.9844 41.4272L84.9609 40.4194H85.9531L90.3047 51.7944H88.7578ZM88.5625 47.5835V48.8179H82.1719V47.5835H88.5625ZM93.1797 39.7944V51.7944H91.7266V39.7944H93.1797ZM97.0703 39.7944V51.7944H95.6172V39.7944H97.0703ZM111.008 45.3101V46.5366H104.852V45.3101H111.008ZM105.086 40.4194V51.7944H103.578V40.4194H105.086ZM112.32 40.4194V51.7944H110.82V40.4194H112.32ZM118.289 51.9507C117.701 51.9507 117.167 51.8517 116.688 51.6538C116.214 51.4507 115.805 51.1668 115.461 50.8022C115.122 50.4377 114.862 50.0054 114.68 49.5054C114.497 49.0054 114.406 48.4585 114.406 47.8647V47.5366C114.406 46.8491 114.508 46.2371 114.711 45.7007C114.914 45.159 115.19 44.7007 115.539 44.3257C115.888 43.9507 116.284 43.6668 116.727 43.4741C117.169 43.2814 117.628 43.1851 118.102 43.1851C118.706 43.1851 119.227 43.2892 119.664 43.4976C120.107 43.7059 120.469 43.9976 120.75 44.3726C121.031 44.7424 121.24 45.1799 121.375 45.6851C121.51 46.1851 121.578 46.7319 121.578 47.3257V47.9741H115.266V46.7944H120.133V46.6851C120.112 46.3101 120.034 45.9455 119.898 45.5913C119.768 45.2371 119.56 44.9455 119.273 44.7163C118.987 44.4871 118.596 44.3726 118.102 44.3726C117.773 44.3726 117.471 44.4429 117.195 44.5835C116.919 44.7189 116.682 44.922 116.484 45.1929C116.286 45.4637 116.133 45.7944 116.023 46.1851C115.914 46.5757 115.859 47.0262 115.859 47.5366V47.8647C115.859 48.2658 115.914 48.6434 116.023 48.9976C116.138 49.3465 116.302 49.6538 116.516 49.9194C116.734 50.1851 116.997 50.3934 117.305 50.5444C117.617 50.6955 117.971 50.771 118.367 50.771C118.878 50.771 119.31 50.6668 119.664 50.4585C120.018 50.2502 120.328 49.9715 120.594 49.6226L121.469 50.3179C121.286 50.5939 121.055 50.8569 120.773 51.1069C120.492 51.3569 120.146 51.5601 119.734 51.7163C119.328 51.8726 118.846 51.9507 118.289 51.9507ZM128.25 50.3491V45.9976C128.25 45.6642 128.182 45.3752 128.047 45.1304C127.917 44.8804 127.719 44.6877 127.453 44.5522C127.188 44.4168 126.859 44.3491 126.469 44.3491C126.104 44.3491 125.784 44.4116 125.508 44.5366C125.237 44.6616 125.023 44.8257 124.867 45.0288C124.716 45.2319 124.641 45.4507 124.641 45.6851H123.195C123.195 45.383 123.273 45.0835 123.43 44.7866C123.586 44.4897 123.81 44.2215 124.102 43.9819C124.398 43.7371 124.753 43.5444 125.164 43.4038C125.581 43.258 126.044 43.1851 126.555 43.1851C127.169 43.1851 127.711 43.2892 128.18 43.4976C128.654 43.7059 129.023 44.021 129.289 44.4429C129.56 44.8595 129.695 45.383 129.695 46.0132V49.9507C129.695 50.2319 129.719 50.5314 129.766 50.8491C129.818 51.1668 129.893 51.4403 129.992 51.6694V51.7944H128.484C128.411 51.6278 128.354 51.4064 128.312 51.1304C128.271 50.8491 128.25 50.5887 128.25 50.3491ZM128.5 46.6694L128.516 47.6851H127.055C126.643 47.6851 126.276 47.7189 125.953 47.7866C125.63 47.8491 125.359 47.9455 125.141 48.0757C124.922 48.2059 124.755 48.37 124.641 48.5679C124.526 48.7606 124.469 48.9871 124.469 49.2476C124.469 49.5132 124.529 49.7554 124.648 49.9741C124.768 50.1929 124.948 50.3674 125.188 50.4976C125.432 50.6226 125.732 50.6851 126.086 50.6851C126.529 50.6851 126.919 50.5913 127.258 50.4038C127.596 50.2163 127.865 49.9871 128.062 49.7163C128.266 49.4455 128.375 49.1825 128.391 48.9272L129.008 49.6226C128.971 49.8413 128.872 50.0835 128.711 50.3491C128.549 50.6147 128.333 50.87 128.062 51.1147C127.797 51.3543 127.479 51.5549 127.109 51.7163C126.745 51.8726 126.333 51.9507 125.875 51.9507C125.302 51.9507 124.799 51.8387 124.367 51.6147C123.94 51.3908 123.607 51.0913 123.367 50.7163C123.133 50.3361 123.016 49.9116 123.016 49.4429C123.016 48.9897 123.104 48.5913 123.281 48.2476C123.458 47.8986 123.714 47.6095 124.047 47.3804C124.38 47.146 124.781 46.9689 125.25 46.8491C125.719 46.7293 126.242 46.6694 126.82 46.6694H128.5ZM133.539 39.7944V51.7944H132.086V39.7944H133.539ZM139.398 43.3413V44.4507H134.828V43.3413H139.398ZM136.375 41.2866H137.82V49.7007C137.82 49.9871 137.865 50.2033 137.953 50.3491C138.042 50.495 138.156 50.5913 138.297 50.6382C138.438 50.6851 138.589 50.7085 138.75 50.7085C138.87 50.7085 138.995 50.6981 139.125 50.6772C139.26 50.6512 139.362 50.6304 139.43 50.6147L139.438 51.7944C139.323 51.8309 139.172 51.8647 138.984 51.896C138.802 51.9325 138.581 51.9507 138.32 51.9507C137.966 51.9507 137.641 51.8804 137.344 51.7397C137.047 51.5991 136.81 51.3647 136.633 51.0366C136.461 50.7033 136.375 50.2554 136.375 49.6929V41.2866ZM142.539 39.7944V51.7944H141.094V39.7944H142.539ZM142.195 47.2476L141.594 47.2241C141.599 46.646 141.685 46.1121 141.852 45.6226C142.018 45.1278 142.253 44.6981 142.555 44.3335C142.857 43.9689 143.216 43.6877 143.633 43.4897C144.055 43.2866 144.521 43.1851 145.031 43.1851C145.448 43.1851 145.823 43.2424 146.156 43.3569C146.49 43.4663 146.773 43.6434 147.008 43.8882C147.247 44.133 147.43 44.4507 147.555 44.8413C147.68 45.2267 147.742 45.6981 147.742 46.2554V51.7944H146.289V46.2397C146.289 45.797 146.224 45.4429 146.094 45.1772C145.964 44.9064 145.773 44.7111 145.523 44.5913C145.273 44.4663 144.966 44.4038 144.602 44.4038C144.242 44.4038 143.914 44.4793 143.617 44.6304C143.326 44.7814 143.073 44.9897 142.859 45.2554C142.651 45.521 142.487 45.8257 142.367 46.1694C142.253 46.508 142.195 46.8674 142.195 47.2476ZM160.961 48.1772H162.461C162.383 48.896 162.177 49.5392 161.844 50.1069C161.51 50.6746 161.039 51.1252 160.43 51.4585C159.82 51.7866 159.06 51.9507 158.148 51.9507C157.482 51.9507 156.875 51.8257 156.328 51.5757C155.786 51.3257 155.32 50.9715 154.93 50.5132C154.539 50.0496 154.237 49.495 154.023 48.8491C153.815 48.1981 153.711 47.4741 153.711 46.6772V45.5444C153.711 44.7476 153.815 44.0262 154.023 43.3804C154.237 42.7293 154.542 42.172 154.938 41.7085C155.339 41.245 155.82 40.8882 156.383 40.6382C156.945 40.3882 157.578 40.2632 158.281 40.2632C159.141 40.2632 159.867 40.4246 160.461 40.7476C161.055 41.0705 161.516 41.5184 161.844 42.0913C162.177 42.659 162.383 43.3179 162.461 44.0679H160.961C160.888 43.5366 160.753 43.0809 160.555 42.7007C160.357 42.3153 160.076 42.0184 159.711 41.8101C159.346 41.6017 158.87 41.4976 158.281 41.4976C157.776 41.4976 157.331 41.5939 156.945 41.7866C156.565 41.9793 156.245 42.2528 155.984 42.6069C155.729 42.9611 155.536 43.3856 155.406 43.8804C155.276 44.3752 155.211 44.9246 155.211 45.5288V46.6772C155.211 47.2345 155.268 47.758 155.383 48.2476C155.503 48.7371 155.682 49.1668 155.922 49.5366C156.161 49.9064 156.466 50.1981 156.836 50.4116C157.206 50.62 157.643 50.7241 158.148 50.7241C158.789 50.7241 159.299 50.6226 159.68 50.4194C160.06 50.2163 160.346 49.9246 160.539 49.5444C160.737 49.1642 160.878 48.7085 160.961 48.1772ZM169.281 50.3491V45.9976C169.281 45.6642 169.214 45.3752 169.078 45.1304C168.948 44.8804 168.75 44.6877 168.484 44.5522C168.219 44.4168 167.891 44.3491 167.5 44.3491C167.135 44.3491 166.815 44.4116 166.539 44.5366C166.268 44.6616 166.055 44.8257 165.898 45.0288C165.747 45.2319 165.672 45.4507 165.672 45.6851H164.227C164.227 45.383 164.305 45.0835 164.461 44.7866C164.617 44.4897 164.841 44.2215 165.133 43.9819C165.43 43.7371 165.784 43.5444 166.195 43.4038C166.612 43.258 167.076 43.1851 167.586 43.1851C168.201 43.1851 168.742 43.2892 169.211 43.4976C169.685 43.7059 170.055 44.021 170.32 44.4429C170.591 44.8595 170.727 45.383 170.727 46.0132V49.9507C170.727 50.2319 170.75 50.5314 170.797 50.8491C170.849 51.1668 170.924 51.4403 171.023 51.6694V51.7944H169.516C169.443 51.6278 169.385 51.4064 169.344 51.1304C169.302 50.8491 169.281 50.5887 169.281 50.3491ZM169.531 46.6694L169.547 47.6851H168.086C167.674 47.6851 167.307 47.7189 166.984 47.7866C166.661 47.8491 166.391 47.9455 166.172 48.0757C165.953 48.2059 165.786 48.37 165.672 48.5679C165.557 48.7606 165.5 48.9871 165.5 49.2476C165.5 49.5132 165.56 49.7554 165.68 49.9741C165.799 50.1929 165.979 50.3674 166.219 50.4976C166.464 50.6226 166.763 50.6851 167.117 50.6851C167.56 50.6851 167.951 50.5913 168.289 50.4038C168.628 50.2163 168.896 49.9871 169.094 49.7163C169.297 49.4455 169.406 49.1825 169.422 48.9272L170.039 49.6226C170.003 49.8413 169.904 50.0835 169.742 50.3491C169.581 50.6147 169.365 50.87 169.094 51.1147C168.828 51.3543 168.51 51.5549 168.141 51.7163C167.776 51.8726 167.365 51.9507 166.906 51.9507C166.333 51.9507 165.831 51.8387 165.398 51.6147C164.971 51.3908 164.638 51.0913 164.398 50.7163C164.164 50.3361 164.047 49.9116 164.047 49.4429C164.047 48.9897 164.135 48.5913 164.312 48.2476C164.49 47.8986 164.745 47.6095 165.078 47.3804C165.411 47.146 165.812 46.9689 166.281 46.8491C166.75 46.7293 167.273 46.6694 167.852 46.6694H169.531ZM174.445 44.6694V51.7944H173V43.3413H174.406L174.445 44.6694ZM177.086 43.2944L177.078 44.6382C176.958 44.6121 176.844 44.5965 176.734 44.5913C176.63 44.5809 176.51 44.5757 176.375 44.5757C176.042 44.5757 175.747 44.6278 175.492 44.7319C175.237 44.8361 175.021 44.9819 174.844 45.1694C174.667 45.3569 174.526 45.5809 174.422 45.8413C174.323 46.0965 174.258 46.3778 174.227 46.6851L173.82 46.9194C173.82 46.409 173.87 45.9299 173.969 45.4819C174.073 45.034 174.232 44.6382 174.445 44.2944C174.659 43.9455 174.93 43.6746 175.258 43.4819C175.591 43.284 175.987 43.1851 176.445 43.1851C176.549 43.1851 176.669 43.1981 176.805 43.2241C176.94 43.245 177.034 43.2684 177.086 43.2944ZM181.773 51.9507C181.185 51.9507 180.651 51.8517 180.172 51.6538C179.698 51.4507 179.289 51.1668 178.945 50.8022C178.607 50.4377 178.346 50.0054 178.164 49.5054C177.982 49.0054 177.891 48.4585 177.891 47.8647V47.5366C177.891 46.8491 177.992 46.2371 178.195 45.7007C178.398 45.159 178.674 44.7007 179.023 44.3257C179.372 43.9507 179.768 43.6668 180.211 43.4741C180.654 43.2814 181.112 43.1851 181.586 43.1851C182.19 43.1851 182.711 43.2892 183.148 43.4976C183.591 43.7059 183.953 43.9976 184.234 44.3726C184.516 44.7424 184.724 45.1799 184.859 45.6851C184.995 46.1851 185.062 46.7319 185.062 47.3257V47.9741H178.75V46.7944H183.617V46.6851C183.596 46.3101 183.518 45.9455 183.383 45.5913C183.253 45.2371 183.044 44.9455 182.758 44.7163C182.471 44.4871 182.081 44.3726 181.586 44.3726C181.258 44.3726 180.956 44.4429 180.68 44.5835C180.404 44.7189 180.167 44.922 179.969 45.1929C179.771 45.4637 179.617 45.7944 179.508 46.1851C179.398 46.5757 179.344 47.0262 179.344 47.5366V47.8647C179.344 48.2658 179.398 48.6434 179.508 48.9976C179.622 49.3465 179.786 49.6538 180 49.9194C180.219 50.1851 180.482 50.3934 180.789 50.5444C181.102 50.6955 181.456 50.771 181.852 50.771C182.362 50.771 182.794 50.6668 183.148 50.4585C183.503 50.2502 183.812 49.9715 184.078 49.6226L184.953 50.3179C184.771 50.5939 184.539 50.8569 184.258 51.1069C183.977 51.3569 183.63 51.5601 183.219 51.7163C182.812 51.8726 182.331 51.9507 181.773 51.9507ZM197 48.9194C197 48.6538 196.958 48.4194 196.875 48.2163C196.797 48.008 196.656 47.8205 196.453 47.6538C196.255 47.4871 195.979 47.3283 195.625 47.1772C195.276 47.0262 194.833 46.8726 194.297 46.7163C193.734 46.5496 193.227 46.3647 192.773 46.1616C192.32 45.9533 191.932 45.7163 191.609 45.4507C191.286 45.1851 191.039 44.8804 190.867 44.5366C190.695 44.1929 190.609 43.7996 190.609 43.3569C190.609 42.9142 190.701 42.5054 190.883 42.1304C191.065 41.7554 191.326 41.4299 191.664 41.1538C192.008 40.8726 192.417 40.6538 192.891 40.4976C193.365 40.3413 193.893 40.2632 194.477 40.2632C195.331 40.2632 196.055 40.4272 196.648 40.7554C197.247 41.0783 197.703 41.5028 198.016 42.0288C198.328 42.5496 198.484 43.1069 198.484 43.7007H196.984C196.984 43.2736 196.893 42.896 196.711 42.5679C196.529 42.2345 196.253 41.9741 195.883 41.7866C195.513 41.5939 195.044 41.4976 194.477 41.4976C193.94 41.4976 193.497 41.5783 193.148 41.7397C192.799 41.9012 192.539 42.12 192.367 42.396C192.201 42.672 192.117 42.9871 192.117 43.3413C192.117 43.5809 192.167 43.7996 192.266 43.9976C192.37 44.1903 192.529 44.37 192.742 44.5366C192.961 44.7033 193.237 44.8569 193.57 44.9976C193.909 45.1382 194.312 45.2736 194.781 45.4038C195.427 45.5861 195.984 45.7892 196.453 46.0132C196.922 46.2371 197.307 46.4897 197.609 46.771C197.917 47.047 198.143 47.3621 198.289 47.7163C198.44 48.0653 198.516 48.4611 198.516 48.9038C198.516 49.3674 198.422 49.7866 198.234 50.1616C198.047 50.5366 197.779 50.8569 197.43 51.1226C197.081 51.3882 196.661 51.5939 196.172 51.7397C195.688 51.8804 195.146 51.9507 194.547 51.9507C194.021 51.9507 193.503 51.8778 192.992 51.7319C192.487 51.5861 192.026 51.3674 191.609 51.0757C191.198 50.784 190.867 50.4246 190.617 49.9976C190.372 49.5653 190.25 49.0653 190.25 48.4976H191.75C191.75 48.8882 191.826 49.2241 191.977 49.5054C192.128 49.7814 192.333 50.0106 192.594 50.1929C192.859 50.3752 193.159 50.5106 193.492 50.5991C193.831 50.6825 194.182 50.7241 194.547 50.7241C195.073 50.7241 195.518 50.6512 195.883 50.5054C196.247 50.3595 196.523 50.1512 196.711 49.8804C196.904 49.6095 197 49.2892 197 48.9194ZM203.727 51.9507C203.138 51.9507 202.604 51.8517 202.125 51.6538C201.651 51.4507 201.242 51.1668 200.898 50.8022C200.56 50.4377 200.299 50.0054 200.117 49.5054C199.935 49.0054 199.844 48.4585 199.844 47.8647V47.5366C199.844 46.8491 199.945 46.2371 200.148 45.7007C200.352 45.159 200.628 44.7007 200.977 44.3257C201.326 43.9507 201.721 43.6668 202.164 43.4741C202.607 43.2814 203.065 43.1851 203.539 43.1851C204.143 43.1851 204.664 43.2892 205.102 43.4976C205.544 43.7059 205.906 43.9976 206.188 44.3726C206.469 44.7424 206.677 45.1799 206.812 45.6851C206.948 46.1851 207.016 46.7319 207.016 47.3257V47.9741H200.703V46.7944H205.57V46.6851C205.549 46.3101 205.471 45.9455 205.336 45.5913C205.206 45.2371 204.997 44.9455 204.711 44.7163C204.424 44.4871 204.034 44.3726 203.539 44.3726C203.211 44.3726 202.909 44.4429 202.633 44.5835C202.357 44.7189 202.12 44.922 201.922 45.1929C201.724 45.4637 201.57 45.7944 201.461 46.1851C201.352 46.5757 201.297 47.0262 201.297 47.5366V47.8647C201.297 48.2658 201.352 48.6434 201.461 48.9976C201.576 49.3465 201.74 49.6538 201.953 49.9194C202.172 50.1851 202.435 50.3934 202.742 50.5444C203.055 50.6955 203.409 50.771 203.805 50.771C204.315 50.771 204.747 50.6668 205.102 50.4585C205.456 50.2502 205.766 49.9715 206.031 49.6226L206.906 50.3179C206.724 50.5939 206.492 50.8569 206.211 51.1069C205.93 51.3569 205.583 51.5601 205.172 51.7163C204.766 51.8726 204.284 51.9507 203.727 51.9507ZM210.148 44.6694V51.7944H208.703V43.3413H210.109L210.148 44.6694ZM212.789 43.2944L212.781 44.6382C212.661 44.6121 212.547 44.5965 212.438 44.5913C212.333 44.5809 212.214 44.5757 212.078 44.5757C211.745 44.5757 211.451 44.6278 211.195 44.7319C210.94 44.8361 210.724 44.9819 210.547 45.1694C210.37 45.3569 210.229 45.5809 210.125 45.8413C210.026 46.0965 209.961 46.3778 209.93 46.6851L209.523 46.9194C209.523 46.409 209.573 45.9299 209.672 45.4819C209.776 45.034 209.935 44.6382 210.148 44.2944C210.362 43.9455 210.633 43.6746 210.961 43.4819C211.294 43.284 211.69 43.1851 212.148 43.1851C212.253 43.1851 212.372 43.1981 212.508 43.2241C212.643 43.245 212.737 43.2684 212.789 43.2944ZM216.836 50.4897L219.148 43.3413H220.625L217.586 51.7944H216.617L216.836 50.4897ZM214.906 43.3413L217.289 50.5288L217.453 51.7944H216.484L213.422 43.3413H214.906ZM223.586 43.3413V51.7944H222.133V43.3413H223.586ZM222.023 41.0991C222.023 40.8647 222.094 40.6668 222.234 40.5054C222.38 40.3439 222.594 40.2632 222.875 40.2632C223.151 40.2632 223.362 40.3439 223.508 40.5054C223.659 40.6668 223.734 40.8647 223.734 41.0991C223.734 41.3231 223.659 41.5158 223.508 41.6772C223.362 41.8335 223.151 41.9116 222.875 41.9116C222.594 41.9116 222.38 41.8335 222.234 41.6772C222.094 41.5158 222.023 41.3231 222.023 41.0991ZM229.289 50.7632C229.633 50.7632 229.951 50.6929 230.242 50.5522C230.534 50.4116 230.773 50.2189 230.961 49.9741C231.148 49.7241 231.255 49.4403 231.281 49.1226H232.656C232.63 49.6226 232.461 50.0887 232.148 50.521C231.841 50.9481 231.438 51.2944 230.938 51.5601C230.438 51.8205 229.888 51.9507 229.289 51.9507C228.654 51.9507 228.099 51.8387 227.625 51.6147C227.156 51.3908 226.766 51.0835 226.453 50.6929C226.146 50.3022 225.914 49.8543 225.758 49.3491C225.607 48.8387 225.531 48.2996 225.531 47.7319V47.4038C225.531 46.8361 225.607 46.2996 225.758 45.7944C225.914 45.284 226.146 44.8335 226.453 44.4429C226.766 44.0522 227.156 43.745 227.625 43.521C228.099 43.297 228.654 43.1851 229.289 43.1851C229.951 43.1851 230.529 43.3205 231.023 43.5913C231.518 43.8569 231.906 44.2215 232.188 44.6851C232.474 45.1434 232.63 45.6642 232.656 46.2476H231.281C231.255 45.8986 231.156 45.5835 230.984 45.3022C230.818 45.021 230.589 44.797 230.297 44.6304C230.01 44.4585 229.674 44.3726 229.289 44.3726C228.846 44.3726 228.474 44.4611 228.172 44.6382C227.875 44.8101 227.638 45.0444 227.461 45.3413C227.289 45.633 227.164 45.9585 227.086 46.3179C227.013 46.672 226.977 47.034 226.977 47.4038V47.7319C226.977 48.1017 227.013 48.4663 227.086 48.8257C227.159 49.1851 227.281 49.5106 227.453 49.8022C227.63 50.0939 227.867 50.3283 228.164 50.5054C228.466 50.6772 228.841 50.7632 229.289 50.7632ZM237.789 51.9507C237.201 51.9507 236.667 51.8517 236.188 51.6538C235.714 51.4507 235.305 51.1668 234.961 50.8022C234.622 50.4377 234.362 50.0054 234.18 49.5054C233.997 49.0054 233.906 48.4585 233.906 47.8647V47.5366C233.906 46.8491 234.008 46.2371 234.211 45.7007C234.414 45.159 234.69 44.7007 235.039 44.3257C235.388 43.9507 235.784 43.6668 236.227 43.4741C236.669 43.2814 237.128 43.1851 237.602 43.1851C238.206 43.1851 238.727 43.2892 239.164 43.4976C239.607 43.7059 239.969 43.9976 240.25 44.3726C240.531 44.7424 240.74 45.1799 240.875 45.6851C241.01 46.1851 241.078 46.7319 241.078 47.3257V47.9741H234.766V46.7944H239.633V46.6851C239.612 46.3101 239.534 45.9455 239.398 45.5913C239.268 45.2371 239.06 44.9455 238.773 44.7163C238.487 44.4871 238.096 44.3726 237.602 44.3726C237.273 44.3726 236.971 44.4429 236.695 44.5835C236.419 44.7189 236.182 44.922 235.984 45.1929C235.786 45.4637 235.633 45.7944 235.523 46.1851C235.414 46.5757 235.359 47.0262 235.359 47.5366V47.8647C235.359 48.2658 235.414 48.6434 235.523 48.9976C235.638 49.3465 235.802 49.6538 236.016 49.9194C236.234 50.1851 236.497 50.3934 236.805 50.5444C237.117 50.6955 237.471 50.771 237.867 50.771C238.378 50.771 238.81 50.6668 239.164 50.4585C239.518 50.2502 239.828 49.9715 240.094 49.6226L240.969 50.3179C240.786 50.5939 240.555 50.8569 240.273 51.1069C239.992 51.3569 239.646 51.5601 239.234 51.7163C238.828 51.8726 238.346 51.9507 237.789 51.9507ZM247.688 49.5522C247.688 49.3439 247.641 49.1512 247.547 48.9741C247.458 48.7918 247.273 48.6278 246.992 48.4819C246.716 48.3309 246.299 48.2007 245.742 48.0913C245.273 47.9924 244.849 47.8752 244.469 47.7397C244.094 47.6043 243.773 47.4403 243.508 47.2476C243.247 47.0549 243.047 46.8283 242.906 46.5679C242.766 46.3075 242.695 46.0028 242.695 45.6538C242.695 45.3205 242.768 45.0054 242.914 44.7085C243.065 44.4116 243.276 44.1486 243.547 43.9194C243.823 43.6903 244.154 43.5106 244.539 43.3804C244.924 43.2502 245.354 43.1851 245.828 43.1851C246.505 43.1851 247.083 43.3049 247.562 43.5444C248.042 43.784 248.409 44.1043 248.664 44.5054C248.919 44.9012 249.047 45.3413 249.047 45.8257H247.602C247.602 45.5913 247.531 45.3647 247.391 45.146C247.255 44.922 247.055 44.7371 246.789 44.5913C246.529 44.4455 246.208 44.3726 245.828 44.3726C245.427 44.3726 245.102 44.4351 244.852 44.5601C244.607 44.6799 244.427 44.8335 244.312 45.021C244.203 45.2085 244.148 45.4064 244.148 45.6147C244.148 45.771 244.174 45.9116 244.227 46.0366C244.284 46.1564 244.383 46.2684 244.523 46.3726C244.664 46.4715 244.862 46.5653 245.117 46.6538C245.372 46.7424 245.698 46.8309 246.094 46.9194C246.786 47.0757 247.357 47.2632 247.805 47.4819C248.253 47.7007 248.586 47.9689 248.805 48.2866C249.023 48.6043 249.133 48.9897 249.133 49.4429C249.133 49.8127 249.055 50.1512 248.898 50.4585C248.747 50.7658 248.526 51.0314 248.234 51.2554C247.948 51.4741 247.604 51.646 247.203 51.771C246.807 51.8908 246.362 51.9507 245.867 51.9507C245.122 51.9507 244.492 51.8179 243.977 51.5522C243.461 51.2866 243.07 50.9429 242.805 50.521C242.539 50.0991 242.406 49.6538 242.406 49.1851H243.859C243.88 49.5809 243.995 49.896 244.203 50.1304C244.411 50.3595 244.667 50.5236 244.969 50.6226C245.271 50.7163 245.57 50.7632 245.867 50.7632C246.263 50.7632 246.594 50.7111 246.859 50.6069C247.13 50.5028 247.336 50.3595 247.477 50.1772C247.617 49.995 247.688 49.7866 247.688 49.5522Z" fill="white"/>
</svg>
