<svg width="205" height="45" viewBox="0 0 205 45" fill="none" xmlns="http://www.w3.org/2000/svg">
<path d="M23.5052 26.7776C28.845 26.7776 33.1737 22.4536 33.1737 17.1198C33.1737 11.7859 28.845 7.46198 23.5052 7.46198C18.1654 7.46198 13.8367 11.7859 13.8367 17.1198C13.8367 22.4536 18.1654 26.7776 23.5052 26.7776Z" fill="#F96363"/>
<path d="M29.253 14.9905H25.6558V11.3974H21.3735V14.9905H17.7574V19.2681H21.3735V22.8612H25.6558V19.2681H29.253V14.9905Z" fill="#E4E4E6"/>
<path d="M43.1467 30.4848H4.83426C2.16971 30.4848 0 32.6521 0 35.3137V37.6711C0 40.3327 2.16971 42.5 4.83426 42.5H19.8699C22.5345 42.5 24.7042 40.3327 24.7042 37.6711V37.1388V34.7433V32.8422H43.1657C44.5361 32.8422 45.64 33.9639 45.64 35.3137C45.64 36.6825 44.5361 37.7852 43.1657 37.7852H34.2395V40.1426H43.1657C45.8303 40.1426 48 37.9753 48 35.3137C47.981 32.6521 45.8113 30.4848 43.1467 30.4848ZM22.3251 37.6711C22.3251 39.0399 21.2022 40.1426 19.8509 40.1426H4.81523C3.44489 40.1426 2.341 39.0399 2.341 37.6711V35.3137C2.341 33.9448 3.44489 32.8422 4.81523 32.8422H22.3251V34.7433V37.1388V37.6711Z" fill="#1C2359"/>
<path opacity="0.5" d="M38.7502 37.7852H34.2204V40.1426H38.7502V37.7852Z" fill="#E4E4E6"/>
<path opacity="0.5" d="M13.3418 30.4848V32.8232H20.9358H22.3251V34.7243V37.1388V37.3479H24.6852V37.1388V34.7243V32.8232H26.5694H33.6876V30.4848H13.3418Z" fill="#E4E4E6"/>
<path d="M34.9056 3.27948H30.1475V4.62929H34.9056C36.276 4.62929 37.3798 5.75096 37.3798 7.10077V17.3669C37.3798 17.7662 37.3608 18.1654 37.3227 18.5646C36.7137 25.6559 30.7375 31.2262 23.4861 31.2262C16.2347 31.2262 10.2775 25.6559 9.64946 18.5646C9.6114 18.1654 9.59237 17.7662 9.59237 17.3669V7.10077C9.59237 5.73195 10.7153 4.62929 12.0666 4.62929H16.8247V3.27948H12.0666C9.95398 3.27948 8.24106 4.99051 8.24106 7.10077V17.3669C8.24106 17.7662 8.26009 18.1654 8.27912 18.5646C8.88816 26.3973 15.4734 32.5761 23.448 32.5761C31.4417 32.5761 38.0079 26.3973 38.617 18.5646C38.655 18.1654 38.655 17.7662 38.655 17.3669V7.10077C38.7311 4.99051 37.0182 3.27948 34.9056 3.27948Z" fill="#E4E4E6"/>
<path opacity="0.3" d="M38.7312 11.3593V17.3669C38.7312 17.7662 38.7121 18.1654 38.6931 18.5646H37.3418C37.3799 18.1654 37.3989 17.7662 37.3989 17.3669V11.3593H38.7312Z" fill="#1C2359"/>
<path opacity="0.3" d="M9.68756 18.5646H8.33625C8.29819 18.1654 8.29819 17.7662 8.29819 17.3669V11.3593H9.6495V17.3669C9.63046 17.7662 9.6495 18.1654 9.68756 18.5646Z" fill="#1C2359"/>
<path d="M23.5051 33.1464C14.7882 33.1464 7.68912 26.0551 7.68912 17.3479V14.5152C7.68912 13.8118 8.26009 13.2604 8.94526 13.2604C9.64947 13.2604 10.2014 13.8308 10.2014 14.5152V17.3479C10.2014 24.6673 16.1586 30.6179 23.4861 30.6179C30.8136 30.6179 36.7708 24.6673 36.7708 17.3479V14.5152C36.7708 13.8118 37.3418 13.2604 38.0269 13.2604C38.7311 13.2604 39.2831 13.8308 39.2831 14.5152V17.3479C39.3212 26.0741 32.222 33.1464 23.5051 33.1464Z" fill="#1C2359"/>
<path d="M27.0262 31.7205C27.0262 33.6597 25.4465 35.2186 23.5242 35.2186C23.1626 35.2186 22.82 35.1616 22.4964 35.0665C22.2871 35.0095 22.0968 34.9334 21.9255 34.8384C20.8025 34.268 20.0222 33.0893 20.0222 31.7205C20.0222 30.3707 20.8025 29.192 21.9255 28.6026C22.1158 28.5076 22.3061 28.4315 22.4964 28.3745C22.82 28.2794 23.1626 28.2224 23.5242 28.2224C25.4465 28.2224 27.0262 29.7813 27.0262 31.7205Z" fill="#1C2359"/>
<path d="M23.5051 34.287C24.9242 34.287 26.0745 33.138 26.0745 31.7205C26.0745 30.303 24.9242 29.154 23.5051 29.154C22.0861 29.154 20.9358 30.303 20.9358 31.7205C20.9358 33.138 22.0861 34.287 23.5051 34.287Z" fill="white"/>
<path d="M25.142 31.7205C25.142 32.6331 24.3997 33.3555 23.5052 33.3555C22.5916 33.3555 21.8684 32.6141 21.8684 31.7205C21.8684 30.808 22.6106 30.0855 23.5052 30.0855C24.4187 30.0855 25.142 30.827 25.142 31.7205Z" fill="#1C2359"/>
<path d="M20.2506 3.24145V4.70533C20.2506 5.10457 19.9271 5.42776 19.5274 5.42776H17.6241C17.2245 5.42776 16.9009 5.10457 16.9009 4.70533V3.24145C16.9009 2.84221 17.2245 2.51902 17.6241 2.51902H19.5274C19.908 2.50001 20.2506 2.8232 20.2506 3.24145Z" fill="#1C2359"/>
<path d="M20.2506 3.24144V4.70532C20.2506 5.10456 19.9271 5.42776 19.5274 5.42776H18.0809V2.5H19.5274C19.908 2.5 20.2506 2.82319 20.2506 3.24144Z" fill="#F96363"/>
<path d="M26.7788 3.24145V4.70533C26.7788 5.10457 27.1023 5.42776 27.502 5.42776H29.4053C29.8049 5.42776 30.1285 5.10457 30.1285 4.70533V3.24145C30.1285 2.84221 29.8049 2.51902 29.4053 2.51902H27.502C27.1023 2.50001 26.7788 2.8232 26.7788 3.24145Z" fill="#1C2359"/>
<path d="M26.7788 3.24144V4.70532C26.7788 5.10456 27.1023 5.42776 27.502 5.42776H28.9485V2.5H27.502C27.1023 2.5 26.7788 2.82319 26.7788 3.24144Z" fill="#F96363"/>
<path d="M36.8469 38.9829C36.8469 40.9221 35.2673 42.481 33.345 42.481C32.9834 42.481 32.6408 42.424 32.3172 42.3289C32.1079 42.2719 31.9175 42.1958 31.7462 42.1008C30.6233 41.5304 29.843 40.3517 29.843 38.9829C29.843 37.6331 30.6233 36.4544 31.7462 35.865C31.9366 35.77 32.1269 35.6939 32.3172 35.6369C32.6408 35.5418 32.9834 35.4848 33.345 35.4848C35.2673 35.4848 36.8469 37.0437 36.8469 38.9829Z" fill="#1C2359"/>
<path d="M33.326 41.5494C34.745 41.5494 35.8953 40.4004 35.8953 38.9829C35.8953 37.5654 34.745 36.4164 33.326 36.4164C31.9069 36.4164 30.7566 37.5654 30.7566 38.9829C30.7566 40.4004 31.9069 41.5494 33.326 41.5494Z" fill="white"/>
<path d="M34.9627 38.9829C34.9627 39.8955 34.2205 40.6179 33.3259 40.6179C32.4124 40.6179 31.6891 39.8764 31.6891 38.9829C31.6891 38.0704 32.4314 37.3479 33.3259 37.3479C34.2395 37.3479 34.9627 38.0704 34.9627 38.9829Z" fill="#1C2359"/>
<path d="M60.2418 22V0.999999H64.2618L73.2018 15.82H71.0718L79.8618 0.999999H83.8518L83.9118 22H79.3518L79.3218 7.99H80.1618L73.1418 19.78H70.9518L63.7818 7.99H64.8018V22H60.2418ZM93.3642 9.46H103.474V13.24H93.3642V9.46ZM93.7242 18.1H105.154V22H88.8942V0.999999H104.764V4.9H93.7242V18.1ZM109.021 22V0.999999H118.561C120.841 0.999999 122.851 1.44 124.591 2.32C126.331 3.18 127.691 4.39 128.671 5.95C129.651 7.51 130.141 9.36 130.141 11.5C130.141 13.62 129.651 15.47 128.671 17.05C127.691 18.61 126.331 19.83 124.591 20.71C122.851 21.57 120.841 22 118.561 22H109.021ZM113.881 18.01H118.321C119.721 18.01 120.931 17.75 121.951 17.23C122.991 16.69 123.791 15.93 124.351 14.95C124.931 13.97 125.221 12.82 125.221 11.5C125.221 10.16 124.931 9.01 124.351 8.05C123.791 7.07 122.991 6.32 121.951 5.8C120.931 5.26 119.721 4.99 118.321 4.99H113.881V18.01ZM144.006 22.36C142.346 22.36 140.806 22.09 139.386 21.55C137.986 21.01 136.766 20.25 135.726 19.27C134.706 18.29 133.906 17.14 133.326 15.82C132.766 14.5 132.486 13.06 132.486 11.5C132.486 9.94 132.766 8.5 133.326 7.18C133.906 5.86 134.716 4.71 135.756 3.73C136.796 2.75 138.016 1.99 139.416 1.45C140.816 0.909999 142.336 0.64 143.976 0.64C145.636 0.64 147.156 0.909999 148.536 1.45C149.936 1.99 151.146 2.75 152.166 3.73C153.206 4.71 154.016 5.86 154.596 7.18C155.176 8.48 155.466 9.92 155.466 11.5C155.466 13.06 155.176 14.51 154.596 15.85C154.016 17.17 153.206 18.32 152.166 19.3C151.146 20.26 149.936 21.01 148.536 21.55C147.156 22.09 145.646 22.36 144.006 22.36ZM143.976 18.22C144.916 18.22 145.776 18.06 146.556 17.74C147.356 17.42 148.056 16.96 148.656 16.36C149.256 15.76 149.716 15.05 150.036 14.23C150.376 13.41 150.546 12.5 150.546 11.5C150.546 10.5 150.376 9.59 150.036 8.77C149.716 7.95 149.256 7.24 148.656 6.64C148.076 6.04 147.386 5.58 146.586 5.26C145.786 4.94 144.916 4.78 143.976 4.78C143.036 4.78 142.166 4.94 141.366 5.26C140.586 5.58 139.896 6.04 139.296 6.64C138.696 7.24 138.226 7.95 137.886 8.77C137.566 9.59 137.406 10.5 137.406 11.5C137.406 12.48 137.566 13.39 137.886 14.23C138.226 15.05 138.686 15.76 139.266 16.36C139.866 16.96 140.566 17.42 141.366 17.74C142.166 18.06 143.036 18.22 143.976 18.22ZM164.745 22L155.685 0.999999H160.935L168.855 19.6H165.765L173.805 0.999999H178.635L169.545 22H164.745ZM176.925 22L186.285 0.999999H191.085L200.475 22H195.375L187.695 3.46H189.615L181.905 22H176.925ZM181.605 17.5L182.895 13.81H193.695L195.015 17.5H181.605Z" fill="#1C2359"/>
<path d="M60.8398 34.9287L57.5449 44H56.1982L59.9922 34.0469H60.8604L60.8398 34.9287ZM63.6016 44L60.2998 34.9287L60.2793 34.0469H61.1475L64.9551 44H63.6016ZM63.4307 40.3154V41.3955H57.8389V40.3154H63.4307ZM67.4707 33.5V44H66.1992V33.5H67.4707ZM70.875 33.5V44H69.6035V33.5H70.875ZM83.0703 38.3262V39.3994H77.6836V38.3262H83.0703ZM77.8887 34.0469V44H76.5693V34.0469H77.8887ZM84.2188 34.0469V44H82.9062V34.0469H84.2188ZM89.4414 44.1367C88.9264 44.1367 88.4593 44.0501 88.04 43.877C87.6253 43.6992 87.2676 43.4508 86.9668 43.1318C86.6706 42.8128 86.4427 42.4346 86.2832 41.9971C86.1237 41.5596 86.0439 41.0811 86.0439 40.5615V40.2744C86.0439 39.6729 86.1328 39.1374 86.3105 38.668C86.4883 38.194 86.7298 37.793 87.0352 37.4648C87.3405 37.1367 87.6868 36.8883 88.0742 36.7197C88.4616 36.5511 88.8626 36.4668 89.2773 36.4668C89.806 36.4668 90.2617 36.5579 90.6445 36.7402C91.0319 36.9225 91.3486 37.1777 91.5947 37.5059C91.8408 37.8294 92.0231 38.2122 92.1416 38.6543C92.2601 39.0918 92.3193 39.5703 92.3193 40.0898V40.6572H86.7959V39.625H91.0547V39.5293C91.0365 39.2012 90.9681 38.8822 90.8496 38.5723C90.7357 38.2624 90.5534 38.0072 90.3027 37.8066C90.0521 37.6061 89.7103 37.5059 89.2773 37.5059C88.9902 37.5059 88.7259 37.5674 88.4844 37.6904C88.2428 37.8089 88.0355 37.9867 87.8623 38.2236C87.6891 38.4606 87.5547 38.75 87.459 39.0918C87.3633 39.4336 87.3154 39.8278 87.3154 40.2744V40.5615C87.3154 40.9124 87.3633 41.2428 87.459 41.5527C87.5592 41.8581 87.7028 42.127 87.8896 42.3594C88.0811 42.5918 88.3112 42.7741 88.5801 42.9062C88.8535 43.0384 89.1634 43.1045 89.5098 43.1045C89.9564 43.1045 90.3346 43.0133 90.6445 42.8311C90.9544 42.6488 91.2256 42.4049 91.458 42.0996L92.2236 42.708C92.0641 42.9495 91.8613 43.1797 91.6152 43.3984C91.3691 43.6172 91.0661 43.7949 90.7061 43.9316C90.3506 44.0684 89.929 44.1367 89.4414 44.1367ZM98.1572 42.7354V38.9277C98.1572 38.6361 98.098 38.3831 97.9795 38.1689C97.8656 37.9502 97.6924 37.7816 97.46 37.6631C97.2275 37.5446 96.9404 37.4854 96.5986 37.4854C96.2796 37.4854 95.9993 37.54 95.7578 37.6494C95.5208 37.7588 95.334 37.9023 95.1973 38.0801C95.0651 38.2578 94.999 38.4492 94.999 38.6543H93.7344C93.7344 38.39 93.8027 38.1279 93.9395 37.8682C94.0762 37.6084 94.2721 37.3737 94.5273 37.1641C94.7871 36.9499 95.097 36.7812 95.457 36.6582C95.8216 36.5306 96.2272 36.4668 96.6738 36.4668C97.2116 36.4668 97.6855 36.5579 98.0957 36.7402C98.5104 36.9225 98.834 37.1982 99.0664 37.5674C99.3034 37.932 99.4219 38.39 99.4219 38.9414V42.3867C99.4219 42.6328 99.4424 42.8949 99.4834 43.1729C99.529 43.4508 99.5951 43.6901 99.6816 43.8906V44H98.3623C98.2985 43.8542 98.2484 43.6605 98.2119 43.4189C98.1755 43.1729 98.1572 42.945 98.1572 42.7354ZM98.376 39.5156L98.3896 40.4043H97.1113C96.7513 40.4043 96.43 40.4339 96.1475 40.4932C95.8649 40.5479 95.6279 40.6322 95.4365 40.7461C95.2451 40.86 95.0993 41.0036 94.999 41.1768C94.8988 41.3454 94.8486 41.5436 94.8486 41.7715C94.8486 42.0039 94.901 42.2158 95.0059 42.4072C95.1107 42.5986 95.2679 42.7513 95.4775 42.8652C95.6917 42.9746 95.9538 43.0293 96.2637 43.0293C96.651 43.0293 96.9928 42.9473 97.2891 42.7832C97.5853 42.6191 97.82 42.4186 97.9932 42.1816C98.1709 41.9447 98.2666 41.7145 98.2803 41.4912L98.8203 42.0996C98.7884 42.291 98.7018 42.5029 98.5605 42.7354C98.4193 42.9678 98.2301 43.1911 97.9932 43.4053C97.7607 43.6149 97.4827 43.7904 97.1592 43.9316C96.8402 44.0684 96.4801 44.1367 96.0791 44.1367C95.5778 44.1367 95.138 44.0387 94.7598 43.8428C94.3861 43.6468 94.0944 43.3848 93.8848 43.0566C93.6797 42.724 93.5771 42.3525 93.5771 41.9424C93.5771 41.5459 93.6546 41.1973 93.8096 40.8965C93.9645 40.5911 94.1878 40.3382 94.4795 40.1377C94.7712 39.9326 95.1221 39.7777 95.5322 39.6729C95.9424 39.568 96.4004 39.5156 96.9062 39.5156H98.376ZM102.785 33.5V44H101.514V33.5H102.785ZM107.912 36.6035V37.5742H103.913V36.6035H107.912ZM105.267 34.8057H106.531V42.168C106.531 42.4186 106.57 42.6077 106.647 42.7354C106.725 42.863 106.825 42.9473 106.948 42.9883C107.071 43.0293 107.203 43.0498 107.345 43.0498C107.45 43.0498 107.559 43.0407 107.673 43.0225C107.791 42.9997 107.88 42.9814 107.939 42.9678L107.946 44C107.846 44.0319 107.714 44.0615 107.55 44.0889C107.39 44.1208 107.197 44.1367 106.969 44.1367C106.659 44.1367 106.374 44.0752 106.114 43.9521C105.854 43.8291 105.647 43.624 105.492 43.3369C105.342 43.0452 105.267 42.6533 105.267 42.1611V34.8057ZM110.66 33.5V44H109.396V33.5H110.66ZM110.359 40.0215L109.833 40.001C109.838 39.4951 109.913 39.028 110.059 38.5996C110.204 38.1667 110.41 37.7907 110.674 37.4717C110.938 37.1527 111.253 36.9066 111.617 36.7334C111.986 36.5557 112.394 36.4668 112.841 36.4668C113.205 36.4668 113.534 36.5169 113.825 36.6172C114.117 36.7129 114.365 36.8678 114.57 37.082C114.78 37.2962 114.939 37.5742 115.049 37.916C115.158 38.2533 115.213 38.6657 115.213 39.1533V44H113.941V39.1396C113.941 38.7523 113.884 38.4424 113.771 38.21C113.657 37.973 113.49 37.8021 113.271 37.6973C113.053 37.5879 112.784 37.5332 112.465 37.5332C112.15 37.5332 111.863 37.5993 111.604 37.7314C111.348 37.8636 111.127 38.0459 110.94 38.2783C110.758 38.5107 110.615 38.7773 110.51 39.0781C110.41 39.3743 110.359 39.6888 110.359 40.0215ZM126.779 40.835H128.092C128.023 41.4639 127.843 42.0267 127.552 42.5234C127.26 43.0202 126.848 43.4144 126.314 43.7061C125.781 43.9932 125.116 44.1367 124.318 44.1367C123.735 44.1367 123.204 44.0273 122.726 43.8086C122.252 43.5898 121.844 43.2799 121.502 42.8789C121.16 42.4733 120.896 41.988 120.709 41.4229C120.527 40.8532 120.436 40.2197 120.436 39.5225V38.5312C120.436 37.834 120.527 37.2028 120.709 36.6377C120.896 36.068 121.162 35.5804 121.509 35.1748C121.86 34.7692 122.281 34.457 122.773 34.2383C123.266 34.0195 123.819 33.9102 124.435 33.9102C125.187 33.9102 125.822 34.0514 126.342 34.334C126.861 34.6165 127.265 35.0085 127.552 35.5098C127.843 36.0065 128.023 36.583 128.092 37.2393H126.779C126.715 36.7744 126.597 36.3757 126.424 36.043C126.251 35.7057 126.005 35.446 125.686 35.2637C125.367 35.0814 124.95 34.9902 124.435 34.9902C123.993 34.9902 123.603 35.0745 123.266 35.2432C122.933 35.4118 122.653 35.651 122.425 35.9609C122.201 36.2708 122.033 36.6423 121.919 37.0752C121.805 37.5081 121.748 37.9889 121.748 38.5176V39.5225C121.748 40.0101 121.798 40.4681 121.898 40.8965C122.003 41.3249 122.16 41.7008 122.37 42.0244C122.58 42.348 122.846 42.6032 123.17 42.79C123.493 42.9723 123.876 43.0635 124.318 43.0635C124.879 43.0635 125.326 42.9746 125.658 42.7969C125.991 42.6191 126.242 42.3639 126.41 42.0312C126.583 41.6986 126.706 41.2998 126.779 40.835ZM134.06 42.7354V38.9277C134.06 38.6361 134 38.3831 133.882 38.1689C133.768 37.9502 133.595 37.7816 133.362 37.6631C133.13 37.5446 132.843 37.4854 132.501 37.4854C132.182 37.4854 131.902 37.54 131.66 37.6494C131.423 37.7588 131.236 37.9023 131.1 38.0801C130.967 38.2578 130.901 38.4492 130.901 38.6543H129.637C129.637 38.39 129.705 38.1279 129.842 37.8682C129.979 37.6084 130.174 37.3737 130.43 37.1641C130.689 36.9499 130.999 36.7812 131.359 36.6582C131.724 36.5306 132.13 36.4668 132.576 36.4668C133.114 36.4668 133.588 36.5579 133.998 36.7402C134.413 36.9225 134.736 37.1982 134.969 37.5674C135.206 37.932 135.324 38.39 135.324 38.9414V42.3867C135.324 42.6328 135.345 42.8949 135.386 43.1729C135.431 43.4508 135.497 43.6901 135.584 43.8906V44H134.265C134.201 43.8542 134.151 43.6605 134.114 43.4189C134.078 43.1729 134.06 42.945 134.06 42.7354ZM134.278 39.5156L134.292 40.4043H133.014C132.654 40.4043 132.332 40.4339 132.05 40.4932C131.767 40.5479 131.53 40.6322 131.339 40.7461C131.147 40.86 131.002 41.0036 130.901 41.1768C130.801 41.3454 130.751 41.5436 130.751 41.7715C130.751 42.0039 130.803 42.2158 130.908 42.4072C131.013 42.5986 131.17 42.7513 131.38 42.8652C131.594 42.9746 131.856 43.0293 132.166 43.0293C132.553 43.0293 132.895 42.9473 133.191 42.7832C133.488 42.6191 133.722 42.4186 133.896 42.1816C134.073 41.9447 134.169 41.7145 134.183 41.4912L134.723 42.0996C134.691 42.291 134.604 42.5029 134.463 42.7354C134.322 42.9678 134.132 43.1911 133.896 43.4053C133.663 43.6149 133.385 43.7904 133.062 43.9316C132.743 44.0684 132.382 44.1367 131.981 44.1367C131.48 44.1367 131.04 44.0387 130.662 43.8428C130.288 43.6468 129.997 43.3848 129.787 43.0566C129.582 42.724 129.479 42.3525 129.479 41.9424C129.479 41.5459 129.557 41.1973 129.712 40.8965C129.867 40.5911 130.09 40.3382 130.382 40.1377C130.674 39.9326 131.024 39.7777 131.435 39.6729C131.845 39.568 132.303 39.5156 132.809 39.5156H134.278ZM138.578 37.7656V44H137.313V36.6035H138.544L138.578 37.7656ZM140.889 36.5625L140.882 37.7383C140.777 37.7155 140.677 37.7018 140.581 37.6973C140.49 37.6882 140.385 37.6836 140.267 37.6836C139.975 37.6836 139.717 37.7292 139.494 37.8203C139.271 37.9115 139.082 38.0391 138.927 38.2031C138.772 38.3672 138.649 38.5632 138.558 38.791C138.471 39.0143 138.414 39.2604 138.387 39.5293L138.031 39.7344C138.031 39.2878 138.075 38.8685 138.161 38.4766C138.252 38.0846 138.391 37.7383 138.578 37.4375C138.765 37.1322 139.002 36.8952 139.289 36.7266C139.581 36.5534 139.927 36.4668 140.328 36.4668C140.419 36.4668 140.524 36.4782 140.643 36.501C140.761 36.5192 140.843 36.5397 140.889 36.5625ZM144.99 44.1367C144.475 44.1367 144.008 44.0501 143.589 43.877C143.174 43.6992 142.816 43.4508 142.516 43.1318C142.219 42.8128 141.992 42.4346 141.832 41.9971C141.673 41.5596 141.593 41.0811 141.593 40.5615V40.2744C141.593 39.6729 141.682 39.1374 141.859 38.668C142.037 38.194 142.279 37.793 142.584 37.4648C142.889 37.1367 143.236 36.8883 143.623 36.7197C144.01 36.5511 144.411 36.4668 144.826 36.4668C145.355 36.4668 145.811 36.5579 146.193 36.7402C146.581 36.9225 146.897 37.1777 147.144 37.5059C147.39 37.8294 147.572 38.2122 147.69 38.6543C147.809 39.0918 147.868 39.5703 147.868 40.0898V40.6572H142.345V39.625H146.604V39.5293C146.585 39.2012 146.517 38.8822 146.398 38.5723C146.285 38.2624 146.102 38.0072 145.852 37.8066C145.601 37.6061 145.259 37.5059 144.826 37.5059C144.539 37.5059 144.275 37.5674 144.033 37.6904C143.792 37.8089 143.584 37.9867 143.411 38.2236C143.238 38.4606 143.104 38.75 143.008 39.0918C142.912 39.4336 142.864 39.8278 142.864 40.2744V40.5615C142.864 40.9124 142.912 41.2428 143.008 41.5527C143.108 41.8581 143.252 42.127 143.438 42.3594C143.63 42.5918 143.86 42.7741 144.129 42.9062C144.402 43.0384 144.712 43.1045 145.059 43.1045C145.505 43.1045 145.883 43.0133 146.193 42.8311C146.503 42.6488 146.774 42.4049 147.007 42.0996L147.772 42.708C147.613 42.9495 147.41 43.1797 147.164 43.3984C146.918 43.6172 146.615 43.7949 146.255 43.9316C145.899 44.0684 145.478 44.1367 144.99 44.1367ZM158.313 41.4844C158.313 41.252 158.277 41.0469 158.204 40.8691C158.136 40.6868 158.013 40.5228 157.835 40.377C157.662 40.2311 157.42 40.0921 157.11 39.96C156.805 39.8278 156.418 39.6934 155.948 39.5566C155.456 39.4108 155.012 39.249 154.615 39.0713C154.219 38.889 153.879 38.6816 153.597 38.4492C153.314 38.2168 153.098 37.9502 152.947 37.6494C152.797 37.3486 152.722 37.0046 152.722 36.6172C152.722 36.2298 152.801 35.8721 152.961 35.5439C153.12 35.2158 153.348 34.931 153.645 34.6895C153.945 34.4434 154.303 34.252 154.718 34.1152C155.132 33.9785 155.595 33.9102 156.105 33.9102C156.853 33.9102 157.486 34.0537 158.006 34.3408C158.53 34.6234 158.929 34.9948 159.202 35.4551C159.476 35.9108 159.612 36.3984 159.612 36.918H158.3C158.3 36.5443 158.22 36.2139 158.061 35.9268C157.901 35.6351 157.66 35.4072 157.336 35.2432C157.012 35.0745 156.602 34.9902 156.105 34.9902C155.636 34.9902 155.249 35.0609 154.943 35.2021C154.638 35.3434 154.41 35.5348 154.26 35.7764C154.114 36.0179 154.041 36.2936 154.041 36.6035C154.041 36.8132 154.084 37.0046 154.171 37.1777C154.262 37.3464 154.401 37.5036 154.588 37.6494C154.779 37.7952 155.021 37.9297 155.312 38.0527C155.609 38.1758 155.962 38.2943 156.372 38.4082C156.937 38.5677 157.425 38.7454 157.835 38.9414C158.245 39.1374 158.582 39.3584 158.847 39.6045C159.116 39.846 159.314 40.1217 159.441 40.4316C159.574 40.737 159.64 41.0833 159.64 41.4707C159.64 41.8763 159.558 42.2432 159.394 42.5713C159.229 42.8994 158.995 43.1797 158.689 43.4121C158.384 43.6445 158.017 43.8245 157.589 43.9521C157.165 44.0752 156.691 44.1367 156.167 44.1367C155.707 44.1367 155.253 44.0729 154.807 43.9453C154.365 43.8177 153.961 43.6263 153.597 43.3711C153.237 43.1159 152.947 42.8014 152.729 42.4277C152.514 42.0495 152.407 41.612 152.407 41.1152H153.72C153.72 41.457 153.786 41.751 153.918 41.9971C154.05 42.2386 154.23 42.4391 154.458 42.5986C154.69 42.7581 154.952 42.8766 155.244 42.9541C155.54 43.027 155.848 43.0635 156.167 43.0635C156.627 43.0635 157.017 42.9997 157.336 42.8721C157.655 42.7445 157.896 42.5622 158.061 42.3252C158.229 42.0882 158.313 41.8079 158.313 41.4844ZM164.199 44.1367C163.684 44.1367 163.217 44.0501 162.798 43.877C162.383 43.6992 162.025 43.4508 161.725 43.1318C161.428 42.8128 161.201 42.4346 161.041 41.9971C160.882 41.5596 160.802 41.0811 160.802 40.5615V40.2744C160.802 39.6729 160.891 39.1374 161.068 38.668C161.246 38.194 161.488 37.793 161.793 37.4648C162.098 37.1367 162.445 36.8883 162.832 36.7197C163.219 36.5511 163.62 36.4668 164.035 36.4668C164.564 36.4668 165.02 36.5579 165.402 36.7402C165.79 36.9225 166.106 37.1777 166.353 37.5059C166.599 37.8294 166.781 38.2122 166.899 38.6543C167.018 39.0918 167.077 39.5703 167.077 40.0898V40.6572H161.554V39.625H165.812V39.5293C165.794 39.2012 165.726 38.8822 165.607 38.5723C165.493 38.2624 165.311 38.0072 165.061 37.8066C164.81 37.6061 164.468 37.5059 164.035 37.5059C163.748 37.5059 163.484 37.5674 163.242 37.6904C163.001 37.8089 162.793 37.9867 162.62 38.2236C162.447 38.4606 162.312 38.75 162.217 39.0918C162.121 39.4336 162.073 39.8278 162.073 40.2744V40.5615C162.073 40.9124 162.121 41.2428 162.217 41.5527C162.317 41.8581 162.461 42.127 162.647 42.3594C162.839 42.5918 163.069 42.7741 163.338 42.9062C163.611 43.0384 163.921 43.1045 164.268 43.1045C164.714 43.1045 165.092 43.0133 165.402 42.8311C165.712 42.6488 165.983 42.4049 166.216 42.0996L166.981 42.708C166.822 42.9495 166.619 43.1797 166.373 43.3984C166.127 43.6172 165.824 43.7949 165.464 43.9316C165.108 44.0684 164.687 44.1367 164.199 44.1367ZM169.818 37.7656V44H168.554V36.6035H169.784L169.818 37.7656ZM172.129 36.5625L172.122 37.7383C172.017 37.7155 171.917 37.7018 171.821 37.6973C171.73 37.6882 171.625 37.6836 171.507 37.6836C171.215 37.6836 170.958 37.7292 170.734 37.8203C170.511 37.9115 170.322 38.0391 170.167 38.2031C170.012 38.3672 169.889 38.5632 169.798 38.791C169.711 39.0143 169.654 39.2604 169.627 39.5293L169.271 39.7344C169.271 39.2878 169.315 38.8685 169.401 38.4766C169.493 38.0846 169.632 37.7383 169.818 37.4375C170.005 37.1322 170.242 36.8952 170.529 36.7266C170.821 36.5534 171.167 36.4668 171.568 36.4668C171.66 36.4668 171.764 36.4782 171.883 36.501C172.001 36.5192 172.083 36.5397 172.129 36.5625ZM175.67 42.8584L177.693 36.6035H178.985L176.326 44H175.479L175.67 42.8584ZM173.981 36.6035L176.066 42.8926L176.21 44H175.362L172.683 36.6035H173.981ZM181.576 36.6035V44H180.305V36.6035H181.576ZM180.209 34.6416C180.209 34.4365 180.271 34.2633 180.394 34.1221C180.521 33.9808 180.708 33.9102 180.954 33.9102C181.196 33.9102 181.38 33.9808 181.508 34.1221C181.64 34.2633 181.706 34.4365 181.706 34.6416C181.706 34.8376 181.64 35.0062 181.508 35.1475C181.38 35.2842 181.196 35.3525 180.954 35.3525C180.708 35.3525 180.521 35.2842 180.394 35.1475C180.271 35.0062 180.209 34.8376 180.209 34.6416ZM186.566 43.0977C186.867 43.0977 187.145 43.0361 187.4 42.9131C187.656 42.79 187.865 42.6214 188.029 42.4072C188.193 42.1885 188.287 41.9401 188.31 41.6621H189.513C189.49 42.0996 189.342 42.5075 189.068 42.8857C188.799 43.2594 188.446 43.5625 188.009 43.7949C187.571 44.0228 187.09 44.1367 186.566 44.1367C186.01 44.1367 185.525 44.0387 185.11 43.8428C184.7 43.6468 184.358 43.3779 184.085 43.0361C183.816 42.6943 183.613 42.3024 183.477 41.8604C183.344 41.4137 183.278 40.9421 183.278 40.4453V40.1582C183.278 39.6615 183.344 39.1921 183.477 38.75C183.613 38.3034 183.816 37.9092 184.085 37.5674C184.358 37.2256 184.7 36.9567 185.11 36.7607C185.525 36.5648 186.01 36.4668 186.566 36.4668C187.145 36.4668 187.651 36.5853 188.084 36.8223C188.517 37.0547 188.856 37.3737 189.103 37.7793C189.353 38.1803 189.49 38.6361 189.513 39.1465H188.31C188.287 38.8411 188.2 38.5654 188.05 38.3193C187.904 38.0732 187.703 37.8773 187.448 37.7314C187.198 37.5811 186.904 37.5059 186.566 37.5059C186.179 37.5059 185.853 37.5833 185.589 37.7383C185.329 37.8887 185.122 38.0938 184.967 38.3535C184.816 38.6087 184.707 38.8936 184.639 39.208C184.575 39.5179 184.543 39.8346 184.543 40.1582V40.4453C184.543 40.7689 184.575 41.0879 184.639 41.4023C184.702 41.7168 184.81 42.0016 184.96 42.2568C185.115 42.512 185.322 42.7171 185.582 42.8721C185.846 43.0225 186.174 43.0977 186.566 43.0977ZM194.004 44.1367C193.489 44.1367 193.022 44.0501 192.603 43.877C192.188 43.6992 191.83 43.4508 191.529 43.1318C191.233 42.8128 191.005 42.4346 190.846 41.9971C190.686 41.5596 190.606 41.0811 190.606 40.5615V40.2744C190.606 39.6729 190.695 39.1374 190.873 38.668C191.051 38.194 191.292 37.793 191.598 37.4648C191.903 37.1367 192.249 36.8883 192.637 36.7197C193.024 36.5511 193.425 36.4668 193.84 36.4668C194.368 36.4668 194.824 36.5579 195.207 36.7402C195.594 36.9225 195.911 37.1777 196.157 37.5059C196.403 37.8294 196.586 38.2122 196.704 38.6543C196.823 39.0918 196.882 39.5703 196.882 40.0898V40.6572H191.358V39.625H195.617V39.5293C195.599 39.2012 195.531 38.8822 195.412 38.5723C195.298 38.2624 195.116 38.0072 194.865 37.8066C194.615 37.6061 194.273 37.5059 193.84 37.5059C193.553 37.5059 193.288 37.5674 193.047 37.6904C192.805 37.8089 192.598 37.9867 192.425 38.2236C192.252 38.4606 192.117 38.75 192.021 39.0918C191.926 39.4336 191.878 39.8278 191.878 40.2744V40.5615C191.878 40.9124 191.926 41.2428 192.021 41.5527C192.122 41.8581 192.265 42.127 192.452 42.3594C192.644 42.5918 192.874 42.7741 193.143 42.9062C193.416 43.0384 193.726 43.1045 194.072 43.1045C194.519 43.1045 194.897 43.0133 195.207 42.8311C195.517 42.6488 195.788 42.4049 196.021 42.0996L196.786 42.708C196.627 42.9495 196.424 43.1797 196.178 43.3984C195.932 43.6172 195.629 43.7949 195.269 43.9316C194.913 44.0684 194.492 44.1367 194.004 44.1367ZM202.665 42.0381C202.665 41.8558 202.624 41.6872 202.542 41.5322C202.465 41.3727 202.303 41.2292 202.057 41.1016C201.815 40.9694 201.451 40.8555 200.963 40.7598C200.553 40.6732 200.181 40.5706 199.849 40.4521C199.521 40.3337 199.24 40.1901 199.008 40.0215C198.78 39.8529 198.604 39.6546 198.481 39.4268C198.358 39.1989 198.297 38.9323 198.297 38.627C198.297 38.3353 198.361 38.0596 198.488 37.7998C198.62 37.54 198.805 37.3099 199.042 37.1094C199.284 36.9089 199.573 36.7516 199.91 36.6377C200.247 36.5238 200.623 36.4668 201.038 36.4668C201.631 36.4668 202.136 36.5716 202.556 36.7812C202.975 36.9909 203.296 37.2712 203.52 37.6221C203.743 37.9684 203.854 38.3535 203.854 38.7773H202.59C202.59 38.5723 202.528 38.374 202.405 38.1826C202.287 37.9867 202.111 37.8249 201.879 37.6973C201.651 37.5697 201.371 37.5059 201.038 37.5059C200.687 37.5059 200.402 37.5605 200.184 37.6699C199.969 37.7747 199.812 37.9092 199.712 38.0732C199.616 38.2373 199.568 38.4105 199.568 38.5928C199.568 38.7295 199.591 38.8525 199.637 38.9619C199.687 39.0667 199.773 39.1647 199.896 39.2559C200.02 39.3424 200.193 39.4245 200.416 39.502C200.639 39.5794 200.924 39.6569 201.271 39.7344C201.877 39.8711 202.376 40.0352 202.768 40.2266C203.16 40.418 203.451 40.6527 203.643 40.9307C203.834 41.2087 203.93 41.5459 203.93 41.9424C203.93 42.266 203.861 42.5622 203.725 42.8311C203.592 43.0999 203.399 43.3324 203.144 43.5283C202.893 43.7197 202.592 43.8701 202.241 43.9795C201.895 44.0843 201.505 44.1367 201.072 44.1367C200.421 44.1367 199.869 44.0205 199.418 43.7881C198.967 43.5557 198.625 43.2549 198.393 42.8857C198.16 42.5166 198.044 42.127 198.044 41.7168H199.315C199.334 42.0632 199.434 42.3389 199.616 42.5439C199.799 42.7445 200.022 42.888 200.286 42.9746C200.55 43.0566 200.812 43.0977 201.072 43.0977C201.419 43.0977 201.708 43.0521 201.94 42.9609C202.177 42.8698 202.357 42.7445 202.48 42.585C202.604 42.4255 202.665 42.2432 202.665 42.0381Z" fill="#1C2359"/>
</svg>
